<svg width="325" height="53" viewBox="0 0 325 53" fill="none" xmlns="http://www.w3.org/2000/svg">
<path d="M27.5116 31.5138C28.1918 33.0037 28.9368 34.0241 29.7466 34.5747H22.9931C23.2522 34.2508 23.3818 33.7973 23.3818 33.2143C23.3818 32.4045 23.1874 31.368 22.7987 30.1047L20.2722 23.6427H7.29964L5.21042 29.4731C5.01608 30.0886 4.91891 30.6554 4.91891 31.1737C4.91891 31.8863 5.01608 32.4855 5.21042 32.9714C5.43716 33.4572 5.72868 33.9917 6.08498 34.5747H0.0602559C1.16155 33.7649 2.08469 32.9875 2.82969 32.2426C3.60707 31.4976 4.19011 30.5744 4.5788 29.4731L14.8306 0.564161H15.6565L27.5116 31.5138ZM13.6159 6.24878L7.54258 23.0597H20.0779L13.6159 6.24878ZM50.4881 34.5747C51.2655 33.7325 51.6542 32.0644 51.6542 29.5703V18.4926C51.6542 15.8689 51.1035 13.9254 50.0022 12.6622C48.9009 11.399 47.4919 10.7673 45.7752 10.7673C44.2852 10.7673 42.779 11.1884 41.2567 12.0306C39.7343 12.8403 38.4872 13.9093 37.5155 15.2373V29.5703C37.5155 32.1616 37.9042 33.8297 38.6816 34.5747H32.6569C33.4342 33.7325 33.8229 32.0644 33.8229 29.5703V15.2859C33.8229 12.6622 33.4342 10.9941 32.6569 10.2815H37.5155V14.4599C38.6168 12.9699 40.0744 11.7876 41.8883 10.9131C43.7022 10.0385 45.5323 9.60125 47.3786 9.60125C49.6783 9.60125 51.5732 10.33 53.0632 11.7876C54.5856 13.2128 55.3467 15.3507 55.3467 18.2011V29.5703C55.3467 32.1616 55.7354 33.8297 56.5128 34.5747H50.4881ZM78.9006 34.5747V31.2708C78.1232 32.4045 77.0381 33.2953 75.6453 33.9431C74.2849 34.5585 72.7949 34.8662 71.1753 34.8662C69.2642 34.8662 67.4504 34.4289 65.7336 33.5544C64.0169 32.6474 62.6079 31.3032 61.5066 29.5217C60.4377 27.7078 59.9032 25.489 59.9032 22.8654C59.9032 20.2093 60.4377 17.9905 61.5066 16.209C62.6079 14.3951 64.0169 13.0509 65.7336 12.1763C67.4504 11.3018 69.2642 10.8645 71.1753 10.8645C72.7949 10.8645 74.301 11.1722 75.6939 11.7876C77.0867 12.4031 78.1556 13.2776 78.9006 14.4113V5.56857C78.9006 2.9449 78.5119 1.27676 77.7345 0.564161H82.5931V29.5703C82.5931 32.1616 82.9818 33.8297 83.7592 34.5747H78.9006ZM63.7416 22.8654C63.7416 25.3595 64.1465 27.4649 64.9562 29.1816C65.766 30.8659 66.8187 32.1292 68.1144 32.9714C69.41 33.7811 70.7866 34.186 72.2442 34.186C73.5722 34.186 74.8355 33.8621 76.034 33.2143C77.2324 32.5665 78.188 31.6757 78.9006 30.542V15.2373C78.2527 14.136 77.281 13.2452 75.9854 12.565C74.6897 11.8524 73.3293 11.4961 71.9041 11.4961C70.4789 11.4961 69.1347 11.8848 67.8714 12.6622C66.6406 13.4396 65.6365 14.6866 64.8591 16.4034C64.1141 18.0877 63.7416 20.2417 63.7416 22.8654ZM104.13 34.4289C103.45 34.3966 102.705 34.2832 101.895 34.0888C101.053 33.9593 100.519 33.8945 100.292 33.8945C99.8708 33.8945 99.5145 33.9593 99.223 34.0888L97.3281 26.5579L97.5225 26.4608C97.976 27.6268 98.8181 28.6634 100.049 29.5703C101.312 30.4772 102.737 31.1898 104.325 31.7081C105.944 32.194 107.483 32.4369 108.94 32.4369C110.495 32.4369 111.758 32.1454 112.73 31.5623C113.734 30.9793 114.236 30.0886 114.236 28.8901C114.236 28.1127 113.929 27.4487 113.313 26.898C112.73 26.315 112.001 25.8453 111.127 25.489C110.252 25.1327 109.021 24.6955 107.434 24.1772C105.361 23.5294 103.661 22.9139 102.333 22.3309C101.005 21.7155 99.8708 20.8733 98.9315 19.8044C97.9921 18.7031 97.5225 17.3265 97.5225 15.6746C97.5225 13.5691 98.2189 11.982 99.6117 10.9131C101.037 9.81179 103.013 9.26114 105.539 9.26114C105.896 9.26114 106.495 9.29353 107.337 9.35832L108.989 9.55266C109.896 9.71462 110.641 9.79559 111.224 9.79559C111.904 9.79559 112.39 9.64983 112.681 9.35832L114.333 16.1604L114.139 16.2576C113.815 15.2859 113.086 14.4113 111.953 13.6339C110.819 12.8242 109.475 12.1925 107.92 11.7391C106.398 11.2532 104.924 11.0103 103.499 11.0103C101.879 11.0103 100.551 11.3342 99.5145 11.982C98.5104 12.5974 98.0083 13.553 98.0083 14.8486C98.0083 16.0471 98.5914 16.9864 99.7575 17.6666C100.956 18.3144 102.77 18.9946 105.199 19.7072C107.337 20.3875 109.054 21.0191 110.349 21.6021C111.645 22.1528 112.73 22.9463 113.605 23.9829C114.512 25.0194 114.916 26.3312 114.819 27.9184C114.69 30.2181 113.961 31.9025 112.633 32.9714C111.337 34.0079 109.232 34.5261 106.317 34.5261C105.896 34.5261 105.167 34.4937 104.13 34.4289ZM125.553 33.36C124.29 32.8742 123.091 32.1292 121.958 31.1251C120.856 30.0886 119.949 28.8415 119.237 27.3839C118.557 25.8939 118.217 24.2906 118.217 22.5738C118.217 21.1162 118.476 19.6587 118.994 18.2011C119.868 15.6422 121.31 13.6663 123.318 12.2735C125.326 10.8807 127.561 10.1843 130.023 10.1843C132.258 10.1843 134.347 10.7511 136.291 11.8848C138.202 12.9861 139.643 14.4275 140.615 16.209C141.619 17.9581 142.121 19.853 142.121 21.8936C142.121 23.8371 141.684 25.7158 140.809 27.5297C139.805 29.6351 138.364 31.287 136.485 32.4855C134.606 33.6516 132.533 34.2346 130.266 34.2346C128.679 34.2346 127.108 33.9431 125.553 33.36ZM125.65 32.9228C126.363 33.2791 127.205 33.4572 128.177 33.4572C129.958 33.4572 131.724 32.7932 133.473 31.4652C135.254 30.1047 136.679 28.2585 137.748 25.9263C138.72 23.7237 139.206 21.5859 139.206 19.5129C139.206 17.8933 138.931 16.4519 138.38 15.1887C137.829 13.9254 137.052 12.9699 136.048 12.3221C135.011 11.6095 133.797 11.2532 132.404 11.2532C130.46 11.2532 128.549 11.982 126.671 13.4396C124.792 14.8972 123.334 16.9864 122.298 19.7072C121.618 21.424 121.277 23.1569 121.277 24.906C121.277 26.7847 121.682 28.4366 122.492 29.8618C123.302 31.287 124.355 32.3073 125.65 32.9228ZM158.932 5.03412C158.316 5.03412 157.782 4.82358 157.328 4.40249C156.907 3.94902 156.697 3.41457 156.697 2.79914C156.697 2.18371 156.907 1.66546 157.328 1.24437C157.782 0.790898 158.316 0.564161 158.932 0.564161C159.547 0.564161 160.065 0.790898 160.486 1.24437C160.94 1.66546 161.167 2.18371 161.167 2.79914C161.167 3.41457 160.94 3.94902 160.486 4.40249C160.065 4.82358 159.547 5.03412 158.932 5.03412ZM156.211 34.5747C156.988 33.7325 157.377 32.0644 157.377 29.5703V15.2859C157.377 12.6622 156.988 10.9941 156.211 10.2815H161.069V29.5703C161.069 32.1616 161.458 33.8297 162.236 34.5747H156.211ZM169.698 27.724C169.698 30.1533 170.022 31.8863 170.67 32.9228C171.35 33.9593 172.354 34.4775 173.682 34.4775C174.524 34.4775 175.528 34.2994 176.695 33.9431V34.2832C174.913 34.6719 173.455 34.8662 172.322 34.8662C170.314 34.8662 168.759 34.3318 167.657 33.2629C166.589 32.194 166.038 30.3963 166.006 27.8698V13.0995H163.673V12.5164H166.006V10.1843C166.006 7.56062 165.617 5.89248 164.839 5.17988H169.698V12.5164H173.925V13.0995H169.698V27.724ZM215.738 24.9546C215.738 26.8333 215.09 28.5176 213.794 30.0076C212.531 31.4976 210.895 32.6474 208.887 33.4572C206.879 34.267 204.838 34.6395 202.765 34.5747H190.278C191.056 33.8297 191.444 32.1616 191.444 29.5703V5.56857C191.444 2.9449 191.056 1.27676 190.278 0.564161H199.801C202.619 0.564161 204.968 0.888072 206.846 1.53589C208.757 2.15132 209.923 3.3012 210.344 4.98553C210.474 5.50379 210.539 6.05443 210.539 6.63747C210.539 9.64984 208.417 12.3383 204.174 14.7028C207.705 15.2535 210.506 16.4681 212.579 18.3468C214.685 20.1931 215.738 22.3957 215.738 24.9546ZM195.137 1.05003V18.7841L202.473 15.0915C205.227 13.6987 206.603 11.5933 206.603 8.77528C206.603 7.12334 206.279 5.73053 205.632 4.59684C204.984 3.43076 204.142 2.5724 203.105 2.02176C202.069 1.43872 200.951 1.13101 199.753 1.09861L195.137 1.05003ZM202.716 34.0888C204.239 34.0888 205.696 33.6516 207.089 32.777C208.514 31.8701 209.664 30.6554 210.539 29.133C211.446 27.6106 211.899 25.9587 211.899 24.1772C211.899 21.6183 211.106 19.5777 209.519 18.0553C207.931 16.5329 205.988 15.5126 203.688 14.9943L202.716 15.4802L195.137 19.2214V34.0888H202.716ZM222.916 22.4281C222.787 23.1083 222.722 23.8695 222.722 24.7116C222.722 26.5903 223.111 28.2585 223.888 29.7161C224.698 31.1413 225.767 32.1778 227.095 32.8256C228.261 33.3762 229.492 33.6516 230.787 33.6516C232.277 33.6516 233.735 33.2953 235.16 32.5827C236.618 31.8701 237.897 30.8174 238.998 29.4245H241.768C240.602 30.9469 239.128 32.1292 237.346 32.9714C235.597 33.8135 233.719 34.2346 231.71 34.2346C230.091 34.2346 228.504 33.9431 226.949 33.36C225.686 32.8742 224.487 32.1292 223.354 31.1251C222.252 30.0886 221.345 28.8415 220.633 27.3839C219.952 25.8939 219.612 24.2906 219.612 22.5738C219.612 21.1162 219.871 19.6587 220.39 18.2011C221.297 15.5774 222.803 13.6015 224.908 12.2735C227.046 10.9455 229.378 10.2815 231.905 10.2815C233.719 10.2815 235.419 10.6054 237.006 11.2532C238.853 11.9658 240.31 13.2452 241.379 15.0915C242.48 16.9378 243.031 18.9946 243.031 21.262C243.031 21.7803 243.015 22.169 242.982 22.4281H222.916ZM223.694 19.7072C223.434 20.3227 223.224 21.0353 223.062 21.845H239.144C239.5 20.2579 239.679 18.9137 239.679 17.8124C239.679 16.2576 239.403 14.962 238.853 13.9254C238.302 12.8565 237.557 12.0954 236.618 11.6419C235.97 11.318 235.209 11.156 234.334 11.156C233.071 11.156 231.727 11.5123 230.301 12.2249C228.909 12.9375 227.613 13.9578 226.414 15.2859C225.216 16.5815 224.309 18.0553 223.694 19.7072ZM271.382 13.0509C269.925 12.2411 268.775 11.8362 267.933 11.8362C267.188 11.8362 266.621 12.1277 266.232 12.7108C267.755 13.8445 268.904 15.2211 269.682 16.8406C270.459 18.4278 270.848 20.1283 270.848 21.9422C270.848 23.8533 270.411 25.7158 269.536 27.5297C268.791 29.1168 267.771 30.4449 266.475 31.5138C265.212 32.5827 263.787 33.3438 262.2 33.7973C261.293 34.2508 260.175 34.5585 258.847 34.7205C257.551 34.8824 255.948 34.9958 254.037 35.0606C253.648 35.093 253.033 35.1254 252.191 35.1577C251.381 35.2225 250.717 35.2873 250.199 35.3521C249.454 35.4817 248.903 35.7084 248.547 36.0323C248.19 36.3886 248.012 36.8097 248.012 37.2956C248.012 37.7166 248.142 38.1377 248.401 38.5588C248.66 39.0123 248.984 39.3524 249.373 39.5791C250.215 40.065 251.057 40.3079 251.899 40.3079C252.806 40.3079 253.81 40.0488 254.912 39.5305C256.013 39.0123 257.292 38.2511 258.75 37.247C261.341 35.4331 263.56 34.5261 265.406 34.5261C266.734 34.5261 267.755 34.9958 268.467 35.9351C269.18 36.8745 269.536 38.0891 269.536 39.5791C269.536 41.4902 269.018 43.466 267.981 45.5067C266.945 47.5473 265.439 49.2478 263.463 50.6082C261.487 52.0011 259.203 52.6975 256.612 52.6975C254.863 52.6975 253.324 52.2602 251.996 51.3856C250.668 50.5435 249.664 49.3774 248.984 47.8874C248.304 46.4298 248.012 44.8427 248.109 43.1259H248.45C248.288 45.5553 248.903 47.3692 250.296 48.5676C251.721 49.7661 253.632 50.3653 256.029 50.3653C258.167 50.3653 260.046 49.7661 261.665 48.5676C263.285 47.4015 264.516 45.9439 265.358 44.1948C266.232 42.4457 266.67 40.7938 266.67 39.239C266.67 38.1377 266.427 37.2308 265.941 36.5182C265.455 35.838 264.758 35.4979 263.852 35.4979C262.491 35.4979 260.872 36.1943 258.993 37.5871C258.41 38.0405 257.973 38.3645 257.681 38.5588C255.835 39.9192 254.361 40.9071 253.26 41.5226C252.191 42.138 251.106 42.4457 250.004 42.4457C249.259 42.4457 248.514 42.2838 247.769 41.9599C247.024 41.6683 246.441 41.2311 246.02 40.648C245.632 40.0974 245.437 39.4981 245.437 38.8503C245.437 37.8786 245.842 37.004 246.652 36.2266C247.494 35.4817 248.644 35.0282 250.102 34.8662C250.652 34.8014 251.316 34.7529 252.094 34.7205C252.871 34.6881 253.422 34.6719 253.746 34.6719C254.069 34.6395 254.814 34.6071 255.98 34.5747C257.179 34.5099 258.232 34.3966 259.139 34.2346C257.551 34.2994 255.932 34.0079 254.28 33.36C253.017 32.8742 251.818 32.1292 250.685 31.1251C249.583 30.0886 248.676 28.8415 247.964 27.3839C247.284 25.8939 246.943 24.2906 246.943 22.5738C246.943 21.1162 247.203 19.6587 247.721 18.2011C248.595 15.6422 250.037 13.6663 252.045 12.2735C254.053 10.8807 256.288 10.1843 258.75 10.1843C260.985 10.1843 263.074 10.7511 265.018 11.8848L265.941 12.4679C266.329 11.3018 266.799 10.3624 267.35 9.64984C267.9 8.93723 268.694 8.58093 269.73 8.58093C270.184 8.58093 270.735 8.67811 271.382 8.87245V13.0509ZM266.475 25.9263C267.512 23.6589 268.03 21.5373 268.03 19.5615C268.03 17.9095 267.69 16.4681 267.01 15.2373C266.362 13.974 265.471 13.0023 264.337 12.3221C263.236 11.6419 262.021 11.3018 260.693 11.3018C258.815 11.3018 257.001 12.0144 255.252 13.4396C253.503 14.8324 252.094 16.9216 251.025 19.7072C250.247 21.7803 249.859 23.6589 249.859 25.3433C249.859 26.9952 250.166 28.4366 250.782 29.6675C251.43 30.8983 252.288 31.8539 253.357 32.5341C254.458 33.1819 255.657 33.5058 256.952 33.5058C258.734 33.5058 260.483 32.8742 262.2 31.6109C263.916 30.3153 265.341 28.4204 266.475 25.9263ZM292.48 34.5747V30.9793C291.573 32.4045 290.358 33.4896 288.836 34.2346C287.313 34.9472 285.677 35.3035 283.928 35.3035C282.276 35.3035 280.705 34.9958 279.215 34.3804C277.758 33.7649 276.576 32.8904 275.669 31.7567C274.762 30.623 274.308 29.3112 274.308 27.8212C274.308 26.2988 274.713 25.0356 275.523 24.0314C276.333 22.9949 277.369 22.1528 278.632 21.5049C279.928 20.8247 281.952 19.8854 284.706 18.6869L292.431 15.383C292.269 13.472 291.654 12.0144 290.585 11.0103C289.516 10.0061 288.269 9.50408 286.844 9.50408C285.839 9.50408 284.851 9.7632 283.88 10.2815C282.94 10.7997 282.147 11.5609 281.499 12.565C280.884 13.5368 280.543 14.6866 280.479 16.0147H276.397C276.689 13.8121 277.823 12.0954 279.798 10.8645C281.807 9.63364 284.074 9.01821 286.601 9.01821C289.192 9.01821 291.411 9.64984 293.257 10.9131C295.136 12.1439 296.107 13.8931 296.172 16.1604V29.5703C296.172 32.1616 296.561 33.8297 297.338 34.5747H292.48ZM278.147 27.0924C278.147 28.5824 278.47 29.878 279.118 30.9793C279.798 32.0482 280.689 32.8742 281.791 33.4572C282.892 34.0079 284.074 34.2832 285.337 34.2832C286.763 34.2832 288.107 33.9107 289.37 33.1657C290.666 32.4207 291.702 31.3194 292.48 29.8618V16.3548V15.9175L284.9 19.1728C283.054 19.9826 281.71 20.6304 280.867 21.1162C280.058 21.6021 279.394 22.3147 278.875 23.2541C278.389 24.161 278.147 25.4404 278.147 27.0924ZM318.093 34.5747C318.871 33.7325 319.259 32.0644 319.259 29.5703V18.4926C319.259 15.8689 318.709 13.9254 317.608 12.6622C316.506 11.399 315.097 10.7673 313.38 10.7673C311.89 10.7673 310.384 11.1884 308.862 12.0306C307.34 12.8403 306.093 13.9093 305.121 15.2373V29.5703C305.121 32.1616 305.509 33.8297 306.287 34.5747H300.262C301.04 33.7325 301.428 32.0644 301.428 29.5703V15.2859C301.428 12.6622 301.04 10.9941 300.262 10.2815H305.121V14.4599C306.222 12.9699 307.68 11.7876 309.494 10.9131C311.307 10.0385 313.138 9.60125 314.984 9.60125C317.284 9.60125 319.178 10.33 320.668 11.7876C322.191 13.2128 322.952 15.3507 322.952 18.2011V29.5703C322.952 32.1616 323.341 33.8297 324.118 34.5747H318.093Z" fill="#2D1A06"/>
</svg>
