<svg width="375" height="812" viewBox="0 0 375 812" fill="none" xmlns="http://www.w3.org/2000/svg">
<rect width="375" height="812" fill="#1DBC86"/>
<circle cx="187.133" cy="179.133" r="29.5376" fill="white"/>
<path fill-rule="evenodd" clip-rule="evenodd" d="M188.866 146.455C170.866 146.455 156.273 161.048 156.273 179.048C156.273 197.049 170.866 211.642 188.866 211.642C206.866 211.642 221.459 197.049 221.459 179.048C221.459 161.048 206.866 146.455 188.866 146.455ZM202.994 173.537C203.254 173.24 203.452 172.893 203.576 172.518C203.7 172.143 203.748 171.747 203.717 171.353C203.686 170.959 203.577 170.576 203.395 170.225C203.214 169.874 202.964 169.563 202.66 169.31C202.357 169.057 202.006 168.867 201.628 168.752C201.25 168.637 200.853 168.598 200.46 168.639C200.067 168.679 199.686 168.798 199.339 168.988C198.993 169.178 198.688 169.435 198.442 169.744L185.701 185.031L179.109 178.435C178.55 177.895 177.801 177.597 177.025 177.603C176.248 177.61 175.504 177.922 174.955 178.471C174.406 179.02 174.094 179.764 174.087 180.541C174.081 181.317 174.379 182.066 174.919 182.625L183.808 191.514C184.099 191.805 184.448 192.032 184.832 192.181C185.215 192.329 185.626 192.397 186.037 192.378C186.448 192.359 186.851 192.255 187.22 192.072C187.588 191.889 187.915 191.631 188.179 191.315L202.994 173.537Z" fill="#F2C876"/>
<path d="M32 719C32 714.582 35.5817 711 40 711H335C339.418 711 343 714.582 343 719V753C343 757.418 339.418 761 335 761H40C35.5817 761 32 757.418 32 753V719Z" fill="white"/>
<path d="M144.981 734.142V735.318H148.579C148.313 736.844 147.053 737.908 145.093 737.908C143.945 737.908 143.007 737.544 142.279 736.816C141.565 736.088 141.201 735.178 141.201 734.1C141.201 733.022 141.565 732.112 142.279 731.384C142.993 730.642 143.917 730.278 145.037 730.278C146.395 730.278 147.613 730.978 148.173 732.042L149.293 731.384C148.887 730.67 148.299 730.11 147.543 729.676C146.787 729.242 145.961 729.018 145.051 729.018C143.581 729.018 142.349 729.508 141.369 730.502C140.403 731.482 139.913 732.686 139.913 734.1C139.913 735.514 140.403 736.718 141.369 737.712C142.349 738.692 143.581 739.182 145.079 739.182C146.521 739.182 147.683 738.762 148.565 737.922C149.447 737.068 149.881 736.004 149.881 734.73V734.142H144.981ZM157.246 738.118C157.96 737.404 158.324 736.536 158.324 735.5C158.324 734.464 157.96 733.596 157.246 732.882C156.532 732.168 155.65 731.818 154.628 731.818C153.606 731.818 152.724 732.168 152.01 732.882C151.296 733.596 150.946 734.464 150.946 735.5C150.946 736.536 151.296 737.404 152.01 738.118C152.724 738.832 153.606 739.182 154.628 739.182C155.65 739.182 156.532 738.832 157.246 738.118ZM154.628 737.992C153.942 737.992 153.354 737.754 152.878 737.278C152.402 736.802 152.164 736.214 152.164 735.5C152.164 734.786 152.402 734.198 152.878 733.722C153.354 733.246 153.942 733.008 154.628 733.008C155.328 733.008 155.916 733.246 156.392 733.722C156.868 734.198 157.106 734.786 157.106 735.5C157.106 736.214 156.868 736.802 156.392 737.278C155.916 737.754 155.328 737.992 154.628 737.992ZM167.124 731.818C165.962 731.818 165.08 732.28 164.478 733.204V729.2H163.26V739H164.478V737.796C165.08 738.72 165.962 739.182 167.124 739.182C168.104 739.182 168.944 738.832 169.63 738.118C170.316 737.404 170.666 736.522 170.666 735.5C170.666 734.478 170.316 733.61 169.63 732.896C168.944 732.182 168.104 731.818 167.124 731.818ZM166.97 738.006C166.256 738.006 165.668 737.768 165.192 737.292C164.716 736.802 164.478 736.214 164.478 735.5C164.478 734.786 164.716 734.198 165.192 733.722C165.668 733.232 166.256 732.994 166.97 732.994C167.67 732.994 168.258 733.232 168.734 733.722C169.21 734.198 169.448 734.786 169.448 735.5C169.448 736.214 169.21 736.802 168.734 737.292C168.258 737.768 167.67 738.006 166.97 738.006ZM177.915 733.204C177.313 732.28 176.431 731.818 175.269 731.818C174.289 731.818 173.449 732.182 172.763 732.896C172.077 733.61 171.727 734.478 171.727 735.5C171.727 736.522 172.077 737.404 172.763 738.118C173.449 738.832 174.289 739.182 175.269 739.182C176.431 739.182 177.313 738.72 177.915 737.796V739H179.133V732H177.915V733.204ZM175.423 738.006C174.723 738.006 174.135 737.768 173.659 737.292C173.183 736.802 172.945 736.214 172.945 735.5C172.945 734.786 173.183 734.198 173.659 733.722C174.135 733.232 174.723 732.994 175.423 732.994C176.137 732.994 176.725 733.232 177.201 733.722C177.677 734.198 177.915 734.786 177.915 735.5C177.915 736.214 177.677 736.802 177.201 737.292C176.725 737.768 176.137 738.006 175.423 738.006ZM184.269 739.182C185.627 739.182 186.817 738.468 187.419 737.362L186.383 736.76C185.991 737.502 185.207 737.978 184.269 737.978C183.569 737.978 182.981 737.74 182.505 737.264C182.043 736.788 181.805 736.2 181.805 735.5C181.805 734.786 182.043 734.198 182.505 733.722C182.981 733.246 183.569 733.008 184.269 733.008C185.207 733.008 185.991 733.498 186.341 734.24L187.363 733.652C186.817 732.532 185.655 731.818 184.269 731.818C183.219 731.818 182.337 732.168 181.637 732.882C180.937 733.582 180.587 734.45 180.587 735.5C180.587 736.55 180.937 737.418 181.637 738.132C182.337 738.832 183.219 739.182 184.269 739.182ZM191.085 735.388L194.431 732H192.863L189.839 735.094V729.2H188.621V739H189.839V735.682L193.031 739H194.543L191.085 735.388ZM202.662 731.818C201.64 731.818 200.884 732.21 200.394 733.008V729.2H199.176V739H200.394V735.29C200.394 733.722 201.206 732.98 202.424 732.98C203.502 732.98 204.16 733.638 204.16 734.772V739H205.378V734.702C205.378 732.924 204.3 731.818 202.662 731.818ZM212.986 738.118C213.7 737.404 214.064 736.536 214.064 735.5C214.064 734.464 213.7 733.596 212.986 732.882C212.272 732.168 211.39 731.818 210.368 731.818C209.346 731.818 208.464 732.168 207.75 732.882C207.036 733.596 206.686 734.464 206.686 735.5C206.686 736.536 207.036 737.404 207.75 738.118C208.464 738.832 209.346 739.182 210.368 739.182C211.39 739.182 212.272 738.832 212.986 738.118ZM210.368 737.992C209.682 737.992 209.094 737.754 208.618 737.278C208.142 736.802 207.904 736.214 207.904 735.5C207.904 734.786 208.142 734.198 208.618 733.722C209.094 733.246 209.682 733.008 210.368 733.008C211.068 733.008 211.656 733.246 212.132 733.722C212.608 734.198 212.846 734.786 212.846 735.5C212.846 736.214 212.608 736.802 212.132 737.278C211.656 737.754 211.068 737.992 210.368 737.992ZM223.06 731.818C222.08 731.818 221.352 732.21 220.862 733.008C220.428 732.21 219.742 731.818 218.804 731.818C217.894 731.818 217.194 732.196 216.718 732.938V732H215.5V739H216.718V735.108C216.718 733.694 217.488 732.98 218.51 732.98C219.42 732.98 219.994 733.61 219.994 734.688V739H221.212V735.108C221.212 733.666 221.884 732.98 222.934 732.98C223.872 732.98 224.474 733.61 224.474 734.688V739H225.692V734.646C225.692 732.91 224.628 731.818 223.06 731.818ZM234.101 736.06C234.129 735.878 234.143 735.696 234.143 735.514C234.143 734.492 233.821 733.624 233.163 732.91C232.519 732.182 231.679 731.818 230.657 731.818C229.579 731.818 228.697 732.168 228.011 732.868C227.325 733.568 226.989 734.45 226.989 735.5C226.989 736.564 227.339 737.446 228.025 738.146C228.725 738.832 229.635 739.182 230.741 739.182C232.113 739.182 233.135 738.65 233.821 737.6L232.785 737.012C232.365 737.698 231.693 738.034 230.769 738.034C229.439 738.034 228.473 737.306 228.235 736.06H234.101ZM230.657 732.966C231.777 732.966 232.701 733.666 232.911 734.996H228.235C228.445 733.764 229.355 732.966 230.657 732.966Z" fill="#1DBC86"/>
<path d="M84.6686 241V242.76H88.7886V255H90.6286V242.76H94.7686V241H84.6686ZM96.8022 245H95.0622V255H96.8022V249.7C96.8022 248.6 97.1022 247.82 97.7222 247.32C98.3422 246.82 99.0622 246.6 99.9222 246.64V244.82C98.4222 244.82 97.3822 245.44 96.8022 246.68V245ZM109.358 246.72C108.498 245.4 107.238 244.74 105.578 244.74C104.178 244.74 102.978 245.26 101.998 246.28C101.018 247.3 100.518 248.54 100.518 250C100.518 251.46 101.018 252.72 101.998 253.74C102.978 254.76 104.178 255.26 105.578 255.26C107.238 255.26 108.498 254.6 109.358 253.28V255H111.098V245H109.358V246.72ZM105.798 253.58C104.798 253.58 103.958 253.24 103.278 252.56C102.598 251.86 102.258 251.02 102.258 250C102.258 248.98 102.598 248.14 103.278 247.46C103.958 246.76 104.798 246.42 105.798 246.42C106.818 246.42 107.658 246.76 108.338 247.46C109.018 248.14 109.358 248.98 109.358 250C109.358 251.02 109.018 251.86 108.338 252.56C107.658 253.24 106.818 253.58 105.798 253.58ZM118.714 244.74C117.254 244.74 116.174 245.3 115.474 246.44V245H113.734V255H115.474V249.7C115.474 247.46 116.634 246.4 118.374 246.4C119.914 246.4 120.854 247.34 120.854 248.96V255H122.594V248.86C122.594 246.32 121.054 244.74 118.714 244.74ZM126.523 247.7C126.523 246.84 127.323 246.36 128.303 246.36C129.363 246.36 130.083 246.78 130.443 247.64L131.903 246.82C131.263 245.52 129.923 244.74 128.303 244.74C127.283 244.74 126.443 245.02 125.763 245.58C125.103 246.14 124.763 246.86 124.763 247.72C124.763 249.84 126.803 250.36 128.383 250.78C129.483 251.04 130.363 251.48 130.363 252.26C130.363 253.2 129.523 253.62 128.383 253.62C127.163 253.62 126.223 253.02 125.903 252.06L124.403 252.92C124.983 254.34 126.443 255.26 128.383 255.26C129.483 255.26 130.363 254.98 131.063 254.44C131.763 253.9 132.123 253.16 132.123 252.26C132.143 250.12 130.063 249.54 128.503 249.2C127.403 248.9 126.523 248.48 126.523 247.7ZM142.19 246.72C141.33 245.4 140.07 244.74 138.41 244.74C137.01 244.74 135.81 245.26 134.83 246.28C133.85 247.3 133.35 248.54 133.35 250C133.35 251.46 133.85 252.72 134.83 253.74C135.81 254.76 137.01 255.26 138.41 255.26C140.07 255.26 141.33 254.6 142.19 253.28V255H143.93V245H142.19V246.72ZM138.63 253.58C137.63 253.58 136.79 253.24 136.11 252.56C135.43 251.86 135.09 251.02 135.09 250C135.09 248.98 135.43 248.14 136.11 247.46C136.79 246.76 137.63 246.42 138.63 246.42C139.65 246.42 140.49 246.76 141.17 247.46C141.85 248.14 142.19 248.98 142.19 250C142.19 251.02 141.85 251.86 141.17 252.56C140.49 253.24 139.65 253.58 138.63 253.58ZM151.266 255.26C153.206 255.26 154.906 254.24 155.766 252.66L154.286 251.8C153.726 252.86 152.606 253.54 151.266 253.54C150.266 253.54 149.426 253.2 148.746 252.52C148.086 251.84 147.746 251 147.746 250C147.746 248.98 148.086 248.14 148.746 247.46C149.426 246.78 150.266 246.44 151.266 246.44C152.606 246.44 153.726 247.14 154.226 248.2L155.686 247.36C154.906 245.76 153.246 244.74 151.266 244.74C149.766 244.74 148.506 245.24 147.506 246.26C146.506 247.26 146.006 248.5 146.006 250C146.006 251.5 146.506 252.74 147.506 253.76C148.506 254.76 149.766 255.26 151.266 255.26ZM162.924 245H160.264V242.2L158.524 242.72V245H156.544V246.68H158.524V252.1C158.524 254.58 159.884 255.4 162.924 255V253.44C161.144 253.52 160.264 253.64 160.264 252.1V246.68H162.924V245ZM165.864 243.18C166.504 243.18 167.024 242.66 167.024 242.02C167.024 241.38 166.504 240.84 165.864 240.84C165.204 240.84 164.684 241.38 164.684 242.02C164.684 242.66 165.204 243.18 165.864 243.18ZM166.724 255V245H164.984V255H166.724ZM177.819 253.74C178.839 252.72 179.359 251.48 179.359 250C179.359 248.52 178.839 247.28 177.819 246.26C176.799 245.24 175.539 244.74 174.079 244.74C172.619 244.74 171.359 245.24 170.339 246.26C169.319 247.28 168.819 248.52 168.819 250C168.819 251.48 169.319 252.72 170.339 253.74C171.359 254.76 172.619 255.26 174.079 255.26C175.539 255.26 176.799 254.76 177.819 253.74ZM174.079 253.56C173.099 253.56 172.259 253.22 171.579 252.54C170.899 251.86 170.559 251.02 170.559 250C170.559 248.98 170.899 248.14 171.579 247.46C172.259 246.78 173.099 246.44 174.079 246.44C175.079 246.44 175.919 246.78 176.599 247.46C177.279 248.14 177.619 248.98 177.619 250C177.619 251.02 177.279 251.86 176.599 252.54C175.919 253.22 175.079 253.56 174.079 253.56ZM186.39 244.74C184.93 244.74 183.85 245.3 183.15 246.44V245H181.41V255H183.15V249.7C183.15 247.46 184.31 246.4 186.05 246.4C187.59 246.4 188.53 247.34 188.53 248.96V255H190.27V248.86C190.27 246.32 188.73 244.74 186.39 244.74ZM202.399 255.26C203.839 255.26 204.999 254.9 205.899 254.18C206.799 253.44 207.239 252.46 207.239 251.24C207.239 250.36 207.039 249.64 206.539 249.14C206.199 248.74 206.019 248.52 205.459 248.22C204.919 247.92 204.759 247.82 204.059 247.56C203.719 247.42 203.479 247.34 203.319 247.28L202.499 247.02C201.419 246.68 200.659 246.34 200.219 246.02C199.779 245.7 199.559 245.24 199.559 244.62C199.559 243.34 200.579 242.54 202.099 242.54C203.619 242.54 204.679 243.26 205.279 244.7L206.839 243.8C206.019 241.96 204.319 240.74 202.099 240.74C200.879 240.74 199.839 241.1 198.979 241.82C198.119 242.52 197.699 243.48 197.699 244.7C197.699 245.72 198.119 246.54 198.579 247.04C198.799 247.28 199.139 247.52 199.599 247.76C200.059 247.98 200.459 248.16 200.759 248.28L202.099 248.72C203.279 249.1 204.139 249.44 204.639 249.78C205.139 250.12 205.399 250.62 205.399 251.28C205.399 252.58 204.359 253.44 202.439 253.44C200.499 253.44 199.239 252.6 198.699 250.9L197.099 251.82C197.839 253.96 199.779 255.26 202.399 255.26ZM216.161 250.3C216.161 252.54 215.001 253.6 213.261 253.6C211.721 253.6 210.781 252.66 210.781 251.04V245H209.041V251.14C209.041 253.68 210.581 255.26 212.921 255.26C214.381 255.26 215.461 254.7 216.161 253.56V255H217.901V245H216.161V250.3ZM225.25 255.26C227.19 255.26 228.89 254.24 229.75 252.66L228.27 251.8C227.71 252.86 226.59 253.54 225.25 253.54C224.25 253.54 223.41 253.2 222.73 252.52C222.07 251.84 221.73 251 221.73 250C221.73 248.98 222.07 248.14 222.73 247.46C223.41 246.78 224.25 246.44 225.25 246.44C226.59 246.44 227.71 247.14 228.21 248.2L229.67 247.36C228.89 245.76 227.23 244.74 225.25 244.74C223.75 244.74 222.49 245.24 221.49 246.26C220.49 247.26 219.99 248.5 219.99 250C219.99 251.5 220.49 252.74 221.49 253.76C222.49 254.76 223.75 255.26 225.25 255.26ZM236.032 255.26C237.972 255.26 239.672 254.24 240.532 252.66L239.052 251.8C238.492 252.86 237.372 253.54 236.032 253.54C235.032 253.54 234.192 253.2 233.512 252.52C232.852 251.84 232.512 251 232.512 250C232.512 248.98 232.852 248.14 233.512 247.46C234.192 246.78 235.032 246.44 236.032 246.44C237.372 246.44 238.492 247.14 238.992 248.2L240.452 247.36C239.672 245.76 238.012 244.74 236.032 244.74C234.532 244.74 233.272 245.24 232.272 246.26C231.272 247.26 230.772 248.5 230.772 250C230.772 251.5 231.272 252.74 232.272 253.76C233.272 254.76 234.532 255.26 236.032 255.26ZM251.713 250.8C251.753 250.54 251.773 250.28 251.773 250.02C251.773 248.56 251.313 247.32 250.373 246.3C249.453 245.26 248.253 244.74 246.793 244.74C245.253 244.74 243.993 245.24 243.013 246.24C242.033 247.24 241.553 248.5 241.553 250C241.553 251.52 242.053 252.78 243.033 253.78C244.033 254.76 245.333 255.26 246.913 255.26C248.873 255.26 250.333 254.5 251.313 253L249.833 252.16C249.233 253.14 248.273 253.62 246.953 253.62C245.053 253.62 243.673 252.58 243.333 250.8H251.713ZM246.793 246.38C248.393 246.38 249.713 247.38 250.013 249.28H243.333C243.633 247.52 244.933 246.38 246.793 246.38ZM254.883 247.7C254.883 246.84 255.683 246.36 256.663 246.36C257.723 246.36 258.443 246.78 258.803 247.64L260.263 246.82C259.623 245.52 258.283 244.74 256.663 244.74C255.643 244.74 254.803 245.02 254.123 245.58C253.463 246.14 253.123 246.86 253.123 247.72C253.123 249.84 255.163 250.36 256.743 250.78C257.843 251.04 258.723 251.48 258.723 252.26C258.723 253.2 257.883 253.62 256.743 253.62C255.523 253.62 254.583 253.02 254.263 252.06L252.763 252.92C253.343 254.34 254.803 255.26 256.743 255.26C257.843 255.26 258.723 254.98 259.423 254.44C260.123 253.9 260.483 253.16 260.483 252.26C260.503 250.12 258.423 249.54 256.863 249.2C255.763 248.9 254.883 248.48 254.883 247.7ZM263.418 247.7C263.418 246.84 264.218 246.36 265.198 246.36C266.258 246.36 266.978 246.78 267.338 247.64L268.798 246.82C268.158 245.52 266.818 244.74 265.198 244.74C264.178 244.74 263.338 245.02 262.658 245.58C261.998 246.14 261.658 246.86 261.658 247.72C261.658 249.84 263.698 250.36 265.278 250.78C266.378 251.04 267.258 251.48 267.258 252.26C267.258 253.2 266.418 253.62 265.278 253.62C264.058 253.62 263.118 253.02 262.798 252.06L261.298 252.92C261.878 254.34 263.338 255.26 265.278 255.26C266.378 255.26 267.258 254.98 267.958 254.44C268.658 253.9 269.018 253.16 269.018 252.26C269.038 250.12 266.958 249.54 265.398 249.2C264.298 248.9 263.418 248.48 263.418 247.7ZM276.003 240.74C273.183 240.56 271.623 242 271.623 244.7V245H270.023V246.68H271.623V255H273.363V246.68H276.003V245H273.363V244.7C273.363 243.04 274.243 242.28 276.003 242.42V240.74ZM284.228 250.3C284.228 252.54 283.068 253.6 281.328 253.6C279.788 253.6 278.848 252.66 278.848 251.04V245H277.108V251.14C277.108 253.68 278.648 255.26 280.988 255.26C282.448 255.26 283.528 254.7 284.228 253.56V255H285.968V245H284.228V250.3ZM290.357 255V240.4H288.617V255H290.357Z" fill="white"/>
<rect x="24" y="326" width="327" height="251" rx="16" fill="white"/>
<path d="M138.838 380.6L130.918 369.2H128.758V386H131.518V374.6L139.438 386H141.598V369.2H138.838V380.6ZM152.897 377.312V379.784H158.513C158.009 382.112 156.065 383.624 153.089 383.624C151.241 383.624 149.729 383.048 148.577 381.92C147.449 380.792 146.873 379.352 146.873 377.624C146.873 375.896 147.449 374.456 148.577 373.304C149.705 372.152 151.169 371.576 152.921 371.576C155.105 371.576 156.977 372.632 157.865 374.24L160.241 372.872C158.801 370.448 156.065 368.888 152.921 368.888C150.425 368.888 148.337 369.728 146.633 371.432C144.953 373.112 144.113 375.176 144.113 377.6C144.113 380.048 144.953 382.112 146.633 383.792C148.337 385.472 150.473 386.312 153.065 386.312C155.513 386.312 157.505 385.592 159.017 384.128C160.529 382.664 161.297 380.768 161.297 378.464V377.312H152.897ZM173.901 380.6L165.981 369.2H163.821V386H166.581V374.6L174.501 386H176.661V369.2H173.901V380.6ZM188.824 375.536L189.112 371.792H195.928V369.2H186.568L185.92 378.224H190.816C192.664 378.224 193.888 379.256 193.888 380.912C193.888 382.568 192.664 383.624 190.768 383.624C188.992 383.624 187.888 382.856 187.432 381.344L185.056 382.712C185.92 385.04 188.104 386.312 190.768 386.312C192.424 386.312 193.816 385.832 194.944 384.872C196.072 383.912 196.648 382.592 196.648 380.912C196.648 379.232 196.096 377.912 194.992 376.976C193.888 376.016 192.544 375.536 190.936 375.536H188.824ZM199.177 383.12L198.217 389.36H200.377L202.057 383.12H199.177ZM214.978 383.936C216.154 382.352 216.73 380.24 216.73 377.6C216.73 374.96 216.154 372.848 214.978 371.264C213.826 369.68 212.218 368.888 210.13 368.888C208.042 368.888 206.434 369.68 205.258 371.264C204.106 372.848 203.53 374.96 203.53 377.6C203.53 380.24 204.106 382.352 205.258 383.936C206.434 385.52 208.042 386.312 210.13 386.312C212.218 386.312 213.826 385.52 214.978 383.936ZM210.13 383.624C207.658 383.624 206.29 381.464 206.29 377.6C206.29 373.736 207.658 371.576 210.13 371.576C212.626 371.576 213.97 373.736 213.97 377.6C213.97 381.464 212.626 383.624 210.13 383.624ZM230.096 383.936C231.272 382.352 231.848 380.24 231.848 377.6C231.848 374.96 231.272 372.848 230.096 371.264C228.944 369.68 227.336 368.888 225.248 368.888C223.16 368.888 221.552 369.68 220.376 371.264C219.224 372.848 218.648 374.96 218.648 377.6C218.648 380.24 219.224 382.352 220.376 383.936C221.552 385.52 223.16 386.312 225.248 386.312C227.336 386.312 228.944 385.52 230.096 383.936ZM225.248 383.624C222.776 383.624 221.408 381.464 221.408 377.6C221.408 373.736 222.776 371.576 225.248 371.576C227.744 371.576 229.088 373.736 229.088 377.6C229.088 381.464 227.744 383.624 225.248 383.624ZM245.213 383.936C246.389 382.352 246.965 380.24 246.965 377.6C246.965 374.96 246.389 372.848 245.213 371.264C244.061 369.68 242.453 368.888 240.365 368.888C238.277 368.888 236.669 369.68 235.493 371.264C234.341 372.848 233.765 374.96 233.765 377.6C233.765 380.24 234.341 382.352 235.493 383.936C236.669 385.52 238.277 386.312 240.365 386.312C242.453 386.312 244.061 385.52 245.213 383.936ZM240.365 383.624C237.893 383.624 236.525 381.464 236.525 377.6C236.525 373.736 237.893 371.576 240.365 371.576C242.861 371.576 244.205 373.736 244.205 377.6C244.205 381.464 242.861 383.624 240.365 383.624Z" fill="#101010"/>
<path d="M170.89 414L167.236 404.2H165.766L162.112 414H163.498L164.296 411.802H168.706L169.504 414H170.89ZM166.494 405.754L168.258 410.584H164.744L166.494 405.754ZM179.48 406.818C178.5 406.818 177.772 407.21 177.282 408.008C176.848 407.21 176.162 406.818 175.224 406.818C174.314 406.818 173.614 407.196 173.138 407.938V407H171.92V414H173.138V410.108C173.138 408.694 173.908 407.98 174.93 407.98C175.84 407.98 176.414 408.61 176.414 409.688V414H177.632V410.108C177.632 408.666 178.304 407.98 179.354 407.98C180.292 407.98 180.894 408.61 180.894 409.688V414H182.112V409.646C182.112 407.91 181.048 406.818 179.48 406.818ZM189.709 413.118C190.423 412.404 190.787 411.536 190.787 410.5C190.787 409.464 190.423 408.596 189.709 407.882C188.995 407.168 188.113 406.818 187.091 406.818C186.069 406.818 185.187 407.168 184.473 407.882C183.759 408.596 183.409 409.464 183.409 410.5C183.409 411.536 183.759 412.404 184.473 413.118C185.187 413.832 186.069 414.182 187.091 414.182C188.113 414.182 188.995 413.832 189.709 413.118ZM187.091 412.992C186.405 412.992 185.817 412.754 185.341 412.278C184.865 411.802 184.627 411.214 184.627 410.5C184.627 409.786 184.865 409.198 185.341 408.722C185.817 408.246 186.405 408.008 187.091 408.008C187.791 408.008 188.379 408.246 188.855 408.722C189.331 409.198 189.569 409.786 189.569 410.5C189.569 411.214 189.331 411.802 188.855 412.278C188.379 412.754 187.791 412.992 187.091 412.992ZM197.053 410.71C197.053 412.278 196.241 413.02 195.023 413.02C193.945 413.02 193.287 412.362 193.287 411.228V407H192.069V411.298C192.069 413.076 193.147 414.182 194.785 414.182C195.807 414.182 196.563 413.79 197.053 412.992V414H198.271V407H197.053V410.71ZM203.611 406.818C202.589 406.818 201.833 407.21 201.343 408.008V407H200.125V414H201.343V410.29C201.343 408.722 202.155 407.98 203.373 407.98C204.451 407.98 205.109 408.638 205.109 409.772V414H206.327V409.702C206.327 407.924 205.249 406.818 203.611 406.818ZM211.836 407H209.974V405.04L208.756 405.404V407H207.37V408.176H208.756V411.97C208.756 413.706 209.708 414.28 211.836 414V412.908C210.59 412.964 209.974 413.048 209.974 411.97V408.176H211.836V407Z" fill="#666666"/>
<path d="M106.518 467L103.782 462.376C104.486 462.168 105.062 461.784 105.51 461.192C105.974 460.6 106.198 459.912 106.198 459.16C106.198 458.232 105.862 457.448 105.206 456.792C104.55 456.136 103.766 455.8 102.838 455.8H98.3581V467H99.4781V462.52H102.614L105.238 467H106.518ZM102.838 456.856C103.462 456.856 103.99 457.08 104.422 457.528C104.854 457.976 105.078 458.52 105.078 459.16C105.078 459.784 104.854 460.328 104.422 460.792C103.99 461.24 103.462 461.464 102.838 461.464H99.4781V456.856H102.838ZM111.254 458.808C110.022 458.808 109.03 459.208 108.246 460.008C107.462 460.808 107.078 461.8 107.078 463C107.078 464.216 107.478 465.224 108.262 466.008C109.046 466.792 110.07 467.192 111.334 467.192C112.886 467.192 114.15 466.488 114.854 465.352L113.926 464.808C113.478 465.624 112.566 466.168 111.35 466.168C109.638 466.168 108.374 465.144 108.166 463.528H115.19C115.206 463.32 115.222 463.144 115.222 463.032C115.222 461.896 114.854 460.904 114.118 460.072C113.398 459.224 112.438 458.808 111.254 458.808ZM111.254 459.832C111.974 459.832 112.614 460.072 113.158 460.536C113.702 461 114.022 461.656 114.134 462.504H108.166C108.374 460.92 109.59 459.832 111.254 459.832ZM120.667 455.608C118.507 455.464 117.307 456.584 117.307 458.68V459H115.947V460.024H117.307V467H118.363V460.024H120.667V459H118.363V458.68C118.363 457.144 119.115 456.504 120.667 456.632V455.608ZM133.152 464.92L126.912 455.8H125.952V467H127.072V457.88L133.312 467H134.272V455.8H133.152V464.92ZM143.371 465.992C144.187 465.176 144.603 464.184 144.603 463C144.603 461.816 144.187 460.824 143.371 460.024C142.555 459.208 141.563 458.808 140.395 458.808C139.227 458.808 138.219 459.208 137.403 460.024C136.587 460.824 136.187 461.816 136.187 463C136.187 464.184 136.587 465.176 137.403 465.992C138.219 466.792 139.227 467.192 140.395 467.192C141.563 467.192 142.555 466.792 143.371 465.992ZM138.155 465.256C137.547 464.632 137.243 463.88 137.243 463C137.243 462.12 137.547 461.368 138.155 460.76C138.763 460.136 139.515 459.832 140.395 459.832C141.275 459.832 142.027 460.136 142.635 460.76C143.243 461.368 143.547 462.12 143.547 463C143.547 463.88 143.243 464.632 142.635 465.256C142.027 465.864 141.275 466.168 140.395 466.168C139.515 466.168 138.763 465.864 138.155 465.256ZM147.402 460.344C147.738 460.008 147.738 459.432 147.402 459.096C147.066 458.76 146.49 458.76 146.154 459.096C145.818 459.432 145.818 460.008 146.154 460.344C146.49 460.68 147.066 460.68 147.402 460.344ZM147.402 466.904C147.738 466.568 147.738 465.992 147.402 465.656C147.066 465.32 146.49 465.32 146.154 465.656C145.818 465.992 145.818 466.568 146.154 466.904C146.49 467.24 147.066 467.24 147.402 466.904ZM160.065 463.704V460.28H158.945V463.704H154.257L158.417 455.8H157.185L153.025 463.704V464.76H158.945V467H160.065V464.76H161.505V463.704H160.065ZM164.258 460.312L164.498 456.856H169.506V455.8H163.506L163.106 461.4H166.146C167.682 461.4 168.786 462.264 168.786 463.752C168.786 465.24 167.682 466.104 166.146 466.104C164.818 466.104 163.81 465.464 163.49 464.264L162.546 464.808C163.01 466.344 164.466 467.192 166.146 467.192C167.186 467.192 168.082 466.888 168.802 466.28C169.538 465.656 169.906 464.824 169.906 463.752C169.906 462.68 169.538 461.848 168.802 461.24C168.082 460.616 167.186 460.312 166.146 460.312H164.258ZM174.787 459.8C174.483 459.8 174.179 459.832 173.891 459.896L176.643 455.8H175.379L171.715 461.256C171.251 461.912 171.027 462.648 171.027 463.496C171.027 464.584 171.379 465.48 172.083 466.168C172.787 466.856 173.683 467.192 174.787 467.192C175.891 467.192 176.787 466.856 177.491 466.168C178.195 465.48 178.547 464.584 178.547 463.496C178.547 462.408 178.195 461.528 177.491 460.84C176.787 460.152 175.891 459.8 174.787 459.8ZM172.867 465.384C172.387 464.904 172.147 464.28 172.147 463.496C172.147 462.712 172.387 462.088 172.867 461.608C173.363 461.128 174.003 460.888 174.787 460.888C175.571 460.888 176.211 461.128 176.691 461.608C177.187 462.088 177.427 462.712 177.427 463.496C177.427 464.28 177.187 464.904 176.691 465.384C176.211 465.864 175.571 466.104 174.787 466.104C174.003 466.104 173.363 465.864 172.867 465.384ZM188.951 467L184.647 455.8H183.495L179.191 467H180.375L181.415 464.248H186.727L187.767 467H188.951ZM184.071 457.192L186.327 463.192H181.815L184.071 457.192ZM196.597 461.192C197.477 460.648 197.909 459.848 197.909 458.808C197.909 457.992 197.621 457.288 197.029 456.696C196.437 456.104 195.733 455.8 194.901 455.8H190.389V467H195.269C196.133 467 196.869 466.696 197.477 466.088C198.085 465.48 198.389 464.744 198.389 463.88C198.389 462.664 197.685 461.656 196.597 461.192ZM194.901 456.856C195.429 456.856 195.861 457.048 196.229 457.432C196.597 457.816 196.789 458.28 196.789 458.808C196.789 459.352 196.597 459.816 196.229 460.2C195.861 460.568 195.429 460.76 194.901 460.76H191.509V456.856H194.901ZM191.509 465.944V461.816H195.269C195.829 461.816 196.293 462.024 196.677 462.424C197.077 462.824 197.269 463.32 197.269 463.88C197.269 464.456 197.077 464.952 196.677 465.352C196.293 465.752 195.829 465.944 195.269 465.944H191.509ZM209.575 465.512C210.695 464.376 211.255 463.016 211.255 461.4C211.255 459.784 210.695 458.424 209.575 457.304C208.455 456.168 207.079 455.608 205.463 455.608C203.847 455.608 202.471 456.168 201.351 457.304C200.231 458.424 199.671 459.784 199.671 461.4C199.671 463.016 200.231 464.376 201.351 465.512C202.471 466.632 203.847 467.192 205.463 467.192C207.079 467.192 208.455 466.632 209.575 465.512ZM202.135 464.744C201.239 463.832 200.791 462.712 200.791 461.4C200.791 460.088 201.239 458.984 202.135 458.072C203.031 457.16 204.135 456.696 205.463 456.696C206.791 456.696 207.895 457.16 208.791 458.072C209.687 458.984 210.135 460.088 210.135 461.4C210.135 462.712 209.687 463.832 208.791 464.744C207.895 465.656 206.791 466.104 205.463 466.104C204.135 466.104 203.031 465.656 202.135 464.744ZM218.163 461.224C219.155 460.664 219.651 459.816 219.651 458.712C219.651 457.704 219.315 456.936 218.643 456.408C217.987 455.88 217.187 455.608 216.275 455.608C215.363 455.608 214.563 455.88 213.891 456.408C213.235 456.936 212.899 457.704 212.899 458.712C212.899 459.816 213.395 460.664 214.387 461.224C213.251 461.752 212.531 462.744 212.531 463.96C212.531 464.968 212.883 465.768 213.603 466.344C214.323 466.904 215.203 467.192 216.275 467.192C217.347 467.192 218.227 466.904 218.947 466.344C219.667 465.768 220.019 464.968 220.019 463.96C220.019 462.744 219.299 461.752 218.163 461.224ZM214.019 458.712C214.019 457.352 214.995 456.696 216.275 456.696C217.555 456.696 218.531 457.352 218.531 458.712C218.531 459.992 217.507 460.728 216.275 460.728C215.043 460.728 214.019 459.992 214.019 458.712ZM214.371 465.56C213.891 465.192 213.651 464.648 213.651 463.96C213.651 463.272 213.891 462.744 214.371 462.376C214.851 462.008 215.491 461.816 216.275 461.816C217.059 461.816 217.699 462.008 218.179 462.376C218.659 462.744 218.899 463.272 218.899 463.96C218.899 464.648 218.659 465.192 218.179 465.56C217.699 465.928 217.059 466.104 216.275 466.104C215.491 466.104 214.851 465.928 214.371 465.56ZM227.696 462.568V461.544H221.936V462.568H227.696ZM236.457 461.192C237.337 460.648 237.769 459.848 237.769 458.808C237.769 457.992 237.481 457.288 236.889 456.696C236.297 456.104 235.593 455.8 234.761 455.8H230.249V467H235.129C235.993 467 236.729 466.696 237.337 466.088C237.945 465.48 238.249 464.744 238.249 463.88C238.249 462.664 237.545 461.656 236.457 461.192ZM234.761 456.856C235.289 456.856 235.721 457.048 236.089 457.432C236.457 457.816 236.649 458.28 236.649 458.808C236.649 459.352 236.457 459.816 236.089 460.2C235.721 460.568 235.289 460.76 234.761 460.76H231.369V456.856H234.761ZM231.369 465.944V461.816H235.129C235.689 461.816 236.153 462.024 236.537 462.424C236.937 462.824 237.129 463.32 237.129 463.88C237.129 464.456 236.937 464.952 236.537 465.352C236.153 465.752 235.689 465.944 235.129 465.944H231.369ZM240.171 467H241.291V455.8H240.171V467ZM244.978 455.8H243.858V467H250.098V465.944H244.978V455.8ZM251.702 455.8V467H252.822V462.84H255.702C256.71 462.84 257.542 462.504 258.214 461.832C258.886 461.16 259.222 460.328 259.222 459.32C259.222 458.312 258.886 457.48 258.214 456.808C257.542 456.136 256.71 455.8 255.702 455.8H251.702ZM252.822 461.784V456.856H255.702C256.39 456.856 256.966 457.096 257.414 457.56C257.878 458.024 258.102 458.6 258.102 459.32C258.102 460.04 257.878 460.632 257.414 461.096C256.966 461.56 256.39 461.784 255.702 461.784H252.822ZM259.867 455.8V456.856H263.307V467H264.427V456.856H267.867V455.8H259.867ZM273.628 467L277.756 455.8H276.54L273.052 465.512L269.564 455.8H268.348L272.476 467H273.628Z" fill="#101010"/>
<rect width="279" height="36" transform="translate(48 505)" fill="#FEFAF1"/>
<path d="M155.748 526V525.184H151.608L154.008 522.796C155.004 521.8 155.568 520.948 155.568 519.976C155.568 519.196 155.316 518.584 154.8 518.14C154.296 517.684 153.708 517.456 153.036 517.456C151.932 517.456 150.972 517.996 150.444 519.04L151.152 519.46C151.548 518.668 152.172 518.272 153.036 518.272C153.96 518.272 154.728 518.908 154.728 519.976C154.728 520.588 154.296 521.332 153.432 522.196L150.408 525.244V526H155.748ZM161.635 518.392V517.6H156.715V518.392H160.663L158.575 521.248L158.935 521.8H159.163L159.175 521.788V521.8C160.327 521.8 161.155 522.448 161.155 523.564C161.155 524.68 160.327 525.328 159.175 525.328C158.179 525.328 157.447 524.896 157.171 524.068L156.475 524.476C156.871 525.544 157.927 526.144 159.175 526.144C159.955 526.144 160.627 525.916 161.167 525.46C161.719 524.992 161.995 524.368 161.995 523.564C161.995 522.856 161.779 522.292 161.335 521.872C160.903 521.44 160.351 521.176 159.679 521.092L161.635 518.392ZM164.111 520H163.319V526H164.111V522.664C164.111 521.284 164.915 520.672 166.007 520.672V519.904C165.107 519.904 164.483 520.264 164.111 520.996V520ZM171.889 521.176C171.337 520.3 170.533 519.856 169.465 519.856C168.613 519.856 167.881 520.156 167.269 520.768C166.669 521.38 166.369 522.124 166.369 523C166.369 523.876 166.669 524.62 167.269 525.232C167.881 525.844 168.613 526.144 169.465 526.144C170.533 526.144 171.337 525.7 171.889 524.824V526H172.681V517.6H171.889V521.176ZM167.845 524.692C167.389 524.224 167.161 523.66 167.161 523C167.161 522.34 167.389 521.776 167.845 521.32C168.301 520.852 168.865 520.624 169.525 520.624C170.185 520.624 170.749 520.852 171.205 521.32C171.661 521.776 171.889 522.34 171.889 523C171.889 523.66 171.661 524.224 171.205 524.692C170.749 525.148 170.185 525.376 169.525 525.376C168.865 525.376 168.301 525.148 167.845 524.692ZM182.878 524.44L178.198 517.6H177.478V526H178.318V519.16L182.998 526H183.718V517.6H182.878V524.44ZM190.542 525.244C191.154 524.632 191.466 523.888 191.466 523C191.466 522.112 191.154 521.368 190.542 520.768C189.93 520.156 189.186 519.856 188.31 519.856C187.434 519.856 186.678 520.156 186.066 520.768C185.454 521.368 185.154 522.112 185.154 523C185.154 523.888 185.454 524.632 186.066 525.244C186.678 525.844 187.434 526.144 188.31 526.144C189.186 526.144 189.93 525.844 190.542 525.244ZM186.63 524.692C186.174 524.224 185.946 523.66 185.946 523C185.946 522.34 186.174 521.776 186.63 521.32C187.086 520.852 187.65 520.624 188.31 520.624C188.97 520.624 189.534 520.852 189.99 521.32C190.446 521.776 190.674 522.34 190.674 523C190.674 523.66 190.446 524.224 189.99 524.692C189.534 525.148 188.97 525.376 188.31 525.376C187.65 525.376 187.086 525.148 186.63 524.692ZM194.777 525.172L192.677 520H191.837L194.297 526H195.257L197.717 520H196.877L194.777 525.172ZM206.654 526V525.184H202.514L204.914 522.796C205.91 521.8 206.474 520.948 206.474 519.976C206.474 519.196 206.222 518.584 205.706 518.14C205.202 517.684 204.614 517.456 203.942 517.456C202.838 517.456 201.878 517.996 201.35 519.04L202.058 519.46C202.454 518.668 203.078 518.272 203.942 518.272C204.866 518.272 205.634 518.908 205.634 519.976C205.634 520.588 205.202 521.332 204.338 522.196L201.314 525.244V526H206.654ZM213.141 524.968C213.705 524.176 213.981 523.12 213.981 521.8C213.981 520.48 213.705 519.424 213.141 518.644C212.589 517.852 211.809 517.456 210.801 517.456C209.793 517.456 209.013 517.852 208.449 518.644C207.897 519.424 207.621 520.48 207.621 521.8C207.621 523.12 207.897 524.176 208.449 524.968C209.013 525.748 209.793 526.144 210.801 526.144C211.809 526.144 212.589 525.748 213.141 524.968ZM209.073 524.404C208.665 523.792 208.461 522.916 208.461 521.8C208.461 520.684 208.665 519.808 209.073 519.196C209.493 518.584 210.069 518.272 210.801 518.272C211.533 518.272 212.109 518.584 212.517 519.196C212.937 519.808 213.141 520.684 213.141 521.8C213.141 522.916 212.937 523.792 212.517 524.404C212.109 525.016 211.533 525.328 210.801 525.328C210.069 525.328 209.493 525.016 209.073 524.404ZM220.283 526V525.184H216.143L218.543 522.796C219.539 521.8 220.103 520.948 220.103 519.976C220.103 519.196 219.851 518.584 219.335 518.14C218.831 517.684 218.243 517.456 217.571 517.456C216.467 517.456 215.507 517.996 214.979 519.04L215.687 519.46C216.083 518.668 216.707 518.272 217.571 518.272C218.495 518.272 219.263 518.908 219.263 519.976C219.263 520.588 218.831 521.332 217.967 522.196L214.943 525.244V526H220.283ZM226.588 526V525.184H222.448L224.848 522.796C225.844 521.8 226.408 520.948 226.408 519.976C226.408 519.196 226.156 518.584 225.64 518.14C225.136 517.684 224.548 517.456 223.876 517.456C222.772 517.456 221.812 517.996 221.284 519.04L221.992 519.46C222.388 518.668 223.012 518.272 223.876 518.272C224.8 518.272 225.568 518.908 225.568 519.976C225.568 520.588 225.136 521.332 224.272 522.196L221.248 525.244V526H226.588Z" fill="#222222"/>
<circle cx="335" cy="39" r="12" fill="white"/>
<path d="M331.263 35.2617L338.9 42.8985" stroke="#C6C6C6" stroke-width="2" stroke-linecap="round"/>
<path d="M331.263 42.8984L338.9 35.2617" stroke="#C6C6C6" stroke-width="2" stroke-linecap="round"/>
</svg>
