<svg width="343" height="525" viewBox="0 0 343 525" fill="none" xmlns="http://www.w3.org/2000/svg">
<path d="M0 8.00001C0 3.58173 3.58172 0 8 0H335C339.418 0 343 3.58172 343 8V525H0V8.00001Z" fill="white"/>
<path d="M18.464 38.208C19.488 38.208 20.432 37.968 21.296 37.472C22.16 36.976 22.832 36.304 23.296 35.472L22 34.736C21.36 35.952 20 36.752 18.464 36.752C17.168 36.752 16.112 36.336 15.296 35.504C14.48 34.672 14.08 33.632 14.08 32.4C14.08 31.152 14.48 30.112 15.296 29.28C16.112 28.448 17.168 28.032 18.464 28.032C20 28.032 21.36 28.832 22 30.064L23.296 29.312C22.336 27.648 20.512 26.592 18.464 26.592C16.768 26.592 15.36 27.152 14.256 28.272C13.152 29.392 12.608 30.768 12.608 32.4C12.608 34.032 13.152 35.408 14.256 36.528C15.36 37.648 16.768 38.208 18.464 38.208ZM28.8681 29.792C27.7001 29.792 26.8361 30.24 26.2761 31.152V26.8H24.8841V38H26.2761V33.76C26.2761 31.968 27.2041 31.12 28.5961 31.12C29.8281 31.12 30.5801 31.872 30.5801 33.168V38H31.9721V33.088C31.9721 31.056 30.7401 29.792 28.8681 29.792ZM40.6674 36.992C41.4834 36.176 41.8994 35.184 41.8994 34C41.8994 32.816 41.4834 31.824 40.6674 31.008C39.8514 30.192 38.8434 29.792 37.6754 29.792C36.5074 29.792 35.4994 30.192 34.6834 31.008C33.8674 31.824 33.4674 32.816 33.4674 34C33.4674 35.184 33.8674 36.176 34.6834 36.992C35.4994 37.808 36.5074 38.208 37.6754 38.208C38.8434 38.208 39.8514 37.808 40.6674 36.992ZM37.6754 36.848C36.8914 36.848 36.2194 36.576 35.6754 36.032C35.1314 35.488 34.8594 34.816 34.8594 34C34.8594 33.184 35.1314 32.512 35.6754 31.968C36.2194 31.424 36.8914 31.152 37.6754 31.152C38.4754 31.152 39.1474 31.424 39.6914 31.968C40.2354 32.512 40.5074 33.184 40.5074 34C40.5074 34.816 40.2354 35.488 39.6914 36.032C39.1474 36.576 38.4754 36.848 37.6754 36.848ZM50.2924 36.992C51.1084 36.176 51.5244 35.184 51.5244 34C51.5244 32.816 51.1084 31.824 50.2924 31.008C49.4764 30.192 48.4684 29.792 47.3004 29.792C46.1324 29.792 45.1244 30.192 44.3084 31.008C43.4924 31.824 43.0924 32.816 43.0924 34C43.0924 35.184 43.4924 36.176 44.3084 36.992C45.1244 37.808 46.1324 38.208 47.3004 38.208C48.4684 38.208 49.4764 37.808 50.2924 36.992ZM47.3004 36.848C46.5164 36.848 45.8444 36.576 45.3004 36.032C44.7564 35.488 44.4844 34.816 44.4844 34C44.4844 33.184 44.7564 32.512 45.3004 31.968C45.8444 31.424 46.5164 31.152 47.3004 31.152C48.1004 31.152 48.7724 31.424 49.3164 31.968C49.8604 32.512 50.1324 33.184 50.1324 34C50.1324 34.816 49.8604 35.488 49.3164 36.032C48.7724 36.576 48.1004 36.848 47.3004 36.848ZM54.1935 32.16C54.1935 31.472 54.8335 31.088 55.6175 31.088C56.4655 31.088 57.0415 31.424 57.3295 32.112L58.4975 31.456C57.9855 30.416 56.9135 29.792 55.6175 29.792C54.8015 29.792 54.1295 30.016 53.5855 30.464C53.0575 30.912 52.7855 31.488 52.7855 32.176C52.7855 33.872 54.4175 34.288 55.6815 34.624C56.5615 34.832 57.2655 35.184 57.2655 35.808C57.2655 36.56 56.5935 36.896 55.6815 36.896C54.7055 36.896 53.9535 36.416 53.6975 35.648L52.4975 36.336C52.9615 37.472 54.1295 38.208 55.6815 38.208C56.5615 38.208 57.2655 37.984 57.8255 37.552C58.3855 37.12 58.6735 36.528 58.6735 35.808C58.6895 34.096 57.0255 33.632 55.7775 33.36C54.8975 33.12 54.1935 32.784 54.1935 32.16ZM67.7829 34.64C67.8149 34.432 67.8309 34.224 67.8309 34.016C67.8309 32.848 67.4629 31.856 66.7109 31.04C65.9749 30.208 65.0149 29.792 63.8469 29.792C62.6149 29.792 61.6069 30.192 60.8229 30.992C60.0389 31.792 59.6549 32.8 59.6549 34C59.6549 35.216 60.0549 36.224 60.8389 37.024C61.6389 37.808 62.6789 38.208 63.9429 38.208C65.5109 38.208 66.6789 37.6 67.4629 36.4L66.2789 35.728C65.7989 36.512 65.0309 36.896 63.9749 36.896C62.4549 36.896 61.3509 36.064 61.0789 34.64H67.7829ZM63.8469 31.104C65.1269 31.104 66.1829 31.904 66.4229 33.424H61.0789C61.3189 32.016 62.3589 31.104 63.8469 31.104ZM79.975 32.192C80.791 31.632 81.191 30.848 81.191 29.856C81.191 28.992 80.887 28.272 80.279 27.68C79.671 27.088 78.935 26.8 78.055 26.8H73.575V38H78.407C79.319 38 80.087 37.696 80.711 37.088C81.335 36.48 81.655 35.728 81.655 34.832C81.655 33.632 80.999 32.688 79.975 32.192ZM78.055 28.192C78.519 28.192 78.903 28.368 79.223 28.704C79.559 29.04 79.719 29.44 79.719 29.904C79.719 30.864 78.999 31.616 78.055 31.616H75.063V28.192H78.055ZM75.063 36.608V32.976H78.407C78.903 32.976 79.319 33.152 79.655 33.504C80.007 33.856 80.183 34.288 80.183 34.784C80.183 35.808 79.415 36.608 78.407 36.608H75.063ZM83.9788 28.544C84.4908 28.544 84.9068 28.128 84.9068 27.616C84.9068 27.104 84.4908 26.672 83.9788 26.672C83.4508 26.672 83.0348 27.104 83.0348 27.616C83.0348 28.128 83.4508 28.544 83.9788 28.544ZM84.6668 38V30H83.2747V38H84.6668ZM88.1824 38V26.32H86.7904V38H88.1824ZM91.698 38V26.32H90.306V38H91.698ZM102.174 30H100.046V27.76L98.6536 28.176V30H97.0696V31.344H98.6536V35.68C98.6536 37.664 99.7416 38.32 102.174 38V36.752C100.75 36.816 100.046 36.912 100.046 35.68V31.344H102.174V30ZM110.167 36.992C110.983 36.176 111.399 35.184 111.399 34C111.399 32.816 110.983 31.824 110.167 31.008C109.351 30.192 108.343 29.792 107.175 29.792C106.007 29.792 104.999 30.192 104.183 31.008C103.367 31.824 102.967 32.816 102.967 34C102.967 35.184 103.367 36.176 104.183 36.992C104.999 37.808 106.007 38.208 107.175 38.208C108.343 38.208 109.351 37.808 110.167 36.992ZM107.175 36.848C106.391 36.848 105.719 36.576 105.175 36.032C104.631 35.488 104.359 34.816 104.359 34C104.359 33.184 104.631 32.512 105.175 31.968C105.719 31.424 106.391 31.152 107.175 31.152C107.975 31.152 108.647 31.424 109.191 31.968C109.735 32.512 110.007 33.184 110.007 34C110.007 34.816 109.735 35.488 109.191 36.032C108.647 36.576 107.975 36.848 107.175 36.848ZM117.184 26.8V38H118.672V34H121.248C122.288 34 123.136 33.648 123.824 32.96C124.512 32.272 124.864 31.408 124.864 30.4C124.864 29.376 124.512 28.528 123.824 27.84C123.136 27.152 122.288 26.8 121.248 26.8H117.184ZM118.672 32.608V28.192H121.248C122.48 28.192 123.392 29.12 123.392 30.4C123.392 31.024 123.184 31.552 122.784 31.984C122.384 32.4 121.872 32.608 121.248 32.608H118.672ZM132.493 31.376C131.805 30.32 130.797 29.792 129.469 29.792C128.349 29.792 127.389 30.208 126.605 31.024C125.821 31.84 125.421 32.832 125.421 34C125.421 35.168 125.821 36.176 126.605 36.992C127.389 37.808 128.349 38.208 129.469 38.208C130.797 38.208 131.805 37.68 132.493 36.624V38H133.885V30H132.493V31.376ZM129.645 36.864C128.845 36.864 128.173 36.592 127.629 36.048C127.085 35.488 126.812 34.816 126.812 34C126.812 33.184 127.085 32.512 127.629 31.968C128.173 31.408 128.845 31.136 129.645 31.136C130.461 31.136 131.133 31.408 131.677 31.968C132.221 32.512 132.493 33.184 132.493 34C132.493 34.816 132.221 35.488 131.677 36.048C131.133 36.592 130.461 36.864 129.645 36.864ZM139.274 36.272L136.554 30H135.066L138.554 37.968L138.41 38.272C137.946 39.44 137.226 39.984 136.25 39.904V41.2C137.85 41.312 139.114 40.304 139.802 38.496L143.066 30H141.578L139.274 36.272Z" fill="black"/>
<rect width="319" height="56" transform="translate(12 67)" fill="white"/>
<rect x="28" y="79" width="32" height="32" rx="4" fill="#F5FBF9"/>
<path d="M38 89H50C50.1769 89 50.3464 89.0702 50.4714 89.1953C50.5965 89.3203 50.6667 89.4899 50.6667 89.6667V100.333C50.6667 100.51 50.5965 100.68 50.4714 100.805C50.3464 100.93 50.1769 101 50 101H38C37.8232 101 37.6537 100.93 37.5286 100.805C37.4036 100.68 37.3334 100.51 37.3334 100.333V89.6667C37.3334 89.4899 37.4036 89.3203 37.5286 89.1953C37.6537 89.0702 37.8232 89 38 89ZM49.3334 95H38.6667V99.6667H49.3334V95ZM49.3334 92.3333V90.3333H38.6667V92.3333H49.3334Z" fill="#09121F"/>
<path d="M82.16 99.5L77.984 88.3H76.304L72.128 99.5H73.712L74.624 96.988H79.664L80.576 99.5H82.16ZM77.136 90.076L79.152 95.596H75.136L77.136 90.076ZM84.0413 90.044C84.5533 90.044 84.9693 89.628 84.9693 89.116C84.9693 88.604 84.5533 88.172 84.0413 88.172C83.5133 88.172 83.0973 88.604 83.0973 89.116C83.0973 89.628 83.5133 90.044 84.0413 90.044ZM84.7293 99.5V91.5H83.3372V99.5H84.7293ZM88.2449 91.5H86.8529V99.5H88.2449V95.26C88.2449 94.38 88.4849 93.756 88.9809 93.356C89.4769 92.956 90.0529 92.78 90.7409 92.812V91.356C89.5409 91.356 88.7089 91.852 88.2449 92.844V91.5ZM96.6424 91.5H94.5144V89.26L93.1224 89.676V91.5H91.5384V92.844H93.1224V97.18C93.1224 99.164 94.2104 99.82 96.6424 99.5V98.252C95.2184 98.316 94.5144 98.412 94.5144 97.18V92.844H96.6424V91.5ZM98.9944 90.044C99.5064 90.044 99.9224 89.628 99.9224 89.116C99.9224 88.604 99.5064 88.172 98.9944 88.172C98.4664 88.172 98.0504 88.604 98.0504 89.116C98.0504 89.628 98.4664 90.044 98.9944 90.044ZM99.6824 99.5V91.5H98.2904V99.5H99.6824ZM110.446 91.292C109.326 91.292 108.494 91.74 107.934 92.652C107.438 91.74 106.654 91.292 105.582 91.292C104.542 91.292 103.742 91.724 103.198 92.572V91.5H101.806V99.5H103.198V95.052C103.198 93.436 104.078 92.62 105.246 92.62C106.286 92.62 106.942 93.34 106.942 94.572V99.5H108.334V95.052C108.334 93.404 109.102 92.62 110.302 92.62C111.374 92.62 112.062 93.34 112.062 94.572V99.5H113.454V94.524C113.454 92.54 112.238 91.292 110.446 91.292ZM123.064 96.14C123.096 95.932 123.112 95.724 123.112 95.516C123.112 94.348 122.744 93.356 121.992 92.54C121.256 91.708 120.296 91.292 119.128 91.292C117.896 91.292 116.888 91.692 116.104 92.492C115.32 93.292 114.936 94.3 114.936 95.5C114.936 96.716 115.336 97.724 116.12 98.524C116.92 99.308 117.96 99.708 119.224 99.708C120.792 99.708 121.96 99.1 122.744 97.9L121.56 97.228C121.08 98.012 120.312 98.396 119.256 98.396C117.736 98.396 116.632 97.564 116.36 96.14H123.064ZM119.128 92.604C120.408 92.604 121.464 93.404 121.704 94.924H116.36C116.6 93.516 117.64 92.604 119.128 92.604Z" fill="#222222"/>
<g opacity="0.8">
<path d="M307.172 94.9998L304.343 92.1718L305.757 90.7568L310 94.9998L305.757 99.2428L304.343 97.8278L307.172 94.9998Z" fill="#101010"/>
</g>
<rect width="319" height="56" transform="translate(12 139)" fill="white"/>
<rect x="28" y="151" width="32" height="32" rx="4" fill="#F5FBF9"/>
<path d="M38 170.333C38.7072 170.333 39.3855 170.614 39.8856 171.114C40.3857 171.614 40.6667 172.293 40.6667 173H38V170.333ZM38 165.667C42.05 165.667 45.3333 168.95 45.3333 173H44C44 171.409 43.3679 169.883 42.2426 168.757C41.1174 167.632 39.5913 167 38 167V165.667ZM38 161C44.6273 161 50 166.373 50 173H48.6667C48.6667 167.109 43.8913 162.333 38 162.333V161Z" fill="#09121F"/>
<path d="M73.2 160.3V171.5H77.568C79.088 171.5 80.352 170.956 81.36 169.884C82.368 168.796 82.88 167.468 82.88 165.9C82.88 164.332 82.368 163.004 81.36 161.932C80.352 160.844 79.088 160.3 77.568 160.3H73.2ZM74.688 170.092V161.708H77.568C78.704 161.708 79.648 162.108 80.368 162.908C81.088 163.708 81.456 164.7 81.456 165.9C81.456 167.1 81.088 168.092 80.368 168.892C79.648 169.692 78.704 170.092 77.568 170.092H74.688ZM91.1644 164.876C90.4764 163.82 89.4684 163.292 88.1404 163.292C87.0204 163.292 86.0604 163.708 85.2764 164.524C84.4924 165.34 84.0924 166.332 84.0924 167.5C84.0924 168.668 84.4924 169.676 85.2764 170.492C86.0604 171.308 87.0204 171.708 88.1404 171.708C89.4684 171.708 90.4764 171.18 91.1644 170.124V171.5H92.5564V163.5H91.1644V164.876ZM88.3164 170.364C87.5164 170.364 86.8444 170.092 86.3004 169.548C85.7564 168.988 85.4844 168.316 85.4844 167.5C85.4844 166.684 85.7564 166.012 86.3004 165.468C86.8444 164.908 87.5164 164.636 88.3164 164.636C89.1324 164.636 89.8044 164.908 90.3484 165.468C90.8924 166.012 91.1644 166.684 91.1644 167.5C91.1644 168.316 90.8924 168.988 90.3484 169.548C89.8044 170.092 89.1324 170.364 88.3164 170.364ZM99.0174 163.5H96.8894V161.26L95.4974 161.676V163.5H93.9134V164.844H95.4974V169.18C95.4974 171.164 96.5854 171.82 99.0174 171.5V170.252C97.5934 170.316 96.8894 170.412 96.8894 169.18V164.844H99.0174V163.5ZM106.883 164.876C106.195 163.82 105.187 163.292 103.859 163.292C102.739 163.292 101.779 163.708 100.995 164.524C100.211 165.34 99.8111 166.332 99.8111 167.5C99.8111 168.668 100.211 169.676 100.995 170.492C101.779 171.308 102.739 171.708 103.859 171.708C105.187 171.708 106.195 171.18 106.883 170.124V171.5H108.275V163.5H106.883V164.876ZM104.035 170.364C103.235 170.364 102.563 170.092 102.019 169.548C101.475 168.988 101.203 168.316 101.203 167.5C101.203 166.684 101.475 166.012 102.019 165.468C102.563 164.908 103.235 164.636 104.035 164.636C104.851 164.636 105.523 164.908 106.067 165.468C106.611 166.012 106.883 166.684 106.883 167.5C106.883 168.316 106.611 168.988 106.067 169.548C105.523 170.092 104.851 170.364 104.035 170.364Z" fill="#222222"/>
<g opacity="0.8">
<path d="M307.172 167L304.343 164.172L305.757 162.757L310 167L305.757 171.243L304.343 169.828L307.172 167Z" fill="#101010"/>
</g>
<rect width="319" height="56" transform="translate(12 211)" fill="white"/>
<rect x="28" y="223" width="32" height="32" rx="4" fill="#F5FBF9"/>
<path d="M40.1567 235.302C39.3067 236.184 38.7864 237.332 38.6831 238.552C38.5798 239.773 38.8999 240.992 39.5895 242.005C40.2792 243.017 41.2964 243.761 42.4701 244.112C43.6438 244.463 44.9026 244.399 46.0347 243.931C46.1114 243.431 45.9434 242.951 45.8747 242.783C45.7214 242.41 45.216 241.772 44.3727 240.887C44.1474 240.65 44.162 240.468 44.2427 239.929L44.2514 239.868C44.306 239.499 44.398 239.28 45.6414 239.083C46.2734 238.983 46.4394 239.235 46.6694 239.585L46.7467 239.7C46.9654 240.02 47.1274 240.093 47.372 240.204C47.482 240.254 47.6187 240.317 47.802 240.42C48.2367 240.669 48.2367 240.95 48.2367 241.564V241.634C48.2367 241.895 48.2114 242.124 48.1714 242.324C48.6829 241.682 49.0394 240.93 49.2131 240.128C49.3868 239.325 49.3729 238.494 49.1726 237.698C48.9723 236.902 48.5909 236.162 48.0582 235.538C47.5256 234.913 46.8559 234.42 46.1014 234.096C45.7327 234.345 45.2267 234.698 45.05 234.94C44.96 235.063 44.832 235.694 44.4167 235.746C44.3087 235.76 44.1627 235.75 44.008 235.74C43.5934 235.714 43.0267 235.677 42.8454 236.17C42.73 236.482 42.71 237.33 43.0827 237.77C43.1427 237.84 43.154 237.97 43.1134 238.116C43.06 238.307 42.9527 238.424 42.9187 238.448C42.8547 238.41 42.7267 238.262 42.6394 238.161C42.4307 237.918 42.1694 237.614 41.832 237.521C41.7094 237.487 41.5747 237.459 41.4434 237.431C41.0774 237.354 40.6634 237.267 40.5667 237.062C40.496 236.911 40.4967 236.704 40.4967 236.485C40.4967 236.207 40.4967 235.893 40.3607 235.588C40.3134 235.48 40.2439 235.382 40.1567 235.302ZM44 245.666C40.318 245.666 37.3334 242.682 37.3334 239C37.3334 235.318 40.318 232.333 44 232.333C47.682 232.333 50.6667 235.318 50.6667 239C50.6667 242.682 47.682 245.666 44 245.666Z" fill="#09121F"/>
<path d="M73.2 243.5H74.688V232.3H73.2V243.5ZM80.9306 235.292C79.7626 235.292 78.8986 235.74 78.3386 236.652V235.5H76.9466V243.5H78.3386V239.26C78.3386 237.468 79.2666 236.62 80.6586 236.62C81.8906 236.62 82.6426 237.372 82.6426 238.668V243.5H84.0346V238.588C84.0346 236.556 82.8026 235.292 80.9306 235.292ZM90.3299 235.5H88.2019V233.26L86.8099 233.676V235.5H85.2259V236.844H86.8099V241.18C86.8099 243.164 87.8979 243.82 90.3299 243.5V242.252C88.9059 242.316 88.2019 242.412 88.2019 241.18V236.844H90.3299V235.5ZM99.2516 240.14C99.2836 239.932 99.2996 239.724 99.2996 239.516C99.2996 238.348 98.9316 237.356 98.1796 236.54C97.4436 235.708 96.4836 235.292 95.3156 235.292C94.0836 235.292 93.0756 235.692 92.2916 236.492C91.5076 237.292 91.1236 238.3 91.1236 239.5C91.1236 240.716 91.5236 241.724 92.3076 242.524C93.1076 243.308 94.1476 243.708 95.4116 243.708C96.9796 243.708 98.1476 243.1 98.9316 241.9L97.7476 241.228C97.2676 242.012 96.4996 242.396 95.4436 242.396C93.9236 242.396 92.8196 241.564 92.5476 240.14H99.2516ZM95.3156 236.604C96.5956 236.604 97.6516 237.404 97.8916 238.924H92.5476C92.7876 237.516 93.8276 236.604 95.3156 236.604ZM102.292 235.5H100.9V243.5H102.292V239.26C102.292 238.38 102.532 237.756 103.028 237.356C103.524 236.956 104.1 236.78 104.788 236.812V235.356C103.588 235.356 102.756 235.852 102.292 236.844V235.5ZM110.134 235.292C108.966 235.292 108.102 235.74 107.542 236.652V235.5H106.15V243.5H107.542V239.26C107.542 237.468 108.47 236.62 109.862 236.62C111.094 236.62 111.846 237.372 111.846 238.668V243.5H113.238V238.588C113.238 236.556 112.006 235.292 110.134 235.292ZM122.861 240.14C122.893 239.932 122.909 239.724 122.909 239.516C122.909 238.348 122.541 237.356 121.789 236.54C121.053 235.708 120.093 235.292 118.925 235.292C117.693 235.292 116.685 235.692 115.901 236.492C115.117 237.292 114.733 238.3 114.733 239.5C114.733 240.716 115.133 241.724 115.917 242.524C116.717 243.308 117.757 243.708 119.021 243.708C120.589 243.708 121.757 243.1 122.541 241.9L121.357 241.228C120.877 242.012 120.109 242.396 119.053 242.396C117.533 242.396 116.429 241.564 116.157 240.14H122.861ZM118.925 236.604C120.205 236.604 121.261 237.404 121.501 238.924H116.157C116.397 237.516 117.437 236.604 118.925 236.604ZM128.627 235.5H126.499V233.26L125.107 233.676V235.5H123.523V236.844H125.107V241.18C125.107 243.164 126.195 243.82 128.627 243.5V242.252C127.203 242.316 126.499 242.412 126.499 241.18V236.844H128.627V235.5Z" fill="#222222"/>
<g opacity="0.8">
<path d="M307.172 239L304.343 236.172L305.757 234.757L310 239L305.757 243.243L304.343 241.828L307.172 239Z" fill="#101010"/>
</g>
<rect width="319" height="56" transform="translate(12 283)" fill="white"/>
<rect x="28" y="295" width="32" height="32" rx="4" fill="#F5FBF9"/>
<path d="M46.2761 306.334H50.0054C50.3707 306.334 50.6667 306.63 50.6667 307V316.334C50.6667 316.702 50.3634 317 50.0054 317H37.9947C37.9075 317 37.8211 316.983 37.7406 316.949C37.6601 316.915 37.587 316.866 37.5256 316.804C37.4641 316.742 37.4155 316.669 37.3825 316.588C37.3496 316.507 37.3329 316.421 37.3334 316.334V307C37.3334 306.632 37.6367 306.334 37.9947 306.334H41.7241L40.0334 304.643L40.9761 303.7L43.6094 306.334H44.3907L47.0241 303.7L47.9667 304.643L46.2761 306.334ZM38.6667 307.667V315.667H49.3334V307.667H38.6667Z" fill="#09121F"/>
<path d="M72.288 304.3V305.708H75.584V315.5H77.056V305.708H80.368V304.3H72.288ZM86.4486 315.5L90.4646 304.3H88.8486L85.6166 313.644L82.3686 304.3H80.7686L84.7686 315.5H86.4486ZM99.3941 315.708C100.546 315.708 101.474 315.42 102.194 314.844C102.914 314.252 103.266 313.468 103.266 312.492C103.266 311.788 103.106 311.212 102.706 310.812C102.434 310.492 102.29 310.316 101.842 310.076C101.41 309.836 101.282 309.756 100.722 309.548C100.45 309.436 100.258 309.372 100.13 309.324L99.4741 309.116C98.6101 308.844 98.0021 308.572 97.6501 308.316C97.2981 308.06 97.1221 307.692 97.1221 307.196C97.1221 306.172 97.9381 305.532 99.1541 305.532C100.37 305.532 101.218 306.108 101.698 307.26L102.946 306.54C102.29 305.068 100.93 304.092 99.1541 304.092C98.1781 304.092 97.3461 304.38 96.6581 304.956C95.9701 305.516 95.6341 306.284 95.6341 307.26C95.6341 308.076 95.9701 308.732 96.3381 309.132C96.5141 309.324 96.7861 309.516 97.1541 309.708C97.5221 309.884 97.8421 310.028 98.0821 310.124L99.1541 310.476C100.098 310.78 100.786 311.052 101.186 311.324C101.586 311.596 101.794 311.996 101.794 312.524C101.794 313.564 100.962 314.252 99.4261 314.252C97.8741 314.252 96.8661 313.58 96.4341 312.22L95.1541 312.956C95.7461 314.668 97.2981 315.708 99.3941 315.708ZM110.404 311.74C110.404 313.532 109.476 314.38 108.084 314.38C106.852 314.38 106.1 313.628 106.1 312.332V307.5H104.708V312.412C104.708 314.444 105.94 315.708 107.812 315.708C108.98 315.708 109.844 315.26 110.404 314.348V315.5H111.796V307.5H110.404V311.74ZM118.331 307.292C117.003 307.292 115.995 307.82 115.307 308.876V304.3H113.915V315.5H115.307V314.124C115.995 315.18 117.003 315.708 118.331 315.708C119.451 315.708 120.411 315.308 121.195 314.492C121.979 313.676 122.379 312.668 122.379 311.5C122.379 310.332 121.979 309.34 121.195 308.524C120.411 307.708 119.451 307.292 118.331 307.292ZM118.155 314.364C117.339 314.364 116.667 314.092 116.123 313.548C115.579 312.988 115.307 312.316 115.307 311.5C115.307 310.684 115.579 310.012 116.123 309.468C116.667 308.908 117.339 308.636 118.155 308.636C118.955 308.636 119.627 308.908 120.171 309.468C120.715 310.012 120.987 310.684 120.987 311.5C120.987 312.316 120.715 312.988 120.171 313.548C119.627 314.092 118.955 314.364 118.155 314.364ZM125.069 309.66C125.069 308.972 125.709 308.588 126.493 308.588C127.341 308.588 127.917 308.924 128.205 309.612L129.373 308.956C128.861 307.916 127.789 307.292 126.493 307.292C125.677 307.292 125.005 307.516 124.461 307.964C123.933 308.412 123.661 308.988 123.661 309.676C123.661 311.372 125.293 311.788 126.557 312.124C127.437 312.332 128.141 312.684 128.141 313.308C128.141 314.06 127.469 314.396 126.557 314.396C125.581 314.396 124.829 313.916 124.573 313.148L123.373 313.836C123.837 314.972 125.005 315.708 126.557 315.708C127.437 315.708 128.141 315.484 128.701 315.052C129.261 314.62 129.549 314.028 129.549 313.308C129.565 311.596 127.901 311.132 126.653 310.86C125.773 310.62 125.069 310.284 125.069 309.66ZM134.738 315.708C136.29 315.708 137.65 314.892 138.338 313.628L137.154 312.94C136.706 313.788 135.81 314.332 134.738 314.332C133.938 314.332 133.266 314.06 132.722 313.516C132.194 312.972 131.922 312.3 131.922 311.5C131.922 310.684 132.194 310.012 132.722 309.468C133.266 308.924 133.938 308.652 134.738 308.652C135.81 308.652 136.706 309.212 137.106 310.06L138.274 309.388C137.65 308.108 136.322 307.292 134.738 307.292C133.538 307.292 132.53 307.692 131.73 308.508C130.93 309.308 130.53 310.3 130.53 311.5C130.53 312.7 130.93 313.692 131.73 314.508C132.53 315.308 133.538 315.708 134.738 315.708ZM141.12 307.5H139.728V315.5H141.12V311.26C141.12 310.38 141.36 309.756 141.856 309.356C142.352 308.956 142.928 308.78 143.616 308.812V307.356C142.416 307.356 141.584 307.852 141.12 308.844V307.5ZM145.682 306.044C146.194 306.044 146.61 305.628 146.61 305.116C146.61 304.604 146.194 304.172 145.682 304.172C145.154 304.172 144.738 304.604 144.738 305.116C144.738 305.628 145.154 306.044 145.682 306.044ZM146.37 315.5V307.5H144.978V315.5H146.37ZM152.91 307.292C151.582 307.292 150.574 307.82 149.886 308.876V307.5H148.493V318.7H149.886V314.124C150.574 315.18 151.582 315.708 152.91 315.708C154.03 315.708 154.99 315.308 155.774 314.492C156.558 313.676 156.958 312.668 156.958 311.5C156.958 310.332 156.558 309.34 155.774 308.524C154.99 307.708 154.03 307.292 152.91 307.292ZM152.734 314.364C151.918 314.364 151.246 314.092 150.702 313.548C150.158 312.988 149.886 312.316 149.886 311.5C149.886 310.684 150.158 310.012 150.702 309.468C151.246 308.908 151.918 308.636 152.734 308.636C153.534 308.636 154.206 308.908 154.75 309.468C155.294 310.012 155.566 310.684 155.566 311.5C155.566 312.316 155.294 312.988 154.75 313.548C154.206 314.092 153.534 314.364 152.734 314.364ZM162.799 307.5H160.671V305.26L159.279 305.676V307.5H157.695V308.844H159.279V313.18C159.279 315.164 160.367 315.82 162.799 315.5V314.252C161.375 314.316 160.671 314.412 160.671 313.18V308.844H162.799V307.5ZM165.151 306.044C165.663 306.044 166.079 305.628 166.079 305.116C166.079 304.604 165.663 304.172 165.151 304.172C164.623 304.172 164.207 304.604 164.207 305.116C164.207 305.628 164.623 306.044 165.151 306.044ZM165.839 315.5V307.5H164.447V315.5H165.839ZM174.714 314.492C175.53 313.676 175.946 312.684 175.946 311.5C175.946 310.316 175.53 309.324 174.714 308.508C173.898 307.692 172.89 307.292 171.722 307.292C170.554 307.292 169.546 307.692 168.73 308.508C167.914 309.324 167.514 310.316 167.514 311.5C167.514 312.684 167.914 313.676 168.73 314.492C169.546 315.308 170.554 315.708 171.722 315.708C172.89 315.708 173.898 315.308 174.714 314.492ZM171.722 314.348C170.938 314.348 170.266 314.076 169.722 313.532C169.178 312.988 168.906 312.316 168.906 311.5C168.906 310.684 169.178 310.012 169.722 309.468C170.266 308.924 170.938 308.652 171.722 308.652C172.522 308.652 173.194 308.924 173.738 309.468C174.282 310.012 174.554 310.684 174.554 311.5C174.554 312.316 174.282 312.988 173.738 313.532C173.194 314.076 172.522 314.348 171.722 314.348ZM181.571 307.292C180.403 307.292 179.539 307.74 178.979 308.652V307.5H177.587V315.5H178.979V311.26C178.979 309.468 179.907 308.62 181.299 308.62C182.531 308.62 183.283 309.372 183.283 310.668V315.5H184.675V310.588C184.675 308.556 183.443 307.292 181.571 307.292ZM187.819 309.66C187.819 308.972 188.459 308.588 189.243 308.588C190.091 308.588 190.667 308.924 190.955 309.612L192.123 308.956C191.611 307.916 190.539 307.292 189.243 307.292C188.427 307.292 187.755 307.516 187.211 307.964C186.683 308.412 186.411 308.988 186.411 309.676C186.411 311.372 188.043 311.788 189.307 312.124C190.187 312.332 190.891 312.684 190.891 313.308C190.891 314.06 190.219 314.396 189.307 314.396C188.331 314.396 187.579 313.916 187.323 313.148L186.123 313.836C186.587 314.972 187.755 315.708 189.307 315.708C190.187 315.708 190.891 315.484 191.451 315.052C192.011 314.62 192.299 314.028 192.299 313.308C192.315 311.596 190.651 311.132 189.403 310.86C188.523 310.62 187.819 310.284 187.819 309.66Z" fill="#222222"/>
<g opacity="0.8">
<path d="M307.172 311L304.343 308.172L305.757 306.757L310 311L305.757 315.243L304.343 313.828L307.172 311Z" fill="#101010"/>
</g>
<rect width="319" height="56" transform="translate(12 355)" fill="white"/>
<rect x="28" y="367" width="32" height="32" rx="4" fill="#F5FBF9"/>
<path d="M42.6486 387H45.3513C45.4393 386.199 45.848 385.537 46.5113 384.815C46.5866 384.734 47.066 384.237 47.1226 384.167C47.5935 383.578 47.8886 382.869 47.9741 382.12C48.0595 381.372 47.9317 380.614 47.6055 379.935C47.2792 379.256 46.7678 378.683 46.13 378.281C45.4923 377.88 44.7542 377.667 44.0007 377.667C43.2472 377.667 42.509 377.88 41.8711 378.281C41.2332 378.682 40.7215 379.255 40.3949 379.934C40.0684 380.613 39.9403 381.37 40.0254 382.119C40.1105 382.867 40.4054 383.577 40.876 384.165C40.9333 384.237 41.414 384.734 41.488 384.815C42.152 385.537 42.5606 386.199 42.6486 387ZM45.3333 388.333H42.6666V389H45.3333V388.333ZM39.836 385C39.2081 384.216 38.8146 383.27 38.7008 382.271C38.587 381.273 38.7576 380.263 39.1928 379.357C39.628 378.452 40.3103 377.687 41.1609 377.152C42.0115 376.618 42.9959 376.334 44.0007 376.334C45.0055 376.334 45.9898 376.618 46.8402 377.153C47.6907 377.688 48.3727 378.453 48.8076 379.359C49.2426 380.264 49.4128 381.275 49.2987 382.273C49.1846 383.271 48.7908 384.217 48.1626 385.001C47.7493 385.516 46.6666 386.333 46.6666 387.333V389C46.6666 389.354 46.5262 389.693 46.2761 389.943C46.0261 390.193 45.6869 390.333 45.3333 390.333H42.6666C42.313 390.333 41.9739 390.193 41.7238 389.943C41.4738 389.693 41.3333 389.354 41.3333 389V387.333C41.3333 386.333 40.25 385.516 39.836 385ZM44.6666 381.669H46.3333L43.3333 385.669V383.003H41.6666L44.6666 379V381.67V381.669Z" fill="#09121F"/>
<path d="M74.688 382.54H79.408V381.148H74.688V377.708H79.808V376.3H73.2V387.5H79.888V386.092H74.688V382.54ZM82.9324 387.5V375.82H81.5404V387.5H82.9324ZM92.736 384.14C92.768 383.932 92.784 383.724 92.784 383.516C92.784 382.348 92.416 381.356 91.664 380.54C90.928 379.708 89.968 379.292 88.8 379.292C87.568 379.292 86.56 379.692 85.776 380.492C84.992 381.292 84.608 382.3 84.608 383.5C84.608 384.716 85.008 385.724 85.792 386.524C86.592 387.308 87.632 387.708 88.896 387.708C90.464 387.708 91.632 387.1 92.416 385.9L91.232 385.228C90.752 386.012 89.984 386.396 88.928 386.396C87.408 386.396 86.304 385.564 86.032 384.14H92.736ZM88.8 380.604C90.08 380.604 91.136 381.404 91.376 382.924H86.032C86.272 381.516 87.312 380.604 88.8 380.604ZM98.1285 387.708C99.6805 387.708 101.041 386.892 101.729 385.628L100.545 384.94C100.097 385.788 99.2005 386.332 98.1285 386.332C97.3285 386.332 96.6565 386.06 96.1125 385.516C95.5845 384.972 95.3125 384.3 95.3125 383.5C95.3125 382.684 95.5845 382.012 96.1125 381.468C96.6565 380.924 97.3285 380.652 98.1285 380.652C99.2005 380.652 100.097 381.212 100.497 382.06L101.665 381.388C101.041 380.108 99.7125 379.292 98.1285 379.292C96.9285 379.292 95.9205 379.692 95.1205 380.508C94.3205 381.308 93.9205 382.3 93.9205 383.5C93.9205 384.7 94.3205 385.692 95.1205 386.508C95.9205 387.308 96.9285 387.708 98.1285 387.708ZM107.455 379.5H105.327V377.26L103.935 377.676V379.5H102.351V380.844H103.935V385.18C103.935 387.164 105.023 387.82 107.455 387.5V386.252C106.031 386.316 105.327 386.412 105.327 385.18V380.844H107.455V379.5ZM110.542 379.5H109.15V387.5H110.542V383.26C110.542 382.38 110.782 381.756 111.278 381.356C111.774 380.956 112.35 380.78 113.038 380.812V379.356C111.838 379.356 111.006 379.852 110.542 380.844V379.5ZM115.104 378.044C115.616 378.044 116.032 377.628 116.032 377.116C116.032 376.604 115.616 376.172 115.104 376.172C114.576 376.172 114.16 376.604 114.16 377.116C114.16 377.628 114.576 378.044 115.104 378.044ZM115.792 387.5V379.5H114.4V387.5H115.792ZM121.675 387.708C123.227 387.708 124.587 386.892 125.275 385.628L124.091 384.94C123.643 385.788 122.747 386.332 121.675 386.332C120.875 386.332 120.203 386.06 119.659 385.516C119.131 384.972 118.859 384.3 118.859 383.5C118.859 382.684 119.131 382.012 119.659 381.468C120.203 380.924 120.875 380.652 121.675 380.652C122.747 380.652 123.643 381.212 124.043 382.06L125.211 381.388C124.587 380.108 123.259 379.292 121.675 379.292C120.475 379.292 119.467 379.692 118.667 380.508C117.867 381.308 117.467 382.3 117.467 383.5C117.467 384.7 117.867 385.692 118.667 386.508C119.467 387.308 120.475 387.708 121.675 387.708ZM127.354 378.044C127.866 378.044 128.282 377.628 128.282 377.116C128.282 376.604 127.866 376.172 127.354 376.172C126.826 376.172 126.41 376.604 126.41 377.116C126.41 377.628 126.826 378.044 127.354 378.044ZM128.042 387.5V379.5H126.65V387.5H128.042ZM134.517 379.5H132.389V377.26L130.997 377.676V379.5H129.413V380.844H130.997V385.18C130.997 387.164 132.085 387.82 134.517 387.5V386.252C133.093 386.316 132.389 386.412 132.389 385.18V380.844H134.517V379.5ZM139.617 385.772L136.897 379.5H135.409L138.897 387.468L138.753 387.772C138.289 388.94 137.569 389.484 136.593 389.404V390.7C138.193 390.812 139.457 389.804 140.145 387.996L143.409 379.5H141.921L139.617 385.772Z" fill="#222222"/>
<g opacity="0.8">
<path d="M307.172 383L304.343 380.172L305.757 378.757L310 383L305.757 387.243L304.343 385.828L307.172 383Z" fill="#101010"/>
</g>
<rect width="319" height="56" transform="translate(12 427)" fill="white"/>
<rect x="28" y="439" width="32" height="32" rx="4" fill="#F5FBF9"/>
<path d="M48.6667 460.334H39.3334V461C39.3334 461.177 39.2631 461.347 39.1381 461.472C39.0131 461.597 38.8435 461.667 38.6667 461.667H38C37.8232 461.667 37.6537 461.597 37.5286 461.472C37.4036 461.347 37.3334 461.177 37.3334 461V454.334L38.9867 450.475C39.0896 450.235 39.2607 450.03 39.4787 449.887C39.6968 449.743 39.9523 449.667 40.2134 449.667H47.7867C48.0476 449.667 48.3028 449.744 48.5206 449.887C48.7384 450.031 48.9092 450.235 49.012 450.475L50.6667 454.334V461C50.6667 461.177 50.5965 461.347 50.4714 461.472C50.3464 461.597 50.1769 461.667 50 461.667H49.3334C49.1566 461.667 48.987 461.597 48.862 461.472C48.7369 461.347 48.6667 461.177 48.6667 461V460.334ZM49.3334 455.667H38.6667V459H49.3334V455.667ZM38.784 454.334H49.216L47.7874 451H40.2134L38.7847 454.334H38.784ZM40.3334 458.334C40.0682 458.334 39.8138 458.228 39.6263 458.041C39.4387 457.853 39.3334 457.599 39.3334 457.334C39.3334 457.068 39.4387 456.814 39.6263 456.627C39.8138 456.439 40.0682 456.334 40.3334 456.334C40.5986 456.334 40.8529 456.439 41.0405 456.627C41.228 456.814 41.3334 457.068 41.3334 457.334C41.3334 457.599 41.228 457.853 41.0405 458.041C40.8529 458.228 40.5986 458.334 40.3334 458.334ZM47.6667 458.334C47.4015 458.334 47.1471 458.228 46.9596 458.041C46.7721 457.853 46.6667 457.599 46.6667 457.334C46.6667 457.068 46.7721 456.814 46.9596 456.627C47.1471 456.439 47.4015 456.334 47.6667 456.334C47.9319 456.334 48.1863 456.439 48.3738 456.627C48.5613 456.814 48.6667 457.068 48.6667 457.334C48.6667 457.599 48.5613 457.853 48.3738 458.041C48.1863 458.228 47.9319 458.334 47.6667 458.334Z" fill="#09121F"/>
<path d="M72.288 448.3V449.708H75.584V459.5H77.056V449.708H80.368V448.3H72.288ZM81.9949 451.5H80.6029V459.5H81.9949V455.26C81.9949 454.38 82.2349 453.756 82.7309 453.356C83.2269 452.956 83.8029 452.78 84.4909 452.812V451.356C83.2909 451.356 82.4589 451.852 81.9949 452.844V451.5ZM92.0394 452.876C91.3514 451.82 90.3434 451.292 89.0154 451.292C87.8954 451.292 86.9354 451.708 86.1514 452.524C85.3674 453.34 84.9674 454.332 84.9674 455.5C84.9674 456.668 85.3674 457.676 86.1514 458.492C86.9354 459.308 87.8954 459.708 89.0154 459.708C90.3434 459.708 91.3514 459.18 92.0394 458.124V459.5H93.4314V451.5H92.0394V452.876ZM89.1914 458.364C88.3914 458.364 87.7194 458.092 87.1754 457.548C86.6314 456.988 86.3594 456.316 86.3594 455.5C86.3594 454.684 86.6314 454.012 87.1754 453.468C87.7194 452.908 88.3914 452.636 89.1914 452.636C90.0074 452.636 90.6794 452.908 91.2234 453.468C91.7674 454.012 92.0394 454.684 92.0394 455.5C92.0394 456.316 91.7674 456.988 91.2234 457.548C90.6794 458.092 90.0074 458.364 89.1914 458.364ZM99.5244 451.292C98.3564 451.292 97.4924 451.74 96.9324 452.652V451.5H95.5404V459.5H96.9324V455.26C96.9324 453.468 97.8604 452.62 99.2524 452.62C100.484 452.62 101.236 453.372 101.236 454.668V459.5H102.628V454.588C102.628 452.556 101.396 451.292 99.5244 451.292ZM105.772 453.66C105.772 452.972 106.412 452.588 107.196 452.588C108.044 452.588 108.62 452.924 108.908 453.612L110.076 452.956C109.564 451.916 108.492 451.292 107.196 451.292C106.38 451.292 105.708 451.516 105.164 451.964C104.636 452.412 104.364 452.988 104.364 453.676C104.364 455.372 105.996 455.788 107.26 456.124C108.14 456.332 108.844 456.684 108.844 457.308C108.844 458.06 108.172 458.396 107.26 458.396C106.284 458.396 105.532 457.916 105.276 457.148L104.076 457.836C104.54 458.972 105.708 459.708 107.26 459.708C108.14 459.708 108.844 459.484 109.404 459.052C109.964 458.62 110.252 458.028 110.252 457.308C110.268 455.596 108.604 455.132 107.356 454.86C106.476 454.62 105.772 454.284 105.772 453.66ZM116.316 451.292C114.988 451.292 113.98 451.82 113.292 452.876V451.5H111.9V462.7H113.292V458.124C113.98 459.18 114.988 459.708 116.316 459.708C117.436 459.708 118.396 459.308 119.18 458.492C119.964 457.676 120.364 456.668 120.364 455.5C120.364 454.332 119.964 453.34 119.18 452.524C118.396 451.708 117.436 451.292 116.316 451.292ZM116.14 458.364C115.324 458.364 114.652 458.092 114.108 457.548C113.564 456.988 113.292 456.316 113.292 455.5C113.292 454.684 113.564 454.012 114.108 453.468C114.652 452.908 115.324 452.636 116.14 452.636C116.94 452.636 117.612 452.908 118.156 453.468C118.7 454.012 118.972 454.684 118.972 455.5C118.972 456.316 118.7 456.988 118.156 457.548C117.612 458.092 116.94 458.364 116.14 458.364ZM128.777 458.492C129.593 457.676 130.009 456.684 130.009 455.5C130.009 454.316 129.593 453.324 128.777 452.508C127.961 451.692 126.953 451.292 125.785 451.292C124.617 451.292 123.609 451.692 122.793 452.508C121.977 453.324 121.577 454.316 121.577 455.5C121.577 456.684 121.977 457.676 122.793 458.492C123.609 459.308 124.617 459.708 125.785 459.708C126.953 459.708 127.961 459.308 128.777 458.492ZM125.785 458.348C125.001 458.348 124.329 458.076 123.785 457.532C123.241 456.988 122.969 456.316 122.969 455.5C122.969 454.684 123.241 454.012 123.785 453.468C124.329 452.924 125.001 452.652 125.785 452.652C126.585 452.652 127.257 452.924 127.801 453.468C128.345 454.012 128.617 454.684 128.617 455.5C128.617 456.316 128.345 456.988 127.801 457.532C127.257 458.076 126.585 458.348 125.785 458.348ZM133.042 451.5H131.65V459.5H133.042V455.26C133.042 454.38 133.282 453.756 133.778 453.356C134.274 452.956 134.85 452.78 135.538 452.812V451.356C134.338 451.356 133.506 451.852 133.042 452.844V451.5ZM141.439 451.5H139.311V449.26L137.919 449.676V451.5H136.335V452.844H137.919V457.18C137.919 459.164 139.007 459.82 141.439 459.5V458.252C140.015 458.316 139.311 458.412 139.311 457.18V452.844H141.439V451.5ZM149.305 452.876C148.617 451.82 147.609 451.292 146.281 451.292C145.161 451.292 144.201 451.708 143.417 452.524C142.633 453.34 142.233 454.332 142.233 455.5C142.233 456.668 142.633 457.676 143.417 458.492C144.201 459.308 145.161 459.708 146.281 459.708C147.609 459.708 148.617 459.18 149.305 458.124V459.5H150.697V451.5H149.305V452.876ZM146.457 458.364C145.657 458.364 144.985 458.092 144.441 457.548C143.897 456.988 143.625 456.316 143.625 455.5C143.625 454.684 143.897 454.012 144.441 453.468C144.985 452.908 145.657 452.636 146.457 452.636C147.273 452.636 147.945 452.908 148.489 453.468C149.033 454.012 149.305 454.684 149.305 455.5C149.305 456.316 149.033 456.988 148.489 457.548C147.945 458.092 147.273 458.364 146.457 458.364ZM157.158 451.5H155.03V449.26L153.638 449.676V451.5H152.054V452.844H153.638V457.18C153.638 459.164 154.726 459.82 157.158 459.5V458.252C155.734 458.316 155.03 458.412 155.03 457.18V452.844H157.158V451.5ZM159.51 450.044C160.022 450.044 160.438 449.628 160.438 449.116C160.438 448.604 160.022 448.172 159.51 448.172C158.982 448.172 158.566 448.604 158.566 449.116C158.566 449.628 158.982 450.044 159.51 450.044ZM160.198 459.5V451.5H158.806V459.5H160.198ZM169.074 458.492C169.89 457.676 170.306 456.684 170.306 455.5C170.306 454.316 169.89 453.324 169.074 452.508C168.258 451.692 167.25 451.292 166.082 451.292C164.914 451.292 163.906 451.692 163.09 452.508C162.274 453.324 161.874 454.316 161.874 455.5C161.874 456.684 162.274 457.676 163.09 458.492C163.906 459.308 164.914 459.708 166.082 459.708C167.25 459.708 168.258 459.308 169.074 458.492ZM166.082 458.348C165.298 458.348 164.626 458.076 164.082 457.532C163.538 456.988 163.266 456.316 163.266 455.5C163.266 454.684 163.538 454.012 164.082 453.468C164.626 452.924 165.298 452.652 166.082 452.652C166.882 452.652 167.554 452.924 168.098 453.468C168.642 454.012 168.914 454.684 168.914 455.5C168.914 456.316 168.642 456.988 168.098 457.532C167.554 458.076 166.882 458.348 166.082 458.348ZM175.931 451.292C174.763 451.292 173.899 451.74 173.339 452.652V451.5H171.947V459.5H173.339V455.26C173.339 453.468 174.267 452.62 175.659 452.62C176.891 452.62 177.643 453.372 177.643 454.668V459.5H179.035V454.588C179.035 452.556 177.803 451.292 175.931 451.292Z" fill="#222222"/>
<g opacity="0.8">
<path d="M307.172 455L304.343 452.172L305.757 450.757L310 455L305.757 459.243L304.343 457.828L307.172 455Z" fill="#101010"/>
</g>
<rect x="126.5" y="509" width="90" height="4" rx="2" fill="#C4C4C4"/>
</svg>
