<svg width="183" height="53" viewBox="0 0 183 53" fill="none" xmlns="http://www.w3.org/2000/svg">
<path d="M5.84256 30.0091C4.15823 28.1952 2.89498 26.2031 2.05281 24.0329C1.24304 21.8303 0.838151 19.5792 0.838151 17.2794C0.838151 14.3966 1.43738 11.6757 2.63585 9.11686C3.83432 6.52558 5.48626 4.45256 7.59167 2.89779C9.69709 1.34302 12.0454 0.565637 14.6367 0.565637C16.7097 0.565637 18.8637 1.13248 21.0987 2.26616C22.5239 2.97877 23.5766 3.9505 24.2568 5.18135C24.9694 6.37982 25.3257 7.70785 25.3257 9.16544H21.1959C21.5198 8.19372 21.7627 7.41633 21.9247 6.83329C22.119 6.21787 22.2162 5.60244 22.2162 4.98701C22.2162 3.78854 21.7627 2.99496 20.8558 2.60627C19.8193 2.18519 18.7504 1.97464 17.6491 1.97464C15.1874 1.97464 12.8228 2.94637 10.5554 4.88983C8.28808 6.8009 6.45799 9.26262 5.06518 12.275C3.67236 15.255 2.97596 18.2025 2.97596 21.1177C2.97596 24.7131 4.02866 27.5797 6.13408 29.7175C7.04103 30.6569 8.10993 31.3695 9.34079 31.8553C10.604 32.3412 11.9321 32.5841 13.3249 32.5841C15.5922 32.5841 17.7139 31.9201 19.6897 30.5921C21.698 29.2641 23.1717 27.3368 24.1111 24.8103H27.2692C26.3946 27.7903 24.8399 30.0738 22.6049 31.661C20.4023 33.2482 17.9406 34.0417 15.2198 34.0417C13.4706 34.0417 11.7701 33.7016 10.1182 33.0214C8.49862 32.3088 7.07342 31.3047 5.84256 30.0091ZM48.5026 34.3818C49.28 33.5397 49.6687 31.8715 49.6687 29.3774V18.2997C49.6687 15.676 49.1181 13.7326 48.0168 12.4693C46.9155 11.2061 45.5065 10.5745 43.7897 10.5745C42.2998 10.5745 40.7936 10.9955 39.2712 11.8377C37.7488 12.6475 36.5018 13.7164 35.53 15.0444V29.3774C35.53 31.9687 35.9187 33.6368 36.6961 34.3818H30.6714C31.4488 33.5397 31.8375 31.8715 31.8375 29.3774V5.3757C31.8375 2.75203 31.4488 1.08389 30.6714 0.37129H35.53V14.267C36.6313 12.777 38.0889 11.5948 39.9028 10.7202C41.7167 9.84566 43.5468 9.40838 45.3931 9.40838C47.6929 9.40838 49.5877 10.1372 51.0777 11.5948C52.6001 13.02 53.3613 15.1578 53.3613 18.0082V29.3774C53.3613 31.9687 53.75 33.6368 54.5274 34.3818H48.5026ZM75.6033 34.3818V30.7864C74.6963 32.2116 73.4817 33.2967 71.9593 34.0417C70.4369 34.7543 68.8012 35.1106 67.052 35.1106C65.4001 35.1106 63.8291 34.8029 62.3392 34.1875C60.8816 33.5721 59.6993 32.6975 58.7923 31.5638C57.8854 30.4301 57.4319 29.1183 57.4319 27.6283C57.4319 26.1059 57.8368 24.8427 58.6466 23.8386C59.4564 22.8021 60.4929 21.9599 61.7561 21.3121C63.0518 20.6319 65.0762 19.6925 67.8294 18.4941L75.5547 15.1902C75.3927 13.2791 74.7773 11.8215 73.7084 10.8174C72.6395 9.81327 71.3924 9.31121 69.9672 9.31121C68.9631 9.31121 67.9752 9.57033 67.0035 10.0886C66.0641 10.6068 65.2705 11.368 64.6227 12.3722C64.0073 13.3439 63.6672 14.4938 63.6024 15.8218H59.5211C59.8127 13.6192 60.9463 11.9025 62.9222 10.6716C64.9304 9.44077 67.1978 8.82534 69.7243 8.82534C72.3156 8.82534 74.5344 9.45697 76.3807 10.7202C78.2593 11.9511 79.2311 13.7002 79.2958 15.9676V29.3774C79.2958 31.9687 79.6845 33.6368 80.4619 34.3818H75.6033ZM61.2703 26.8995C61.2703 28.3895 61.5942 29.6851 62.242 30.7864C62.9222 31.8553 63.8129 32.6813 64.9142 33.2643C66.0155 33.815 67.1978 34.0903 68.4611 34.0903C69.8863 34.0903 71.2305 33.7178 72.4937 32.9728C73.7894 32.2278 74.8259 31.1265 75.6033 29.6689V16.1619V15.7246L68.0238 18.9799C66.1775 19.7897 64.8333 20.4375 63.9911 20.9234C63.1813 21.4092 62.5173 22.1218 61.9991 23.0612C61.5132 23.9681 61.2703 25.2476 61.2703 26.8995ZM101.217 34.3818C101.994 33.5397 102.383 31.8715 102.383 29.3774V18.2997C102.383 15.676 101.833 13.7326 100.731 12.4693C99.6299 11.2061 98.2209 10.5745 96.5042 10.5745C95.0142 10.5745 93.508 10.9955 91.9856 11.8377C90.4633 12.6475 89.2162 13.7164 88.2445 15.0444V29.3774C88.2445 31.9687 88.6332 33.6368 89.4106 34.3818H83.3858C84.1632 33.5397 84.5519 31.8715 84.5519 29.3774V15.093C84.5519 12.4693 84.1632 10.8012 83.3858 10.0886H88.2445V14.267C89.3458 12.777 90.8034 11.5948 92.6173 10.7202C94.4312 9.84566 96.2613 9.40838 98.1075 9.40838C100.407 9.40838 102.302 10.1372 103.792 11.5948C105.315 13.02 106.076 15.1578 106.076 18.0082V29.3774C106.076 31.9687 106.464 33.6368 107.242 34.3818H101.217ZM135.12 12.858C133.662 12.0482 132.512 11.6434 131.67 11.6434C130.925 11.6434 130.358 11.9349 129.97 12.5179C131.492 13.6516 132.642 15.0282 133.419 16.6478C134.197 18.2349 134.585 19.9355 134.585 21.7493C134.585 23.6604 134.148 25.5229 133.274 27.3368C132.529 28.924 131.508 30.252 130.213 31.3209C128.949 32.3898 127.524 33.151 125.937 33.6045C125.03 34.0579 123.913 34.3656 122.585 34.5276C121.289 34.6896 119.686 34.8029 117.774 34.8677C117.386 34.9001 116.77 34.9325 115.928 34.9649C115.118 35.0297 114.454 35.0944 113.936 35.1592C113.191 35.2888 112.64 35.5155 112.284 35.8394C111.928 36.1957 111.75 36.6168 111.75 37.1027C111.75 37.5238 111.879 37.9448 112.138 38.3659C112.398 38.8194 112.721 39.1595 113.11 39.3862C113.952 39.8721 114.794 40.115 115.637 40.115C116.544 40.115 117.548 39.8559 118.649 39.3377C119.75 38.8194 121.03 38.0582 122.487 37.0541C125.079 35.2402 127.297 34.3332 129.144 34.3332C130.472 34.3332 131.492 34.8029 132.205 35.7423C132.917 36.6816 133.274 37.8963 133.274 39.3862C133.274 41.2973 132.755 43.2732 131.719 45.3138C130.682 47.3544 129.176 49.055 127.2 50.4154C125.224 51.8082 122.941 52.5046 120.35 52.5046C118.6 52.5046 117.062 52.0673 115.734 51.1928C114.406 50.3506 113.402 49.1845 112.721 47.6945C112.041 46.2369 111.75 44.6498 111.847 42.9331H112.187C112.025 45.3624 112.64 47.1763 114.033 48.3747C115.458 49.5732 117.37 50.1724 119.766 50.1724C121.904 50.1724 123.783 49.5732 125.403 48.3747C127.022 47.2087 128.253 45.7511 129.095 44.002C129.97 42.2528 130.407 40.6009 130.407 39.0461C130.407 37.9448 130.164 37.0379 129.678 36.3253C129.192 35.6451 128.496 35.305 127.589 35.305C126.228 35.305 124.609 36.0014 122.73 37.3942C122.147 37.8477 121.71 38.1716 121.418 38.3659C119.572 39.7264 118.098 40.7143 116.997 41.3297C115.928 41.9451 114.843 42.2528 113.742 42.2528C112.997 42.2528 112.252 42.0909 111.507 41.767C110.762 41.4755 110.179 41.0382 109.758 40.4551C109.369 39.9045 109.175 39.3053 109.175 38.6574C109.175 37.6857 109.58 36.8112 110.389 36.0338C111.231 35.2888 112.381 34.8353 113.839 34.6734C114.39 34.6086 115.054 34.56 115.831 34.5276C116.608 34.4952 117.159 34.479 117.483 34.479C117.807 34.4466 118.552 34.4142 119.718 34.3818C120.916 34.3171 121.969 34.2037 122.876 34.0417C121.289 34.1065 119.669 33.815 118.017 33.1672C116.754 32.6813 115.556 31.9363 114.422 30.9322C113.321 29.8957 112.414 28.6486 111.701 27.191C111.021 25.701 110.681 24.0977 110.681 22.381C110.681 20.9234 110.94 19.4658 111.458 18.0082C112.333 15.4493 113.774 13.4734 115.782 12.0806C117.791 10.6878 120.026 9.99142 122.487 9.99142C124.722 9.99142 126.812 10.5583 128.755 11.6919L129.678 12.275C130.067 11.1089 130.537 10.1696 131.087 9.45697C131.638 8.74436 132.431 8.38806 133.468 8.38806C133.921 8.38806 134.472 8.48523 135.12 8.67958V12.858ZM130.213 25.7334C131.249 23.4661 131.767 21.3445 131.767 19.3686C131.767 17.7167 131.427 16.2753 130.747 15.0444C130.099 13.7812 129.208 12.8094 128.075 12.1292C126.973 11.449 125.759 11.1089 124.431 11.1089C122.552 11.1089 120.738 11.8215 118.989 13.2467C117.24 14.6395 115.831 16.7287 114.762 19.5144C113.985 21.5874 113.596 23.4661 113.596 25.1504C113.596 26.8023 113.904 28.2437 114.519 29.4746C115.167 30.7055 116.025 31.661 117.094 32.3412C118.196 32.989 119.394 33.3129 120.69 33.3129C122.471 33.3129 124.22 32.6813 125.937 31.4181C127.654 30.1224 129.079 28.2275 130.213 25.7334ZM141.835 22.2352C141.706 22.9154 141.641 23.6766 141.641 24.5188C141.641 26.3975 142.03 28.0656 142.807 29.5232C143.617 30.9484 144.686 31.9849 146.014 32.6327C147.18 33.1834 148.411 33.4587 149.706 33.4587C151.196 33.4587 152.654 33.1024 154.079 32.3898C155.537 31.6772 156.816 30.6245 157.918 29.2317H160.687C159.521 30.754 158.047 31.9363 156.266 32.7785C154.516 33.6206 152.638 34.0417 150.63 34.0417C149.01 34.0417 147.423 33.7502 145.868 33.1672C144.605 32.6813 143.406 31.9363 142.273 30.9322C141.171 29.8957 140.264 28.6486 139.552 27.191C138.872 25.701 138.532 24.0977 138.532 22.381C138.532 20.9234 138.791 19.4658 139.309 18.0082C140.216 15.3845 141.722 13.4087 143.827 12.0806C145.965 10.7526 148.297 10.0886 150.824 10.0886C152.638 10.0886 154.338 10.4125 155.925 11.0603C157.772 11.7729 159.229 13.0524 160.298 14.8987C161.4 16.7449 161.95 18.8018 161.95 21.0691C161.95 21.5874 161.934 21.9761 161.902 22.2352H141.835ZM142.613 19.5144C142.354 20.1298 142.143 20.8424 141.981 21.6522H158.063C158.42 20.065 158.598 18.7208 158.598 17.6195C158.598 16.0647 158.322 14.7691 157.772 13.7326C157.221 12.6637 156.476 11.9025 155.537 11.449C154.889 11.1251 154.128 10.9631 153.253 10.9631C151.99 10.9631 150.646 11.3194 149.221 12.032C147.828 12.7447 146.532 13.765 145.334 15.093C144.135 16.3886 143.228 17.8624 142.613 19.5144ZM172.13 34.2361C171.45 34.2037 170.705 34.0903 169.895 33.896C169.053 33.7664 168.519 33.7016 168.292 33.7016C167.871 33.7016 167.515 33.7664 167.223 33.896L165.328 26.3651L165.522 26.2679C165.976 27.434 166.818 28.4705 168.049 29.3774C169.312 30.2844 170.737 30.997 172.325 31.5152C173.944 32.0011 175.483 32.244 176.94 32.244C178.495 32.244 179.758 31.9525 180.73 31.3695C181.734 30.7864 182.236 29.8957 182.236 28.6972C182.236 27.9198 181.928 27.2558 181.313 26.7052C180.73 26.1221 180.001 25.6525 179.127 25.2962C178.252 24.9399 177.021 24.5026 175.434 23.9843C173.361 23.3365 171.661 22.7211 170.333 22.138C169.004 21.5226 167.871 20.6804 166.931 19.6115C165.992 18.5102 165.522 17.1336 165.522 15.4817C165.522 13.3763 166.219 11.7891 167.612 10.7202C169.037 9.61892 171.013 9.06827 173.539 9.06827C173.896 9.06827 174.495 9.10066 175.337 9.16544L176.989 9.35979C177.896 9.52175 178.641 9.60272 179.224 9.60272C179.904 9.60272 180.39 9.45696 180.681 9.16544L182.333 15.9676L182.139 16.0647C181.815 15.093 181.086 14.2184 179.953 13.4411C178.819 12.6313 177.475 11.9997 175.92 11.5462C174.398 11.0603 172.924 10.8174 171.499 10.8174C169.879 10.8174 168.551 11.1413 167.515 11.7891C166.51 12.4045 166.008 13.3601 166.008 14.6557C166.008 15.8542 166.591 16.7935 167.757 17.4737C168.956 18.1216 170.77 18.8018 173.199 19.5144C175.337 20.1946 177.054 20.8262 178.349 21.4092C179.645 21.9599 180.73 22.7535 181.605 23.79C182.512 24.8265 182.916 26.1383 182.819 27.7255C182.69 30.0252 181.961 31.7096 180.633 32.7785C179.337 33.815 177.232 34.3332 174.317 34.3332C173.896 34.3332 173.167 34.3009 172.13 34.2361Z" fill="#2D1A06"/>
</svg>
