<svg width="250" height="35" viewBox="0 0 250 35" fill="none" xmlns="http://www.w3.org/2000/svg">
<path d="M5.68388 30.6272C3.99954 28.8133 2.7363 26.8213 1.89413 24.6511C1.08435 22.4485 0.679467 20.1973 0.679467 17.8976C0.679467 15.0148 1.2787 12.2939 2.47717 9.73502C3.67563 7.14374 5.32758 5.07072 7.43299 3.51595C9.5384 1.96119 11.8868 1.1838 14.478 1.1838C16.5511 1.1838 18.7051 1.75064 20.94 2.88433C22.3652 3.59693 23.4179 4.56866 24.0982 5.79952C24.8108 6.99799 25.1671 8.32602 25.1671 9.78361H21.0372C21.3611 8.81188 21.6041 8.0345 21.766 7.45146C21.9604 6.83603 22.0575 6.2206 22.0575 5.60517C22.0575 4.40671 21.6041 3.61313 20.6971 3.22443C19.6606 2.80335 18.5917 2.59281 17.4904 2.59281C15.0287 2.59281 12.6641 3.56454 10.3968 5.508C8.1294 7.41907 6.2993 9.88078 4.90649 12.8931C3.51368 15.8731 2.81727 18.8207 2.81727 21.7359C2.81727 25.3313 3.86998 28.1979 5.97539 30.3357C6.88234 31.275 7.95125 31.9876 9.1821 32.4735C10.4454 32.9594 11.7734 33.2023 13.1662 33.2023C15.4336 33.2023 17.5552 32.5383 19.531 31.2103C21.5393 29.8822 23.0131 27.955 23.9524 25.4285H27.1105C26.236 28.4084 24.6812 30.692 22.4462 32.2792C20.2436 33.8663 17.7819 34.6599 15.0611 34.6599C13.312 34.6599 11.6114 34.3198 9.95949 33.6396C8.33994 32.927 6.91473 31.9229 5.68388 30.6272ZM38.3351 33.7853C37.0719 33.2995 35.8734 32.5545 34.7397 31.5504C33.6384 30.5138 32.7315 29.2668 32.0189 27.8092C31.3387 26.3192 30.9986 24.7159 30.9986 22.9991C30.9986 21.5415 31.2577 20.0839 31.776 18.6264C32.6505 16.0675 34.0919 14.0916 36.1002 12.6988C38.1084 11.306 40.3434 10.6096 42.8051 10.6096C45.0401 10.6096 47.1293 11.1764 49.0728 12.3101C50.9838 13.4114 52.4252 14.8528 53.397 16.6343C54.4011 18.3834 54.9031 20.2783 54.9031 22.3189C54.9031 24.2624 54.4659 26.1411 53.5913 27.955C52.5872 30.0604 51.1458 31.7123 49.2671 32.9108C47.3884 34.0769 45.3154 34.6599 43.048 34.6599C41.4609 34.6599 39.8899 34.3684 38.3351 33.7853ZM38.4323 33.3481C39.1449 33.7044 39.9871 33.8825 40.9588 33.8825C42.7403 33.8825 44.5056 33.2185 46.2547 31.8905C48.0362 30.53 49.4614 28.6838 50.5303 26.3516C51.5021 24.149 51.9879 22.0112 51.9879 19.9382C51.9879 18.3186 51.7126 16.8772 51.162 15.614C50.6113 14.3507 49.8339 13.3952 48.8298 12.7474C47.7933 12.0348 46.5786 11.6785 45.1858 11.6785C43.2424 11.6785 41.3313 12.4073 39.4526 13.8649C37.5739 15.3225 36.1164 17.4117 35.0798 20.1325C34.3996 21.8493 34.0595 23.5822 34.0595 25.3313C34.0595 27.21 34.4644 28.8619 35.2742 30.2871C36.084 31.7123 37.1367 32.7326 38.4323 33.3481ZM76.1483 35C76.9257 34.1578 77.3144 32.4897 77.3144 29.9956V18.9179C77.3144 16.2942 76.7638 14.3507 75.6625 13.0875C74.5612 11.8242 73.1522 11.1926 71.4354 11.1926C69.9455 11.1926 68.4393 11.6137 66.9169 12.4559C65.3945 13.2656 64.1475 14.3345 63.1757 15.6626V29.9956C63.1757 32.5869 63.5644 34.255 64.3418 35H58.3171C59.0945 34.1578 59.4832 32.4897 59.4832 29.9956V15.7112C59.4832 13.0875 59.0945 11.4194 58.3171 10.7068H63.1757V14.8852C64.277 13.3952 65.7346 12.2129 67.5485 11.3384C69.3624 10.4638 71.1925 10.0265 73.0388 10.0265C75.3386 10.0265 77.2334 10.7553 78.7234 12.2129C80.2458 13.6381 81.007 15.7759 81.007 18.6264V29.9956C81.007 32.5869 81.3957 34.255 82.1731 35H76.1483ZM92.9 33.7853C91.6368 33.2995 90.4383 32.5545 89.3046 31.5504C88.2034 30.5138 87.2964 29.2668 86.5838 27.8092C85.9036 26.3192 85.5635 24.7159 85.5635 22.9991C85.5635 21.5415 85.8226 20.0839 86.3409 18.6264C87.2478 16.0351 88.7702 14.0592 90.908 12.6988C93.0458 11.3384 95.378 10.6582 97.9045 10.6582C99.7184 10.6582 101.403 10.9983 102.957 11.6785C104.674 12.4559 106.067 13.5086 107.136 14.8366C108.205 16.1322 108.804 17.3307 108.934 18.432L105.29 17.2173C105.354 16.9582 105.387 16.5695 105.387 16.0513C105.387 14.6908 104.901 13.6219 103.929 12.8446C102.957 12.0348 101.727 11.6299 100.237 11.6299C98.196 11.6299 96.1715 12.3587 94.1633 13.8163C92.1874 15.2415 90.6813 17.3469 89.6448 20.1325C88.9321 22.0436 88.5758 23.8251 88.5758 25.477C88.5758 27.2262 88.9483 28.7485 89.6933 30.0442C90.4383 31.3398 91.4425 32.3277 92.7057 33.008C93.9689 33.6882 95.3294 34.0283 96.787 34.0283C98.2446 34.0283 99.686 33.6882 101.111 33.008C102.569 32.2954 103.848 31.2426 104.949 29.8498H107.719C106.553 31.3722 105.079 32.5545 103.298 33.3966C101.548 34.2388 99.6698 34.6599 97.6615 34.6599C96.042 34.6599 94.4548 34.3684 92.9 33.7853ZM111.838 35C112.616 34.1578 113.004 32.4897 113.004 29.9956V5.99386C113.004 3.37019 112.616 1.70206 111.838 0.989454H116.697V29.9956C116.697 32.5869 117.085 34.255 117.863 35H111.838ZM139.756 34.3198V30.1414C138.654 31.6313 137.197 32.8136 135.383 33.6882C133.569 34.5627 131.739 35 129.893 35C127.593 35 125.682 34.2874 124.159 32.8622C122.669 31.4046 121.924 29.2506 121.924 26.4002V15.7112C121.924 13.0875 121.536 11.4194 120.758 10.7068H125.617V26.1087C125.617 28.7323 126.168 30.6758 127.269 31.9391C128.37 33.2023 129.779 33.8339 131.496 33.8339C132.986 33.8339 134.492 33.429 136.014 32.6193C137.537 31.7771 138.784 30.692 139.756 29.364V15.7112C139.756 13.0875 139.367 11.4194 138.59 10.7068H143.448V29.3154C143.448 31.9067 143.837 33.5748 144.614 34.3198H139.756ZM154.321 34.8542C153.641 34.8218 152.896 34.7085 152.086 34.5141C151.244 34.3846 150.709 34.3198 150.483 34.3198C150.062 34.3198 149.705 34.3846 149.414 34.5141L147.519 26.9832L147.713 26.8861C148.167 28.0521 149.009 29.0886 150.24 29.9956C151.503 30.9025 152.928 31.6151 154.515 32.1334C156.135 32.6193 157.673 32.8622 159.131 32.8622C160.686 32.8622 161.949 32.5707 162.921 31.9876C163.925 31.4046 164.427 30.5138 164.427 29.3154C164.427 28.538 164.119 27.874 163.504 27.3233C162.921 26.7403 162.192 26.2706 161.317 25.9143C160.443 25.558 159.212 25.1207 157.625 24.6025C155.552 23.9547 153.851 23.3392 152.523 22.7562C151.195 22.1408 150.062 21.2986 149.122 20.2297C148.183 19.1284 147.713 17.7518 147.713 16.0999C147.713 13.9944 148.41 12.4073 149.802 11.3384C151.228 10.2371 153.203 9.68644 155.73 9.68644C156.086 9.68644 156.686 9.71883 157.528 9.78361L159.18 9.97796C160.087 10.1399 160.832 10.2209 161.415 10.2209C162.095 10.2209 162.581 10.0751 162.872 9.78361L164.524 16.5857L164.33 16.6829C164.006 15.7112 163.277 14.8366 162.143 14.0592C161.01 13.2494 159.665 12.6178 158.111 12.1643C156.588 11.6785 155.115 11.4356 153.689 11.4356C152.07 11.4356 150.742 11.7595 149.705 12.4073C148.701 13.0227 148.199 13.9782 148.199 15.2739C148.199 16.4724 148.782 17.4117 149.948 18.0919C151.147 18.7397 152.961 19.4199 155.39 20.1325C157.528 20.8127 159.244 21.4444 160.54 22.0274C161.836 22.5781 162.921 23.3716 163.795 24.4081C164.702 25.4447 165.107 26.7565 165.01 28.3437C164.88 30.6434 164.152 32.3277 162.824 33.3966C161.528 34.4332 159.423 34.9514 156.507 34.9514C156.086 34.9514 155.357 34.919 154.321 34.8542ZM170.642 5.45941C170.027 5.45941 169.492 5.24887 169.039 4.82779C168.618 4.37431 168.407 3.83986 168.407 3.22443C168.407 2.609 168.618 2.09075 169.039 1.66967C169.492 1.21619 170.027 0.989454 170.642 0.989454C171.258 0.989454 171.776 1.21619 172.197 1.66967C172.65 2.09075 172.877 2.609 172.877 3.22443C172.877 3.83986 172.65 4.37431 172.197 4.82779C171.776 5.24887 171.258 5.45941 170.642 5.45941ZM167.921 35C168.699 34.1578 169.087 32.4897 169.087 29.9956V15.7112C169.087 13.0875 168.699 11.4194 167.921 10.7068H172.78V29.9956C172.78 32.5869 173.169 34.255 173.946 35H167.921ZM184.664 33.7853C183.401 33.2995 182.202 32.5545 181.069 31.5504C179.967 30.5138 179.06 29.2668 178.348 27.8092C177.668 26.3192 177.327 24.7159 177.327 22.9991C177.327 21.5415 177.587 20.0839 178.105 18.6264C178.979 16.0675 180.421 14.0916 182.429 12.6988C184.437 11.306 186.672 10.6096 189.134 10.6096C191.369 10.6096 193.458 11.1764 195.402 12.3101C197.313 13.4114 198.754 14.8528 199.726 16.6343C200.73 18.3834 201.232 20.2783 201.232 22.3189C201.232 24.2624 200.795 26.1411 199.92 27.955C198.916 30.0604 197.475 31.7123 195.596 32.9108C193.717 34.0769 191.644 34.6599 189.377 34.6599C187.79 34.6599 186.219 34.3684 184.664 33.7853ZM184.761 33.3481C185.474 33.7044 186.316 33.8825 187.288 33.8825C189.069 33.8825 190.834 33.2185 192.584 31.8905C194.365 30.53 195.79 28.6838 196.859 26.3516C197.831 24.149 198.317 22.0112 198.317 19.9382C198.317 18.3186 198.041 16.8772 197.491 15.614C196.94 14.3507 196.163 13.3952 195.159 12.7474C194.122 12.0348 192.907 11.6785 191.515 11.6785C189.571 11.6785 187.66 12.4073 185.781 13.8649C183.903 15.3225 182.445 17.4117 181.409 20.1325C180.728 21.8493 180.388 23.5822 180.388 25.3313C180.388 27.21 180.793 28.8619 181.603 30.2871C182.413 31.7123 183.466 32.7326 184.761 33.3481ZM222.477 35C223.255 34.1578 223.643 32.4897 223.643 29.9956V18.9179C223.643 16.2942 223.093 14.3507 221.991 13.0875C220.89 11.8242 219.481 11.1926 217.764 11.1926C216.274 11.1926 214.768 11.6137 213.246 12.4559C211.723 13.2656 210.476 14.3345 209.505 15.6626V29.9956C209.505 32.5869 209.893 34.255 210.671 35H204.646C205.423 34.1578 205.812 32.4897 205.812 29.9956V15.7112C205.812 13.0875 205.423 11.4194 204.646 10.7068H209.505V14.8852C210.606 13.3952 212.063 12.2129 213.877 11.3384C215.691 10.4638 217.521 10.0265 219.368 10.0265C221.667 10.0265 223.562 10.7553 225.052 12.2129C226.575 13.6381 227.336 15.7759 227.336 18.6264V29.9956C227.336 32.5869 227.725 34.255 228.502 35H222.477ZM238.209 34.8542C237.528 34.8218 236.783 34.7085 235.974 34.5141C235.131 34.3846 234.597 34.3198 234.37 34.3198C233.949 34.3198 233.593 34.3846 233.301 34.5141L231.406 26.9832L231.601 26.8861C232.054 28.0521 232.896 29.0886 234.127 29.9956C235.391 30.9025 236.816 31.6151 238.403 32.1334C240.022 32.6193 241.561 32.8622 243.019 32.8622C244.573 32.8622 245.837 32.5707 246.808 31.9876C247.813 31.4046 248.315 30.5138 248.315 29.3154C248.315 28.538 248.007 27.874 247.391 27.3233C246.808 26.7403 246.08 26.2706 245.205 25.9143C244.33 25.558 243.1 25.1207 241.512 24.6025C239.439 23.9547 237.739 23.3392 236.411 22.7562C235.083 22.1408 233.949 21.2986 233.01 20.2297C232.07 19.1284 231.601 17.7518 231.601 16.0999C231.601 13.9944 232.297 12.4073 233.69 11.3384C235.115 10.2371 237.091 9.68644 239.618 9.68644C239.974 9.68644 240.573 9.71883 241.415 9.78361L243.067 9.97796C243.974 10.1399 244.719 10.2209 245.302 10.2209C245.982 10.2209 246.468 10.0751 246.76 9.78361L248.412 16.5857L248.217 16.6829C247.893 15.7112 247.165 14.8366 246.031 14.0592C244.897 13.2494 243.553 12.6178 241.998 12.1643C240.476 11.6785 239.002 11.4356 237.577 11.4356C235.957 11.4356 234.629 11.7595 233.593 12.4073C232.589 13.0227 232.087 13.9782 232.087 15.2739C232.087 16.4724 232.67 17.4117 233.836 18.0919C235.034 18.7397 236.848 19.4199 239.277 20.1325C241.415 20.8127 243.132 21.4444 244.428 22.0274C245.723 22.5781 246.808 23.3716 247.683 24.4081C248.59 25.4447 248.995 26.7565 248.898 28.3437C248.768 30.6434 248.039 32.3277 246.711 33.3966C245.416 34.4332 243.31 34.9514 240.395 34.9514C239.974 34.9514 239.245 34.919 238.209 34.8542Z" fill="#F9F3DF"/>
</svg>
