<svg width="595" height="24" viewBox="0 0 595 24" fill="none" xmlns="http://www.w3.org/2000/svg">
<path d="M9.46783 1.25548C8.02399 1.25548 6.76063 1.49612 5.64767 1.9774C4.53471 2.4286 3.60223 3.09036 2.85024 3.90252C2.09824 4.71468 1.52672 5.64716 1.13568 6.73004C0.744638 7.843 0.564158 8.98603 0.564158 10.2193C0.564158 11.4827 0.744638 12.6257 1.1056 13.7086C1.46656 14.7915 2.008 15.7239 2.72992 16.5361C3.45183 17.3182 4.35423 17.9499 5.43711 18.4011C6.51999 18.8523 7.81343 19.0628 9.25727 19.0628C11.6637 19.0628 13.5587 18.4913 14.9725 17.2881C16.3561 16.0849 17.1683 14.2801 17.4089 12.1444H14.9123C14.8521 12.8363 14.7017 13.6484 14.431 14.25C14.1603 14.8516 13.7993 15.363 13.3481 15.8142C12.8669 16.2353 12.3254 16.5662 11.6637 16.8369C11.032 17.0775 10.3101 17.1979 9.46783 17.1979C8.35487 17.1979 7.39231 17.0174 6.58015 16.6263C5.76799 16.2353 5.10623 15.7239 4.59487 15.0923C4.05343 14.4305 3.69247 13.6785 3.45183 12.8062C3.18112 11.964 3.0608 11.0315 3.0608 10.0689C3.0608 9.16651 3.18112 8.32428 3.45183 7.48204C3.69247 6.66988 4.05343 5.91788 4.59487 5.2862C5.10623 4.65452 5.76799 4.14316 6.55007 3.75212C7.36223 3.36108 8.32479 3.1806 9.43775 3.1806C9.43775 3.1806 14.1001 2.81964 15.1229 8.1438H17.6195C16.5667 0.954685 9.46783 1.25548 9.46783 1.25548ZM19.4807 12.2648C19.4807 13.2273 19.6311 14.1297 19.9319 14.9419C20.2026 15.7841 20.6538 16.506 21.2554 17.1076C21.8269 17.7393 22.5489 18.2206 23.4212 18.5515C24.2634 18.9124 25.256 19.0628 26.3991 19.0628C27.512 19.0628 28.5047 18.9124 29.377 18.5515C30.2192 18.2206 30.9412 17.7393 31.5428 17.1076C32.1143 16.506 32.5655 15.7841 32.8663 14.9419C33.137 14.1297 33.2874 13.2273 33.2874 12.2648C33.2874 11.3022 33.137 10.3998 32.8663 9.58763C32.5655 8.74539 32.1143 8.02348 31.5428 7.3918C30.9412 6.7902 30.2192 6.30892 29.377 5.94796C28.5047 5.587 27.512 5.40652 26.3991 5.40652C25.256 5.40652 24.2634 5.587 23.4212 5.94796C22.5489 6.30892 21.8269 6.7902 21.2554 7.3918C20.6538 8.02348 20.2026 8.74539 19.9319 9.58763C19.6311 10.3998 19.4807 11.3022 19.4807 12.2648ZM21.9473 12.2648C21.9473 11.4827 22.0676 10.7608 22.3082 10.1592C22.5188 9.52747 22.8497 9.01611 23.2407 8.595C23.6618 8.17388 24.113 7.843 24.6544 7.63244C25.1959 7.42188 25.7674 7.30156 26.3991 7.30156C27.0007 7.30156 27.5722 7.42188 28.1136 7.63244C28.6551 7.843 29.1063 8.17388 29.5274 8.595C29.9184 9.01611 30.2493 9.52747 30.4599 10.1592C30.7005 10.7608 30.8208 11.4827 30.8208 12.2648C30.8208 13.0468 30.7005 13.7687 30.4599 14.3703C30.2493 15.002 29.9184 15.5134 29.5274 15.9345C29.1063 16.3255 28.6551 16.6564 28.1136 16.867C27.5722 17.0775 27.0007 17.1979 26.3991 17.1979C25.7674 17.1979 25.1959 17.0775 24.6544 16.867C24.113 16.6564 23.6618 16.3255 23.2407 15.9345C22.8497 15.5134 22.5188 15.002 22.3082 14.3703C22.0676 13.7687 21.9473 13.0468 21.9473 12.2648ZM35.1397 5.82764V23.6651H37.4558V16.9873H37.516C37.8769 17.7092 38.4785 18.2507 39.3208 18.5815C40.1329 18.9124 41.0353 19.0628 41.9979 19.0628C43.0808 19.0628 44.0433 18.8823 44.8555 18.5214C45.6677 18.1303 46.3294 17.619 46.8709 16.9873C47.4123 16.3556 47.8033 15.6337 48.0741 14.7915C48.3448 13.9793 48.4952 13.0769 48.4952 12.1444C48.4952 11.212 48.3448 10.3396 48.1041 9.52747C47.8334 8.68523 47.4424 7.96332 46.9009 7.33164C46.3595 6.73004 45.6977 6.24876 44.8856 5.8878C44.0734 5.52684 43.1409 5.34636 42.0581 5.34636C41.7272 5.34636 41.3361 5.37644 40.915 5.4366C40.4638 5.52684 40.0427 5.61708 39.6216 5.76748C39.2305 5.91788 38.8094 6.12844 38.4485 6.39916C38.0875 6.66988 37.7566 7.00076 37.516 7.3918H37.4558V5.82764H35.1397ZM45.788 14.0996C45.6075 14.6711 45.3368 15.2126 44.9758 15.6638C44.6449 16.115 44.1937 16.4759 43.6222 16.7467C43.0808 17.0174 42.419 17.1678 41.667 17.1678C40.8849 17.1678 40.2232 17.0174 39.6817 16.7166C39.1403 16.4459 38.6891 16.0548 38.3582 15.6036C37.9973 15.1223 37.7566 14.611 37.6062 14.0094C37.4558 13.4078 37.3656 12.8062 37.3656 12.2046C37.3656 11.5729 37.4558 10.9412 37.6062 10.3396C37.7867 9.73803 38.0273 9.19659 38.3883 8.74539C38.7493 8.2942 39.2005 7.93324 39.772 7.63244C40.3435 7.36172 41.0053 7.21132 41.8174 7.21132C42.5995 7.21132 43.2913 7.36172 43.8027 7.66252C44.3441 7.93324 44.7953 8.32428 45.0961 8.80555C45.427 9.28683 45.6677 9.82827 45.8181 10.4299C45.9685 11.0315 46.0286 11.6632 46.0286 12.2948C46.0286 12.9265 45.9384 13.5281 45.788 14.0996ZM50.0027 21.8903V23.6049C50.7848 23.6651 51.5067 23.6651 51.5067 23.6651C51.988 23.6651 52.4091 23.6049 52.77 23.4846C53.131 23.3643 53.4619 23.1838 53.7627 22.9131C54.0635 22.6423 54.3342 22.2814 54.6049 21.8603C54.8456 21.4391 55.0862 20.8977 55.3569 20.266L61.0721 5.82764H58.786L55.0862 16.2654H55.026L51.1758 5.82764H48.7393L53.9732 18.4913L53.0708 20.6571C52.9204 21.018 52.7099 21.3188 52.4091 21.5294C52.4091 21.5294 51.9278 21.9806 50.0027 21.8903ZM72.1928 7.66252V5.61708C71.5009 5.34636 70.7489 5.34636 69.8165 5.34636C69.3953 5.34636 68.9742 5.37644 68.523 5.46668C68.0718 5.55692 67.6507 5.67724 67.2296 5.85772C66.8385 6.0382 66.4475 6.24876 66.1166 6.51948C65.7857 6.7902 65.5451 7.15116 65.3646 7.5422H65.3045V5.82764H62.9883V18.5815H65.3045V11.2721C65.3045 10.7006 65.3947 10.1592 65.5752 9.64779C65.7557 9.16651 65.9963 8.74539 66.3573 8.38444C66.6881 7.9934 67.1393 7.72268 67.6507 7.51212C68.1621 7.33164 68.7637 7.21132 69.4856 7.21132C70.388 7.21132 71.5611 7.33164 72.1928 7.66252ZM76.0122 4.2334V1.91724H73.6961V4.2334H76.0122ZM76.0122 5.79756H73.6961V18.5815H76.0122V5.79756ZM91.4926 17.3783V5.82764H89.2065V7.48204H89.1764C88.7553 6.76012 88.1537 6.24876 87.3716 5.8878C86.5896 5.52684 85.7473 5.34636 84.8148 5.34636C83.5515 5.34636 82.4686 5.55692 81.5963 5.97804C80.724 6.39916 80.0321 6.9406 79.4907 7.60236C78.9793 8.23404 78.5883 8.98603 78.3476 9.76811C78.1371 10.5803 78.0168 11.3624 78.0168 12.1144C78.0168 13.0167 78.1672 13.8289 78.4379 14.611C78.7086 15.3931 79.1297 16.0849 79.6712 16.6865C80.2126 17.258 80.9044 17.7393 81.7166 18.1003C82.5288 18.4311 83.4913 18.6116 84.5742 18.6116C85.5368 18.6116 86.4392 18.4311 87.2814 18.0401C88.1236 17.6791 88.7553 17.0775 89.1464 16.2955H89.2065V17.1377C89.2065 17.8596 89.1464 18.5214 88.9659 19.0929C88.8155 19.6945 88.5448 20.2059 88.1838 20.627C87.8228 21.0481 87.3716 21.379 86.8302 21.6196C86.2888 21.8603 85.5969 21.9806 84.8148 21.9806C84.4238 21.9806 84.0027 21.9505 83.5515 21.8603C83.1304 21.8001 82.7092 21.6798 82.3483 21.4993C81.9873 21.3489 81.6564 21.1383 81.4158 20.8676C80.9044 20.266 80.8142 19.7547 80.8142 19.3937H78.3777C78.4379 20.0855 78.7387 20.9879 79.22 21.6497C79.5508 22.1611 80.0622 22.522 80.6337 22.8228C81.2353 23.1236 81.867 23.3342 82.5889 23.4846C83.2808 23.6049 83.9726 23.6651 84.6644 23.6651C87.0107 23.6651 88.7553 23.1537 89.8382 22.1009C90.9512 21.0782 91.4926 19.4839 91.4926 17.3783ZM84.7246 16.7767C83.9425 16.7767 83.2808 16.6263 82.7393 16.3255C82.1979 16.0548 81.7768 15.6638 81.4459 15.1825C81.1451 14.7313 80.9044 14.1899 80.7841 13.6183C80.6337 13.0468 80.5736 12.4452 80.5736 11.8737C80.5736 11.2721 80.6638 10.6705 80.8142 10.099C80.9646 9.55755 81.2353 9.0462 81.5963 8.62507C81.9272 8.20396 82.3784 7.843 82.9499 7.60236C83.4913 7.33164 84.1531 7.21132 84.9352 7.21132C85.6872 7.21132 86.3188 7.33164 86.8603 7.60236C87.4017 7.87308 87.8228 8.23404 88.1537 8.65516C88.4846 9.10635 88.7252 9.58763 88.8756 10.1291C89.026 10.6705 89.1163 11.242 89.1163 11.8136C89.1163 12.3851 89.026 12.9867 88.8756 13.5883C88.6952 14.1899 88.4545 14.7313 88.1236 15.1825C87.7627 15.6638 87.3115 16.0548 86.77 16.3255C86.1985 16.6263 85.5368 16.7767 84.7246 16.7767ZM96.3702 1.25548H94.0541V18.5815H96.3702V11.242C96.3702 10.6705 96.4605 10.1291 96.641 9.64779C96.8214 9.13643 97.0621 8.71532 97.423 8.35436C97.7539 7.9934 98.2051 7.6926 98.7165 7.51212C99.2278 7.30156 99.8294 7.21132 100.551 7.21132C101.454 7.21132 102.146 7.42188 102.657 7.90316C103.168 8.35436 103.409 9.01611 103.409 9.79819V18.5815H105.725V10.0388C105.725 9.34699 105.665 8.71532 105.515 8.1438C105.364 7.57228 105.093 7.06092 104.702 6.6398C104.311 6.21868 103.83 5.91788 103.198 5.67724C102.567 5.4366 101.815 5.31628 100.882 5.31628C100.461 5.31628 100.04 5.34636 99.5888 5.4366C99.1376 5.52684 98.7165 5.64716 98.2954 5.82764C97.9043 6.00812 97.5133 6.21868 97.1824 6.51948C96.8515 6.7902 96.6109 7.12108 96.4304 7.51212H96.3702V1.25548ZM109.91 5.76748H107.564V7.57228H109.91V15.9646C109.91 16.9873 110.241 17.7393 110.903 18.2807C111.535 18.7921 112.497 19.0628 113.761 19.0628C113.971 19.0628 114.212 19.0327 114.513 19.0027C114.783 18.9726 115.024 18.9425 115.235 18.8823V17.0775C115.054 17.1377 114.844 17.1979 114.603 17.1979C114.362 17.2279 114.152 17.258 113.941 17.258C113.4 17.258 112.979 17.1377 112.648 16.9572C112.347 16.7467 112.197 16.3857 112.197 15.8443V7.57228H114.904V5.76748H112.197V1.2254H109.91V5.76748ZM131.804 19.0628H131.834C133.007 19.0628 134.06 18.8523 134.932 18.4913C135.835 18.1003 136.587 17.5588 137.188 16.8971C137.76 16.2353 138.181 15.4532 138.452 14.611C138.722 13.7988 138.843 12.9566 138.843 12.0843C138.843 11.1819 138.692 10.3096 138.391 9.52747C138.061 8.68523 137.609 7.96332 137.008 7.33164C136.376 6.69996 135.624 6.21868 134.752 5.85772C133.91 5.49676 132.917 5.31628 131.834 5.31628H131.804C130.721 5.31628 129.759 5.49676 128.886 5.85772C128.014 6.21868 127.262 6.69996 126.66 7.33164C126.029 7.96332 125.577 8.68523 125.247 9.52747C124.946 10.3096 124.795 11.1819 124.795 12.0843C124.795 12.9566 124.916 13.7988 125.186 14.611C125.457 15.4532 125.878 16.2353 126.48 16.8971C127.051 17.5588 127.803 18.1003 128.706 18.4913C129.578 18.8523 130.631 19.0628 131.804 19.0628ZM131.834 17.4686H131.804C130.871 17.4686 130.029 17.3182 129.367 17.0174C128.646 16.7166 128.074 16.3255 127.623 15.8142C127.172 15.3028 126.841 14.7012 126.63 14.0395C126.45 13.4078 126.329 12.716 126.329 12.0241C126.329 11.3323 126.45 10.6404 126.69 10.0088C126.931 9.37707 127.292 8.80555 127.773 8.32428C128.224 7.843 128.826 7.45196 129.488 7.18124C130.18 6.91052 130.962 6.76012 131.804 6.76012H131.834C132.676 6.76012 133.458 6.91052 134.15 7.18124C134.812 7.45196 135.414 7.843 135.865 8.32428C136.346 8.80555 136.707 9.37707 136.948 10.0088C137.188 10.6404 137.309 11.3323 137.309 12.0241C137.309 12.716 137.218 13.4078 137.008 14.0395C136.797 14.7012 136.466 15.3028 136.015 15.8142C135.564 16.3255 134.992 16.7166 134.301 17.0174C133.609 17.3182 132.767 17.4686 131.834 17.4686ZM134.692 15.6337C135.383 15.0622 135.805 14.1598 135.925 13.0769L135.985 12.716H134.18V13.0167C134.15 13.3175 134.09 13.6484 133.97 13.8891C133.879 14.0996 133.729 14.3102 133.549 14.4907C133.368 14.6711 133.127 14.8215 132.887 14.9118C132.616 15.002 132.315 15.0622 131.984 15.0622C131.503 15.0622 131.112 14.9719 130.781 14.8215C130.45 14.6711 130.18 14.4606 129.969 14.1899C129.759 13.9191 129.578 13.6183 129.488 13.2574C129.367 12.8964 129.337 12.5054 129.337 12.0843C129.337 11.6932 129.367 11.3323 129.488 10.9713C129.578 10.6404 129.759 10.3396 129.969 10.0689C130.18 9.79819 130.45 9.58763 130.751 9.43723C131.082 9.28683 131.503 9.19659 131.954 9.19659H131.984H132.045C132.466 9.19659 133.91 9.34699 134.271 11.242L134.331 11.4827H136.075L136.045 11.1518C135.534 7.81292 132.406 7.72268 132.045 7.72268H131.984C131.263 7.72268 130.631 7.843 130.089 8.05356C129.518 8.2942 129.067 8.62507 128.676 9.01611C128.315 9.40715 128.044 9.88843 127.833 10.4299C127.653 10.9713 127.563 11.5428 127.563 12.1444C127.563 12.746 127.653 13.3175 127.833 13.859C128.014 14.4004 128.285 14.8516 128.646 15.2727C129.007 15.6638 129.458 15.9646 129.999 16.2052C130.541 16.4158 131.172 16.5361 131.864 16.5361C133.067 16.5361 134 16.2353 134.692 15.6337ZM159.527 14.4004V1.55628H157.181V14.0695C157.181 15.002 156.971 15.754 156.58 16.3255C156.158 16.867 155.436 17.1678 154.354 17.1678C153.782 17.1678 153.301 17.0775 152.94 16.8971C152.549 16.7467 152.278 16.506 152.068 16.2052C151.857 15.9044 151.707 15.5435 151.616 15.1223C151.556 14.7012 151.496 14.25 151.496 13.7387V13.0167H149.15V14.0996C149.15 15.7239 149.601 16.9572 150.473 17.7995C151.376 18.6417 152.639 19.0628 154.293 19.0628C155.286 19.0628 156.128 18.9124 156.79 18.6417C157.452 18.4011 157.993 18.0401 158.414 17.5889C158.805 17.1678 159.106 16.6564 159.287 16.0849C159.437 15.5435 159.527 14.9719 159.527 14.4004ZM161.428 12.2648C161.428 13.2273 161.578 14.1297 161.879 14.9419C162.149 15.7841 162.601 16.506 163.202 17.1076C163.774 17.7393 164.496 18.2206 165.368 18.5515C166.21 18.9124 167.203 19.0628 168.346 19.0628C169.459 19.0628 170.452 18.9124 171.324 18.5515C172.166 18.2206 172.888 17.7393 173.49 17.1076C174.061 16.506 174.512 15.7841 174.813 14.9419C175.084 14.1297 175.234 13.2273 175.234 12.2648C175.234 11.3022 175.084 10.3998 174.813 9.58763C174.512 8.74539 174.061 8.02348 173.49 7.3918C172.888 6.7902 172.166 6.30892 171.324 5.94796C170.452 5.587 169.459 5.40652 168.346 5.40652C167.203 5.40652 166.21 5.587 165.368 5.94796C164.496 6.30892 163.774 6.7902 163.202 7.3918C162.601 8.02348 162.149 8.74539 161.879 9.58763C161.578 10.3998 161.428 11.3022 161.428 12.2648ZM163.894 12.2648C163.894 11.4827 164.014 10.7608 164.255 10.1592C164.466 9.52747 164.797 9.01611 165.188 8.595C165.609 8.17388 166.06 7.843 166.601 7.63244C167.143 7.42188 167.714 7.30156 168.346 7.30156C168.948 7.30156 169.519 7.42188 170.061 7.63244C170.602 7.843 171.053 8.17388 171.474 8.595C171.865 9.01611 172.196 9.52747 172.407 10.1592C172.647 10.7608 172.768 11.4827 172.768 12.2648C172.768 13.0468 172.647 13.7687 172.407 14.3703C172.196 15.002 171.865 15.5134 171.474 15.9345C171.053 16.3255 170.602 16.6564 170.061 16.867C169.519 17.0775 168.948 17.1979 168.346 17.1979C167.714 17.1979 167.143 17.0775 166.601 16.867C166.06 16.6564 165.609 16.3255 165.188 15.9345C164.797 15.5134 164.466 15.002 164.255 14.3703C164.014 13.7687 163.894 13.0468 163.894 12.2648ZM179.403 1.25548H177.087V18.5815H179.403V11.242C179.403 10.6705 179.493 10.1291 179.673 9.64779C179.854 9.13643 180.095 8.71532 180.455 8.35436C180.786 7.9934 181.238 7.6926 181.749 7.51212C182.26 7.30156 182.862 7.21132 183.584 7.21132C184.486 7.21132 185.178 7.42188 185.689 7.90316C186.201 8.35436 186.441 9.01611 186.441 9.79819V18.5815H188.758V10.0388C188.758 9.34699 188.697 8.71532 188.547 8.1438C188.397 7.57228 188.126 7.06092 187.735 6.6398C187.344 6.21868 186.863 5.91788 186.231 5.67724C185.599 5.4366 184.847 5.31628 183.915 5.31628C183.494 5.31628 183.072 5.34636 182.621 5.4366C182.17 5.52684 181.749 5.64716 181.328 5.82764C180.937 6.00812 180.546 6.21868 180.215 6.51948C179.884 6.7902 179.643 7.12108 179.463 7.51212H179.403V1.25548ZM193.665 5.79756H191.349V18.5815H193.665V11.242C193.665 10.6705 193.755 10.1291 193.936 9.64779C194.116 9.13643 194.357 8.71532 194.718 8.35436C195.049 7.9934 195.5 7.6926 196.011 7.51212C196.522 7.30156 197.124 7.21132 197.846 7.21132C198.748 7.21132 199.44 7.42188 199.952 7.90316C200.463 8.35436 200.704 8.98603 200.704 9.79819V18.5815H203.02V10.0388C203.02 9.34699 202.96 8.71532 202.809 8.1438C202.659 7.57228 202.388 7.06092 201.997 6.6398C201.606 6.21868 201.125 5.91788 200.493 5.67724C199.861 5.4366 199.109 5.31628 198.177 5.31628C197.756 5.31628 197.335 5.34636 196.883 5.4366C196.432 5.52684 196.011 5.64716 195.59 5.82764C195.199 6.00812 194.808 6.21868 194.477 6.51948C194.146 6.7902 193.905 7.12108 193.725 7.51212H193.665V5.79756ZM225.833 1.55628H213.44V18.5815H225.893V16.6564H215.816V10.7608H225.141V8.86571H215.816V3.45132H225.833V1.55628ZM230.782 1.28556H228.466V18.5815H230.782V17.0475H230.842C231.083 17.4385 231.414 17.7694 231.774 18.01C232.135 18.2807 232.557 18.4913 232.948 18.6417C233.369 18.7921 233.79 18.9124 234.241 18.9726C234.662 19.0327 235.053 19.0628 235.384 19.0628C236.467 19.0628 237.399 18.9124 238.212 18.5515C239.024 18.1905 239.686 17.7092 240.227 17.0775C240.768 16.4759 241.159 15.754 241.43 14.9118C241.671 14.0695 241.821 13.1972 241.821 12.2648C241.821 11.3323 241.671 10.46 241.4 9.61771C241.129 8.80555 240.738 8.05356 240.197 7.42188C239.655 6.7902 238.994 6.27884 238.182 5.91788C237.369 5.55692 236.407 5.34636 235.324 5.34636C234.361 5.34636 233.459 5.52684 232.647 5.85772C231.805 6.1886 231.203 6.69996 230.842 7.45196H230.782V1.28556ZM239.355 12.1144C239.355 12.746 239.294 13.3777 239.144 14.0094C238.994 14.611 238.753 15.1524 238.422 15.6337C238.121 16.0849 237.67 16.4759 237.129 16.7767C236.617 17.0475 235.926 17.1979 235.143 17.1979C234.331 17.1979 233.67 17.0475 233.098 16.7767C232.526 16.506 232.075 16.115 231.714 15.6638C231.353 15.2126 231.113 14.6711 230.932 14.0695C230.782 13.4679 230.692 12.8663 230.692 12.2046C230.692 11.603 230.782 11.0014 230.932 10.3998C231.083 9.82827 231.323 9.28683 231.684 8.83564C232.015 8.35436 232.466 7.9934 233.008 7.6926C233.549 7.3918 234.211 7.27148 234.993 7.27148C235.745 7.27148 236.407 7.3918 236.948 7.66252C237.52 7.93324 237.971 8.2942 238.302 8.77548C238.663 9.22667 238.934 9.73803 239.114 10.3096C239.264 10.9112 239.355 11.5128 239.355 12.1144ZM243.417 12.2648C243.417 13.2273 243.567 14.1297 243.868 14.9419C244.139 15.7841 244.59 16.506 245.191 17.1076C245.763 17.7393 246.485 18.2206 247.357 18.5515C248.199 18.9124 249.192 19.0628 250.335 19.0628C251.448 19.0628 252.441 18.9124 253.313 18.5515C254.155 18.2206 254.877 17.7393 255.479 17.1076C256.05 16.506 256.501 15.7841 256.802 14.9419C257.073 14.1297 257.223 13.2273 257.223 12.2648C257.223 11.3022 257.073 10.3998 256.802 9.58763C256.501 8.74539 256.05 8.02348 255.479 7.3918C254.877 6.7902 254.155 6.30892 253.313 5.94796C252.441 5.587 251.448 5.40652 250.335 5.40652C249.192 5.40652 248.199 5.587 247.357 5.94796C246.485 6.30892 245.763 6.7902 245.191 7.3918C244.59 8.02348 244.139 8.74539 243.868 9.58763C243.567 10.3998 243.417 11.3022 243.417 12.2648ZM245.883 12.2648C245.883 11.4827 246.003 10.7608 246.244 10.1592C246.455 9.52747 246.786 9.01611 247.177 8.595C247.598 8.17388 248.049 7.843 248.59 7.63244C249.132 7.42188 249.703 7.30156 250.335 7.30156C250.937 7.30156 251.508 7.42188 252.05 7.63244C252.591 7.843 253.042 8.17388 253.463 8.595C253.854 9.01611 254.185 9.52747 254.396 10.1592C254.636 10.7608 254.757 11.4827 254.757 12.2648C254.757 13.0468 254.636 13.7687 254.396 14.3703C254.185 15.002 253.854 15.5134 253.463 15.9345C253.042 16.3255 252.591 16.6564 252.05 16.867C251.508 17.0775 250.937 17.1979 250.335 17.1979C249.703 17.1979 249.132 17.0775 248.59 16.867C248.049 16.6564 247.598 16.3255 247.177 15.9345C246.786 15.5134 246.455 15.002 246.244 14.3703C246.003 13.7687 245.883 13.0468 245.883 12.2648ZM261.392 5.79756H259.076V18.5815H261.392V11.242C261.392 10.6705 261.482 10.1291 261.662 9.64779C261.843 9.13643 262.084 8.71532 262.445 8.35436C262.775 7.9934 263.227 7.6926 263.738 7.51212C264.249 7.30156 264.851 7.21132 265.573 7.21132C266.475 7.21132 267.167 7.42188 267.678 7.90316C268.19 8.35436 268.43 8.98603 268.43 9.79819V18.5815H270.747V10.0388C270.747 9.34699 270.686 8.71532 270.536 8.1438C270.386 7.57228 270.115 7.06092 269.724 6.6398C269.333 6.21868 268.852 5.91788 268.22 5.67724C267.588 5.4366 266.836 5.31628 265.904 5.31628C265.483 5.31628 265.061 5.34636 264.61 5.4366C264.159 5.52684 263.738 5.64716 263.317 5.82764C262.926 6.00812 262.535 6.21868 262.204 6.51948C261.873 6.7902 261.632 7.12108 261.452 7.51212H261.392V5.79756ZM286.272 17.3783V5.82764H283.986V7.48204H283.956C283.535 6.76012 282.933 6.24876 282.151 5.8878C281.369 5.52684 280.527 5.34636 279.594 5.34636C278.331 5.34636 277.248 5.55692 276.376 5.97804C275.503 6.39916 274.812 6.9406 274.27 7.60236C273.759 8.23404 273.368 8.98603 273.127 9.76811C272.917 10.5803 272.796 11.3624 272.796 12.1144C272.796 13.0167 272.947 13.8289 273.217 14.611C273.488 15.3931 273.909 16.0849 274.451 16.6865C274.992 17.258 275.684 17.7393 276.496 18.1003C277.308 18.4311 278.271 18.6116 279.354 18.6116C280.316 18.6116 281.219 18.4311 282.061 18.0401C282.903 17.6791 283.535 17.0775 283.926 16.2955H283.986V17.1377C283.986 17.8596 283.926 18.5214 283.745 19.0929C283.595 19.6945 283.324 20.2059 282.963 20.627C282.602 21.0481 282.151 21.379 281.61 21.6196C281.068 21.8603 280.376 21.9806 279.594 21.9806C279.203 21.9806 278.782 21.9505 278.331 21.8603C277.91 21.8001 277.489 21.6798 277.128 21.4993C276.767 21.3489 276.436 21.1383 276.195 20.8676C275.684 20.266 275.594 19.7547 275.594 19.3937H273.157C273.217 20.0855 273.518 20.9879 273.999 21.6497C274.33 22.1611 274.842 22.522 275.413 22.8228C276.015 23.1236 276.647 23.3342 277.368 23.4846C278.06 23.6049 278.752 23.6651 279.444 23.6651C281.79 23.6651 283.535 23.1537 284.618 22.1009C285.731 21.0782 286.272 19.4839 286.272 17.3783ZM279.504 16.7767C278.722 16.7767 278.06 16.6263 277.519 16.3255C276.977 16.0548 276.556 15.6638 276.225 15.1825C275.925 14.7313 275.684 14.1899 275.564 13.6183C275.413 13.0468 275.353 12.4452 275.353 11.8737C275.353 11.2721 275.443 10.6705 275.594 10.099C275.744 9.55755 276.015 9.0462 276.376 8.62507C276.707 8.20396 277.158 7.843 277.729 7.60236C278.271 7.33164 278.933 7.21132 279.715 7.21132C280.467 7.21132 281.098 7.33164 281.64 7.60236C282.181 7.87308 282.602 8.23404 282.933 8.65516C283.264 9.10635 283.505 9.58763 283.655 10.1291C283.806 10.6705 283.896 11.242 283.896 11.8136C283.896 12.3851 283.806 12.9867 283.655 13.5883C283.475 14.1899 283.234 14.7313 282.903 15.1825C282.542 15.6638 282.091 16.0548 281.55 16.3255C280.978 16.6263 280.316 16.7767 279.504 16.7767ZM291.15 16.2052H288.834V18.5214H290.067C290.067 18.7019 290.067 19.0027 290.037 19.1831C290.007 19.3937 289.947 19.6043 289.826 19.7847C289.736 19.9953 289.616 20.1758 289.435 20.3563C289.285 20.5067 289.104 20.627 288.864 20.7172V21.8302C289.676 21.5595 290.247 21.1383 290.608 20.5367C290.969 19.9652 291.15 19.2433 291.15 18.4011V16.2052ZM302.006 7.3918H304.112C304.082 6.88044 304.142 6.36908 304.262 5.85772C304.382 5.34636 304.593 4.86508 304.864 4.47404C305.164 4.05292 305.525 3.72204 305.947 3.4814C306.398 3.21068 306.909 3.09036 307.511 3.09036C307.962 3.09036 308.413 3.1806 308.834 3.331C309.225 3.45132 309.586 3.69196 309.887 3.96268C310.188 4.2334 310.428 4.56428 310.609 4.95532C310.789 5.31628 310.88 5.7374 310.88 6.21868C310.88 6.82028 310.789 7.36172 310.609 7.81292C310.428 8.26412 310.128 8.68523 309.767 9.07627C309.406 9.46731 308.924 9.85835 308.383 10.2494C307.811 10.6104 307.18 11.0315 306.428 11.4827C305.826 11.8436 305.225 12.2347 304.683 12.6558C304.112 13.0468 303.63 13.5281 303.179 14.0695C302.728 14.611 302.367 15.2427 302.066 15.9646C301.795 16.6865 301.615 17.5588 301.525 18.5815H312.925V16.7467H303.961C304.051 16.2052 304.262 15.7239 304.593 15.3028C304.924 14.9118 305.285 14.5207 305.766 14.1598C306.217 13.7988 306.699 13.4679 307.24 13.1371C307.781 12.8363 308.323 12.5054 308.864 12.1745C309.406 11.8436 309.947 11.4827 310.459 11.0916C310.97 10.7307 311.421 10.3096 311.812 9.85835C312.203 9.37707 312.504 8.86571 312.745 8.26412C312.985 7.6926 313.106 7.00076 313.106 6.24876C313.106 5.4366 312.955 4.71468 312.684 4.11308C312.384 3.4814 311.993 2.97004 311.511 2.54892C311 2.1278 310.428 1.827 309.767 1.58636C309.105 1.3758 308.383 1.25548 307.631 1.25548C306.729 1.25548 305.886 1.43596 305.164 1.73676C304.443 2.03756 303.841 2.45868 303.36 3.00012C302.878 3.57164 302.517 4.20332 302.277 4.95532C302.066 5.70732 301.976 6.51948 302.006 7.3918ZM315.669 10.1592C315.669 10.8209 315.699 11.4827 315.73 12.1745C315.76 12.8663 315.85 13.5582 315.97 14.2199C316.121 14.8516 316.301 15.4833 316.572 16.0849C316.812 16.6564 317.173 17.1678 317.625 17.619C318.046 18.0702 318.617 18.4011 319.279 18.6718C319.971 18.9124 320.753 19.0628 321.715 19.0628C322.648 19.0628 323.46 18.9124 324.122 18.6718C324.784 18.4011 325.355 18.0702 325.806 17.619C326.227 17.1678 326.588 16.6564 326.829 16.0849C327.1 15.4833 327.28 14.8516 327.431 14.2199C327.581 13.5582 327.641 12.8663 327.701 12.1745C327.731 11.4827 327.731 10.8209 327.731 10.1592C327.731 9.52747 327.731 8.86571 327.701 8.17388C327.641 7.48204 327.581 6.7902 327.431 6.12844C327.28 5.49676 327.1 4.86508 326.829 4.26348C326.588 3.66188 326.227 3.15052 325.806 2.69932C325.355 2.24812 324.784 1.91724 324.122 1.64652C323.46 1.3758 322.648 1.25548 321.715 1.25548C320.753 1.25548 319.971 1.3758 319.279 1.64652C318.617 1.91724 318.046 2.24812 317.625 2.69932C317.173 3.15052 316.812 3.66188 316.572 4.26348C316.301 4.86508 316.121 5.49676 315.97 6.12844C315.85 6.7902 315.76 7.48204 315.73 8.17388C315.699 8.86571 315.669 9.52747 315.669 10.1592ZM317.955 10.1592C317.955 9.70795 317.986 9.25675 317.986 8.71532C317.986 8.20396 318.046 7.6926 318.106 7.18124C318.196 6.6398 318.286 6.12844 318.437 5.64716C318.587 5.16588 318.798 4.71468 319.068 4.35372C319.369 3.96268 319.73 3.69196 320.151 3.45132C320.572 3.21068 321.084 3.09036 321.715 3.09036C322.317 3.09036 322.828 3.21068 323.25 3.45132C323.701 3.69196 324.032 3.96268 324.332 4.35372C324.603 4.71468 324.814 5.16588 324.964 5.64716C325.114 6.12844 325.205 6.6398 325.295 7.18124C325.385 7.6926 325.415 8.20396 325.415 8.71532C325.445 9.25675 325.445 9.70795 325.445 10.1592C325.445 10.8209 325.415 11.5428 325.385 12.355C325.325 13.1671 325.205 13.9492 324.964 14.6711C324.723 15.3931 324.362 15.9947 323.851 16.4759C323.34 16.9873 322.618 17.2279 321.715 17.2279C320.783 17.2279 320.061 16.9873 319.55 16.4759C319.038 15.9947 318.677 15.3931 318.437 14.6711C318.226 13.9492 318.076 13.1671 318.046 12.355C317.986 11.5428 317.986 10.8209 317.955 10.1592ZM330.795 7.3918H332.9C332.87 6.88044 332.93 6.36908 333.051 5.85772C333.171 5.34636 333.382 4.86508 333.652 4.47404C333.953 4.05292 334.314 3.72204 334.735 3.4814C335.186 3.21068 335.698 3.09036 336.299 3.09036C336.751 3.09036 337.202 3.1806 337.623 3.331C338.014 3.45132 338.375 3.69196 338.676 3.96268C338.976 4.2334 339.217 4.56428 339.398 4.95532C339.578 5.31628 339.668 5.7374 339.668 6.21868C339.668 6.82028 339.578 7.36172 339.398 7.81292C339.217 8.26412 338.916 8.68523 338.555 9.07627C338.194 9.46731 337.713 9.85835 337.172 10.2494C336.6 10.6104 335.968 11.0315 335.216 11.4827C334.615 11.8436 334.013 12.2347 333.472 12.6558C332.9 13.0468 332.419 13.5281 331.968 14.0695C331.517 14.611 331.156 15.2427 330.855 15.9646C330.584 16.6865 330.404 17.5588 330.313 18.5815H341.714V16.7467H332.75C332.84 16.2052 333.051 15.7239 333.382 15.3028C333.712 14.9118 334.073 14.5207 334.555 14.1598C335.006 13.7988 335.487 13.4679 336.029 13.1371C336.57 12.8363 337.111 12.5054 337.653 12.1745C338.194 11.8436 338.736 11.4827 339.247 11.0916C339.759 10.7307 340.21 10.3096 340.601 9.85835C340.992 9.37707 341.293 8.86571 341.533 8.26412C341.774 7.6926 341.894 7.00076 341.894 6.24876C341.894 5.4366 341.744 4.71468 341.473 4.11308C341.172 3.4814 340.781 2.97004 340.3 2.54892C339.789 2.1278 339.217 1.827 338.555 1.58636C337.894 1.3758 337.172 1.25548 336.42 1.25548C335.517 1.25548 334.675 1.43596 333.953 1.73676C333.231 2.03756 332.63 2.45868 332.148 3.00012C331.667 3.57164 331.306 4.20332 331.065 4.95532C330.855 5.70732 330.765 6.51948 330.795 7.3918ZM344.939 7.3918H347.045C347.015 6.88044 347.075 6.36908 347.195 5.85772C347.316 5.34636 347.526 4.86508 347.797 4.47404C348.098 4.05292 348.459 3.72204 348.88 3.4814C349.331 3.21068 349.842 3.09036 350.444 3.09036C350.895 3.09036 351.346 3.1806 351.767 3.331C352.158 3.45132 352.519 3.69196 352.82 3.96268C353.121 4.2334 353.362 4.56428 353.542 4.95532C353.723 5.31628 353.813 5.7374 353.813 6.21868C353.813 6.82028 353.723 7.36172 353.542 7.81292C353.362 8.26412 353.061 8.68523 352.7 9.07627C352.339 9.46731 351.858 9.85835 351.316 10.2494C350.745 10.6104 350.113 11.0315 349.361 11.4827C348.759 11.8436 348.158 12.2347 347.616 12.6558C347.045 13.0468 346.564 13.5281 346.112 14.0695C345.661 14.611 345.3 15.2427 344.999 15.9646C344.729 16.6865 344.548 17.5588 344.458 18.5815H355.858V16.7467H346.894C346.985 16.2052 347.195 15.7239 347.526 15.3028C347.857 14.9118 348.218 14.5207 348.699 14.1598C349.15 13.7988 349.632 13.4679 350.173 13.1371C350.715 12.8363 351.256 12.5054 351.798 12.1745C352.339 11.8436 352.88 11.4827 353.392 11.0916C353.903 10.7307 354.354 10.3096 354.745 9.85835C355.136 9.37707 355.437 8.86571 355.678 8.26412C355.918 7.6926 356.039 7.00076 356.039 6.24876C356.039 5.4366 355.888 4.71468 355.618 4.11308C355.317 3.4814 354.926 2.97004 354.445 2.54892C353.933 2.1278 353.362 1.827 352.7 1.58636C352.038 1.3758 351.316 1.25548 350.564 1.25548C349.662 1.25548 348.82 1.43596 348.098 1.73676C347.376 2.03756 346.774 2.45868 346.293 3.00012C345.812 3.57164 345.451 4.20332 345.21 4.95532C344.999 5.70732 344.909 6.51948 344.939 7.3918ZM358.603 18.5815H360.919V16.2654H358.603V18.5815ZM381.31 1.55628H378.573L371.294 18.5815H373.821L375.926 13.4379H383.807L385.853 18.5815H388.59L381.31 1.55628ZM383.025 11.5428H376.708L379.867 3.60172H379.927L383.025 11.5428ZM390.608 18.5815H392.925V1.25548H390.608V18.5815ZM395.471 18.5815H397.787V1.25548H395.471V18.5815ZM417.366 7.66252V5.61708C416.674 5.34636 415.922 5.34636 414.99 5.34636C414.569 5.34636 414.148 5.37644 413.696 5.46668C413.245 5.55692 412.824 5.67724 412.403 5.85772C412.012 6.0382 411.621 6.24876 411.29 6.51948C410.959 6.7902 410.719 7.15116 410.538 7.5422H410.478V5.82764H408.162V18.5815H410.478V11.2721C410.478 10.7006 410.568 10.1592 410.749 9.64779C410.929 9.16651 411.17 8.74539 411.531 8.38444C411.862 7.9934 412.313 7.72268 412.824 7.51212C413.336 7.33164 413.937 7.21132 414.659 7.21132C415.561 7.21132 416.735 7.33164 417.366 7.66252ZM421.186 4.2334V1.91724H418.87V4.2334H421.186ZM421.186 5.79756H418.87V18.5815H421.186V5.79756ZM436.666 17.3783V5.82764H434.38V7.48204H434.35C433.929 6.76012 433.327 6.24876 432.545 5.8878C431.763 5.52684 430.921 5.34636 429.988 5.34636C428.725 5.34636 427.642 5.55692 426.77 5.97804C425.897 6.39916 425.206 6.9406 424.664 7.60236C424.153 8.23404 423.762 8.98603 423.521 9.76811C423.311 10.5803 423.19 11.3624 423.19 12.1144C423.19 13.0167 423.341 13.8289 423.611 14.611C423.882 15.3931 424.303 16.0849 424.845 16.6865C425.386 17.258 426.078 17.7393 426.89 18.1003C427.702 18.4311 428.665 18.6116 429.748 18.6116C430.71 18.6116 431.613 18.4311 432.455 18.0401C433.297 17.6791 433.929 17.0775 434.32 16.2955H434.38V17.1377C434.38 17.8596 434.32 18.5214 434.139 19.0929C433.989 19.6945 433.718 20.2059 433.357 20.627C432.996 21.0481 432.545 21.379 432.004 21.6196C431.462 21.8603 430.77 21.9806 429.988 21.9806C429.597 21.9806 429.176 21.9505 428.725 21.8603C428.304 21.8001 427.883 21.6798 427.522 21.4993C427.161 21.3489 426.83 21.1383 426.589 20.8676C426.078 20.266 425.988 19.7547 425.988 19.3937H423.551C423.611 20.0855 423.912 20.9879 424.393 21.6497C424.724 22.1611 425.236 22.522 425.807 22.8228C426.409 23.1236 427.04 23.3342 427.762 23.4846C428.454 23.6049 429.146 23.6651 429.838 23.6651C432.184 23.6651 433.929 23.1537 435.012 22.1009C436.125 21.0782 436.666 19.4839 436.666 17.3783ZM429.898 16.7767C429.116 16.7767 428.454 16.6263 427.913 16.3255C427.371 16.0548 426.95 15.6638 426.619 15.1825C426.319 14.7313 426.078 14.1899 425.958 13.6183C425.807 13.0468 425.747 12.4452 425.747 11.8737C425.747 11.2721 425.837 10.6705 425.988 10.099C426.138 9.55755 426.409 9.0462 426.77 8.62507C427.101 8.20396 427.552 7.843 428.123 7.60236C428.665 7.33164 429.327 7.21132 430.109 7.21132C430.861 7.21132 431.492 7.33164 432.034 7.60236C432.575 7.87308 432.996 8.23404 433.327 8.65516C433.658 9.10635 433.899 9.58763 434.049 10.1291C434.199 10.6705 434.29 11.242 434.29 11.8136C434.29 12.3851 434.199 12.9867 434.049 13.5883C433.869 14.1899 433.628 14.7313 433.297 15.1825C432.936 15.6638 432.485 16.0548 431.943 16.3255C431.372 16.6263 430.71 16.7767 429.898 16.7767ZM441.544 1.25548H439.228V18.5815H441.544V11.242C441.544 10.6705 441.634 10.1291 441.814 9.64779C441.995 9.13643 442.236 8.71532 442.596 8.35436C442.927 7.9934 443.379 7.6926 443.89 7.51212C444.401 7.30156 445.003 7.21132 445.725 7.21132C446.627 7.21132 447.319 7.42188 447.83 7.90316C448.342 8.35436 448.582 9.01611 448.582 9.79819V18.5815H450.899V10.0388C450.899 9.34699 450.838 8.71532 450.688 8.1438C450.538 7.57228 450.267 7.06092 449.876 6.6398C449.485 6.21868 449.004 5.91788 448.372 5.67724C447.74 5.4366 446.988 5.31628 446.056 5.31628C445.635 5.31628 445.213 5.34636 444.762 5.4366C444.311 5.52684 443.89 5.64716 443.469 5.82764C443.078 6.00812 442.687 6.21868 442.356 6.51948C442.025 6.7902 441.784 7.12108 441.604 7.51212H441.544V1.25548ZM455.084 5.76748H452.738V7.57228H455.084V15.9646C455.084 16.9873 455.415 17.7393 456.077 18.2807C456.708 18.7921 457.671 19.0628 458.934 19.0628C459.145 19.0628 459.385 19.0327 459.686 19.0027C459.957 18.9726 460.197 18.9425 460.408 18.8823V17.0775C460.228 17.1377 460.017 17.1979 459.776 17.1979C459.536 17.2279 459.325 17.258 459.115 17.258C458.573 17.258 458.152 17.1377 457.821 16.9572C457.52 16.7467 457.37 16.3857 457.37 15.8443V7.57228H460.077V5.76748H457.37V1.2254H455.084V5.76748ZM464.185 14.611H461.779C461.809 15.4231 462.019 16.115 462.35 16.6865C462.681 17.258 463.132 17.7092 463.704 18.0702C464.275 18.4311 464.937 18.6718 465.659 18.8222C466.411 18.9726 467.193 19.0628 468.005 19.0628C468.727 19.0628 469.479 18.9726 470.231 18.8523C470.983 18.7319 471.645 18.4913 472.247 18.1905C472.848 17.8596 473.33 17.4385 473.69 16.8971C474.082 16.3857 474.262 15.7239 474.262 14.9419C474.262 14.3102 474.112 13.7687 473.841 13.3476C473.57 12.9265 473.209 12.5656 472.758 12.2948C472.307 12.0241 471.795 11.7835 471.224 11.6331C470.652 11.4526 470.051 11.3022 469.449 11.1819C468.878 11.0616 468.306 10.9713 467.735 10.851C467.193 10.7307 466.682 10.6104 466.201 10.4299C465.749 10.2795 465.388 10.0689 465.088 9.82827C464.787 9.58763 464.636 9.28683 464.636 8.89579C464.636 8.56492 464.757 8.2942 464.937 8.08364C465.118 7.87308 465.358 7.6926 465.659 7.57228C465.99 7.45196 466.321 7.36172 466.682 7.30156C467.043 7.2414 467.404 7.21132 467.765 7.21132C468.186 7.21132 468.577 7.27148 468.968 7.33164C469.329 7.42188 469.69 7.5422 470.021 7.6926C470.352 7.87308 470.622 8.11372 470.803 8.38444C471.013 8.65516 471.194 9.19659 471.224 9.61771H473.63C473.57 8.83564 473.36 7.96332 473.029 7.45196C472.698 6.91052 472.277 6.4894 471.735 6.15852C471.194 5.85772 470.592 5.64716 469.87 5.49676C469.178 5.37644 468.396 5.31628 467.584 5.31628C466.922 5.31628 466.291 5.37644 465.629 5.52684C464.967 5.67724 464.396 5.8878 463.854 6.1886C463.343 6.4894 462.922 6.88044 462.591 7.36172C462.26 7.81292 462.08 8.38444 462.08 9.0462C462.08 9.88843 462.32 10.5502 462.802 11.0315C463.283 11.5128 463.854 11.8737 464.576 12.1444C465.298 12.4152 466.05 12.5956 466.892 12.746C467.735 12.8964 468.487 13.0468 469.209 13.2273C469.93 13.4078 470.502 13.6484 470.983 13.9492C471.465 14.2199 471.705 14.6411 471.705 15.2126C471.705 15.6036 471.585 15.9646 471.344 16.2052C471.134 16.4759 470.833 16.6865 470.502 16.8068C470.141 16.9572 469.75 17.0475 469.329 17.0775C468.908 17.1377 468.517 17.1678 468.156 17.1678C467.644 17.1678 467.163 17.1377 466.712 17.0475C466.231 16.9572 465.84 16.8068 465.449 16.6263C465.088 16.4158 464.787 16.1751 464.576 15.8443C464.336 15.5134 464.215 15.0923 464.185 14.611ZM493.437 7.66252V5.61708C492.745 5.34636 491.993 5.34636 491.06 5.34636C490.639 5.34636 490.218 5.37644 489.767 5.46668C489.316 5.55692 488.895 5.67724 488.474 5.85772C488.083 6.0382 487.692 6.24876 487.361 6.51948C487.03 6.7902 486.789 7.15116 486.609 7.5422H486.548V5.82764H484.232V18.5815H486.548V11.2721C486.548 10.7006 486.639 10.1592 486.819 9.64779C487 9.16651 487.24 8.74539 487.601 8.38444C487.932 7.9934 488.383 7.72268 488.895 7.51212C489.406 7.33164 490.008 7.21132 490.73 7.21132C491.632 7.21132 492.805 7.33164 493.437 7.66252ZM506.874 14.6411H504.468C504.257 15.4833 503.836 16.1451 503.174 16.5662C502.513 16.9873 501.67 17.1979 500.648 17.1979C499.836 17.1979 499.144 17.0775 498.542 16.8369C497.971 16.5963 497.489 16.2955 497.098 15.8743C496.707 15.4833 496.437 15.0321 496.256 14.5207C496.106 14.0094 496.015 13.4379 496.046 12.8663H507.115C507.145 12.0843 507.085 11.242 506.874 10.3697C506.664 9.46731 506.303 8.65516 505.791 7.90316C505.25 7.18124 504.558 6.54956 503.686 6.06828C502.814 5.587 501.731 5.34636 500.407 5.34636C499.414 5.34636 498.482 5.52684 497.61 5.85772C496.767 6.1886 496.046 6.66988 495.414 7.27148C494.812 7.90316 494.331 8.595 493.97 9.43723C493.639 10.2795 493.459 11.1819 493.459 12.1745C493.489 13.1972 493.669 14.0996 493.97 14.9719C494.241 15.8142 494.692 16.5361 495.294 17.1377C495.895 17.7694 496.617 18.2206 497.489 18.5815C498.362 18.9124 499.384 19.0628 500.558 19.0628C502.242 19.0628 503.626 18.7019 504.739 17.9499C505.852 17.1979 506.573 16.115 506.874 14.6411ZM504.528 10.9713H496.046C496.076 10.46 496.196 9.97867 496.406 9.52747C496.617 9.07627 496.918 8.68523 497.279 8.35436C497.64 7.9934 498.061 7.75276 498.572 7.5422C499.084 7.36172 499.655 7.2414 500.287 7.2414C500.888 7.2414 501.43 7.36172 501.941 7.5422C502.453 7.75276 502.904 7.9934 503.265 8.32428C503.626 8.65516 503.926 9.0462 504.167 9.52747C504.378 9.97867 504.498 10.46 504.528 10.9713ZM511.158 14.611H508.752C508.782 15.4231 508.992 16.115 509.323 16.6865C509.654 17.258 510.105 17.7092 510.677 18.0702C511.248 18.4311 511.91 18.6718 512.632 18.8222C513.384 18.9726 514.166 19.0628 514.978 19.0628C515.7 19.0628 516.452 18.9726 517.204 18.8523C517.956 18.7319 518.618 18.4913 519.22 18.1905C519.821 17.8596 520.302 17.4385 520.663 16.8971C521.054 16.3857 521.235 15.7239 521.235 14.9419C521.235 14.3102 521.084 13.7687 520.814 13.3476C520.543 12.9265 520.182 12.5656 519.731 12.2948C519.28 12.0241 518.768 11.7835 518.197 11.6331C517.625 11.4526 517.024 11.3022 516.422 11.1819C515.851 11.0616 515.279 10.9713 514.708 10.851C514.166 10.7307 513.655 10.6104 513.173 10.4299C512.722 10.2795 512.361 10.0689 512.061 9.82827C511.76 9.58763 511.609 9.28683 511.609 8.89579C511.609 8.56492 511.73 8.2942 511.91 8.08364C512.091 7.87308 512.331 7.6926 512.632 7.57228C512.963 7.45196 513.294 7.36172 513.655 7.30156C514.016 7.2414 514.377 7.21132 514.738 7.21132C515.159 7.21132 515.55 7.27148 515.941 7.33164C516.302 7.42188 516.663 7.5422 516.994 7.6926C517.325 7.87308 517.595 8.11372 517.776 8.38444C517.986 8.65516 518.167 9.19659 518.197 9.61771H520.603C520.543 8.83564 520.332 7.96332 520.002 7.45196C519.671 6.91052 519.25 6.4894 518.708 6.15852C518.167 5.85772 517.565 5.64716 516.843 5.49676C516.151 5.37644 515.369 5.31628 514.557 5.31628C513.895 5.31628 513.264 5.37644 512.602 5.52684C511.94 5.67724 511.369 5.8878 510.827 6.1886C510.316 6.4894 509.895 6.88044 509.564 7.36172C509.233 7.81292 509.053 8.38444 509.053 9.0462C509.053 9.88843 509.293 10.5502 509.774 11.0315C510.256 11.5128 510.827 11.8737 511.549 12.1444C512.271 12.4152 513.023 12.5956 513.865 12.746C514.708 12.8964 515.46 13.0468 516.181 13.2273C516.903 13.4078 517.475 13.6484 517.956 13.9492C518.437 14.2199 518.678 14.6411 518.678 15.2126C518.678 15.6036 518.558 15.9646 518.317 16.2052C518.107 16.4759 517.806 16.6865 517.475 16.8068C517.114 16.9572 516.723 17.0475 516.302 17.0775C515.881 17.1377 515.49 17.1678 515.129 17.1678C514.617 17.1678 514.136 17.1377 513.685 17.0475C513.204 16.9572 512.813 16.8068 512.421 16.6263C512.061 16.4158 511.76 16.1751 511.549 15.8443C511.309 15.5134 511.188 15.0923 511.158 14.611ZM536.25 14.6411H533.844C533.633 15.4833 533.212 16.1451 532.551 16.5662C531.889 16.9873 531.047 17.1979 530.024 17.1979C529.212 17.1979 528.52 17.0775 527.918 16.8369C527.347 16.5963 526.866 16.2955 526.474 15.8743C526.083 15.4833 525.813 15.0321 525.632 14.5207C525.482 14.0094 525.392 13.4379 525.422 12.8663H536.491C536.521 12.0843 536.461 11.242 536.25 10.3697C536.04 9.46731 535.679 8.65516 535.168 7.90316C534.626 7.18124 533.934 6.54956 533.062 6.06828C532.19 5.587 531.107 5.34636 529.783 5.34636C528.791 5.34636 527.858 5.52684 526.986 5.85772C526.144 6.1886 525.422 6.66988 524.79 7.27148C524.188 7.90316 523.707 8.595 523.346 9.43723C523.015 10.2795 522.835 11.1819 522.835 12.1745C522.865 13.1972 523.045 14.0996 523.346 14.9719C523.617 15.8142 524.068 16.5361 524.67 17.1377C525.271 17.7694 525.993 18.2206 526.866 18.5815C527.738 18.9124 528.761 19.0628 529.934 19.0628C531.618 19.0628 533.002 18.7019 534.115 17.9499C535.228 17.1979 535.95 16.115 536.25 14.6411ZM533.904 10.9713H525.422C525.452 10.46 525.572 9.97867 525.783 9.52747C525.993 9.07627 526.294 8.68523 526.655 8.35436C527.016 7.9934 527.437 7.75276 527.948 7.5422C528.46 7.36172 529.031 7.2414 529.663 7.2414C530.265 7.2414 530.806 7.36172 531.317 7.5422C531.829 7.75276 532.28 7.9934 532.641 8.32428C533.002 8.65516 533.303 9.0462 533.543 9.52747C533.754 9.97867 533.874 10.46 533.904 10.9713ZM547.753 7.66252V5.61708C547.062 5.34636 546.31 5.34636 545.377 5.34636C544.956 5.34636 544.535 5.37644 544.084 5.46668C543.632 5.55692 543.211 5.67724 542.79 5.85772C542.399 6.0382 542.008 6.24876 541.677 6.51948C541.346 6.7902 541.106 7.15116 540.925 7.5422H540.865V5.82764H538.549V18.5815H540.865V11.2721C540.865 10.7006 540.955 10.1592 541.136 9.64779C541.316 9.16651 541.557 8.74539 541.918 8.38444C542.249 7.9934 542.7 7.72268 543.211 7.51212C543.723 7.33164 544.324 7.21132 545.046 7.21132C545.949 7.21132 547.122 7.33164 547.753 7.66252ZM553.378 18.5815H555.664L560.386 5.7374H558.16L554.641 16.4459H554.581L550.941 5.7374H548.565L553.378 18.5815ZM574.219 14.6411H571.813C571.602 15.4833 571.181 16.1451 570.519 16.5662C569.858 16.9873 569.015 17.1979 567.993 17.1979C567.181 17.1979 566.489 17.0775 565.887 16.8369C565.316 16.5963 564.834 16.2955 564.443 15.8743C564.052 15.4833 563.782 15.0321 563.601 14.5207C563.451 14.0094 563.36 13.4379 563.391 12.8663H574.46C574.49 12.0843 574.43 11.242 574.219 10.3697C574.009 9.46731 573.648 8.65516 573.136 7.90316C572.595 7.18124 571.903 6.54956 571.031 6.06828C570.159 5.587 569.076 5.34636 567.752 5.34636C566.759 5.34636 565.827 5.52684 564.955 5.85772C564.112 6.1886 563.391 6.66988 562.759 7.27148C562.157 7.90316 561.676 8.595 561.315 9.43723C560.984 10.2795 560.804 11.1819 560.804 12.1745C560.834 13.1972 561.014 14.0996 561.315 14.9719C561.586 15.8142 562.037 16.5361 562.639 17.1377C563.24 17.7694 563.962 18.2206 564.834 18.5815C565.707 18.9124 566.729 19.0628 567.903 19.0628C569.587 19.0628 570.971 18.7019 572.084 17.9499C573.197 17.1979 573.919 16.115 574.219 14.6411ZM571.873 10.9713H563.391C563.421 10.46 563.541 9.97867 563.751 9.52747C563.962 9.07627 564.263 8.68523 564.624 8.35436C564.985 7.9934 565.406 7.75276 565.917 7.5422C566.429 7.36172 567 7.2414 567.632 7.2414C568.233 7.2414 568.775 7.36172 569.286 7.5422C569.798 7.75276 570.249 7.9934 570.61 8.32428C570.971 8.65516 571.271 9.0462 571.512 9.52747C571.723 9.97867 571.843 10.46 571.873 10.9713ZM589.603 1.28556H587.287V7.45196H587.226C586.835 6.69996 586.234 6.1886 585.422 5.85772C584.609 5.52684 583.707 5.34636 582.744 5.34636C581.631 5.34636 580.699 5.55692 579.887 5.91788C579.075 6.27884 578.413 6.7902 577.871 7.42188C577.33 8.05356 576.939 8.80555 576.668 9.61771C576.398 10.46 576.247 11.3323 576.247 12.2648C576.247 13.1972 576.367 14.0695 576.638 14.9118C576.909 15.754 577.3 16.4759 577.841 17.0775C578.383 17.7092 579.045 18.1905 579.857 18.5515C580.669 18.9124 581.601 19.0628 582.684 19.0628C583.015 19.0628 583.406 19.0327 583.827 18.9726C584.248 18.9124 584.67 18.7921 585.091 18.6417C585.512 18.4913 585.903 18.2807 586.294 18.01C586.655 17.7694 586.986 17.4385 587.226 17.0475H587.287V18.6116H589.603V1.28556ZM578.954 10.3096C579.135 9.73803 579.406 9.22667 579.736 8.77548C580.097 8.2942 580.549 7.93324 581.12 7.66252C581.662 7.3918 582.323 7.27148 583.045 7.27148C583.827 7.27148 584.489 7.3918 585.061 7.6926C585.602 7.9934 586.023 8.35436 586.384 8.83564C586.715 9.28683 586.986 9.82827 587.136 10.3998C587.287 11.0014 587.347 11.603 587.347 12.2046C587.347 12.8663 587.287 13.4679 587.106 14.0695C586.956 14.6711 586.685 15.2126 586.354 15.6638C585.993 16.115 585.542 16.506 584.97 16.7767C584.399 17.0475 583.707 17.1979 582.925 17.1979C582.113 17.1979 581.451 17.0475 580.91 16.7767C580.398 16.4759 579.947 16.0849 579.616 15.6337C579.285 15.1524 579.075 14.611 578.924 14.0094C578.774 13.3777 578.714 12.746 578.714 12.1144C578.714 11.5128 578.774 10.9112 578.954 10.3096ZM592.19 18.5815H594.506V16.2654H592.19V18.5815Z" fill="#2D1A06"/>
</svg>
