<svg width="56" height="46" viewBox="0 0 56 46" fill="none" xmlns="http://www.w3.org/2000/svg">
<path d="M11.75 22.9999H8V10.4999H3V5.49985H18V10.4999H13V17.4874L37.5325 10.9149L36.0825 5.49985H28V0.499853H37.945C38.5047 0.487505 39.0523 0.663359 39.5001 0.999245C39.948 1.33513 40.2701 1.81161 40.415 2.35235L44.2975 16.8424L39.4675 18.1349L38.8275 15.7449L11.75 22.9999ZM10.5 40.4999C11.8261 40.4999 13.0979 39.9731 14.0355 39.0354C14.9732 38.0977 15.5 36.8259 15.5 35.4999C15.5 34.1738 14.9732 32.902 14.0355 31.9643C13.0979 31.0266 11.8261 30.4999 10.5 30.4999C9.17392 30.4999 7.90215 31.0266 6.96447 31.9643C6.02678 32.902 5.5 34.1738 5.5 35.4999C5.5 36.8259 6.02678 38.0977 6.96447 39.0354C7.90215 39.9731 9.17392 40.4999 10.5 40.4999ZM10.5 45.4999C7.84784 45.4999 5.3043 44.4463 3.42893 42.5709C1.55357 40.6956 0.5 38.152 0.5 35.4999C0.5 32.8477 1.55357 30.3041 3.42893 28.4288C5.3043 26.5534 7.84784 25.4999 10.5 25.4999C13.1522 25.4999 15.6957 26.5534 17.5711 28.4288C19.4464 30.3041 20.5 32.8477 20.5 35.4999C20.5 38.152 19.4464 40.6956 17.5711 42.5709C15.6957 44.4463 13.1522 45.4999 10.5 45.4999ZM43 40.4999C44.9891 40.4999 46.8968 39.7097 48.3033 38.3032C49.7098 36.8966 50.5 34.989 50.5 32.9999C50.5 31.0107 49.7098 29.1031 48.3033 27.6966C46.8968 26.29 44.9891 25.4999 43 25.4999C41.0109 25.4999 39.1032 26.29 37.6967 27.6966C36.2902 29.1031 35.5 31.0107 35.5 32.9999C35.5 34.989 36.2902 36.8966 37.6967 38.3032C39.1032 39.7097 41.0109 40.4999 43 40.4999ZM43 45.4999C39.6848 45.4999 36.5054 44.1829 34.1612 41.8387C31.817 39.4945 30.5 36.3151 30.5 32.9999C30.5 29.6846 31.817 26.5052 34.1612 24.161C36.5054 21.8168 39.6848 20.4999 43 20.4999C46.3152 20.4999 49.4946 21.8168 51.8388 24.161C54.183 26.5052 55.5 29.6846 55.5 32.9999C55.5 36.3151 54.183 39.4945 51.8388 41.8387C49.4946 44.1829 46.3152 45.4999 43 45.4999Z" fill="#FDF3B8"/>
</svg>
