<svg width="56" height="47" viewBox="0 0 56 47" fill="none" xmlns="http://www.w3.org/2000/svg">
<path d="M11.75 23.5238H8V10.7204H3V5.59907H18V10.7204H13V17.8775L37.5325 11.1455L36.0825 5.59907H28V0.477729H37.945C38.5047 0.465082 39.0523 0.645203 39.5001 0.989241C39.948 1.33328 40.2701 1.82132 40.415 2.37519L44.2975 17.2168L39.4675 18.5407L38.8275 16.0927L11.75 23.5238ZM10.5 41.4485C11.8261 41.4485 13.0979 40.9089 14.0355 39.9485C14.9732 38.988 15.5 37.6854 15.5 36.3271C15.5 34.9689 14.9732 33.6662 14.0355 32.7058C13.0979 31.7454 11.8261 31.2058 10.5 31.2058C9.17392 31.2058 7.90215 31.7454 6.96447 32.7058C6.02678 33.6662 5.5 34.9689 5.5 36.3271C5.5 37.6854 6.02678 38.988 6.96447 39.9485C7.90215 40.9089 9.17392 41.4485 10.5 41.4485ZM10.5 46.5698C7.84784 46.5698 5.3043 45.4907 3.42893 43.5698C1.55357 41.6489 0.5 39.0437 0.5 36.3271C0.5 33.6106 1.55357 31.0053 3.42893 29.0845C5.3043 27.1636 7.84784 26.0844 10.5 26.0844C13.1522 26.0844 15.6957 27.1636 17.5711 29.0845C19.4464 31.0053 20.5 33.6106 20.5 36.3271C20.5 39.0437 19.4464 41.6489 17.5711 43.5698C15.6957 45.4907 13.1522 46.5698 10.5 46.5698ZM43 41.4485C44.9891 41.4485 46.8968 40.6391 48.3033 39.1985C49.7098 37.7578 50.5 35.8039 50.5 33.7665C50.5 31.7291 49.7098 29.7751 48.3033 28.3345C46.8968 26.8938 44.9891 26.0844 43 26.0844C41.0109 26.0844 39.1032 26.8938 37.6967 28.3345C36.2902 29.7751 35.5 31.7291 35.5 33.7665C35.5 35.8039 36.2902 37.7578 37.6967 39.1985C39.1032 40.6391 41.0109 41.4485 43 41.4485ZM43 46.5698C39.6848 46.5698 36.5054 45.2209 34.1612 42.8198C31.817 40.4187 30.5 37.1621 30.5 33.7665C30.5 30.3708 31.817 27.1142 34.1612 24.7131C36.5054 22.312 39.6848 20.9631 43 20.9631C46.3152 20.9631 49.4946 22.312 51.8388 24.7131C54.183 27.1142 55.5 30.3708 55.5 33.7665C55.5 37.1621 54.183 40.4187 51.8388 42.8198C49.4946 45.2209 46.3152 46.5698 43 46.5698Z" fill="#2D1A06"/>
</svg>
