<svg width="548" height="306" viewBox="0 0 548 306" fill="none" xmlns="http://www.w3.org/2000/svg">
<path d="M56.6075 69.041H59.2244V49.6695H65.4811V47.5338H50.3508V49.6695H56.6075V69.041ZM68.2649 69.041H70.7615V59.5057C70.7615 56.6782 72.837 55.2042 75.1532 55.2042C77.6799 55.2042 78.853 56.4375 78.853 59.2049V69.041H81.3496V59.3853C81.3496 54.8132 79.0636 53.0385 75.8149 53.0385C73.2281 53.0385 71.4834 54.3319 70.7615 55.8058V45.7892H68.2649V69.041ZM92.0779 69.3117C95.6273 69.3117 98.2442 67.6573 98.7857 64.4989H96.289C95.9582 66.3338 94.5444 67.2362 92.1079 67.2362C88.8894 67.2362 87.1748 65.2509 87.0545 61.6714H98.906V60.8593C98.906 55.2343 95.4769 53.0385 91.8372 53.0385C87.5057 53.0385 84.4676 56.3473 84.4676 61.0999V61.3405C84.4676 66.1834 87.626 69.3117 92.0779 69.3117ZM87.1447 59.6561C87.5659 56.8586 89.2804 55.114 91.8372 55.114C94.4241 55.114 96.1086 56.4074 96.3492 59.6561H87.1447ZM116.022 69.3117C119.812 69.3117 122.549 66.785 122.88 63.386H120.564C120.293 65.9428 118.278 67.2362 116.052 67.2362C113.014 67.2362 110.908 65.1908 110.908 61.3405V61.0999C110.908 57.4001 113.104 55.114 115.962 55.114C118.127 55.114 119.932 56.0465 120.323 58.5431H122.79C122.308 54.5425 119.24 53.0385 115.962 53.0385C111.75 53.0385 108.321 56.2871 108.321 61.0999V61.3405C108.321 66.2135 111.63 69.3117 116.022 69.3117ZM126.048 69.041H128.544V59.5057C128.544 56.6782 130.62 55.2042 132.936 55.2042C135.463 55.2042 136.636 56.4375 136.636 59.2049V69.041H139.133V59.3853C139.133 54.8132 136.846 53.0385 133.598 53.0385C131.011 53.0385 129.266 54.3319 128.544 55.8058V45.7892H126.048V69.041ZM149.981 67.2362C146.793 67.2362 144.837 64.89 144.837 61.3105V61.0698C144.837 57.4602 146.823 55.114 149.981 55.114C153.109 55.114 155.125 57.4602 155.125 61.0999V61.3105C155.125 64.8599 153.139 67.2362 149.981 67.2362ZM149.951 69.3117C154.433 69.3117 157.712 66.033 157.712 61.2804V61.0397C157.712 56.3172 154.433 53.0385 149.981 53.0385C145.529 53.0385 142.251 56.3473 142.251 61.0698V61.3105C142.251 65.9127 145.469 69.3117 149.951 69.3117ZM161.036 69.041H163.533V53.3092H161.036V69.041ZM162.239 50.0305C163.142 50.0305 163.894 49.2785 163.894 48.3761C163.894 47.4737 163.142 46.7217 162.239 46.7217C161.337 46.7217 160.585 47.4737 160.585 48.3761C160.585 49.2785 161.337 50.0305 162.239 50.0305ZM174.568 69.3117C178.358 69.3117 181.096 66.785 181.427 63.386H179.11C178.84 65.9428 176.824 67.2362 174.598 67.2362C171.56 67.2362 169.455 65.1908 169.455 61.3405V61.0999C169.455 57.4001 171.651 55.114 174.508 55.114C176.674 55.114 178.479 56.0465 178.87 58.5431H181.336C180.855 54.5425 177.787 53.0385 174.508 53.0385C170.297 53.0385 166.868 56.2871 166.868 61.0999V61.3405C166.868 66.2135 170.177 69.3117 174.568 69.3117ZM191.032 69.3117C194.581 69.3117 197.198 67.6573 197.739 64.4989H195.243C194.912 66.3338 193.498 67.2362 191.062 67.2362C187.843 67.2362 186.128 65.2509 186.008 61.6714H197.86V60.8593C197.86 55.2343 194.431 53.0385 190.791 53.0385C186.459 53.0385 183.421 56.3473 183.421 61.0999V61.3405C183.421 66.1834 186.58 69.3117 191.032 69.3117ZM186.098 59.6561C186.52 56.8586 188.234 55.114 190.791 55.114C193.378 55.114 195.062 56.4074 195.303 59.6561H186.098ZM215.005 67.2362C211.817 67.2362 209.862 64.89 209.862 61.3105V61.0698C209.862 57.4602 211.847 55.114 215.005 55.114C218.134 55.114 220.149 57.4602 220.149 61.0999V61.3105C220.149 64.8599 218.164 67.2362 215.005 67.2362ZM214.975 69.3117C219.457 69.3117 222.736 66.033 222.736 61.2804V61.0397C222.736 56.3172 219.457 53.0385 215.005 53.0385C210.554 53.0385 207.275 56.3473 207.275 61.0698V61.3105C207.275 65.9127 210.493 69.3117 214.975 69.3117ZM226.542 69.041H229.038V55.4148H232.888V53.3092H229.038V50.4817C229.038 48.8874 229.7 47.7745 231.324 47.7745C232.016 47.7745 232.648 47.9249 233.099 48.1054V45.9998C232.467 45.7892 232.046 45.699 231.234 45.699C228.106 45.699 226.542 47.5639 226.542 50.7524V53.3092H224.286V55.4148H226.542V69.041ZM243.698 69.041H246.194V55.4148H250.045V53.3092H246.194V50.4817C246.194 48.8874 246.856 47.7745 248.48 47.7745C249.172 47.7745 249.804 47.9249 250.255 48.1054V45.9998C249.624 45.7892 249.202 45.699 248.39 45.699C245.262 45.699 243.698 47.5639 243.698 50.7524V53.3092H241.442V55.4148H243.698V69.041ZM258.747 67.2362C255.559 67.2362 253.603 64.89 253.603 61.3105V61.0698C253.603 57.4602 255.589 55.114 258.747 55.114C261.875 55.114 263.891 57.4602 263.891 61.0999V61.3105C263.891 64.8599 261.906 67.2362 258.747 67.2362ZM258.717 69.3117C263.199 69.3117 266.478 66.033 266.478 61.2804V61.0397C266.478 56.3172 263.199 53.0385 258.747 53.0385C254.295 53.0385 251.017 56.3473 251.017 61.0698V61.3105C251.017 65.9127 254.235 69.3117 258.717 69.3117ZM269.742 69.041H272.238V59.5057C272.238 56.6782 274.314 55.2042 276.63 55.2042C279.157 55.2042 280.33 56.4375 280.33 59.2049V69.041H282.827V59.3853C282.827 54.8132 280.541 53.0385 277.292 53.0385C274.705 53.0385 272.96 54.3319 272.238 55.8058V53.3092H269.742V69.041ZM291.9 69.2516C292.923 69.2516 293.525 69.1012 294.036 68.9207V66.8151C293.495 67.0257 292.893 67.146 292.111 67.146C290.848 67.146 290.156 66.394 290.156 64.8599V55.4148H293.826V53.3092H290.156V49.7297H287.659V53.3092H285.403V55.4148H287.659V65.1005C287.659 67.5671 289.043 69.2516 291.9 69.2516ZM308.508 69.3117C310.824 69.3117 312.238 68.5297 313.411 67.0557V69.041H315.908V58.6634C315.908 54.2718 313.171 53.0385 310.163 53.0385C307.124 53.0385 304.267 54.362 303.936 57.9415H306.433C306.673 56.0164 307.876 55.114 310.042 55.114C312.449 55.114 313.411 56.1668 313.411 58.6634V59.8065H311.155C307.124 59.8065 303.274 61.0397 303.274 64.6794C303.274 67.898 305.59 69.3117 308.508 69.3117ZM308.749 67.3265C306.553 67.3265 305.771 66.3037 305.771 64.6794C305.771 62.3633 308.087 61.5812 311.245 61.5812H313.411V63.5364C313.411 65.9729 311.396 67.3265 308.749 67.3265ZM320.21 69.041H322.707V59.5057C322.707 56.6782 324.783 55.2042 327.099 55.2042C329.625 55.2042 330.799 56.4375 330.799 59.2049V69.041H333.295V59.3853C333.295 54.8132 331.009 53.0385 327.76 53.0385C325.174 53.0385 323.429 54.3319 322.707 55.8058V53.3092H320.21V69.041ZM343.512 69.3117C345.798 69.3117 347.994 67.8679 348.896 66.3338V69.041H351.393V45.7892H348.896V55.8359C347.994 54.3018 346.37 53.0385 343.753 53.0385C339.421 53.0385 336.413 56.4375 336.413 61.2503V61.4909C336.413 66.394 339.391 69.3117 343.512 69.3117ZM343.783 67.2362C341.136 67.2362 339 65.3412 339 61.3706V61.13C339 57.3098 340.865 55.114 343.993 55.114C347.061 55.114 348.987 57.009 348.987 61.0397V61.2804C348.987 65.3111 346.7 67.2362 343.783 67.2362ZM363.744 69.041H366.24V55.4148H370.091V53.3092H366.24V50.4817C366.24 48.8874 366.902 47.7745 368.527 47.7745C369.218 47.7745 369.85 47.9249 370.301 48.1054V45.9998C369.67 45.7892 369.248 45.699 368.436 45.699C365.308 45.699 363.744 47.5639 363.744 50.7524V53.3092H361.488V55.4148H363.744V69.041ZM378.793 67.2362C375.605 67.2362 373.65 64.89 373.65 61.3105V61.0698C373.65 57.4602 375.635 55.114 378.793 55.114C381.922 55.114 383.937 57.4602 383.937 61.0999V61.3105C383.937 64.8599 381.952 67.2362 378.793 67.2362ZM378.763 69.3117C383.245 69.3117 386.524 66.033 386.524 61.2804V61.0397C386.524 56.3172 383.245 53.0385 378.793 53.0385C374.341 53.0385 371.063 56.3473 371.063 61.0698V61.3105C371.063 65.9127 374.281 69.3117 378.763 69.3117ZM389.788 69.041H392.285V59.5057C392.285 56.6782 394.36 55.2042 396.676 55.2042C399.203 55.2042 400.376 56.4375 400.376 59.2049V69.041H402.873V59.3853C402.873 54.8132 400.587 53.0385 397.338 53.0385C394.751 53.0385 393.006 54.3319 392.285 55.8058V53.3092H389.788V69.041ZM411.947 69.2516C412.969 69.2516 413.571 69.1012 414.082 68.9207V66.8151C413.541 67.0257 412.939 67.146 412.157 67.146C410.894 67.146 410.202 66.394 410.202 64.8599V55.4148H413.872V53.3092H410.202V49.7297H407.705V53.3092H405.449V55.4148H407.705V65.1005C407.705 67.5671 409.089 69.2516 411.947 69.2516ZM429.487 69.3117C433.307 69.3117 435.262 67.3866 435.262 64.529C435.262 61.1901 432.976 60.4682 429.727 59.8666C426.84 59.3553 426.058 58.7837 426.058 57.37C426.058 56.0164 427.231 55.114 429.035 55.114C431.021 55.114 431.983 55.866 432.344 57.5805H434.751C434.33 54.1815 431.893 53.0385 429.066 53.0385C426.599 53.0385 423.741 54.5425 423.741 57.4602C423.741 60.1975 425.125 61.3405 429.216 62.0925C431.652 62.5437 432.886 63.0852 432.886 64.7396C432.886 66.4241 431.833 67.2362 429.457 67.2362C426.93 67.2362 425.937 66.0631 425.757 64.1981H423.32C423.471 67.4167 425.727 69.3117 429.487 69.3117ZM438.525 69.041H441.021V53.3092H438.525V69.041ZM439.728 50.0305C440.63 50.0305 441.382 49.2785 441.382 48.3761C441.382 47.4737 440.63 46.7217 439.728 46.7217C438.826 46.7217 438.074 47.4737 438.074 48.3761C438.074 49.2785 438.826 50.0305 439.728 50.0305ZM443.635 69.041H456.659V66.8452H447.696L456.78 53.7604V53.3092H444.537V55.4148H452.93L443.635 68.6801V69.041ZM465.759 69.3117C469.309 69.3117 471.926 67.6573 472.467 64.4989H469.97C469.639 66.3338 468.226 67.2362 465.789 67.2362C462.571 67.2362 460.856 65.2509 460.736 61.6714H472.587V60.8593C472.587 55.2343 469.158 53.0385 465.518 53.0385C461.187 53.0385 458.149 56.3473 458.149 61.0999V61.3405C458.149 66.1834 461.307 69.3117 465.759 69.3117ZM460.826 59.6561C461.247 56.8586 462.962 55.114 465.518 55.114C468.105 55.114 469.79 56.4074 470.03 59.6561H460.826ZM486.334 69.041H489.071L492.741 57.2497L496.02 69.041H498.787L503.69 53.3092H501.133L497.434 65.9729L493.854 53.3092H491.688L487.868 65.9729L484.198 53.3092H481.491L486.334 69.041ZM506.516 69.041H509.013V53.3092H506.516V69.041ZM507.719 50.0305C508.622 50.0305 509.374 49.2785 509.374 48.3761C509.374 47.4737 508.622 46.7217 507.719 46.7217C506.817 46.7217 506.065 47.4737 506.065 48.3761C506.065 49.2785 506.817 50.0305 507.719 50.0305ZM518.304 69.2516C519.327 69.2516 519.928 69.1012 520.44 68.9207V66.8151C519.898 67.0257 519.297 67.146 518.514 67.146C517.251 67.146 516.559 66.394 516.559 64.8599V55.4148H520.229V53.3092H516.559V49.7297H514.063V53.3092H511.807V55.4148H514.063V65.1005C514.063 67.5671 515.446 69.2516 518.304 69.2516ZM523.612 69.041H526.109V59.5057C526.109 56.6782 528.184 55.2042 530.5 55.2042C533.027 55.2042 534.2 56.4375 534.2 59.2049V69.041H536.697V59.3853C536.697 54.8132 534.411 53.0385 531.162 53.0385C528.575 53.0385 526.831 54.3319 526.109 55.8058V45.7892H523.612V69.041ZM55.1636 102.041H57.9009L61.5707 90.2497L64.8494 102.041H67.6167L72.5198 86.3092H69.963L66.2631 98.9729L62.6836 86.3092H60.5179L56.6977 98.9729L53.028 86.3092H50.3208L55.1636 102.041ZM75.2855 102.041H77.7821V92.5057C77.7821 89.6782 79.8576 88.2042 82.1738 88.2042C84.7005 88.2042 85.8736 89.4375 85.8736 92.2049V102.041H88.3703V92.3853C88.3703 87.8132 86.0842 86.0385 82.8355 86.0385C80.2487 86.0385 78.504 87.3319 77.7821 88.8058V78.7892H75.2855V102.041ZM92.7215 102.041H95.2182V86.3092H92.7215V102.041ZM93.9247 83.0305C94.8271 83.0305 95.5791 82.2785 95.5791 81.3761C95.5791 80.4737 94.8271 79.7217 93.9247 79.7217C93.0223 79.7217 92.2703 80.4737 92.2703 81.3761C92.2703 82.2785 93.0223 83.0305 93.9247 83.0305ZM106.254 102.312C110.044 102.312 112.781 99.785 113.112 96.386H110.796C110.525 98.9428 108.51 100.236 106.284 100.236C103.246 100.236 101.14 98.1908 101.14 94.3405V94.0999C101.14 90.4001 103.336 88.114 106.194 88.114C108.36 88.114 110.164 89.0465 110.555 91.5431H113.022C112.541 87.5425 109.473 86.0385 106.194 86.0385C101.983 86.0385 98.5535 89.2871 98.5535 94.0999V94.3405C98.5535 99.2135 101.862 102.312 106.254 102.312ZM116.28 102.041H118.777V92.5057C118.777 89.6782 120.852 88.2042 123.168 88.2042C125.695 88.2042 126.868 89.4375 126.868 92.2049V102.041H129.365V92.3853C129.365 87.8132 127.079 86.0385 123.83 86.0385C121.243 86.0385 119.499 87.3319 118.777 88.8058V78.7892H116.28V102.041ZM141.195 102.041H153.648V99.9053H143.812V80.5338H141.195V102.041ZM162.774 100.236C159.586 100.236 157.631 97.89 157.631 94.3105V94.0698C157.631 90.4602 159.616 88.114 162.774 88.114C165.903 88.114 167.918 90.4602 167.918 94.0999V94.3105C167.918 97.8599 165.933 100.236 162.774 100.236ZM162.744 102.312C167.226 102.312 170.505 99.033 170.505 94.2804V94.0397C170.505 89.3172 167.226 86.0385 162.774 86.0385C158.323 86.0385 155.044 89.3473 155.044 94.0698V94.3105C155.044 98.9127 158.262 102.312 162.744 102.312ZM173.769 102.041H176.266V93.4081C176.266 89.5278 178.281 88.5351 181.44 88.3847V86.0385C178.612 86.1287 177.258 87.362 176.266 89.1367V86.3092H173.769V102.041ZM190.473 102.312C194.023 102.312 196.64 100.657 197.181 97.4989H194.685C194.354 99.3338 192.94 100.236 190.503 100.236C187.285 100.236 185.57 98.2509 185.45 94.6714H197.302V93.8593C197.302 88.2343 193.872 86.0385 190.233 86.0385C185.901 86.0385 182.863 89.3473 182.863 94.0999V94.3405C182.863 99.1834 186.022 102.312 190.473 102.312ZM185.54 92.6561C185.961 89.8586 187.676 88.114 190.233 88.114C192.82 88.114 194.504 89.4074 194.745 92.6561H185.54ZM200.531 102.041H203.028V92.4154C203.028 89.5879 205.133 88.2042 207.179 88.2042C209.344 88.2042 210.517 89.3473 210.517 92.1146V102.041H213.014V92.4154C213.014 89.5879 215.12 88.2042 217.165 88.2042C219.331 88.2042 220.504 89.3473 220.504 92.1146V102.041H223.001V92.2951C223.001 87.723 220.534 86.0385 217.707 86.0385C215.751 86.0385 213.405 86.9409 212.322 88.9863C211.51 86.8807 209.735 86.0385 207.72 86.0385C205.464 86.0385 203.749 87.2417 203.028 88.7156V86.3092H200.531V102.041ZM234.726 102.041H237.223V86.3092H234.726V102.041ZM235.929 83.0305C236.832 83.0305 237.584 82.2785 237.584 81.3761C237.584 80.4737 236.832 79.7217 235.929 79.7217C235.027 79.7217 234.275 80.4737 234.275 81.3761C234.275 82.2785 235.027 83.0305 235.929 83.0305ZM241.731 107.516H244.228V99.4541C245.13 101.018 246.965 102.312 249.552 102.312C253.883 102.312 256.711 99.0029 256.711 94.1901V93.9495C256.711 89.0465 253.673 86.0385 249.552 86.0385C247.266 86.0385 245.13 87.4222 244.228 88.9562V86.3092H241.731V107.516ZM249.311 100.236C246.243 100.236 244.137 98.3412 244.137 94.3105V94.0698C244.137 90.0391 246.363 88.114 249.281 88.114C251.928 88.114 254.124 90.0993 254.124 94.0698V94.3105C254.124 98.1306 252.44 100.236 249.311 100.236ZM264.861 102.312C268.681 102.312 270.636 100.387 270.636 97.529C270.636 94.1901 268.35 93.4682 265.102 92.8666C262.214 92.3553 261.432 91.7837 261.432 90.37C261.432 89.0164 262.605 88.114 264.41 88.114C266.395 88.114 267.358 88.866 267.719 90.5805H270.125C269.704 87.1815 267.268 86.0385 264.44 86.0385C261.973 86.0385 259.116 87.5425 259.116 90.4602C259.116 93.1975 260.5 94.3405 264.59 95.0925C267.027 95.5437 268.26 96.0852 268.26 97.7396C268.26 99.4241 267.207 100.236 264.831 100.236C262.304 100.236 261.312 99.0631 261.131 97.1981H258.695C258.845 100.417 261.101 102.312 264.861 102.312ZM279.163 102.312C281.69 102.312 283.435 101.018 284.157 99.5444V102.041H286.653V86.3092H284.157V95.8445C284.157 98.6721 282.051 100.146 279.825 100.146C277.358 100.146 276.185 98.9127 276.185 96.1453V86.3092H273.689V96.2657C273.689 100.597 276.035 102.312 279.163 102.312ZM291.097 102.041H293.594V92.4154C293.594 89.5879 295.7 88.2042 297.745 88.2042C299.911 88.2042 301.084 89.3473 301.084 92.1146V102.041H303.581V92.4154C303.581 89.5879 305.686 88.2042 307.732 88.2042C309.897 88.2042 311.071 89.3473 311.071 92.1146V102.041H313.567V92.2951C313.567 87.723 311.101 86.0385 308.273 86.0385C306.318 86.0385 303.972 86.9409 302.889 88.9863C302.077 86.8807 300.302 86.0385 298.287 86.0385C296.031 86.0385 294.316 87.2417 293.594 88.7156V86.3092H291.097V102.041ZM325.293 102.041H327.789V86.3092H325.293V102.041ZM326.496 83.0305C327.398 83.0305 328.15 82.2785 328.15 81.3761C328.15 80.4737 327.398 79.7217 326.496 79.7217C325.593 79.7217 324.841 80.4737 324.841 81.3761C324.841 82.2785 325.593 83.0305 326.496 83.0305ZM337.171 102.312C340.991 102.312 342.946 100.387 342.946 97.529C342.946 94.1901 340.66 93.4682 337.411 92.8666C334.524 92.3553 333.741 91.7837 333.741 90.37C333.741 89.0164 334.915 88.114 336.719 88.114C338.705 88.114 339.667 88.866 340.028 90.5805H342.435C342.013 87.1815 339.577 86.0385 336.749 86.0385C334.283 86.0385 331.425 87.5425 331.425 90.4602C331.425 93.1975 332.809 94.3405 336.9 95.0925C339.336 95.5437 340.57 96.0852 340.57 97.7396C340.57 99.4241 339.517 100.236 337.14 100.236C334.614 100.236 333.621 99.0631 333.441 97.1981H331.004C331.155 100.417 333.411 102.312 337.171 102.312ZM353.507 102.041H356.004V93.4081C356.004 89.5278 358.019 88.5351 361.178 88.3847V86.0385C358.35 86.1287 356.997 87.362 356.004 89.1367V86.3092H353.507V102.041ZM370.212 102.312C373.761 102.312 376.378 100.657 376.92 97.4989H374.423C374.092 99.3338 372.678 100.236 370.242 100.236C367.023 100.236 365.309 98.2509 365.188 94.6714H377.04V93.8593C377.04 88.2343 373.611 86.0385 369.971 86.0385C365.64 86.0385 362.602 89.3473 362.602 94.0999V94.3405C362.602 99.1834 365.76 102.312 370.212 102.312ZM365.279 92.6561C365.7 89.8586 367.414 88.114 369.971 88.114C372.558 88.114 374.242 89.4074 374.483 92.6561H365.279ZM380.269 107.516H382.766V99.4541C383.668 101.018 385.503 102.312 388.09 102.312C392.422 102.312 395.249 99.0029 395.249 94.1901V93.9495C395.249 89.0465 392.211 86.0385 388.09 86.0385C385.804 86.0385 383.668 87.4222 382.766 88.9562V86.3092H380.269V107.516ZM387.849 100.236C384.781 100.236 382.676 98.3412 382.676 94.3105V94.0698C382.676 90.0391 384.902 88.114 387.819 88.114C390.466 88.114 392.662 90.0993 392.662 94.0698V94.3105C392.662 98.1306 390.978 100.236 387.849 100.236ZM398.526 102.041H401.023V93.4081C401.023 89.5278 403.038 88.5351 406.197 88.3847V86.0385C403.369 86.1287 402.016 87.362 401.023 89.1367V86.3092H398.526V102.041ZM415.351 100.236C412.162 100.236 410.207 97.89 410.207 94.3105V94.0698C410.207 90.4602 412.193 88.114 415.351 88.114C418.479 88.114 420.495 90.4602 420.495 94.0999V94.3105C420.495 97.8599 418.509 100.236 415.351 100.236ZM415.321 102.312C419.803 102.312 423.082 99.033 423.082 94.2804V94.0397C423.082 89.3172 419.803 86.0385 415.351 86.0385C410.899 86.0385 407.62 89.3473 407.62 94.0698V94.3105C407.62 98.9127 410.839 102.312 415.321 102.312ZM432.271 102.312C434.557 102.312 436.753 100.868 437.656 99.3338V102.041H440.152V78.7892H437.656V88.8359C436.753 87.3018 435.129 86.0385 432.512 86.0385C428.181 86.0385 425.173 89.4375 425.173 94.2503V94.4909C425.173 99.394 428.15 102.312 432.271 102.312ZM432.542 100.236C429.895 100.236 427.759 98.3412 427.759 94.3706V94.13C427.759 90.3098 429.624 88.114 432.753 88.114C435.821 88.114 437.746 90.009 437.746 94.0397V94.2804C437.746 98.3111 435.46 100.236 432.542 100.236ZM449.927 102.312C452.454 102.312 454.198 101.018 454.92 99.5444V102.041H457.417V86.3092H454.92V95.8445C454.92 98.6721 452.815 100.146 450.589 100.146C448.122 100.146 446.949 98.9127 446.949 96.1453V86.3092H444.452V96.2657C444.452 100.597 446.799 102.312 449.927 102.312ZM468.389 102.312C472.179 102.312 474.916 99.785 475.247 96.386H472.931C472.66 98.9428 470.645 100.236 468.419 100.236C465.381 100.236 463.275 98.1908 463.275 94.3405V94.0999C463.275 90.4001 465.471 88.114 468.328 88.114C470.494 88.114 472.299 89.0465 472.69 91.5431H475.157C474.675 87.5425 471.607 86.0385 468.328 86.0385C464.117 86.0385 460.688 89.2871 460.688 94.0999V94.3405C460.688 99.2135 463.997 102.312 468.389 102.312ZM484.852 102.312C488.401 102.312 491.018 100.657 491.559 97.4989H489.063C488.732 99.3338 487.318 100.236 484.882 100.236C481.663 100.236 479.949 98.2509 479.828 94.6714H491.68V93.8593C491.68 88.2343 488.251 86.0385 484.611 86.0385C480.279 86.0385 477.241 89.3473 477.241 94.0999V94.3405C477.241 99.1834 480.4 102.312 484.852 102.312ZM479.919 92.6561C480.34 89.8586 482.054 88.114 484.611 88.114C487.198 88.114 488.882 89.4074 489.123 92.6561H479.919ZM500.835 102.312C503.121 102.312 505.317 100.868 506.219 99.3338V102.041H508.716V78.7892H506.219V88.8359C505.317 87.3018 503.693 86.0385 501.076 86.0385C496.744 86.0385 493.736 89.4375 493.736 94.2503V94.4909C493.736 99.394 496.714 102.312 500.835 102.312ZM501.106 100.236C498.459 100.236 496.323 98.3412 496.323 94.3706V94.13C496.323 90.3098 498.188 88.114 501.316 88.114C504.384 88.114 506.309 90.009 506.309 94.0397V94.2804C506.309 98.3111 504.023 100.236 501.106 100.236ZM55.9457 135.312C58.2619 135.312 59.6756 134.53 60.8487 133.056V135.041H63.3454V124.663C63.3454 120.272 60.6081 119.038 57.6001 119.038C54.562 119.038 51.7044 120.362 51.3736 123.942H53.8702C54.1108 122.016 55.314 121.114 57.4798 121.114C59.8862 121.114 60.8487 122.167 60.8487 124.663V125.806H58.5927C54.562 125.806 50.7118 127.04 50.7118 130.679C50.7118 133.898 53.028 135.312 55.9457 135.312ZM56.1863 133.326C53.9905 133.326 53.2084 132.304 53.2084 130.679C53.2084 128.363 55.5246 127.581 58.683 127.581H60.8487V129.536C60.8487 131.973 58.8334 133.326 56.1863 133.326ZM67.648 135.041H70.1446V125.506C70.1446 122.678 72.2201 121.204 74.5363 121.204C77.063 121.204 78.2361 122.438 78.2361 125.205V135.041H80.7328V125.385C80.7328 120.813 78.4467 119.038 75.1981 119.038C72.6112 119.038 70.8665 120.332 70.1446 121.806V119.309H67.648V135.041ZM89.8968 135.312C93.717 135.312 95.6722 133.387 95.6722 130.529C95.6722 127.19 93.3861 126.468 90.1375 125.867C87.2498 125.355 86.4677 124.784 86.4677 123.37C86.4677 122.016 87.6408 121.114 89.4456 121.114C91.4309 121.114 92.3935 121.866 92.7544 123.581H95.1608C94.7397 120.182 92.3032 119.038 89.4757 119.038C87.0091 119.038 84.1515 120.542 84.1515 123.46C84.1515 126.198 85.5352 127.341 89.6261 128.093C92.0626 128.544 93.2959 129.085 93.2959 130.74C93.2959 132.424 92.2431 133.236 89.8667 133.236C87.34 133.236 86.3474 132.063 86.1669 130.198H83.7304C83.8808 133.417 86.1368 135.312 89.8968 135.312ZM101.886 135.041H104.624L108.293 123.25L111.572 135.041H114.339L119.242 119.309H116.686L112.986 131.973L109.406 119.309H107.241L103.42 131.973L99.7506 119.309H97.0434L101.886 135.041ZM128.151 135.312C131.701 135.312 134.318 133.657 134.859 130.499H132.363C132.032 132.334 130.618 133.236 128.182 133.236C124.963 133.236 123.248 131.251 123.128 127.671H134.98V126.859C134.98 121.234 131.551 119.038 127.911 119.038C123.579 119.038 120.541 122.347 120.541 127.1V127.341C120.541 132.183 123.7 135.312 128.151 135.312ZM123.218 125.656C123.639 122.859 125.354 121.114 127.911 121.114C130.498 121.114 132.182 122.407 132.423 125.656H123.218ZM138.209 135.041H140.706V126.408C140.706 122.528 142.721 121.535 145.879 121.385V119.038C143.052 119.129 141.698 120.362 140.706 122.137V119.309H138.209V135.041ZM153.643 135.312C157.463 135.312 159.418 133.387 159.418 130.529C159.418 127.19 157.132 126.468 153.883 125.867C150.996 125.355 150.214 124.784 150.214 123.37C150.214 122.016 151.387 121.114 153.192 121.114C155.177 121.114 156.139 121.866 156.5 123.581H158.907C158.486 120.182 156.049 119.038 153.222 119.038C150.755 119.038 147.898 120.542 147.898 123.46C147.898 126.198 149.281 127.341 153.372 128.093C155.809 128.544 157.042 129.085 157.042 130.74C157.042 132.424 155.989 133.236 153.613 133.236C151.086 133.236 150.093 132.063 149.913 130.198H147.476C147.627 133.417 149.883 135.312 153.643 135.312ZM174.762 135.252C175.785 135.252 176.387 135.101 176.898 134.921V132.815C176.357 133.026 175.755 133.146 174.973 133.146C173.71 133.146 173.018 132.394 173.018 130.86V121.415H176.688V119.309H173.018V115.73H170.521V119.309H168.265V121.415H170.521V131.101C170.521 133.567 171.905 135.252 174.762 135.252ZM186.628 133.236C183.44 133.236 181.484 130.89 181.484 127.31V127.07C181.484 123.46 183.47 121.114 186.628 121.114C189.756 121.114 191.772 123.46 191.772 127.1V127.31C191.772 130.86 189.786 133.236 186.628 133.236ZM186.598 135.312C191.08 135.312 194.359 132.033 194.359 127.28V127.04C194.359 122.317 191.08 119.038 186.628 119.038C182.176 119.038 178.898 122.347 178.898 127.07V127.31C178.898 131.913 182.116 135.312 186.598 135.312ZM209.855 135.312C213.675 135.312 215.63 133.387 215.63 130.529C215.63 127.19 213.344 126.468 210.095 125.867C207.208 125.355 206.426 124.784 206.426 123.37C206.426 122.016 207.599 121.114 209.404 121.114C211.389 121.114 212.351 121.866 212.712 123.581H215.119C214.698 120.182 212.261 119.038 209.434 119.038C206.967 119.038 204.109 120.542 204.109 123.46C204.109 126.198 205.493 127.341 209.584 128.093C212.021 128.544 213.254 129.085 213.254 130.74C213.254 132.424 212.201 133.236 209.825 133.236C207.298 133.236 206.305 132.063 206.125 130.198H203.688C203.839 133.417 206.095 135.312 209.855 135.312ZM218.833 140.516H221.329V132.454C222.232 134.018 224.067 135.312 226.653 135.312C230.985 135.312 233.813 132.003 233.813 127.19V126.95C233.813 122.046 230.774 119.038 226.653 119.038C224.367 119.038 222.232 120.422 221.329 121.956V119.309H218.833V140.516ZM226.413 133.236C223.345 133.236 221.239 131.341 221.239 127.31V127.07C221.239 123.039 223.465 121.114 226.383 121.114C229.03 121.114 231.226 123.099 231.226 127.07V127.31C231.226 131.131 229.541 133.236 226.413 133.236ZM243.527 135.312C247.076 135.312 249.693 133.657 250.235 130.499H247.738C247.407 132.334 245.993 133.236 243.557 133.236C240.338 133.236 238.624 131.251 238.504 127.671H250.355V126.859C250.355 121.234 246.926 119.038 243.286 119.038C238.955 119.038 235.917 122.347 235.917 127.1V127.341C235.917 132.183 239.075 135.312 243.527 135.312ZM238.594 125.656C239.015 122.859 240.73 121.114 243.286 121.114C245.873 121.114 247.558 122.407 247.798 125.656H238.594ZM260.112 135.312C263.902 135.312 266.639 132.785 266.97 129.386H264.654C264.383 131.943 262.368 133.236 260.142 133.236C257.104 133.236 254.998 131.191 254.998 127.341V127.1C254.998 123.4 257.194 121.114 260.052 121.114C262.217 121.114 264.022 122.046 264.413 124.543H266.88C266.399 120.542 263.33 119.038 260.052 119.038C255.84 119.038 252.411 122.287 252.411 127.1V127.341C252.411 132.213 255.72 135.312 260.112 135.312ZM270.198 135.041H272.695V119.309H270.198V135.041ZM271.401 116.03C272.304 116.03 273.056 115.278 273.056 114.376C273.056 113.474 272.304 112.722 271.401 112.722C270.499 112.722 269.747 113.474 269.747 114.376C269.747 115.278 270.499 116.03 271.401 116.03ZM277.745 135.041H280.241V121.415H284.091V119.309H280.241V116.482C280.241 114.887 280.873 113.774 282.467 113.774C283.159 113.774 283.64 113.865 284.091 114.045V111.94C283.61 111.759 283.189 111.699 282.377 111.699C279.279 111.699 277.745 113.564 277.745 116.752V119.309H275.489V121.415H277.745V135.041ZM286.62 135.041H289.116V119.309H286.62V135.041ZM287.823 116.03C288.725 116.03 289.477 115.278 289.477 114.376C289.477 113.474 288.725 112.722 287.823 112.722C286.921 112.722 286.169 113.474 286.169 114.376C286.169 115.278 286.921 116.03 287.823 116.03ZM300.152 135.312C303.942 135.312 306.68 132.785 307.01 129.386H304.694C304.424 131.943 302.408 133.236 300.182 133.236C297.144 133.236 295.039 131.191 295.039 127.341V127.1C295.039 123.4 297.234 121.114 300.092 121.114C302.258 121.114 304.063 122.046 304.454 124.543H306.92C306.439 120.542 303.371 119.038 300.092 119.038C295.881 119.038 292.452 122.287 292.452 127.1V127.341C292.452 132.213 295.761 135.312 300.152 135.312ZM317.537 135.041H320.034V125.506C320.034 122.678 322.109 121.204 324.426 121.204C326.952 121.204 328.125 122.438 328.125 125.205V135.041H330.622V125.385C330.622 120.813 328.336 119.038 325.087 119.038C322.5 119.038 320.756 120.332 320.034 121.806V119.309H317.537V135.041ZM341.35 135.312C344.9 135.312 347.517 133.657 348.058 130.499H345.561C345.231 132.334 343.817 133.236 341.38 133.236C338.162 133.236 336.447 131.251 336.327 127.671H348.178V126.859C348.178 121.234 344.749 119.038 341.11 119.038C336.778 119.038 333.74 122.347 333.74 127.1V127.341C333.74 132.183 336.898 135.312 341.35 135.312ZM336.417 125.656C336.838 122.859 338.553 121.114 341.11 121.114C343.697 121.114 345.381 122.407 345.622 125.656H336.417ZM357.845 135.312C361.394 135.312 364.011 133.657 364.553 130.499H362.056C361.725 132.334 360.311 133.236 357.875 133.236C354.656 133.236 352.942 131.251 352.822 127.671H364.673V126.859C364.673 121.234 361.244 119.038 357.604 119.038C353.273 119.038 350.235 122.347 350.235 127.1V127.341C350.235 132.183 353.393 135.312 357.845 135.312ZM352.912 125.656C353.333 122.859 355.047 121.114 357.604 121.114C360.191 121.114 361.876 122.407 362.116 125.656H352.912ZM373.828 135.312C376.114 135.312 378.31 133.868 379.212 132.334V135.041H381.709V111.789H379.212V121.836C378.31 120.302 376.686 119.038 374.069 119.038C369.737 119.038 366.729 122.438 366.729 127.25V127.491C366.729 132.394 369.707 135.312 373.828 135.312ZM374.099 133.236C371.452 133.236 369.316 131.341 369.316 127.371V127.13C369.316 123.31 371.181 121.114 374.309 121.114C377.378 121.114 379.303 123.009 379.303 127.04V127.28C379.303 131.311 377.017 133.236 374.099 133.236ZM391.032 135.312C394.853 135.312 396.808 133.387 396.808 130.529C396.808 127.19 394.522 126.468 391.273 125.867C388.385 125.355 387.603 124.784 387.603 123.37C387.603 122.016 388.776 121.114 390.581 121.114C392.567 121.114 393.529 121.866 393.89 123.581H396.296C395.875 120.182 393.439 119.038 390.611 119.038C388.145 119.038 385.287 120.542 385.287 123.46C385.287 126.198 386.671 127.341 390.762 128.093C393.198 128.544 394.432 129.085 394.432 130.74C394.432 132.424 393.379 133.236 391.002 133.236C388.476 133.236 387.483 132.063 387.303 130.198H384.866C385.016 133.417 387.272 135.312 391.032 135.312ZM412.152 135.252C413.175 135.252 413.776 135.101 414.288 134.921V132.815C413.746 133.026 413.145 133.146 412.363 133.146C411.099 133.146 410.408 132.394 410.408 130.86V121.415H414.077V119.309H410.408V115.73H407.911V119.309H405.655V121.415H407.911V131.101C407.911 133.567 409.295 135.252 412.152 135.252ZM417.46 135.041H419.957V125.506C419.957 122.678 422.032 121.204 424.349 121.204C426.875 121.204 428.048 122.438 428.048 125.205V135.041H430.545V125.385C430.545 120.813 428.259 119.038 425.01 119.038C422.424 119.038 420.679 120.332 419.957 121.806V111.789H417.46V135.041ZM438.777 135.312C441.093 135.312 442.507 134.53 443.68 133.056V135.041H446.176V124.663C446.176 120.272 443.439 119.038 440.431 119.038C437.393 119.038 434.535 120.362 434.205 123.942H436.701C436.942 122.016 438.145 121.114 440.311 121.114C442.717 121.114 443.68 122.167 443.68 124.663V125.806H441.424C437.393 125.806 433.543 127.04 433.543 130.679C433.543 133.898 435.859 135.312 438.777 135.312ZM439.017 133.326C436.821 133.326 436.039 132.304 436.039 130.679C436.039 128.363 438.356 127.581 441.514 127.581H443.68V129.536C443.68 131.973 441.664 133.326 439.017 133.326ZM455.262 135.252C456.284 135.252 456.886 135.101 457.397 134.921V132.815C456.856 133.026 456.254 133.146 455.472 133.146C454.209 133.146 453.517 132.394 453.517 130.86V121.415H457.187V119.309H453.517V115.73H451.02V119.309H448.764V121.415H451.02V131.101C451.02 133.567 452.404 135.252 455.262 135.252ZM474.216 140.786C478.607 140.786 481.705 138.56 481.736 133.988V119.309H479.239V121.836C478.337 120.302 476.712 119.038 474.095 119.038C469.764 119.038 466.756 122.588 466.756 126.859V127.07C466.756 131.401 469.794 134.53 473.915 134.53C476.201 134.53 478.337 133.086 479.239 131.552V133.838C479.239 137.207 477.284 138.681 474.185 138.681C471.508 138.681 470.004 137.748 469.643 135.943H467.087C467.508 138.59 469.553 140.786 474.216 140.786ZM474.185 132.454C471.538 132.454 469.343 130.409 469.343 126.98V126.739C469.343 123.43 471.208 121.114 474.336 121.114C477.404 121.114 479.329 123.159 479.329 126.679V126.889C479.329 130.409 477.103 132.454 474.185 132.454ZM492.743 133.236C489.555 133.236 487.6 130.89 487.6 127.31V127.07C487.6 123.46 489.585 121.114 492.743 121.114C495.872 121.114 497.887 123.46 497.887 127.1V127.31C497.887 130.86 495.902 133.236 492.743 133.236ZM492.713 135.312C497.195 135.312 500.474 132.033 500.474 127.28V127.04C500.474 122.317 497.195 119.038 492.743 119.038C488.292 119.038 485.013 122.347 485.013 127.07V127.31C485.013 131.913 488.231 135.312 492.713 135.312ZM59.826 168.312C64.1575 168.312 66.9851 165.003 66.9851 160.19V159.95C66.9851 155.046 63.947 152.038 59.826 152.038C57.5399 152.038 55.4043 153.422 54.5019 154.956V144.789H52.0052V168.041H54.5019V165.454C55.4043 167.018 57.2692 168.312 59.826 168.312ZM59.5854 166.236C56.5172 166.236 54.4116 164.341 54.4116 160.31V160.07C54.4116 156.039 56.6375 154.114 59.5553 154.114C62.2023 154.114 64.3982 156.099 64.3982 160.07V160.31C64.3982 164.131 62.7137 166.236 59.5854 166.236ZM76.6995 168.312C80.2489 168.312 82.8659 166.657 83.4073 163.499H80.9107C80.5798 165.334 79.166 166.236 76.7296 166.236C73.511 166.236 71.7964 164.251 71.6761 160.671H83.5276V159.859C83.5276 154.234 80.0985 152.038 76.4588 152.038C72.1273 152.038 69.0892 155.347 69.0892 160.1V160.341C69.0892 165.183 72.2476 168.312 76.6995 168.312ZM71.7664 158.656C72.1875 155.859 73.902 154.114 76.4588 154.114C79.0457 154.114 80.7302 155.407 80.9708 158.656H71.7664ZM88.0239 173.516H90.5506L99.2437 152.309H96.6869L92.3253 163.589L87.5125 152.309H84.8354L91.0018 166.417L88.0239 173.516ZM108.047 166.236C104.858 166.236 102.903 163.89 102.903 160.31V160.07C102.903 156.46 104.888 154.114 108.047 154.114C111.175 154.114 113.19 156.46 113.19 160.1V160.31C113.19 163.86 111.205 166.236 108.047 166.236ZM108.016 168.312C112.498 168.312 115.777 165.033 115.777 160.28V160.04C115.777 155.317 112.498 152.038 108.047 152.038C103.595 152.038 100.316 155.347 100.316 160.07V160.31C100.316 164.913 103.535 168.312 108.016 168.312ZM119.041 168.041H121.538V158.506C121.538 155.678 123.613 154.204 125.93 154.204C128.456 154.204 129.629 155.438 129.629 158.205V168.041H132.126V158.385C132.126 153.813 129.84 152.038 126.591 152.038C124.004 152.038 122.26 153.332 121.538 154.806V152.309H119.041V168.041ZM142.343 168.312C144.629 168.312 146.825 166.868 147.727 165.334V168.041H150.224V144.789H147.727V154.836C146.825 153.302 145.2 152.038 142.584 152.038C138.252 152.038 135.244 155.438 135.244 160.25V160.491C135.244 165.394 138.222 168.312 142.343 168.312ZM142.614 166.236C139.967 166.236 137.831 164.341 137.831 160.371V160.13C137.831 156.31 139.696 154.114 142.824 154.114C145.892 154.114 147.817 156.009 147.817 160.04V160.28C147.817 164.311 145.531 166.236 142.614 166.236ZM166.816 168.252C167.839 168.252 168.44 168.101 168.952 167.921V165.815C168.41 166.026 167.809 166.146 167.027 166.146C165.763 166.146 165.071 165.394 165.071 163.86V154.415H168.741V152.309H165.071V148.73H162.575V152.309H160.319V154.415H162.575V164.101C162.575 166.567 163.958 168.252 166.816 168.252ZM172.124 168.041H174.621V158.506C174.621 155.678 176.696 154.204 179.012 154.204C181.539 154.204 182.712 155.438 182.712 158.205V168.041H185.209V158.385C185.209 153.813 182.923 152.038 179.674 152.038C177.087 152.038 175.343 153.332 174.621 154.806V144.789H172.124V168.041ZM195.937 168.312C199.487 168.312 202.104 166.657 202.645 163.499H200.148C199.817 165.334 198.404 166.236 195.967 166.236C192.749 166.236 191.034 164.251 190.914 160.671H202.765V159.859C202.765 154.234 199.336 152.038 195.697 152.038C191.365 152.038 188.327 155.347 188.327 160.1V160.341C188.327 165.183 191.485 168.312 195.937 168.312ZM191.004 158.656C191.425 155.859 193.14 154.114 195.697 154.114C198.283 154.114 199.968 155.407 200.208 158.656H191.004ZM218.227 168.312C222.047 168.312 224.002 166.387 224.002 163.529C224.002 160.19 221.716 159.468 218.467 158.867C215.58 158.355 214.798 157.784 214.798 156.37C214.798 155.016 215.971 154.114 217.775 154.114C219.761 154.114 220.723 154.866 221.084 156.581H223.491C223.07 153.182 220.633 152.038 217.806 152.038C215.339 152.038 212.481 153.542 212.481 156.46C212.481 159.198 213.865 160.341 217.956 161.093C220.392 161.544 221.626 162.085 221.626 163.74C221.626 165.424 220.573 166.236 218.197 166.236C215.67 166.236 214.677 165.063 214.497 163.198H212.06C212.211 166.417 214.467 168.312 218.227 168.312ZM227.265 168.041H229.761V152.309H227.265V168.041ZM228.468 149.03C229.37 149.03 230.122 148.278 230.122 147.376C230.122 146.474 229.37 145.722 228.468 145.722C227.566 145.722 226.814 146.474 226.814 147.376C226.814 148.278 227.566 149.03 228.468 149.03ZM234.27 168.041H236.766V158.415C236.766 155.588 238.872 154.204 240.918 154.204C243.083 154.204 244.256 155.347 244.256 158.115V168.041H246.753V158.415C246.753 155.588 248.859 154.204 250.904 154.204C253.07 154.204 254.243 155.347 254.243 158.115V168.041H256.74V158.295C256.74 153.723 254.273 152.038 251.445 152.038C249.49 152.038 247.144 152.941 246.061 154.986C245.249 152.881 243.474 152.038 241.459 152.038C239.203 152.038 237.488 153.242 236.766 154.716V152.309H234.27V168.041ZM261.046 173.516H263.542V165.454C264.445 167.018 266.28 168.312 268.866 168.312C273.198 168.312 276.026 165.003 276.026 160.19V159.95C276.026 155.046 272.987 152.038 268.866 152.038C266.58 152.038 264.445 153.422 263.542 154.956V152.309H261.046V173.516ZM268.626 166.236C265.558 166.236 263.452 164.341 263.452 160.31V160.07C263.452 156.039 265.678 154.114 268.596 154.114C271.243 154.114 273.439 156.099 273.439 160.07V160.31C273.439 164.131 271.754 166.236 268.626 166.236ZM279.363 168.041H281.89V144.789H279.363V168.041ZM292.835 168.312C296.384 168.312 299.001 166.657 299.542 163.499H297.046C296.715 165.334 295.301 166.236 292.865 166.236C289.646 166.236 287.932 164.251 287.811 160.671H299.663V159.859C299.663 154.234 296.234 152.038 292.594 152.038C288.262 152.038 285.224 155.347 285.224 160.1V160.341C285.224 165.183 288.383 168.312 292.835 168.312ZM287.901 158.656C288.323 155.859 290.037 154.114 292.594 154.114C295.181 154.114 296.865 155.407 297.106 158.656H287.901ZM314.192 168.312C316.508 168.312 317.922 167.53 319.095 166.056V168.041H321.591V157.663C321.591 153.272 318.854 152.038 315.846 152.038C312.808 152.038 309.95 153.362 309.619 156.942H312.116C312.357 155.016 313.56 154.114 315.726 154.114C318.132 154.114 319.095 155.167 319.095 157.663V158.806H316.839C312.808 158.806 308.958 160.04 308.958 163.679C308.958 166.898 311.274 168.312 314.192 168.312ZM314.432 166.326C312.236 166.326 311.454 165.304 311.454 163.679C311.454 161.363 313.77 160.581 316.929 160.581H319.095V162.536C319.095 164.973 317.079 166.326 314.432 166.326ZM325.894 168.041H328.391V158.506C328.391 155.678 330.466 154.204 332.782 154.204C335.309 154.204 336.482 155.438 336.482 158.205V168.041H338.979V158.385C338.979 153.813 336.693 152.038 333.444 152.038C330.857 152.038 329.112 153.332 328.391 154.806V152.309H325.894V168.041ZM349.195 168.312C351.482 168.312 353.677 166.868 354.58 165.334V168.041H357.076V144.789H354.58V154.836C353.677 153.302 352.053 152.038 349.436 152.038C345.105 152.038 342.097 155.438 342.097 160.25V160.491C342.097 165.394 345.075 168.312 349.195 168.312ZM349.466 166.236C346.819 166.236 344.683 164.341 344.683 160.371V160.13C344.683 156.31 346.548 154.114 349.677 154.114C352.745 154.114 354.67 156.009 354.67 160.04V160.28C354.67 164.311 352.384 166.236 349.466 166.236ZM373.759 168.312C377.579 168.312 379.534 166.387 379.534 163.529C379.534 160.19 377.248 159.468 373.999 158.867C371.112 158.355 370.33 157.784 370.33 156.37C370.33 155.016 371.503 154.114 373.308 154.114C375.293 154.114 376.255 154.866 376.616 156.581H379.023C378.602 153.182 376.165 152.038 373.338 152.038C370.871 152.038 368.014 153.542 368.014 156.46C368.014 159.198 369.397 160.341 373.488 161.093C375.925 161.544 377.158 162.085 377.158 163.74C377.158 165.424 376.105 166.236 373.729 166.236C371.202 166.236 370.209 165.063 370.029 163.198H367.592C367.743 166.417 369.999 168.312 373.759 168.312ZM382.797 168.041H385.294V152.309H382.797V168.041ZM384 149.03C384.903 149.03 385.655 148.278 385.655 147.376C385.655 146.474 384.903 145.722 384 145.722C383.098 145.722 382.346 146.474 382.346 147.376C382.346 148.278 383.098 149.03 384 149.03ZM389.802 168.041H392.299V158.415C392.299 155.588 394.404 154.204 396.45 154.204C398.615 154.204 399.789 155.347 399.789 158.115V168.041H402.285V158.415C402.285 155.588 404.391 154.204 406.436 154.204C408.602 154.204 409.775 155.347 409.775 158.115V168.041H412.272V158.295C412.272 153.723 409.805 152.038 406.978 152.038C405.022 152.038 402.676 152.941 401.593 154.986C400.781 152.881 399.006 152.038 396.991 152.038C394.735 152.038 393.021 153.242 392.299 154.716V152.309H389.802V168.041ZM416.578 173.516H419.075V165.454C419.977 167.018 421.812 168.312 424.399 168.312C428.73 168.312 431.558 165.003 431.558 160.19V159.95C431.558 155.046 428.52 152.038 424.399 152.038C422.113 152.038 419.977 153.422 419.075 154.956V152.309H416.578V173.516ZM424.158 166.236C421.09 166.236 418.984 164.341 418.984 160.31V160.07C418.984 156.039 421.21 154.114 424.128 154.114C426.775 154.114 428.971 156.099 428.971 160.07V160.31C428.971 164.131 427.286 166.236 424.158 166.236ZM434.895 168.041H437.422V144.789H434.895V168.041ZM448.367 168.312C451.916 168.312 454.533 166.657 455.075 163.499H452.578C452.247 165.334 450.833 166.236 448.397 166.236C445.178 166.236 443.464 164.251 443.343 160.671H455.195V159.859C455.195 154.234 451.766 152.038 448.126 152.038C443.795 152.038 440.757 155.347 440.757 160.1V160.341C440.757 165.183 443.915 168.312 448.367 168.312ZM443.434 158.656C443.855 155.859 445.569 154.114 448.126 154.114C450.713 154.114 452.397 155.407 452.638 158.656H443.434ZM466.325 168.041H468.821V154.415H472.672V152.309H468.821V149.482C468.821 147.887 469.453 146.774 471.047 146.774C471.739 146.774 472.22 146.865 472.672 147.045V144.94C472.19 144.759 471.769 144.699 470.957 144.699C467.859 144.699 466.325 146.564 466.325 149.752V152.309H464.069V154.415H466.325V168.041ZM475.2 168.041H477.697V152.309H475.2V168.041ZM476.403 149.03C477.306 149.03 478.058 148.278 478.058 147.376C478.058 146.474 477.306 145.722 476.403 145.722C475.501 145.722 474.749 146.474 474.749 147.376C474.749 148.278 475.501 149.03 476.403 149.03ZM482.265 168.041H484.792V144.789H482.265V168.041ZM489.36 168.041H491.887V144.789H489.36V168.041ZM496.455 168.041H498.951V152.309H496.455V168.041ZM497.658 149.03C498.56 149.03 499.312 148.278 499.312 147.376C499.312 146.474 498.56 145.722 497.658 145.722C496.755 145.722 496.003 146.474 496.003 147.376C496.003 148.278 496.755 149.03 497.658 149.03ZM503.46 168.041H505.956V158.506C505.956 155.678 508.032 154.204 510.348 154.204C512.875 154.204 514.048 155.438 514.048 158.205V168.041H516.544V158.385C516.544 153.813 514.258 152.038 511.01 152.038C508.423 152.038 506.678 153.332 505.956 154.806V152.309H503.46V168.041ZM527.122 173.786C531.514 173.786 534.612 171.56 534.642 166.988V152.309H532.146V154.836C531.243 153.302 529.619 152.038 527.002 152.038C522.67 152.038 519.662 155.588 519.662 159.859V160.07C519.662 164.401 522.7 167.53 526.821 167.53C529.108 167.53 531.243 166.086 532.146 164.552V166.838C532.146 170.207 530.19 171.681 527.092 171.681C524.415 171.681 522.911 170.748 522.55 168.943H519.993C520.414 171.59 522.46 173.786 527.122 173.786ZM527.092 165.454C524.445 165.454 522.249 163.409 522.249 159.98V159.739C522.249 156.43 524.114 154.114 527.243 154.114C530.311 154.114 532.236 156.159 532.236 159.679V159.889C532.236 163.409 530.01 165.454 527.092 165.454ZM58.5627 199.236C55.3742 199.236 53.419 196.89 53.419 193.31V193.07C53.419 189.46 55.4043 187.114 58.5627 187.114C61.691 187.114 63.7063 189.46 63.7063 193.1V193.31C63.7063 196.86 61.7211 199.236 58.5627 199.236ZM58.5326 201.312C63.0145 201.312 66.2932 198.033 66.2932 193.28V193.04C66.2932 188.317 63.0145 185.038 58.5627 185.038C54.1108 185.038 50.8321 188.347 50.8321 193.07V193.31C50.8321 197.913 54.0507 201.312 58.5326 201.312ZM70.0988 201.041H72.5954V187.415H76.4457V185.309H72.5954V182.482C72.5954 180.887 73.2572 179.774 74.8815 179.774C75.5734 179.774 76.205 179.925 76.6562 180.105V178C76.0246 177.789 75.6034 177.699 74.7913 177.699C71.663 177.699 70.0988 179.564 70.0988 182.752V185.309H67.8428V187.415H70.0988V201.041ZM91.5865 201.312C95.4066 201.312 97.3618 199.387 97.3618 196.529C97.3618 193.19 95.0757 192.468 91.8271 191.867C88.9394 191.355 88.1574 190.784 88.1574 189.37C88.1574 188.016 89.3305 187.114 91.1353 187.114C93.1205 187.114 94.0831 187.866 94.4441 189.581H96.8505C96.4293 186.182 93.9929 185.038 91.1653 185.038C88.6988 185.038 85.8412 186.542 85.8412 189.46C85.8412 192.198 87.2249 193.341 91.3157 194.093C93.7522 194.544 94.9855 195.085 94.9855 196.74C94.9855 198.424 93.9327 199.236 91.5564 199.236C89.0297 199.236 88.037 198.063 87.8566 196.198H85.4201C85.5705 199.417 87.8265 201.312 91.5865 201.312ZM100.564 206.516H103.061V198.454C103.963 200.018 105.798 201.312 108.385 201.312C112.717 201.312 115.544 198.003 115.544 193.19V192.95C115.544 188.046 112.506 185.038 108.385 185.038C106.099 185.038 103.963 186.422 103.061 187.956V185.309H100.564V206.516ZM108.145 199.236C105.076 199.236 102.971 197.341 102.971 193.31V193.07C102.971 189.039 105.197 187.114 108.114 187.114C110.762 187.114 112.957 189.099 112.957 193.07V193.31C112.957 197.131 111.273 199.236 108.145 199.236ZM122.762 201.312C125.078 201.312 126.492 200.53 127.665 199.056V201.041H130.162V190.663C130.162 186.272 127.424 185.038 124.416 185.038C121.378 185.038 118.521 186.362 118.19 189.942H120.686C120.927 188.016 122.13 187.114 124.296 187.114C126.702 187.114 127.665 188.167 127.665 190.663V191.806H125.409C121.378 191.806 117.528 193.04 117.528 196.679C117.528 199.898 119.844 201.312 122.762 201.312ZM123.003 199.326C120.807 199.326 120.025 198.304 120.025 196.679C120.025 194.363 122.341 193.581 125.499 193.581H127.665V195.536C127.665 197.973 125.65 199.326 123.003 199.326ZM140.992 201.312C144.782 201.312 147.519 198.785 147.85 195.386H145.534C145.263 197.943 143.248 199.236 141.022 199.236C137.984 199.236 135.878 197.191 135.878 193.341V193.1C135.878 189.4 138.074 187.114 140.931 187.114C143.097 187.114 144.902 188.046 145.293 190.543H147.76C147.278 186.542 144.21 185.038 140.931 185.038C136.72 185.038 133.291 188.287 133.291 193.1V193.341C133.291 198.213 136.6 201.312 140.992 201.312ZM157.455 201.312C161.004 201.312 163.621 199.657 164.163 196.499H161.666C161.335 198.334 159.921 199.236 157.485 199.236C154.266 199.236 152.552 197.251 152.431 193.671H164.283V192.859C164.283 187.234 160.854 185.038 157.214 185.038C152.883 185.038 149.845 188.347 149.845 193.1V193.341C149.845 198.183 153.003 201.312 157.455 201.312ZM152.522 191.656C152.943 188.859 154.657 187.114 157.214 187.114C159.801 187.114 161.485 188.407 161.726 191.656H152.522ZM172.532 201.312C176.352 201.312 178.307 199.387 178.307 196.529C178.307 193.19 176.021 192.468 172.773 191.867C169.885 191.355 169.103 190.784 169.103 189.37C169.103 188.016 170.276 187.114 172.081 187.114C174.066 187.114 175.029 187.866 175.39 189.581H177.796C177.375 186.182 174.939 185.038 172.111 185.038C169.644 185.038 166.787 186.542 166.787 189.46C166.787 192.198 168.171 193.341 172.261 194.093C174.698 194.544 175.931 195.085 175.931 196.74C175.931 198.424 174.878 199.236 172.502 199.236C169.975 199.236 168.983 198.063 168.802 196.198H166.366C166.516 199.417 168.772 201.312 172.532 201.312ZM194.795 201.312C197.081 201.312 199.277 199.868 200.179 198.334V201.041H202.676V177.789H200.179V187.836C199.277 186.302 197.652 185.038 195.035 185.038C190.704 185.038 187.696 188.438 187.696 193.25V193.491C187.696 198.394 190.674 201.312 194.795 201.312ZM195.066 199.236C192.418 199.236 190.283 197.341 190.283 193.371V193.13C190.283 189.31 192.148 187.114 195.276 187.114C198.344 187.114 200.269 189.009 200.269 193.04V193.28C200.269 197.311 197.983 199.236 195.066 199.236ZM213.563 201.312C217.113 201.312 219.73 199.657 220.271 196.499H217.774C217.444 198.334 216.03 199.236 213.593 199.236C210.375 199.236 208.66 197.251 208.54 193.671H220.391V192.859C220.391 187.234 216.962 185.038 213.323 185.038C208.991 185.038 205.953 188.347 205.953 193.1V193.341C205.953 198.183 209.111 201.312 213.563 201.312ZM208.63 191.656C209.051 188.859 210.766 187.114 213.323 187.114C215.91 187.114 217.594 188.407 217.835 191.656H208.63ZM229.547 201.312C231.833 201.312 234.028 199.868 234.931 198.334V201.041H237.428V177.789H234.931V187.836C234.028 186.302 232.404 185.038 229.787 185.038C225.456 185.038 222.448 188.438 222.448 193.25V193.491C222.448 198.394 225.426 201.312 229.547 201.312ZM229.817 199.236C227.17 199.236 225.035 197.341 225.035 193.371V193.13C225.035 189.31 226.9 187.114 230.028 187.114C233.096 187.114 235.021 189.009 235.021 193.04V193.28C235.021 197.311 232.735 199.236 229.817 199.236ZM241.938 201.041H244.435V185.309H241.938V201.041ZM243.141 182.03C244.044 182.03 244.796 181.278 244.796 180.376C244.796 179.474 244.044 178.722 243.141 178.722C242.239 178.722 241.487 179.474 241.487 180.376C241.487 181.278 242.239 182.03 243.141 182.03ZM255.471 201.312C259.261 201.312 261.998 198.785 262.329 195.386H260.013C259.742 197.943 257.727 199.236 255.501 199.236C252.463 199.236 250.357 197.191 250.357 193.341V193.1C250.357 189.4 252.553 187.114 255.41 187.114C257.576 187.114 259.381 188.046 259.772 190.543H262.239C261.757 186.542 258.689 185.038 255.41 185.038C251.199 185.038 247.77 188.287 247.77 193.1V193.341C247.77 198.213 251.079 201.312 255.471 201.312ZM269.437 201.312C271.753 201.312 273.167 200.53 274.34 199.056V201.041H276.837V190.663C276.837 186.272 274.099 185.038 271.091 185.038C268.053 185.038 265.196 186.362 264.865 189.942H267.362C267.602 188.016 268.805 187.114 270.971 187.114C273.378 187.114 274.34 188.167 274.34 190.663V191.806H272.084C268.053 191.806 264.203 193.04 264.203 196.679C264.203 199.898 266.519 201.312 269.437 201.312ZM269.678 199.326C267.482 199.326 266.7 198.304 266.7 196.679C266.7 194.363 269.016 193.581 272.174 193.581H274.34V195.536C274.34 197.973 272.325 199.326 269.678 199.326ZM285.922 201.252C286.945 201.252 287.546 201.101 288.058 200.921V198.815C287.516 199.026 286.915 199.146 286.133 199.146C284.869 199.146 284.177 198.394 284.177 196.86V187.415H287.847V185.309H284.177V181.73H281.681V185.309H279.425V187.415H281.681V197.101C281.681 199.567 283.064 201.252 285.922 201.252ZM297.667 201.312C301.217 201.312 303.834 199.657 304.375 196.499H301.879C301.548 198.334 300.134 199.236 297.697 199.236C294.479 199.236 292.764 197.251 292.644 193.671H304.495V192.859C304.495 187.234 301.066 185.038 297.427 185.038C293.095 185.038 290.057 188.347 290.057 193.1V193.341C290.057 198.183 293.216 201.312 297.667 201.312ZM292.734 191.656C293.155 188.859 294.87 187.114 297.427 187.114C300.014 187.114 301.698 188.407 301.939 191.656H292.734ZM313.651 201.312C315.937 201.312 318.133 199.868 319.035 198.334V201.041H321.532V177.789H319.035V187.836C318.133 186.302 316.508 185.038 313.891 185.038C309.56 185.038 306.552 188.438 306.552 193.25V193.491C306.552 198.394 309.53 201.312 313.651 201.312ZM313.921 199.236C311.274 199.236 309.139 197.341 309.139 193.371V193.13C309.139 189.31 311.004 187.114 314.132 187.114C317.2 187.114 319.125 189.009 319.125 193.04V193.28C319.125 197.311 316.839 199.236 313.921 199.236ZM338.124 201.252C339.146 201.252 339.748 201.101 340.259 200.921V198.815C339.718 199.026 339.116 199.146 338.334 199.146C337.071 199.146 336.379 198.394 336.379 196.86V187.415H340.049V185.309H336.379V181.73H333.882V185.309H331.626V187.415H333.882V197.101C333.882 199.567 335.266 201.252 338.124 201.252ZM349.989 199.236C346.801 199.236 344.846 196.89 344.846 193.31V193.07C344.846 189.46 346.831 187.114 349.989 187.114C353.118 187.114 355.133 189.46 355.133 193.1V193.31C355.133 196.86 353.148 199.236 349.989 199.236ZM349.959 201.312C354.441 201.312 357.72 198.033 357.72 193.28V193.04C357.72 188.317 354.441 185.038 349.989 185.038C345.537 185.038 342.259 188.347 342.259 193.07V193.31C342.259 197.913 345.477 201.312 349.959 201.312ZM372.284 201.312C374.6 201.312 376.013 200.53 377.187 199.056V201.041H379.683V190.663C379.683 186.272 376.946 185.038 373.938 185.038C370.9 185.038 368.042 186.362 367.711 189.942H370.208C370.449 188.016 371.652 187.114 373.818 187.114C376.224 187.114 377.187 188.167 377.187 190.663V191.806H374.931C370.9 191.806 367.05 193.04 367.05 196.679C367.05 199.898 369.366 201.312 372.284 201.312ZM372.524 199.326C370.328 199.326 369.546 198.304 369.546 196.679C369.546 194.363 371.862 193.581 375.021 193.581H377.187V195.536C377.187 197.973 375.171 199.326 372.524 199.326ZM390.513 201.312C394.303 201.312 397.04 198.785 397.371 195.386H395.055C394.784 197.943 392.769 199.236 390.543 199.236C387.505 199.236 385.4 197.191 385.4 193.341V193.1C385.4 189.4 387.595 187.114 390.453 187.114C392.619 187.114 394.424 188.046 394.815 190.543H397.281C396.8 186.542 393.732 185.038 390.453 185.038C386.242 185.038 382.813 188.287 382.813 193.1V193.341C382.813 198.213 386.121 201.312 390.513 201.312ZM407.067 201.312C410.857 201.312 413.594 198.785 413.925 195.386H411.609C411.338 197.943 409.323 199.236 407.097 199.236C404.059 199.236 401.953 197.191 401.953 193.341V193.1C401.953 189.4 404.149 187.114 407.006 187.114C409.172 187.114 410.977 188.046 411.368 190.543H413.835C413.353 186.542 410.285 185.038 407.006 185.038C402.795 185.038 399.366 188.287 399.366 193.1V193.341C399.366 198.213 402.675 201.312 407.067 201.312ZM423.53 201.312C427.079 201.312 429.696 199.657 430.237 196.499H427.741C427.41 198.334 425.996 199.236 423.56 199.236C420.341 199.236 418.627 197.251 418.506 193.671H430.358V192.859C430.358 187.234 426.929 185.038 423.289 185.038C418.958 185.038 415.919 188.347 415.919 193.1V193.341C415.919 198.183 419.078 201.312 423.53 201.312ZM418.597 191.656C419.018 188.859 420.732 187.114 423.289 187.114C425.876 187.114 427.56 188.407 427.801 191.656H418.597ZM433.587 206.516H436.084V198.454C436.986 200.018 438.821 201.312 441.408 201.312C445.739 201.312 448.567 198.003 448.567 193.19V192.95C448.567 188.046 445.529 185.038 441.408 185.038C439.122 185.038 436.986 186.422 436.084 187.956V185.309H433.587V206.516ZM441.167 199.236C438.099 199.236 435.994 197.341 435.994 193.31V193.07C435.994 189.039 438.219 187.114 441.137 187.114C443.784 187.114 445.98 189.099 445.98 193.07V193.31C445.98 197.131 444.296 199.236 441.167 199.236ZM456.627 201.252C457.65 201.252 458.251 201.101 458.763 200.921V198.815C458.221 199.026 457.62 199.146 456.838 199.146C455.574 199.146 454.882 198.394 454.882 196.86V187.415H458.552V185.309H454.882V181.73H452.386V185.309H450.13V187.415H452.386V197.101C452.386 199.567 453.769 201.252 456.627 201.252ZM461.995 201.041H464.492V185.309H461.995V201.041ZM463.199 182.03C464.101 182.03 464.853 181.278 464.853 180.376C464.853 179.474 464.101 178.722 463.199 178.722C462.296 178.722 461.544 179.474 461.544 180.376C461.544 181.278 462.296 182.03 463.199 182.03ZM469 201.041H471.497V191.506C471.497 188.678 473.573 187.204 475.889 187.204C478.415 187.204 479.589 188.438 479.589 191.205V201.041H482.085V191.385C482.085 186.813 479.799 185.038 476.551 185.038C473.964 185.038 472.219 186.332 471.497 187.806V185.309H469V201.041ZM492.663 206.786C497.055 206.786 500.153 204.56 500.183 199.988V185.309H497.686V187.836C496.784 186.302 495.16 185.038 492.543 185.038C488.211 185.038 485.203 188.588 485.203 192.859V193.07C485.203 197.401 488.241 200.53 492.362 200.53C494.648 200.53 496.784 199.086 497.686 197.552V199.838C497.686 203.207 495.731 204.681 492.633 204.681C489.956 204.681 488.452 203.748 488.091 201.943H485.534C485.955 204.59 488.001 206.786 492.663 206.786ZM492.633 198.454C489.986 198.454 487.79 196.409 487.79 192.98V192.739C487.79 189.43 489.655 187.114 492.783 187.114C495.852 187.114 497.777 189.159 497.777 192.679V192.889C497.777 196.409 495.551 198.454 492.633 198.454ZM52.0052 234.041H54.5019V225.408C54.5019 221.528 56.5172 220.535 59.6756 220.385V218.038C56.8481 218.129 55.4945 219.362 54.5019 221.137V218.309H52.0052V234.041ZM68.7095 234.312C72.2589 234.312 74.8759 232.657 75.4173 229.499H72.9207C72.5898 231.334 71.176 232.236 68.7396 232.236C65.521 232.236 63.8064 230.251 63.6861 226.671H75.5376V225.859C75.5376 220.234 72.1085 218.038 68.4688 218.038C64.1373 218.038 61.0993 221.347 61.0993 226.1V226.341C61.0993 231.183 64.2576 234.312 68.7095 234.312ZM63.7764 224.656C64.1975 221.859 65.912 220.114 68.4688 220.114C71.0557 220.114 72.7402 221.407 72.9808 224.656H63.7764ZM82.8543 234.312C85.1705 234.312 86.5843 233.53 87.7574 232.056V234.041H90.254V223.663C90.254 219.272 87.5167 218.038 84.5087 218.038C81.4707 218.038 78.6131 219.362 78.2822 222.942H80.7788C81.0195 221.016 82.2227 220.114 84.3884 220.114C86.7948 220.114 87.7574 221.167 87.7574 223.663V224.806H85.5014C81.4707 224.806 77.6204 226.04 77.6204 229.679C77.6204 232.898 79.9366 234.312 82.8543 234.312ZM83.095 232.326C80.8992 232.326 80.1171 231.304 80.1171 229.679C80.1171 227.363 82.4332 226.581 85.5916 226.581H87.7574V228.536C87.7574 230.973 85.742 232.326 83.095 232.326ZM94.6168 234.041H97.1435V210.789H94.6168V234.041ZM113.793 234.252C114.816 234.252 115.417 234.101 115.929 233.921V231.815C115.387 232.026 114.786 232.146 114.004 232.146C112.74 232.146 112.048 231.394 112.048 229.86V220.415H115.718V218.309H112.048V214.73H109.552V218.309H107.296V220.415H109.552V230.101C109.552 232.567 110.935 234.252 113.793 234.252ZM125.538 234.312C129.088 234.312 131.705 232.657 132.246 229.499H129.749C129.419 231.334 128.005 232.236 125.568 232.236C122.35 232.236 120.635 230.251 120.515 226.671H132.366V225.859C132.366 220.234 128.937 218.038 125.298 218.038C120.966 218.038 117.928 221.347 117.928 226.1V226.341C117.928 231.183 121.086 234.312 125.538 234.312ZM120.605 224.656C121.026 221.859 122.741 220.114 125.298 220.114C127.885 220.114 129.569 221.407 129.81 224.656H120.605ZM133.471 234.041H136.148L140.479 227.694L144.721 234.041H147.668L141.923 225.769L147.127 218.309H144.42L140.6 224.024L136.749 218.309H133.832L139.096 225.95L133.471 234.041ZM155.228 234.252C156.251 234.252 156.852 234.101 157.364 233.921V231.815C156.822 232.026 156.221 232.146 155.439 232.146C154.175 232.146 153.484 231.394 153.484 229.86V220.415H157.153V218.309H153.484V214.73H150.987V218.309H148.731V220.415H150.987V230.101C150.987 232.567 152.371 234.252 155.228 234.252ZM165.409 234.312C169.229 234.312 171.185 232.387 171.185 229.529C171.185 226.19 168.899 225.468 165.65 224.867C162.762 224.355 161.98 223.784 161.98 222.37C161.98 221.016 163.153 220.114 164.958 220.114C166.943 220.114 167.906 220.866 168.267 222.581H170.673C170.252 219.182 167.816 218.038 164.988 218.038C162.522 218.038 159.664 219.542 159.664 222.46C159.664 225.198 161.048 226.341 165.139 227.093C167.575 227.544 168.808 228.085 168.808 229.74C168.808 231.424 167.756 232.236 165.379 232.236C162.852 232.236 161.86 231.063 161.679 229.198H159.243C159.393 232.417 161.649 234.312 165.409 234.312ZM185.687 234.312C188.003 234.312 189.417 233.53 190.59 232.056V234.041H193.086V223.663C193.086 219.272 190.349 218.038 187.341 218.038C184.303 218.038 181.445 219.362 181.115 222.942H183.611C183.852 221.016 185.055 220.114 187.221 220.114C189.627 220.114 190.59 221.167 190.59 223.663V224.806H188.334C184.303 224.806 180.453 226.04 180.453 229.679C180.453 232.898 182.769 234.312 185.687 234.312ZM185.927 232.326C183.731 232.326 182.949 231.304 182.949 229.679C182.949 227.363 185.266 226.581 188.424 226.581H190.59V228.536C190.59 230.973 188.574 232.326 185.927 232.326ZM197.389 234.041H199.886V224.506C199.886 221.678 201.961 220.204 204.277 220.204C206.804 220.204 207.977 221.438 207.977 224.205V234.041H210.474V224.385C210.474 219.813 208.188 218.038 204.939 218.038C202.352 218.038 200.608 219.332 199.886 220.806V218.309H197.389V234.041ZM220.691 234.312C222.977 234.312 225.173 232.868 226.075 231.334V234.041H228.572V210.789H226.075V220.836C225.173 219.302 223.548 218.038 220.931 218.038C216.6 218.038 213.592 221.438 213.592 226.25V226.491C213.592 231.394 216.57 234.312 220.691 234.312ZM220.961 232.236C218.314 232.236 216.179 230.341 216.179 226.371V226.13C216.179 222.31 218.044 220.114 221.172 220.114C224.24 220.114 226.165 222.009 226.165 226.04V226.28C226.165 230.311 223.879 232.236 220.961 232.236ZM244.321 234.312C246.638 234.312 248.051 233.53 249.225 232.056V234.041H251.721V223.663C251.721 219.272 248.984 218.038 245.976 218.038C242.938 218.038 240.08 219.362 239.749 222.942H242.246C242.487 221.016 243.69 220.114 245.856 220.114C248.262 220.114 249.225 221.167 249.225 223.663V224.806H246.969C242.938 224.806 239.088 226.04 239.088 229.679C239.088 232.898 241.404 234.312 244.321 234.312ZM244.562 232.326C242.366 232.326 241.584 231.304 241.584 229.679C241.584 227.363 243.9 226.581 247.059 226.581H249.225V228.536C249.225 230.973 247.209 232.326 244.562 232.326ZM256.084 234.041H258.611V210.789H256.084V234.041ZM263.179 234.041H265.705V210.789H263.179V234.041ZM276.77 232.236C273.582 232.236 271.627 229.89 271.627 226.31V226.07C271.627 222.46 273.612 220.114 276.77 220.114C279.899 220.114 281.914 222.46 281.914 226.1V226.31C281.914 229.86 279.929 232.236 276.77 232.236ZM276.74 234.312C281.222 234.312 284.501 231.033 284.501 226.28V226.04C284.501 221.317 281.222 218.038 276.77 218.038C272.319 218.038 269.04 221.347 269.04 226.07V226.31C269.04 230.913 272.258 234.312 276.74 234.312ZM290.63 234.041H293.367L297.037 222.25L300.316 234.041H303.083L307.986 218.309H305.429L301.729 230.973L298.15 218.309H295.984L292.164 230.973L288.494 218.309H285.787L290.63 234.041ZM310.812 234.041H313.308V218.309H310.812V234.041ZM312.015 215.03C312.917 215.03 313.669 214.278 313.669 213.376C313.669 212.474 312.917 211.722 312.015 211.722C311.113 211.722 310.361 212.474 310.361 213.376C310.361 214.278 311.113 215.03 312.015 215.03ZM317.817 234.041H320.314V224.506C320.314 221.678 322.389 220.204 324.705 220.204C327.232 220.204 328.405 221.438 328.405 224.205V234.041H330.902V224.385C330.902 219.813 328.616 218.038 325.367 218.038C322.78 218.038 321.035 219.332 320.314 220.806V218.309H317.817V234.041ZM341.48 239.786C345.871 239.786 348.969 237.56 348.999 232.988V218.309H346.503V220.836C345.6 219.302 343.976 218.038 341.359 218.038C337.028 218.038 334.02 221.588 334.02 225.859V226.07C334.02 230.401 337.058 233.53 341.179 233.53C343.465 233.53 345.6 232.086 346.503 230.552V232.838C346.503 236.207 344.548 237.681 341.449 237.681C338.772 237.681 337.268 236.748 336.907 234.943H334.351C334.772 237.59 336.817 239.786 341.48 239.786ZM341.449 231.454C338.802 231.454 336.607 229.409 336.607 225.98V225.739C336.607 222.43 338.472 220.114 341.6 220.114C344.668 220.114 346.593 222.159 346.593 225.679V225.889C346.593 229.409 344.367 231.454 341.449 231.454ZM365.592 234.252C366.614 234.252 367.216 234.101 367.727 233.921V231.815C367.186 232.026 366.584 232.146 365.802 232.146C364.539 232.146 363.847 231.394 363.847 229.86V220.415H367.517V218.309H363.847V214.73H361.35V218.309H359.094V220.415H361.35V230.101C361.35 232.567 362.734 234.252 365.592 234.252ZM377.457 232.236C374.269 232.236 372.314 229.89 372.314 226.31V226.07C372.314 222.46 374.299 220.114 377.457 220.114C380.586 220.114 382.601 222.46 382.601 226.1V226.31C382.601 229.86 380.616 232.236 377.457 232.236ZM377.427 234.312C381.909 234.312 385.188 231.033 385.188 226.28V226.04C385.188 221.317 381.909 218.038 377.457 218.038C373.005 218.038 369.727 221.347 369.727 226.07V226.31C369.727 230.913 372.945 234.312 377.427 234.312ZM395.811 234.041H398.308V224.506C398.308 221.678 400.383 220.204 402.699 220.204C405.226 220.204 406.399 221.438 406.399 224.205V234.041H408.896V224.385C408.896 219.813 406.61 218.038 403.361 218.038C400.774 218.038 399.03 219.332 398.308 220.806V210.789H395.811V234.041ZM417.127 234.312C419.443 234.312 420.857 233.53 422.03 232.056V234.041H424.527V223.663C424.527 219.272 421.79 218.038 418.782 218.038C415.744 218.038 412.886 219.362 412.555 222.942H415.052C415.292 221.016 416.496 220.114 418.661 220.114C421.068 220.114 422.03 221.167 422.03 223.663V224.806H419.774C415.744 224.806 411.893 226.04 411.893 229.679C411.893 232.898 414.21 234.312 417.127 234.312ZM417.368 232.326C415.172 232.326 414.39 231.304 414.39 229.679C414.39 227.363 416.706 226.581 419.865 226.581H422.03V228.536C422.03 230.973 420.015 232.326 417.368 232.326ZM432.329 234.041H435.518L441.173 218.309H438.586L433.984 231.514L429.321 218.309H426.614L432.329 234.041ZM449.852 234.312C453.401 234.312 456.018 232.657 456.56 229.499H454.063C453.732 231.334 452.319 232.236 449.882 232.236C446.664 232.236 444.949 230.251 444.829 226.671H456.68V225.859C456.68 220.234 453.251 218.038 449.611 218.038C445.28 218.038 442.242 221.347 442.242 226.1V226.341C442.242 231.183 445.4 234.312 449.852 234.312ZM444.919 224.656C445.34 221.859 447.055 220.114 449.611 220.114C452.198 220.114 453.883 221.407 454.123 224.656H444.919ZM467.269 234.041H469.765V224.506C469.765 221.678 471.841 220.204 474.157 220.204C476.684 220.204 477.857 221.438 477.857 224.205V234.041H480.353V224.385C480.353 219.813 478.067 218.038 474.819 218.038C472.232 218.038 470.487 219.332 469.765 220.806V210.789H467.269V234.041ZM488.585 234.312C490.901 234.312 492.315 233.53 493.488 232.056V234.041H495.985V223.663C495.985 219.272 493.247 218.038 490.239 218.038C487.201 218.038 484.344 219.362 484.013 222.942H486.509C486.75 221.016 487.953 220.114 490.119 220.114C492.525 220.114 493.488 221.167 493.488 223.663V224.806H491.232C487.201 224.806 483.351 226.04 483.351 229.679C483.351 232.898 485.667 234.312 488.585 234.312ZM488.826 232.326C486.63 232.326 485.848 231.304 485.848 229.679C485.848 227.363 488.164 226.581 491.322 226.581H493.488V228.536C493.488 230.973 491.473 232.326 488.826 232.326ZM500.287 234.041H502.784V224.506C502.784 221.678 504.859 220.204 507.175 220.204C509.702 220.204 510.875 221.438 510.875 224.205V234.041H513.372V224.385C513.372 219.813 511.086 218.038 507.837 218.038C505.25 218.038 503.506 219.332 502.784 220.806V218.309H500.287V234.041ZM523.589 234.312C525.875 234.312 528.071 232.868 528.973 231.334V234.041H531.47V210.789H528.973V220.836C528.071 219.302 526.446 218.038 523.829 218.038C519.498 218.038 516.49 221.438 516.49 226.25V226.491C516.49 231.394 519.468 234.312 523.589 234.312ZM523.859 232.236C521.212 232.236 519.077 230.341 519.077 226.371V226.13C519.077 222.31 520.942 220.114 524.07 220.114C527.138 220.114 529.063 222.009 529.063 226.04V226.28C529.063 230.311 526.777 232.236 523.859 232.236ZM540.793 234.312C544.613 234.312 546.568 232.387 546.568 229.529C546.568 226.19 544.282 225.468 541.034 224.867C538.146 224.355 537.364 223.784 537.364 222.37C537.364 221.016 538.537 220.114 540.342 220.114C542.327 220.114 543.29 220.866 543.651 222.581H546.057C545.636 219.182 543.2 218.038 540.372 218.038C537.905 218.038 535.048 219.542 535.048 222.46C535.048 225.198 536.432 226.341 540.522 227.093C542.959 227.544 544.192 228.085 544.192 229.74C544.192 231.424 543.139 232.236 540.763 232.236C538.236 232.236 537.244 231.063 537.063 229.198H534.627C534.777 232.417 537.033 234.312 540.793 234.312ZM55.9457 267.312C58.2619 267.312 59.6756 266.53 60.8487 265.056V267.041H63.3454V256.663C63.3454 252.272 60.6081 251.038 57.6001 251.038C54.562 251.038 51.7044 252.362 51.3736 255.942H53.8702C54.1108 254.016 55.314 253.114 57.4798 253.114C59.8862 253.114 60.8487 254.167 60.8487 256.663V257.806H58.5927C54.562 257.806 50.7118 259.04 50.7118 262.679C50.7118 265.898 53.028 267.312 55.9457 267.312ZM56.1863 265.326C53.9905 265.326 53.2084 264.304 53.2084 262.679C53.2084 260.363 55.5246 259.581 58.683 259.581H60.8487V261.536C60.8487 263.973 58.8334 265.326 56.1863 265.326ZM67.648 267.041H70.1446V257.506C70.1446 254.678 72.2201 253.204 74.5363 253.204C77.063 253.204 78.2361 254.438 78.2361 257.205V267.041H80.7328V257.385C80.7328 252.813 78.4467 251.038 75.1981 251.038C72.6112 251.038 70.8665 252.332 70.1446 253.806V251.309H67.648V267.041ZM96.3234 267.312C98.6395 267.312 100.053 266.53 101.226 265.056V267.041H103.723V256.663C103.723 252.272 100.986 251.038 97.9778 251.038C94.9397 251.038 92.0821 252.362 91.7512 255.942H94.2478C94.4885 254.016 95.6917 253.114 97.8574 253.114C100.264 253.114 101.226 254.167 101.226 256.663V257.806H98.9704C94.9397 257.806 91.0894 259.04 91.0894 262.679C91.0894 265.898 93.4056 267.312 96.3234 267.312ZM96.564 265.326C94.3682 265.326 93.5861 264.304 93.5861 262.679C93.5861 260.363 95.9022 259.581 99.0606 259.581H101.226V261.536C101.226 263.973 99.211 265.326 96.564 265.326ZM113.951 267.312C116.237 267.312 118.433 265.868 119.336 264.334V267.041H121.832V243.789H119.336V253.836C118.433 252.302 116.809 251.038 114.192 251.038C109.861 251.038 106.853 254.438 106.853 259.25V259.491C106.853 264.394 109.83 267.312 113.951 267.312ZM114.222 265.236C111.575 265.236 109.439 263.341 109.439 259.371V259.13C109.439 255.31 111.304 253.114 114.433 253.114C117.501 253.114 119.426 255.009 119.426 259.04V259.28C119.426 263.311 117.14 265.236 114.222 265.236ZM130.223 267.041H133.412L139.067 251.309H136.48L131.878 264.514L127.215 251.309H124.508L130.223 267.041ZM147.746 267.312C151.295 267.312 153.912 265.657 154.454 262.499H151.957C151.626 264.334 150.212 265.236 147.776 265.236C144.557 265.236 142.843 263.251 142.722 259.671H154.574V258.859C154.574 253.234 151.145 251.038 147.505 251.038C143.174 251.038 140.136 254.347 140.136 259.1V259.341C140.136 264.183 143.294 267.312 147.746 267.312ZM142.813 257.656C143.234 254.859 144.948 253.114 147.505 253.114C150.092 253.114 151.776 254.407 152.017 257.656H142.813ZM157.803 267.041H160.3V258.408C160.3 254.528 162.315 253.535 165.474 253.385V251.038C162.646 251.129 161.293 252.362 160.3 254.137V251.309H157.803V267.041ZM173.441 267.252C174.463 267.252 175.065 267.101 175.576 266.921V264.815C175.035 265.026 174.433 265.146 173.651 265.146C172.388 265.146 171.696 264.394 171.696 262.86V253.415H175.366V251.309H171.696V247.73H169.199V251.309H166.943V253.415H169.199V263.101C169.199 265.567 170.583 267.252 173.441 267.252ZM178.809 267.041H181.306V251.309H178.809V267.041ZM180.012 248.03C180.915 248.03 181.667 247.278 181.667 246.376C181.667 245.474 180.915 244.722 180.012 244.722C179.11 244.722 178.358 245.474 178.358 246.376C178.358 247.278 179.11 248.03 180.012 248.03ZM190.687 267.312C194.507 267.312 196.462 265.387 196.462 262.529C196.462 259.19 194.176 258.468 190.928 257.867C188.04 257.355 187.258 256.784 187.258 255.37C187.258 254.016 188.431 253.114 190.236 253.114C192.221 253.114 193.184 253.866 193.545 255.581H195.951C195.53 252.182 193.093 251.038 190.266 251.038C187.799 251.038 184.942 252.542 184.942 255.46C184.942 258.198 186.325 259.341 190.416 260.093C192.853 260.544 194.086 261.085 194.086 262.74C194.086 264.424 193.033 265.236 190.657 265.236C188.13 265.236 187.138 264.063 186.957 262.198H184.521C184.671 265.417 186.927 267.312 190.687 267.312ZM199.725 267.041H202.222V251.309H199.725V267.041ZM200.928 248.03C201.831 248.03 202.583 247.278 202.583 246.376C202.583 245.474 201.831 244.722 200.928 244.722C200.026 244.722 199.274 245.474 199.274 246.376C199.274 247.278 200.026 248.03 200.928 248.03ZM206.73 267.041H209.227V257.506C209.227 254.678 211.302 253.204 213.619 253.204C216.145 253.204 217.318 254.438 217.318 257.205V267.041H219.815V257.385C219.815 252.813 217.529 251.038 214.28 251.038C211.693 251.038 209.949 252.332 209.227 253.806V251.309H206.73V267.041ZM230.393 272.786C234.784 272.786 237.883 270.56 237.913 265.988V251.309H235.416V253.836C234.514 252.302 232.889 251.038 230.272 251.038C225.941 251.038 222.933 254.588 222.933 258.859V259.07C222.933 263.401 225.971 266.53 230.092 266.53C232.378 266.53 234.514 265.086 235.416 263.552V265.838C235.416 269.207 233.461 270.681 230.363 270.681C227.686 270.681 226.182 269.748 225.821 267.943H223.264C223.685 270.59 225.73 272.786 230.393 272.786ZM230.363 264.454C227.716 264.454 225.52 262.409 225.52 258.98V258.739C225.52 255.43 227.385 253.114 230.513 253.114C233.581 253.114 235.506 255.159 235.506 258.679V258.889C235.506 262.409 233.28 264.454 230.363 264.454ZM240.017 271.493H242.303L251.056 243.699H248.77L240.017 271.493ZM252.102 272.516H254.598V264.454C255.501 266.018 257.336 267.312 259.922 267.312C264.254 267.312 267.081 264.003 267.081 259.19V258.95C267.081 254.046 264.043 251.038 259.922 251.038C257.636 251.038 255.501 252.422 254.598 253.956V251.309H252.102V272.516ZM259.682 265.236C256.614 265.236 254.508 263.341 254.508 259.31V259.07C254.508 255.039 256.734 253.114 259.652 253.114C262.299 253.114 264.495 255.099 264.495 259.07V259.31C264.495 263.131 262.81 265.236 259.682 265.236ZM275.683 267.312C278.21 267.312 279.954 266.018 280.676 264.544V267.041H283.173V251.309H280.676V260.845C280.676 263.672 278.571 265.146 276.345 265.146C273.878 265.146 272.705 263.913 272.705 261.145V251.309H270.208V261.266C270.208 265.597 272.555 267.312 275.683 267.312ZM295.438 267.312C299.769 267.312 302.597 264.003 302.597 259.19V258.95C302.597 254.046 299.559 251.038 295.438 251.038C293.152 251.038 291.016 252.422 290.114 253.956V243.789H287.617V267.041H290.114V264.454C291.016 266.018 292.881 267.312 295.438 267.312ZM295.197 265.236C292.129 265.236 290.024 263.341 290.024 259.31V259.07C290.024 255.039 292.249 253.114 295.167 253.114C297.814 253.114 300.01 255.099 300.01 259.07V259.31C300.01 263.131 298.326 265.236 295.197 265.236ZM305.934 267.041H308.461V243.789H305.934V267.041ZM313.029 267.041H315.526V251.309H313.029V267.041ZM314.232 248.03C315.135 248.03 315.887 247.278 315.887 246.376C315.887 245.474 315.135 244.722 314.232 244.722C313.33 244.722 312.578 245.474 312.578 246.376C312.578 247.278 313.33 248.03 314.232 248.03ZM324.907 267.312C328.727 267.312 330.682 265.387 330.682 262.529C330.682 259.19 328.396 258.468 325.148 257.867C322.26 257.355 321.478 256.784 321.478 255.37C321.478 254.016 322.651 253.114 324.456 253.114C326.441 253.114 327.404 253.866 327.765 255.581H330.171C329.75 252.182 327.313 251.038 324.486 251.038C322.019 251.038 319.162 252.542 319.162 255.46C319.162 258.198 320.545 259.341 324.636 260.093C327.073 260.544 328.306 261.085 328.306 262.74C328.306 264.424 327.253 265.236 324.877 265.236C322.35 265.236 321.358 264.063 321.177 262.198H318.741C318.891 265.417 321.147 267.312 324.907 267.312ZM333.885 267.041H336.382V257.506C336.382 254.678 338.457 253.204 340.773 253.204C343.3 253.204 344.473 254.438 344.473 257.205V267.041H346.97V257.385C346.97 252.813 344.684 251.038 341.435 251.038C338.848 251.038 337.104 252.332 336.382 253.806V243.789H333.885V267.041ZM351.321 267.041H353.818V251.309H351.321V267.041ZM352.524 248.03C353.427 248.03 354.179 247.278 354.179 246.376C354.179 245.474 353.427 244.722 352.524 244.722C351.622 244.722 350.87 245.474 350.87 246.376C350.87 247.278 351.622 248.03 352.524 248.03ZM358.326 267.041H360.823V257.506C360.823 254.678 362.898 253.204 365.214 253.204C367.741 253.204 368.914 254.438 368.914 257.205V267.041H371.411V257.385C371.411 252.813 369.125 251.038 365.876 251.038C363.289 251.038 361.545 252.332 360.823 253.806V251.309H358.326V267.041ZM381.989 272.786C386.38 272.786 389.479 270.56 389.509 265.988V251.309H387.012V253.836C386.11 252.302 384.485 251.038 381.868 251.038C377.537 251.038 374.529 254.588 374.529 258.859V259.07C374.529 263.401 377.567 266.53 381.688 266.53C383.974 266.53 386.11 265.086 387.012 263.552V265.838C387.012 269.207 385.057 270.681 381.959 270.681C379.282 270.681 377.778 269.748 377.417 267.943H374.86C375.281 270.59 377.326 272.786 381.989 272.786ZM381.959 264.454C379.312 264.454 377.116 262.409 377.116 258.98V258.739C377.116 255.43 378.981 253.114 382.109 253.114C385.177 253.114 387.102 255.159 387.102 258.679V258.889C387.102 262.409 384.876 264.454 381.959 264.454ZM401.318 272.516H403.815V264.454C404.717 266.018 406.552 267.312 409.139 267.312C413.47 267.312 416.298 264.003 416.298 259.19V258.95C416.298 254.046 413.26 251.038 409.139 251.038C406.853 251.038 404.717 252.422 403.815 253.956V251.309H401.318V272.516ZM408.898 265.236C405.83 265.236 403.725 263.341 403.725 259.31V259.07C403.725 255.039 405.951 253.114 408.868 253.114C411.515 253.114 413.711 255.099 413.711 259.07V259.31C413.711 263.131 412.027 265.236 408.898 265.236ZM419.575 267.041H422.072V258.408C422.072 254.528 424.087 253.535 427.246 253.385V251.038C424.418 251.129 423.065 252.362 422.072 254.137V251.309H419.575V267.041ZM436.4 265.236C433.211 265.236 431.256 262.89 431.256 259.31V259.07C431.256 255.46 433.241 253.114 436.4 253.114C439.528 253.114 441.544 255.46 441.544 259.1V259.31C441.544 262.86 439.558 265.236 436.4 265.236ZM436.37 267.312C440.852 267.312 444.13 264.033 444.13 259.28V259.04C444.13 254.317 440.852 251.038 436.4 251.038C431.948 251.038 428.669 254.347 428.669 259.07V259.31C428.669 263.913 431.888 267.312 436.37 267.312ZM453.32 267.312C455.606 267.312 457.802 265.868 458.705 264.334V267.041H461.201V243.789H458.705V253.836C457.802 252.302 456.178 251.038 453.561 251.038C449.229 251.038 446.221 254.438 446.221 259.25V259.491C446.221 264.394 449.199 267.312 453.32 267.312ZM453.591 265.236C450.944 265.236 448.808 263.341 448.808 259.371V259.13C448.808 255.31 450.673 253.114 453.802 253.114C456.87 253.114 458.795 255.009 458.795 259.04V259.28C458.795 263.311 456.509 265.236 453.591 265.236ZM470.976 267.312C473.503 267.312 475.247 266.018 475.969 264.544V267.041H478.466V251.309H475.969V260.845C475.969 263.672 473.864 265.146 471.638 265.146C469.171 265.146 467.998 263.913 467.998 261.145V251.309H465.501V261.266C465.501 265.597 467.848 267.312 470.976 267.312ZM489.437 267.312C493.228 267.312 495.965 264.785 496.296 261.386H493.98C493.709 263.943 491.693 265.236 489.468 265.236C486.429 265.236 484.324 263.191 484.324 259.341V259.1C484.324 255.4 486.52 253.114 489.377 253.114C491.543 253.114 493.348 254.046 493.739 256.543H496.205C495.724 252.542 492.656 251.038 489.377 251.038C485.166 251.038 481.737 254.287 481.737 259.1V259.341C481.737 264.213 485.046 267.312 489.437 267.312ZM504.246 267.252C505.269 267.252 505.871 267.101 506.382 266.921V264.815C505.84 265.026 505.239 265.146 504.457 265.146C503.193 265.146 502.502 264.394 502.502 262.86V253.415H506.171V251.309H502.502V247.73H500.005V251.309H497.749V253.415H500.005V263.101C500.005 265.567 501.389 267.252 504.246 267.252ZM509.735 270.741L513.435 264.454L510.998 263.311L508.111 269.899L509.735 270.741ZM59.826 300.312C64.1575 300.312 66.9851 297.003 66.9851 292.19V291.95C66.9851 287.046 63.947 284.038 59.826 284.038C57.5399 284.038 55.4043 285.422 54.5019 286.956V276.789H52.0052V300.041H54.5019V297.454C55.4043 299.018 57.2692 300.312 59.826 300.312ZM59.5854 298.236C56.5172 298.236 54.4116 296.341 54.4116 292.31V292.07C54.4116 288.039 56.6375 286.114 59.5553 286.114C62.2023 286.114 64.3982 288.099 64.3982 292.07V292.31C64.3982 296.131 62.7137 298.236 59.5854 298.236ZM76.8198 298.236C73.6313 298.236 71.6761 295.89 71.6761 292.31V292.07C71.6761 288.46 73.6614 286.114 76.8198 286.114C79.9481 286.114 81.9635 288.46 81.9635 292.1V292.31C81.9635 295.86 79.9782 298.236 76.8198 298.236ZM76.7897 300.312C81.2716 300.312 84.5503 297.033 84.5503 292.28V292.04C84.5503 287.317 81.2716 284.038 76.8198 284.038C72.368 284.038 69.0892 287.347 69.0892 292.07V292.31C69.0892 296.913 72.3078 300.312 76.7897 300.312ZM92.5972 300.252C93.6199 300.252 94.2215 300.101 94.7329 299.921V297.815C94.1914 298.026 93.5898 298.146 92.8078 298.146C91.5444 298.146 90.8526 297.394 90.8526 295.86V286.415H94.5223V284.309H90.8526V280.73H88.3559V284.309H86.0999V286.415H88.3559V296.101C88.3559 298.567 89.7396 300.252 92.5972 300.252ZM97.9054 300.041H100.402V290.506C100.402 287.678 102.478 286.204 104.794 286.204C107.32 286.204 108.494 287.438 108.494 290.205V300.041H110.99V290.385C110.99 285.813 108.704 284.038 105.455 284.038C102.869 284.038 101.124 285.332 100.402 286.806V276.789H97.9054V300.041ZM125.799 300.041H128.536L132.206 288.25L135.484 300.041H138.252L143.155 284.309H140.598L136.898 296.973L133.319 284.309H131.153L127.333 296.973L123.663 284.309H120.956L125.799 300.041ZM152.064 300.312C155.613 300.312 158.23 298.657 158.772 295.499H156.275C155.944 297.334 154.53 298.236 152.094 298.236C148.875 298.236 147.161 296.251 147.041 292.671H158.892V291.859C158.892 286.234 155.463 284.038 151.823 284.038C147.492 284.038 144.454 287.347 144.454 292.1V292.341C144.454 297.183 147.612 300.312 152.064 300.312ZM147.131 290.656C147.552 287.859 149.266 286.114 151.823 286.114C154.41 286.114 156.095 287.407 156.335 290.656H147.131ZM169.942 300.312C174.274 300.312 177.101 297.003 177.101 292.19V291.95C177.101 287.046 174.063 284.038 169.942 284.038C167.656 284.038 165.52 285.422 164.618 286.956V276.789H162.121V300.041H164.618V297.454C165.52 299.018 167.385 300.312 169.942 300.312ZM169.702 298.236C166.633 298.236 164.528 296.341 164.528 292.31V292.07C164.528 288.039 166.754 286.114 169.671 286.114C172.318 286.114 174.514 288.099 174.514 292.07V292.31C174.514 296.131 172.83 298.236 169.702 298.236ZM191.678 300.312C193.994 300.312 195.408 299.53 196.581 298.056V300.041H199.078V289.663C199.078 285.272 196.34 284.038 193.332 284.038C190.294 284.038 187.437 285.362 187.106 288.942H189.602C189.843 287.016 191.046 286.114 193.212 286.114C195.618 286.114 196.581 287.167 196.581 289.663V290.806H194.325C190.294 290.806 186.444 292.04 186.444 295.679C186.444 298.898 188.76 300.312 191.678 300.312ZM191.919 298.326C189.723 298.326 188.941 297.304 188.941 295.679C188.941 293.363 191.257 292.581 194.415 292.581H196.581V294.536C196.581 296.973 194.566 298.326 191.919 298.326ZM203.38 300.041H205.877V290.506C205.877 287.678 207.952 286.204 210.269 286.204C212.795 286.204 213.968 287.438 213.968 290.205V300.041H216.465V290.385C216.465 285.813 214.179 284.038 210.93 284.038C208.343 284.038 206.599 285.332 205.877 286.806V284.309H203.38V300.041ZM226.682 300.312C228.968 300.312 231.164 298.868 232.066 297.334V300.041H234.563V276.789H232.066V286.836C231.164 285.302 229.54 284.038 226.923 284.038C222.591 284.038 219.583 287.438 219.583 292.25V292.491C219.583 297.394 222.561 300.312 226.682 300.312ZM226.953 298.236C224.306 298.236 222.17 296.341 222.17 292.371V292.13C222.17 288.31 224.035 286.114 227.163 286.114C230.231 286.114 232.156 288.009 232.156 292.04V292.28C232.156 296.311 229.87 298.236 226.953 298.236ZM246.372 305.516H248.869V297.454C249.771 299.018 251.606 300.312 254.193 300.312C258.525 300.312 261.352 297.003 261.352 292.19V291.95C261.352 287.046 258.314 284.038 254.193 284.038C251.907 284.038 249.771 285.422 248.869 286.956V284.309H246.372V305.516ZM253.952 298.236C250.884 298.236 248.779 296.341 248.779 292.31V292.07C248.779 288.039 251.005 286.114 253.922 286.114C256.569 286.114 258.765 288.099 258.765 292.07V292.31C258.765 296.131 257.081 298.236 253.952 298.236ZM268.57 300.312C270.886 300.312 272.3 299.53 273.473 298.056V300.041H275.97V289.663C275.97 285.272 273.232 284.038 270.224 284.038C267.186 284.038 264.329 285.362 263.998 288.942H266.494C266.735 287.016 267.938 286.114 270.104 286.114C272.51 286.114 273.473 287.167 273.473 289.663V290.806H271.217C267.186 290.806 263.336 292.04 263.336 295.679C263.336 298.898 265.652 300.312 268.57 300.312ZM268.811 298.326C266.615 298.326 265.833 297.304 265.833 295.679C265.833 293.363 268.149 292.581 271.307 292.581H273.473V294.536C273.473 296.973 271.458 298.326 268.811 298.326ZM280.272 305.516H282.769V297.454C283.671 299.018 285.506 300.312 288.093 300.312C292.425 300.312 295.252 297.003 295.252 292.19V291.95C295.252 287.046 292.214 284.038 288.093 284.038C285.807 284.038 283.671 285.422 282.769 286.956V284.309H280.272V305.516ZM287.852 298.236C284.784 298.236 282.679 296.341 282.679 292.31V292.07C282.679 288.039 284.905 286.114 287.822 286.114C290.469 286.114 292.665 288.099 292.665 292.07V292.31C292.665 296.131 290.981 298.236 287.852 298.236ZM304.966 300.312C308.516 300.312 311.133 298.657 311.674 295.499H309.178C308.847 297.334 307.433 298.236 304.997 298.236C301.778 298.236 300.063 296.251 299.943 292.671H311.795V291.859C311.795 286.234 308.365 284.038 304.726 284.038C300.394 284.038 297.356 287.347 297.356 292.1V292.341C297.356 297.183 300.515 300.312 304.966 300.312ZM300.033 290.656C300.454 287.859 302.169 286.114 304.726 286.114C307.313 286.114 308.997 287.407 309.238 290.656H300.033ZM315.024 300.041H317.521V291.408C317.521 287.528 319.536 286.535 322.694 286.385V284.038C319.867 284.129 318.513 285.362 317.521 287.137V284.309H315.024V300.041ZM324.12 303.741L327.82 297.454L325.384 296.311L322.496 302.899L324.12 303.741ZM343.969 300.252C344.992 300.252 345.594 300.101 346.105 299.921V297.815C345.564 298.026 344.962 298.146 344.18 298.146C342.917 298.146 342.225 297.394 342.225 295.86V286.415H345.894V284.309H342.225V280.73H339.728V284.309H337.472V286.415H339.728V296.101C339.728 298.567 341.112 300.252 343.969 300.252ZM349.278 300.041H351.774V291.408C351.774 287.528 353.79 286.535 356.948 286.385V284.038C354.12 284.129 352.767 285.362 351.774 287.137V284.309H349.278V300.041ZM365.309 300.312C367.836 300.312 369.581 299.018 370.303 297.544V300.041H372.799V284.309H370.303V293.845C370.303 296.672 368.197 298.146 365.971 298.146C363.505 298.146 362.332 296.913 362.332 294.145V284.309H359.835V294.266C359.835 298.597 362.181 300.312 365.309 300.312ZM383.681 300.312C387.23 300.312 389.847 298.657 390.389 295.499H387.892C387.561 297.334 386.147 298.236 383.711 298.236C380.492 298.236 378.778 296.251 378.657 292.671H390.509V291.859C390.509 286.234 387.08 284.038 383.44 284.038C379.109 284.038 376.071 287.347 376.071 292.1V292.341C376.071 297.183 379.229 300.312 383.681 300.312ZM378.748 290.656C379.169 287.859 380.883 286.114 383.44 286.114C386.027 286.114 387.711 287.407 387.952 290.656H378.748ZM405.88 300.252C406.903 300.252 407.504 300.101 408.016 299.921V297.815C407.474 298.026 406.873 298.146 406.091 298.146C404.827 298.146 404.135 297.394 404.135 295.86V286.415H407.805V284.309H404.135V280.73H401.639V284.309H399.383V286.415H401.639V296.101C401.639 298.567 403.022 300.252 405.88 300.252ZM417.746 298.236C414.557 298.236 412.602 295.89 412.602 292.31V292.07C412.602 288.46 414.587 286.114 417.746 286.114C420.874 286.114 422.889 288.46 422.889 292.1V292.31C422.889 295.86 420.904 298.236 417.746 298.236ZM417.716 300.312C422.197 300.312 425.476 297.033 425.476 292.28V292.04C425.476 287.317 422.197 284.038 417.746 284.038C413.294 284.038 410.015 287.347 410.015 292.07V292.31C410.015 296.913 413.234 300.312 417.716 300.312ZM436.099 300.041H438.596V291.408C438.596 287.528 440.611 286.535 443.77 286.385V284.038C440.942 284.129 439.589 285.362 438.596 287.137V284.309H436.099V300.041ZM452.804 300.312C456.353 300.312 458.97 298.657 459.511 295.499H457.015C456.684 297.334 455.27 298.236 452.834 298.236C449.615 298.236 447.901 296.251 447.78 292.671H459.632V291.859C459.632 286.234 456.203 284.038 452.563 284.038C448.231 284.038 445.193 287.347 445.193 292.1V292.341C445.193 297.183 448.352 300.312 452.804 300.312ZM447.87 290.656C448.292 287.859 450.006 286.114 452.563 286.114C455.15 286.114 456.834 287.407 457.075 290.656H447.87ZM466.948 300.312C469.265 300.312 470.678 299.53 471.851 298.056V300.041H474.348V289.663C474.348 285.272 471.611 284.038 468.603 284.038C465.565 284.038 462.707 285.362 462.376 288.942H464.873C465.114 287.016 466.317 286.114 468.483 286.114C470.889 286.114 471.851 287.167 471.851 289.663V290.806H469.595C465.565 290.806 461.715 292.04 461.715 295.679C461.715 298.898 464.031 300.312 466.948 300.312ZM467.189 298.326C464.993 298.326 464.211 297.304 464.211 295.679C464.211 293.363 466.527 292.581 469.686 292.581H471.851V294.536C471.851 296.973 469.836 298.326 467.189 298.326ZM478.711 300.041H481.238V276.789H478.711V300.041ZM485.806 300.041H488.302V284.309H485.806V300.041ZM487.009 281.03C487.911 281.03 488.663 280.278 488.663 279.376C488.663 278.474 487.911 277.722 487.009 277.722C486.106 277.722 485.354 278.474 485.354 279.376C485.354 280.278 486.106 281.03 487.009 281.03ZM497.593 300.252C498.616 300.252 499.218 300.101 499.729 299.921V297.815C499.188 298.026 498.586 298.146 497.804 298.146C496.541 298.146 495.849 297.394 495.849 295.86V286.415H499.518V284.309H495.849V280.73H493.352V284.309H491.096V286.415H493.352V296.101C493.352 298.567 494.736 300.252 497.593 300.252ZM504.315 305.516H506.842L515.535 284.309H512.978L508.617 295.589L503.804 284.309H501.127L507.293 298.417L504.315 305.516ZM517.821 300.191C518.874 300.191 519.746 299.349 519.746 298.266C519.746 297.183 518.874 296.341 517.821 296.341C516.768 296.341 515.896 297.183 515.896 298.266C515.896 299.349 516.768 300.191 517.821 300.191Z" fill="#F9F3DF"/>
<path d="M14.3546 67.4988C12.7475 67.4988 11.4325 67.1701 10.4098 66.5126C9.3871 65.8551 8.54701 65.0151 7.88954 63.9923C7.15903 62.7505 6.64767 61.4721 6.35547 60.1571C6.13631 58.7692 6.02674 57.6369 6.02674 56.7603C6.02674 53.1807 6.93988 49.93 8.76616 47.0079C10.5924 44.0859 13.4414 41.7117 17.3132 39.8854L18.2994 41.8578C16.0348 42.8075 14.0624 44.305 12.3822 46.3504C10.7751 48.3959 9.97151 50.4778 9.97151 52.5963C9.97151 53.4729 10.0811 54.24 10.3002 54.8974C11.4691 53.9478 12.8205 53.4729 14.3546 53.4729C16.2539 53.4729 17.8976 54.0939 19.2856 55.3358C20.6735 56.5776 21.3675 58.2943 21.3675 60.4859C21.3675 62.5313 20.6735 64.2115 19.2856 65.5264C17.8976 66.8413 16.2539 67.4988 14.3546 67.4988ZM32.9827 67.4988C31.3756 67.4988 30.0606 67.1701 29.0379 66.5126C28.0152 65.8551 27.1751 65.0151 26.5176 63.9923C25.7871 62.7505 25.2758 61.4721 24.9836 60.1571C24.7644 58.7692 24.6548 57.6369 24.6548 56.7603C24.6548 53.1807 25.568 49.93 27.3943 47.0079C29.2205 44.0859 32.0695 41.7117 35.9413 39.8854L36.9275 41.8578C34.6629 42.8075 32.6905 44.305 31.0103 46.3504C29.4032 48.3959 28.5996 50.4778 28.5996 52.5963C28.5996 53.4729 28.7092 54.24 28.9283 54.8974C30.0972 53.9478 31.4486 53.4729 32.9827 53.4729C34.882 53.4729 36.5257 54.0939 37.9136 55.3358C39.3016 56.5776 39.9956 58.2943 39.9956 60.4859C39.9956 62.5313 39.3016 64.2115 37.9136 65.5264C36.5257 66.8413 34.882 67.4988 32.9827 67.4988Z" fill="#F9F3DF"/>
</svg>
