<svg width="215" height="29" viewBox="0 0 215 29" fill="none" xmlns="http://www.w3.org/2000/svg">
<path d="M0.458 0.151999V23H5.482V13.144H14.73V23H19.754V0.151999H14.73V8.92H5.482V0.151999H0.458ZM28.3688 3.896V0.151999H23.8248V3.896H28.3688ZM23.8248 6.456V23H28.3688V6.456H23.8248ZM32.1708 18.072V23H34.4748C34.4961 23.3413 34.4534 23.672 34.3468 23.992C34.2401 24.3333 34.0801 24.632 33.8668 24.888C33.6534 25.1653 33.3974 25.4 33.0988 25.592C32.8214 25.784 32.5228 25.912 32.2028 25.976V28.28C32.8854 28.1733 33.5254 27.9707 34.1228 27.672C34.7414 27.3947 35.2748 27.032 35.7228 26.584C36.1708 26.136 36.5228 25.6027 36.7788 24.984C37.0561 24.3867 37.1948 23.7253 37.1948 23V18.072H32.1708ZM50.2393 0.151999V23H55.2633V0.151999H50.2393ZM59.6448 0.151999V5.08H61.7568C61.7568 5.86933 61.6074 6.54133 61.3088 7.096C61.0101 7.62933 60.4554 8.03467 59.6448 8.312V10.424C60.3061 10.3387 60.9141 10.1467 61.4688 9.848C62.0448 9.528 62.5354 9.13333 62.9408 8.664C63.3461 8.19467 63.6554 7.65067 63.8688 7.032C64.1034 6.41333 64.2101 5.752 64.1888 5.048V0.151999H59.6448ZM68.231 6.456V23H72.775V13.4C72.775 12.5893 72.8923 11.9387 73.127 11.448C73.3617 10.936 73.639 10.552 73.959 10.296C74.3003 10.0187 74.6417 9.83733 74.983 9.752C75.3457 9.64533 75.6337 9.592 75.847 9.592C76.5723 9.592 77.1163 9.72 77.479 9.976C77.863 10.2107 78.1297 10.5307 78.279 10.936C78.4497 11.3413 78.5457 11.7893 78.567 12.28C78.5883 12.7493 78.599 13.2293 78.599 13.72V23H83.143V13.784C83.143 13.272 83.175 12.7707 83.239 12.28C83.3243 11.768 83.4737 11.32 83.687 10.936C83.9217 10.5307 84.231 10.2107 84.615 9.976C85.0203 9.72 85.543 9.592 86.183 9.592C86.823 9.592 87.3243 9.69867 87.687 9.912C88.071 10.1253 88.359 10.4133 88.551 10.776C88.743 11.1387 88.8603 11.5653 88.903 12.056C88.9457 12.5467 88.967 13.0693 88.967 13.624V23H93.511V11.928C93.511 10.8613 93.3617 9.95467 93.063 9.208C92.7643 8.44 92.3483 7.82133 91.815 7.352C91.2817 6.88267 90.6417 6.54133 89.895 6.328C89.1483 6.11467 88.3377 6.008 87.463 6.008C86.311 6.008 85.3083 6.28533 84.455 6.84C83.623 7.39467 82.9617 8.03467 82.471 8.76C82.023 7.736 81.3617 7.02133 80.487 6.616C79.6337 6.21067 78.6843 6.008 77.639 6.008C76.551 6.008 75.5803 6.24267 74.727 6.712C73.895 7.18133 73.1803 7.84267 72.583 8.696H72.519V6.456H68.231ZM119.865 15.8V0.151999H114.841V15.576C114.841 15.9813 114.82 16.408 114.777 16.856C114.756 17.2827 114.66 17.688 114.489 18.072C114.34 18.4347 114.084 18.7333 113.721 18.968C113.359 19.2027 112.847 19.32 112.185 19.32C111.588 19.32 111.097 19.224 110.713 19.032C110.351 18.84 110.063 18.584 109.849 18.264C109.636 17.9227 109.487 17.5173 109.401 17.048C109.316 16.5787 109.273 16.0667 109.273 15.512V14.488H104.729V16.472C104.729 17.7307 104.943 18.808 105.369 19.704C105.796 20.5787 106.361 21.304 107.065 21.88C107.769 22.4347 108.569 22.84 109.465 23.096C110.361 23.3733 111.289 23.512 112.249 23.512C113.956 23.512 115.311 23.256 116.313 22.744C117.316 22.2107 118.084 21.56 118.617 20.792C119.151 20.0027 119.492 19.16 119.641 18.264C119.791 17.368 119.865 16.5467 119.865 15.8ZM127.823 14.744C127.823 14.0827 127.887 13.432 128.015 12.792C128.143 12.152 128.356 11.5867 128.655 11.096C128.975 10.6053 129.391 10.2107 129.903 9.912C130.415 9.592 131.055 9.432 131.823 9.432C132.591 9.432 133.231 9.592 133.743 9.912C134.276 10.2107 134.692 10.6053 134.991 11.096C135.311 11.5867 135.535 12.152 135.663 12.792C135.791 13.432 135.855 14.0827 135.855 14.744C135.855 15.4053 135.791 16.056 135.663 16.696C135.535 17.3147 135.311 17.88 134.991 18.392C134.692 18.8827 134.276 19.2773 133.743 19.576C133.231 19.8747 132.591 20.024 131.823 20.024C131.055 20.024 130.415 19.8747 129.903 19.576C129.391 19.2773 128.975 18.8827 128.655 18.392C128.356 17.88 128.143 17.3147 128.015 16.696C127.887 16.056 127.823 15.4053 127.823 14.744ZM123.279 14.744C123.279 16.0667 123.481 17.2613 123.887 18.328C124.292 19.3947 124.868 20.312 125.615 21.08C126.361 21.8267 127.257 22.4027 128.303 22.808C129.348 23.2133 130.521 23.416 131.823 23.416C133.124 23.416 134.297 23.2133 135.343 22.808C136.409 22.4027 137.316 21.8267 138.062 21.08C138.809 20.312 139.385 19.3947 139.791 18.328C140.196 17.2613 140.399 16.0667 140.399 14.744C140.399 13.4213 140.196 12.2267 139.791 11.16C139.385 10.072 138.809 9.15467 138.062 8.408C137.316 7.64 136.409 7.05333 135.343 6.648C134.297 6.22133 133.124 6.008 131.823 6.008C130.521 6.008 129.348 6.22133 128.303 6.648C127.257 7.05333 126.361 7.64 125.615 8.408C124.868 9.15467 124.292 10.072 123.887 11.16C123.481 12.2267 123.279 13.4213 123.279 14.744ZM143.353 0.151999V23H147.897V14.328C147.897 12.6427 148.174 11.4373 148.729 10.712C149.284 9.96533 150.18 9.592 151.417 9.592C152.505 9.592 153.262 9.93333 153.689 10.616C154.116 11.2773 154.329 12.2907 154.329 13.656V23H158.873V12.824C158.873 11.8 158.777 10.872 158.585 10.04C158.414 9.18667 158.105 8.472 157.657 7.896C157.209 7.29867 156.59 6.84 155.801 6.52C155.033 6.17867 154.041 6.008 152.825 6.008C151.972 6.008 151.097 6.232 150.201 6.68C149.305 7.10667 148.569 7.8 147.993 8.76H147.897V0.151999H143.353ZM162.322 6.456V23H166.866V14.328C166.866 12.6427 167.143 11.4373 167.698 10.712C168.252 9.96533 169.148 9.592 170.386 9.592C171.474 9.592 172.231 9.93333 172.658 10.616C173.084 11.2773 173.298 12.2907 173.298 13.656V23H177.842V12.824C177.842 11.8 177.746 10.872 177.554 10.04C177.383 9.18667 177.074 8.472 176.626 7.896C176.178 7.29867 175.559 6.84 174.77 6.52C174.002 6.17867 173.01 6.008 171.794 6.008C170.834 6.008 169.895 6.232 168.978 6.68C168.06 7.10667 167.314 7.8 166.738 8.76H166.642V6.456H162.322ZM181.515 18.072V23H183.819C183.84 23.3413 183.797 23.672 183.691 23.992C183.584 24.3333 183.424 24.632 183.211 24.888C182.997 25.1653 182.741 25.4 182.443 25.592C182.165 25.784 181.867 25.912 181.547 25.976V28.28C182.229 28.1733 182.869 27.9707 183.467 27.672C184.085 27.3947 184.619 27.032 185.067 26.584C185.515 26.136 185.867 25.6027 186.123 24.984C186.4 24.3867 186.539 23.7253 186.539 23V18.072H181.515ZM198.911 11.544C198.975 10.4773 199.242 9.592 199.711 8.888C200.18 8.184 200.778 7.61867 201.503 7.192C202.228 6.76533 203.039 6.46667 203.935 6.296C204.852 6.104 205.77 6.008 206.687 6.008C207.519 6.008 208.362 6.072 209.215 6.2C210.068 6.30667 210.847 6.53067 211.551 6.872C212.255 7.21333 212.831 7.69333 213.279 8.312C213.727 8.90933 213.951 9.70933 213.951 10.712V19.32C213.951 20.0667 213.994 20.7813 214.079 21.464C214.164 22.1467 214.314 22.6587 214.527 23H209.919C209.834 22.744 209.759 22.488 209.695 22.232C209.652 21.9547 209.62 21.6773 209.599 21.4C208.874 22.1467 208.02 22.6693 207.039 22.968C206.058 23.2667 205.055 23.416 204.031 23.416C203.242 23.416 202.506 23.32 201.823 23.128C201.14 22.936 200.543 22.6373 200.031 22.232C199.519 21.8267 199.114 21.3147 198.815 20.696C198.538 20.0773 198.399 19.3413 198.399 18.488C198.399 17.5493 198.559 16.7813 198.879 16.184C199.22 15.5653 199.647 15.0747 200.159 14.712C200.692 14.3493 201.29 14.0827 201.951 13.912C202.634 13.72 203.316 13.5707 203.999 13.464C204.682 13.3573 205.354 13.272 206.015 13.208C206.676 13.144 207.263 13.048 207.775 12.92C208.287 12.792 208.692 12.6107 208.991 12.376C209.29 12.12 209.428 11.7573 209.407 11.288C209.407 10.7973 209.322 10.4133 209.151 10.136C209.002 9.83733 208.788 9.61333 208.511 9.464C208.255 9.29333 207.946 9.18667 207.583 9.144C207.242 9.08 206.868 9.048 206.463 9.048C205.567 9.048 204.863 9.24 204.351 9.624C203.839 10.008 203.54 10.648 203.455 11.544H198.911ZM209.407 14.904C209.215 15.0747 208.97 15.2133 208.671 15.32C208.394 15.4053 208.084 15.48 207.743 15.544C207.423 15.608 207.082 15.6613 206.719 15.704C206.356 15.7467 205.994 15.8 205.631 15.864C205.29 15.928 204.948 16.0133 204.607 16.12C204.287 16.2267 203.999 16.376 203.743 16.568C203.508 16.7387 203.316 16.9627 203.167 17.24C203.018 17.5173 202.943 17.8693 202.943 18.296C202.943 18.7013 203.018 19.0427 203.167 19.32C203.316 19.5973 203.519 19.8213 203.775 19.992C204.031 20.1413 204.33 20.248 204.671 20.312C205.012 20.376 205.364 20.408 205.727 20.408C206.623 20.408 207.316 20.2587 207.807 19.96C208.298 19.6613 208.66 19.3093 208.895 18.904C209.13 18.4773 209.268 18.0507 209.311 17.624C209.375 17.1973 209.407 16.856 209.407 16.6V14.904Z" fill="white"/>
</svg>
