<svg width="251" height="35" viewBox="0 0 251 35" fill="none" xmlns="http://www.w3.org/2000/svg">
<path d="M4.92802 29.4955C4.92802 32.0867 5.31671 33.7549 6.0941 34.4999H0.069373C0.846757 33.6577 1.23545 31.9896 1.23545 29.4955V5.49374C1.23545 2.96725 0.846757 1.29911 0.069373 0.489332H6.0941C5.31671 1.20193 4.92802 2.87007 4.92802 5.49374V29.4955ZM26.8208 34.4999C27.5982 33.6577 27.9869 31.9896 27.9869 29.4955V18.4177C27.9869 15.7941 27.4362 13.8506 26.3349 12.5874C25.2336 11.3241 23.8246 10.6925 22.1079 10.6925C20.6179 10.6925 19.1117 11.1136 17.5894 11.9557C16.067 12.7655 14.8199 13.8344 13.8482 15.1625V29.4955C13.8482 32.0867 14.2369 33.7549 15.0143 34.4999H8.98955C9.76693 33.6577 10.1556 31.9896 10.1556 29.4955V15.211C10.1556 12.5874 9.76693 10.9192 8.98955 10.2066H13.8482V14.3851C14.9495 12.8951 16.4071 11.7128 18.221 10.8383C20.0349 9.9637 21.865 9.52642 23.7113 9.52642C26.011 9.52642 27.9059 10.2552 29.3959 11.7128C30.9183 13.138 31.6794 15.2758 31.6794 18.1262V29.4955C31.6794 32.0867 32.0681 33.7549 32.8455 34.4999H26.8208ZM40.3172 27.6492C40.3172 30.0785 40.6411 31.8114 41.2889 32.8479C41.9691 33.8844 42.9733 34.4027 44.3013 34.4027C45.1435 34.4027 46.1476 34.2246 47.3137 33.8683V34.2084C45.5322 34.5971 44.0746 34.7914 42.9409 34.7914C40.9326 34.7914 39.3779 34.2569 38.2766 33.188C37.2077 32.1191 36.657 30.3214 36.6246 27.7949V13.0246H34.2925V12.4416H36.6246V10.1095C36.6246 7.48579 36.2359 5.81765 35.4586 5.10505H40.3172V12.4416H44.5442V13.0246H40.3172V27.6492ZM55.0803 17.8347C55.5985 15.6321 56.5865 13.7858 58.0441 12.2959C59.5017 10.7735 61.1536 10.0123 62.9999 10.0123C63.5505 10.0123 64.0688 10.0771 64.5547 10.2066V14.5308C63.2266 13.8506 61.9958 13.5105 60.8621 13.5105C59.2101 13.5105 57.8497 14.1421 56.7808 15.4054C55.7443 16.6686 55.1775 18.3044 55.0803 20.3126V29.4955C55.0803 32.0867 55.469 33.7549 56.2464 34.4999H50.2216C50.999 33.6577 51.3877 31.9896 51.3877 29.4955V15.211C51.3877 12.5874 50.999 10.9192 50.2216 10.2066H55.0803V17.8347ZM73.8442 33.2852C72.5809 32.7994 71.3824 32.0544 70.2488 31.0502C69.1475 30.0137 68.2405 28.7667 67.5279 27.3091C66.8477 25.8191 66.5076 24.2157 66.5076 22.499C66.5076 21.0414 66.7667 19.5838 67.285 18.1262C68.1595 15.5673 69.6009 13.5915 71.6092 12.1987C73.6174 10.8059 75.8524 10.1095 78.3141 10.1095C80.5491 10.1095 82.6383 10.6763 84.5818 11.81C86.4928 12.9113 87.9342 14.3527 88.906 16.1342C89.9101 17.8833 90.4122 19.7782 90.4122 21.8188C90.4122 23.7623 89.9749 25.6409 89.1003 27.4548C88.0962 29.5603 86.6548 31.2122 84.7761 32.4107C82.8974 33.5767 80.8244 34.1598 78.5571 34.1598C76.9699 34.1598 75.3989 33.8683 73.8442 33.2852ZM73.9413 32.8479C74.6539 33.2042 75.4961 33.3824 76.4678 33.3824C78.2493 33.3824 80.0146 32.7184 81.7638 31.3903C83.5453 30.0299 84.9705 28.1836 86.0394 25.8515C87.0111 23.6489 87.497 21.5111 87.497 19.4381C87.497 17.8185 87.2216 16.3771 86.671 15.1139C86.1203 13.8506 85.343 12.8951 84.3388 12.2473C83.3023 11.5347 82.0877 11.1784 80.6949 11.1784C78.7514 11.1784 76.8403 11.9072 74.9617 13.3648C73.083 14.8223 71.6254 16.9116 70.5889 19.6324C69.9087 21.3491 69.5685 23.0821 69.5685 24.8312C69.5685 26.7098 69.9734 28.3618 70.7832 29.787C71.593 31.2122 72.6457 32.2325 73.9413 32.8479ZM113.309 34.4999V31.196C112.532 32.3297 111.447 33.2204 110.054 33.8683C108.694 34.4837 107.204 34.7914 105.584 34.7914C103.673 34.7914 101.859 34.3541 100.142 33.4796C98.4256 32.5726 97.0166 31.2284 95.9153 29.4469C94.8464 27.633 94.312 25.4142 94.312 22.7905C94.312 20.1345 94.8464 17.9157 95.9153 16.1342C97.0166 14.3203 98.4256 12.9761 100.142 12.1015C101.859 11.2269 103.673 10.7897 105.584 10.7897C107.204 10.7897 108.71 11.0974 110.103 11.7128C111.495 12.3282 112.564 13.2028 113.309 14.3365V5.49374C113.309 2.87007 112.921 1.20193 112.143 0.489332H117.002V29.4955C117.002 32.0867 117.391 33.7549 118.168 34.4999H113.309ZM98.1503 22.7905C98.1503 25.2846 98.5552 27.3901 99.365 29.1068C100.175 30.7911 101.227 32.0544 102.523 32.8965C103.819 33.7063 105.195 34.1112 106.653 34.1112C107.981 34.1112 109.244 33.7873 110.443 33.1395C111.641 32.4916 112.597 31.6009 113.309 30.4672V15.1625C112.661 14.0612 111.69 13.1704 110.394 12.4902C109.098 11.7776 107.738 11.4213 106.313 11.4213C104.888 11.4213 103.543 11.81 102.28 12.5874C101.049 13.3648 100.045 14.6118 99.2678 16.3285C98.5228 18.0129 98.1503 20.1669 98.1503 22.7905ZM140.058 33.8197V29.6412C138.957 31.1312 137.5 32.3135 135.686 33.188C133.872 34.0626 132.042 34.4999 130.195 34.4999C127.896 34.4999 125.985 33.7873 124.462 32.3621C122.972 30.9045 122.227 28.7505 122.227 25.9001V15.211C122.227 12.5874 121.839 10.9192 121.061 10.2066H125.92V25.6085C125.92 28.2322 126.47 30.1757 127.572 31.4389C128.673 32.7022 130.082 33.3338 131.799 33.3338C133.289 33.3338 134.795 32.9289 136.317 32.1191C137.84 31.277 139.087 30.1919 140.058 28.8638V15.211C140.058 12.5874 139.67 10.9192 138.892 10.2066H143.751V28.8153C143.751 31.4065 144.14 33.0747 144.917 33.8197H140.058ZM155.644 33.2852C154.381 32.7994 153.182 32.0544 152.049 31.0502C150.947 30.0137 150.04 28.7667 149.328 27.3091C148.648 25.8191 148.308 24.2157 148.308 22.499C148.308 21.0414 148.567 19.5838 149.085 18.1262C149.992 15.535 151.514 13.5591 153.652 12.1987C155.79 10.8383 158.122 10.158 160.648 10.158C162.462 10.158 164.147 10.4981 165.701 11.1784C167.418 11.9557 168.811 13.0085 169.88 14.3365C170.949 15.6321 171.548 16.8306 171.678 17.9319L168.034 16.7172C168.098 16.4581 168.131 16.0694 168.131 15.5511C168.131 14.1907 167.645 13.1218 166.673 12.3444C165.701 11.5347 164.471 11.1298 162.981 11.1298C160.94 11.1298 158.916 11.8586 156.907 13.3162C154.931 14.7414 153.425 16.8468 152.389 19.6324C151.676 21.5435 151.32 23.325 151.32 24.9769C151.32 26.726 151.692 28.2484 152.437 29.5441C153.182 30.8397 154.186 31.8276 155.45 32.5078C156.713 33.188 158.073 33.5281 159.531 33.5281C160.989 33.5281 162.43 33.188 163.855 32.5078C165.313 31.7952 166.592 30.7425 167.694 29.3497H170.463C169.297 30.8721 167.823 32.0544 166.042 32.8965C164.292 33.7387 162.414 34.1598 160.406 34.1598C158.786 34.1598 157.199 33.8683 155.644 33.2852ZM179.624 27.6492C179.624 30.0785 179.948 31.8114 180.596 32.8479C181.276 33.8844 182.28 34.4027 183.608 34.4027C184.45 34.4027 185.454 34.2246 186.62 33.8683V34.2084C184.839 34.5971 183.381 34.7914 182.247 34.7914C180.239 34.7914 178.684 34.2569 177.583 33.188C176.514 32.1191 175.964 30.3214 175.931 27.7949V13.0246H173.599V12.4416H175.931V10.1095C175.931 7.48579 175.543 5.81765 174.765 5.10505H179.624V12.4416H183.851V13.0246H179.624V27.6492ZM192.249 4.95929C191.634 4.95929 191.099 4.74875 190.646 4.32766C190.225 3.87419 190.014 3.33974 190.014 2.72431C190.014 2.10888 190.225 1.59063 190.646 1.16954C191.099 0.716069 191.634 0.489332 192.249 0.489332C192.864 0.489332 193.383 0.716069 193.804 1.16954C194.257 1.59063 194.484 2.10888 194.484 2.72431C194.484 3.33974 194.257 3.87419 193.804 4.32766C193.383 4.74875 192.864 4.95929 192.249 4.95929ZM189.528 34.4999C190.306 33.6577 190.694 31.9896 190.694 29.4955V15.211C190.694 12.5874 190.306 10.9192 189.528 10.2066H194.387V29.4955C194.387 32.0867 194.776 33.7549 195.553 34.4999H189.528ZM206.271 33.2852C205.008 32.7994 203.809 32.0544 202.675 31.0502C201.574 30.0137 200.667 28.7667 199.955 27.3091C199.274 25.8191 198.934 24.2157 198.934 22.499C198.934 21.0414 199.193 19.5838 199.712 18.1262C200.586 15.5673 202.028 13.5915 204.036 12.1987C206.044 10.8059 208.279 10.1095 210.741 10.1095C212.976 10.1095 215.065 10.6763 217.008 11.81C218.92 12.9113 220.361 14.3527 221.333 16.1342C222.337 17.8833 222.839 19.7782 222.839 21.8188C222.839 23.7623 222.402 25.6409 221.527 27.4548C220.523 29.5603 219.081 31.2122 217.203 32.4107C215.324 33.5767 213.251 34.1598 210.984 34.1598C209.397 34.1598 207.826 33.8683 206.271 33.2852ZM206.368 32.8479C207.081 33.2042 207.923 33.3824 208.895 33.3824C210.676 33.3824 212.441 32.7184 214.19 31.3903C215.972 30.0299 217.397 28.1836 218.466 25.8515C219.438 23.6489 219.924 21.5111 219.924 19.4381C219.924 17.8185 219.648 16.3771 219.098 15.1139C218.547 13.8506 217.77 12.8951 216.766 12.2473C215.729 11.5347 214.514 11.1784 213.122 11.1784C211.178 11.1784 209.267 11.9072 207.388 13.3648C205.51 14.8223 204.052 16.9116 203.016 19.6324C202.335 21.3491 201.995 23.0821 201.995 24.8312C201.995 26.7098 202.4 28.3618 203.21 29.787C204.02 31.2122 205.072 32.2325 206.368 32.8479ZM244.084 34.4999C244.861 33.6577 245.25 31.9896 245.25 29.4955V18.4177C245.25 15.7941 244.699 13.8506 243.598 12.5874C242.497 11.3241 241.088 10.6925 239.371 10.6925C237.881 10.6925 236.375 11.1136 234.853 11.9557C233.33 12.7655 232.083 13.8344 231.111 15.1625V29.4955C231.111 32.0867 231.5 33.7549 232.277 34.4999H226.253C227.03 33.6577 227.419 31.9896 227.419 29.4955V15.211C227.419 12.5874 227.03 10.9192 226.253 10.2066H231.111V14.3851C232.213 12.8951 233.67 11.7128 235.484 10.8383C237.298 9.9637 239.128 9.52642 240.974 9.52642C243.274 9.52642 245.169 10.2552 246.659 11.7128C248.181 13.138 248.943 15.2758 248.943 18.1262V29.4955C248.943 32.0867 249.331 33.7549 250.109 34.4999H244.084Z" fill="#2D1A06"/>
</svg>
