<svg width="324" height="79" viewBox="0 0 324 79" fill="none" xmlns="http://www.w3.org/2000/svg">
<rect x="1.6963" y="1.35548" width="320.607" height="76.0296" fill="#2D1A06"/>
<path d="M69.5186 45.8704H78.9754V43.979H71.8777V34.3596H69.5186V45.8704ZM90.0579 43.2876H87.6175C87.4751 43.5926 87.2514 43.8367 86.9667 43.9994C86.5803 44.2231 86.0515 44.3451 85.4008 44.3451C84.8923 44.3451 84.4653 44.2841 84.0992 44.1417C83.7331 44.0197 83.4281 43.8367 83.2044 43.6333C82.9807 43.4096 82.818 43.1655 82.7163 42.9012C82.6553 42.6978 82.5943 42.5147 82.5739 42.291H90.241L90.2613 41.986C90.302 41.4572 90.241 40.8878 90.0783 40.3183C89.9359 39.7286 89.6715 39.1591 89.2648 38.671C88.8784 38.1626 88.3496 37.7355 87.6988 37.4102C87.0481 37.0848 86.2142 36.9017 85.2381 36.9017C84.5059 36.9017 83.8145 37.0237 83.184 37.2475C82.5332 37.4915 81.9841 37.8169 81.5164 38.2236C81.069 38.6304 80.7029 39.1185 80.4385 39.6879C80.1741 40.237 80.0521 40.8674 80.0521 41.5386V41.5589C80.0725 42.2097 80.1945 42.8198 80.4182 43.3892C80.6419 43.9587 80.9876 44.4671 81.435 44.8738C81.8825 45.3009 82.4316 45.6263 83.0823 45.85C83.7128 46.0737 84.4856 46.1958 85.3398 46.1958C86.5803 46.1958 87.6175 45.9314 88.4513 45.4433C89.2445 44.9552 89.7936 44.2027 90.0579 43.2876ZM87.6785 40.4404H82.6349C82.6756 40.298 82.7366 40.1557 82.7976 40.0133C82.9196 39.7692 83.1027 39.5455 83.306 39.3625C83.5298 39.1795 83.7941 39.0371 84.0992 38.9354C84.4042 38.8337 84.75 38.7727 85.1567 38.7727C85.5228 38.7727 85.8685 38.8337 86.1736 38.9354C86.4786 39.0371 86.7633 39.1795 86.9871 39.3625C87.2108 39.5455 87.3735 39.7692 87.5158 40.0133C87.5768 40.1353 87.6378 40.298 87.6785 40.4404ZM96.1656 46.1551C96.3893 46.1347 96.5723 46.1144 96.735 46.0534L96.9994 45.9924V44.1621L96.5316 44.3044C96.4096 44.3451 96.2876 44.3654 96.1452 44.3654C96.0029 44.3858 95.8605 44.3858 95.7385 44.3858C95.4334 44.3858 95.1894 44.3451 95.047 44.2637C94.925 44.2027 94.8843 43.9994 94.8843 43.8367V39.0371H96.7553V37.2271H94.8843V34.1766H92.5659V37.2271H90.939V39.0371H92.5659V43.918C92.5659 44.6705 92.8506 45.2399 93.3794 45.6263C93.9082 46.0127 94.6606 46.1958 95.6165 46.1958C95.7792 46.1958 95.9622 46.1958 96.1656 46.1551ZM98.7725 37.3288V38.7524L99.2403 38.61C99.8911 38.427 100.359 38.1016 100.664 37.6339C100.949 37.2068 101.091 36.678 101.091 36.0679V34.3799H98.7522V36.4746H99.586V36.5153C99.5657 36.617 99.5453 36.7187 99.4843 36.8204C99.4436 36.9221 99.3623 37.0034 99.2809 37.0848C99.1996 37.1661 99.1183 37.2068 99.0166 37.2475L98.7725 37.3288ZM108.938 46.0737C109.507 45.9924 110.016 45.8297 110.463 45.606C110.931 45.3823 111.297 45.0772 111.602 44.7112C111.887 44.3247 112.049 43.8367 112.049 43.2876C112.049 42.8198 111.927 42.4334 111.704 42.108C111.48 41.803 111.195 41.5386 110.829 41.3352C110.504 41.1522 110.117 40.9895 109.67 40.8878C109.263 40.7861 108.836 40.6844 108.409 40.6031L107.23 40.3997C106.863 40.3183 106.518 40.237 106.213 40.1557C105.948 40.054 105.725 39.9523 105.542 39.8303C105.44 39.7286 105.379 39.6269 105.379 39.5049C105.379 39.3625 105.42 39.2608 105.481 39.1998C105.582 39.0981 105.704 39.0168 105.867 38.9558C106.05 38.8948 106.253 38.8541 106.477 38.8134C106.701 38.7931 106.945 38.7727 107.189 38.7727C107.433 38.7727 107.677 38.7931 107.921 38.8337C108.165 38.8744 108.368 38.9558 108.572 39.0371C108.734 39.1185 108.877 39.2405 108.999 39.3625C109.08 39.4845 109.182 39.7692 109.202 39.993L109.243 40.2777H111.643L111.622 39.9319C111.561 39.3625 111.399 38.7727 111.134 38.4067C110.89 38.0203 110.544 37.7152 110.117 37.4915C109.711 37.2678 109.223 37.1254 108.714 37.0441C108.206 36.9627 107.636 36.9221 107.047 36.9221C106.579 36.9221 106.091 36.9627 105.603 37.0644C105.114 37.1458 104.687 37.3085 104.281 37.5118C103.874 37.7152 103.549 37.9999 103.284 38.3253C102.999 38.6914 102.877 39.1185 102.877 39.5862C102.877 40.2167 103.06 40.7048 103.467 41.0708C103.833 41.3962 104.301 41.6606 104.83 41.8436C105.338 42.0063 105.908 42.1487 106.497 42.2504C107.067 42.3317 107.616 42.4334 108.084 42.5351C108.531 42.6368 108.918 42.7791 109.223 42.9418C109.446 43.0638 109.528 43.2265 109.528 43.4503C109.528 43.6333 109.487 43.7553 109.385 43.857C109.263 43.9994 109.121 44.0807 108.938 44.1417C108.714 44.2231 108.47 44.2841 108.226 44.3044C107.941 44.3451 107.677 44.3451 107.433 44.3451C107.108 44.3451 106.802 44.3247 106.497 44.2841C106.233 44.2231 105.969 44.1621 105.745 44.04C105.542 43.9383 105.379 43.8163 105.257 43.6536C105.135 43.4909 105.074 43.3079 105.053 43.0842V42.7588H102.633L102.654 43.1045C102.674 43.674 102.837 44.1621 103.101 44.5688C103.366 44.9552 103.732 45.2806 104.159 45.5246C104.606 45.7687 105.094 45.9517 105.643 46.0534C106.172 46.1551 106.741 46.1958 107.331 46.1958C107.86 46.1958 108.409 46.1551 108.938 46.0737ZM123.573 46.1551C123.797 46.1347 123.98 46.1144 124.142 46.0534L124.407 45.9924V44.1621L123.939 44.3044C123.817 44.3451 123.695 44.3654 123.553 44.3654C123.41 44.3858 123.268 44.3858 123.146 44.3858C122.841 44.3858 122.597 44.3451 122.454 44.2637C122.332 44.2027 122.292 43.9994 122.292 43.8367V39.0371H124.163V37.2271H122.292V34.1766H119.973V37.2271H118.346V39.0371H119.973V43.918C119.973 44.6705 120.258 45.2399 120.787 45.6263C121.315 46.0127 122.068 46.1958 123.024 46.1958C123.187 46.1958 123.37 46.1958 123.573 46.1551ZM131.447 45.8907C131.854 45.7483 132.22 45.5653 132.566 45.3416V45.8704H134.843V39.5049C134.843 38.9558 134.701 38.5084 134.437 38.1626C134.193 37.8169 133.847 37.5322 133.42 37.3491C133.033 37.1661 132.586 37.0441 132.098 37.0034C131.63 36.9424 131.162 36.9221 130.695 36.9221C130.105 36.9221 129.535 36.9627 129.007 37.0644C128.478 37.1661 127.99 37.3288 127.563 37.5728C127.115 37.8169 126.77 38.1423 126.505 38.5287C126.241 38.9354 126.099 39.4032 126.058 39.9726L126.037 40.3183H128.417L128.437 40.0133C128.478 39.3828 128.783 39.1795 129.007 39.0575C129.413 38.8744 129.963 38.7727 130.593 38.7727C130.837 38.7727 131.101 38.7931 131.345 38.8134C131.569 38.8541 131.773 38.8948 131.956 38.9761C132.118 39.0575 132.24 39.1591 132.342 39.2812C132.444 39.4032 132.484 39.5862 132.484 39.8099C132.484 40.0133 132.403 40.0946 132.342 40.1353C132.2 40.237 131.996 40.3183 131.752 40.3794C131.447 40.4404 131.101 40.5014 130.715 40.5217C130.288 40.5624 129.841 40.6234 129.393 40.7048C128.946 40.7658 128.519 40.8471 128.092 40.9488C127.664 41.0505 127.258 41.2132 126.912 41.4165C126.546 41.6199 126.241 41.9046 126.017 42.2504C125.793 42.5961 125.671 43.0435 125.671 43.5723C125.671 44.04 125.773 44.4468 125.976 44.7925C126.18 45.1382 126.465 45.4026 126.81 45.6263C127.136 45.8094 127.542 45.972 127.99 46.0534C128.417 46.1551 128.885 46.1958 129.373 46.1958C130.105 46.1958 130.817 46.0941 131.447 45.8907ZM132.464 41.9453V42.7995C132.464 42.9418 132.423 43.1045 132.322 43.2672C132.24 43.4503 132.078 43.6129 131.874 43.7553C131.671 43.918 131.386 44.0604 131.02 44.1621C130.674 44.2841 130.247 44.3451 129.739 44.3451C129.495 44.3451 129.271 44.3247 129.068 44.2841C128.864 44.2434 128.702 44.1824 128.559 44.101C128.437 44.04 128.336 43.9587 128.254 43.8367C128.173 43.735 128.153 43.6129 128.153 43.4706C128.153 43.2062 128.214 43.0232 128.336 42.8808C128.478 42.7181 128.681 42.5961 128.925 42.5147C129.21 42.4131 129.515 42.3521 129.861 42.3114C130.227 42.2504 130.613 42.2097 130.979 42.169C131.366 42.1487 131.732 42.0877 132.078 42.0267C132.2 42.0063 132.342 41.986 132.464 41.9453ZM136.587 45.8704H138.925V34.1766H136.587V45.8704ZM147.991 45.8704H150.96L146.242 40.6031L150.879 37.2271H147.564L143.375 40.3997V34.1766H141.036V45.8704H143.375V42.7181L144.453 41.925L147.991 45.8704Z" fill="#FFF5EF"/>
<path d="M255.539 39.3704L243.576 32.4635V46.2772L255.539 39.3704ZM244.772 38.1741L170.602 38.1741V40.5667L244.772 40.5667V38.1741Z" fill="#FFF5EF"/>
<rect x="1.6963" y="1.35548" width="320.607" height="76.0296" stroke="#2D1A06" stroke-width="2.39259"/>
</svg>
