<svg width="320" height="137" viewBox="0 0 320 137" fill="none" xmlns="http://www.w3.org/2000/svg">
<path d="M101.344 39.8027L97.7549 51H69.8334C70.9818 49.8994 71.556 47.435 71.556 43.6069V8.14867C71.556 4.41622 70.9818 1.95185 69.8334 0.755552H78.7338C77.5854 1.80829 77.0112 4.27266 77.0112 8.14867V50.1387H86.9883C89.1416 50.1387 91.1514 49.5884 93.0176 48.4878C94.9317 47.3393 96.5347 45.9756 97.8267 44.3964C99.1666 42.7695 100.124 41.2382 100.698 39.8027H101.344ZM108.236 7.35911C107.327 7.35911 106.537 7.04807 105.868 6.426C105.245 5.75607 104.934 4.96651 104.934 4.05733C104.934 3.14814 105.245 2.38251 105.868 1.76044C106.537 1.09051 107.327 0.755552 108.236 0.755552C109.145 0.755552 109.911 1.09051 110.533 1.76044C111.203 2.38251 111.538 3.14814 111.538 4.05733C111.538 4.96651 111.203 5.75607 110.533 6.426C109.911 7.04807 109.145 7.35911 108.236 7.35911ZM104.217 51C105.365 49.7559 105.939 47.2915 105.939 43.6069V22.5042C105.939 18.6282 105.365 16.1639 104.217 15.1111H111.394V43.6069C111.394 47.435 111.969 49.8994 113.117 51H104.217ZM140.794 51C141.703 49.9951 142.158 49.0859 142.158 48.2724C142.158 48.081 142.062 47.6982 141.871 47.124L131.463 27.3851C127.683 30.2084 124.907 33.1752 123.137 36.2856V43.6069C123.137 47.435 123.711 49.8994 124.859 51H115.959C117.107 49.7559 117.682 47.2915 117.682 43.6069V8.14867C117.682 4.27266 117.107 1.80829 115.959 0.755552H123.137V34.9218C124.237 33.0077 125.649 31.285 127.372 29.7538C129.094 28.2225 131.319 26.4759 134.047 24.514C135.865 23.1741 137.181 22.1693 137.995 21.4993C138.425 20.638 138.641 19.5613 138.641 18.2693C138.641 17.1687 138.545 16.116 138.354 15.1111H147.039C146.704 15.4461 146.441 15.8289 146.249 16.2596C145.101 17.5037 143.785 18.6761 142.301 19.7767C140.818 20.8773 138.928 22.1932 136.631 23.7244L135.411 24.5858L147.326 47.124C148.426 49.2295 149.91 50.5215 151.776 51H140.794ZM153.768 33.0556C153.577 34.0604 153.481 35.185 153.481 36.4291C153.481 39.2045 154.055 41.6689 155.204 43.8222C156.4 45.9277 157.979 47.459 159.941 48.416C161.664 49.2295 163.482 49.6362 165.396 49.6362C167.597 49.6362 169.75 49.1099 171.856 48.0571C174.009 47.0044 175.899 45.4492 177.526 43.3916H181.618C179.895 45.6406 177.718 47.3872 175.086 48.6313C172.502 49.8755 169.727 50.4976 166.76 50.4976C164.367 50.4976 162.022 50.0669 159.726 49.2056C157.859 48.4878 156.089 47.3872 154.414 45.9038C152.787 44.3725 151.447 42.5302 150.394 40.3769C149.39 38.1757 148.887 35.807 148.887 33.2709C148.887 31.1176 149.27 28.9642 150.036 26.8109C151.375 22.9349 153.6 20.0159 156.711 18.054C159.869 16.0921 163.314 15.1111 167.047 15.1111C169.727 15.1111 172.239 15.5896 174.584 16.5467C177.311 17.5994 179.464 19.4896 181.044 22.2171C182.67 24.9447 183.484 27.9833 183.484 31.3329C183.484 32.0985 183.46 32.6727 183.412 33.0556H153.768ZM154.916 29.036C154.534 29.9452 154.223 30.9979 153.983 32.1942H177.742C178.268 29.8495 178.531 27.8636 178.531 26.2367C178.531 23.9398 178.125 22.0257 177.311 20.4944C176.498 18.9153 175.397 17.7908 174.009 17.1209C173.052 16.6424 171.928 16.4031 170.636 16.4031C168.77 16.4031 166.784 16.9295 164.678 17.9822C162.621 19.035 160.706 20.5423 158.936 22.5042C157.165 24.4183 155.826 26.5956 154.916 29.036ZM208.122 40.8793C208.122 44.4682 208.6 47.0283 209.557 48.5596C210.562 50.0908 212.046 50.8564 214.007 50.8564C215.252 50.8564 216.735 50.5933 218.458 50.0669V50.5693C215.826 51.1436 213.672 51.4307 211.998 51.4307C209.031 51.4307 206.734 50.6411 205.107 49.062C203.528 47.4829 202.714 44.8271 202.667 41.0947V19.2742H199.221V18.4129H202.667V14.9676C202.667 11.0916 202.092 8.62718 200.944 7.57444H208.122V18.4129H214.366V19.2742H208.122V40.8793ZM224.954 49.2056C223.087 48.4878 221.317 47.3872 219.642 45.9038C218.015 44.3725 216.675 42.5302 215.622 40.3769C214.618 38.1757 214.115 35.807 214.115 33.2709C214.115 31.1176 214.498 28.9642 215.264 26.8109C216.556 23.0306 218.685 20.1116 221.652 18.054C224.619 15.9964 227.92 14.9676 231.557 14.9676C234.859 14.9676 237.945 15.805 240.816 17.4798C243.64 19.1067 245.769 21.2361 247.205 23.868C248.688 26.452 249.43 29.2513 249.43 32.266C249.43 35.1371 248.784 37.9125 247.492 40.5922C246.008 43.7026 243.879 46.143 241.104 47.9136C238.328 49.6362 235.266 50.4976 231.916 50.4976C229.571 50.4976 227.25 50.0669 224.954 49.2056ZM225.097 48.5596C226.15 49.0859 227.394 49.3491 228.83 49.3491C231.461 49.3491 234.069 48.3681 236.653 46.4062C239.285 44.3964 241.391 41.6689 242.97 38.2236C244.405 34.9696 245.123 31.8114 245.123 28.7489C245.123 26.3563 244.716 24.2269 243.903 22.3607C243.089 20.4944 241.941 19.0828 240.458 18.1258C238.926 17.073 237.132 16.5467 235.074 16.5467C232.203 16.5467 229.38 17.6233 226.604 19.7767C223.829 21.93 221.676 25.0164 220.144 29.036C219.14 31.5721 218.637 34.1322 218.637 36.7162C218.637 39.4916 219.235 41.9321 220.432 44.0376C221.628 46.143 223.183 47.6504 225.097 48.5596ZM7.87738 110.38C8.64301 107.126 10.1025 104.399 12.2558 102.198C14.4092 99.9485 16.8496 98.824 19.5772 98.824C20.3906 98.824 21.1563 98.9197 21.874 99.1111V105.499C19.9121 104.494 18.0937 103.992 16.4189 103.992C13.9785 103.992 11.9687 104.925 10.3896 106.791C8.85834 108.658 8.02093 111.074 7.87738 114.041V127.607C7.87738 131.435 8.4516 133.899 9.60004 135H0.699598C1.84804 133.756 2.42226 131.291 2.42226 127.607V106.504C2.42226 102.628 1.84804 100.164 0.699598 99.1111H7.87738V110.38ZM28.2045 117.056C28.0131 118.06 27.9174 119.185 27.9174 120.429C27.9174 123.205 28.4916 125.669 29.6401 127.822C30.8364 129.928 32.4155 131.459 34.3774 132.416C36.1001 133.229 37.9184 133.636 39.8325 133.636C42.0337 133.636 44.187 133.11 46.2925 132.057C48.4458 131.004 50.336 129.449 51.963 127.392H56.0543C54.3316 129.641 52.1544 131.387 49.5225 132.631C46.9385 133.875 44.1631 134.498 41.1963 134.498C38.8037 134.498 36.459 134.067 34.1621 133.206C32.2958 132.488 30.5253 131.387 28.8505 129.904C27.2235 128.373 25.8837 126.53 24.8309 124.377C23.8261 122.176 23.3236 119.807 23.3236 117.271C23.3236 115.118 23.7064 112.964 24.4721 110.811C25.8119 106.935 28.037 104.016 31.1474 102.054C34.3056 100.092 37.751 99.1111 41.4834 99.1111C44.1631 99.1111 46.6753 99.5896 49.0201 100.547C51.7476 101.599 53.901 103.49 55.4801 106.217C57.107 108.945 57.9205 111.983 57.9205 115.333C57.9205 116.099 57.8966 116.673 57.8487 117.056H28.2045ZM29.353 113.036C28.9701 113.945 28.6591 114.998 28.4198 116.194H52.1783C52.7047 113.849 52.9678 111.864 52.9678 110.237C52.9678 107.94 52.5611 106.026 51.7476 104.494C50.9341 102.915 49.8335 101.791 48.4458 101.121C47.4888 100.642 46.3643 100.403 45.0723 100.403C43.2061 100.403 41.2202 100.929 39.1147 101.982C37.0571 103.035 35.143 104.542 33.3725 106.504C31.602 108.418 30.2621 110.596 29.353 113.036ZM88.3201 135V129.688C86.9802 131.794 85.1858 133.397 82.9367 134.498C80.6877 135.55 78.2712 136.077 75.6872 136.077C73.2467 136.077 70.9259 135.622 68.7247 134.713C66.5714 133.804 64.8248 132.512 63.485 130.837C62.1451 129.162 61.4752 127.224 61.4752 125.023C61.4752 122.774 62.0733 120.908 63.2696 119.424C64.4659 117.893 65.9972 116.649 67.8634 115.692C69.7775 114.687 72.7682 113.299 76.8356 111.529L88.2483 106.648C88.009 103.825 87.0999 101.671 85.5207 100.188C83.9416 98.7044 82.0993 97.9627 79.9939 97.9627C78.5104 97.9627 77.051 98.3455 75.6154 99.1111C74.2277 99.8767 73.0553 101.001 72.0983 102.485C71.1891 103.92 70.6867 105.619 70.591 107.581H64.5616C64.9923 104.327 66.6671 101.791 69.5861 99.9724C72.5529 98.1541 75.9025 97.2449 79.635 97.2449C83.4631 97.2449 86.741 98.178 89.4685 100.044C92.2439 101.863 93.6795 104.447 93.7752 107.796V127.607C93.7752 131.435 94.3494 133.899 95.4979 135H88.3201ZM67.1456 123.946C67.1456 126.147 67.6242 128.061 68.5812 129.688C69.5861 131.268 70.902 132.488 72.529 133.349C74.1559 134.163 75.9025 134.569 77.7687 134.569C79.8742 134.569 81.8601 134.019 83.7263 132.918C85.6404 131.818 87.1716 130.191 88.3201 128.038V108.083V107.437L77.1227 112.246C74.3952 113.443 72.4093 114.4 71.1652 115.118C69.9689 115.835 68.9879 116.888 68.2223 118.276C67.5045 119.616 67.1456 121.506 67.1456 123.946ZM109.938 133.206C108.072 132.488 106.301 131.387 104.627 129.904C103 128.373 101.66 126.53 100.607 124.377C99.6021 122.176 99.0996 119.807 99.0996 117.271C99.0996 115.118 99.4825 112.964 100.248 110.811C101.588 106.983 103.837 104.064 106.995 102.054C110.153 100.044 113.599 99.0393 117.331 99.0393C120.011 99.0393 122.499 99.5418 124.796 100.547C127.332 101.695 129.39 103.25 130.969 105.212C132.548 107.126 133.433 108.897 133.625 110.524L128.241 108.729C128.337 108.347 128.385 107.772 128.385 107.007C128.385 104.997 127.667 103.418 126.232 102.269C124.796 101.073 122.978 100.475 120.777 100.475C117.762 100.475 114.771 101.552 111.804 103.705C108.885 105.81 106.66 108.921 105.129 113.036C104.076 115.859 103.55 118.491 103.55 120.932C103.55 123.516 104.1 125.765 105.201 127.679C106.301 129.593 107.785 131.052 109.651 132.057C111.517 133.062 113.527 133.564 115.68 133.564C117.834 133.564 119.963 133.062 122.069 132.057C124.222 131.004 126.112 129.449 127.739 127.392H131.83C130.108 129.641 127.93 131.387 125.299 132.631C122.715 133.875 119.939 134.498 116.972 134.498C114.58 134.498 112.235 134.067 109.938 133.206ZM162.823 135C163.971 133.756 164.545 131.291 164.545 127.607V111.242C164.545 107.366 163.732 104.494 162.105 102.628C160.478 100.762 158.396 99.8289 155.86 99.8289C153.659 99.8289 151.434 100.451 149.185 101.695C146.936 102.891 145.093 104.471 143.658 106.432V127.607C143.658 131.435 144.232 133.899 145.381 135H136.48C137.629 133.756 138.203 131.291 138.203 127.607V92.1487C138.203 88.2727 137.629 85.8083 136.48 84.7556H143.658V105.284C145.285 103.083 147.438 101.336 150.118 100.044C152.798 98.7522 155.501 98.1062 158.229 98.1062C161.626 98.1062 164.426 99.1829 166.627 101.336C168.876 103.442 170 106.6 170 110.811V127.607C170 131.435 170.575 133.899 171.723 135H162.823ZM200.471 133.206C198.604 132.488 196.834 131.387 195.159 129.904C193.532 128.373 192.192 126.53 191.14 124.377C190.135 122.176 189.632 119.807 189.632 117.271C189.632 115.118 190.015 112.964 190.781 110.811C192.073 107.031 194.202 104.112 197.169 102.054C200.136 99.9964 203.437 98.9676 207.074 98.9676C210.376 98.9676 213.462 99.805 216.334 101.48C219.157 103.107 221.286 105.236 222.722 107.868C224.205 110.452 224.947 113.251 224.947 116.266C224.947 119.137 224.301 121.913 223.009 124.592C221.525 127.703 219.396 130.143 216.621 131.914C213.845 133.636 210.783 134.498 207.433 134.498C205.088 134.498 202.768 134.067 200.471 133.206ZM200.614 132.56C201.667 133.086 202.911 133.349 204.347 133.349C206.978 133.349 209.586 132.368 212.17 130.406C214.802 128.396 216.908 125.669 218.487 122.224C219.922 118.97 220.64 115.811 220.64 112.749C220.64 110.356 220.233 108.227 219.42 106.361C218.606 104.494 217.458 103.083 215.975 102.126C214.443 101.073 212.649 100.547 210.591 100.547C207.72 100.547 204.897 101.623 202.122 103.777C199.346 105.93 197.193 109.016 195.662 113.036C194.657 115.572 194.154 118.132 194.154 120.716C194.154 123.492 194.752 125.932 195.949 128.038C197.145 130.143 198.7 131.65 200.614 132.56ZM256.62 133.995V127.822C254.993 130.023 252.84 131.77 250.16 133.062C247.48 134.354 244.777 135 242.049 135C238.652 135 235.828 133.947 233.579 131.842C231.378 129.688 230.277 126.506 230.277 122.295V106.504C230.277 102.628 229.703 100.164 228.555 99.1111H235.733V121.865C235.733 125.741 236.546 128.612 238.173 130.478C239.8 132.344 241.882 133.277 244.418 133.277C246.619 133.277 248.844 132.679 251.093 131.483C253.342 130.239 255.184 128.636 256.62 126.674V106.504C256.62 102.628 256.046 100.164 254.897 99.1111H262.075V126.602C262.075 130.43 262.649 132.895 263.798 133.995H256.62ZM273.4 124.879C273.4 128.468 273.879 131.028 274.836 132.56C275.841 134.091 277.324 134.856 279.286 134.856C280.53 134.856 282.014 134.593 283.736 134.067V134.569C281.104 135.144 278.951 135.431 277.276 135.431C274.309 135.431 272.012 134.641 270.386 133.062C268.806 131.483 267.993 128.827 267.945 125.095V103.274H264.5V102.413H267.945V98.9676C267.945 95.0916 267.371 92.6272 266.222 91.5744H273.4V102.413H279.645V103.274H273.4V124.879ZM299.588 123.946L299.517 120.07C299.517 118.3 299.852 116.745 300.522 115.405C301.239 114.065 302.675 112.677 304.828 111.242C308.561 108.705 311.551 106.217 313.8 103.777C316.049 101.336 317.174 98.8479 317.174 96.3118C317.174 94.8762 316.719 93.4167 315.81 91.9333C314.805 90.2585 313.561 89.0144 312.078 88.2009C310.594 87.3396 309.015 86.9089 307.34 86.9089C304.661 86.9089 302.005 87.9616 299.373 90.0671C296.741 92.1726 294.54 95.1873 292.77 99.1111H286.597C288.415 94.5173 290.951 90.9763 294.205 88.488C297.459 85.9518 300.857 84.6838 304.398 84.6838C306.79 84.6838 309.039 85.2819 311.145 86.4782C313.25 87.6267 315.069 89.3254 316.6 91.5744C318.418 94.3498 319.327 97.1013 319.327 99.8289C319.327 102.844 318.322 105.691 316.313 108.37C314.351 111.05 311.719 113.395 308.417 115.405L305.474 117.343C303.799 118.395 302.627 119.185 301.957 119.711C301.335 120.238 300.88 120.812 300.593 121.434C300.354 122.008 300.234 122.846 300.234 123.946H299.588ZM300.378 134.928C299.469 134.928 298.679 134.617 298.009 133.995C297.387 133.325 297.076 132.536 297.076 131.626C297.076 130.717 297.387 129.952 298.009 129.33C298.679 128.66 299.469 128.325 300.378 128.325C301.287 128.325 302.053 128.66 302.675 129.33C303.345 129.952 303.68 130.717 303.68 131.626C303.68 132.536 303.345 133.325 302.675 133.995C302.053 134.617 301.287 134.928 300.378 134.928Z" fill="#2D1A06"/>
</svg>
