<svg width="137" height="36" viewBox="0 0 137 36" fill="none" xmlns="http://www.w3.org/2000/svg">
<path d="M5.45581 30.2869C7.14014 32.0036 9.05121 32.862 11.189 32.862C13.5212 32.862 15.8533 31.9226 18.1855 30.0439C20.55 28.1653 22.4773 25.7683 23.9673 22.8531C25.4896 19.9056 26.2508 16.9742 26.2508 14.059C26.2508 11.5001 25.6192 9.21653 24.356 7.20828C23.4166 5.75069 22.3315 4.66559 21.1007 3.95299C19.9022 3.24039 18.6227 2.88409 17.2623 2.88409C14.8978 2.88409 12.517 3.79103 10.1201 5.60493C7.72318 7.41883 5.74733 9.76717 4.19256 12.65C2.63779 15.5004 1.86041 18.3832 1.86041 21.2984C1.86041 24.7966 3.05887 27.7928 5.45581 30.2869ZM22.121 31.9388C21.0521 32.8134 19.8536 33.4774 18.5256 33.9309C17.2299 34.3843 15.8857 34.6111 14.4929 34.6111C12.7438 34.6111 11.0595 34.271 9.4399 33.5908C7.82035 32.8781 6.39515 31.874 5.16429 30.5784C3.57713 28.8617 2.37866 26.8858 1.56889 24.6508C0.759114 22.3835 0.354226 20.0351 0.354226 17.6058C0.354226 15.0469 0.791505 12.6176 1.66606 10.3178C2.54062 8.01806 3.75528 6.12319 5.31005 4.6332C6.60569 3.40234 7.9985 2.4792 9.48849 1.86377C10.9785 1.24834 12.4847 0.940626 14.007 0.940626C16.0801 0.940626 18.0397 1.47508 19.886 2.54398C21.7647 3.58049 23.3356 5.05428 24.5989 6.96535C25.7002 8.64968 26.5262 10.4474 27.0768 12.3585C27.6274 14.2695 27.9028 16.1968 27.9028 18.1402C27.9028 20.9259 27.3845 23.5495 26.348 26.0113C25.3115 28.473 23.9025 30.4488 22.121 31.9388ZM36.3678 28.1005C36.3678 30.5298 36.6917 32.2627 37.3396 33.2992C38.0198 34.3357 39.0239 34.854 40.3519 34.854C41.1941 34.854 42.1982 34.6758 43.3643 34.3195V34.6597C41.5828 35.0483 40.1252 35.2427 38.9915 35.2427C36.9833 35.2427 35.4285 34.7082 34.3272 33.6393C33.2583 32.5704 32.7076 30.7727 32.6753 28.2462V13.4759H30.3431V12.8929H32.6753V10.5608C32.6753 7.93708 32.2866 6.26895 31.5092 5.55634H36.3678V12.8929H40.5949V13.4759H36.3678V28.1005ZM64.1035 34.9512C64.8809 34.109 65.2696 32.4409 65.2696 29.9468V18.869C65.2696 16.2454 64.7189 14.3019 63.6176 13.0387C62.5163 11.7754 61.1073 11.1438 59.3906 11.1438C57.9006 11.1438 56.3944 11.5649 54.8721 12.407C53.3497 13.2168 52.1026 14.2857 51.1309 15.6137V29.9468C51.1309 32.538 51.5196 34.2062 52.297 34.9512H46.2723C47.0496 34.109 47.4383 32.4409 47.4383 29.9468V5.94504C47.4383 3.32137 47.0496 1.65323 46.2723 0.940626H51.1309V14.8364C52.2322 13.3464 53.6898 12.1641 55.5037 11.2896C57.3176 10.415 59.1477 9.97772 60.994 9.97772C63.2937 9.97772 65.1886 10.7065 66.6786 12.1641C68.201 13.5893 68.9621 15.7271 68.9621 18.5775V29.9468C68.9621 32.538 69.3508 34.2062 70.1282 34.9512H64.1035ZM76.8225 22.8045C76.693 23.4848 76.6282 24.2459 76.6282 25.0881C76.6282 26.9668 77.0169 28.6349 77.7943 30.0925C78.604 31.5177 79.6729 32.5542 81.001 33.2021C82.167 33.7527 83.3979 34.028 84.6935 34.028C86.1835 34.028 87.6411 33.6717 89.0663 32.9591C90.5239 32.2465 91.8034 31.1938 92.9047 29.801H95.6741C94.508 31.3234 93.0342 32.5057 91.2527 33.3478C89.5036 34.19 87.6249 34.6111 85.6167 34.6111C83.9971 34.6111 82.41 34.3195 80.8552 33.7365C79.592 33.2506 78.3935 32.5057 77.2598 31.5015C76.1585 30.465 75.2516 29.218 74.539 27.7604C73.8588 26.2704 73.5186 24.667 73.5186 22.9503C73.5186 21.4927 73.7778 20.0351 74.296 18.5775C75.203 15.9539 76.7092 13.978 78.8146 12.65C80.9524 11.3219 83.2845 10.6579 85.811 10.6579C87.6249 10.6579 89.3255 10.9818 90.9126 11.6297C92.7589 12.3423 94.2165 13.6217 95.2854 15.468C96.3867 17.3143 96.9373 19.3711 96.9373 21.6385C96.9373 22.1567 96.9211 22.5454 96.8888 22.8045H76.8225ZM77.5999 20.0837C77.3408 20.6991 77.1302 21.4117 76.9683 22.2215H93.0504C93.4067 20.6344 93.5849 19.2901 93.5849 18.1888C93.5849 16.6341 93.3095 15.3384 92.7589 14.3019C92.2083 13.233 91.4633 12.4718 90.5239 12.0183C89.8761 11.6944 89.1149 11.5325 88.2404 11.5325C86.9771 11.5325 85.6329 11.8888 84.2077 12.6014C82.8149 13.314 81.5192 14.3343 80.3208 15.6623C79.1223 16.958 78.2153 18.4318 77.5999 20.0837ZM105.174 18.286C105.692 16.0834 106.68 14.2371 108.138 12.7471C109.595 11.2248 111.247 10.4636 113.093 10.4636C113.644 10.4636 114.162 10.5284 114.648 10.6579V14.9821C113.32 14.3019 112.089 13.9618 110.956 13.9618C109.304 13.9618 107.943 14.5934 106.874 15.8567C105.838 17.1199 105.271 18.7557 105.174 20.7639V29.9468C105.174 32.538 105.563 34.2062 106.34 34.9512H100.315C101.093 34.109 101.481 32.4409 101.481 29.9468V15.6623C101.481 13.0387 101.093 11.3705 100.315 10.6579H105.174V18.286ZM125.337 34.8054C124.657 34.773 123.912 34.6597 123.102 34.4653C122.26 34.3357 121.726 34.271 121.499 34.271C121.078 34.271 120.722 34.3357 120.43 34.4653L118.535 26.9344L118.73 26.8372C119.183 28.0033 120.025 29.0398 121.256 29.9468C122.519 30.8537 123.944 31.5663 125.532 32.0846C127.151 32.5704 128.69 32.8134 130.147 32.8134C131.702 32.8134 132.965 32.5218 133.937 31.9388C134.941 31.3558 135.443 30.465 135.443 29.2666C135.443 28.4892 135.136 27.8252 134.52 27.2745C133.937 26.6915 133.208 26.2218 132.334 25.8655C131.459 25.5092 130.228 25.0719 128.641 24.5537C126.568 23.9058 124.868 23.2904 123.54 22.7074C122.212 22.0919 121.078 21.2498 120.139 20.1809C119.199 19.0796 118.73 17.703 118.73 16.051C118.73 13.9456 119.426 12.3585 120.819 11.2896C122.244 10.1883 124.22 9.63761 126.746 9.63761C127.103 9.63761 127.702 9.67 128.544 9.73478L130.196 9.92913C131.103 10.0911 131.848 10.1721 132.431 10.1721C133.111 10.1721 133.597 10.0263 133.889 9.73478L135.54 16.5369L135.346 16.6341C135.022 15.6623 134.293 14.7878 133.16 14.0104C132.026 13.2006 130.682 12.569 129.127 12.1155C127.605 11.6297 126.131 11.3867 124.706 11.3867C123.086 11.3867 121.758 11.7106 120.722 12.3585C119.717 12.9739 119.215 13.9294 119.215 15.2251C119.215 16.4235 119.798 17.3629 120.964 18.0431C122.163 18.6909 123.977 19.3711 126.406 20.0837C128.544 20.7639 130.261 21.3955 131.556 21.9786C132.852 22.5292 133.937 23.3228 134.812 24.3593C135.719 25.3958 136.123 26.7077 136.026 28.2948C135.897 30.5946 135.168 32.2789 133.84 33.3478C132.544 34.3843 130.439 34.9026 127.524 34.9026C127.103 34.9026 126.374 34.8702 125.337 34.8054Z" fill="#2D1A06"/>
</svg>
