<svg width="251" height="35" viewBox="0 0 251 35" fill="none" xmlns="http://www.w3.org/2000/svg">
<path d="M5.75196 29.943C7.43629 31.6597 9.34736 32.5181 11.4852 32.5181C13.8173 32.5181 16.1495 31.5787 18.4816 29.7001C20.8462 27.8214 22.7734 25.4245 24.2634 22.5093C25.7858 19.5617 26.547 16.6303 26.547 13.7151C26.547 11.1562 25.9154 8.87265 24.6521 6.86441C23.7128 5.40682 22.6277 4.32172 21.3968 3.60912C20.1983 2.89652 18.9189 2.54021 17.5585 2.54021C15.1939 2.54021 12.8132 3.44716 10.4163 5.26106C8.01933 7.07495 6.04348 9.4233 4.48871 12.3061C2.93394 15.1565 2.15656 18.0393 2.15656 20.9545C2.15656 24.4527 3.35502 27.4489 5.75196 29.943ZM22.4171 31.5949C21.3482 32.4695 20.1498 33.1335 18.8217 33.587C17.5261 34.0405 16.1819 34.2672 14.789 34.2672C13.0399 34.2672 11.3556 33.9271 9.73605 33.2469C8.1165 32.5343 6.6913 31.5302 5.46044 30.2345C3.87328 28.5178 2.67481 26.5419 1.86504 24.307C1.05526 22.0396 0.650377 19.6912 0.650377 17.2619C0.650377 14.703 1.08765 12.2737 1.96221 9.97395C2.83677 7.67419 4.05143 5.77931 5.6062 4.28933C6.90184 3.05847 8.29465 2.13533 9.78464 1.5199C11.2746 0.904468 12.7808 0.596754 14.3032 0.596754C16.3762 0.596754 18.3359 1.13121 20.1821 2.20011C22.0608 3.23662 23.6318 4.71041 24.895 6.62148C25.9963 8.30581 26.8223 10.1035 27.3729 12.0146C27.9236 13.9256 28.1989 15.8529 28.1989 17.7964C28.1989 20.582 27.6807 23.2057 26.6442 25.6674C25.6076 28.1291 24.1986 30.105 22.4171 31.5949ZM50.6197 33.9271V29.7487C49.5184 31.2386 48.0608 32.4209 46.2469 33.2955C44.433 34.17 42.6029 34.6073 40.7566 34.6073C38.4569 34.6073 36.5458 33.8947 35.0234 32.4695C33.5334 31.0119 32.7884 28.8579 32.7884 26.0075V15.3185C32.7884 12.6948 32.3998 11.0267 31.6224 10.3141H36.481V25.716C36.481 28.3396 37.0317 30.2831 38.133 31.5464C39.2343 32.8096 40.6433 33.4412 42.36 33.4412C43.85 33.4412 45.3561 33.0363 46.8785 32.2266C48.4009 31.3844 49.648 30.2993 50.6197 28.9713V15.3185C50.6197 12.6948 50.231 11.0267 49.4536 10.3141H54.3123V28.9227C54.3123 31.514 54.701 33.1821 55.4783 33.9271H50.6197ZM63.2415 17.9421C63.7598 15.7395 64.7477 13.8933 66.2053 12.4033C67.6629 10.8809 69.3149 10.1197 71.1611 10.1197C71.7118 10.1197 72.23 10.1845 72.7159 10.3141V14.6383C71.3879 13.958 70.157 13.6179 69.0233 13.6179C67.3714 13.6179 66.011 14.2496 64.9421 15.5128C63.9056 16.7761 63.3387 18.4118 63.2415 20.42V29.6029C63.2415 32.1942 63.6302 33.8623 64.4076 34.6073H58.3829C59.1603 33.7651 59.549 32.097 59.549 29.6029V15.3185C59.549 12.6948 59.1603 11.0267 58.3829 10.3141H63.2415V17.9421ZM92.1372 0.596754L96.3642 0.548168C100.446 0.548168 103.911 1.06642 106.762 2.10294C109.645 3.13945 111.086 5.18008 111.086 8.22483C111.086 10.557 110.179 12.6138 108.365 14.3953C106.584 16.1768 104.025 17.7802 100.688 19.2054L92.1372 22.8494V29.6029C92.1372 32.1942 92.5259 33.8623 93.3033 34.6073H87.2786C88.056 33.7651 88.4446 32.097 88.4446 29.6029V5.60116C88.4446 2.97749 88.056 1.30936 87.2786 0.596754H92.1372ZM100.494 18.7195C102.761 17.7478 104.446 16.5169 105.547 15.0269C106.681 13.537 107.248 11.5449 107.248 9.0508C107.248 5.8441 106.082 3.70629 103.749 2.63739C101.417 1.56848 98.5668 1.03403 95.1982 1.03403L92.1372 1.08262V22.3149L100.494 18.7195ZM119.325 17.9421C119.843 15.7395 120.831 13.8933 122.289 12.4033C123.746 10.8809 125.398 10.1197 127.244 10.1197C127.795 10.1197 128.313 10.1845 128.799 10.3141V14.6383C127.471 13.958 126.24 13.6179 125.107 13.6179C123.455 13.6179 122.094 14.2496 121.025 15.5128C119.989 16.7761 119.422 18.4118 119.325 20.42V29.6029C119.325 32.1942 119.713 33.8623 120.491 34.6073H114.466C115.244 33.7651 115.632 32.097 115.632 29.6029V15.3185C115.632 12.6948 115.244 11.0267 114.466 10.3141H119.325V17.9421ZM138.089 33.3926C136.825 32.9068 135.627 32.1618 134.493 31.1577C133.392 30.1211 132.485 28.8741 131.772 27.4165C131.092 25.9265 130.752 24.3232 130.752 22.6064C130.752 21.1488 131.011 19.6912 131.529 18.2337C132.404 15.6748 133.845 13.6989 135.854 12.3061C137.862 10.9133 140.097 10.2169 142.559 10.2169C144.794 10.2169 146.883 10.7837 148.826 11.9174C150.737 13.0187 152.179 14.4601 153.15 16.2416C154.155 17.9907 154.657 19.8856 154.657 21.9262C154.657 23.8697 154.219 25.7484 153.345 27.5623C152.341 29.6677 150.899 31.3196 149.021 32.5181C147.142 33.6842 145.069 34.2672 142.802 34.2672C141.214 34.2672 139.643 33.9757 138.089 33.3926ZM138.186 32.9554C138.898 33.3117 139.741 33.4898 140.712 33.4898C142.494 33.4898 144.259 32.8258 146.008 31.4978C147.79 30.1373 149.215 28.2911 150.284 25.9589C151.256 23.7563 151.741 21.6185 151.741 19.5455C151.741 17.9259 151.466 16.4845 150.915 15.2213C150.365 13.958 149.587 13.0025 148.583 12.3547C147.547 11.6421 146.332 11.2858 144.939 11.2858C142.996 11.2858 141.085 12.0146 139.206 13.4722C137.327 14.9298 135.87 17.019 134.833 19.7398C134.153 21.4566 133.813 23.1895 133.813 24.9386C133.813 26.8173 134.218 28.4692 135.028 29.8944C135.837 31.3196 136.89 32.3399 138.186 32.9554ZM165.893 33.3926C164.63 32.9068 163.431 32.1618 162.298 31.1577C161.196 30.1211 160.289 28.8741 159.577 27.4165C158.897 25.9265 158.556 24.3232 158.556 22.6064C158.556 21.1488 158.816 19.6912 159.334 18.2337C160.241 15.6424 161.763 13.6665 163.901 12.3061C166.039 10.9457 168.371 10.2655 170.897 10.2655C172.711 10.2655 174.396 10.6056 175.95 11.2858C177.667 12.0632 179.06 13.1159 180.129 14.4439C181.198 15.7395 181.797 16.938 181.927 18.0393L178.283 16.8246C178.347 16.5655 178.38 16.1768 178.38 15.6586C178.38 14.2981 177.894 13.2292 176.922 12.4519C175.95 11.6421 174.72 11.2372 173.23 11.2372C171.189 11.2372 169.165 11.966 167.156 13.4236C165.18 14.8488 163.674 16.9542 162.638 19.7398C161.925 21.6509 161.569 23.4324 161.569 25.0843C161.569 26.8335 161.941 28.3558 162.686 29.6515C163.431 30.9471 164.435 31.935 165.699 32.6153C166.962 33.2955 168.322 33.6356 169.78 33.6356C171.238 33.6356 172.679 33.2955 174.104 32.6153C175.562 31.9027 176.841 30.8499 177.942 29.4571H180.712C179.546 30.9795 178.072 32.1618 176.291 33.0039C174.541 33.8461 172.663 34.2672 170.655 34.2672C169.035 34.2672 167.448 33.9757 165.893 33.3926ZM188.621 22.4607C188.491 23.1409 188.427 23.9021 188.427 24.7442C188.427 26.6229 188.815 28.2911 189.593 29.7487C190.402 31.1739 191.471 32.2104 192.799 32.8582C193.965 33.4088 195.196 33.6842 196.492 33.6842C197.982 33.6842 199.439 33.3279 200.865 32.6153C202.322 31.9027 203.602 30.8499 204.703 29.4571H207.472C206.306 30.9795 204.833 32.1618 203.051 33.0039C201.302 33.8461 199.423 34.2672 197.415 34.2672C195.795 34.2672 194.208 33.9757 192.654 33.3926C191.39 32.9068 190.192 32.1618 189.058 31.1577C187.957 30.1211 187.05 28.8741 186.337 27.4165C185.657 25.9265 185.317 24.3232 185.317 22.6064C185.317 21.1488 185.576 19.6912 186.094 18.2337C187.001 15.61 188.508 13.6341 190.613 12.3061C192.751 10.9781 195.083 10.3141 197.609 10.3141C199.423 10.3141 201.124 10.638 202.711 11.2858C204.557 11.9984 206.015 13.2778 207.084 15.1241C208.185 16.9704 208.736 19.0272 208.736 21.2946C208.736 21.8129 208.719 22.2015 208.687 22.4607H188.621ZM189.398 19.7398C189.139 20.3553 188.929 21.0679 188.767 21.8776H204.849C205.205 20.2905 205.383 18.9463 205.383 17.845C205.383 16.2902 205.108 14.9946 204.557 13.958C204.007 12.8891 203.262 12.1279 202.322 11.6745C201.674 11.3506 200.913 11.1886 200.039 11.1886C198.775 11.1886 197.431 11.5449 196.006 12.2575C194.613 12.9701 193.318 13.9904 192.119 15.3185C190.921 16.6141 190.014 18.0879 189.398 19.7398ZM218.916 34.4615C218.235 34.4291 217.491 34.3158 216.681 34.1214C215.839 33.9919 215.304 33.9271 215.077 33.9271C214.656 33.9271 214.3 33.9919 214.008 34.1214L212.114 26.5905L212.308 26.4934C212.761 27.6594 213.604 28.6959 214.834 29.6029C216.098 30.5098 217.523 31.2224 219.11 31.7407C220.73 32.2266 222.268 32.4695 223.726 32.4695C225.281 32.4695 226.544 32.178 227.516 31.5949C228.52 31.0119 229.022 30.1211 229.022 28.9227C229.022 28.1453 228.714 27.4813 228.099 26.9306C227.516 26.3476 226.787 25.8779 225.912 25.5216C225.038 25.1653 223.807 24.728 222.22 24.2098C220.147 23.562 218.446 22.9465 217.118 22.3635C215.79 21.7481 214.656 20.9059 213.717 19.837C212.778 18.7357 212.308 17.3591 212.308 15.7072C212.308 13.6017 213.004 12.0146 214.397 10.9457C215.822 9.84438 217.798 9.29374 220.325 9.29374C220.681 9.29374 221.28 9.32613 222.122 9.39091L223.774 9.58525C224.681 9.74721 225.426 9.82819 226.009 9.82819C226.69 9.82819 227.175 9.68243 227.467 9.39091L229.119 16.193L228.925 16.2902C228.601 15.3185 227.872 14.4439 226.738 13.6665C225.604 12.8567 224.26 12.2251 222.705 11.7716C221.183 11.2858 219.709 11.0429 218.284 11.0429C216.665 11.0429 215.337 11.3668 214.3 12.0146C213.296 12.63 212.794 13.5855 212.794 14.8812C212.794 16.0797 213.377 17.019 214.543 17.6992C215.741 18.347 217.555 19.0272 219.985 19.7398C222.122 20.42 223.839 21.0517 225.135 21.6347C226.43 22.1854 227.516 22.9789 228.39 24.0154C229.297 25.052 229.702 26.3638 229.605 27.951C229.475 30.2507 228.746 31.935 227.418 33.0039C226.123 34.0405 224.017 34.5587 221.102 34.5587C220.681 34.5587 219.952 34.5263 218.916 34.4615ZM239.318 34.4615C238.638 34.4291 237.893 34.3158 237.083 34.1214C236.241 33.9919 235.707 33.9271 235.48 33.9271C235.059 33.9271 234.703 33.9919 234.411 34.1214L232.516 26.5905L232.71 26.4934C233.164 27.6594 234.006 28.6959 235.237 29.6029C236.5 30.5098 237.925 31.2224 239.513 31.7407C241.132 32.2266 242.671 32.4695 244.128 32.4695C245.683 32.4695 246.946 32.178 247.918 31.5949C248.922 31.0119 249.424 30.1211 249.424 28.9227C249.424 28.1453 249.117 27.4813 248.501 26.9306C247.918 26.3476 247.189 25.8779 246.315 25.5216C245.44 25.1653 244.209 24.728 242.622 24.2098C240.549 23.562 238.849 22.9465 237.521 22.3635C236.193 21.7481 235.059 20.9059 234.119 19.837C233.18 18.7357 232.71 17.3591 232.71 15.7072C232.71 13.6017 233.407 12.0146 234.8 10.9457C236.225 9.84438 238.201 9.29374 240.727 9.29374C241.084 9.29374 241.683 9.32613 242.525 9.39091L244.177 9.58525C245.084 9.74721 245.829 9.82819 246.412 9.82819C247.092 9.82819 247.578 9.68243 247.869 9.39091L249.521 16.193L249.327 16.2902C249.003 15.3185 248.274 14.4439 247.141 13.6665C246.007 12.8567 244.663 12.2251 243.108 11.7716C241.586 11.2858 240.112 11.0429 238.687 11.0429C237.067 11.0429 235.739 11.3668 234.703 12.0146C233.698 12.63 233.196 13.5855 233.196 14.8812C233.196 16.0797 233.779 17.019 234.945 17.6992C236.144 18.347 237.958 19.0272 240.387 19.7398C242.525 20.42 244.242 21.0517 245.537 21.6347C246.833 22.1854 247.918 22.9789 248.793 24.0154C249.7 25.052 250.104 26.3638 250.007 27.951C249.878 30.2507 249.149 31.935 247.821 33.0039C246.525 34.0405 244.42 34.5587 241.505 34.5587C241.084 34.5587 240.355 34.5263 239.318 34.4615Z" fill="#2D1A06"/>
</svg>
