<svg width="561" height="36" viewBox="0 0 561 36" fill="none" xmlns="http://www.w3.org/2000/svg">
<path d="M5.2529 30.3357C6.93723 32.0524 8.8483 32.9108 10.9861 32.9108C13.3183 32.9108 15.6504 31.9714 17.9826 30.0928C20.3471 28.2141 22.2744 25.8172 23.7644 22.902C25.2867 19.9544 26.0479 17.023 26.0479 14.1078C26.0479 11.5489 25.4163 9.26535 24.153 7.25711C23.2137 5.79952 22.1286 4.71442 20.8977 4.00182C19.6993 3.28922 18.4198 2.93291 17.0594 2.93291C14.6949 2.93291 12.3141 3.83986 9.9172 5.65376C7.52027 7.46765 5.54442 9.816 3.98965 12.6988C2.43488 15.5492 1.6575 18.432 1.6575 21.3472C1.6575 24.8454 2.85596 27.8416 5.2529 30.3357ZM21.9181 31.9876C20.8492 32.8622 19.6507 33.5262 18.3227 33.9797C17.027 34.4332 15.6828 34.6599 14.29 34.6599C12.5409 34.6599 10.8565 34.3198 9.23699 33.6396C7.61744 32.927 6.19224 31.9229 4.96138 30.6272C3.37422 28.9105 2.17575 26.9346 1.36598 24.6997C0.556202 22.4323 0.151315 20.0839 0.151315 17.6546C0.151315 15.0957 0.588593 12.6664 1.46315 10.3666C2.33771 8.06689 3.55237 6.17202 5.10714 4.68203C6.40278 3.45117 7.79559 2.52803 9.28558 1.9126C10.7756 1.29717 12.2817 0.989454 13.8041 0.989454C15.8771 0.989454 17.8368 1.52391 19.6831 2.59281C21.5618 3.62932 23.1327 5.10311 24.396 7.01418C25.4973 8.69851 26.3232 10.4962 26.8739 12.4073C27.4245 14.3183 27.6999 16.2456 27.6999 18.1891C27.6999 20.9747 27.1816 23.5984 26.1451 26.0601C25.1086 28.5218 23.6996 30.4977 21.9181 31.9876ZM50.1206 34.3198V30.1414C49.0193 31.6313 47.5617 32.8136 45.7478 33.6882C43.9339 34.5627 42.1039 35 40.2576 35C37.9578 35 36.0467 34.2874 34.5244 32.8622C33.0344 31.4046 32.2894 29.2506 32.2894 26.4002V15.7112C32.2894 13.0875 31.9007 11.4194 31.1233 10.7068H35.982V26.1087C35.982 28.7323 36.5326 30.6758 37.6339 31.9391C38.7352 33.2023 40.1442 33.8339 41.8609 33.8339C43.3509 33.8339 44.8571 33.429 46.3795 32.6193C47.9018 31.7771 49.1489 30.692 50.1206 29.364V15.7112C50.1206 13.0875 49.7319 11.4194 48.9545 10.7068H53.8132V29.3154C53.8132 31.9067 54.2019 33.5748 54.9793 34.3198H50.1206ZM62.7425 18.3348C63.2607 16.1322 64.2487 14.286 65.7063 12.796C67.1639 11.2736 68.8158 10.5124 70.6621 10.5124C71.2127 10.5124 71.731 10.5772 72.2168 10.7068V15.031C70.8888 14.3507 69.658 14.0106 68.5243 14.0106C66.8723 14.0106 65.5119 14.6423 64.443 15.9055C63.4065 17.1688 62.8397 18.8045 62.7425 20.8127V29.9956C62.7425 32.5869 63.1312 34.255 63.9086 35H57.8838C58.6612 34.1578 59.0499 32.4897 59.0499 29.9956V15.7112C59.0499 13.0875 58.6612 11.4194 57.8838 10.7068H62.7425V18.3348ZM80.9624 0.989454L85.1894 0.940868C89.2707 0.940868 92.7365 1.45912 95.587 2.49564C98.4697 3.53215 99.9111 5.57278 99.9111 8.61753C99.9111 10.9497 99.0042 13.0065 97.1903 14.788C95.4088 16.5695 92.8499 18.1729 89.5136 19.5981L80.9624 23.2421V29.9956C80.9624 32.5869 81.3511 34.255 82.1285 35H76.1038C76.8812 34.1578 77.2698 32.4897 77.2698 29.9956V5.99386C77.2698 3.37019 76.8812 1.70206 76.1038 0.989454H80.9624ZM89.3193 19.1122C91.5867 18.1405 93.271 16.9096 94.3723 15.4196C95.506 13.9297 96.0728 11.9376 96.0728 9.4435C96.0728 6.2368 94.9067 4.09899 92.5746 3.03009C90.2424 1.96118 87.392 1.42673 84.0234 1.42673L80.9624 1.47532V22.7076L89.3193 19.1122ZM117.572 35V31.4046C116.665 32.8298 115.45 33.9149 113.928 34.6599C112.406 35.3725 110.77 35.7288 109.021 35.7288C107.369 35.7288 105.798 35.4211 104.308 34.8057C102.85 34.1902 101.668 33.3157 100.761 32.182C99.8541 31.0483 99.4006 29.7365 99.4006 28.2465C99.4006 26.7241 99.8055 25.4609 100.615 24.4567C101.425 23.4202 102.462 22.5781 103.725 21.9302C105.02 21.25 107.045 20.3107 109.798 19.1122L117.523 15.8083C117.361 13.8973 116.746 12.4397 115.677 11.4356C114.608 10.4314 113.361 9.92937 111.936 9.92937C110.932 9.92937 109.944 10.1885 108.972 10.7068C108.033 11.225 107.239 11.9862 106.591 12.9903C105.976 13.962 105.636 15.1119 105.571 16.44H101.49C101.781 14.2374 102.915 12.5206 104.891 11.2898C106.899 10.0589 109.166 9.4435 111.693 9.4435C114.284 9.4435 116.503 10.0751 118.349 11.3384C120.228 12.5692 121.2 14.3183 121.265 16.5857V29.9956C121.265 32.5869 121.653 34.255 122.431 35H117.572ZM103.239 27.5177C103.239 29.0077 103.563 30.3033 104.211 31.4046C104.891 32.4735 105.782 33.2995 106.883 33.8825C107.984 34.4332 109.166 34.7085 110.43 34.7085C111.855 34.7085 113.199 34.336 114.462 33.591C115.758 32.846 116.795 31.7447 117.572 30.2871V16.7801V16.3428L109.992 19.5981C108.146 20.4079 106.802 21.0557 105.96 21.5415C105.15 22.0274 104.486 22.74 103.968 23.6793C103.482 24.5863 103.239 25.8657 103.239 27.5177ZM132.157 34.8542C131.476 34.8218 130.731 34.7085 129.922 34.5141C129.079 34.3846 128.545 34.3198 128.318 34.3198C127.897 34.3198 127.541 34.3846 127.249 34.5141L125.355 26.9832L125.549 26.8861C126.002 28.0521 126.845 29.0886 128.075 29.9956C129.339 30.9025 130.764 31.6151 132.351 32.1334C133.971 32.6193 135.509 32.8622 136.967 32.8622C138.521 32.8622 139.785 32.5707 140.756 31.9876C141.761 31.4046 142.263 30.5138 142.263 29.3154C142.263 28.538 141.955 27.874 141.339 27.3233C140.756 26.7403 140.028 26.2706 139.153 25.9143C138.279 25.558 137.048 25.1207 135.461 24.6025C133.387 23.9547 131.687 23.3392 130.359 22.7562C129.031 22.1408 127.897 21.2986 126.958 20.2297C126.019 19.1284 125.549 17.7518 125.549 16.0999C125.549 13.9944 126.245 12.4073 127.638 11.3384C129.063 10.2371 131.039 9.68644 133.566 9.68644C133.922 9.68644 134.521 9.71883 135.363 9.78361L137.015 9.97796C137.922 10.1399 138.667 10.2209 139.25 10.2209C139.93 10.2209 140.416 10.0751 140.708 9.78361L142.36 16.5857L142.165 16.6829C141.842 15.7112 141.113 14.8366 139.979 14.0592C138.845 13.2494 137.501 12.6178 135.946 12.1643C134.424 11.6785 132.95 11.4356 131.525 11.4356C129.905 11.4356 128.577 11.7595 127.541 12.4073C126.537 13.0227 126.035 13.9782 126.035 15.2739C126.035 16.4724 126.618 17.4117 127.784 18.0919C128.982 18.7397 130.796 19.4199 133.226 20.1325C135.363 20.8127 137.08 21.4444 138.376 22.0274C139.671 22.5781 140.756 23.3716 141.631 24.4081C142.538 25.4447 142.943 26.7565 142.846 28.3437C142.716 30.6434 141.987 32.3277 140.659 33.3966C139.364 34.4332 137.258 34.9514 134.343 34.9514C133.922 34.9514 133.193 34.919 132.157 34.8542ZM152.559 34.8542C151.879 34.8218 151.134 34.7085 150.324 34.5141C149.482 34.3846 148.948 34.3198 148.721 34.3198C148.3 34.3198 147.943 34.3846 147.652 34.5141L145.757 26.9832L145.951 26.8861C146.405 28.0521 147.247 29.0886 148.478 29.9956C149.741 30.9025 151.166 31.6151 152.754 32.1334C154.373 32.6193 155.912 32.8622 157.369 32.8622C158.924 32.8622 160.187 32.5707 161.159 31.9876C162.163 31.4046 162.665 30.5138 162.665 29.3154C162.665 28.538 162.357 27.874 161.742 27.3233C161.159 26.7403 160.43 26.2706 159.556 25.9143C158.681 25.558 157.45 25.1207 155.863 24.6025C153.79 23.9547 152.09 23.3392 150.761 22.7562C149.433 22.1408 148.3 21.2986 147.36 20.2297C146.421 19.1284 145.951 17.7518 145.951 16.0999C145.951 13.9944 146.648 12.4073 148.041 11.3384C149.466 10.2371 151.442 9.68644 153.968 9.68644C154.324 9.68644 154.924 9.71883 155.766 9.78361L157.418 9.97796C158.325 10.1399 159.07 10.2209 159.653 10.2209C160.333 10.2209 160.819 10.0751 161.11 9.78361L162.762 16.5857L162.568 16.6829C162.244 15.7112 161.515 14.8366 160.382 14.0592C159.248 13.2494 157.904 12.6178 156.349 12.1643C154.827 11.6785 153.353 11.4356 151.928 11.4356C150.308 11.4356 148.98 11.7595 147.943 12.4073C146.939 13.0227 146.437 13.9782 146.437 15.2739C146.437 16.4724 147.02 17.4117 148.186 18.0919C149.385 18.7397 151.199 19.4199 153.628 20.1325C155.766 20.8127 157.483 21.4444 158.778 22.0274C160.074 22.5781 161.159 23.3716 162.034 24.4081C162.94 25.4447 163.345 26.7565 163.248 28.3437C163.119 30.6434 162.39 32.3277 161.062 33.3966C159.766 34.4332 157.661 34.9514 154.746 34.9514C154.324 34.9514 153.596 34.919 152.559 34.8542ZM202.489 29.9956C202.489 32.5869 202.878 34.255 203.655 35H197.63C198.408 34.1578 198.796 32.4897 198.796 29.9956V2.9815L190.197 35H189.371L178.682 8.27743V29.9956C178.682 31.0969 178.941 32.0362 179.459 32.8136C180.01 33.5586 180.657 34.2874 181.402 35H175.378C175.475 34.9028 175.766 34.5951 176.252 34.0769C176.771 33.5586 177.208 32.9432 177.564 32.2306C177.92 31.518 178.099 30.773 178.099 29.9956V6.81983L175.766 0.989454H179.945L191.071 28.7809L198.748 0.989454H203.655C202.878 1.70206 202.489 3.37019 202.489 5.99386V29.9956ZM210.375 22.8534C210.245 23.5336 210.18 24.2948 210.18 25.1369C210.18 27.0156 210.569 28.6838 211.347 30.1414C212.156 31.5666 213.225 32.6031 214.553 33.2509C215.719 33.8015 216.95 34.0769 218.246 34.0769C219.736 34.0769 221.193 33.7206 222.619 33.008C224.076 32.2954 225.356 31.2426 226.457 29.8498H229.226C228.06 31.3722 226.587 32.5545 224.805 33.3966C223.056 34.2388 221.177 34.6599 219.169 34.6599C217.549 34.6599 215.962 34.3684 214.407 33.7853C213.144 33.2995 211.946 32.5545 210.812 31.5504C209.711 30.5138 208.804 29.2668 208.091 27.8092C207.411 26.3192 207.071 24.7159 207.071 22.9991C207.071 21.5415 207.33 20.0839 207.848 18.6264C208.755 16.0027 210.261 14.0268 212.367 12.6988C214.505 11.3708 216.837 10.7068 219.363 10.7068C221.177 10.7068 222.878 11.0307 224.465 11.6785C226.311 12.3911 227.769 13.6705 228.838 15.5168C229.939 17.3631 230.49 19.4199 230.49 21.6873C230.49 22.2056 230.473 22.5942 230.441 22.8534H210.375ZM211.152 20.1325C210.893 20.748 210.683 21.4606 210.521 22.2703H226.603C226.959 20.6832 227.137 19.339 227.137 18.2377C227.137 16.6829 226.862 15.3873 226.311 14.3507C225.761 13.2818 225.016 12.5206 224.076 12.0672C223.428 11.7433 222.667 11.5813 221.793 11.5813C220.529 11.5813 219.185 11.9376 217.76 12.6502C216.367 13.3628 215.072 14.3831 213.873 15.7112C212.675 17.0068 211.768 18.4806 211.152 20.1325ZM238.726 18.3348C239.244 16.1322 240.232 14.286 241.69 12.796C243.148 11.2736 244.799 10.5124 246.646 10.5124C247.196 10.5124 247.715 10.5772 248.201 10.7068V15.031C246.873 14.3507 245.642 14.0106 244.508 14.0106C242.856 14.0106 241.496 14.6423 240.427 15.9055C239.39 17.1688 238.823 18.8045 238.726 20.8127V29.9956C238.726 32.5869 239.115 34.255 239.892 35H233.868C234.645 34.1578 235.034 32.4897 235.034 29.9956V15.7112C235.034 13.0875 234.645 11.4194 233.868 10.7068H238.726V18.3348ZM257.49 33.7853C256.227 33.2995 255.028 32.5545 253.895 31.5504C252.793 30.5138 251.886 29.2668 251.174 27.8092C250.494 26.3192 250.153 24.7159 250.153 22.9991C250.153 21.5415 250.413 20.0839 250.931 18.6264C251.838 16.0351 253.36 14.0592 255.498 12.6988C257.636 11.3384 259.968 10.6582 262.494 10.6582C264.308 10.6582 265.993 10.9983 267.547 11.6785C269.264 12.4559 270.657 13.5086 271.726 14.8366C272.795 16.1322 273.394 17.3307 273.524 18.432L269.88 17.2173C269.944 16.9582 269.977 16.5695 269.977 16.0513C269.977 14.6908 269.491 13.6219 268.519 12.8446C267.547 12.0348 266.317 11.6299 264.827 11.6299C262.786 11.6299 260.762 12.3587 258.753 13.8163C256.777 15.2415 255.271 17.3469 254.235 20.1325C253.522 22.0436 253.166 23.8251 253.166 25.477C253.166 27.2262 253.538 28.7485 254.283 30.0442C255.028 31.3398 256.032 32.3277 257.296 33.008C258.559 33.6882 259.919 34.0283 261.377 34.0283C262.835 34.0283 264.276 33.6882 265.701 33.008C267.159 32.2954 268.438 31.2426 269.539 29.8498H272.309C271.143 31.3722 269.669 32.5545 267.888 33.3966C266.138 34.2388 264.26 34.6599 262.252 34.6599C260.632 34.6599 259.045 34.3684 257.49 33.7853ZM294.259 35C295.037 34.1578 295.425 32.4897 295.425 29.9956V18.9179C295.425 16.2942 294.875 14.3507 293.774 13.0875C292.672 11.8242 291.263 11.1926 289.546 11.1926C288.057 11.1926 286.55 11.6137 285.028 12.4559C283.506 13.2656 282.259 14.3345 281.287 15.6626V29.9956C281.287 32.5869 281.675 34.255 282.453 35H276.428C277.206 34.1578 277.594 32.4897 277.594 29.9956V5.99386C277.594 3.37019 277.206 1.70206 276.428 0.989454H281.287V14.8852C282.388 13.3952 283.846 12.2129 285.66 11.3384C287.473 10.4638 289.304 10.0265 291.15 10.0265C293.45 10.0265 295.344 10.7553 296.834 12.2129C298.357 13.6381 299.118 15.7759 299.118 18.6264V29.9956C299.118 32.5869 299.507 34.255 300.284 35H294.259ZM321.36 35V31.4046C320.453 32.8298 319.238 33.9149 317.716 34.6599C316.194 35.3725 314.558 35.7288 312.809 35.7288C311.157 35.7288 309.586 35.4211 308.096 34.8057C306.638 34.1902 305.456 33.3157 304.549 32.182C303.642 31.0483 303.189 29.7365 303.189 28.2465C303.189 26.7241 303.594 25.4609 304.403 24.4567C305.213 23.4202 306.25 22.5781 307.513 21.9302C308.809 21.25 310.833 20.3107 313.586 19.1122L321.311 15.8083C321.149 13.8973 320.534 12.4397 319.465 11.4356C318.396 10.4314 317.149 9.92937 315.724 9.92937C314.72 9.92937 313.732 10.1885 312.76 10.7068C311.821 11.225 311.027 11.9862 310.379 12.9903C309.764 13.962 309.424 15.1119 309.359 16.44H305.278C305.569 14.2374 306.703 12.5206 308.679 11.2898C310.687 10.0589 312.955 9.4435 315.481 9.4435C318.072 9.4435 320.291 10.0751 322.137 11.3384C324.016 12.5692 324.988 14.3183 325.053 16.5857V29.9956C325.053 32.5869 325.441 34.255 326.219 35H321.36ZM307.027 27.5177C307.027 29.0077 307.351 30.3033 307.999 31.4046C308.679 32.4735 309.57 33.2995 310.671 33.8825C311.772 34.4332 312.955 34.7085 314.218 34.7085C315.643 34.7085 316.987 34.336 318.25 33.591C319.546 32.846 320.583 31.7447 321.36 30.2871V16.7801V16.3428L313.781 19.5981C311.934 20.4079 310.59 21.0557 309.748 21.5415C308.938 22.0274 308.274 22.74 307.756 23.6793C307.27 24.5863 307.027 25.8657 307.027 27.5177ZM346.974 35C347.751 34.1578 348.14 32.4897 348.14 29.9956V18.9179C348.14 16.2942 347.589 14.3507 346.488 13.0875C345.387 11.8242 343.978 11.1926 342.261 11.1926C340.771 11.1926 339.265 11.6137 337.742 12.4559C336.22 13.2656 334.973 14.3345 334.001 15.6626V29.9956C334.001 32.5869 334.39 34.255 335.167 35H329.143C329.92 34.1578 330.309 32.4897 330.309 29.9956V15.7112C330.309 13.0875 329.92 11.4194 329.143 10.7068H334.001V14.8852C335.103 13.3952 336.56 12.2129 338.374 11.3384C340.188 10.4638 342.018 10.0265 343.864 10.0265C346.164 10.0265 348.059 10.7553 349.549 12.2129C351.071 13.6381 351.832 15.7759 351.832 18.6264V29.9956C351.832 32.5869 352.221 34.255 352.999 35H346.974ZM360.47 28.1493C360.47 30.5786 360.794 32.3115 361.442 33.3481C362.122 34.3846 363.126 34.9028 364.454 34.9028C365.297 34.9028 366.301 34.7247 367.467 34.3684V34.7085C365.685 35.0972 364.228 35.2915 363.094 35.2915C361.086 35.2915 359.531 34.7571 358.43 33.6882C357.361 32.6193 356.81 30.8216 356.778 28.2951V13.5248H354.446V12.9417H356.778V10.6096C356.778 7.98591 356.389 6.31777 355.612 5.60517H360.47V12.9417H364.697V13.5248H360.47V28.1493ZM385.909 0.989454L390.136 0.940868C394.217 0.940868 397.683 1.45912 400.534 2.49564C403.416 3.53215 404.858 5.57278 404.858 8.61753C404.858 10.9497 403.951 13.0065 402.137 14.788C400.355 16.5695 397.797 18.1729 394.46 19.5981L385.909 23.2421V29.9956C385.909 32.5869 386.298 34.255 387.075 35H381.05C381.828 34.1578 382.217 32.4897 382.217 29.9956V5.99386C382.217 3.37019 381.828 1.70206 381.05 0.989454H385.909ZM394.266 19.1122C396.533 18.1405 398.218 16.9096 399.319 15.4196C400.453 13.9297 401.019 11.9376 401.019 9.4435C401.019 6.2368 399.853 4.09899 397.521 3.03009C395.189 1.96118 392.339 1.42673 388.97 1.42673L385.909 1.47532V22.7076L394.266 19.1122ZM408.238 35C409.015 34.1578 409.404 32.4897 409.404 29.9956V5.99386C409.404 3.37019 409.015 1.70206 408.238 0.989454H413.097V29.9956C413.097 32.5869 413.485 34.255 414.263 35H408.238ZM435.33 35V31.4046C434.423 32.8298 433.208 33.9149 431.686 34.6599C430.163 35.3725 428.527 35.7288 426.778 35.7288C425.126 35.7288 423.555 35.4211 422.065 34.8057C420.608 34.1902 419.426 33.3157 418.519 32.182C417.612 31.0483 417.158 29.7365 417.158 28.2465C417.158 26.7241 417.563 25.4609 418.373 24.4567C419.183 23.4202 420.219 22.5781 421.482 21.9302C422.778 21.25 424.802 20.3107 427.556 19.1122L435.281 15.8083C435.119 13.8973 434.504 12.4397 433.435 11.4356C432.366 10.4314 431.119 9.92937 429.693 9.92937C428.689 9.92937 427.701 10.1885 426.73 10.7068C425.79 11.225 424.997 11.9862 424.349 12.9903C423.734 13.962 423.393 15.1119 423.329 16.44H419.247C419.539 14.2374 420.673 12.5206 422.648 11.2898C424.657 10.0589 426.924 9.4435 429.451 9.4435C432.042 9.4435 434.261 10.0751 436.107 11.3384C437.986 12.5692 438.957 14.3183 439.022 16.5857V29.9956C439.022 32.5869 439.411 34.255 440.188 35H435.33ZM420.996 27.5177C420.996 29.0077 421.32 30.3033 421.968 31.4046C422.648 32.4735 423.539 33.2995 424.64 33.8825C425.742 34.4332 426.924 34.7085 428.187 34.7085C429.612 34.7085 430.957 34.336 432.22 33.591C433.516 32.846 434.552 31.7447 435.33 30.2871V16.7801V16.3428L427.75 19.5981C425.904 20.4079 424.559 21.0557 423.717 21.5415C422.908 22.0274 422.244 22.74 421.725 23.6793C421.239 24.5863 420.996 25.8657 420.996 27.5177ZM447.679 28.1493C447.679 30.5786 448.003 32.3115 448.651 33.3481C449.331 34.3846 450.335 34.9028 451.663 34.9028C452.505 34.9028 453.51 34.7247 454.676 34.3684V34.7085C452.894 35.0972 451.437 35.2915 450.303 35.2915C448.295 35.2915 446.74 34.7571 445.639 33.6882C444.57 32.6193 444.019 30.8216 443.987 28.2951V13.5248H441.654V12.9417H443.987V10.6096C443.987 7.98591 443.598 6.31777 442.821 5.60517H447.679V12.9417H451.906V13.5248H447.679V28.1493ZM458.701 10.6582C458.701 8.58514 459.09 6.81984 459.867 5.36224C460.645 3.90464 461.649 2.81955 462.88 2.10694C464.11 1.36195 465.422 0.989454 466.815 0.989454C468.143 0.989454 469.374 1.31336 470.508 1.96119C471.674 2.57661 472.613 3.49976 473.326 4.73062C474.038 5.96147 474.395 7.41907 474.395 9.1034C474.395 9.4597 474.362 9.99415 474.297 10.7068H470.556C470.848 9.37872 470.994 8.21265 470.994 7.20853C470.994 5.36224 470.637 3.92084 469.925 2.88433C469.212 1.84782 468.337 1.32956 467.301 1.32956C466.491 1.32956 465.698 1.68586 464.92 2.39846C464.175 3.07867 463.56 4.13138 463.074 5.55659C462.62 6.9494 462.394 8.66612 462.394 10.7068V15.7112H469.633V16.2942H462.394V29.9956C462.394 32.5869 462.782 34.255 463.56 35H457.535C458.312 34.1578 458.701 32.4897 458.701 29.9956V16.2942H456.369V15.7112H458.701V10.6582ZM480.779 33.7853C479.516 33.2995 478.317 32.5545 477.184 31.5504C476.082 30.5138 475.175 29.2668 474.463 27.8092C473.783 26.3192 473.443 24.7159 473.443 22.9991C473.443 21.5415 473.702 20.0839 474.22 18.6264C475.095 16.0675 476.536 14.0916 478.544 12.6988C480.552 11.306 482.787 10.6096 485.249 10.6096C487.484 10.6096 489.573 11.1764 491.517 12.3101C493.428 13.4114 494.869 14.8528 495.841 16.6343C496.845 18.3834 497.347 20.2783 497.347 22.3189C497.347 24.2624 496.91 26.1411 496.035 27.955C495.031 30.0604 493.59 31.7123 491.711 32.9108C489.832 34.0769 487.759 34.6599 485.492 34.6599C483.905 34.6599 482.334 34.3684 480.779 33.7853ZM480.876 33.3481C481.589 33.7044 482.431 33.8825 483.403 33.8825C485.184 33.8825 486.95 33.2185 488.699 31.8905C490.48 30.53 491.905 28.6838 492.974 26.3516C493.946 24.149 494.432 22.0112 494.432 19.9382C494.432 18.3186 494.157 16.8772 493.606 15.614C493.055 14.3507 492.278 13.3952 491.274 12.7474C490.237 12.0348 489.023 11.6785 487.63 11.6785C485.686 11.6785 483.775 12.4073 481.897 13.8649C480.018 15.3225 478.56 17.4117 477.524 20.1325C476.844 21.8493 476.504 23.5822 476.504 25.3313C476.504 27.21 476.908 28.8619 477.718 30.2871C478.528 31.7123 479.581 32.7326 480.876 33.3481ZM505.62 18.3348C506.138 16.1322 507.126 14.286 508.584 12.796C510.041 11.2736 511.693 10.5124 513.539 10.5124C514.09 10.5124 514.608 10.5772 515.094 10.7068V15.031C513.766 14.3507 512.535 14.0106 511.402 14.0106C509.75 14.0106 508.389 14.6423 507.32 15.9055C506.284 17.1688 505.717 18.8045 505.62 20.8127V29.9956C505.62 32.5869 506.008 34.255 506.786 35H500.761C501.538 34.1578 501.927 32.4897 501.927 29.9956V15.7112C501.927 13.0875 501.538 11.4194 500.761 10.7068H505.62V18.3348ZM554.303 35C555.081 34.1578 555.469 32.4897 555.469 29.9956V18.9179C555.469 16.2618 554.919 14.3022 553.818 13.0389C552.716 11.7757 551.291 11.144 549.542 11.144C548.084 11.144 546.594 11.5651 545.072 12.4073C543.55 13.2494 542.303 14.3345 541.331 15.6626C541.558 16.6667 541.671 17.6546 541.671 18.6264V29.9956C541.671 32.5869 542.06 34.255 542.837 35H536.812C537.59 34.1578 537.978 32.4897 537.978 29.9956V18.9179C537.978 16.2942 537.428 14.3507 536.326 13.0875C535.225 11.8242 533.816 11.1926 532.099 11.1926C530.609 11.1926 529.103 11.6137 527.581 12.4559C526.058 13.2656 524.811 14.3345 523.84 15.6626V29.9956C523.84 32.5869 524.228 34.255 525.006 35H518.981C519.758 34.1578 520.147 32.4897 520.147 29.9956V15.7112C520.147 13.0875 519.758 11.4194 518.981 10.7068H523.84V14.8852C524.941 13.3952 526.399 12.2129 528.212 11.3384C530.026 10.4638 531.84 10.0265 533.654 10.0265C535.403 10.0265 536.942 10.4638 538.27 11.3384C539.63 12.1805 540.586 13.4438 541.136 15.1281C542.238 13.5734 543.712 12.3425 545.558 11.4356C547.404 10.4962 549.283 10.0265 551.194 10.0265C553.494 10.0265 555.389 10.7553 556.878 12.2129C558.401 13.6381 559.162 15.7759 559.162 18.6264V29.9956C559.162 32.5869 559.551 34.255 560.328 35H554.303Z" fill="#2D1A06"/>
</svg>
