<svg width="401" height="45" viewBox="0 0 401 45" fill="none" xmlns="http://www.w3.org/2000/svg">
<path d="M5.20413 30.3357C6.88846 32.0524 8.79953 32.9108 10.9373 32.9108C13.2695 32.9108 15.6016 31.9714 17.9338 30.0928C20.2983 28.2141 22.2256 25.8172 23.7156 22.902C25.238 19.9544 25.9991 17.023 25.9991 14.1078C25.9991 11.5489 25.3675 9.26535 24.1043 7.25711C23.1649 5.79952 22.0798 4.71442 20.849 4.00182C19.6505 3.28922 18.3711 2.93291 17.0106 2.93291C14.6461 2.93291 12.2654 3.83986 9.86843 5.65376C7.4715 7.46765 5.49565 9.816 3.94088 12.6988C2.38611 15.5492 1.60873 18.432 1.60873 21.3472C1.60873 24.8454 2.8072 27.8416 5.20413 30.3357ZM21.8693 31.9876C20.8004 32.8622 19.6019 33.5262 18.2739 33.9797C16.9783 34.4332 15.634 34.6599 14.2412 34.6599C12.4921 34.6599 10.8078 34.3198 9.18822 33.6396C7.56867 32.927 6.14347 31.9229 4.91261 30.6272C3.32545 28.9105 2.12699 26.9346 1.31721 24.6997C0.507435 22.4323 0.102548 20.0839 0.102548 17.6546C0.102548 15.0957 0.539826 12.6664 1.41438 10.3666C2.28894 8.06689 3.5036 6.17202 5.05837 4.68203C6.35401 3.45117 7.74682 2.52803 9.23681 1.9126C10.7268 1.29717 12.233 0.989454 13.7554 0.989454C15.8284 0.989454 17.788 1.52391 19.6343 2.59281C21.513 3.62932 23.084 5.10311 24.3472 7.01418C25.4485 8.69851 26.2745 10.4962 26.8251 12.4073C27.3758 14.3183 27.6511 16.2456 27.6511 18.1891C27.6511 20.9747 27.1328 23.5984 26.0963 26.0601C25.0598 28.5218 23.6508 30.4977 21.8693 31.9876ZM50.0719 34.3198V30.1414C48.9706 31.6313 47.513 32.8136 45.6991 33.6882C43.8852 34.5627 42.0551 35 40.2088 35C37.909 35 35.998 34.2874 34.4756 32.8622C32.9856 31.4046 32.2406 29.2506 32.2406 26.4002V15.7112C32.2406 13.0875 31.8519 11.4194 31.0745 10.7068H35.9332V26.1087C35.9332 28.7323 36.4838 30.6758 37.5851 31.9391C38.6864 33.2023 40.0954 33.8339 41.8122 33.8339C43.3021 33.8339 44.8083 33.429 46.3307 32.6193C47.8531 31.7771 49.1001 30.692 50.0719 29.364V15.7112C50.0719 13.0875 49.6832 11.4194 48.9058 10.7068H53.7644V29.3154C53.7644 31.9067 54.1531 33.5748 54.9305 34.3198H50.0719ZM62.6937 18.3348C63.212 16.1322 64.1999 14.286 65.6575 12.796C67.1151 11.2736 68.767 10.5124 70.6133 10.5124C71.164 10.5124 71.6822 10.5772 72.1681 10.7068V15.031C70.8401 14.3507 69.6092 14.0106 68.4755 14.0106C66.8236 14.0106 65.4631 14.6423 64.3942 15.9055C63.3577 17.1688 62.7909 18.8045 62.6937 20.8127V29.9956C62.6937 32.5869 63.0824 34.255 63.8598 35H57.8351C58.6125 34.1578 59.0011 32.4897 59.0011 29.9956V15.7112C59.0011 13.0875 58.6125 11.4194 57.8351 10.7068H62.6937V18.3348ZM80.9136 0.989454L85.1407 0.940868C89.2219 0.940868 92.6878 1.45912 95.5382 2.49564C98.421 3.53215 99.8624 5.57278 99.8624 8.61753C99.8624 10.9497 98.9554 13.0065 97.1415 14.788C95.36 16.5695 92.8011 18.1729 89.4649 19.5981L80.9136 23.2421V29.9956C80.9136 32.5869 81.3023 34.255 82.0797 35H76.055C76.8324 34.1578 77.2211 32.4897 77.2211 29.9956V5.99386C77.2211 3.37019 76.8324 1.70206 76.055 0.989454H80.9136ZM89.2705 19.1122C91.5379 18.1405 93.2222 16.9096 94.3235 15.4196C95.4572 13.9297 96.024 11.9376 96.024 9.4435C96.024 6.2368 94.858 4.09899 92.5258 3.03009C90.1937 1.96118 87.3433 1.42673 83.9746 1.42673L80.9136 1.47532V22.7076L89.2705 19.1122ZM117.523 35V31.4046C116.616 32.8298 115.402 33.9149 113.879 34.6599C112.357 35.3725 110.721 35.7288 108.972 35.7288C107.32 35.7288 105.749 35.4211 104.259 34.8057C102.801 34.1902 101.619 33.3157 100.712 32.182C99.8053 31.0483 99.3518 29.7365 99.3518 28.2465C99.3518 26.7241 99.7567 25.4609 100.567 24.4567C101.376 23.4202 102.413 22.5781 103.676 21.9302C104.972 21.25 106.996 20.3107 109.749 19.1122L117.475 15.8083C117.313 13.8973 116.697 12.4397 115.628 11.4356C114.559 10.4314 113.312 9.92937 111.887 9.92937C110.883 9.92937 109.895 10.1885 108.923 10.7068C107.984 11.225 107.19 11.9862 106.543 12.9903C105.927 13.962 105.587 15.1119 105.522 16.44H101.441C101.733 14.2374 102.866 12.5206 104.842 11.2898C106.85 10.0589 109.118 9.4435 111.644 9.4435C114.236 9.4435 116.454 10.0751 118.301 11.3384C120.179 12.5692 121.151 14.3183 121.216 16.5857V29.9956C121.216 32.5869 121.604 34.255 122.382 35H117.523ZM103.19 27.5177C103.19 29.0077 103.514 30.3033 104.162 31.4046C104.842 32.4735 105.733 33.2995 106.834 33.8825C107.935 34.4332 109.118 34.7085 110.381 34.7085C111.806 34.7085 113.15 34.336 114.414 33.591C115.709 32.846 116.746 31.7447 117.523 30.2871V16.7801V16.3428L109.944 19.5981C108.097 20.4079 106.753 21.0557 105.911 21.5415C105.101 22.0274 104.437 22.74 103.919 23.6793C103.433 24.5863 103.19 25.8657 103.19 27.5177ZM132.108 34.8542C131.428 34.8218 130.683 34.7085 129.873 34.5141C129.031 34.3846 128.496 34.3198 128.27 34.3198C127.848 34.3198 127.492 34.3846 127.201 34.5141L125.306 26.9832L125.5 26.8861C125.954 28.0521 126.796 29.0886 128.027 29.9956C129.29 30.9025 130.715 31.6151 132.302 32.1334C133.922 32.6193 135.46 32.8622 136.918 32.8622C138.473 32.8622 139.736 32.5707 140.708 31.9876C141.712 31.4046 142.214 30.5138 142.214 29.3154C142.214 28.538 141.906 27.874 141.291 27.3233C140.708 26.7403 139.979 26.2706 139.104 25.9143C138.23 25.558 136.999 25.1207 135.412 24.6025C133.339 23.9547 131.638 23.3392 130.31 22.7562C128.982 22.1408 127.848 21.2986 126.909 20.2297C125.97 19.1284 125.5 17.7518 125.5 16.0999C125.5 13.9944 126.197 12.4073 127.589 11.3384C129.015 10.2371 130.99 9.68644 133.517 9.68644C133.873 9.68644 134.472 9.71883 135.315 9.78361L136.967 9.97796C137.873 10.1399 138.618 10.2209 139.201 10.2209C139.882 10.2209 140.368 10.0751 140.659 9.78361L142.311 16.5857L142.117 16.6829C141.793 15.7112 141.064 14.8366 139.93 14.0592C138.797 13.2494 137.452 12.6178 135.898 12.1643C134.375 11.6785 132.901 11.4356 131.476 11.4356C129.857 11.4356 128.529 11.7595 127.492 12.4073C126.488 13.0227 125.986 13.9782 125.986 15.2739C125.986 16.4724 126.569 17.4117 127.735 18.0919C128.934 18.7397 130.747 19.4199 133.177 20.1325C135.315 20.8127 137.031 21.4444 138.327 22.0274C139.623 22.5781 140.708 23.3716 141.582 24.4081C142.489 25.4447 142.894 26.7565 142.797 28.3437C142.667 30.6434 141.939 32.3277 140.611 33.3966C139.315 34.4332 137.209 34.9514 134.294 34.9514C133.873 34.9514 133.144 34.919 132.108 34.8542ZM152.51 34.8542C151.83 34.8218 151.085 34.7085 150.275 34.5141C149.433 34.3846 148.899 34.3198 148.672 34.3198C148.251 34.3198 147.895 34.3846 147.603 34.5141L145.708 26.9832L145.903 26.8861C146.356 28.0521 147.198 29.0886 148.429 29.9956C149.692 30.9025 151.118 31.6151 152.705 32.1334C154.324 32.6193 155.863 32.8622 157.32 32.8622C158.875 32.8622 160.138 32.5707 161.11 31.9876C162.114 31.4046 162.616 30.5138 162.616 29.3154C162.616 28.538 162.309 27.874 161.693 27.3233C161.11 26.7403 160.381 26.2706 159.507 25.9143C158.632 25.558 157.401 25.1207 155.814 24.6025C153.741 23.9547 152.041 23.3392 150.713 22.7562C149.385 22.1408 148.251 21.2986 147.312 20.2297C146.372 19.1284 145.903 17.7518 145.903 16.0999C145.903 13.9944 146.599 12.4073 147.992 11.3384C149.417 10.2371 151.393 9.68644 153.919 9.68644C154.276 9.68644 154.875 9.71883 155.717 9.78361L157.369 9.97796C158.276 10.1399 159.021 10.2209 159.604 10.2209C160.284 10.2209 160.77 10.0751 161.062 9.78361L162.714 16.5857L162.519 16.6829C162.195 15.7112 161.467 14.8366 160.333 14.0592C159.199 13.2494 157.855 12.6178 156.3 12.1643C154.778 11.6785 153.304 11.4356 151.879 11.4356C150.259 11.4356 148.931 11.7595 147.895 12.4073C146.891 13.0227 146.389 13.9782 146.389 15.2739C146.389 16.4724 146.972 17.4117 148.138 18.0919C149.336 18.7397 151.15 19.4199 153.579 20.1325C155.717 20.8127 157.434 21.4444 158.729 22.0274C160.025 22.5781 161.11 23.3716 161.985 24.4081C162.892 25.4447 163.297 26.7565 163.199 28.3437C163.07 30.6434 162.341 32.3277 161.013 33.3966C159.717 34.4332 157.612 34.9514 154.697 34.9514C154.276 34.9514 153.547 34.919 152.51 34.8542ZM202.44 29.9956C202.44 32.5869 202.829 34.255 203.606 35H197.582C198.359 34.1578 198.748 32.4897 198.748 29.9956V2.9815L190.148 35H189.322L178.633 8.27743V29.9956C178.633 31.0969 178.892 32.0362 179.41 32.8136C179.961 33.5586 180.609 34.2874 181.354 35H175.329C175.426 34.9028 175.718 34.5951 176.204 34.0769C176.722 33.5586 177.159 32.9432 177.515 32.2306C177.872 31.518 178.05 30.773 178.05 29.9956V6.81983L175.718 0.989454H179.896L191.022 28.7809L198.699 0.989454H203.606C202.829 1.70206 202.44 3.37019 202.44 5.99386V29.9956ZM214.359 33.7853C213.095 33.2995 211.897 32.5545 210.763 31.5504C209.662 30.5138 208.755 29.2668 208.042 27.8092C207.362 26.3192 207.022 24.7159 207.022 22.9991C207.022 21.5415 207.281 20.0839 207.8 18.6264C208.674 16.0675 210.116 14.0916 212.124 12.6988C214.132 11.306 216.367 10.6096 218.829 10.6096C221.064 10.6096 223.153 11.1764 225.096 12.3101C227.007 13.4114 228.449 14.8528 229.421 16.6343C230.425 18.3834 230.927 20.2783 230.927 22.3189C230.927 24.2624 230.489 26.1411 229.615 27.955C228.611 30.0604 227.169 31.7123 225.291 32.9108C223.412 34.0769 221.339 34.6599 219.072 34.6599C217.484 34.6599 215.913 34.3684 214.359 33.7853ZM214.456 33.3481C215.168 33.7044 216.011 33.8825 216.982 33.8825C218.764 33.8825 220.529 33.2185 222.278 31.8905C224.06 30.53 225.485 28.6838 226.554 26.3516C227.526 24.149 228.012 22.0112 228.012 19.9382C228.012 18.3186 227.736 16.8772 227.186 15.614C226.635 14.3507 225.858 13.3952 224.853 12.7474C223.817 12.0348 222.602 11.6785 221.209 11.6785C219.266 11.6785 217.355 12.4073 215.476 13.8649C213.598 15.3225 212.14 17.4117 211.103 20.1325C210.423 21.8493 210.083 23.5822 210.083 25.3313C210.083 27.21 210.488 28.8619 211.298 30.2871C212.108 31.7123 213.16 32.7326 214.456 33.3481ZM239.199 14.7394C239.977 13.6057 241.046 12.7474 242.406 12.1643C243.799 11.5489 245.289 11.2412 246.876 11.2412C248.787 11.2412 250.601 11.6785 252.318 12.553C254.034 13.4276 255.427 14.7718 256.496 16.5857C257.597 18.3672 258.148 20.586 258.148 23.2421C258.148 25.8657 257.597 28.0845 256.496 29.8984C255.427 31.6799 254.034 33.0241 252.318 33.9311C250.601 34.8057 248.787 35.2429 246.876 35.2429C245.289 35.2429 243.799 34.9514 242.406 34.3684C241.046 33.7529 239.977 32.8784 239.199 31.7447V35H234.341C235.118 34.255 235.507 32.5869 235.507 29.9956V5.99386C235.507 3.37019 235.118 1.70206 234.341 0.989454H239.199V14.7394ZM254.31 23.2907C254.31 20.6346 253.921 18.4644 253.144 16.7801C252.399 15.0957 251.411 13.8649 250.18 13.0875C248.949 12.3101 247.621 11.9214 246.196 11.9214C244.771 11.9214 243.41 12.2615 242.115 12.9417C240.851 13.5896 239.88 14.4641 239.199 15.5654V31.0159C239.912 32.1496 240.851 33.0403 242.017 33.6882C243.216 34.3036 244.479 34.6113 245.807 34.6113C247.265 34.6113 248.641 34.2064 249.937 33.3966C251.233 32.5545 252.285 31.2912 253.095 29.6069C253.905 27.8902 254.31 25.7848 254.31 23.2907ZM264.249 5.45941C263.634 5.45941 263.099 5.24887 262.646 4.82779C262.225 4.37431 262.014 3.83986 262.014 3.22443C262.014 2.609 262.225 2.09075 262.646 1.66967C263.099 1.21619 263.634 0.989454 264.249 0.989454C264.865 0.989454 265.383 1.21619 265.804 1.66967C266.257 2.09075 266.484 2.609 266.484 3.22443C266.484 3.83986 266.257 4.37431 265.804 4.82779C265.383 5.24887 264.865 5.45941 264.249 5.45941ZM261.528 35C262.306 34.1578 262.694 32.4897 262.694 29.9956V15.7112C262.694 13.0875 262.306 11.4194 261.528 10.7068H266.387V29.9956C266.387 32.5869 266.776 34.255 267.553 35H261.528ZM270.448 35C271.226 34.1578 271.614 32.4897 271.614 29.9956V5.99386C271.614 3.37019 271.226 1.70206 270.448 0.989454H275.307V29.9956C275.307 32.5869 275.696 34.255 276.473 35H270.448ZM283.158 22.8534C283.029 23.5336 282.964 24.2948 282.964 25.1369C282.964 27.0156 283.353 28.6838 284.13 30.1414C284.94 31.5666 286.009 32.6031 287.337 33.2509C288.503 33.8015 289.734 34.0769 291.029 34.0769C292.519 34.0769 293.977 33.7206 295.402 33.008C296.86 32.2954 298.139 31.2426 299.24 29.8498H302.01C300.844 31.3722 299.37 32.5545 297.589 33.3966C295.839 34.2388 293.961 34.6599 291.952 34.6599C290.333 34.6599 288.746 34.3684 287.191 33.7853C285.928 33.2995 284.729 32.5545 283.596 31.5504C282.494 30.5138 281.587 29.2668 280.875 27.8092C280.195 26.3192 279.854 24.7159 279.854 22.9991C279.854 21.5415 280.114 20.0839 280.632 18.6264C281.539 16.0027 283.045 14.0268 285.15 12.6988C287.288 11.3708 289.62 10.7068 292.147 10.7068C293.961 10.7068 295.661 11.0307 297.248 11.6785C299.095 12.3911 300.552 13.6705 301.621 15.5168C302.722 17.3631 303.273 19.4199 303.273 21.6873C303.273 22.2056 303.257 22.5942 303.225 22.8534H283.158ZM283.936 20.1325C283.677 20.748 283.466 21.4606 283.304 22.2703H299.386C299.743 20.6832 299.921 19.339 299.921 18.2377C299.921 16.6829 299.645 15.3873 299.095 14.3507C298.544 13.2818 297.799 12.5206 296.86 12.0672C296.212 11.7433 295.451 11.5813 294.576 11.5813C293.313 11.5813 291.969 11.9376 290.543 12.6502C289.151 13.3628 287.855 14.3831 286.657 15.7112C285.458 17.0068 284.551 18.4806 283.936 20.1325ZM344.778 31.9391C345.458 33.429 346.203 34.4494 347.013 35H340.26C340.519 34.6761 340.648 34.2226 340.648 33.6396C340.648 32.8298 340.454 31.7933 340.065 30.53L337.539 24.068H324.566L322.477 29.8984C322.283 30.5138 322.185 31.0807 322.185 31.5989C322.185 32.3115 322.283 32.9108 322.477 33.3966C322.704 33.8825 322.995 34.417 323.352 35H317.327C318.428 34.1902 319.351 33.4128 320.096 32.6678C320.874 31.9229 321.457 30.9997 321.845 29.8984L332.097 0.989454H332.923L344.778 31.9391ZM330.882 6.67408L324.809 23.485H337.344L330.882 6.67408ZM354.782 14.7394C355.559 13.6057 356.628 12.7474 357.989 12.1643C359.382 11.5489 360.872 11.2412 362.459 11.2412C364.37 11.2412 366.184 11.6785 367.9 12.553C369.617 13.4276 371.01 14.7718 372.079 16.5857C373.18 18.3672 373.731 20.586 373.731 23.2421C373.731 25.8657 373.18 28.0845 372.079 29.8984C371.01 31.6799 369.617 33.0241 367.9 33.9311C366.184 34.8057 364.37 35.2429 362.459 35.2429C360.872 35.2429 359.382 34.9514 357.989 34.3684C356.628 33.7529 355.559 32.8784 354.782 31.7447V39.7129C354.782 42.3366 355.171 44.0047 355.948 44.7173H349.923C350.701 43.9075 351.089 42.2394 351.089 39.7129V15.7112C351.089 13.0875 350.701 11.4194 349.923 10.7068H354.782V14.7394ZM369.892 23.2907C369.892 20.6346 369.504 18.4644 368.726 16.7801C367.981 15.0957 366.993 13.8649 365.763 13.0875C364.532 12.3101 363.204 11.9214 361.778 11.9214C360.353 11.9214 358.993 12.2615 357.697 12.9417C356.434 13.5896 355.462 14.4641 354.782 15.5654V31.0159C355.495 32.1496 356.434 33.0403 357.6 33.6882C358.799 34.3036 360.062 34.6113 361.39 34.6113C362.847 34.6113 364.224 34.2064 365.52 33.3966C366.815 32.5545 367.868 31.2912 368.678 29.6069C369.488 27.8902 369.892 25.7848 369.892 23.2907ZM381.97 14.7394C382.747 13.6057 383.816 12.7474 385.176 12.1643C386.569 11.5489 388.059 11.2412 389.646 11.2412C391.557 11.2412 393.371 11.6785 395.088 12.553C396.805 13.4276 398.197 14.7718 399.266 16.5857C400.368 18.3672 400.918 20.586 400.918 23.2421C400.918 25.8657 400.368 28.0845 399.266 29.8984C398.197 31.6799 396.805 33.0241 395.088 33.9311C393.371 34.8057 391.557 35.2429 389.646 35.2429C388.059 35.2429 386.569 34.9514 385.176 34.3684C383.816 33.7529 382.747 32.8784 381.97 31.7447V39.7129C381.97 42.3366 382.358 44.0047 383.136 44.7173H377.111C377.888 43.9075 378.277 42.2394 378.277 39.7129V15.7112C378.277 13.0875 377.888 11.4194 377.111 10.7068H381.97V14.7394ZM397.08 23.2907C397.08 20.6346 396.691 18.4644 395.914 16.7801C395.169 15.0957 394.181 13.8649 392.95 13.0875C391.719 12.3101 390.391 11.9214 388.966 11.9214C387.541 11.9214 386.18 12.2615 384.885 12.9417C383.622 13.5896 382.65 14.4641 381.97 15.5654V31.0159C382.682 32.1496 383.622 33.0403 384.788 33.6882C385.986 34.3036 387.249 34.6113 388.577 34.6113C390.035 34.6113 391.412 34.2064 392.707 33.3966C394.003 32.5545 395.056 31.2912 395.865 29.6069C396.675 27.8902 397.08 25.7848 397.08 23.2907Z" fill="#2D1A06"/>
</svg>
