<svg width="188" height="36" viewBox="0 0 188 36" fill="none" xmlns="http://www.w3.org/2000/svg">
<path d="M5.07591 1.03047L9.30294 0.981884C13.3842 0.981884 16.85 1.50014 19.7004 2.53665C22.5832 3.57316 24.0246 5.6138 24.0246 8.65855C24.0246 10.9907 23.1177 13.0475 21.3038 14.829C19.5223 16.6105 16.9634 18.2139 13.6271 19.6391L5.07591 23.2831V30.0366C5.07591 32.6279 5.4646 34.296 6.24199 35.041H0.217261C0.994645 34.1988 1.38334 32.5307 1.38334 30.0366V6.03488C1.38334 3.41121 0.994645 1.74307 0.217261 1.03047H5.07591ZM13.4328 19.1532C15.7002 18.1815 17.3845 16.9506 18.4858 15.4607C19.6195 13.9707 20.1863 11.9786 20.1863 9.48452C20.1863 6.27781 19.0202 4.14001 16.6881 3.0711C14.3559 2.0022 11.5055 1.46775 8.13686 1.46775L5.07591 1.51633V22.7486L13.4328 19.1532ZM26.8294 22.8944C26.6998 23.5746 26.635 24.3358 26.635 25.178C26.635 27.0566 27.0237 28.7248 27.8011 30.1824C28.6109 31.6076 29.6798 32.6441 31.0078 33.2919C32.1739 33.8425 33.4047 34.1179 34.7004 34.1179C36.1904 34.1179 37.648 33.7616 39.0732 33.049C40.5308 32.3364 41.8102 31.2837 42.9115 29.8908H45.6809C44.5149 31.4132 43.0411 32.5955 41.2596 33.4377C39.5104 34.2798 37.6318 34.7009 35.6235 34.7009C34.004 34.7009 32.4168 34.4094 30.8621 33.8264C29.5988 33.3405 28.4003 32.5955 27.2667 31.5914C26.1654 30.5549 25.2584 29.3078 24.5458 27.8502C23.8656 26.3602 23.5255 24.7569 23.5255 23.0402C23.5255 21.5826 23.7846 20.125 24.3029 18.6674C25.2098 16.0437 26.716 14.0678 28.8214 12.7398C30.9592 11.4118 33.2914 10.7478 35.8179 10.7478C37.6318 10.7478 39.3323 11.0717 40.9195 11.7195C42.7657 12.4321 44.2233 13.7115 45.2922 15.5578C46.3935 17.4041 46.9442 19.4609 46.9442 21.7283C46.9442 22.2466 46.928 22.6353 46.8956 22.8944H26.8294ZM27.6068 20.1735C27.3476 20.789 27.1371 21.5016 26.9751 22.3114H43.0573C43.4136 20.7242 43.5917 19.38 43.5917 18.2787C43.5917 16.7239 43.3164 15.4283 42.7657 14.3918C42.2151 13.3229 41.4701 12.5617 40.5308 12.1082C39.8829 11.7843 39.1218 11.6223 38.2472 11.6223C36.9839 11.6223 35.6397 11.9786 34.2145 12.6912C32.8217 13.4038 31.5261 14.4241 30.3276 15.7522C29.1291 17.0478 28.2222 18.5216 27.6068 20.1735ZM55.1807 18.3758C55.699 16.1733 56.6869 14.327 58.1445 12.837C59.6021 11.3146 61.254 10.5534 63.1003 10.5534C63.651 10.5534 64.1692 10.6182 64.6551 10.7478V15.072C63.3271 14.3918 62.0962 14.0517 60.9625 14.0517C59.3106 14.0517 57.9502 14.6833 56.8813 15.9465C55.8447 17.2098 55.2779 18.8455 55.1807 20.8538V30.0366C55.1807 32.6279 55.5694 34.296 56.3468 35.041H50.3221C51.0995 34.1988 51.4882 32.5307 51.4882 30.0366V15.7522C51.4882 13.1285 51.0995 11.4604 50.3221 10.7478H55.1807V18.3758ZM75.3441 34.8953C74.6639 34.8629 73.9189 34.7495 73.1091 34.5552C72.267 34.4256 71.7325 34.3608 71.5058 34.3608C71.0847 34.3608 70.7284 34.4256 70.4369 34.5552L68.542 27.0242L68.7364 26.9271C69.1898 28.0931 70.032 29.1297 71.2629 30.0366C72.5261 30.9436 73.9513 31.6562 75.5385 32.1744C77.158 32.6603 78.6966 32.9032 80.1542 32.9032C81.709 32.9032 82.9722 32.6117 83.9439 32.0287C84.9481 31.4456 85.4501 30.5549 85.4501 29.3564C85.4501 28.579 85.1424 27.915 84.527 27.3643C83.9439 26.7813 83.2151 26.3116 82.3406 25.9553C81.466 25.599 80.2352 25.1618 78.648 24.6435C76.575 23.9957 74.8745 23.3803 73.5464 22.7972C72.2184 22.1818 71.0847 21.3396 70.1454 20.2707C69.206 19.1694 68.7364 17.7928 68.7364 16.1409C68.7364 14.0355 69.4328 12.4483 70.8256 11.3794C72.2508 10.2781 74.2266 9.72745 76.7531 9.72745C77.1094 9.72745 77.7087 9.75984 78.5508 9.82462L80.2028 10.019C81.1097 10.1809 81.8547 10.2619 82.4378 10.2619C83.118 10.2619 83.6038 10.1161 83.8953 9.82462L85.5473 16.6267L85.3529 16.7239C85.029 15.7522 84.3002 14.8776 83.1665 14.1002C82.0329 13.2905 80.6886 12.6588 79.1339 12.2054C77.6115 11.7195 76.1377 11.4766 74.7125 11.4766C73.0929 11.4766 71.7649 11.8005 70.7284 12.4483C69.7243 13.0637 69.2222 14.0193 69.2222 15.3149C69.2222 16.5134 69.8053 17.4527 70.9713 18.1329C72.1698 18.7807 73.9837 19.4609 76.413 20.1735C78.5508 20.8538 80.2676 21.4854 81.5632 22.0684C82.8588 22.6191 83.9439 23.4126 84.8185 24.4492C85.7254 25.4857 86.1303 26.7975 86.0332 28.3847C85.9036 30.6844 85.1748 32.3688 83.8468 33.4377C82.5511 34.4742 80.4457 34.9924 77.5305 34.9924C77.1094 34.9924 76.3806 34.96 75.3441 34.8953ZM96.767 33.8264C95.5037 33.3405 94.3053 32.5955 93.1716 31.5914C92.0703 30.5549 91.1633 29.3078 90.4507 27.8502C89.7705 26.3602 89.4304 24.7569 89.4304 23.0402C89.4304 21.5826 89.6895 20.125 90.2078 18.6674C91.0823 16.1085 92.5237 14.1326 94.532 12.7398C96.5402 11.347 98.7752 10.6506 101.237 10.6506C103.472 10.6506 105.561 11.2174 107.505 12.3511C109.416 13.4524 110.857 14.8938 111.829 16.6753C112.833 18.4244 113.335 20.3193 113.335 22.3599C113.335 24.3034 112.898 26.1821 112.023 27.996C111.019 30.1014 109.578 31.7533 107.699 32.9518C105.82 34.1179 103.747 34.7009 101.48 34.7009C99.8927 34.7009 98.3217 34.4094 96.767 33.8264ZM96.8641 33.3891C97.5767 33.7454 98.4189 33.9235 99.3906 33.9235C101.172 33.9235 102.937 33.2595 104.687 31.9315C106.468 30.5711 107.893 28.7248 108.962 26.3926C109.934 24.19 110.42 22.0522 110.42 19.9792C110.42 18.3597 110.144 16.9183 109.594 15.655C109.043 14.3918 108.266 13.4362 107.262 12.7884C106.225 12.0758 105.01 11.7195 103.618 11.7195C101.674 11.7195 99.7631 12.4483 97.8845 13.9059C96.0058 15.3635 94.5482 17.4527 93.5117 20.1735C92.8315 21.8903 92.4914 23.6232 92.4914 25.3723C92.4914 27.251 92.8962 28.9029 93.706 30.3281C94.5158 31.7533 95.5685 32.7736 96.8641 33.3891ZM134.58 35.041C135.358 34.1988 135.746 32.5307 135.746 30.0366V18.9589C135.746 16.3352 135.196 14.3918 134.094 13.1285C132.993 11.8653 131.584 11.2336 129.867 11.2336C128.377 11.2336 126.871 11.6547 125.349 12.4969C123.826 13.3067 122.579 14.3756 121.608 15.7036V30.0366C121.608 32.6279 121.996 34.296 122.774 35.041H116.749C117.526 34.1988 117.915 32.5307 117.915 30.0366V15.7522C117.915 13.1285 117.526 11.4604 116.749 10.7478H121.608V14.9262C122.709 13.4362 124.166 12.254 125.98 11.3794C127.794 10.5048 129.624 10.0676 131.471 10.0676C133.77 10.0676 135.665 10.7964 137.155 12.254C138.678 13.6792 139.439 15.817 139.439 18.6674V30.0366C139.439 32.6279 139.828 34.296 140.605 35.041H134.58ZM161.681 35.041V31.4456C160.774 32.8708 159.559 33.9559 158.037 34.7009C156.514 35.4135 154.879 35.7698 153.13 35.7698C151.478 35.7698 149.907 35.4621 148.417 34.8467C146.959 34.2312 145.777 33.3567 144.87 32.223C143.963 31.0893 143.509 29.7775 143.509 28.2875C143.509 26.7651 143.914 25.5019 144.724 24.4977C145.534 23.4612 146.57 22.6191 147.834 21.9712C149.129 21.291 151.154 20.3517 153.907 19.1532L161.632 15.8494C161.47 13.9383 160.855 12.4807 159.786 11.4766C158.717 10.4724 157.47 9.97038 156.045 9.97038C155.041 9.97038 154.053 10.2295 153.081 10.7478C152.142 11.266 151.348 12.0272 150.7 13.0313C150.085 14.0031 149.745 15.1529 149.68 16.481H145.599C145.89 14.2784 147.024 12.5617 149 11.3308C151.008 10.0999 153.275 9.48452 155.802 9.48452C158.393 9.48452 160.612 10.1161 162.458 11.3794C164.337 12.6103 165.309 14.3594 165.373 16.6267V30.0366C165.373 32.6279 165.762 34.296 166.539 35.041H161.681ZM147.348 27.5587C147.348 29.0487 147.672 30.3443 148.32 31.4456C149 32.5145 149.89 33.3405 150.992 33.9235C152.093 34.4742 153.275 34.7495 154.539 34.7495C155.964 34.7495 157.308 34.377 158.571 33.632C159.867 32.887 160.903 31.7857 161.681 30.3281V16.8211V16.3838L154.101 19.6391C152.255 20.4489 150.911 21.0967 150.069 21.5826C149.259 22.0684 148.595 22.781 148.077 23.7204C147.591 24.6273 147.348 25.9068 147.348 27.5587ZM176.265 34.8953C175.585 34.8629 174.84 34.7495 174.03 34.5552C173.188 34.4256 172.654 34.3608 172.427 34.3608C172.006 34.3608 171.65 34.4256 171.358 34.5552L169.463 27.0242L169.658 26.9271C170.111 28.0931 170.953 29.1297 172.184 30.0366C173.447 30.9436 174.873 31.6562 176.46 32.1744C178.079 32.6603 179.618 32.9032 181.076 32.9032C182.63 32.9032 183.894 32.6117 184.865 32.0287C185.869 31.4456 186.371 30.5549 186.371 29.3564C186.371 28.579 186.064 27.915 185.448 27.3643C184.865 26.7813 184.136 26.3116 183.262 25.9553C182.387 25.599 181.157 25.1618 179.569 24.6435C177.496 23.9957 175.796 23.3803 174.468 22.7972C173.14 22.1818 172.006 21.3396 171.067 20.2707C170.127 19.1694 169.658 17.7928 169.658 16.1409C169.658 14.0355 170.354 12.4483 171.747 11.3794C173.172 10.2781 175.148 9.72745 177.674 9.72745C178.031 9.72745 178.63 9.75984 179.472 9.82462L181.124 10.019C182.031 10.1809 182.776 10.2619 183.359 10.2619C184.039 10.2619 184.525 10.1161 184.817 9.82462L186.469 16.6267L186.274 16.7239C185.95 15.7522 185.222 14.8776 184.088 14.1002C182.954 13.2905 181.61 12.6588 180.055 12.2054C178.533 11.7195 177.059 11.4766 175.634 11.4766C174.014 11.4766 172.686 11.8005 171.65 12.4483C170.646 13.0637 170.144 14.0193 170.144 15.3149C170.144 16.5134 170.727 17.4527 171.893 18.1329C173.091 18.7807 174.905 19.4609 177.334 20.1735C179.472 20.8538 181.189 21.4854 182.485 22.0684C183.78 22.6191 184.865 23.4126 185.74 24.4492C186.647 25.4857 187.052 26.7975 186.954 28.3847C186.825 30.6844 186.096 32.3688 184.768 33.4377C183.472 34.4742 181.367 34.9924 178.452 34.9924C178.031 34.9924 177.302 34.96 176.265 34.8953Z" fill="#2D1A06"/>
</svg>
