<svg width="789" height="198" viewBox="0 0 789 198" fill="none" xmlns="http://www.w3.org/2000/svg">
<path d="M11.2128 0.277083L20.4998 0.170337C29.4666 0.170337 37.0812 1.30897 43.3437 3.58624C49.6773 5.86351 52.8442 10.3469 52.8442 17.0364C52.8442 22.1602 50.8516 26.6792 46.8663 30.5932C42.9523 34.5073 37.3303 38.0299 30.0003 41.1612L11.2128 49.1672V64.0051C11.2128 69.6982 12.0668 73.3632 13.7748 75H0.538135C2.24609 73.1497 3.10006 69.4847 3.10006 64.0051V11.272C3.10006 5.50769 2.24609 1.84271 0.538135 0.277083H11.2128ZM29.5733 40.0937C34.5549 37.9588 38.2554 35.2545 40.675 31.9809C43.1658 28.7074 44.4112 24.3307 44.4112 18.8511C44.4112 11.8058 41.8492 7.1089 36.7254 4.76046C31.6015 2.41202 25.339 1.23781 17.9379 1.23781L11.2128 1.34455V47.993L29.5733 40.0937ZM70.9453 38.3858C72.0839 33.5466 74.2545 29.4902 77.4569 26.2166C80.6593 22.8719 84.2887 21.1995 88.3451 21.1995C89.5549 21.1995 90.6935 21.3418 91.761 21.6265V31.127C88.8432 29.6325 86.139 28.8853 83.6482 28.8853C80.0188 28.8853 77.0299 30.273 74.6814 33.0484C72.4042 35.8238 71.1588 39.4177 70.9453 43.8299V64.0051C70.9453 69.6982 71.7993 73.3632 73.5072 75H60.2706C61.9785 73.1497 62.8325 69.4847 62.8325 64.0051V32.6214C62.8325 26.8571 61.9785 23.1921 60.2706 21.6265H70.9453V38.3858ZM112.17 72.3313C109.395 71.2639 106.762 69.6271 104.271 67.421C101.852 65.1437 99.859 62.4039 98.2934 59.2014C96.7989 55.9279 96.0517 52.4052 96.0517 48.6335C96.0517 45.4311 96.621 42.2287 97.7596 39.0263C99.6811 33.4042 102.848 29.0632 107.26 26.0031C111.672 22.943 116.583 21.413 121.991 21.413C126.902 21.413 131.492 22.6584 135.762 25.1491C139.96 27.5687 143.127 30.7356 145.262 34.6496C147.468 38.4925 148.571 42.6557 148.571 47.139C148.571 51.4089 147.611 55.5365 145.689 59.5217C143.483 64.1474 140.316 67.7768 136.189 70.4099C132.061 72.9718 127.506 74.2528 122.525 74.2528C119.038 74.2528 115.586 73.6123 112.17 72.3313ZM112.384 71.3706C113.95 72.1534 115.8 72.5448 117.935 72.5448C121.849 72.5448 125.727 71.0859 129.57 68.1682C133.484 65.1793 136.616 61.1229 138.964 55.999C141.099 51.1598 142.166 46.463 142.166 41.9084C142.166 38.3502 141.562 35.1834 140.352 32.4079C139.142 29.6325 137.434 27.5332 135.228 26.1099C132.951 24.5442 130.282 23.7614 127.222 23.7614C122.952 23.7614 118.753 25.3626 114.626 28.565C110.498 31.7675 107.296 36.3576 105.018 42.3354C103.524 46.1071 102.777 49.9144 102.777 53.7573C102.777 57.8849 103.666 61.5143 105.445 64.6455C107.225 67.7768 109.537 70.0185 112.384 71.3706ZM198.877 75V67.7412C197.169 70.232 194.785 72.189 191.725 73.6123C188.736 74.9644 185.463 75.6405 181.905 75.6405C177.706 75.6405 173.721 74.6798 169.949 72.7583C166.177 70.7657 163.082 67.8124 160.662 63.8983C158.314 59.9131 157.139 55.0383 157.139 49.274C157.139 43.4385 158.314 38.5637 160.662 34.6496C163.082 30.6644 166.177 27.7111 169.949 25.7896C173.721 23.8682 177.706 22.9075 181.905 22.9075C185.463 22.9075 188.772 23.5835 191.832 24.9356C194.892 26.2878 197.241 28.2092 198.877 30.7V11.272C198.877 5.50769 198.023 1.84271 196.315 0.277083H206.99V64.0051C206.99 69.6982 207.844 73.3632 209.552 75H198.877ZM165.572 49.274C165.572 54.7536 166.462 59.3794 168.241 63.1511C170.02 66.8516 172.333 69.6271 175.18 71.4773C178.026 73.2565 181.051 74.146 184.253 74.146C187.171 74.146 189.946 73.4344 192.579 72.0111C195.212 70.5878 197.312 68.6308 198.877 66.14V32.5147C197.454 30.0951 195.319 28.1381 192.473 26.6436C189.626 25.078 186.637 24.2952 183.506 24.2952C180.375 24.2952 177.421 25.1491 174.646 26.8571C171.942 28.565 169.735 31.3049 168.028 35.0766C166.391 38.7772 165.572 43.5096 165.572 49.274ZM257.647 73.5055V64.3253C255.227 67.5989 252.025 70.1964 248.039 72.1178C244.054 74.0393 240.033 75 235.977 75C230.924 75 226.726 73.4344 223.381 70.3031C220.107 67.1007 218.471 62.3683 218.471 56.1058V32.6214C218.471 26.8571 217.617 23.1921 215.909 21.6265H226.583V55.4653C226.583 61.2296 227.793 65.4995 230.213 68.2749C232.632 71.0504 235.728 72.4381 239.5 72.4381C242.773 72.4381 246.082 71.5485 249.427 69.7694C252.772 67.9191 255.512 65.5351 257.647 62.6173V32.6214C257.647 26.8571 256.793 23.1921 255.085 21.6265H265.759V62.5106C265.759 68.2038 266.613 71.8688 268.321 73.5055H257.647ZM291.889 72.3313C289.114 71.2639 286.481 69.6271 283.99 67.421C281.57 65.1437 279.578 62.4039 278.012 59.2014C276.518 55.9279 275.77 52.4052 275.77 48.6335C275.77 45.4311 276.34 42.2287 277.478 39.0263C279.471 33.3331 282.816 28.992 287.512 26.0031C292.209 23.0142 297.333 21.5197 302.884 21.5197C306.869 21.5197 310.57 22.267 313.986 23.7614C317.757 25.4694 320.818 27.7822 323.166 30.7C325.514 33.5466 326.831 36.1797 327.116 38.5993L319.11 35.9306C319.252 35.3613 319.323 34.5073 319.323 33.3687C319.323 30.3797 318.256 28.0313 316.121 26.3234C313.986 24.5442 311.281 23.6547 308.008 23.6547C303.525 23.6547 299.077 25.2559 294.665 28.4583C290.323 31.5895 287.014 36.2152 284.737 42.3354C283.171 46.5341 282.389 50.4482 282.389 54.0776C282.389 57.9205 283.207 61.2652 284.844 64.1118C286.481 66.9584 288.687 69.1289 291.462 70.6234C294.238 72.1178 297.226 72.8651 300.429 72.8651C303.631 72.8651 306.798 72.1178 309.929 70.6234C313.132 69.0577 315.943 66.7449 318.362 63.6848H324.447C321.885 67.0296 318.647 69.6271 314.733 71.4773C310.89 73.3276 306.763 74.2528 302.35 74.2528C298.792 74.2528 295.305 73.6123 291.889 72.3313ZM344.574 59.9487C344.574 65.286 345.285 69.0933 346.709 71.3706C348.203 73.6479 350.409 74.7865 353.327 74.7865C355.177 74.7865 357.383 74.3951 359.945 73.6123V74.3595C356.031 75.2135 352.829 75.6405 350.338 75.6405C345.926 75.6405 342.51 74.4663 340.09 72.1178C337.742 69.7694 336.532 65.8198 336.461 60.2689V27.8178H331.337V26.5369H336.461V21.413C336.461 15.6487 335.607 11.9837 333.899 10.4181H344.574V26.5369H353.861V27.8178H344.574V59.9487ZM407.616 0.277083C415.658 0.277083 422.49 1.98504 428.112 5.40094C433.734 8.81685 437.932 13.3002 440.708 18.8511C443.554 24.4019 444.978 30.3797 444.978 36.7846C444.978 43.3317 443.519 49.523 440.601 55.3585C437.754 61.1941 433.485 65.9265 427.791 69.5559C422.169 73.1853 415.444 75 407.616 75H389.789C391.497 73.3632 392.351 69.6982 392.351 64.0051V11.272C392.351 5.50769 391.497 1.84271 389.789 0.277083H407.616ZM407.509 74.0393C413.701 74.0393 419.003 72.3313 423.415 68.9154C427.827 65.4284 431.136 60.9094 433.342 55.3585C435.62 49.7365 436.758 43.7587 436.758 37.425C436.758 31.1626 435.655 25.2915 433.449 19.8118C431.243 14.2609 427.934 9.81315 423.522 6.46841C419.109 3.12367 413.772 1.48689 407.509 1.55805L400.464 1.6648V74.0393H407.509ZM460.767 48.3132C460.482 49.8077 460.34 51.4801 460.34 53.3304C460.34 57.4579 461.194 61.1229 462.902 64.3253C464.681 67.4565 467.03 69.7338 469.947 71.1571C472.509 72.3669 475.213 72.9718 478.06 72.9718C481.334 72.9718 484.536 72.189 487.667 70.6234C490.87 69.0577 493.681 66.7449 496.1 63.6848H502.185C499.623 67.0296 496.385 69.6271 492.471 71.4773C488.628 73.3276 484.5 74.2528 480.088 74.2528C476.53 74.2528 473.043 73.6123 469.627 72.3313C466.852 71.2639 464.219 69.6271 461.728 67.421C459.308 65.1437 457.316 62.4039 455.75 59.2014C454.255 55.9279 453.508 52.4052 453.508 48.6335C453.508 45.4311 454.078 42.2287 455.216 39.0263C457.209 33.2619 460.518 28.9209 465.144 26.0031C469.841 23.0854 474.964 21.6265 480.515 21.6265C484.5 21.6265 488.237 22.3381 491.724 23.7614C495.78 25.3271 498.982 28.1381 501.331 32.1944C503.751 36.2508 504.96 40.7698 504.96 45.7513C504.96 46.89 504.925 47.7439 504.854 48.3132H460.767ZM462.475 42.3354C461.906 43.6875 461.443 45.2532 461.087 47.0323H496.421C497.203 43.5452 497.595 40.5919 497.595 38.1723C497.595 34.7564 496.99 31.9098 495.78 29.6325C494.57 27.2841 492.933 25.6117 490.87 24.6154C489.446 23.9038 487.774 23.5479 485.853 23.5479C483.077 23.5479 480.124 24.3307 476.993 25.8964C473.933 27.462 471.086 29.7037 468.453 32.6214C465.82 35.468 463.827 38.706 462.475 42.3354ZM527.326 74.6798C525.832 74.6086 524.195 74.3595 522.416 73.9325C520.566 73.6479 519.391 73.5055 518.893 73.5055C517.968 73.5055 517.185 73.6479 516.545 73.9325L512.382 57.3867L512.809 57.1732C513.805 59.7352 515.655 62.0124 518.36 64.0051C521.135 65.9977 524.266 67.5633 527.753 68.7019C531.312 69.7694 534.692 70.3031 537.894 70.3031C541.31 70.3031 544.086 69.6626 546.221 68.3817C548.427 67.1007 549.53 65.1437 549.53 62.5106C549.53 60.8026 548.854 59.3438 547.502 58.134C546.221 56.853 544.619 55.8211 542.698 55.0383C540.776 54.2555 538.072 53.2948 534.585 52.1561C530.031 50.7328 526.294 49.3807 523.377 48.0998C520.459 46.7476 517.968 44.8973 515.904 42.5489C513.841 40.1293 512.809 37.1048 512.809 33.4754C512.809 28.8497 514.339 25.3626 517.399 23.0142C520.53 20.5946 524.871 19.3848 530.422 19.3848C531.205 19.3848 532.521 19.456 534.372 19.5983L538.001 20.0253C539.994 20.3811 541.63 20.559 542.911 20.559C544.406 20.559 545.473 20.2388 546.114 19.5983L549.743 34.5429L549.316 34.7564C548.605 32.6214 547.003 30.7 544.513 28.992C542.022 27.2129 539.068 25.8252 535.653 24.8289C532.308 23.7614 529.07 23.2277 525.939 23.2277C522.38 23.2277 519.463 23.9393 517.185 25.3626C514.979 26.7148 513.876 28.8141 513.876 31.6607C513.876 34.2938 515.157 36.3576 517.719 37.852C520.352 39.2753 524.337 40.7698 529.675 42.3354C534.372 43.8299 538.143 45.2176 540.99 46.4985C543.837 47.7083 546.221 49.4519 548.142 51.7291C550.135 54.0064 551.024 56.8886 550.811 60.3757C550.526 65.4284 548.925 69.1289 546.007 71.4773C543.16 73.7546 538.535 74.8933 532.13 74.8933C531.205 74.8933 529.604 74.8221 527.326 74.6798ZM563.185 10.0978C561.833 10.0978 560.659 9.63524 559.662 8.7101C558.737 7.71379 558.275 6.53957 558.275 5.18745C558.275 3.83532 558.737 2.69668 559.662 1.77154C560.659 0.775236 561.833 0.277083 563.185 0.277083C564.537 0.277083 565.676 0.775236 566.601 1.77154C567.597 2.69668 568.095 3.83532 568.095 5.18745C568.095 6.53957 567.597 7.71379 566.601 8.7101C565.676 9.63524 564.537 10.0978 563.185 10.0978ZM557.207 75C558.915 73.1497 559.769 69.4847 559.769 64.0051V32.6214C559.769 26.8571 558.915 23.1921 557.207 21.6265H567.882V64.0051C567.882 69.6982 568.736 73.3632 570.444 75H557.207ZM631.673 27.7111C628.471 25.932 625.944 25.0424 624.094 25.0424C622.457 25.0424 621.212 25.6829 620.358 26.9638C623.703 29.4546 626.229 32.4791 627.937 36.0373C629.645 39.5244 630.499 43.2606 630.499 47.2458C630.499 51.4445 629.538 55.5365 627.617 59.5217C625.98 63.0088 623.738 65.9265 620.892 68.2749C618.116 70.6234 614.985 72.2957 611.498 73.292C609.505 74.2884 607.05 74.9644 604.132 75.3202C601.286 75.6761 597.763 75.9251 593.564 76.0675C592.711 76.1386 591.358 76.2098 589.508 76.281C587.729 76.4233 586.27 76.5656 585.131 76.708C583.495 76.9926 582.285 77.4908 581.502 78.2024C580.719 78.9852 580.328 79.9104 580.328 80.9778C580.328 81.903 580.613 82.8281 581.182 83.7533C581.751 84.7496 582.463 85.4968 583.317 85.9949C585.167 87.0624 587.017 87.5961 588.868 87.5961C590.86 87.5961 593.066 87.0268 595.486 85.8882C597.906 84.7496 600.717 83.0772 603.919 80.8711C609.612 76.8859 614.487 74.8933 618.543 74.8933C621.461 74.8933 623.703 75.9251 625.268 77.9889C626.834 80.0527 627.617 82.7214 627.617 85.9949C627.617 90.1937 626.478 94.5347 624.201 99.0181C621.924 103.501 618.614 107.238 614.273 110.227C609.932 113.287 604.915 114.817 599.222 114.817C595.379 114.817 591.999 113.856 589.081 111.934C586.163 110.084 583.957 107.522 582.463 104.249C580.968 101.046 580.328 97.5592 580.541 93.7875H581.289C580.933 99.1248 582.285 103.11 585.345 105.743C588.476 108.376 592.675 109.693 597.941 109.693C602.638 109.693 606.766 108.376 610.324 105.743C613.882 103.181 616.586 99.9788 618.437 96.1359C620.358 92.293 621.319 88.6636 621.319 85.2477C621.319 82.8281 620.785 80.8355 619.717 79.2699C618.65 77.7754 617.12 77.0282 615.127 77.0282C612.138 77.0282 608.58 78.5582 604.453 81.6183C603.172 82.6146 602.211 83.3263 601.571 83.7533C597.514 86.7422 594.276 88.9127 591.857 90.2648C589.508 91.617 587.124 92.293 584.704 92.293C583.068 92.293 581.431 91.9372 579.794 91.2255C578.157 90.5851 576.876 89.6243 575.951 88.3434C575.097 87.1336 574.67 85.817 574.67 84.3937C574.67 82.2588 575.56 80.3374 577.339 78.6294C579.189 76.9926 581.716 75.9963 584.918 75.6405C586.128 75.4982 587.587 75.3914 589.295 75.3202C591.003 75.2491 592.212 75.2135 592.924 75.2135C593.636 75.1423 595.272 75.0712 597.834 75C600.467 74.8577 602.78 74.6086 604.773 74.2528C601.286 74.3951 597.728 73.7546 594.098 72.3313C591.323 71.2639 588.69 69.6271 586.199 67.421C583.779 65.1437 581.787 62.4039 580.221 59.2014C578.727 55.9279 577.979 52.4052 577.979 48.6335C577.979 45.4311 578.549 42.2287 579.687 39.0263C581.609 33.4042 584.776 29.0632 589.188 26.0031C593.6 22.943 598.51 21.413 603.919 21.413C608.829 21.413 613.419 22.6584 617.689 25.1491L619.717 26.4301C620.571 23.8682 621.603 21.8044 622.813 20.2388C624.023 18.6732 625.766 17.8903 628.044 17.8903C629.04 17.8903 630.25 18.1038 631.673 18.5308V27.7111ZM620.892 55.999C623.169 51.0175 624.308 46.3562 624.308 42.0152C624.308 38.3858 623.56 35.2189 622.066 32.5147C620.643 29.7393 618.686 27.6043 616.195 26.1099C613.775 24.6154 611.107 23.8682 608.189 23.8682C604.061 23.8682 600.076 25.4338 596.233 28.565C592.39 31.6251 589.295 36.2152 586.946 42.3354C585.238 46.89 584.384 51.0175 584.384 54.7181C584.384 58.3475 585.06 61.5143 586.412 64.2186C587.836 66.9228 589.722 69.0222 592.07 70.5166C594.49 71.9399 597.123 72.6516 599.969 72.6516C603.883 72.6516 607.726 71.2639 611.498 68.4884C615.27 65.6418 618.401 61.4787 620.892 55.999ZM677.277 75C678.985 73.1497 679.839 69.4847 679.839 64.0051V39.6667C679.839 33.9024 678.63 29.6325 676.21 26.8571C673.79 24.0817 670.695 22.694 666.923 22.694C663.649 22.694 660.34 23.6191 656.996 25.4694C653.651 27.2485 650.911 29.5969 648.776 32.5147V64.0051C648.776 69.6982 649.63 73.3632 651.338 75H638.101C639.809 73.1497 640.663 69.4847 640.663 64.0051V32.6214C640.663 26.8571 639.809 23.1921 638.101 21.6265H648.776V30.8067C651.196 27.5332 654.398 24.9356 658.383 23.0142C662.368 21.0928 666.389 20.132 670.446 20.132C675.498 20.132 679.662 21.7332 682.935 24.9356C686.28 28.0669 687.952 32.7638 687.952 39.0263V64.0051C687.952 69.6982 688.806 73.3632 690.514 75H677.277ZM705.222 48.3132C704.937 49.8077 704.795 51.4801 704.795 53.3304C704.795 57.4579 705.649 61.1229 707.357 64.3253C709.136 67.4565 711.484 69.7338 714.402 71.1571C716.964 72.3669 719.668 72.9718 722.515 72.9718C725.789 72.9718 728.991 72.189 732.122 70.6234C735.325 69.0577 738.136 66.7449 740.555 63.6848H746.64C744.078 67.0296 740.84 69.6271 736.926 71.4773C733.083 73.3276 728.955 74.2528 724.543 74.2528C720.985 74.2528 717.498 73.6123 714.082 72.3313C711.306 71.2639 708.673 69.6271 706.183 67.421C703.763 65.1437 701.77 62.4039 700.205 59.2014C698.71 55.9279 697.963 52.4052 697.963 48.6335C697.963 45.4311 698.532 42.2287 699.671 39.0263C701.664 33.2619 704.973 28.9209 709.599 26.0031C714.295 23.0854 719.419 21.6265 724.97 21.6265C728.955 21.6265 732.691 22.3381 736.179 23.7614C740.235 25.3271 743.437 28.1381 745.786 32.1944C748.205 36.2508 749.415 40.7698 749.415 45.7513C749.415 46.89 749.38 47.7439 749.308 48.3132H705.222ZM706.93 42.3354C706.361 43.6875 705.898 45.2532 705.542 47.0323H740.875C741.658 43.5452 742.05 40.5919 742.05 38.1723C742.05 34.7564 741.445 31.9098 740.235 29.6325C739.025 27.2841 737.388 25.6117 735.325 24.6154C733.901 23.9038 732.229 23.5479 730.307 23.5479C727.532 23.5479 724.579 24.3307 721.447 25.8964C718.387 27.462 715.541 29.7037 712.908 32.6214C710.275 35.468 708.282 38.706 706.93 42.3354ZM767.511 38.3858C768.65 33.5466 770.82 29.4902 774.023 26.2166C777.225 22.8719 780.855 21.1995 784.911 21.1995C786.121 21.1995 787.259 21.3418 788.327 21.6265V31.127C785.409 29.6325 782.705 28.8853 780.214 28.8853C776.585 28.8853 773.596 30.273 771.247 33.0484C768.97 35.8238 767.725 39.4177 767.511 43.8299V64.0051C767.511 69.6982 768.365 73.3632 770.073 75H756.837C758.545 73.1497 759.398 69.4847 759.398 64.0051V32.6214C759.398 26.8571 758.545 23.1921 756.837 21.6265H767.511V38.3858ZM154.059 182.657C154.059 185.076 153.205 187.247 151.497 189.168C149.789 191.09 147.156 193.438 143.597 196.213L143.384 195.68C146.088 193.402 147.44 190.591 147.44 187.247C147.44 185.396 146.978 183.617 146.053 181.909C145.199 180.13 143.953 178.565 142.317 177.213C140.253 183.19 136.908 188.03 132.282 191.73C127.728 195.36 121.963 197.174 114.989 197.174C109.51 197.174 104.777 196.036 100.792 193.758C96.8067 191.481 93.7822 188.528 91.7184 184.898C89.7258 181.198 88.7295 177.319 88.7295 173.263C88.7295 168.281 90.1884 163.798 93.1061 159.813C96.0239 155.828 100.187 153.123 105.596 151.7C101.468 150.348 98.3723 148.426 96.3085 145.936C94.3159 143.445 93.3196 140.705 93.3196 137.716C93.3196 134.87 94.2448 132.13 96.0951 129.497C98.0165 126.792 100.685 124.622 104.101 122.985C107.588 121.348 111.573 120.53 116.057 120.53C119.757 120.53 122.924 121.277 125.557 122.772C128.19 124.266 130.147 126.187 131.428 128.536C132.78 130.884 133.457 133.339 133.457 135.901C133.457 138.89 132.638 141.346 131.001 143.267C128.582 146.185 125.415 147.644 121.501 147.644C119.366 147.644 117.444 147.145 115.737 146.149C114.029 145.082 112.89 143.694 112.321 141.986L112.854 141.666C113.708 144.014 115.132 145.188 117.124 145.188C118.548 145.188 120.042 144.655 121.608 143.587C123.173 142.52 124.561 141.239 125.771 139.744C128.19 136.684 129.4 133.766 129.4 130.991C129.4 128.073 128.19 125.725 125.771 123.946C123.351 122.095 120.149 121.17 116.163 121.17C113.103 121.17 110.364 122.095 107.944 123.946C105.524 125.796 103.639 128.144 102.286 130.991C101.005 133.838 100.365 136.755 100.365 139.744C100.365 142.804 101.077 145.473 102.5 147.75C103.994 150.028 106.165 151.558 109.011 152.34L119.9 155.223V155.863C117.907 155.507 116.199 155.329 114.776 155.329C110.862 155.329 107.517 156.255 104.742 158.105C101.966 159.955 99.9024 162.41 98.5502 165.47C97.1981 168.459 96.522 171.662 96.522 175.078C96.522 178.707 97.2337 182.158 98.657 185.432C100.151 188.634 102.322 191.232 105.169 193.225C108.086 195.217 111.502 196.213 115.416 196.213C121.963 196.213 127.443 194.434 131.855 190.876C136.268 187.247 139.506 182.479 141.569 176.572C138.367 174.437 134.524 173.37 130.041 173.37C128.76 173.37 127.799 173.405 127.158 173.476C123.387 173.903 120.078 174.793 117.231 176.145C114.456 177.497 112.534 179.347 111.467 181.696H111.04C111.538 177.924 112.57 174.9 114.135 172.622C115.772 170.274 117.694 168.459 119.9 167.178C122.177 165.897 125.45 164.403 129.72 162.695C133.777 161.058 136.801 159.172 138.794 157.037C140.786 154.831 141.783 152.59 141.783 150.312C141.783 149.102 141.534 147.999 141.036 147.003L141.569 146.683C142.352 148.248 142.957 149.885 143.384 151.593C144.238 155.009 144.665 158.639 144.665 162.481C144.665 166.04 144.309 169.349 143.597 172.409C146.8 173.263 149.326 174.579 151.177 176.359C153.098 178.066 154.059 180.166 154.059 182.657ZM112.427 179.134C114.206 176.643 117.124 174.722 121.181 173.37C125.308 171.946 129.685 171.235 134.31 171.235C137.371 171.235 140.182 171.555 142.744 172.195C143.526 168.708 143.918 165.292 143.918 161.948C143.918 161.023 143.847 159.635 143.704 157.785C142.993 163.051 139.683 166.751 133.777 168.886C132.709 169.242 130.432 169.918 126.945 170.914C122.817 171.982 119.615 173.049 117.338 174.117C115.132 175.184 113.495 176.857 112.427 179.134ZM244.217 189.275C245.712 192.549 247.349 194.79 249.128 196H234.29C234.859 195.288 235.144 194.292 235.144 193.011C235.144 191.232 234.717 188.955 233.863 186.179L228.312 171.982H199.811L195.221 184.792C194.794 186.144 194.58 187.389 194.58 188.528C194.58 190.093 194.794 191.41 195.221 192.477C195.719 193.545 196.359 194.719 197.142 196H183.905C186.325 194.221 188.353 192.513 189.99 190.876C191.698 189.239 192.979 187.211 193.833 184.792L216.356 121.277H218.171L244.217 189.275ZM213.688 133.766L200.344 170.701H227.885L213.688 133.766ZM266.196 159.386C267.335 154.547 269.506 150.49 272.708 147.217C275.91 143.872 279.54 142.2 283.596 142.2C284.806 142.2 285.945 142.342 287.012 142.626V152.127C284.094 150.633 281.39 149.885 278.899 149.885C275.27 149.885 272.281 151.273 269.933 154.048C267.655 156.824 266.41 160.418 266.196 164.83V185.005C266.196 190.698 267.05 194.363 268.758 196H255.522C257.23 194.15 258.084 190.485 258.084 185.005V153.621C258.084 147.857 257.23 144.192 255.522 142.626H266.196V159.386ZM305.586 180.949C305.586 186.286 306.298 190.093 307.721 192.371C309.215 194.648 311.422 195.787 314.339 195.787C316.19 195.787 318.396 195.395 320.958 194.612V195.36C317.044 196.213 313.841 196.64 311.35 196.64C306.938 196.64 303.522 195.466 301.103 193.118C298.754 190.769 297.544 186.82 297.473 181.269V148.818H292.349V147.537H297.473V142.413C297.473 136.649 296.619 132.984 294.911 131.418H305.586V147.537H314.873V148.818H305.586V180.949ZM368.629 121.277C376.67 121.277 383.502 122.985 389.124 126.401C394.746 129.817 398.945 134.3 401.72 139.851C404.567 145.402 405.99 151.38 405.99 157.785C405.99 164.332 404.531 170.523 401.613 176.359C398.767 182.194 394.497 186.927 388.804 190.556C383.182 194.185 376.457 196 368.629 196H350.802C352.51 194.363 353.364 190.698 353.364 185.005V132.272C353.364 126.508 352.51 122.843 350.802 121.277H368.629ZM368.522 195.039C374.713 195.039 380.015 193.331 384.427 189.915C388.839 186.428 392.148 181.909 394.355 176.359C396.632 170.737 397.77 164.759 397.77 158.425C397.77 152.163 396.667 146.291 394.461 140.812C392.255 135.261 388.946 130.813 384.534 127.468C380.122 124.124 374.784 122.487 368.522 122.558L361.476 122.665V195.039H368.522ZM419.431 131.098C418.079 131.098 416.905 130.635 415.908 129.71C414.983 128.714 414.521 127.54 414.521 126.187C414.521 124.835 414.983 123.697 415.908 122.772C416.905 121.775 418.079 121.277 419.431 121.277C420.783 121.277 421.922 121.775 422.847 122.772C423.843 123.697 424.341 124.835 424.341 126.187C424.341 127.54 423.843 128.714 422.847 129.71C421.922 130.635 420.783 131.098 419.431 131.098ZM413.453 196C415.161 194.15 416.015 190.485 416.015 185.005V153.621C416.015 147.857 415.161 144.192 413.453 142.626H424.128V185.005C424.128 190.698 424.982 194.363 426.69 196H413.453ZM443.726 159.386C444.865 154.547 447.035 150.49 450.237 147.217C453.44 143.872 457.069 142.2 461.126 142.2C462.335 142.2 463.474 142.342 464.542 142.626V152.127C461.624 150.633 458.92 149.885 456.429 149.885C452.799 149.885 449.81 151.273 447.462 154.048C445.185 156.824 443.939 160.418 443.726 164.83V185.005C443.726 190.698 444.58 194.363 446.288 196H433.051C434.759 194.15 435.613 190.485 435.613 185.005V153.621C435.613 147.857 434.759 144.192 433.051 142.626H443.726V159.386ZM476.091 169.313C475.806 170.808 475.664 172.48 475.664 174.33C475.664 178.458 476.518 182.123 478.226 185.325C480.005 188.457 482.354 190.734 485.271 192.157C487.833 193.367 490.538 193.972 493.384 193.972C496.658 193.972 499.86 193.189 502.991 191.623C506.194 190.058 509.005 187.745 511.424 184.685H517.509C514.947 188.03 511.709 190.627 507.795 192.477C503.952 194.328 499.825 195.253 495.412 195.253C491.854 195.253 488.367 194.612 484.951 193.331C482.176 192.264 479.543 190.627 477.052 188.421C474.632 186.144 472.64 183.404 471.074 180.201C469.58 176.928 468.832 173.405 468.832 169.633C468.832 166.431 469.402 163.229 470.54 160.026C472.533 154.262 475.842 149.921 480.468 147.003C485.165 144.085 490.288 142.626 495.839 142.626C499.825 142.626 503.561 143.338 507.048 144.761C511.104 146.327 514.307 149.138 516.655 153.194C519.075 157.251 520.284 161.77 520.284 166.751C520.284 167.89 520.249 168.744 520.178 169.313H476.091ZM477.799 163.335C477.23 164.688 476.767 166.253 476.411 168.032H511.745C512.527 164.545 512.919 161.592 512.919 159.172C512.919 155.756 512.314 152.91 511.104 150.633C509.894 148.284 508.258 146.612 506.194 145.615C504.77 144.904 503.098 144.548 501.177 144.548C498.401 144.548 495.448 145.331 492.317 146.896C489.257 148.462 486.41 150.704 483.777 153.621C481.144 156.468 479.151 159.706 477.799 163.335ZM544.892 193.331C542.117 192.264 539.484 190.627 536.993 188.421C534.573 186.144 532.581 183.404 531.015 180.201C529.52 176.928 528.773 173.405 528.773 169.633C528.773 166.431 529.343 163.229 530.481 160.026C532.474 154.333 535.819 149.992 540.515 147.003C545.212 144.014 550.336 142.52 555.887 142.52C559.872 142.52 563.573 143.267 566.989 144.761C570.76 146.469 573.82 148.782 576.169 151.7C578.517 154.547 579.834 157.18 580.119 159.599L572.113 156.931C572.255 156.361 572.326 155.507 572.326 154.369C572.326 151.38 571.259 149.031 569.124 147.323C566.989 145.544 564.284 144.655 561.011 144.655C556.527 144.655 552.08 146.256 547.667 149.458C543.326 152.59 540.017 157.215 537.74 163.335C536.174 167.534 535.392 171.448 535.392 175.078C535.392 178.92 536.21 182.265 537.847 185.112C539.484 187.958 541.69 190.129 544.465 191.623C547.24 193.118 550.229 193.865 553.432 193.865C556.634 193.865 559.801 193.118 562.932 191.623C566.135 190.058 568.946 187.745 571.365 184.685H577.45C574.888 188.03 571.65 190.627 567.736 192.477C563.893 194.328 559.765 195.253 555.353 195.253C551.795 195.253 548.308 194.612 544.892 193.331ZM597.577 180.949C597.577 186.286 598.288 190.093 599.712 192.371C601.206 194.648 603.412 195.787 606.33 195.787C608.18 195.787 610.386 195.395 612.948 194.612V195.36C609.034 196.213 605.832 196.64 603.341 196.64C598.929 196.64 595.513 195.466 593.093 193.118C590.745 190.769 589.535 186.82 589.464 181.269V148.818H584.34V147.537H589.464V142.413C589.464 136.649 588.61 132.984 586.902 131.418H597.577V147.537H606.864V148.818H597.577V180.949ZM624.744 193.331C621.968 192.264 619.335 190.627 616.845 188.421C614.425 186.144 612.432 183.404 610.867 180.201C609.372 176.928 608.625 173.405 608.625 169.633C608.625 166.431 609.194 163.229 610.333 160.026C612.254 154.404 615.421 150.063 619.833 147.003C624.246 143.943 629.156 142.413 634.565 142.413C639.475 142.413 644.065 143.658 648.335 146.149C652.534 148.569 655.7 151.736 657.835 155.65C660.041 159.493 661.145 163.656 661.145 168.139C661.145 172.409 660.184 176.536 658.262 180.522C656.056 185.147 652.889 188.777 648.762 191.41C644.634 193.972 640.08 195.253 635.098 195.253C631.611 195.253 628.16 194.612 624.744 193.331ZM624.957 192.371C626.523 193.153 628.373 193.545 630.508 193.545C634.422 193.545 638.301 192.086 642.144 189.168C646.058 186.179 649.189 182.123 651.537 176.999C653.672 172.16 654.74 167.463 654.74 162.908C654.74 159.35 654.135 156.183 652.925 153.408C651.715 150.633 650.007 148.533 647.801 147.11C645.524 145.544 642.855 144.761 639.795 144.761C635.525 144.761 631.327 146.363 627.199 149.565C623.071 152.767 619.869 157.358 617.592 163.335C616.097 167.107 615.35 170.914 615.35 174.757C615.35 178.885 616.24 182.514 618.019 185.646C619.798 188.777 622.111 191.018 624.957 192.371ZM679.32 159.386C680.458 154.547 682.629 150.49 685.831 147.217C689.034 143.872 692.663 142.2 696.72 142.2C697.929 142.2 699.068 142.342 700.136 142.626V152.127C697.218 150.633 694.514 149.885 692.023 149.885C688.393 149.885 685.404 151.273 683.056 154.048C680.779 156.824 679.533 160.418 679.32 164.83V185.005C679.32 190.698 680.174 194.363 681.882 196H668.645C670.353 194.15 671.207 190.485 671.207 185.005V153.621C671.207 147.857 670.353 144.192 668.645 142.626H679.32V159.386Z" fill="#F9F3DF"/>
</svg>
