<svg width="186" height="47" viewBox="0 0 186 47" fill="none" xmlns="http://www.w3.org/2000/svg">
<path d="M6.20555 0.199997L10.9035 0.145998C15.4395 0.145998 19.2915 0.721998 22.4595 1.874C25.6635 3.026 27.2655 5.294 27.2655 8.678C27.2655 11.27 26.2575 13.556 24.2415 15.536C22.2615 17.516 19.4175 19.298 15.7095 20.882L6.20555 24.932V32.438C6.20555 35.318 6.63755 37.172 7.50155 38H0.805547C1.66955 37.064 2.10155 35.21 2.10155 32.438V5.762C2.10155 2.846 1.66955 0.991998 0.805547 0.199997H6.20555ZM15.4935 20.342C18.0135 19.262 19.8855 17.894 21.1095 16.238C22.3695 14.582 22.9995 12.368 22.9995 9.596C22.9995 6.032 21.7035 3.656 19.1115 2.468C16.5195 1.28 13.3515 0.685998 9.60755 0.685998L6.20555 0.739997V24.338L15.4935 20.342ZM36.4223 19.478C36.9983 17.03 38.0963 14.978 39.7163 13.322C41.3363 11.63 43.1723 10.784 45.2243 10.784C45.8363 10.784 46.4123 10.856 46.9523 11V15.806C45.4763 15.05 44.1083 14.672 42.8483 14.672C41.0123 14.672 39.5003 15.374 38.3123 16.778C37.1603 18.182 36.5303 20 36.4223 22.232V32.438C36.4223 35.318 36.8543 37.172 37.7183 38H31.0223C31.8863 37.064 32.3183 35.21 32.3183 32.438V16.562C32.3183 13.646 31.8863 11.792 31.0223 11H36.4223V19.478ZM57.2769 36.65C55.8729 36.11 54.5409 35.282 53.2809 34.166C52.0569 33.014 51.0489 31.628 50.2569 30.008C49.5009 28.352 49.1229 26.57 49.1229 24.662C49.1229 23.042 49.4109 21.422 49.9869 19.802C50.9589 16.958 52.5609 14.762 54.7929 13.214C57.0249 11.666 59.5089 10.892 62.2449 10.892C64.7289 10.892 67.0509 11.522 69.2109 12.782C71.3349 14.006 72.9369 15.608 74.0169 17.588C75.1329 19.532 75.6909 21.638 75.6909 23.906C75.6909 26.066 75.2049 28.154 74.2329 30.17C73.1169 32.51 71.5149 34.346 69.4269 35.678C67.3389 36.974 65.0349 37.622 62.5149 37.622C60.7509 37.622 59.0049 37.298 57.2769 36.65ZM57.3849 36.164C58.1769 36.56 59.1129 36.758 60.1929 36.758C62.1729 36.758 64.1349 36.02 66.0789 34.544C68.0589 33.032 69.6429 30.98 70.8309 28.388C71.9109 25.94 72.4509 23.564 72.4509 21.26C72.4509 19.46 72.1449 17.858 71.5329 16.454C70.9209 15.05 70.0569 13.988 68.9409 13.268C67.7889 12.476 66.4389 12.08 64.8909 12.08C62.7309 12.08 60.6069 12.89 58.5189 14.51C56.4309 16.13 54.8109 18.452 53.6589 21.476C52.9029 23.384 52.5249 25.31 52.5249 27.254C52.5249 29.342 52.9749 31.178 53.8749 32.762C54.7749 34.346 55.9449 35.48 57.3849 36.164ZM82.2932 5.168C81.6092 5.168 81.0152 4.934 80.5112 4.466C80.0432 3.962 79.8092 3.368 79.8092 2.684C79.8092 2 80.0432 1.424 80.5112 0.955997C81.0152 0.451997 81.6092 0.199997 82.2932 0.199997C82.9772 0.199997 83.5532 0.451997 84.0212 0.955997C84.5252 1.424 84.7772 2 84.7772 2.684C84.7772 3.368 84.5252 3.962 84.0212 4.466C83.5532 4.934 82.9772 5.168 82.2932 5.168ZM80.5652 16.562C80.5652 13.646 80.1332 11.792 79.2692 11H84.6692V38C84.6692 39.476 84.2012 40.844 83.2652 42.104C82.3292 43.4 81.1412 44.426 79.7012 45.182C78.2612 45.974 76.8392 46.37 75.4352 46.37C73.4552 46.37 71.9252 45.614 70.8452 44.102L74.6252 41.456C75.0212 42.644 75.5432 43.616 76.1912 44.372C76.8032 45.128 77.3972 45.506 77.9732 45.506C78.7292 45.506 79.3412 44.876 79.8092 43.616C80.3132 42.392 80.5652 40.502 80.5652 37.946V16.562ZM93.2949 24.5C93.1509 25.256 93.0789 26.102 93.0789 27.038C93.0789 29.126 93.5109 30.98 94.3749 32.6C95.2749 34.184 96.4629 35.336 97.9389 36.056C99.2349 36.668 100.603 36.974 102.043 36.974C103.699 36.974 105.319 36.578 106.903 35.786C108.523 34.994 109.945 33.824 111.169 32.276H114.247C112.951 33.968 111.313 35.282 109.333 36.218C107.389 37.154 105.301 37.622 103.069 37.622C101.269 37.622 99.5049 37.298 97.7769 36.65C96.3729 36.11 95.0409 35.282 93.7809 34.166C92.5569 33.014 91.5489 31.628 90.7569 30.008C90.0009 28.352 89.6229 26.57 89.6229 24.662C89.6229 23.042 89.9109 21.422 90.4869 19.802C91.4949 16.886 93.1689 14.69 95.5089 13.214C97.8849 11.738 100.477 11 103.285 11C105.301 11 107.191 11.36 108.955 12.08C111.007 12.872 112.627 14.294 113.815 16.346C115.039 18.398 115.651 20.684 115.651 23.204C115.651 23.78 115.633 24.212 115.597 24.5H93.2949ZM94.1589 21.476C93.8709 22.16 93.6369 22.952 93.4569 23.852H111.331C111.727 22.088 111.925 20.594 111.925 19.37C111.925 17.642 111.619 16.202 111.007 15.05C110.395 13.862 109.567 13.016 108.523 12.512C107.803 12.152 106.957 11.972 105.985 11.972C104.581 11.972 103.087 12.368 101.503 13.16C99.9549 13.952 98.5149 15.086 97.1829 16.562C95.8509 18.002 94.8429 19.64 94.1589 21.476ZM128.099 36.65C126.695 36.11 125.363 35.282 124.103 34.166C122.879 33.014 121.871 31.628 121.079 30.008C120.323 28.352 119.945 26.57 119.945 24.662C119.945 23.042 120.233 21.422 120.809 19.802C121.817 16.922 123.509 14.726 125.885 13.214C128.261 11.702 130.853 10.946 133.661 10.946C135.677 10.946 137.549 11.324 139.277 12.08C141.185 12.944 142.733 14.114 143.921 15.59C145.109 17.03 145.775 18.362 145.919 19.586L141.869 18.236C141.941 17.948 141.977 17.516 141.977 16.94C141.977 15.428 141.437 14.24 140.357 13.376C139.277 12.476 137.909 12.026 136.253 12.026C133.985 12.026 131.735 12.836 129.503 14.456C127.307 16.04 125.633 18.38 124.481 21.476C123.689 23.6 123.293 25.58 123.293 27.416C123.293 29.36 123.707 31.052 124.535 32.492C125.363 33.932 126.479 35.03 127.883 35.786C129.287 36.542 130.799 36.92 132.419 36.92C134.039 36.92 135.641 36.542 137.225 35.786C138.845 34.994 140.267 33.824 141.491 32.276H144.569C143.273 33.968 141.635 35.282 139.655 36.218C137.711 37.154 135.623 37.622 133.391 37.622C131.591 37.622 129.827 37.298 128.099 36.65ZM154.751 30.386C154.751 33.086 155.111 35.012 155.831 36.164C156.587 37.316 157.703 37.892 159.179 37.892C160.115 37.892 161.231 37.694 162.527 37.298V37.676C160.547 38.108 158.927 38.324 157.667 38.324C155.435 38.324 153.707 37.73 152.483 36.542C151.295 35.354 150.683 33.356 150.647 30.548V14.132H148.055V13.484H150.647V10.892C150.647 7.976 150.215 6.122 149.351 5.33H154.751V13.484H159.449V14.132H154.751V30.386ZM173.319 37.838C172.563 37.802 171.735 37.676 170.835 37.46C169.899 37.316 169.305 37.244 169.053 37.244C168.585 37.244 168.189 37.316 167.865 37.46L165.759 29.09L165.975 28.982C166.479 30.278 167.415 31.43 168.783 32.438C170.187 33.446 171.771 34.238 173.535 34.814C175.335 35.354 177.045 35.624 178.665 35.624C180.393 35.624 181.797 35.3 182.877 34.652C183.993 34.004 184.551 33.014 184.551 31.682C184.551 30.818 184.209 30.08 183.525 29.468C182.877 28.82 182.067 28.298 181.095 27.902C180.123 27.506 178.755 27.02 176.991 26.444C174.687 25.724 172.797 25.04 171.321 24.392C169.845 23.708 168.585 22.772 167.541 21.584C166.497 20.36 165.975 18.83 165.975 16.994C165.975 14.654 166.749 12.89 168.297 11.702C169.881 10.478 172.077 9.866 174.885 9.866C175.281 9.866 175.947 9.902 176.883 9.974L178.719 10.19C179.727 10.37 180.555 10.46 181.203 10.46C181.959 10.46 182.499 10.298 182.823 9.974L184.659 17.534L184.443 17.642C184.083 16.562 183.273 15.59 182.013 14.726C180.753 13.826 179.259 13.124 177.531 12.62C175.839 12.08 174.201 11.81 172.617 11.81C170.817 11.81 169.341 12.17 168.189 12.89C167.073 13.574 166.515 14.636 166.515 16.076C166.515 17.408 167.163 18.452 168.459 19.208C169.791 19.928 171.807 20.684 174.507 21.476C176.883 22.232 178.791 22.934 180.231 23.582C181.671 24.194 182.877 25.076 183.849 26.228C184.857 27.38 185.307 28.838 185.199 30.602C185.055 33.158 184.245 35.03 182.769 36.218C181.329 37.37 178.989 37.946 175.749 37.946C175.281 37.946 174.471 37.91 173.319 37.838Z" fill="#222F24"/>
</svg>
