<svg width="375" height="812" viewBox="0 0 375 812" fill="none" xmlns="http://www.w3.org/2000/svg">
<rect width="375" height="812" fill="white"/>
<rect x="16" y="95" width="343" height="704" rx="7.3369" fill="white"/>
<rect x="16.4585" y="117.011" width="342.083" height="100.882" fill="#FBFBFB"/>
<path d="M229.298 169.408C229.344 169.408 229.381 169.371 229.381 169.325C229.381 169.279 229.344 169.242 229.298 169.242C229.252 169.242 229.215 169.279 229.215 169.325C229.215 169.371 229.252 169.408 229.298 169.408Z" fill="#E6E8EC"/>
<path d="M185.436 141.248L125.035 180.387L164.452 251.395C164.825 252.066 165.461 252.551 166.208 252.733L201.922 261.434C203.184 261.739 204.486 261.123 205.05 259.956L222.765 223.195L242.18 197.272L196.107 142.828C193.454 139.695 188.884 139.018 185.436 141.248Z" fill="#F6F6F6"/>
<path opacity="0.1" d="M242.986 197.673L242.815 197.904L231.442 213.089L231.236 213.364L223.571 223.599L208.419 255.042L207.994 255.921L205.856 260.357C205.292 261.526 203.986 262.143 202.724 261.836L167.01 253.13C166.263 252.949 165.626 252.464 165.254 251.792L161.82 245.617L161.203 244.505L136.414 199.832L136.201 199.452L125.84 180.79L127.092 179.978L136.582 173.83L136.802 173.687L156.787 160.737L158.048 159.921L186.238 141.653C189.686 139.42 194.26 140.096 196.913 143.231L217.931 168.075L218.854 169.182L234.11 187.207L234.193 187.307L241.863 196.368L242.828 197.509L242.986 197.673Z" fill="#101010"/>
<path opacity="0.1" d="M233.324 187.006L231.465 199.903L230.905 203.795L230.584 212.086L230.559 212.734L228.892 256.055C228.859 256.869 228.467 257.626 227.821 258.123C227.175 258.619 226.342 258.804 225.546 258.628L207.573 254.62L207.38 254.576L161.286 244.302L160.439 244.113L135.099 238.462L135.68 199.511L135.699 198.21L135.874 186.421L136.068 173.408L156.021 160.478L157.28 159.663C175.788 161.559 200.402 165.204 217.076 167.805L217.999 168.91L233.218 186.907L233.324 187.006Z" fill="#101010"/>
<path d="M235.739 171.649L233.549 186.84L231.541 200.752L230.981 204.633L230.66 212.919L228.966 256.862C228.933 257.675 228.541 258.432 227.894 258.928C227.248 259.425 226.414 259.61 225.617 259.433L207.437 255.384L161.306 245.116L135.099 239.279L135.699 199.051L135.875 187.268L136.08 173.485L136.29 159.309C140.624 159.104 147.755 159.567 156.268 160.421C175.331 162.329 201.316 166.189 218.306 168.847C228.71 170.475 235.739 171.649 235.739 171.649Z" fill="#1DBC86"/>
<path opacity="0.1" d="M241.221 196.139L231.48 200.909L181.764 225.252L135.948 187.447L126.686 179.792L125.437 180.602L135.775 199.216L135.176 239.428L161.346 245.263L164.766 251.422C165.137 252.092 165.773 252.576 166.518 252.756L202.153 261.435C203.41 261.738 204.709 261.124 205.271 259.96L207.405 255.536L225.56 259.583C226.355 259.76 227.188 259.575 227.833 259.079C228.479 258.582 228.871 257.826 228.904 257.013L230.595 213.088L242.148 197.672L242.18 197.283L241.221 196.139Z" fill="#101010"/>
<path d="M125.129 180.597L121.014 250.902C120.935 252.246 121.845 253.449 123.163 253.741L232.445 277.953C233.221 278.122 234.031 277.949 234.67 277.479C235.308 277.008 235.711 276.285 235.776 275.496L242.18 197.449L181.541 227.123L125.129 180.597Z" fill="#F6F6F6"/>
<path opacity="0.1" d="M122.041 252.446L178.726 217.432C180.459 216.38 182.697 216.731 184.025 218.263L234.76 277.506C234.945 277.718 235.035 277.566 234.76 277.506L122.041 252.446C121.76 252.615 121.719 252.375 122.041 252.446Z" fill="#101010"/>
<path d="M122.109 252.182L178.361 218.267C180.197 217.16 182.564 217.532 183.971 219.148L234.383 277.014C234.555 277.211 234.58 277.496 234.446 277.72C234.312 277.945 234.05 278.059 233.794 278.003L122.292 253.291C122.049 253.239 121.863 253.044 121.822 252.799C121.782 252.554 121.896 252.309 122.109 252.182Z" fill="#FBFBFB"/>
<path d="M165.774 171.602L168.085 171.901L168.384 169.585L165.774 171.602Z" fill="#E8F8F3"/>
<path d="M166.314 173.996L169.784 174.444L170.234 170.968L166.314 173.996Z" fill="#E8F8F3"/>
<path d="M166.688 177.56L172.483 178.309L173.233 172.51L166.688 177.56Z" fill="#E8F8F3"/>
<path d="M179.231 177.203C178.607 177.677 177.821 177.885 177.044 177.785C176.267 177.684 175.56 177.283 175.076 176.666C174.835 176.36 174.659 176.007 174.559 175.63C174.459 175.253 174.437 174.86 174.495 174.474C174.538 174.086 174.659 173.711 174.851 173.372C175.044 173.033 175.303 172.737 175.615 172.502C176.239 172.029 177.025 171.82 177.802 171.921C178.579 172.021 179.286 172.423 179.77 173.039C180.012 173.345 180.189 173.698 180.289 174.075C180.39 174.452 180.412 174.846 180.354 175.232C180.312 175.62 180.191 175.995 179.997 176.334C179.804 176.673 179.543 176.969 179.231 177.203ZM175.952 176.009C176.258 176.388 176.699 176.634 177.182 176.696C177.665 176.759 178.154 176.633 178.547 176.345C178.743 176.194 178.906 176.004 179.026 175.788C179.145 175.572 179.219 175.333 179.243 175.087C179.282 174.842 179.272 174.592 179.211 174.352C179.151 174.112 179.041 173.886 178.89 173.69C178.586 173.308 178.145 173.06 177.661 172.998C177.176 172.935 176.687 173.063 176.295 173.354C176.099 173.506 175.937 173.696 175.817 173.913C175.697 174.13 175.624 174.369 175.6 174.616C175.56 174.86 175.571 175.109 175.631 175.349C175.692 175.589 175.801 175.813 175.952 176.009Z" fill="#E8F8F3"/>
<path d="M183.943 174.465L184.983 174.599L184.461 178.629L183.422 178.495L183.481 178.042C183.179 178.385 182.754 178.521 182.207 178.451C182.003 178.43 181.806 178.368 181.628 178.267C181.449 178.166 181.294 178.029 181.172 177.865C180.923 177.531 180.832 177.104 180.9 176.584L181.219 174.112L182.259 174.247L181.955 176.592C181.921 176.861 181.966 177.076 182.093 177.237C182.161 177.319 182.245 177.387 182.34 177.437C182.435 177.487 182.539 177.517 182.646 177.525C182.764 177.546 182.885 177.542 183.002 177.514C183.119 177.485 183.228 177.432 183.323 177.359C183.506 177.213 183.619 176.974 183.662 176.641L183.943 174.465Z" fill="#E8F8F3"/>
<path d="M186.882 175.55C186.999 175.317 187.196 175.133 187.437 175.032C187.68 174.931 187.946 174.897 188.207 174.934L188.057 176.095C187.765 176.015 187.453 176.045 187.182 176.179C186.91 176.313 186.75 176.574 186.7 176.96L186.45 178.887L185.411 178.752L185.932 174.722L186.972 174.857L186.882 175.55Z" fill="#E8F8F3"/>
<path d="M191.164 173.761C191.418 173.788 191.664 173.866 191.886 173.99C192.109 174.115 192.304 174.283 192.46 174.485C192.619 174.682 192.734 174.91 192.8 175.154C192.866 175.398 192.881 175.653 192.843 175.903C192.816 176.155 192.737 176.398 192.611 176.617C192.485 176.836 192.315 177.027 192.112 177.177C191.91 177.333 191.678 177.446 191.431 177.51C191.184 177.574 190.927 177.587 190.674 177.548L189.688 177.421L189.448 179.275L188.331 179.13L189.06 173.489L191.164 173.761ZM190.809 176.508C190.918 176.525 191.03 176.519 191.137 176.49C191.244 176.461 191.344 176.409 191.429 176.339C191.517 176.268 191.59 176.181 191.644 176.081C191.698 175.982 191.731 175.873 191.743 175.761C191.761 175.649 191.757 175.534 191.731 175.424C191.704 175.314 191.656 175.21 191.589 175.118C191.523 175.029 191.44 174.955 191.344 174.9C191.248 174.845 191.142 174.811 191.032 174.8L190.043 174.672L189.822 176.381L190.809 176.508Z" fill="#E8F8F3"/>
<path d="M196.355 176.07L197.391 176.204L196.87 180.234L195.834 180.1L195.895 179.624C195.532 179.976 195.069 180.116 194.506 180.042C194.244 180.011 193.993 179.923 193.768 179.786C193.543 179.649 193.351 179.465 193.203 179.247C192.872 178.789 192.735 178.22 192.822 177.662C192.88 177.1 193.157 176.584 193.594 176.225C193.792 176.052 194.024 175.924 194.276 175.848C194.527 175.773 194.792 175.752 195.052 175.787C195.616 175.86 196.028 176.112 196.29 176.545L196.355 176.07ZM194.07 178.654C194.16 178.773 194.274 178.873 194.404 178.946C194.534 179.019 194.678 179.064 194.826 179.079C194.974 179.102 195.125 179.094 195.269 179.057C195.414 179.019 195.549 178.952 195.667 178.861C195.787 178.767 195.886 178.651 195.959 178.518C196.032 178.385 196.077 178.238 196.091 178.087C196.115 177.937 196.109 177.784 196.072 177.637C196.036 177.49 195.969 177.352 195.878 177.231C195.786 177.113 195.672 177.014 195.541 176.942C195.41 176.869 195.266 176.824 195.117 176.81C194.97 176.786 194.819 176.793 194.675 176.83C194.531 176.867 194.396 176.933 194.278 177.024C194.16 177.119 194.062 177.236 193.99 177.369C193.917 177.502 193.873 177.648 193.859 177.798C193.834 177.948 193.84 178.101 193.877 178.248C193.913 178.395 193.979 178.533 194.07 178.654Z" fill="#E8F8F3"/>
<path d="M199.115 177.59C199.101 177.698 199.16 177.794 199.294 177.88C199.452 177.978 199.618 178.061 199.791 178.128C199.992 178.207 200.188 178.298 200.378 178.4C200.574 178.506 200.737 178.665 200.848 178.859C200.969 179.075 201.013 179.326 200.973 179.571C200.957 179.758 200.896 179.937 200.793 180.094C200.691 180.25 200.551 180.378 200.386 180.466C200.015 180.654 199.595 180.719 199.186 180.651C198.358 180.544 197.835 180.151 197.618 179.473L198.589 179.083C198.661 179.447 198.902 179.656 199.31 179.709C199.681 179.757 199.881 179.665 199.911 179.434C199.925 179.326 199.865 179.23 199.731 179.144C199.573 179.047 199.407 178.964 199.235 178.896C199.032 178.813 198.834 178.718 198.643 178.611C198.45 178.505 198.287 178.349 198.172 178.161C198.05 177.955 198.005 177.712 198.044 177.476C198.06 177.295 198.119 177.12 198.217 176.967C198.314 176.813 198.447 176.686 198.605 176.594C198.949 176.4 199.35 176.329 199.741 176.393C200.053 176.43 200.351 176.546 200.606 176.73C200.853 176.912 201.045 177.16 201.158 177.445L200.219 177.814C200.183 177.681 200.107 177.562 200.001 177.474C199.895 177.385 199.765 177.332 199.627 177.32C199.51 177.301 199.389 177.318 199.282 177.367C199.237 177.387 199.198 177.418 199.169 177.457C199.139 177.496 199.121 177.541 199.115 177.59Z" fill="#E8F8F3"/>
<path d="M202.615 178.043C202.602 178.151 202.662 178.248 202.795 178.333C202.953 178.432 203.119 178.515 203.292 178.582C203.493 178.66 203.689 178.751 203.879 178.854C204.075 178.96 204.238 179.118 204.348 179.312C204.47 179.528 204.514 179.78 204.473 180.025C204.458 180.211 204.397 180.391 204.294 180.547C204.192 180.704 204.051 180.832 203.886 180.92C203.517 181.108 203.096 181.173 202.687 181.104C201.86 180.997 201.337 180.605 201.118 179.927L202.089 179.536C202.165 179.901 202.406 180.11 202.812 180.162C203.182 180.21 203.382 180.119 203.412 179.888C203.426 179.78 203.366 179.684 203.233 179.597C203.075 179.5 202.909 179.417 202.736 179.349C202.535 179.268 202.339 179.174 202.15 179.069C201.956 178.962 201.794 178.807 201.68 178.619C201.557 178.413 201.512 178.17 201.551 177.934C201.567 177.753 201.626 177.578 201.724 177.425C201.821 177.271 201.954 177.144 202.111 177.052C202.456 176.858 202.857 176.787 203.248 176.851C203.561 176.888 203.859 177.003 204.114 177.188C204.361 177.37 204.552 177.618 204.666 177.903L203.717 178.272C203.681 178.139 203.605 178.02 203.5 177.931C203.394 177.843 203.263 177.789 203.126 177.778C203.008 177.759 202.887 177.775 202.779 177.825C202.735 177.844 202.697 177.875 202.669 177.913C202.64 177.951 202.622 177.996 202.615 178.043Z" fill="#E8F8F3"/>
<path d="M95.4126 304.627V313.027H96.2526V309.907H98.4126C99.1686 309.907 99.7926 309.655 100.297 309.151C100.801 308.647 101.053 308.023 101.053 307.267C101.053 306.511 100.801 305.887 100.297 305.383C99.7926 304.879 99.1686 304.627 98.4126 304.627H95.4126ZM96.2526 309.115V305.419H98.4126C98.9286 305.419 99.3606 305.599 99.6966 305.947C100.045 306.295 100.213 306.727 100.213 307.267C100.213 307.807 100.045 308.251 99.6966 308.599C99.3606 308.947 98.9286 309.115 98.4126 309.115H96.2526ZM103.163 313.027V304.267H102.371V313.027H103.163ZM107.615 306.883C106.691 306.883 105.947 307.183 105.359 307.783C104.771 308.383 104.483 309.127 104.483 310.027C104.483 310.939 104.783 311.695 105.371 312.283C105.959 312.871 106.727 313.171 107.675 313.171C108.839 313.171 109.787 312.643 110.315 311.791L109.619 311.383C109.283 311.995 108.599 312.403 107.687 312.403C106.403 312.403 105.455 311.635 105.299 310.423H110.567C110.579 310.267 110.591 310.135 110.591 310.051C110.591 309.199 110.315 308.455 109.763 307.831C109.223 307.195 108.503 306.883 107.615 306.883ZM107.615 307.651C108.155 307.651 108.635 307.831 109.043 308.179C109.451 308.527 109.691 309.019 109.775 309.655H105.299C105.455 308.467 106.367 307.651 107.615 307.651ZM117.011 308.203C116.459 307.327 115.655 306.883 114.587 306.883C113.735 306.883 113.003 307.183 112.391 307.795C111.791 308.407 111.491 309.151 111.491 310.027C111.491 310.903 111.791 311.647 112.391 312.259C113.003 312.871 113.735 313.171 114.587 313.171C115.655 313.171 116.459 312.727 117.011 311.851V313.027H117.803V307.027H117.011V308.203ZM112.967 311.719C112.511 311.251 112.283 310.687 112.283 310.027C112.283 309.367 112.511 308.803 112.967 308.347C113.423 307.879 113.987 307.651 114.647 307.651C115.307 307.651 115.871 307.879 116.327 308.347C116.783 308.803 117.011 309.367 117.011 310.027C117.011 310.687 116.783 311.251 116.327 311.719C115.871 312.175 115.307 312.403 114.647 312.403C113.987 312.403 113.423 312.175 112.967 311.719ZM120.104 308.599C120.104 307.987 120.68 307.651 121.364 307.651C122.096 307.651 122.576 307.927 122.804 308.491L123.464 308.107C123.116 307.351 122.336 306.883 121.364 306.883C120.776 306.883 120.284 307.051 119.888 307.375C119.504 307.699 119.312 308.107 119.312 308.599C119.312 309.895 120.572 310.171 121.58 310.423C122.264 310.603 122.816 310.903 122.816 311.443C122.816 312.103 122.216 312.403 121.436 312.403C120.632 312.403 120.02 312.019 119.792 311.395L119.12 311.791C119.444 312.607 120.284 313.171 121.436 313.171C122.072 313.171 122.6 313.015 122.996 312.691C123.404 312.367 123.608 311.959 123.608 311.443C123.608 310.147 122.348 309.871 121.34 309.619C120.656 309.439 120.104 309.139 120.104 308.599ZM127.526 306.883C126.602 306.883 125.858 307.183 125.27 307.783C124.682 308.383 124.394 309.127 124.394 310.027C124.394 310.939 124.694 311.695 125.282 312.283C125.87 312.871 126.638 313.171 127.586 313.171C128.75 313.171 129.698 312.643 130.226 311.791L129.53 311.383C129.194 311.995 128.51 312.403 127.598 312.403C126.314 312.403 125.366 311.635 125.21 310.423H130.478C130.49 310.267 130.502 310.135 130.502 310.051C130.502 309.199 130.226 308.455 129.674 307.831C129.134 307.195 128.414 306.883 127.526 306.883ZM127.526 307.651C128.066 307.651 128.546 307.831 128.954 308.179C129.362 308.527 129.602 309.019 129.686 309.655H125.21C125.366 308.467 126.278 307.651 127.526 307.651ZM137.533 306.883C136.609 306.883 135.865 307.183 135.277 307.783C134.689 308.383 134.401 309.127 134.401 310.027C134.401 310.939 134.701 311.695 135.289 312.283C135.877 312.871 136.645 313.171 137.593 313.171C138.757 313.171 139.705 312.643 140.233 311.791L139.537 311.383C139.201 311.995 138.517 312.403 137.605 312.403C136.321 312.403 135.373 311.635 135.217 310.423H140.485C140.497 310.267 140.509 310.135 140.509 310.051C140.509 309.199 140.233 308.455 139.681 307.831C139.141 307.195 138.421 306.883 137.533 306.883ZM137.533 307.651C138.073 307.651 138.553 307.831 138.961 308.179C139.369 308.527 139.609 309.019 139.693 309.655H135.217C135.373 308.467 136.285 307.651 137.533 307.651ZM144.577 306.883C143.677 306.883 143.005 307.243 142.561 307.963V307.027H141.769V313.027H142.561V309.883C142.561 308.359 143.353 307.651 144.505 307.651C145.549 307.651 146.137 308.275 146.137 309.343V313.027H146.929V309.343C146.929 307.843 146.029 306.883 144.577 306.883ZM151.641 307.027H149.913V305.347L149.121 305.587V307.027H147.861V307.795H149.121V311.431C149.121 312.823 149.961 313.279 151.641 313.027V312.331C150.489 312.379 149.913 312.463 149.913 311.431V307.795H151.641V307.027ZM155.369 306.883C154.445 306.883 153.701 307.183 153.113 307.783C152.525 308.383 152.237 309.127 152.237 310.027C152.237 310.939 152.537 311.695 153.125 312.283C153.713 312.871 154.481 313.171 155.429 313.171C156.593 313.171 157.541 312.643 158.069 311.791L157.373 311.383C157.037 311.995 156.353 312.403 155.441 312.403C154.157 312.403 153.209 311.635 153.053 310.423H158.321C158.333 310.267 158.345 310.135 158.345 310.051C158.345 309.199 158.069 308.455 157.517 307.831C156.977 307.195 156.257 306.883 155.369 306.883ZM155.369 307.651C155.909 307.651 156.389 307.831 156.797 308.179C157.205 308.527 157.445 309.019 157.529 309.655H153.053C153.209 308.467 154.121 307.651 155.369 307.651ZM160.397 307.027H159.605V313.027H160.397V309.691C160.397 308.311 161.201 307.699 162.293 307.699V306.931C161.393 306.931 160.769 307.291 160.397 308.023V307.027ZM173.447 311.911C174.287 311.059 174.707 310.039 174.707 308.827C174.707 307.615 174.287 306.595 173.447 305.755C172.607 304.903 171.575 304.483 170.363 304.483C169.151 304.483 168.119 304.903 167.279 305.755C166.439 306.595 166.019 307.615 166.019 308.827C166.019 310.039 166.439 311.059 167.279 311.911C168.119 312.751 169.151 313.171 170.363 313.171C171.575 313.171 172.607 312.751 173.447 311.911ZM167.867 311.335C167.195 310.651 166.859 309.811 166.859 308.827C166.859 307.843 167.195 307.015 167.867 306.331C168.539 305.647 169.367 305.299 170.363 305.299C171.359 305.299 172.187 305.647 172.859 306.331C173.531 307.015 173.867 307.843 173.867 308.827C173.867 309.811 173.531 310.651 172.859 311.335C172.187 312.019 171.359 312.355 170.363 312.355C169.367 312.355 168.539 312.019 167.867 311.335ZM174.943 304.627V305.419H177.523V313.027H178.363V305.419H180.943V304.627H174.943ZM182.143 304.627V313.027H182.983V309.907H185.143C185.899 309.907 186.523 309.655 187.027 309.151C187.531 308.647 187.783 308.023 187.783 307.267C187.783 306.511 187.531 305.887 187.027 305.383C186.523 304.879 185.899 304.627 185.143 304.627H182.143ZM182.983 309.115V305.419H185.143C185.659 305.419 186.091 305.599 186.427 305.947C186.775 306.295 186.943 306.727 186.943 307.267C186.943 307.807 186.775 308.251 186.427 308.599C186.091 308.947 185.659 309.115 185.143 309.115H182.983ZM195.281 307.027H193.553V305.347L192.761 305.587V307.027H191.501V307.795H192.761V311.431C192.761 312.823 193.601 313.279 195.281 313.027V312.331C194.129 312.379 193.553 312.463 193.553 311.431V307.795H195.281V307.027ZM199.409 306.883C198.509 306.883 197.837 307.243 197.393 307.963V304.627H196.601V313.027H197.393V309.883C197.393 308.359 198.185 307.651 199.337 307.651C200.381 307.651 200.969 308.275 200.969 309.343V313.027H201.761V309.343C201.761 307.843 200.861 306.883 199.409 306.883ZM208.453 308.203C207.901 307.327 207.097 306.883 206.029 306.883C205.177 306.883 204.445 307.183 203.833 307.795C203.233 308.407 202.933 309.151 202.933 310.027C202.933 310.903 203.233 311.647 203.833 312.259C204.445 312.871 205.177 313.171 206.029 313.171C207.097 313.171 207.901 312.727 208.453 311.851V313.027H209.245V307.027H208.453V308.203ZM204.409 311.719C203.953 311.251 203.725 310.687 203.725 310.027C203.725 309.367 203.953 308.803 204.409 308.347C204.865 307.879 205.429 307.651 206.089 307.651C206.749 307.651 207.313 307.879 207.769 308.347C208.225 308.803 208.453 309.367 208.453 310.027C208.453 310.687 208.225 311.251 207.769 311.719C207.313 312.175 206.749 312.403 206.089 312.403C205.429 312.403 204.865 312.175 204.409 311.719ZM214.102 307.027H212.374V305.347L211.582 305.587V307.027H210.322V307.795H211.582V311.431C211.582 312.823 212.422 313.279 214.102 313.027V312.331C212.95 312.379 212.374 312.463 212.374 311.431V307.795H214.102V307.027ZM224.17 312.007L222.598 307.027H221.806L220.234 312.007L218.758 307.027H217.942L219.79 313.027H220.654L222.202 308.191L223.75 313.027H224.614L226.462 307.027H225.646L224.17 312.007ZM232.582 308.203C232.03 307.327 231.226 306.883 230.158 306.883C229.306 306.883 228.574 307.183 227.962 307.795C227.362 308.407 227.062 309.151 227.062 310.027C227.062 310.903 227.362 311.647 227.962 312.259C228.574 312.871 229.306 313.171 230.158 313.171C231.226 313.171 232.03 312.727 232.582 311.851V313.027H233.374V307.027H232.582V308.203ZM228.538 311.719C228.082 311.251 227.854 310.687 227.854 310.027C227.854 309.367 228.082 308.803 228.538 308.347C228.994 307.879 229.558 307.651 230.218 307.651C230.878 307.651 231.442 307.879 231.898 308.347C232.354 308.803 232.582 309.367 232.582 310.027C232.582 310.687 232.354 311.251 231.898 311.719C231.442 312.175 230.878 312.403 230.218 312.403C229.558 312.403 228.994 312.175 228.538 311.719ZM235.674 308.599C235.674 307.987 236.25 307.651 236.934 307.651C237.666 307.651 238.146 307.927 238.374 308.491L239.034 308.107C238.686 307.351 237.906 306.883 236.934 306.883C236.346 306.883 235.854 307.051 235.458 307.375C235.074 307.699 234.882 308.107 234.882 308.599C234.882 309.895 236.142 310.171 237.15 310.423C237.834 310.603 238.386 310.903 238.386 311.443C238.386 312.103 237.786 312.403 237.006 312.403C236.202 312.403 235.59 312.019 235.362 311.395L234.69 311.791C235.014 312.607 235.854 313.171 237.006 313.171C237.642 313.171 238.17 313.015 238.566 312.691C238.974 312.367 239.178 311.959 239.178 311.443C239.178 310.147 237.918 309.871 236.91 309.619C236.226 309.439 235.674 309.139 235.674 308.599ZM244.124 308.599C244.124 307.987 244.7 307.651 245.384 307.651C246.116 307.651 246.596 307.927 246.824 308.491L247.484 308.107C247.136 307.351 246.356 306.883 245.384 306.883C244.796 306.883 244.304 307.051 243.908 307.375C243.524 307.699 243.332 308.107 243.332 308.599C243.332 309.895 244.592 310.171 245.6 310.423C246.284 310.603 246.836 310.903 246.836 311.443C246.836 312.103 246.236 312.403 245.456 312.403C244.652 312.403 244.04 312.019 243.812 311.395L243.14 311.791C243.464 312.607 244.304 313.171 245.456 313.171C246.092 313.171 246.62 313.015 247.016 312.691C247.424 312.367 247.628 311.959 247.628 311.443C247.628 310.147 246.368 309.871 245.36 309.619C244.676 309.439 244.124 309.139 244.124 308.599ZM251.545 306.883C250.621 306.883 249.877 307.183 249.289 307.783C248.701 308.383 248.413 309.127 248.413 310.027C248.413 310.939 248.713 311.695 249.301 312.283C249.889 312.871 250.657 313.171 251.605 313.171C252.769 313.171 253.717 312.643 254.245 311.791L253.549 311.383C253.213 311.995 252.529 312.403 251.617 312.403C250.333 312.403 249.385 311.635 249.229 310.423H254.497C254.509 310.267 254.521 310.135 254.521 310.051C254.521 309.199 254.245 308.455 253.693 307.831C253.153 307.195 252.433 306.883 251.545 306.883ZM251.545 307.651C252.085 307.651 252.565 307.831 252.973 308.179C253.381 308.527 253.621 309.019 253.705 309.655H249.229C249.385 308.467 250.297 307.651 251.545 307.651ZM258.589 306.883C257.689 306.883 257.017 307.243 256.573 307.963V307.027H255.781V313.027H256.573V309.883C256.573 308.359 257.365 307.651 258.517 307.651C259.561 307.651 260.149 308.275 260.149 309.343V313.027H260.941V309.343C260.941 307.843 260.041 306.883 258.589 306.883ZM265.652 307.027H263.924V305.347L263.132 305.587V307.027H261.872V307.795H263.132V311.431C263.132 312.823 263.972 313.279 265.652 313.027V312.331C264.5 312.379 263.924 312.463 263.924 311.431V307.795H265.652V307.027ZM273.152 307.027H271.424V305.347L270.632 305.587V307.027H269.372V307.795H270.632V311.431C270.632 312.823 271.472 313.279 273.152 313.027V312.331C272 312.379 271.424 312.463 271.424 311.431V307.795H273.152V307.027ZM279.137 312.271C279.749 311.659 280.061 310.915 280.061 310.027C280.061 309.139 279.749 308.395 279.137 307.795C278.525 307.183 277.781 306.883 276.905 306.883C276.029 306.883 275.273 307.183 274.661 307.795C274.049 308.395 273.749 309.139 273.749 310.027C273.749 310.915 274.049 311.659 274.661 312.271C275.273 312.871 276.029 313.171 276.905 313.171C277.781 313.171 278.525 312.871 279.137 312.271ZM275.225 311.719C274.769 311.251 274.541 310.687 274.541 310.027C274.541 309.367 274.769 308.803 275.225 308.347C275.681 307.879 276.245 307.651 276.905 307.651C277.565 307.651 278.129 307.879 278.585 308.347C279.041 308.803 279.269 309.367 279.269 310.027C279.269 310.687 279.041 311.251 278.585 311.719C278.129 312.175 277.565 312.403 276.905 312.403C276.245 312.403 275.681 312.175 275.225 311.719Z" fill="#666666"/>
<path d="M152.639 328.443V326.307H151.871V328.443H149.735V329.211H151.871V331.347H152.639V329.211H154.775V328.443H152.639ZM161.316 333.027V332.211H157.176L159.576 329.823C160.572 328.827 161.136 327.975 161.136 327.003C161.136 326.223 160.884 325.611 160.368 325.167C159.864 324.711 159.276 324.483 158.604 324.483C157.5 324.483 156.54 325.023 156.012 326.067L156.72 326.487C157.116 325.695 157.74 325.299 158.604 325.299C159.528 325.299 160.296 325.935 160.296 327.003C160.296 327.615 159.864 328.359 159 329.223L155.976 332.271V333.027H161.316ZM167.203 325.419V324.627H162.283V325.419H166.231L164.143 328.275L164.503 328.827H164.731L164.743 328.815V328.827C165.895 328.827 166.723 329.475 166.723 330.591C166.723 331.707 165.895 332.355 164.743 332.355C163.747 332.355 163.015 331.923 162.739 331.095L162.043 331.503C162.439 332.571 163.495 333.171 164.743 333.171C165.523 333.171 166.195 332.943 166.735 332.487C167.287 332.019 167.563 331.395 167.563 330.591C167.563 329.883 167.347 329.319 166.903 328.899C166.471 328.467 165.919 328.203 165.247 328.119L167.203 325.419ZM173.861 330.555V327.987H173.021V330.555H169.505L172.625 324.627H171.701L168.581 330.555V331.347H173.021V333.027H173.861V331.347H174.941V330.555H173.861ZM177.006 328.011L177.186 325.419H180.942V324.627H176.442L176.142 328.827H178.422C179.574 328.827 180.402 329.475 180.402 330.591C180.402 331.707 179.574 332.355 178.422 332.355C177.426 332.355 176.67 331.875 176.43 330.975L175.722 331.383C176.07 332.535 177.162 333.171 178.422 333.171C179.202 333.171 179.874 332.943 180.414 332.487C180.966 332.019 181.242 331.395 181.242 330.591C181.242 329.787 180.966 329.163 180.414 328.707C179.874 328.239 179.202 328.011 178.422 328.011H177.006ZM181.728 325.419H186.012L182.844 333.027H183.72L186.888 325.419V324.627H181.728V325.419ZM191.606 328.695C192.35 328.275 192.722 327.639 192.722 326.811C192.722 326.055 192.47 325.479 191.966 325.083C191.474 324.687 190.874 324.483 190.19 324.483C189.506 324.483 188.906 324.687 188.402 325.083C187.91 325.479 187.658 326.055 187.658 326.811C187.658 327.639 188.03 328.275 188.774 328.695C187.922 329.091 187.382 329.835 187.382 330.747C187.382 331.503 187.646 332.103 188.186 332.535C188.726 332.955 189.386 333.171 190.19 333.171C190.994 333.171 191.654 332.955 192.194 332.535C192.734 332.103 192.998 331.503 192.998 330.747C192.998 329.835 192.458 329.091 191.606 328.695ZM188.498 326.811C188.498 325.791 189.23 325.299 190.19 325.299C191.15 325.299 191.882 325.791 191.882 326.811C191.882 327.771 191.114 328.323 190.19 328.323C189.266 328.323 188.498 327.771 188.498 326.811ZM188.762 331.947C188.402 331.671 188.222 331.263 188.222 330.747C188.222 330.231 188.402 329.835 188.762 329.559C189.122 329.283 189.602 329.139 190.19 329.139C190.778 329.139 191.258 329.283 191.618 329.559C191.978 329.835 192.158 330.231 192.158 330.747C192.158 331.263 191.978 331.671 191.618 331.947C191.258 332.223 190.778 332.355 190.19 332.355C189.602 332.355 189.122 332.223 188.762 331.947ZM199.476 327.255C199.476 326.439 199.212 325.779 198.684 325.263C198.156 324.747 197.484 324.483 196.656 324.483C195.828 324.483 195.156 324.747 194.628 325.263C194.1 325.779 193.836 326.439 193.836 327.255C193.836 328.071 194.1 328.743 194.628 329.259C195.156 329.775 195.828 330.027 196.656 330.027C196.884 330.027 197.112 330.003 197.328 329.955L195.264 333.027H196.212L198.96 328.935C199.308 328.443 199.476 327.891 199.476 327.255ZM195.216 325.839C195.588 325.479 196.068 325.299 196.656 325.299C197.244 325.299 197.724 325.479 198.084 325.839C198.456 326.199 198.636 326.667 198.636 327.255C198.636 327.843 198.456 328.311 198.084 328.671C197.724 329.031 197.244 329.211 196.656 329.211C196.068 329.211 195.588 329.031 195.216 328.671C194.856 328.311 194.676 327.843 194.676 327.255C194.676 326.667 194.856 326.199 195.216 325.839ZM205.959 331.995C206.523 331.203 206.799 330.147 206.799 328.827C206.799 327.507 206.523 326.451 205.959 325.671C205.407 324.879 204.627 324.483 203.619 324.483C202.611 324.483 201.831 324.879 201.267 325.671C200.715 326.451 200.439 327.507 200.439 328.827C200.439 330.147 200.715 331.203 201.267 331.995C201.831 332.775 202.611 333.171 203.619 333.171C204.627 333.171 205.407 332.775 205.959 331.995ZM201.891 331.431C201.483 330.819 201.279 329.943 201.279 328.827C201.279 327.711 201.483 326.835 201.891 326.223C202.311 325.611 202.887 325.299 203.619 325.299C204.351 325.299 204.927 325.611 205.335 326.223C205.755 326.835 205.959 327.711 205.959 328.827C205.959 329.943 205.755 330.819 205.335 331.431C204.927 332.043 204.351 332.355 203.619 332.355C202.887 332.355 202.311 332.043 201.891 331.431ZM213.398 327.255C213.398 326.439 213.134 325.779 212.606 325.263C212.078 324.747 211.406 324.483 210.578 324.483C209.75 324.483 209.078 324.747 208.55 325.263C208.022 325.779 207.758 326.439 207.758 327.255C207.758 328.071 208.022 328.743 208.55 329.259C209.078 329.775 209.75 330.027 210.578 330.027C210.806 330.027 211.034 330.003 211.25 329.955L209.186 333.027H210.134L212.882 328.935C213.23 328.443 213.398 327.891 213.398 327.255ZM209.138 325.839C209.51 325.479 209.99 325.299 210.578 325.299C211.166 325.299 211.646 325.479 212.006 325.839C212.378 326.199 212.558 326.667 212.558 327.255C212.558 327.843 212.378 328.311 212.006 328.671C211.646 329.031 211.166 329.211 210.578 329.211C209.99 329.211 209.51 329.031 209.138 328.671C208.778 328.311 208.598 327.843 208.598 327.255C208.598 326.667 208.778 326.199 209.138 325.839ZM218.465 328.695C219.209 328.275 219.581 327.639 219.581 326.811C219.581 326.055 219.329 325.479 218.825 325.083C218.333 324.687 217.733 324.483 217.049 324.483C216.365 324.483 215.765 324.687 215.261 325.083C214.769 325.479 214.517 326.055 214.517 326.811C214.517 327.639 214.889 328.275 215.633 328.695C214.781 329.091 214.241 329.835 214.241 330.747C214.241 331.503 214.505 332.103 215.045 332.535C215.585 332.955 216.245 333.171 217.049 333.171C217.853 333.171 218.513 332.955 219.053 332.535C219.593 332.103 219.857 331.503 219.857 330.747C219.857 329.835 219.317 329.091 218.465 328.695ZM215.357 326.811C215.357 325.791 216.089 325.299 217.049 325.299C218.009 325.299 218.741 325.791 218.741 326.811C218.741 327.771 217.973 328.323 217.049 328.323C216.125 328.323 215.357 327.771 215.357 326.811ZM215.621 331.947C215.261 331.671 215.081 331.263 215.081 330.747C215.081 330.231 215.261 329.835 215.621 329.559C215.981 329.283 216.461 329.139 217.049 329.139C217.637 329.139 218.117 329.283 218.477 329.559C218.837 329.835 219.017 330.231 219.017 330.747C219.017 331.263 218.837 331.671 218.477 331.947C218.117 332.223 217.637 332.355 217.049 332.355C216.461 332.355 215.981 332.223 215.621 331.947ZM220.341 325.419H224.625L221.457 333.027H222.333L225.501 325.419V324.627H220.341V325.419Z" fill="#101010"/>
<path d="M158.142 363.638V372.038H159.258V369.038H161.19C161.97 369.038 162.606 368.774 163.122 368.258C163.638 367.742 163.902 367.094 163.902 366.338C163.902 365.57 163.638 364.934 163.122 364.418C162.606 363.902 161.97 363.638 161.19 363.638H158.142ZM159.258 367.994V364.682H161.19C162.114 364.682 162.798 365.378 162.798 366.338C162.798 366.806 162.642 367.202 162.342 367.526C162.042 367.838 161.658 367.994 161.19 367.994H159.258ZM168.1 365.882C167.224 365.882 166.576 366.218 166.156 366.902V363.638H165.112V372.038H166.156V368.858C166.156 367.514 166.852 366.878 167.896 366.878C168.82 366.878 169.384 367.442 169.384 368.414V372.038H170.428V368.354C170.428 366.83 169.504 365.882 168.1 365.882ZM176.949 371.282C177.561 370.67 177.873 369.926 177.873 369.038C177.873 368.15 177.561 367.406 176.949 366.794C176.337 366.182 175.581 365.882 174.705 365.882C173.829 365.882 173.073 366.182 172.461 366.794C171.849 367.406 171.549 368.15 171.549 369.038C171.549 369.926 171.849 370.67 172.461 371.282C173.073 371.894 173.829 372.194 174.705 372.194C175.581 372.194 176.337 371.894 176.949 371.282ZM174.705 371.174C174.117 371.174 173.613 370.97 173.205 370.562C172.797 370.154 172.593 369.65 172.593 369.038C172.593 368.426 172.797 367.922 173.205 367.514C173.613 367.106 174.117 366.902 174.705 366.902C175.305 366.902 175.809 367.106 176.217 367.514C176.625 367.922 176.829 368.426 176.829 369.038C176.829 369.65 176.625 370.154 176.217 370.562C175.809 370.97 175.305 371.174 174.705 371.174ZM182.092 365.882C181.216 365.882 180.568 366.218 180.148 366.902V366.038H179.104V372.038H180.148V368.858C180.148 367.514 180.844 366.878 181.888 366.878C182.812 366.878 183.376 367.442 183.376 368.414V372.038H184.42V368.354C184.42 366.83 183.496 365.882 182.092 365.882ZM191.638 369.518C191.662 369.362 191.674 369.206 191.674 369.05C191.674 368.174 191.398 367.43 190.834 366.818C190.282 366.194 189.562 365.882 188.686 365.882C187.762 365.882 187.006 366.182 186.418 366.782C185.83 367.382 185.542 368.138 185.542 369.038C185.542 369.95 185.842 370.706 186.43 371.306C187.03 371.894 187.81 372.194 188.758 372.194C189.934 372.194 190.81 371.738 191.398 370.838L190.51 370.334C190.15 370.922 189.574 371.21 188.782 371.21C187.642 371.21 186.814 370.586 186.61 369.518H191.638ZM188.686 366.866C189.646 366.866 190.438 367.466 190.618 368.606H186.61C186.79 367.55 187.57 366.866 188.686 366.866ZM195.538 367.838C195.538 369.05 195.958 370.07 196.798 370.922C197.638 371.774 198.67 372.194 199.882 372.194C201.094 372.194 202.126 371.774 202.966 370.922C203.818 370.07 204.238 369.05 204.238 367.838C204.238 366.626 203.818 365.594 202.966 364.754C202.126 363.902 201.094 363.482 199.882 363.482C198.67 363.482 197.638 363.902 196.798 364.754C195.958 365.594 195.538 366.626 195.538 367.838ZM203.122 367.838C203.122 368.762 202.81 369.53 202.186 370.166C201.574 370.79 200.806 371.102 199.882 371.102C198.958 371.102 198.19 370.79 197.566 370.166C196.954 369.53 196.642 368.762 196.642 367.838C196.642 366.914 196.954 366.134 197.566 365.51C198.19 364.874 198.958 364.562 199.882 364.562C200.806 364.562 201.574 364.874 202.186 365.51C202.81 366.134 203.122 366.914 203.122 367.838ZM204.415 363.638V364.694H206.887V372.038H207.991V364.694H210.475V363.638H204.415ZM211.579 363.638V372.038H212.695V369.038H214.627C215.407 369.038 216.043 368.774 216.559 368.258C217.075 367.742 217.339 367.094 217.339 366.338C217.339 365.57 217.075 364.934 216.559 364.418C216.043 363.902 215.407 363.638 214.627 363.638H211.579ZM212.695 367.994V364.682H214.627C215.551 364.682 216.235 365.378 216.235 366.338C216.235 366.806 216.079 367.202 215.779 367.526C215.479 367.838 215.095 367.994 214.627 367.994H212.695Z" fill="#222222"/>
<rect x="87.6722" y="387.167" width="32.2971" height="32.2971" rx="3.30312" fill="white" stroke="#C6C6C6" stroke-width="0.734026"/>
<rect x="129.512" y="387.167" width="32.2971" height="32.2971" rx="3.30312" fill="white" stroke="#C6C6C6" stroke-width="0.734026"/>
<rect x="171.351" y="387.167" width="32.2971" height="32.2971" rx="3.30312" fill="white" stroke="#C6C6C6" stroke-width="0.734026"/>
<rect x="213.19" y="387.167" width="32.2971" height="32.2971" rx="3.30312" fill="white" stroke="#C6C6C6" stroke-width="0.734026"/>
<rect x="255.03" y="387.167" width="32.2971" height="32.2971" rx="3.30312" fill="white" stroke="#C6C6C6" stroke-width="0.734026"/>
<rect x="38.0093" y="471.549" width="83" height="30" rx="8" fill="#E8F8F3"/>
<path d="M53.1253 489.549L51.1453 486.189C51.6613 486.009 52.0693 485.685 52.3933 485.241C52.7173 484.797 52.8853 484.293 52.8853 483.753C52.8853 483.033 52.6333 482.421 52.1173 481.917C51.6013 481.401 50.9893 481.149 50.2693 481.149H46.9093V489.549H48.0253V486.333H50.0053L51.8893 489.549H53.1253ZM50.2693 482.193C50.6893 482.193 51.0373 482.349 51.3253 482.649C51.6253 482.949 51.7693 483.321 51.7693 483.753C51.7693 484.185 51.6253 484.557 51.3253 484.869C51.0373 485.169 50.6893 485.325 50.2693 485.325H48.0253V482.193H50.2693ZM59.5925 487.029C59.6165 486.873 59.6285 486.717 59.6285 486.561C59.6285 485.685 59.3525 484.941 58.7885 484.329C58.2365 483.705 57.5165 483.393 56.6405 483.393C55.7165 483.393 54.9605 483.693 54.3725 484.293C53.7845 484.893 53.4965 485.649 53.4965 486.549C53.4965 487.461 53.7965 488.217 54.3845 488.817C54.9845 489.405 55.7645 489.705 56.7125 489.705C57.8885 489.705 58.7645 489.249 59.3525 488.349L58.4645 487.845C58.1045 488.433 57.5285 488.721 56.7365 488.721C55.5965 488.721 54.7685 488.097 54.5645 487.029H59.5925ZM56.6405 484.377C57.6005 484.377 58.3925 484.977 58.5725 486.117H54.5645C54.7445 485.061 55.5245 484.377 56.6405 484.377ZM61.4942 485.169C61.4942 484.653 61.9742 484.365 62.5622 484.365C63.1982 484.365 63.6302 484.617 63.8462 485.133L64.7222 484.641C64.3382 483.861 63.5342 483.393 62.5622 483.393C61.9502 483.393 61.4462 483.561 61.0382 483.897C60.6422 484.233 60.4382 484.665 60.4382 485.181C60.4382 486.453 61.6622 486.765 62.6102 487.017C63.2702 487.173 63.7982 487.437 63.7982 487.905C63.7982 488.469 63.2942 488.721 62.6102 488.721C61.8782 488.721 61.3142 488.361 61.1222 487.785L60.2222 488.301C60.5702 489.153 61.4462 489.705 62.6102 489.705C63.2702 489.705 63.7982 489.537 64.2182 489.213C64.6382 488.889 64.8542 488.445 64.8542 487.905C64.8662 486.621 63.6182 486.273 62.6822 486.069C62.0222 485.889 61.4942 485.637 61.4942 485.169ZM71.6863 487.029C71.7103 486.873 71.7223 486.717 71.7223 486.561C71.7223 485.685 71.4463 484.941 70.8823 484.329C70.3303 483.705 69.6103 483.393 68.7343 483.393C67.8103 483.393 67.0543 483.693 66.4663 484.293C65.8783 484.893 65.5903 485.649 65.5903 486.549C65.5903 487.461 65.8903 488.217 66.4783 488.817C67.0783 489.405 67.8583 489.705 68.8063 489.705C69.9823 489.705 70.8583 489.249 71.4463 488.349L70.5583 487.845C70.1983 488.433 69.6223 488.721 68.8303 488.721C67.6903 488.721 66.8623 488.097 66.6583 487.029H71.6863ZM68.7343 484.377C69.6943 484.377 70.4863 484.977 70.6663 486.117H66.6583C66.8383 485.061 67.6183 484.377 68.7343 484.377ZM75.9104 483.393C75.0344 483.393 74.3864 483.729 73.9664 484.413V483.549H72.9224V489.549H73.9664V486.369C73.9664 485.025 74.6624 484.389 75.7064 484.389C76.6304 484.389 77.1944 484.953 77.1944 485.925V489.549H78.2384V485.865C78.2384 484.341 77.3144 483.393 75.9104 483.393ZM84.6638 484.581C84.1478 483.789 83.3918 483.393 82.3958 483.393C81.5558 483.393 80.8358 483.705 80.2478 484.317C79.6598 484.929 79.3598 485.673 79.3598 486.549C79.3598 487.425 79.6598 488.181 80.2478 488.793C80.8358 489.405 81.5558 489.705 82.3958 489.705C83.3918 489.705 84.1478 489.309 84.6638 488.517V489.549H85.7078V481.149H84.6638V484.581ZM82.5278 488.697C81.9278 488.697 81.4238 488.493 81.0158 488.085C80.6078 487.665 80.4038 487.161 80.4038 486.549C80.4038 485.937 80.6078 485.433 81.0158 485.025C81.4238 484.605 81.9278 484.401 82.5278 484.401C83.1398 484.401 83.6438 484.605 84.0518 485.025C84.4598 485.433 84.6638 485.937 84.6638 486.549C84.6638 487.161 84.4598 487.665 84.0518 488.085C83.6438 488.493 83.1398 488.697 82.5278 488.697ZM89.9536 485.349C89.9536 486.561 90.3736 487.581 91.2136 488.433C92.0536 489.285 93.0856 489.705 94.2976 489.705C95.5096 489.705 96.5416 489.285 97.3816 488.433C98.2336 487.581 98.6536 486.561 98.6536 485.349C98.6536 484.137 98.2336 483.105 97.3816 482.265C96.5416 481.413 95.5096 480.993 94.2976 480.993C93.0856 480.993 92.0536 481.413 91.2136 482.265C90.3736 483.105 89.9536 484.137 89.9536 485.349ZM97.5376 485.349C97.5376 486.273 97.2256 487.041 96.6016 487.677C95.9896 488.301 95.2216 488.613 94.2976 488.613C93.3736 488.613 92.6056 488.301 91.9816 487.677C91.3696 487.041 91.0576 486.273 91.0576 485.349C91.0576 484.425 91.3696 483.645 91.9816 483.021C92.6056 482.385 93.3736 482.073 94.2976 482.073C95.2216 482.073 95.9896 482.385 96.6016 483.021C97.2256 483.645 97.5376 484.425 97.5376 485.349ZM98.8307 481.149V482.205H101.303V489.549H102.407V482.205H104.891V481.149H98.8307ZM105.995 481.149V489.549H107.111V486.549H109.043C109.823 486.549 110.459 486.285 110.975 485.769C111.491 485.253 111.755 484.605 111.755 483.849C111.755 483.081 111.491 482.445 110.975 481.929C110.459 481.413 109.823 481.149 109.043 481.149H105.995ZM107.111 485.505V482.193H109.043C109.967 482.193 110.651 482.889 110.651 483.849C110.651 484.317 110.495 484.713 110.195 485.037C109.895 485.349 109.511 485.505 109.043 485.505H107.111Z" fill="#1DBC86"/>
<path d="M222.896 488.433C223.736 487.581 224.156 486.561 224.156 485.349C224.156 484.137 223.736 483.117 222.896 482.277C222.056 481.425 221.024 481.005 219.812 481.005C218.6 481.005 217.568 481.425 216.728 482.277C215.888 483.117 215.468 484.137 215.468 485.349C215.468 486.561 215.888 487.581 216.728 488.433C217.568 489.273 218.6 489.693 219.812 489.693C221.024 489.693 222.056 489.273 222.896 488.433ZM217.316 487.857C216.644 487.173 216.308 486.333 216.308 485.349C216.308 484.365 216.644 483.537 217.316 482.853C217.988 482.169 218.816 481.821 219.812 481.821C220.808 481.821 221.636 482.169 222.308 482.853C222.98 483.537 223.316 484.365 223.316 485.349C223.316 486.333 222.98 487.173 222.308 487.857C221.636 488.541 220.808 488.877 219.812 488.877C218.816 488.877 217.988 488.541 217.316 487.857ZM224.392 481.149V481.941H226.972V489.549H227.812V481.941H230.392V481.149H224.392ZM231.592 481.149V489.549H232.432V486.429H234.592C235.348 486.429 235.972 486.177 236.476 485.673C236.98 485.169 237.232 484.545 237.232 483.789C237.232 483.033 236.98 482.409 236.476 481.905C235.972 481.401 235.348 481.149 234.592 481.149H231.592ZM232.432 485.637V481.941H234.592C235.108 481.941 235.54 482.121 235.876 482.469C236.224 482.817 236.392 483.249 236.392 483.789C236.392 484.329 236.224 484.773 235.876 485.121C235.54 485.469 235.108 485.637 234.592 485.637H232.432ZM244.322 483.405C243.398 483.405 242.654 483.705 242.066 484.305C241.478 484.905 241.19 485.649 241.19 486.549C241.19 487.461 241.49 488.217 242.078 488.805C242.666 489.393 243.434 489.693 244.382 489.693C245.546 489.693 246.494 489.165 247.022 488.313L246.326 487.905C245.99 488.517 245.306 488.925 244.394 488.925C243.11 488.925 242.162 488.157 242.006 486.945H247.274C247.286 486.789 247.298 486.657 247.298 486.573C247.298 485.721 247.022 484.977 246.47 484.353C245.93 483.717 245.21 483.405 244.322 483.405ZM244.322 484.173C244.862 484.173 245.342 484.353 245.75 484.701C246.158 485.049 246.398 485.541 246.482 486.177H242.006C242.162 484.989 243.074 484.173 244.322 484.173ZM251.024 486.441L253.208 483.549H252.26L250.544 485.817L248.828 483.549H247.88L250.076 486.441L247.724 489.549H248.672L250.544 487.077L252.416 489.549H253.364L251.024 486.441ZM257.657 483.405C256.589 483.405 255.785 483.849 255.233 484.725V483.549H254.441V491.949H255.233V488.373C255.785 489.249 256.589 489.693 257.657 489.693C258.509 489.693 259.241 489.393 259.841 488.781C260.453 488.169 260.753 487.425 260.753 486.549C260.753 485.673 260.453 484.929 259.841 484.317C259.241 483.705 258.509 483.405 257.657 483.405ZM255.917 488.241C255.461 487.773 255.233 487.209 255.233 486.549C255.233 485.889 255.461 485.325 255.917 484.869C256.373 484.401 256.937 484.173 257.597 484.173C258.257 484.173 258.821 484.401 259.277 484.869C259.733 485.325 259.961 485.889 259.961 486.549C259.961 487.209 259.733 487.773 259.277 488.241C258.821 488.697 258.257 488.925 257.597 488.925C256.937 488.925 256.373 488.697 255.917 488.241ZM262.874 482.109C263.102 481.881 263.102 481.521 262.874 481.293C262.646 481.065 262.286 481.065 262.058 481.293C261.83 481.521 261.83 481.881 262.058 482.109C262.286 482.337 262.646 482.337 262.874 482.109ZM262.862 489.549V483.549H262.07V489.549H262.862ZM265.335 483.549H264.543V489.549H265.335V486.213C265.335 484.833 266.139 484.221 267.231 484.221V483.453C266.331 483.453 265.707 483.813 265.335 484.545V483.549ZM270.725 483.405C269.801 483.405 269.057 483.705 268.469 484.305C267.881 484.905 267.593 485.649 267.593 486.549C267.593 487.461 267.893 488.217 268.481 488.805C269.069 489.393 269.837 489.693 270.785 489.693C271.949 489.693 272.897 489.165 273.425 488.313L272.729 487.905C272.393 488.517 271.709 488.925 270.797 488.925C269.513 488.925 268.565 488.157 268.409 486.945H273.677C273.689 486.789 273.701 486.657 273.701 486.573C273.701 485.721 273.425 484.977 272.873 484.353C272.333 483.717 271.613 483.405 270.725 483.405ZM270.725 484.173C271.265 484.173 271.745 484.353 272.153 484.701C272.561 485.049 272.801 485.541 272.885 486.177H268.409C268.565 484.989 269.477 484.173 270.725 484.173ZM275.35 485.121C275.35 484.509 275.926 484.173 276.61 484.173C277.342 484.173 277.822 484.449 278.05 485.013L278.71 484.629C278.362 483.873 277.582 483.405 276.61 483.405C276.022 483.405 275.53 483.573 275.134 483.897C274.75 484.221 274.558 484.629 274.558 485.121C274.558 486.417 275.818 486.693 276.826 486.945C277.51 487.125 278.062 487.425 278.062 487.965C278.062 488.625 277.462 488.925 276.682 488.925C275.878 488.925 275.266 488.541 275.038 487.917L274.366 488.313C274.69 489.129 275.53 489.693 276.682 489.693C277.318 489.693 277.846 489.537 278.242 489.213C278.65 488.889 278.854 488.481 278.854 487.965C278.854 486.669 277.594 486.393 276.586 486.141C275.902 485.961 275.35 485.661 275.35 485.121ZM283.979 482.109C284.207 481.881 284.207 481.521 283.979 481.293C283.751 481.065 283.391 481.065 283.163 481.293C282.935 481.521 282.935 481.881 283.163 482.109C283.391 482.337 283.751 482.337 283.979 482.109ZM283.967 489.549V483.549H283.175V489.549H283.967ZM288.456 483.405C287.556 483.405 286.884 483.765 286.44 484.485V483.549H285.648V489.549H286.44V486.405C286.44 484.881 287.232 484.173 288.384 484.173C289.428 484.173 290.016 484.797 290.016 485.865V489.549H290.808V485.865C290.808 484.365 289.908 483.405 288.456 483.405ZM294.68 481.917L294.896 482.637L296.78 482.073V489.549H297.62V481.149H296.9L294.68 481.917ZM304.698 488.517C305.262 487.725 305.538 486.669 305.538 485.349C305.538 484.029 305.262 482.973 304.698 482.193C304.146 481.401 303.366 481.005 302.358 481.005C301.35 481.005 300.57 481.401 300.006 482.193C299.454 482.973 299.178 484.029 299.178 485.349C299.178 486.669 299.454 487.725 300.006 488.517C300.57 489.297 301.35 489.693 302.358 489.693C303.366 489.693 304.146 489.297 304.698 488.517ZM300.63 487.953C300.222 487.341 300.018 486.465 300.018 485.349C300.018 484.233 300.222 483.357 300.63 482.745C301.05 482.133 301.626 481.821 302.358 481.821C303.09 481.821 303.666 482.133 304.074 482.745C304.494 483.357 304.698 484.233 304.698 485.349C304.698 486.465 304.494 487.341 304.074 487.953C303.666 488.565 303.09 488.877 302.358 488.877C301.626 488.877 301.05 488.565 300.63 487.953ZM316.372 483.405C315.508 483.405 314.86 483.765 314.428 484.497C314.08 483.765 313.468 483.405 312.604 483.405C311.812 483.405 311.2 483.741 310.768 484.425V483.549H309.976V489.549H310.768V486.225C310.768 484.833 311.536 484.173 312.496 484.173C313.36 484.173 313.9 484.749 313.9 485.805V489.549H314.692V486.225C314.692 484.821 315.364 484.173 316.36 484.173C317.236 484.173 317.824 484.761 317.824 485.805V489.549H318.616V485.805C318.616 484.329 317.716 483.405 316.372 483.405ZM320.952 482.109C321.18 481.881 321.18 481.521 320.952 481.293C320.724 481.065 320.364 481.065 320.136 481.293C319.908 481.521 319.908 481.881 320.136 482.109C320.364 482.337 320.724 482.337 320.952 482.109ZM320.94 489.549V483.549H320.148V489.549H320.94ZM325.429 483.405C324.529 483.405 323.857 483.765 323.413 484.485V483.549H322.621V489.549H323.413V486.405C323.413 484.881 324.205 484.173 325.357 484.173C326.401 484.173 326.989 484.797 326.989 485.865V489.549H327.781V485.865C327.781 484.365 326.881 483.405 325.429 483.405ZM329.936 485.121C329.936 484.509 330.512 484.173 331.196 484.173C331.928 484.173 332.408 484.449 332.636 485.013L333.296 484.629C332.948 483.873 332.168 483.405 331.196 483.405C330.608 483.405 330.116 483.573 329.72 483.897C329.336 484.221 329.144 484.629 329.144 485.121C329.144 486.417 330.404 486.693 331.412 486.945C332.096 487.125 332.648 487.425 332.648 487.965C332.648 488.625 332.048 488.925 331.268 488.925C330.464 488.925 329.852 488.541 329.624 487.917L328.952 488.313C329.276 489.129 330.116 489.693 331.268 489.693C331.904 489.693 332.432 489.537 332.828 489.213C333.236 488.889 333.44 488.481 333.44 487.965C333.44 486.669 332.18 486.393 331.172 486.141C330.488 485.961 329.936 485.661 329.936 485.121Z" fill="#6D6E71"/>
<path d="M31.9995 539.06C31.9995 534.641 35.5812 531.06 39.9995 531.06H335C339.418 531.06 343 534.641 343 539.06V573.06C343 577.478 339.418 581.06 335 581.06H39.9995C35.5812 581.06 31.9995 577.478 31.9995 573.06V539.06Z" fill="#1DBC86"/>
<path d="M167.404 559.242C168.3 559.242 169.126 559.032 169.882 558.598C170.638 558.164 171.226 557.576 171.632 556.848L170.498 556.204C169.938 557.268 168.748 557.968 167.404 557.968C166.27 557.968 165.346 557.604 164.632 556.876C163.918 556.148 163.568 555.238 163.568 554.16C163.568 553.068 163.918 552.158 164.632 551.43C165.346 550.702 166.27 550.338 167.404 550.338C168.748 550.338 169.938 551.038 170.498 552.116L171.632 551.458C170.792 550.002 169.196 549.078 167.404 549.078C165.92 549.078 164.688 549.568 163.722 550.548C162.756 551.528 162.28 552.732 162.28 554.16C162.28 555.588 162.756 556.792 163.722 557.772C164.688 558.752 165.92 559.242 167.404 559.242ZM178.861 558.178C179.575 557.464 179.939 556.596 179.939 555.56C179.939 554.524 179.575 553.656 178.861 552.942C178.147 552.228 177.265 551.878 176.243 551.878C175.221 551.878 174.339 552.228 173.625 552.942C172.911 553.656 172.561 554.524 172.561 555.56C172.561 556.596 172.911 557.464 173.625 558.178C174.339 558.892 175.221 559.242 176.243 559.242C177.265 559.242 178.147 558.892 178.861 558.178ZM176.243 558.052C175.557 558.052 174.969 557.814 174.493 557.338C174.017 556.862 173.779 556.274 173.779 555.56C173.779 554.846 174.017 554.258 174.493 553.782C174.969 553.306 175.557 553.068 176.243 553.068C176.943 553.068 177.531 553.306 178.007 553.782C178.483 554.258 178.721 554.846 178.721 555.56C178.721 556.274 178.483 556.862 178.007 557.338C177.531 557.814 176.943 558.052 176.243 558.052ZM184.861 551.878C183.839 551.878 183.083 552.27 182.593 553.068V552.06H181.375V559.06H182.593V555.35C182.593 553.782 183.405 553.04 184.623 553.04C185.701 553.04 186.359 553.698 186.359 554.832V559.06H187.577V554.762C187.577 552.984 186.499 551.878 184.861 551.878ZM191.027 552.06V551.85C191.027 550.674 191.601 550.254 192.875 550.254C193.267 550.254 193.743 550.296 194.317 550.366V549.26C193.743 549.134 193.253 549.078 192.875 549.078C190.831 549.078 189.809 550.002 189.809 551.85V552.06H188.689V553.236H189.809V559.06H191.027V553.236H193.617V559.06H194.835V552.06H191.027ZM197.919 552.06H196.701V559.06H197.919V555.35C197.919 554.58 198.129 554.034 198.563 553.684C198.997 553.334 199.501 553.18 200.103 553.208V551.934C199.053 551.934 198.325 552.368 197.919 553.236V552.06ZM208.855 551.878C207.875 551.878 207.147 552.27 206.657 553.068C206.223 552.27 205.537 551.878 204.599 551.878C203.689 551.878 202.989 552.256 202.513 552.998V552.06H201.295V559.06H202.513V555.168C202.513 553.754 203.283 553.04 204.305 553.04C205.215 553.04 205.789 553.67 205.789 554.748V559.06H207.007V555.168C207.007 553.726 207.679 553.04 208.729 553.04C209.667 553.04 210.269 553.67 210.269 554.748V559.06H211.487V554.706C211.487 552.97 210.423 551.878 208.855 551.878Z" fill="white"/>
<path d="M102.804 769.989L105 762.693L107.196 769.989H108.204L110.64 761.589H109.752L107.676 768.849L105.492 761.589H104.508L102.324 768.849L100.248 761.589H99.36L101.796 769.989H102.804ZM114.414 763.845C113.514 763.845 112.842 764.205 112.398 764.925V761.589H111.606V769.989H112.398V766.845C112.398 765.321 113.19 764.613 114.342 764.613C115.386 764.613 115.974 765.237 115.974 766.305V769.989H116.766V766.305C116.766 764.805 115.866 763.845 114.414 763.845ZM120.556 769.017L118.3 763.989H117.46L120.148 770.025L119.992 770.397C119.62 771.309 119.068 771.729 118.348 771.645V772.389C119.404 772.473 120.304 771.729 120.772 770.541L123.34 763.989H122.5L120.556 769.017ZM132.457 765.165C131.905 764.289 131.101 763.845 130.033 763.845C129.181 763.845 128.449 764.145 127.837 764.757C127.237 765.369 126.937 766.113 126.937 766.989C126.937 767.865 127.237 768.609 127.837 769.221C128.449 769.833 129.181 770.133 130.033 770.133C131.101 770.133 131.905 769.689 132.457 768.813V769.989H133.249V761.589H132.457V765.165ZM128.413 768.681C127.957 768.213 127.729 767.649 127.729 766.989C127.729 766.329 127.957 765.765 128.413 765.309C128.869 764.841 129.433 764.613 130.093 764.613C130.753 764.613 131.317 764.841 131.773 765.309C132.229 765.765 132.457 766.329 132.457 766.989C132.457 767.649 132.229 768.213 131.773 768.681C131.317 769.137 130.753 769.365 130.093 769.365C129.433 769.365 128.869 769.137 128.413 768.681ZM135.73 762.549C135.958 762.321 135.958 761.961 135.73 761.733C135.502 761.505 135.142 761.505 134.914 761.733C134.686 761.961 134.686 762.321 134.914 762.549C135.142 762.777 135.502 762.777 135.73 762.549ZM135.718 769.989V763.989H134.926V769.989H135.718ZM142.559 765.165C142.007 764.289 141.203 763.845 140.135 763.845C139.283 763.845 138.551 764.145 137.939 764.757C137.339 765.369 137.039 766.113 137.039 766.989C137.039 767.865 137.339 768.609 137.939 769.221C138.551 769.833 139.283 770.133 140.135 770.133C141.203 770.133 142.007 769.689 142.559 768.813V769.989H143.351V761.589H142.559V765.165ZM138.515 768.681C138.059 768.213 137.831 767.649 137.831 766.989C137.831 766.329 138.059 765.765 138.515 765.309C138.971 764.841 139.535 764.613 140.195 764.613C140.855 764.613 141.419 764.841 141.875 765.309C142.331 765.765 142.559 766.329 142.559 766.989C142.559 767.649 142.331 768.213 141.875 768.681C141.419 769.137 140.855 769.365 140.195 769.365C139.535 769.365 138.971 769.137 138.515 768.681ZM148.148 769.989H148.988V761.589H148.148V769.989ZM156.601 763.845C155.701 763.845 155.029 764.205 154.585 764.925V763.989H153.793V769.989H154.585V766.845C154.585 765.321 155.377 764.613 156.529 764.613C157.573 764.613 158.161 765.237 158.161 766.305V769.989H158.953V766.305C158.953 764.805 158.053 763.845 156.601 763.845ZM165.513 769.233C166.125 768.621 166.437 767.877 166.437 766.989C166.437 766.101 166.125 765.357 165.513 764.757C164.901 764.145 164.157 763.845 163.281 763.845C162.405 763.845 161.649 764.145 161.037 764.757C160.425 765.357 160.125 766.101 160.125 766.989C160.125 767.877 160.425 768.621 161.037 769.233C161.649 769.833 162.405 770.133 163.281 770.133C164.157 770.133 164.901 769.833 165.513 769.233ZM161.601 768.681C161.145 768.213 160.917 767.649 160.917 766.989C160.917 766.329 161.145 765.765 161.601 765.309C162.057 764.841 162.621 764.613 163.281 764.613C163.941 764.613 164.505 764.841 164.961 765.309C165.417 765.765 165.645 766.329 165.645 766.989C165.645 767.649 165.417 768.213 164.961 768.681C164.505 769.137 163.941 769.365 163.281 769.365C162.621 769.365 162.057 769.137 161.601 768.681ZM170.825 763.989H169.097V762.309L168.305 762.549V763.989H167.045V764.757H168.305V768.393C168.305 769.785 169.145 770.241 170.825 769.989V769.293C169.673 769.341 169.097 769.425 169.097 768.393V764.757H170.825V763.989ZM175.937 763.989H175.145V769.989H175.937V766.653C175.937 765.273 176.741 764.661 177.833 764.661V763.893C176.933 763.893 176.309 764.253 175.937 764.985V763.989ZM181.327 763.845C180.403 763.845 179.659 764.145 179.071 764.745C178.483 765.345 178.195 766.089 178.195 766.989C178.195 767.901 178.495 768.657 179.083 769.245C179.671 769.833 180.439 770.133 181.387 770.133C182.551 770.133 183.499 769.605 184.027 768.753L183.331 768.345C182.995 768.957 182.311 769.365 181.399 769.365C180.115 769.365 179.167 768.597 179.011 767.385H184.279C184.291 767.229 184.303 767.097 184.303 767.013C184.303 766.161 184.027 765.417 183.475 764.793C182.935 764.157 182.215 763.845 181.327 763.845ZM181.327 764.613C181.867 764.613 182.347 764.793 182.755 765.141C183.163 765.489 183.403 765.981 183.487 766.617H179.011C179.167 765.429 180.079 764.613 181.327 764.613ZM188.359 770.133C189.523 770.133 190.555 769.533 191.047 768.573L190.387 768.189C189.991 768.909 189.259 769.365 188.359 769.365C187.699 769.365 187.135 769.137 186.679 768.681C186.223 768.213 185.995 767.649 185.995 766.989C185.995 766.329 186.223 765.765 186.679 765.309C187.135 764.841 187.699 764.613 188.359 764.613C189.259 764.613 190.015 765.069 190.339 765.789L190.987 765.417C190.555 764.457 189.547 763.845 188.359 763.845C187.459 763.845 186.703 764.145 186.103 764.757C185.503 765.357 185.203 766.101 185.203 766.989C185.203 767.877 185.503 768.621 186.103 769.233C186.703 769.833 187.459 770.133 188.359 770.133ZM192.988 762.549C193.216 762.321 193.216 761.961 192.988 761.733C192.76 761.505 192.4 761.505 192.172 761.733C191.944 761.961 191.944 762.321 192.172 762.549C192.4 762.777 192.76 762.777 192.988 762.549ZM192.976 769.989V763.989H192.184V769.989H192.976ZM197.428 763.845C196.504 763.845 195.76 764.145 195.172 764.745C194.584 765.345 194.296 766.089 194.296 766.989C194.296 767.901 194.596 768.657 195.184 769.245C195.772 769.833 196.54 770.133 197.488 770.133C198.652 770.133 199.6 769.605 200.128 768.753L199.432 768.345C199.096 768.957 198.412 769.365 197.5 769.365C196.216 769.365 195.268 768.597 195.112 767.385H200.38C200.392 767.229 200.404 767.097 200.404 767.013C200.404 766.161 200.128 765.417 199.576 764.793C199.036 764.157 198.316 763.845 197.428 763.845ZM197.428 764.613C197.968 764.613 198.448 764.793 198.856 765.141C199.264 765.489 199.504 765.981 199.588 766.617H195.112C195.268 765.429 196.18 764.613 197.428 764.613ZM203.65 769.161L201.55 763.989H200.71L203.17 769.989H204.13L206.59 763.989H205.75L203.65 769.161ZM210.085 763.845C209.161 763.845 208.417 764.145 207.829 764.745C207.241 765.345 206.953 766.089 206.953 766.989C206.953 767.901 207.253 768.657 207.841 769.245C208.429 769.833 209.197 770.133 210.145 770.133C211.309 770.133 212.257 769.605 212.785 768.753L212.089 768.345C211.753 768.957 211.069 769.365 210.157 769.365C208.873 769.365 207.925 768.597 207.769 767.385H213.037C213.049 767.229 213.061 767.097 213.061 767.013C213.061 766.161 212.785 765.417 212.233 764.793C211.693 764.157 210.973 763.845 210.085 763.845ZM210.085 764.613C210.625 764.613 211.105 764.793 211.513 765.141C211.921 765.489 212.161 765.981 212.245 766.617H207.769C207.925 765.429 208.837 764.613 210.085 764.613ZM222.48 765.165C221.928 764.289 221.124 763.845 220.056 763.845C219.204 763.845 218.472 764.145 217.86 764.757C217.26 765.369 216.96 766.113 216.96 766.989C216.96 767.865 217.26 768.609 217.86 769.221C218.472 769.833 219.204 770.133 220.056 770.133C221.124 770.133 221.928 769.689 222.48 768.813V769.989H223.272V763.989H222.48V765.165ZM218.436 768.681C217.98 768.213 217.752 767.649 217.752 766.989C217.752 766.329 217.98 765.765 218.436 765.309C218.892 764.841 219.456 764.613 220.116 764.613C220.776 764.613 221.34 764.841 221.796 765.309C222.252 765.765 222.48 766.329 222.48 766.989C222.48 767.649 222.252 768.213 221.796 768.681C221.34 769.137 220.776 769.365 220.116 769.365C219.456 769.365 218.892 769.137 218.436 768.681ZM227.757 763.845C226.857 763.845 226.185 764.205 225.741 764.925V763.989H224.949V769.989H225.741V766.845C225.741 765.321 226.533 764.613 227.685 764.613C228.729 764.613 229.317 765.237 229.317 766.305V769.989H230.109V766.305C230.109 764.805 229.209 763.845 227.757 763.845ZM241.709 768.873C242.549 768.021 242.969 767.001 242.969 765.789C242.969 764.577 242.549 763.557 241.709 762.717C240.869 761.865 239.837 761.445 238.625 761.445C237.413 761.445 236.381 761.865 235.541 762.717C234.701 763.557 234.281 764.577 234.281 765.789C234.281 767.001 234.701 768.021 235.541 768.873C236.381 769.713 237.413 770.133 238.625 770.133C239.837 770.133 240.869 769.713 241.709 768.873ZM236.129 768.297C235.457 767.613 235.121 766.773 235.121 765.789C235.121 764.805 235.457 763.977 236.129 763.293C236.801 762.609 237.629 762.261 238.625 762.261C239.621 762.261 240.449 762.609 241.121 763.293C241.793 763.977 242.129 764.805 242.129 765.789C242.129 766.773 241.793 767.613 241.121 768.297C240.449 768.981 239.621 769.317 238.625 769.317C237.629 769.317 236.801 768.981 236.129 768.297ZM243.205 761.589V762.381H245.785V769.989H246.625V762.381H249.205V761.589H243.205ZM250.405 761.589V769.989H251.245V766.869H253.405C254.161 766.869 254.785 766.617 255.289 766.113C255.793 765.609 256.045 764.985 256.045 764.229C256.045 763.473 255.793 762.849 255.289 762.345C254.785 761.841 254.161 761.589 253.405 761.589H250.405ZM251.245 766.077V762.381H253.405C253.921 762.381 254.353 762.561 254.689 762.909C255.037 763.257 255.205 763.689 255.205 764.229C255.205 764.769 255.037 765.213 254.689 765.561C254.353 765.909 253.921 766.077 253.405 766.077H251.245ZM259.649 767.709C259.649 766.701 260.489 766.029 261.137 765.405C261.581 764.961 261.953 764.349 261.953 763.665C261.953 762.957 261.701 762.417 261.209 762.033C260.717 761.637 260.129 761.445 259.421 761.445C258.257 761.445 257.261 762.009 256.889 763.077L257.597 763.473C257.825 762.669 258.437 762.261 259.421 762.261C260.417 762.261 261.113 762.741 261.113 763.665C261.113 764.553 260.273 765.165 259.625 765.813C259.181 766.257 258.809 766.929 258.809 767.709H259.649ZM259.697 769.917C259.949 769.665 259.949 769.233 259.697 768.981C259.445 768.729 259.013 768.729 258.761 768.981C258.509 769.233 258.509 769.665 258.761 769.917C259.013 770.169 259.445 770.169 259.697 769.917Z" fill="#6D6E71"/>
<path d="M29 65.0917C29.5523 65.0917 30 65.4983 30 65.9999C30 66.5016 29.5523 66.9082 29 66.9082H17C16.4477 66.9082 16 66.5016 16 65.9999C16 65.4983 16.4477 65.0917 17 65.0917H29Z" fill="black"/>
<path d="M23.7071 70.8069C24.0976 71.1616 24.0976 71.7367 23.7071 72.0914C23.3166 72.4461 22.6834 72.4461 22.2929 72.0914L16.2929 66.6417C15.9143 66.2979 15.9011 65.7442 16.2628 65.3857L21.7628 59.9361C22.136 59.5663 22.7686 59.5413 23.1757 59.8803C23.5828 60.2192 23.6103 60.7938 23.2372 61.1636L18.3841 65.9722L23.7071 70.8069Z" fill="black"/>
<path d="M133.56 57H125.5V71H127.36V65.06H133.3V63.3H127.36V58.76H133.56V57ZM142.533 66.3C142.533 68.54 141.373 69.6 139.633 69.6C138.093 69.6 137.153 68.66 137.153 67.04V61H135.413V67.14C135.413 69.68 136.952 71.26 139.293 71.26C140.753 71.26 141.833 70.7 142.533 69.56V71H144.273V61H142.533V66.3ZM151.902 60.74C150.442 60.74 149.362 61.3 148.662 62.44V61H146.922V71H148.662V65.7C148.662 63.46 149.822 62.4 151.562 62.4C153.102 62.4 154.042 63.34 154.042 64.96V71H155.782V64.86C155.782 62.32 154.242 60.74 151.902 60.74ZM166.491 62.72C165.631 61.4 164.371 60.74 162.711 60.74C161.311 60.74 160.111 61.26 159.131 62.28C158.151 63.3 157.651 64.54 157.651 66C157.651 67.46 158.151 68.72 159.131 69.74C160.111 70.76 161.311 71.26 162.711 71.26C164.371 71.26 165.631 70.6 166.491 69.28V71H168.231V57H166.491V62.72ZM162.931 69.58C161.931 69.58 161.091 69.24 160.411 68.56C159.731 67.86 159.391 67.02 159.391 66C159.391 64.98 159.731 64.14 160.411 63.46C161.091 62.76 161.931 62.42 162.931 62.42C163.951 62.42 164.791 62.76 165.471 63.46C166.151 64.14 166.491 64.98 166.491 66C166.491 67.02 166.151 67.86 165.471 68.56C164.791 69.24 163.951 69.58 162.931 69.58ZM185.447 68.62L183.087 61H181.407L179.047 68.6L176.847 61H175.027L178.127 71H179.907L182.247 63.6L184.587 71H186.367L189.467 61H187.647L185.447 68.62ZM192.138 59.18C192.778 59.18 193.298 58.66 193.298 58.02C193.298 57.38 192.778 56.84 192.138 56.84C191.478 56.84 190.958 57.38 190.958 58.02C190.958 58.66 191.478 59.18 192.138 59.18ZM192.998 71V61H191.257V71H192.998ZM201.092 61H198.432V58.2L196.692 58.72V61H194.712V62.68H196.692V68.1C196.692 70.58 198.052 71.4 201.092 71V69.44C199.312 69.52 198.432 69.64 198.432 68.1V62.68H201.092V61ZM208.132 60.74C206.672 60.74 205.592 61.3 204.892 62.44V57H203.152V71H204.892V65.7C204.892 63.46 206.052 62.4 207.792 62.4C209.332 62.4 210.272 63.34 210.272 64.96V71H212.012V64.86C212.012 62.32 210.472 60.74 208.132 60.74ZM224.141 71.26C226.081 71.26 227.781 70.24 228.641 68.66L227.161 67.8C226.601 68.86 225.481 69.54 224.141 69.54C223.141 69.54 222.301 69.2 221.621 68.52C220.961 67.84 220.621 67 220.621 66C220.621 64.98 220.961 64.14 221.621 63.46C222.301 62.78 223.141 62.44 224.141 62.44C225.481 62.44 226.601 63.14 227.101 64.2L228.561 63.36C227.781 61.76 226.121 60.74 224.141 60.74C222.641 60.74 221.381 61.24 220.381 62.26C219.381 63.26 218.881 64.5 218.881 66C218.881 67.5 219.381 68.74 220.381 69.76C221.381 70.76 222.641 71.26 224.141 71.26ZM238.502 62.72C237.642 61.4 236.382 60.74 234.722 60.74C233.322 60.74 232.122 61.26 231.142 62.28C230.162 63.3 229.662 64.54 229.662 66C229.662 67.46 230.162 68.72 231.142 69.74C232.122 70.76 233.322 71.26 234.722 71.26C236.382 71.26 237.642 70.6 238.502 69.28V71H240.242V61H238.502V62.72ZM234.942 69.58C233.942 69.58 233.102 69.24 232.422 68.56C231.742 67.86 231.402 67.02 231.402 66C231.402 64.98 231.742 64.14 232.422 63.46C233.102 62.76 233.942 62.42 234.942 62.42C235.962 62.42 236.802 62.76 237.482 63.46C238.162 64.14 238.502 64.98 238.502 66C238.502 67.02 238.162 67.86 237.482 68.56C236.802 69.24 235.962 69.58 234.942 69.58ZM244.619 61H242.879V71H244.619V65.7C244.619 64.6 244.919 63.82 245.539 63.32C246.159 62.82 246.879 62.6 247.739 62.64V60.82C246.239 60.82 245.199 61.44 244.619 62.68V61ZM257.174 62.72C256.314 61.4 255.054 60.74 253.394 60.74C251.994 60.74 250.794 61.26 249.814 62.28C248.834 63.3 248.334 64.54 248.334 66C248.334 67.46 248.834 68.72 249.814 69.74C250.794 70.76 251.994 71.26 253.394 71.26C255.054 71.26 256.314 70.6 257.174 69.28V71H258.914V57H257.174V62.72ZM253.614 69.58C252.614 69.58 251.774 69.24 251.094 68.56C250.414 67.86 250.074 67.02 250.074 66C250.074 64.98 250.414 64.14 251.094 63.46C251.774 62.76 252.614 62.42 253.614 62.42C254.634 62.42 255.474 62.76 256.154 63.46C256.834 64.14 257.174 64.98 257.174 66C257.174 67.02 256.834 67.86 256.154 68.56C255.474 69.24 254.634 69.58 253.614 69.58Z" fill="#051F16"/>
</svg>
