<svg width="375" height="300" viewBox="0 0 375 300" fill="none" xmlns="http://www.w3.org/2000/svg">
<path d="M0 7.99999C0 3.58171 3.58172 0 8 0H367C371.418 0 375 3.58172 375 8V300H0V7.99999Z" fill="white"/>
<path d="M35.648 29.3H29.2V40.5H30.688V35.748H35.44V34.34H30.688V30.708H35.648V29.3ZM42.826 36.74C42.826 38.532 41.898 39.38 40.506 39.38C39.274 39.38 38.522 38.628 38.522 37.332V32.5H37.13V37.412C37.13 39.444 38.362 40.708 40.234 40.708C41.402 40.708 42.266 40.26 42.826 39.348V40.5H44.218V32.5H42.826V36.74ZM50.3213 32.292C49.1533 32.292 48.2893 32.74 47.7293 33.652V32.5H46.3372V40.5H47.7293V36.26C47.7293 34.468 48.6573 33.62 50.0493 33.62C51.2813 33.62 52.0333 34.372 52.0333 35.668V40.5H53.4253V35.588C53.4253 33.556 52.1933 32.292 50.3213 32.292ZM61.9925 33.876C61.3045 32.82 60.2965 32.292 58.9685 32.292C57.8485 32.292 56.8885 32.708 56.1045 33.524C55.3205 34.34 54.9205 35.332 54.9205 36.5C54.9205 37.668 55.3205 38.676 56.1045 39.492C56.8885 40.308 57.8485 40.708 58.9685 40.708C60.2965 40.708 61.3045 40.18 61.9925 39.124V40.5H63.3845V29.3H61.9925V33.876ZM59.1445 39.364C58.3445 39.364 57.6725 39.092 57.1285 38.548C56.5845 37.988 56.3125 37.316 56.3125 36.5C56.3125 35.684 56.5845 35.012 57.1285 34.468C57.6725 33.908 58.3445 33.636 59.1445 33.636C59.9605 33.636 60.6325 33.908 61.1765 34.468C61.7205 35.012 61.9925 35.684 61.9925 36.5C61.9925 37.316 61.7205 37.988 61.1765 38.548C60.6325 39.092 59.9605 39.364 59.1445 39.364ZM77.1575 38.596L75.2695 32.5H73.9255L72.0375 38.58L70.2775 32.5H68.8215L71.3015 40.5H72.7255L74.5975 34.58L76.4695 40.5H77.8935L80.3735 32.5H78.9175L77.1575 38.596ZM88.1175 33.876C87.4295 32.82 86.4215 32.292 85.0935 32.292C83.9735 32.292 83.0135 32.708 82.2295 33.524C81.4455 34.34 81.0455 35.332 81.0455 36.5C81.0455 37.668 81.4455 38.676 82.2295 39.492C83.0135 40.308 83.9735 40.708 85.0935 40.708C86.4215 40.708 87.4295 40.18 88.1175 39.124V40.5H89.5095V32.5H88.1175V33.876ZM85.2695 39.364C84.4695 39.364 83.7975 39.092 83.2535 38.548C82.7095 37.988 82.4375 37.316 82.4375 36.5C82.4375 35.684 82.7095 35.012 83.2535 34.468C83.7975 33.908 84.4695 33.636 85.2695 33.636C86.0855 33.636 86.7575 33.908 87.3015 34.468C87.8455 35.012 88.1175 35.684 88.1175 36.5C88.1175 37.316 87.8455 37.988 87.3015 38.548C86.7575 39.092 86.0855 39.364 85.2695 39.364ZM93.0105 40.5V28.82H91.6185V40.5H93.0105ZM96.5261 40.5V28.82H95.1341V40.5H96.5261ZM106.33 37.14C106.362 36.932 106.378 36.724 106.378 36.516C106.378 35.348 106.01 34.356 105.258 33.54C104.522 32.708 103.562 32.292 102.394 32.292C101.162 32.292 100.154 32.692 99.3698 33.492C98.5858 34.292 98.2018 35.3 98.2018 36.5C98.2018 37.716 98.6018 38.724 99.3858 39.524C100.186 40.308 101.226 40.708 102.49 40.708C104.058 40.708 105.226 40.1 106.01 38.9L104.826 38.228C104.346 39.012 103.578 39.396 102.522 39.396C101.002 39.396 99.8978 38.564 99.6258 37.14H106.33ZM102.394 33.604C103.674 33.604 104.73 34.404 104.97 35.924H99.6258C99.8658 34.516 100.906 33.604 102.394 33.604ZM112.096 32.5H109.968V30.26L108.576 30.676V32.5H106.992V33.844H108.576V38.18C108.576 40.164 109.664 40.82 112.096 40.5V39.252C110.672 39.316 109.968 39.412 109.968 38.18V33.844H112.096V32.5Z" fill="black"/>
<circle cx="335" cy="36" r="12" fill="#C6C6C6"/>
<path d="M331.263 32.2617L338.9 39.8985" stroke="white" stroke-width="2" stroke-linecap="round"/>
<path d="M331.263 39.8984L338.9 32.2617" stroke="white" stroke-width="2" stroke-linecap="round"/>
<path d="M107.034 76.6V85H107.874V81.88H110.034C110.79 81.88 111.414 81.628 111.918 81.124C112.422 80.62 112.674 79.996 112.674 79.24C112.674 78.484 112.422 77.86 111.918 77.356C111.414 76.852 110.79 76.6 110.034 76.6H107.034ZM107.874 81.088V77.392H110.034C110.55 77.392 110.982 77.572 111.318 77.92C111.666 78.268 111.834 78.7 111.834 79.24C111.834 79.78 111.666 80.224 111.318 80.572C110.982 80.92 110.55 81.088 110.034 81.088H107.874ZM114.784 85V76.24H113.992V85H114.784ZM119.237 78.856C118.313 78.856 117.569 79.156 116.981 79.756C116.393 80.356 116.105 81.1 116.105 82C116.105 82.912 116.405 83.668 116.993 84.256C117.581 84.844 118.349 85.144 119.297 85.144C120.461 85.144 121.409 84.616 121.937 83.764L121.241 83.356C120.905 83.968 120.221 84.376 119.309 84.376C118.025 84.376 117.077 83.608 116.921 82.396H122.189C122.201 82.24 122.213 82.108 122.213 82.024C122.213 81.172 121.937 80.428 121.385 79.804C120.845 79.168 120.125 78.856 119.237 78.856ZM119.237 79.624C119.777 79.624 120.257 79.804 120.665 80.152C121.073 80.5 121.313 80.992 121.397 81.628H116.921C117.077 80.44 117.989 79.624 119.237 79.624ZM128.633 80.176C128.081 79.3 127.277 78.856 126.209 78.856C125.357 78.856 124.625 79.156 124.013 79.768C123.413 80.38 123.113 81.124 123.113 82C123.113 82.876 123.413 83.62 124.013 84.232C124.625 84.844 125.357 85.144 126.209 85.144C127.277 85.144 128.081 84.7 128.633 83.824V85H129.425V79H128.633V80.176ZM124.589 83.692C124.133 83.224 123.905 82.66 123.905 82C123.905 81.34 124.133 80.776 124.589 80.32C125.045 79.852 125.609 79.624 126.269 79.624C126.929 79.624 127.493 79.852 127.949 80.32C128.405 80.776 128.633 81.34 128.633 82C128.633 82.66 128.405 83.224 127.949 83.692C127.493 84.148 126.929 84.376 126.269 84.376C125.609 84.376 125.045 84.148 124.589 83.692ZM131.726 80.572C131.726 79.96 132.302 79.624 132.986 79.624C133.718 79.624 134.198 79.9 134.426 80.464L135.086 80.08C134.738 79.324 133.958 78.856 132.986 78.856C132.398 78.856 131.906 79.024 131.51 79.348C131.126 79.672 130.934 80.08 130.934 80.572C130.934 81.868 132.194 82.144 133.202 82.396C133.886 82.576 134.438 82.876 134.438 83.416C134.438 84.076 133.838 84.376 133.058 84.376C132.254 84.376 131.642 83.992 131.414 83.368L130.742 83.764C131.066 84.58 131.906 85.144 133.058 85.144C133.694 85.144 134.222 84.988 134.618 84.664C135.026 84.34 135.23 83.932 135.23 83.416C135.23 82.12 133.97 81.844 132.962 81.592C132.278 81.412 131.726 81.112 131.726 80.572ZM139.147 78.856C138.223 78.856 137.479 79.156 136.891 79.756C136.303 80.356 136.015 81.1 136.015 82C136.015 82.912 136.315 83.668 136.903 84.256C137.491 84.844 138.259 85.144 139.207 85.144C140.371 85.144 141.319 84.616 141.847 83.764L141.151 83.356C140.815 83.968 140.131 84.376 139.219 84.376C137.935 84.376 136.987 83.608 136.831 82.396H142.099C142.111 82.24 142.123 82.108 142.123 82.024C142.123 81.172 141.847 80.428 141.295 79.804C140.755 79.168 140.035 78.856 139.147 78.856ZM139.147 79.624C139.687 79.624 140.167 79.804 140.575 80.152C140.983 80.5 141.223 80.992 141.307 81.628H136.831C136.987 80.44 137.899 79.624 139.147 79.624ZM149.155 78.856C148.231 78.856 147.487 79.156 146.899 79.756C146.311 80.356 146.023 81.1 146.023 82C146.023 82.912 146.323 83.668 146.911 84.256C147.499 84.844 148.267 85.144 149.215 85.144C150.379 85.144 151.327 84.616 151.855 83.764L151.159 83.356C150.823 83.968 150.139 84.376 149.227 84.376C147.943 84.376 146.995 83.608 146.839 82.396H152.107C152.119 82.24 152.131 82.108 152.131 82.024C152.131 81.172 151.855 80.428 151.303 79.804C150.763 79.168 150.043 78.856 149.155 78.856ZM149.155 79.624C149.695 79.624 150.175 79.804 150.583 80.152C150.991 80.5 151.231 80.992 151.315 81.628H146.839C146.995 80.44 147.907 79.624 149.155 79.624ZM156.199 78.856C155.299 78.856 154.627 79.216 154.183 79.936V79H153.391V85H154.183V81.856C154.183 80.332 154.975 79.624 156.127 79.624C157.171 79.624 157.759 80.248 157.759 81.316V85H158.551V81.316C158.551 79.816 157.651 78.856 156.199 78.856ZM163.262 79H161.534V77.32L160.742 77.56V79H159.482V79.768H160.742V83.404C160.742 84.796 161.582 85.252 163.262 85V84.304C162.11 84.352 161.534 84.436 161.534 83.404V79.768H163.262V79ZM166.991 78.856C166.067 78.856 165.323 79.156 164.735 79.756C164.147 80.356 163.859 81.1 163.859 82C163.859 82.912 164.159 83.668 164.747 84.256C165.335 84.844 166.103 85.144 167.051 85.144C168.215 85.144 169.163 84.616 169.691 83.764L168.995 83.356C168.659 83.968 167.975 84.376 167.063 84.376C165.779 84.376 164.831 83.608 164.675 82.396H169.943C169.955 82.24 169.967 82.108 169.967 82.024C169.967 81.172 169.691 80.428 169.139 79.804C168.599 79.168 167.879 78.856 166.991 78.856ZM166.991 79.624C167.531 79.624 168.011 79.804 168.419 80.152C168.827 80.5 169.067 80.992 169.151 81.628H164.675C164.831 80.44 165.743 79.624 166.991 79.624ZM172.019 79H171.227V85H172.019V81.664C172.019 80.284 172.823 79.672 173.915 79.672V78.904C173.015 78.904 172.391 79.264 172.019 79.996V79ZM180.376 84.028L178.12 79H177.28L179.968 85.036L179.812 85.408C179.44 86.32 178.888 86.74 178.168 86.656V87.4C179.224 87.484 180.124 86.74 180.592 85.552L183.16 79H182.32L180.376 84.028ZM188.911 84.244C189.523 83.632 189.835 82.888 189.835 82C189.835 81.112 189.523 80.368 188.911 79.768C188.299 79.156 187.555 78.856 186.679 78.856C185.803 78.856 185.047 79.156 184.435 79.768C183.823 80.368 183.523 81.112 183.523 82C183.523 82.888 183.823 83.632 184.435 84.244C185.047 84.844 185.803 85.144 186.679 85.144C187.555 85.144 188.299 84.844 188.911 84.244ZM184.999 83.692C184.543 83.224 184.315 82.66 184.315 82C184.315 81.34 184.543 80.776 184.999 80.32C185.455 79.852 186.019 79.624 186.679 79.624C187.339 79.624 187.903 79.852 188.359 80.32C188.815 80.776 189.043 81.34 189.043 82C189.043 82.66 188.815 83.224 188.359 83.692C187.903 84.148 187.339 84.376 186.679 84.376C186.019 84.376 185.455 84.148 184.999 83.692ZM195.384 82.144C195.384 83.668 194.592 84.376 193.44 84.376C192.396 84.376 191.808 83.752 191.808 82.684V79H191.016V82.684C191.016 84.184 191.916 85.144 193.368 85.144C194.268 85.144 194.94 84.784 195.384 84.064V85H196.176V79H195.384V82.144ZM198.644 79H197.852V85H198.644V81.664C198.644 80.284 199.448 79.672 200.54 79.672V78.904C199.64 78.904 199.016 79.264 198.644 79.996V79ZM209.365 82.528V79.96H208.525V82.528H205.009L208.129 76.6H207.205L204.085 82.528V83.32H208.525V85H209.365V83.32H210.445V82.528H209.365ZM216.026 81.676V80.908H211.706V81.676H216.026ZM222.98 80.176C222.428 79.3 221.624 78.856 220.556 78.856C219.704 78.856 218.972 79.156 218.36 79.768C217.76 80.38 217.46 81.124 217.46 82C217.46 82.876 217.76 83.62 218.36 84.232C218.972 84.844 219.704 85.144 220.556 85.144C221.624 85.144 222.428 84.7 222.98 83.824V85H223.772V76.6H222.98V80.176ZM218.936 83.692C218.48 83.224 218.252 82.66 218.252 82C218.252 81.34 218.48 80.776 218.936 80.32C219.392 79.852 219.956 79.624 220.616 79.624C221.276 79.624 221.84 79.852 222.296 80.32C222.752 80.776 222.98 81.34 222.98 82C222.98 82.66 222.752 83.224 222.296 83.692C221.84 84.148 221.276 84.376 220.616 84.376C219.956 84.376 219.392 84.148 218.936 83.692ZM226.253 77.56C226.481 77.332 226.481 76.972 226.253 76.744C226.025 76.516 225.665 76.516 225.437 76.744C225.209 76.972 225.209 77.332 225.437 77.56C225.665 77.788 226.025 77.788 226.253 77.56ZM226.241 85V79H225.449V85H226.241ZM233.082 80.176C232.53 79.3 231.726 78.856 230.658 78.856C229.806 78.856 229.074 79.156 228.462 79.768C227.862 80.38 227.562 81.124 227.562 82C227.562 82.876 227.862 83.62 228.462 84.232C229.074 84.844 229.806 85.144 230.658 85.144C231.726 85.144 232.53 84.7 233.082 83.824V84.76C233.082 85.996 232.242 86.776 230.862 86.776C229.794 86.776 229.074 86.416 228.714 85.684L228.018 86.08C228.51 87.052 229.458 87.544 230.862 87.544C231.69 87.544 232.398 87.292 232.986 86.8C233.574 86.308 233.874 85.624 233.874 84.76V79H233.082V80.176ZM229.038 83.692C228.582 83.224 228.354 82.66 228.354 82C228.354 81.34 228.582 80.776 229.038 80.32C229.494 79.852 230.058 79.624 230.718 79.624C231.378 79.624 231.942 79.852 232.398 80.32C232.854 80.776 233.082 81.34 233.082 82C233.082 82.66 232.854 83.224 232.398 83.692C231.942 84.148 231.378 84.376 230.718 84.376C230.058 84.376 229.494 84.148 229.038 83.692ZM236.355 77.56C236.583 77.332 236.583 76.972 236.355 76.744C236.127 76.516 235.767 76.516 235.539 76.744C235.311 76.972 235.311 77.332 235.539 77.56C235.767 77.788 236.127 77.788 236.355 77.56ZM236.343 85V79H235.551V85H236.343ZM241.204 79H239.476V77.32L238.684 77.56V79H237.424V79.768H238.684V83.404C238.684 84.796 239.524 85.252 241.204 85V84.304C240.052 84.352 239.476 84.436 239.476 83.404V79.768H241.204V79ZM245.644 76.6V85H246.484V81.88H248.644C249.4 81.88 250.024 81.628 250.528 81.124C251.032 80.62 251.284 79.996 251.284 79.24C251.284 78.484 251.032 77.86 250.528 77.356C250.024 76.852 249.4 76.6 248.644 76.6H245.644ZM246.484 81.088V77.392H248.644C249.16 77.392 249.592 77.572 249.928 77.92C250.276 78.268 250.444 78.7 250.444 79.24C250.444 79.78 250.276 80.224 249.928 80.572C249.592 80.92 249.16 81.088 248.644 81.088H246.484ZM253.406 77.56C253.634 77.332 253.634 76.972 253.406 76.744C253.178 76.516 252.818 76.516 252.59 76.744C252.362 76.972 252.362 77.332 252.59 77.56C252.818 77.788 253.178 77.788 253.406 77.56ZM253.394 85V79H252.602V85H253.394ZM257.882 78.856C256.982 78.856 256.31 79.216 255.866 79.936V79H255.074V85H255.866V81.856C255.866 80.332 256.658 79.624 257.81 79.624C258.854 79.624 259.442 80.248 259.442 81.316V85H260.234V81.316C260.234 79.816 259.334 78.856 257.882 78.856Z" fill="#666666"/>
<path d="M175.336 117.6V126H176.452V123H178.384C179.164 123 179.8 122.736 180.316 122.22C180.832 121.704 181.096 121.056 181.096 120.3C181.096 119.532 180.832 118.896 180.316 118.38C179.8 117.864 179.164 117.6 178.384 117.6H175.336ZM176.452 121.956V118.644H178.384C179.308 118.644 179.992 119.34 179.992 120.3C179.992 120.768 179.836 121.164 179.536 121.488C179.236 121.8 178.852 121.956 178.384 121.956H176.452ZM182.414 126H183.53V117.6H182.414V126ZM190.552 123.864L186.232 117.6H185.332V126H186.448V119.724L190.768 126H191.668V117.6H190.552V123.864Z" fill="#222222"/>
<rect x="104.593" y="141.129" width="32.2971" height="32.2971" rx="3.30312" fill="white" stroke="#C6C6C6" stroke-width="0.734026"/>
<rect x="146.432" y="141.129" width="32.2971" height="32.2971" rx="3.30312" fill="white" stroke="#C6C6C6" stroke-width="0.734026"/>
<rect x="188.272" y="141.129" width="32.2971" height="32.2971" rx="3.30312" fill="white" stroke="#C6C6C6" stroke-width="0.734026"/>
<rect x="230.11" y="141.129" width="32.2971" height="32.2971" rx="3.30312" fill="white" stroke="#C6C6C6" stroke-width="0.734026"/>
<path d="M28 216C28 211.582 31.5817 208 36 208H331C335.418 208 339 211.582 339 216V250C339 254.418 335.418 258 331 258H36C31.5817 258 28 254.418 28 250V216Z" fill="#1DBC86"/>
<path d="M163.404 236.182C164.3 236.182 165.126 235.972 165.882 235.538C166.638 235.104 167.226 234.516 167.632 233.788L166.498 233.144C165.938 234.208 164.748 234.908 163.404 234.908C162.27 234.908 161.346 234.544 160.632 233.816C159.918 233.088 159.568 232.178 159.568 231.1C159.568 230.008 159.918 229.098 160.632 228.37C161.346 227.642 162.27 227.278 163.404 227.278C164.748 227.278 165.938 227.978 166.498 229.056L167.632 228.398C166.792 226.942 165.196 226.018 163.404 226.018C161.92 226.018 160.688 226.508 159.722 227.488C158.756 228.468 158.28 229.672 158.28 231.1C158.28 232.528 158.756 233.732 159.722 234.712C160.688 235.692 161.92 236.182 163.404 236.182ZM174.861 235.118C175.575 234.404 175.939 233.536 175.939 232.5C175.939 231.464 175.575 230.596 174.861 229.882C174.147 229.168 173.265 228.818 172.243 228.818C171.221 228.818 170.339 229.168 169.625 229.882C168.911 230.596 168.561 231.464 168.561 232.5C168.561 233.536 168.911 234.404 169.625 235.118C170.339 235.832 171.221 236.182 172.243 236.182C173.265 236.182 174.147 235.832 174.861 235.118ZM172.243 234.992C171.557 234.992 170.969 234.754 170.493 234.278C170.017 233.802 169.779 233.214 169.779 232.5C169.779 231.786 170.017 231.198 170.493 230.722C170.969 230.246 171.557 230.008 172.243 230.008C172.943 230.008 173.531 230.246 174.007 230.722C174.483 231.198 174.721 231.786 174.721 232.5C174.721 233.214 174.483 233.802 174.007 234.278C173.531 234.754 172.943 234.992 172.243 234.992ZM180.861 228.818C179.839 228.818 179.083 229.21 178.593 230.008V229H177.375V236H178.593V232.29C178.593 230.722 179.405 229.98 180.623 229.98C181.701 229.98 182.359 230.638 182.359 231.772V236H183.577V231.702C183.577 229.924 182.499 228.818 180.861 228.818ZM187.028 229V228.79C187.028 227.614 187.602 227.194 188.876 227.194C189.268 227.194 189.744 227.236 190.318 227.306V226.2C189.744 226.074 189.254 226.018 188.876 226.018C186.832 226.018 185.81 226.942 185.81 228.79V229H184.69V230.176H185.81V236H187.028V230.176H189.618V236H190.836V229H187.028ZM193.919 229H192.701V236H193.919V232.29C193.919 231.52 194.129 230.974 194.563 230.624C194.997 230.274 195.501 230.12 196.103 230.148V228.874C195.053 228.874 194.325 229.308 193.919 230.176V229ZM204.855 228.818C203.875 228.818 203.147 229.21 202.657 230.008C202.223 229.21 201.537 228.818 200.599 228.818C199.689 228.818 198.989 229.196 198.513 229.938V229H197.295V236H198.513V232.108C198.513 230.694 199.283 229.98 200.305 229.98C201.215 229.98 201.789 230.61 201.789 231.688V236H203.007V232.108C203.007 230.666 203.679 229.98 204.729 229.98C205.667 229.98 206.269 230.61 206.269 231.688V236H207.487V231.646C207.487 229.91 206.423 228.818 204.855 228.818Z" fill="white"/>
<rect x="142.5" y="284" width="90" height="4" rx="2" fill="#C4C4C4"/>
</svg>
