<svg width="375" height="300" viewBox="0 0 375 300" fill="none" xmlns="http://www.w3.org/2000/svg">
<path d="M0 7.99999C0 3.58171 3.58172 0 8 0H367C371.418 0 375 3.58172 375 8V300H0V7.99999Z" fill="white"/>
<path d="M35.648 29.3H29.2V40.5H30.688V35.748H35.44V34.34H30.688V30.708H35.648V29.3ZM42.826 36.74C42.826 38.532 41.898 39.38 40.506 39.38C39.274 39.38 38.522 38.628 38.522 37.332V32.5H37.13V37.412C37.13 39.444 38.362 40.708 40.234 40.708C41.402 40.708 42.266 40.26 42.826 39.348V40.5H44.218V32.5H42.826V36.74ZM50.3213 32.292C49.1533 32.292 48.2893 32.74 47.7293 33.652V32.5H46.3372V40.5H47.7293V36.26C47.7293 34.468 48.6573 33.62 50.0493 33.62C51.2813 33.62 52.0333 34.372 52.0333 35.668V40.5H53.4253V35.588C53.4253 33.556 52.1933 32.292 50.3213 32.292ZM61.9925 33.876C61.3045 32.82 60.2965 32.292 58.9685 32.292C57.8485 32.292 56.8885 32.708 56.1045 33.524C55.3205 34.34 54.9205 35.332 54.9205 36.5C54.9205 37.668 55.3205 38.676 56.1045 39.492C56.8885 40.308 57.8485 40.708 58.9685 40.708C60.2965 40.708 61.3045 40.18 61.9925 39.124V40.5H63.3845V29.3H61.9925V33.876ZM59.1445 39.364C58.3445 39.364 57.6725 39.092 57.1285 38.548C56.5845 37.988 56.3125 37.316 56.3125 36.5C56.3125 35.684 56.5845 35.012 57.1285 34.468C57.6725 33.908 58.3445 33.636 59.1445 33.636C59.9605 33.636 60.6325 33.908 61.1765 34.468C61.7205 35.012 61.9925 35.684 61.9925 36.5C61.9925 37.316 61.7205 37.988 61.1765 38.548C60.6325 39.092 59.9605 39.364 59.1445 39.364ZM77.1575 38.596L75.2695 32.5H73.9255L72.0375 38.58L70.2775 32.5H68.8215L71.3015 40.5H72.7255L74.5975 34.58L76.4695 40.5H77.8935L80.3735 32.5H78.9175L77.1575 38.596ZM88.1175 33.876C87.4295 32.82 86.4215 32.292 85.0935 32.292C83.9735 32.292 83.0135 32.708 82.2295 33.524C81.4455 34.34 81.0455 35.332 81.0455 36.5C81.0455 37.668 81.4455 38.676 82.2295 39.492C83.0135 40.308 83.9735 40.708 85.0935 40.708C86.4215 40.708 87.4295 40.18 88.1175 39.124V40.5H89.5095V32.5H88.1175V33.876ZM85.2695 39.364C84.4695 39.364 83.7975 39.092 83.2535 38.548C82.7095 37.988 82.4375 37.316 82.4375 36.5C82.4375 35.684 82.7095 35.012 83.2535 34.468C83.7975 33.908 84.4695 33.636 85.2695 33.636C86.0855 33.636 86.7575 33.908 87.3015 34.468C87.8455 35.012 88.1175 35.684 88.1175 36.5C88.1175 37.316 87.8455 37.988 87.3015 38.548C86.7575 39.092 86.0855 39.364 85.2695 39.364ZM93.0105 40.5V28.82H91.6185V40.5H93.0105ZM96.5261 40.5V28.82H95.1341V40.5H96.5261ZM106.33 37.14C106.362 36.932 106.378 36.724 106.378 36.516C106.378 35.348 106.01 34.356 105.258 33.54C104.522 32.708 103.562 32.292 102.394 32.292C101.162 32.292 100.154 32.692 99.3698 33.492C98.5858 34.292 98.2018 35.3 98.2018 36.5C98.2018 37.716 98.6018 38.724 99.3858 39.524C100.186 40.308 101.226 40.708 102.49 40.708C104.058 40.708 105.226 40.1 106.01 38.9L104.826 38.228C104.346 39.012 103.578 39.396 102.522 39.396C101.002 39.396 99.8978 38.564 99.6258 37.14H106.33ZM102.394 33.604C103.674 33.604 104.73 34.404 104.97 35.924H99.6258C99.8658 34.516 100.906 33.604 102.394 33.604ZM112.096 32.5H109.968V30.26L108.576 30.676V32.5H106.992V33.844H108.576V38.18C108.576 40.164 109.664 40.82 112.096 40.5V39.252C110.672 39.316 109.968 39.412 109.968 38.18V33.844H112.096V32.5Z" fill="black"/>
<circle cx="335" cy="36" r="12" fill="#C6C6C6"/>
<path d="M331.263 32.2617L338.9 39.8985" stroke="white" stroke-width="2" stroke-linecap="round"/>
<path d="M331.263 39.8984L338.9 32.2617" stroke="white" stroke-width="2" stroke-linecap="round"/>
<path d="M74.1514 76.6V85H74.9914V81.88H77.1514C77.9074 81.88 78.5314 81.628 79.0354 81.124C79.5394 80.62 79.7914 79.996 79.7914 79.24C79.7914 78.484 79.5394 77.86 79.0354 77.356C78.5314 76.852 77.9074 76.6 77.1514 76.6H74.1514ZM74.9914 81.088V77.392H77.1514C77.6674 77.392 78.0994 77.572 78.4354 77.92C78.7834 78.268 78.9514 78.7 78.9514 79.24C78.9514 79.78 78.7834 80.224 78.4354 80.572C78.0994 80.92 77.6674 81.088 77.1514 81.088H74.9914ZM81.9015 85V76.24H81.1095V85H81.9015ZM86.3542 78.856C85.4302 78.856 84.6862 79.156 84.0982 79.756C83.5102 80.356 83.2222 81.1 83.2222 82C83.2222 82.912 83.5222 83.668 84.1102 84.256C84.6982 84.844 85.4662 85.144 86.4142 85.144C87.5782 85.144 88.5262 84.616 89.0542 83.764L88.3582 83.356C88.0222 83.968 87.3382 84.376 86.4262 84.376C85.1422 84.376 84.1942 83.608 84.0382 82.396H89.3062C89.3182 82.24 89.3302 82.108 89.3302 82.024C89.3302 81.172 89.0542 80.428 88.5022 79.804C87.9622 79.168 87.2422 78.856 86.3542 78.856ZM86.3542 79.624C86.8942 79.624 87.3742 79.804 87.7822 80.152C88.1902 80.5 88.4302 80.992 88.5142 81.628H84.0382C84.1942 80.44 85.1062 79.624 86.3542 79.624ZM95.75 80.176C95.198 79.3 94.394 78.856 93.326 78.856C92.474 78.856 91.742 79.156 91.13 79.768C90.53 80.38 90.23 81.124 90.23 82C90.23 82.876 90.53 83.62 91.13 84.232C91.742 84.844 92.474 85.144 93.326 85.144C94.394 85.144 95.198 84.7 95.75 83.824V85H96.542V79H95.75V80.176ZM91.706 83.692C91.25 83.224 91.022 82.66 91.022 82C91.022 81.34 91.25 80.776 91.706 80.32C92.162 79.852 92.726 79.624 93.386 79.624C94.046 79.624 94.61 79.852 95.066 80.32C95.522 80.776 95.75 81.34 95.75 82C95.75 82.66 95.522 83.224 95.066 83.692C94.61 84.148 94.046 84.376 93.386 84.376C92.726 84.376 92.162 84.148 91.706 83.692ZM98.8429 80.572C98.8429 79.96 99.4189 79.624 100.103 79.624C100.835 79.624 101.315 79.9 101.543 80.464L102.203 80.08C101.855 79.324 101.075 78.856 100.103 78.856C99.5149 78.856 99.0229 79.024 98.6269 79.348C98.2429 79.672 98.0509 80.08 98.0509 80.572C98.0509 81.868 99.3109 82.144 100.319 82.396C101.003 82.576 101.555 82.876 101.555 83.416C101.555 84.076 100.955 84.376 100.175 84.376C99.3709 84.376 98.7589 83.992 98.5309 83.368L97.8589 83.764C98.1829 84.58 99.0229 85.144 100.175 85.144C100.811 85.144 101.339 84.988 101.735 84.664C102.143 84.34 102.347 83.932 102.347 83.416C102.347 82.12 101.087 81.844 100.079 81.592C99.3949 81.412 98.8429 81.112 98.8429 80.572ZM106.264 78.856C105.34 78.856 104.596 79.156 104.008 79.756C103.42 80.356 103.132 81.1 103.132 82C103.132 82.912 103.432 83.668 104.02 84.256C104.608 84.844 105.376 85.144 106.324 85.144C107.488 85.144 108.436 84.616 108.964 83.764L108.268 83.356C107.932 83.968 107.248 84.376 106.336 84.376C105.052 84.376 104.104 83.608 103.948 82.396H109.216C109.228 82.24 109.24 82.108 109.24 82.024C109.24 81.172 108.964 80.428 108.412 79.804C107.872 79.168 107.152 78.856 106.264 78.856ZM106.264 79.624C106.804 79.624 107.284 79.804 107.692 80.152C108.1 80.5 108.34 80.992 108.424 81.628H103.948C104.104 80.44 105.016 79.624 106.264 79.624ZM116.272 78.856C115.348 78.856 114.604 79.156 114.016 79.756C113.428 80.356 113.14 81.1 113.14 82C113.14 82.912 113.44 83.668 114.028 84.256C114.616 84.844 115.384 85.144 116.332 85.144C117.496 85.144 118.444 84.616 118.972 83.764L118.276 83.356C117.94 83.968 117.256 84.376 116.344 84.376C115.06 84.376 114.112 83.608 113.956 82.396H119.224C119.236 82.24 119.248 82.108 119.248 82.024C119.248 81.172 118.972 80.428 118.42 79.804C117.88 79.168 117.16 78.856 116.272 78.856ZM116.272 79.624C116.812 79.624 117.292 79.804 117.7 80.152C118.108 80.5 118.348 80.992 118.432 81.628H113.956C114.112 80.44 115.024 79.624 116.272 79.624ZM123.316 78.856C122.416 78.856 121.744 79.216 121.3 79.936V79H120.508V85H121.3V81.856C121.3 80.332 122.092 79.624 123.244 79.624C124.288 79.624 124.876 80.248 124.876 81.316V85H125.668V81.316C125.668 79.816 124.768 78.856 123.316 78.856ZM130.379 79H128.651V77.32L127.859 77.56V79H126.599V79.768H127.859V83.404C127.859 84.796 128.699 85.252 130.379 85V84.304C129.227 84.352 128.651 84.436 128.651 83.404V79.768H130.379V79ZM134.108 78.856C133.184 78.856 132.44 79.156 131.852 79.756C131.264 80.356 130.976 81.1 130.976 82C130.976 82.912 131.276 83.668 131.864 84.256C132.452 84.844 133.22 85.144 134.168 85.144C135.332 85.144 136.28 84.616 136.808 83.764L136.112 83.356C135.776 83.968 135.092 84.376 134.18 84.376C132.896 84.376 131.948 83.608 131.792 82.396H137.06C137.072 82.24 137.084 82.108 137.084 82.024C137.084 81.172 136.808 80.428 136.256 79.804C135.716 79.168 134.996 78.856 134.108 78.856ZM134.108 79.624C134.648 79.624 135.128 79.804 135.536 80.152C135.944 80.5 136.184 80.992 136.268 81.628H131.792C131.948 80.44 132.86 79.624 134.108 79.624ZM139.136 79H138.344V85H139.136V81.664C139.136 80.284 139.94 79.672 141.032 79.672V78.904C140.132 78.904 139.508 79.264 139.136 79.996V79ZM147.493 84.028L145.237 79H144.397L147.085 85.036L146.929 85.408C146.557 86.32 146.005 86.74 145.285 86.656V87.4C146.341 87.484 147.241 86.74 147.709 85.552L150.277 79H149.437L147.493 84.028ZM156.028 84.244C156.64 83.632 156.952 82.888 156.952 82C156.952 81.112 156.64 80.368 156.028 79.768C155.416 79.156 154.672 78.856 153.796 78.856C152.92 78.856 152.164 79.156 151.552 79.768C150.94 80.368 150.64 81.112 150.64 82C150.64 82.888 150.94 83.632 151.552 84.244C152.164 84.844 152.92 85.144 153.796 85.144C154.672 85.144 155.416 84.844 156.028 84.244ZM152.116 83.692C151.66 83.224 151.432 82.66 151.432 82C151.432 81.34 151.66 80.776 152.116 80.32C152.572 79.852 153.136 79.624 153.796 79.624C154.456 79.624 155.02 79.852 155.476 80.32C155.932 80.776 156.16 81.34 156.16 82C156.16 82.66 155.932 83.224 155.476 83.692C155.02 84.148 154.456 84.376 153.796 84.376C153.136 84.376 152.572 84.148 152.116 83.692ZM162.502 82.144C162.502 83.668 161.71 84.376 160.558 84.376C159.514 84.376 158.926 83.752 158.926 82.684V79H158.134V82.684C158.134 84.184 159.034 85.144 160.486 85.144C161.386 85.144 162.058 84.784 162.502 84.064V85H163.294V79H162.502V82.144ZM165.761 79H164.969V85H165.761V81.664C165.761 80.284 166.565 79.672 167.657 79.672V78.904C166.757 78.904 166.133 79.264 165.761 79.996V79ZM172.666 79.984L172.846 77.392H176.602V76.6H172.102L171.802 80.8H174.082C175.234 80.8 176.062 81.448 176.062 82.564C176.062 83.68 175.234 84.328 174.082 84.328C173.086 84.328 172.33 83.848 172.09 82.948L171.382 83.356C171.73 84.508 172.822 85.144 174.082 85.144C174.862 85.144 175.534 84.916 176.074 84.46C176.626 83.992 176.902 83.368 176.902 82.564C176.902 81.76 176.626 81.136 176.074 80.68C175.534 80.212 174.862 79.984 174.082 79.984H172.666ZM182.663 81.676V80.908H178.343V81.676H182.663ZM189.617 80.176C189.065 79.3 188.261 78.856 187.193 78.856C186.341 78.856 185.609 79.156 184.997 79.768C184.397 80.38 184.097 81.124 184.097 82C184.097 82.876 184.397 83.62 184.997 84.232C185.609 84.844 186.341 85.144 187.193 85.144C188.261 85.144 189.065 84.7 189.617 83.824V85H190.409V76.6H189.617V80.176ZM185.573 83.692C185.117 83.224 184.889 82.66 184.889 82C184.889 81.34 185.117 80.776 185.573 80.32C186.029 79.852 186.593 79.624 187.253 79.624C187.913 79.624 188.477 79.852 188.933 80.32C189.389 80.776 189.617 81.34 189.617 82C189.617 82.66 189.389 83.224 188.933 83.692C188.477 84.148 187.913 84.376 187.253 84.376C186.593 84.376 186.029 84.148 185.573 83.692ZM192.89 77.56C193.118 77.332 193.118 76.972 192.89 76.744C192.662 76.516 192.302 76.516 192.074 76.744C191.846 76.972 191.846 77.332 192.074 77.56C192.302 77.788 192.662 77.788 192.89 77.56ZM192.878 85V79H192.086V85H192.878ZM199.719 80.176C199.167 79.3 198.363 78.856 197.295 78.856C196.443 78.856 195.711 79.156 195.099 79.768C194.499 80.38 194.199 81.124 194.199 82C194.199 82.876 194.499 83.62 195.099 84.232C195.711 84.844 196.443 85.144 197.295 85.144C198.363 85.144 199.167 84.7 199.719 83.824V84.76C199.719 85.996 198.879 86.776 197.499 86.776C196.431 86.776 195.711 86.416 195.351 85.684L194.655 86.08C195.147 87.052 196.095 87.544 197.499 87.544C198.327 87.544 199.035 87.292 199.623 86.8C200.211 86.308 200.511 85.624 200.511 84.76V79H199.719V80.176ZM195.675 83.692C195.219 83.224 194.991 82.66 194.991 82C194.991 81.34 195.219 80.776 195.675 80.32C196.131 79.852 196.695 79.624 197.355 79.624C198.015 79.624 198.579 79.852 199.035 80.32C199.491 80.776 199.719 81.34 199.719 82C199.719 82.66 199.491 83.224 199.035 83.692C198.579 84.148 198.015 84.376 197.355 84.376C196.695 84.376 196.131 84.148 195.675 83.692ZM202.992 77.56C203.22 77.332 203.22 76.972 202.992 76.744C202.764 76.516 202.404 76.516 202.176 76.744C201.948 76.972 201.948 77.332 202.176 77.56C202.404 77.788 202.764 77.788 202.992 77.56ZM202.98 85V79H202.188V85H202.98ZM207.84 79H206.112V77.32L205.32 77.56V79H204.06V79.768H205.32V83.404C205.32 84.796 206.16 85.252 207.84 85V84.304C206.688 84.352 206.112 84.436 206.112 83.404V79.768H207.84V79ZM215.34 79H213.612V77.32L212.82 77.56V79H211.56V79.768H212.82V83.404C212.82 84.796 213.66 85.252 215.34 85V84.304C214.188 84.352 213.612 84.436 213.612 83.404V79.768H215.34V79ZM217.452 79H216.66V85H217.452V81.664C217.452 80.284 218.256 79.672 219.348 79.672V78.904C218.448 78.904 217.824 79.264 217.452 79.996V79ZM225.23 80.176C224.678 79.3 223.874 78.856 222.806 78.856C221.954 78.856 221.222 79.156 220.61 79.768C220.01 80.38 219.71 81.124 219.71 82C219.71 82.876 220.01 83.62 220.61 84.232C221.222 84.844 221.954 85.144 222.806 85.144C223.874 85.144 224.678 84.7 225.23 83.824V85H226.022V79H225.23V80.176ZM221.186 83.692C220.73 83.224 220.502 82.66 220.502 82C220.502 81.34 220.73 80.776 221.186 80.32C221.642 79.852 222.206 79.624 222.866 79.624C223.526 79.624 224.09 79.852 224.546 80.32C225.002 80.776 225.23 81.34 225.23 82C225.23 82.66 225.002 83.224 224.546 83.692C224.09 84.148 223.526 84.376 222.866 84.376C222.206 84.376 221.642 84.148 221.186 83.692ZM230.507 78.856C229.607 78.856 228.935 79.216 228.491 79.936V79H227.699V85H228.491V81.856C228.491 80.332 229.283 79.624 230.435 79.624C231.479 79.624 232.067 80.248 232.067 81.316V85H232.859V81.316C232.859 79.816 231.959 78.856 230.507 78.856ZM235.015 80.572C235.015 79.96 235.591 79.624 236.275 79.624C237.007 79.624 237.487 79.9 237.715 80.464L238.375 80.08C238.027 79.324 237.247 78.856 236.275 78.856C235.687 78.856 235.195 79.024 234.799 79.348C234.415 79.672 234.223 80.08 234.223 80.572C234.223 81.868 235.483 82.144 236.491 82.396C237.175 82.576 237.727 82.876 237.727 83.416C237.727 84.076 237.127 84.376 236.347 84.376C235.543 84.376 234.931 83.992 234.703 83.368L234.031 83.764C234.355 84.58 235.195 85.144 236.347 85.144C236.983 85.144 237.511 84.988 237.907 84.664C238.315 84.34 238.519 83.932 238.519 83.416C238.519 82.12 237.259 81.844 236.251 81.592C235.567 81.412 235.015 81.112 235.015 80.572ZM244.824 80.176C244.272 79.3 243.468 78.856 242.4 78.856C241.548 78.856 240.816 79.156 240.204 79.768C239.604 80.38 239.304 81.124 239.304 82C239.304 82.876 239.604 83.62 240.204 84.232C240.816 84.844 241.548 85.144 242.4 85.144C243.468 85.144 244.272 84.7 244.824 83.824V85H245.616V79H244.824V80.176ZM240.78 83.692C240.324 83.224 240.096 82.66 240.096 82C240.096 81.34 240.324 80.776 240.78 80.32C241.236 79.852 241.8 79.624 242.46 79.624C243.12 79.624 243.684 79.852 244.14 80.32C244.596 80.776 244.824 81.34 244.824 82C244.824 82.66 244.596 83.224 244.14 83.692C243.684 84.148 243.12 84.376 242.46 84.376C241.8 84.376 241.236 84.148 240.78 83.692ZM250.089 85.144C251.253 85.144 252.285 84.544 252.777 83.584L252.117 83.2C251.721 83.92 250.989 84.376 250.089 84.376C249.429 84.376 248.865 84.148 248.409 83.692C247.953 83.224 247.725 82.66 247.725 82C247.725 81.34 247.953 80.776 248.409 80.32C248.865 79.852 249.429 79.624 250.089 79.624C250.989 79.624 251.745 80.08 252.069 80.8L252.717 80.428C252.285 79.468 251.277 78.856 250.089 78.856C249.189 78.856 248.433 79.156 247.833 79.768C247.233 80.368 246.933 81.112 246.933 82C246.933 82.888 247.233 83.632 247.833 84.244C248.433 84.844 249.189 85.144 250.089 85.144ZM257.094 79H255.366V77.32L254.574 77.56V79H253.314V79.768H254.574V83.404C254.574 84.796 255.414 85.252 257.094 85V84.304C255.942 84.352 255.366 84.436 255.366 83.404V79.768H257.094V79ZM259.218 77.56C259.446 77.332 259.446 76.972 259.218 76.744C258.99 76.516 258.63 76.516 258.402 76.744C258.174 76.972 258.174 77.332 258.402 77.56C258.63 77.788 258.99 77.788 259.218 77.56ZM259.206 85V79H258.414V85H259.206ZM265.915 84.244C266.527 83.632 266.839 82.888 266.839 82C266.839 81.112 266.527 80.368 265.915 79.768C265.303 79.156 264.559 78.856 263.683 78.856C262.807 78.856 262.051 79.156 261.439 79.768C260.827 80.368 260.527 81.112 260.527 82C260.527 82.888 260.827 83.632 261.439 84.244C262.051 84.844 262.807 85.144 263.683 85.144C264.559 85.144 265.303 84.844 265.915 84.244ZM262.003 83.692C261.547 83.224 261.319 82.66 261.319 82C261.319 81.34 261.547 80.776 262.003 80.32C262.459 79.852 263.023 79.624 263.683 79.624C264.343 79.624 264.907 79.852 265.363 80.32C265.819 80.776 266.047 81.34 266.047 82C266.047 82.66 265.819 83.224 265.363 83.692C264.907 84.148 264.343 84.376 263.683 84.376C263.023 84.376 262.459 84.148 262.003 83.692ZM270.972 78.856C270.072 78.856 269.4 79.216 268.956 79.936V79H268.164V85H268.956V81.856C268.956 80.332 269.748 79.624 270.9 79.624C271.944 79.624 272.532 80.248 272.532 81.316V85H273.324V81.316C273.324 79.816 272.424 78.856 270.972 78.856ZM281.072 78.856C280.004 78.856 279.2 79.3 278.648 80.176V79H277.856V87.4H278.648V83.824C279.2 84.7 280.004 85.144 281.072 85.144C281.924 85.144 282.656 84.844 283.256 84.232C283.868 83.62 284.168 82.876 284.168 82C284.168 81.124 283.868 80.38 283.256 79.768C282.656 79.156 281.924 78.856 281.072 78.856ZM279.332 83.692C278.876 83.224 278.648 82.66 278.648 82C278.648 81.34 278.876 80.776 279.332 80.32C279.788 79.852 280.352 79.624 281.012 79.624C281.672 79.624 282.236 79.852 282.692 80.32C283.148 80.776 283.376 81.34 283.376 82C283.376 82.66 283.148 83.224 282.692 83.692C282.236 84.148 281.672 84.376 281.012 84.376C280.352 84.376 279.788 84.148 279.332 83.692ZM286.289 77.56C286.517 77.332 286.517 76.972 286.289 76.744C286.061 76.516 285.701 76.516 285.473 76.744C285.245 76.972 285.245 77.332 285.473 77.56C285.701 77.788 286.061 77.788 286.289 77.56ZM286.277 85V79H285.485V85H286.277ZM290.765 78.856C289.865 78.856 289.193 79.216 288.749 79.936V79H287.957V85H288.749V81.856C288.749 80.332 289.541 79.624 290.693 79.624C291.737 79.624 292.325 80.248 292.325 81.316V85H293.117V81.316C293.117 79.816 292.217 78.856 290.765 78.856Z" fill="#666666"/>
<path d="M141.593 117.6V118.656H144.065V126H145.169V118.656H147.653V117.6H141.593ZM148.873 120H147.829V126H148.873V122.82C148.873 122.16 149.053 121.692 149.425 121.392C149.797 121.092 150.229 120.96 150.745 120.984V119.892C149.845 119.892 149.221 120.264 148.873 121.008V120ZM156.407 121.032C155.891 120.24 155.135 119.844 154.139 119.844C153.299 119.844 152.579 120.156 151.991 120.768C151.403 121.38 151.103 122.124 151.103 123C151.103 123.876 151.403 124.632 151.991 125.244C152.579 125.856 153.299 126.156 154.139 126.156C155.135 126.156 155.891 125.76 156.407 124.968V126H157.451V120H156.407V121.032ZM154.271 125.148C153.671 125.148 153.167 124.944 152.759 124.536C152.351 124.116 152.147 123.612 152.147 123C152.147 122.388 152.351 121.884 152.759 121.476C153.167 121.056 153.671 120.852 154.271 120.852C154.883 120.852 155.387 121.056 155.795 121.476C156.203 121.884 156.407 122.388 156.407 123C156.407 123.612 156.203 124.116 155.795 124.536C155.387 124.944 154.883 125.148 154.271 125.148ZM162.02 119.844C161.144 119.844 160.496 120.18 160.076 120.864V120H159.032V126H160.076V122.82C160.076 121.476 160.772 120.84 161.816 120.84C162.74 120.84 163.304 121.404 163.304 122.376V126H164.348V122.316C164.348 120.792 163.424 119.844 162.02 119.844ZM166.706 121.62C166.706 121.104 167.186 120.816 167.774 120.816C168.41 120.816 168.842 121.068 169.058 121.584L169.934 121.092C169.55 120.312 168.746 119.844 167.774 119.844C167.162 119.844 166.658 120.012 166.25 120.348C165.854 120.684 165.65 121.116 165.65 121.632C165.65 122.904 166.874 123.216 167.822 123.468C168.482 123.624 169.01 123.888 169.01 124.356C169.01 124.92 168.506 125.172 167.822 125.172C167.09 125.172 166.526 124.812 166.334 124.236L165.434 124.752C165.782 125.604 166.658 126.156 167.822 126.156C168.482 126.156 169.01 125.988 169.43 125.664C169.85 125.34 170.066 124.896 170.066 124.356C170.078 123.072 168.83 122.724 167.894 122.52C167.234 122.34 166.706 122.088 166.706 121.62ZM176.106 121.032C175.59 120.24 174.834 119.844 173.838 119.844C172.998 119.844 172.278 120.156 171.69 120.768C171.102 121.38 170.802 122.124 170.802 123C170.802 123.876 171.102 124.632 171.69 125.244C172.278 125.856 172.998 126.156 173.838 126.156C174.834 126.156 175.59 125.76 176.106 124.968V126H177.15V120H176.106V121.032ZM173.97 125.148C173.37 125.148 172.866 124.944 172.458 124.536C172.05 124.116 171.846 123.612 171.846 123C171.846 122.388 172.05 121.884 172.458 121.476C172.866 121.056 173.37 120.852 173.97 120.852C174.582 120.852 175.086 121.056 175.494 121.476C175.902 121.884 176.106 122.388 176.106 123C176.106 123.612 175.902 124.116 175.494 124.536C175.086 124.944 174.582 125.148 173.97 125.148ZM181.552 126.156C182.716 126.156 183.736 125.544 184.252 124.596L183.364 124.08C183.028 124.716 182.356 125.124 181.552 125.124C180.952 125.124 180.448 124.92 180.04 124.512C179.644 124.104 179.44 123.6 179.44 123C179.44 122.388 179.644 121.884 180.04 121.476C180.448 121.068 180.952 120.864 181.552 120.864C182.356 120.864 183.028 121.284 183.328 121.92L184.204 121.416C183.736 120.456 182.74 119.844 181.552 119.844C180.652 119.844 179.896 120.144 179.296 120.756C178.696 121.356 178.396 122.1 178.396 123C178.396 123.9 178.696 124.644 179.296 125.256C179.896 125.856 180.652 126.156 181.552 126.156ZM188.546 120H186.95V118.32L185.906 118.632V120H184.718V121.008H185.906V124.26C185.906 125.748 186.722 126.24 188.546 126V125.064C187.478 125.112 186.95 125.184 186.95 124.26V121.008H188.546V120ZM190.31 118.908C190.694 118.908 191.006 118.596 191.006 118.212C191.006 117.828 190.694 117.504 190.31 117.504C189.914 117.504 189.602 117.828 189.602 118.212C189.602 118.596 189.914 118.908 190.31 118.908ZM190.826 126V120H189.782V126H190.826ZM197.483 125.244C198.095 124.632 198.407 123.888 198.407 123C198.407 122.112 198.095 121.368 197.483 120.756C196.871 120.144 196.115 119.844 195.239 119.844C194.363 119.844 193.607 120.144 192.995 120.756C192.383 121.368 192.083 122.112 192.083 123C192.083 123.888 192.383 124.632 192.995 125.244C193.607 125.856 194.363 126.156 195.239 126.156C196.115 126.156 196.871 125.856 197.483 125.244ZM195.239 125.136C194.651 125.136 194.147 124.932 193.739 124.524C193.331 124.116 193.127 123.612 193.127 123C193.127 122.388 193.331 121.884 193.739 121.476C194.147 121.068 194.651 120.864 195.239 120.864C195.839 120.864 196.343 121.068 196.751 121.476C197.159 121.884 197.363 122.388 197.363 123C197.363 123.612 197.159 124.116 196.751 124.524C196.343 124.932 195.839 125.136 195.239 125.136ZM202.626 119.844C201.75 119.844 201.102 120.18 200.682 120.864V120H199.638V126H200.682V122.82C200.682 121.476 201.378 120.84 202.422 120.84C203.346 120.84 203.91 121.404 203.91 122.376V126H204.954V122.316C204.954 120.792 204.03 119.844 202.626 119.844ZM212.723 119.844C211.727 119.844 210.971 120.24 210.455 121.032V120H209.411V128.4H210.455V124.968C210.971 125.76 211.727 126.156 212.723 126.156C213.563 126.156 214.283 125.856 214.871 125.244C215.459 124.632 215.759 123.876 215.759 123C215.759 122.124 215.459 121.38 214.871 120.768C214.283 120.156 213.563 119.844 212.723 119.844ZM212.591 125.148C211.979 125.148 211.475 124.944 211.067 124.536C210.659 124.116 210.455 123.612 210.455 123C210.455 122.388 210.659 121.884 211.067 121.476C211.475 121.056 211.979 120.852 212.591 120.852C213.191 120.852 213.695 121.056 214.103 121.476C214.511 121.884 214.715 122.388 214.715 123C214.715 123.612 214.511 124.116 214.103 124.536C213.695 124.944 213.191 125.148 212.591 125.148ZM217.533 118.908C217.917 118.908 218.229 118.596 218.229 118.212C218.229 117.828 217.917 117.504 217.533 117.504C217.137 117.504 216.825 117.828 216.825 118.212C216.825 118.596 217.137 118.908 217.533 118.908ZM218.049 126V120H217.005V126H218.049ZM222.63 119.844C221.754 119.844 221.106 120.18 220.686 120.864V120H219.642V126H220.686V122.82C220.686 121.476 221.382 120.84 222.426 120.84C223.35 120.84 223.914 121.404 223.914 122.376V126H224.958V122.316C224.958 120.792 224.034 119.844 222.63 119.844Z" fill="#222222"/>
<rect x="83.6727" y="141.129" width="32.2971" height="32.2971" rx="3.30312" fill="white" stroke="#C6C6C6" stroke-width="0.734026"/>
<rect x="125.512" y="141.129" width="32.2971" height="32.2971" rx="3.30312" fill="white" stroke="#C6C6C6" stroke-width="0.734026"/>
<rect x="167.352" y="141.129" width="32.2971" height="32.2971" rx="3.30312" fill="white" stroke="#C6C6C6" stroke-width="0.734026"/>
<rect x="209.191" y="141.129" width="32.2971" height="32.2971" rx="3.30312" fill="white" stroke="#C6C6C6" stroke-width="0.734026"/>
<rect x="251.03" y="141.129" width="32.2971" height="32.2971" rx="3.30312" fill="white" stroke="#C6C6C6" stroke-width="0.734026"/>
<path d="M28 216C28 211.582 31.5817 208 36 208H331C335.418 208 339 211.582 339 216V250C339 254.418 335.418 258 331 258H36C31.5817 258 28 254.418 28 250V216Z" fill="#1DBC86"/>
<path d="M163.404 236.182C164.3 236.182 165.126 235.972 165.882 235.538C166.638 235.104 167.226 234.516 167.632 233.788L166.498 233.144C165.938 234.208 164.748 234.908 163.404 234.908C162.27 234.908 161.346 234.544 160.632 233.816C159.918 233.088 159.568 232.178 159.568 231.1C159.568 230.008 159.918 229.098 160.632 228.37C161.346 227.642 162.27 227.278 163.404 227.278C164.748 227.278 165.938 227.978 166.498 229.056L167.632 228.398C166.792 226.942 165.196 226.018 163.404 226.018C161.92 226.018 160.688 226.508 159.722 227.488C158.756 228.468 158.28 229.672 158.28 231.1C158.28 232.528 158.756 233.732 159.722 234.712C160.688 235.692 161.92 236.182 163.404 236.182ZM174.861 235.118C175.575 234.404 175.939 233.536 175.939 232.5C175.939 231.464 175.575 230.596 174.861 229.882C174.147 229.168 173.265 228.818 172.243 228.818C171.221 228.818 170.339 229.168 169.625 229.882C168.911 230.596 168.561 231.464 168.561 232.5C168.561 233.536 168.911 234.404 169.625 235.118C170.339 235.832 171.221 236.182 172.243 236.182C173.265 236.182 174.147 235.832 174.861 235.118ZM172.243 234.992C171.557 234.992 170.969 234.754 170.493 234.278C170.017 233.802 169.779 233.214 169.779 232.5C169.779 231.786 170.017 231.198 170.493 230.722C170.969 230.246 171.557 230.008 172.243 230.008C172.943 230.008 173.531 230.246 174.007 230.722C174.483 231.198 174.721 231.786 174.721 232.5C174.721 233.214 174.483 233.802 174.007 234.278C173.531 234.754 172.943 234.992 172.243 234.992ZM180.861 228.818C179.839 228.818 179.083 229.21 178.593 230.008V229H177.375V236H178.593V232.29C178.593 230.722 179.405 229.98 180.623 229.98C181.701 229.98 182.359 230.638 182.359 231.772V236H183.577V231.702C183.577 229.924 182.499 228.818 180.861 228.818ZM187.028 229V228.79C187.028 227.614 187.602 227.194 188.876 227.194C189.268 227.194 189.744 227.236 190.318 227.306V226.2C189.744 226.074 189.254 226.018 188.876 226.018C186.832 226.018 185.81 226.942 185.81 228.79V229H184.69V230.176H185.81V236H187.028V230.176H189.618V236H190.836V229H187.028ZM193.919 229H192.701V236H193.919V232.29C193.919 231.52 194.129 230.974 194.563 230.624C194.997 230.274 195.501 230.12 196.103 230.148V228.874C195.053 228.874 194.325 229.308 193.919 230.176V229ZM204.855 228.818C203.875 228.818 203.147 229.21 202.657 230.008C202.223 229.21 201.537 228.818 200.599 228.818C199.689 228.818 198.989 229.196 198.513 229.938V229H197.295V236H198.513V232.108C198.513 230.694 199.283 229.98 200.305 229.98C201.215 229.98 201.789 230.61 201.789 231.688V236H203.007V232.108C203.007 230.666 203.679 229.98 204.729 229.98C205.667 229.98 206.269 230.61 206.269 231.688V236H207.487V231.646C207.487 229.91 206.423 228.818 204.855 228.818Z" fill="white"/>
<rect x="142.5" y="284" width="90" height="4" rx="2" fill="#C4C4C4"/>
</svg>
