<svg width="668" height="53" viewBox="0 0 668 53" fill="none" xmlns="http://www.w3.org/2000/svg">
<path d="M48.9583 1.2V2.784H54.1183V18H55.7983V2.784H60.9583V1.2H48.9583ZM68.2552 5.712C66.4552 5.712 65.1112 6.432 64.2232 7.872V1.2H62.6392V18H64.2232V11.712C64.2232 8.664 65.8072 7.248 68.1112 7.248C70.1992 7.248 71.3752 8.496 71.3752 10.632V18H72.9592V10.632C72.9592 7.632 71.1592 5.712 68.2552 5.712ZM81.086 5.712C79.238 5.712 77.75 6.312 76.574 7.512C75.398 8.712 74.822 10.2 74.822 12C74.822 13.824 75.422 15.336 76.598 16.512C77.774 17.688 79.31 18.288 81.206 18.288C83.534 18.288 85.43 17.232 86.486 15.528L85.094 14.712C84.422 15.936 83.054 16.752 81.23 16.752C78.662 16.752 76.766 15.216 76.454 12.792H86.99C87.014 12.48 87.038 12.216 87.038 12.048C87.038 10.344 86.486 8.856 85.382 7.608C84.302 6.336 82.862 5.712 81.086 5.712ZM81.086 7.248C82.166 7.248 83.126 7.608 83.942 8.304C84.758 9 85.238 9.984 85.406 11.256H76.454C76.766 8.88 78.59 7.248 81.086 7.248ZM90.6616 6H89.0776V18H90.6616V11.328C90.6616 8.568 92.2696 7.344 94.4536 7.344V5.808C92.6536 5.808 91.4056 6.528 90.6616 7.992V6ZM100.962 5.712C99.114 5.712 97.626 6.312 96.45 7.512C95.274 8.712 94.698 10.2 94.698 12C94.698 13.824 95.298 15.336 96.474 16.512C97.65 17.688 99.186 18.288 101.082 18.288C103.41 18.288 105.306 17.232 106.362 15.528L104.97 14.712C104.298 15.936 102.93 16.752 101.106 16.752C98.538 16.752 96.642 15.216 96.33 12.792H106.866C106.89 12.48 106.914 12.216 106.914 12.048C106.914 10.344 106.362 8.856 105.258 7.608C104.178 6.336 102.738 5.712 100.962 5.712ZM100.962 7.248C102.042 7.248 103.002 7.608 103.818 8.304C104.634 9 105.114 9.984 105.282 11.256H96.33C96.642 8.88 98.466 7.248 100.962 7.248ZM124.794 8.352C123.69 6.6 122.082 5.712 119.946 5.712C118.242 5.712 116.778 6.312 115.554 7.536C114.354 8.76 113.754 10.248 113.754 12C113.754 13.752 114.354 15.24 115.554 16.464C116.778 17.688 118.242 18.288 119.946 18.288C122.082 18.288 123.69 17.4 124.794 15.648V18H126.378V6H124.794V8.352ZM116.706 15.384C115.794 14.448 115.338 13.32 115.338 12C115.338 10.68 115.794 9.552 116.706 8.64C117.618 7.704 118.746 7.248 120.066 7.248C121.386 7.248 122.514 7.704 123.426 8.64C124.338 9.552 124.794 10.68 124.794 12C124.794 13.32 124.338 14.448 123.426 15.384C122.514 16.296 121.386 16.752 120.066 16.752C118.746 16.752 117.618 16.296 116.706 15.384ZM130.835 6H129.251V18H130.835V11.328C130.835 8.568 132.443 7.344 134.627 7.344V5.808C132.827 5.808 131.579 6.528 130.835 7.992V6ZM141.136 5.712C139.288 5.712 137.8 6.312 136.624 7.512C135.448 8.712 134.872 10.2 134.872 12C134.872 13.824 135.472 15.336 136.648 16.512C137.824 17.688 139.36 18.288 141.256 18.288C143.584 18.288 145.48 17.232 146.536 15.528L145.144 14.712C144.472 15.936 143.104 16.752 141.28 16.752C138.712 16.752 136.816 15.216 136.504 12.792H147.04C147.064 12.48 147.088 12.216 147.088 12.048C147.088 10.344 146.536 8.856 145.432 7.608C144.352 6.336 142.912 5.712 141.136 5.712ZM141.136 7.248C142.216 7.248 143.176 7.608 143.992 8.304C144.808 9 145.288 9.984 145.456 11.256H136.504C136.816 8.88 138.64 7.248 141.136 7.248ZM167.439 5.712C165.711 5.712 164.415 6.432 163.551 7.896C162.855 6.432 161.631 5.712 159.903 5.712C158.319 5.712 157.095 6.384 156.231 7.752V6H154.647V18H156.231V11.352C156.231 8.568 157.767 7.248 159.687 7.248C161.415 7.248 162.495 8.4 162.495 10.512V18H164.079V11.352C164.079 8.544 165.423 7.248 167.415 7.248C169.167 7.248 170.343 8.424 170.343 10.512V18H171.927V10.512C171.927 7.56 170.127 5.712 167.439 5.712ZM184.831 8.352C183.727 6.6 182.119 5.712 179.983 5.712C178.279 5.712 176.815 6.312 175.591 7.536C174.391 8.76 173.791 10.248 173.791 12C173.791 13.752 174.391 15.24 175.591 16.464C176.815 17.688 178.279 18.288 179.983 18.288C182.119 18.288 183.727 17.4 184.831 15.648V18H186.415V6H184.831V8.352ZM176.743 15.384C175.831 14.448 175.375 13.32 175.375 12C175.375 10.68 175.831 9.552 176.743 8.64C177.655 7.704 178.783 7.248 180.103 7.248C181.423 7.248 182.551 7.704 183.463 8.64C184.375 9.552 184.831 10.68 184.831 12C184.831 13.32 184.375 14.448 183.463 15.384C182.551 16.296 181.423 16.752 180.103 16.752C178.783 16.752 177.655 16.296 176.743 15.384ZM194.905 5.712C193.105 5.712 191.761 6.432 190.873 7.872V6H189.289V18H190.873V11.712C190.873 8.664 192.457 7.248 194.761 7.248C196.849 7.248 198.025 8.496 198.025 10.632V18H199.609V10.632C199.609 7.632 197.809 5.712 194.905 5.712ZM206.709 16.056L202.197 6H200.517L205.893 18.072L205.581 18.816C204.837 20.64 203.733 21.48 202.293 21.312V22.8C204.405 22.968 206.205 21.48 207.141 19.104L212.277 6H210.597L206.709 16.056ZM223.672 16.344L219.472 6H217.792L222.712 18H224.632L229.552 6H227.872L223.672 16.344ZM240.837 8.352C239.733 6.6 238.125 5.712 235.989 5.712C234.285 5.712 232.821 6.312 231.597 7.536C230.397 8.76 229.797 10.248 229.797 12C229.797 13.752 230.397 15.24 231.597 16.464C232.821 17.688 234.285 18.288 235.989 18.288C238.125 18.288 239.733 17.4 240.837 15.648V18H242.421V6H240.837V8.352ZM232.749 15.384C231.837 14.448 231.381 13.32 231.381 12C231.381 10.68 231.837 9.552 232.749 8.64C233.661 7.704 234.789 7.248 236.109 7.248C237.429 7.248 238.557 7.704 239.469 8.64C240.381 9.552 240.837 10.68 240.837 12C240.837 13.32 240.381 14.448 239.469 15.384C238.557 16.296 237.429 16.752 236.109 16.752C234.789 16.752 233.661 16.296 232.749 15.384ZM246.879 6H245.295V18H246.879V11.328C246.879 8.568 248.487 7.344 250.671 7.344V5.808C248.871 5.808 247.623 6.528 246.879 7.992V6ZM253.97 3.12C254.426 2.664 254.426 1.944 253.97 1.488C253.514 1.032 252.794 1.032 252.338 1.488C251.882 1.944 251.882 2.664 252.338 3.12C252.794 3.576 253.514 3.576 253.97 3.12ZM253.946 18V6H252.362V18H253.946ZM267.147 8.352C266.043 6.6 264.435 5.712 262.299 5.712C260.595 5.712 259.131 6.312 257.907 7.536C256.707 8.76 256.107 10.248 256.107 12C256.107 13.752 256.707 15.24 257.907 16.464C259.131 17.688 260.595 18.288 262.299 18.288C264.435 18.288 266.043 17.4 267.147 15.648V18H268.731V6H267.147V8.352ZM259.059 15.384C258.147 14.448 257.691 13.32 257.691 12C257.691 10.68 258.147 9.552 259.059 8.64C259.971 7.704 261.099 7.248 262.419 7.248C263.739 7.248 264.867 7.704 265.779 8.64C266.691 9.552 267.147 10.68 267.147 12C267.147 13.32 266.691 14.448 265.779 15.384C264.867 16.296 263.739 16.752 262.419 16.752C261.099 16.752 259.971 16.296 259.059 15.384ZM277.965 6H274.509V2.64L272.925 3.12V6H270.405V7.536H272.925V14.808C272.925 17.592 274.605 18.504 277.965 18V16.608C275.661 16.704 274.509 16.872 274.509 14.808V7.536H277.965V6ZM281.733 3.12C282.189 2.664 282.189 1.944 281.733 1.488C281.277 1.032 280.557 1.032 280.101 1.488C279.645 1.944 279.645 2.664 280.101 3.12C280.557 3.576 281.277 3.576 281.733 3.12ZM281.709 18V6H280.125V18H281.709ZM294.646 16.488C295.87 15.264 296.494 13.776 296.494 12C296.494 10.224 295.87 8.736 294.646 7.536C293.422 6.312 291.934 5.712 290.182 5.712C288.43 5.712 286.918 6.312 285.694 7.536C284.47 8.736 283.87 10.224 283.87 12C283.87 13.776 284.47 15.264 285.694 16.488C286.918 17.688 288.43 18.288 290.182 18.288C291.934 18.288 293.422 17.688 294.646 16.488ZM286.822 15.384C285.91 14.448 285.454 13.32 285.454 12C285.454 10.68 285.91 9.552 286.822 8.64C287.734 7.704 288.862 7.248 290.182 7.248C291.502 7.248 292.63 7.704 293.542 8.64C294.454 9.552 294.91 10.68 294.91 12C294.91 13.32 294.454 14.448 293.542 15.384C292.63 16.296 291.502 16.752 290.182 16.752C288.862 16.752 287.734 16.296 286.822 15.384ZM304.281 5.712C302.481 5.712 301.137 6.432 300.249 7.872V6H298.665V18H300.249V11.712C300.249 8.664 301.833 7.248 304.137 7.248C306.225 7.248 307.401 8.496 307.401 10.632V18H308.985V10.632C308.985 7.632 307.185 5.712 304.281 5.712ZM312.816 9.144C312.816 7.92 313.968 7.248 315.336 7.248C316.8 7.248 317.76 7.8 318.216 8.928L319.536 8.16C318.84 6.648 317.28 5.712 315.336 5.712C314.16 5.712 313.176 6.048 312.384 6.696C311.616 7.344 311.232 8.16 311.232 9.144C311.232 11.736 313.752 12.288 315.768 12.792C317.136 13.152 318.24 13.752 318.24 14.832C318.24 16.152 317.04 16.752 315.48 16.752C313.872 16.752 312.648 15.984 312.192 14.736L310.848 15.528C311.496 17.16 313.176 18.288 315.48 18.288C316.752 18.288 317.808 17.976 318.6 17.328C319.416 16.68 319.824 15.864 319.824 14.832C319.824 12.24 317.304 11.688 315.288 11.184C313.92 10.824 312.816 10.224 312.816 9.144ZM337.562 16.488C338.786 15.264 339.41 13.776 339.41 12C339.41 10.224 338.786 8.736 337.562 7.536C336.338 6.312 334.85 5.712 333.098 5.712C331.346 5.712 329.834 6.312 328.61 7.536C327.386 8.736 326.786 10.224 326.786 12C326.786 13.776 327.386 15.264 328.61 16.488C329.834 17.688 331.346 18.288 333.098 18.288C334.85 18.288 336.338 17.688 337.562 16.488ZM329.738 15.384C328.826 14.448 328.37 13.32 328.37 12C328.37 10.68 328.826 9.552 329.738 8.64C330.65 7.704 331.778 7.248 333.098 7.248C334.418 7.248 335.546 7.704 336.458 8.64C337.37 9.552 337.826 10.68 337.826 12C337.826 13.32 337.37 14.448 336.458 15.384C335.546 16.296 334.418 16.752 333.098 16.752C331.778 16.752 330.65 16.296 329.738 15.384ZM347.112 0.912C343.872 0.696 342.072 2.376 342.072 5.52V6H340.032V7.536H342.072V18H343.656V7.536H347.112V6H343.656V5.52C343.656 3.216 344.784 2.256 347.112 2.448V0.912ZM360.272 5.712C358.136 5.712 356.528 6.6 355.424 8.352V6H353.84V22.8H355.424V15.648C356.528 17.4 358.136 18.288 360.272 18.288C361.976 18.288 363.44 17.688 364.64 16.464C365.864 15.24 366.464 13.752 366.464 12C366.464 10.248 365.864 8.76 364.64 7.536C363.44 6.312 361.976 5.712 360.272 5.712ZM356.792 15.384C355.88 14.448 355.424 13.32 355.424 12C355.424 10.68 355.88 9.552 356.792 8.64C357.704 7.704 358.832 7.248 360.152 7.248C361.472 7.248 362.6 7.704 363.512 8.64C364.424 9.552 364.88 10.68 364.88 12C364.88 13.32 364.424 14.448 363.512 15.384C362.6 16.296 361.472 16.752 360.152 16.752C358.832 16.752 357.704 16.296 356.792 15.384ZM378.938 8.352C377.834 6.6 376.226 5.712 374.09 5.712C372.386 5.712 370.922 6.312 369.698 7.536C368.498 8.76 367.898 10.248 367.898 12C367.898 13.752 368.498 15.24 369.698 16.464C370.922 17.688 372.386 18.288 374.09 18.288C376.226 18.288 377.834 17.4 378.938 15.648V18H380.522V6H378.938V8.352ZM370.85 15.384C369.938 14.448 369.482 13.32 369.482 12C369.482 10.68 369.938 9.552 370.85 8.64C371.762 7.704 372.89 7.248 374.21 7.248C375.53 7.248 376.658 7.704 377.57 8.64C378.482 9.552 378.938 10.68 378.938 12C378.938 13.32 378.482 14.448 377.57 15.384C376.658 16.296 375.53 16.752 374.21 16.752C372.89 16.752 371.762 16.296 370.85 15.384ZM384.643 9.144C384.643 7.92 385.795 7.248 387.163 7.248C388.627 7.248 389.587 7.8 390.043 8.928L391.363 8.16C390.667 6.648 389.107 5.712 387.163 5.712C385.987 5.712 385.003 6.048 384.211 6.696C383.443 7.344 383.059 8.16 383.059 9.144C383.059 11.736 385.579 12.288 387.595 12.792C388.963 13.152 390.067 13.752 390.067 14.832C390.067 16.152 388.867 16.752 387.307 16.752C385.699 16.752 384.475 15.984 384.019 14.736L382.675 15.528C383.323 17.16 385.003 18.288 387.307 18.288C388.579 18.288 389.635 17.976 390.427 17.328C391.243 16.68 391.651 15.864 391.651 14.832C391.651 12.24 389.131 11.688 387.115 11.184C385.747 10.824 384.643 10.224 384.643 9.144ZM394.335 9.144C394.335 7.92 395.487 7.248 396.855 7.248C398.319 7.248 399.279 7.8 399.735 8.928L401.055 8.16C400.359 6.648 398.799 5.712 396.855 5.712C395.679 5.712 394.695 6.048 393.903 6.696C393.135 7.344 392.751 8.16 392.751 9.144C392.751 11.736 395.271 12.288 397.287 12.792C398.655 13.152 399.759 13.752 399.759 14.832C399.759 16.152 398.559 16.752 396.999 16.752C395.391 16.752 394.167 15.984 393.711 14.736L392.367 15.528C393.015 17.16 394.695 18.288 396.999 18.288C398.271 18.288 399.327 17.976 400.119 17.328C400.935 16.68 401.343 15.864 401.343 14.832C401.343 12.24 398.823 11.688 396.807 11.184C395.439 10.824 394.335 10.224 394.335 9.144ZM413.474 8.352C412.37 6.6 410.762 5.712 408.626 5.712C406.922 5.712 405.458 6.312 404.234 7.536C403.034 8.76 402.434 10.248 402.434 12C402.434 13.752 403.034 15.24 404.234 16.464C405.458 17.688 406.922 18.288 408.626 18.288C410.762 18.288 412.37 17.4 413.474 15.648V18H415.058V6H413.474V8.352ZM405.386 15.384C404.474 14.448 404.018 13.32 404.018 12C404.018 10.68 404.474 9.552 405.386 8.64C406.298 7.704 407.426 7.248 408.746 7.248C410.066 7.248 411.194 7.704 412.106 8.64C413.018 9.552 413.474 10.68 413.474 12C413.474 13.32 413.018 14.448 412.106 15.384C411.194 16.296 410.066 16.752 408.746 16.752C407.426 16.752 406.298 16.296 405.386 15.384ZM428.252 8.352C427.148 6.6 425.54 5.712 423.404 5.712C421.7 5.712 420.236 6.312 419.012 7.536C417.812 8.76 417.212 10.248 417.212 12C417.212 13.752 417.812 15.24 419.012 16.464C420.236 17.688 421.7 18.288 423.404 18.288C425.54 18.288 427.148 17.4 428.252 15.648V17.52C428.252 19.992 426.572 21.552 423.812 21.552C421.676 21.552 420.236 20.832 419.516 19.368L418.124 20.16C419.108 22.104 421.004 23.088 423.812 23.088C425.468 23.088 426.884 22.584 428.06 21.6C429.236 20.616 429.836 19.248 429.836 17.52V6H428.252V8.352ZM420.164 15.384C419.252 14.448 418.796 13.32 418.796 12C418.796 10.68 419.252 9.552 420.164 8.64C421.076 7.704 422.204 7.248 423.524 7.248C424.844 7.248 425.972 7.704 426.884 8.64C427.796 9.552 428.252 10.68 428.252 12C428.252 13.32 427.796 14.448 426.884 15.384C425.972 16.296 424.844 16.752 423.524 16.752C422.204 16.752 421.076 16.296 420.164 15.384ZM438.254 5.712C436.406 5.712 434.918 6.312 433.742 7.512C432.566 8.712 431.99 10.2 431.99 12C431.99 13.824 432.59 15.336 433.766 16.512C434.942 17.688 436.478 18.288 438.374 18.288C440.702 18.288 442.598 17.232 443.654 15.528L442.262 14.712C441.59 15.936 440.222 16.752 438.398 16.752C435.83 16.752 433.934 15.216 433.622 12.792H444.158C444.182 12.48 444.206 12.216 444.206 12.048C444.206 10.344 443.654 8.856 442.55 7.608C441.47 6.336 440.03 5.712 438.254 5.712ZM438.254 7.248C439.334 7.248 440.294 7.608 441.11 8.304C441.926 9 442.406 9.984 442.574 11.256H433.622C433.934 8.88 435.758 7.248 438.254 7.248ZM447.025 9.144C447.025 7.92 448.177 7.248 449.545 7.248C451.009 7.248 451.969 7.8 452.425 8.928L453.745 8.16C453.049 6.648 451.489 5.712 449.545 5.712C448.369 5.712 447.385 6.048 446.593 6.696C445.825 7.344 445.441 8.16 445.441 9.144C445.441 11.736 447.961 12.288 449.977 12.792C451.345 13.152 452.449 13.752 452.449 14.832C452.449 16.152 451.249 16.752 449.689 16.752C448.081 16.752 446.857 15.984 446.401 14.736L445.057 15.528C445.705 17.16 447.385 18.288 449.689 18.288C450.961 18.288 452.017 17.976 452.809 17.328C453.625 16.68 454.033 15.864 454.033 14.832C454.033 12.24 451.513 11.688 449.497 11.184C448.129 10.824 447.025 10.224 447.025 9.144ZM471.771 16.488C472.995 15.264 473.619 13.776 473.619 12C473.619 10.224 472.995 8.736 471.771 7.536C470.547 6.312 469.059 5.712 467.307 5.712C465.555 5.712 464.043 6.312 462.819 7.536C461.595 8.736 460.995 10.224 460.995 12C460.995 13.776 461.595 15.264 462.819 16.488C464.043 17.688 465.555 18.288 467.307 18.288C469.059 18.288 470.547 17.688 471.771 16.488ZM463.947 15.384C463.035 14.448 462.579 13.32 462.579 12C462.579 10.68 463.035 9.552 463.947 8.64C464.859 7.704 465.987 7.248 467.307 7.248C468.627 7.248 469.755 7.704 470.667 8.64C471.579 9.552 472.035 10.68 472.035 12C472.035 13.32 471.579 14.448 470.667 15.384C469.755 16.296 468.627 16.752 467.307 16.752C465.987 16.752 464.859 16.296 463.947 15.384ZM481.321 0.912C478.081 0.696 476.281 2.376 476.281 5.52V6H474.241V7.536H476.281V18H477.865V7.536H481.321V6H477.865V5.52C477.865 3.216 478.993 2.256 481.321 2.448V0.912ZM489.969 1.2H488.289V18H497.649V16.416H489.969V1.2ZM508.781 16.488C510.005 15.264 510.629 13.776 510.629 12C510.629 10.224 510.005 8.736 508.781 7.536C507.557 6.312 506.069 5.712 504.317 5.712C502.565 5.712 501.053 6.312 499.829 7.536C498.605 8.736 498.005 10.224 498.005 12C498.005 13.776 498.605 15.264 499.829 16.488C501.053 17.688 502.565 18.288 504.317 18.288C506.069 18.288 507.557 17.688 508.781 16.488ZM500.957 15.384C500.045 14.448 499.589 13.32 499.589 12C499.589 10.68 500.045 9.552 500.957 8.64C501.869 7.704 502.997 7.248 504.317 7.248C505.637 7.248 506.765 7.704 507.677 8.64C508.589 9.552 509.045 10.68 509.045 12C509.045 13.32 508.589 14.448 507.677 15.384C506.765 16.296 505.637 16.752 504.317 16.752C502.997 16.752 501.869 16.296 500.957 15.384ZM514.384 6H512.8V18H514.384V11.328C514.384 8.568 515.992 7.344 518.176 7.344V5.808C516.376 5.808 515.128 6.528 514.384 7.992V6ZM524.684 5.712C522.836 5.712 521.348 6.312 520.172 7.512C518.996 8.712 518.42 10.2 518.42 12C518.42 13.824 519.02 15.336 520.196 16.512C521.372 17.688 522.908 18.288 524.804 18.288C527.132 18.288 529.028 17.232 530.084 15.528L528.692 14.712C528.02 15.936 526.652 16.752 524.828 16.752C522.26 16.752 520.364 15.216 520.052 12.792H530.588C530.612 12.48 530.636 12.216 530.636 12.048C530.636 10.344 530.084 8.856 528.98 7.608C527.9 6.336 526.46 5.712 524.684 5.712ZM524.684 7.248C525.764 7.248 526.724 7.608 527.54 8.304C528.356 9 528.836 9.984 529.004 11.256H520.052C520.364 8.88 522.188 7.248 524.684 7.248ZM545.467 5.712C543.739 5.712 542.443 6.432 541.579 7.896C540.883 6.432 539.659 5.712 537.931 5.712C536.347 5.712 535.123 6.384 534.259 7.752V6H532.675V18H534.259V11.352C534.259 8.568 535.795 7.248 537.715 7.248C539.443 7.248 540.523 8.4 540.523 10.512V18H542.107V11.352C542.107 8.544 543.451 7.248 545.443 7.248C547.195 7.248 548.371 8.424 548.371 10.512V18H549.955V10.512C549.955 7.56 548.155 5.712 545.467 5.712ZM558.299 18H559.979V1.2H558.299V18ZM569.542 5.712C567.406 5.712 565.798 6.6 564.694 8.352V6H563.11V22.8H564.694V15.648C565.798 17.4 567.406 18.288 569.542 18.288C571.246 18.288 572.71 17.688 573.91 16.464C575.134 15.24 575.734 13.752 575.734 12C575.734 10.248 575.134 8.76 573.91 7.536C572.71 6.312 571.246 5.712 569.542 5.712ZM566.062 15.384C565.15 14.448 564.694 13.32 564.694 12C564.694 10.68 565.15 9.552 566.062 8.64C566.974 7.704 568.102 7.248 569.422 7.248C570.742 7.248 571.87 7.704 572.782 8.64C573.694 9.552 574.15 10.68 574.15 12C574.15 13.32 573.694 14.448 572.782 15.384C571.87 16.296 570.742 16.752 569.422 16.752C568.102 16.752 566.974 16.296 566.062 15.384ZM578.902 9.144C578.902 7.92 580.054 7.248 581.422 7.248C582.886 7.248 583.846 7.8 584.302 8.928L585.622 8.16C584.926 6.648 583.366 5.712 581.422 5.712C580.246 5.712 579.262 6.048 578.47 6.696C577.702 7.344 577.318 8.16 577.318 9.144C577.318 11.736 579.838 12.288 581.854 12.792C583.222 13.152 584.326 13.752 584.326 14.832C584.326 16.152 583.126 16.752 581.566 16.752C579.958 16.752 578.734 15.984 578.278 14.736L576.934 15.528C577.582 17.16 579.262 18.288 581.566 18.288C582.838 18.288 583.894 17.976 584.686 17.328C585.502 16.68 585.91 15.864 585.91 14.832C585.91 12.24 583.39 11.688 581.374 11.184C580.006 10.824 578.902 10.224 578.902 9.144ZM596.403 12.288C596.403 15.336 594.819 16.752 592.515 16.752C590.427 16.752 589.251 15.504 589.251 13.368V6H587.667V13.368C587.667 16.368 589.467 18.288 592.371 18.288C594.171 18.288 595.515 17.568 596.403 16.128V18H597.987V6H596.403V12.288ZM613.65 5.712C611.922 5.712 610.626 6.432 609.762 7.896C609.066 6.432 607.842 5.712 606.114 5.712C604.53 5.712 603.306 6.384 602.442 7.752V6H600.858V18H602.442V11.352C602.442 8.568 603.978 7.248 605.898 7.248C607.626 7.248 608.706 8.4 608.706 10.512V18H610.29V11.352C610.29 8.544 611.634 7.248 613.626 7.248C615.378 7.248 616.554 8.424 616.554 10.512V18H618.138V10.512C618.138 7.56 616.338 5.712 613.65 5.712ZM11.2802 37.352C10.1762 35.6 8.56815 34.712 6.43215 34.712C4.72815 34.712 3.26415 35.312 2.04015 36.536C0.840151 37.76 0.240151 39.248 0.240151 41C0.240151 42.752 0.840151 44.24 2.04015 45.464C3.26415 46.688 4.72815 47.288 6.43215 47.288C8.56815 47.288 10.1762 46.4 11.2802 44.648V47H12.8642V35H11.2802V37.352ZM3.19215 44.384C2.28015 43.448 1.82415 42.32 1.82415 41C1.82415 39.68 2.28015 38.552 3.19215 37.64C4.10415 36.704 5.23215 36.248 6.55215 36.248C7.87215 36.248 9.00015 36.704 9.91215 37.64C10.8242 38.552 11.2802 39.68 11.2802 41C11.2802 42.32 10.8242 43.448 9.91215 44.384C9.00015 45.296 7.87215 45.752 6.55215 45.752C5.23215 45.752 4.10415 45.296 3.19215 44.384ZM20.178 45.344L15.978 35H14.298L19.218 47H21.138L26.058 35H24.378L20.178 45.344ZM37.3436 37.352C36.2396 35.6 34.6316 34.712 32.4956 34.712C30.7916 34.712 29.3276 35.312 28.1036 36.536C26.9036 37.76 26.3036 39.248 26.3036 41C26.3036 42.752 26.9036 44.24 28.1036 45.464C29.3276 46.688 30.7916 47.288 32.4956 47.288C34.6316 47.288 36.2396 46.4 37.3436 44.648V47H38.9276V35H37.3436V37.352ZM29.2556 44.384C28.3436 43.448 27.8876 42.32 27.8876 41C27.8876 39.68 28.3436 38.552 29.2556 37.64C30.1676 36.704 31.2956 36.248 32.6156 36.248C33.9356 36.248 35.0636 36.704 35.9756 37.64C36.8876 38.552 37.3436 39.68 37.3436 41C37.3436 42.32 36.8876 43.448 35.9756 44.384C35.0636 45.296 33.9356 45.752 32.6156 45.752C31.2956 45.752 30.1676 45.296 29.2556 44.384ZM43.4094 32.12C43.8654 31.664 43.8654 30.944 43.4094 30.488C42.9534 30.032 42.2334 30.032 41.7774 30.488C41.3214 30.944 41.3214 31.664 41.7774 32.12C42.2334 32.576 42.9534 32.576 43.4094 32.12ZM43.3854 47V35H41.8014V47H43.3854ZM47.8507 47V29.48H46.2667V47H47.8507ZM61.052 37.352C59.948 35.6 58.34 34.712 56.204 34.712C54.5 34.712 53.036 35.312 51.812 36.536C50.612 37.76 50.012 39.248 50.012 41C50.012 42.752 50.612 44.24 51.812 45.464C53.036 46.688 54.5 47.288 56.204 47.288C58.34 47.288 59.948 46.4 61.052 44.648V47H62.636V35H61.052V37.352ZM52.964 44.384C52.052 43.448 51.596 42.32 51.596 41C51.596 39.68 52.052 38.552 52.964 37.64C53.876 36.704 55.004 36.248 56.324 36.248C57.644 36.248 58.772 36.704 59.684 37.64C60.596 38.552 61.052 39.68 61.052 41C61.052 42.32 60.596 43.448 59.684 44.384C58.772 45.296 57.644 45.752 56.324 45.752C55.004 45.752 53.876 45.296 52.964 44.384ZM71.9418 34.712C69.8058 34.712 68.1978 35.6 67.0938 37.352V30.2H65.5098V47H67.0938V44.648C68.1978 46.4 69.8058 47.288 71.9418 47.288C73.6458 47.288 75.1098 46.688 76.3098 45.464C77.5338 44.24 78.1338 42.752 78.1338 41C78.1338 39.248 77.5338 37.76 76.3098 36.536C75.1098 35.312 73.6458 34.712 71.9418 34.712ZM68.4618 44.384C67.5498 43.448 67.0938 42.32 67.0938 41C67.0938 39.68 67.5498 38.552 68.4618 37.64C69.3738 36.704 70.5018 36.248 71.8218 36.248C73.1418 36.248 74.2698 36.704 75.1818 37.64C76.0938 38.552 76.5498 39.68 76.5498 41C76.5498 42.32 76.0938 43.448 75.1818 44.384C74.2698 45.296 73.1418 45.752 71.8218 45.752C70.5018 45.752 69.3738 45.296 68.4618 44.384ZM81.8717 47V29.48H80.2877V47H81.8717ZM90.297 34.712C88.449 34.712 86.961 35.312 85.785 36.512C84.609 37.712 84.033 39.2 84.033 41C84.033 42.824 84.633 44.336 85.809 45.512C86.985 46.688 88.521 47.288 90.417 47.288C92.745 47.288 94.641 46.232 95.697 44.528L94.305 43.712C93.633 44.936 92.265 45.752 90.441 45.752C87.873 45.752 85.977 44.216 85.665 41.792H96.201C96.225 41.48 96.249 41.216 96.249 41.048C96.249 39.344 95.697 37.856 94.593 36.608C93.513 35.336 92.073 34.712 90.297 34.712ZM90.297 36.248C91.377 36.248 92.337 36.608 93.153 37.304C93.969 38 94.449 38.984 94.617 40.256H85.665C85.977 37.88 87.801 36.248 90.297 36.248ZM98.0477 44.96L97.0877 50.36H98.5277L99.9677 44.96H98.0477ZM114.565 34.712C112.429 34.712 110.821 35.6 109.717 37.352V30.2H108.133V47H109.717V44.648C110.821 46.4 112.429 47.288 114.565 47.288C116.269 47.288 117.733 46.688 118.933 45.464C120.157 44.24 120.757 42.752 120.757 41C120.757 39.248 120.157 37.76 118.933 36.536C117.733 35.312 116.269 34.712 114.565 34.712ZM111.085 44.384C110.173 43.448 109.717 42.32 109.717 41C109.717 39.68 110.173 38.552 111.085 37.64C111.997 36.704 113.125 36.248 114.445 36.248C115.765 36.248 116.893 36.704 117.805 37.64C118.717 38.552 119.173 39.68 119.173 41C119.173 42.32 118.717 43.448 117.805 44.384C116.893 45.296 115.765 45.752 114.445 45.752C113.125 45.752 111.997 45.296 111.085 44.384ZM131.359 41.288C131.359 44.336 129.775 45.752 127.471 45.752C125.383 45.752 124.207 44.504 124.207 42.368V35H122.623V42.368C122.623 45.368 124.423 47.288 127.327 47.288C129.127 47.288 130.471 46.568 131.359 45.128V47H132.943V35H131.359V41.288ZM142.174 35H138.718V31.64L137.134 32.12V35H134.614V36.536H137.134V43.808C137.134 46.592 138.814 47.504 142.174 47V45.608C139.87 45.704 138.718 45.872 138.718 43.808V36.536H142.174V35ZM156.214 35H152.758V31.64L151.174 32.12V35H148.654V36.536H151.174V43.808C151.174 46.592 152.854 47.504 156.214 47V45.608C153.91 45.704 152.758 45.872 152.758 43.808V36.536H156.214V35ZM163.99 34.712C162.19 34.712 160.846 35.432 159.958 36.872V30.2H158.374V47H159.958V40.712C159.958 37.664 161.542 36.248 163.846 36.248C165.934 36.248 167.11 37.496 167.11 39.632V47H168.694V39.632C168.694 36.632 166.894 34.712 163.99 34.712ZM176.821 34.712C174.973 34.712 173.485 35.312 172.309 36.512C171.133 37.712 170.557 39.2 170.557 41C170.557 42.824 171.157 44.336 172.333 45.512C173.509 46.688 175.045 47.288 176.941 47.288C179.269 47.288 181.165 46.232 182.221 44.528L180.829 43.712C180.157 44.936 178.789 45.752 176.965 45.752C174.397 45.752 172.501 44.216 172.189 41.792H182.725C182.749 41.48 182.773 41.216 182.773 41.048C182.773 39.344 182.221 37.856 181.117 36.608C180.037 35.336 178.597 34.712 176.821 34.712ZM176.821 36.248C177.901 36.248 178.861 36.608 179.677 37.304C180.493 38 180.973 38.984 181.141 40.256H172.189C172.501 37.88 174.325 36.248 176.821 36.248ZM203.124 34.712C201.396 34.712 200.1 35.432 199.236 36.896C198.54 35.432 197.316 34.712 195.588 34.712C194.004 34.712 192.78 35.384 191.916 36.752V35H190.332V47H191.916V40.352C191.916 37.568 193.452 36.248 195.372 36.248C197.1 36.248 198.18 37.4 198.18 39.512V47H199.764V40.352C199.764 37.544 201.108 36.248 203.1 36.248C204.852 36.248 206.028 37.424 206.028 39.512V47H207.612V39.512C207.612 36.56 205.812 34.712 203.124 34.712ZM220.516 37.352C219.412 35.6 217.804 34.712 215.668 34.712C213.964 34.712 212.5 35.312 211.276 36.536C210.076 37.76 209.476 39.248 209.476 41C209.476 42.752 210.076 44.24 211.276 45.464C212.5 46.688 213.964 47.288 215.668 47.288C217.804 47.288 219.412 46.4 220.516 44.648V47H222.1V35H220.516V37.352ZM212.428 44.384C211.516 43.448 211.06 42.32 211.06 41C211.06 39.68 211.516 38.552 212.428 37.64C213.34 36.704 214.468 36.248 215.788 36.248C217.108 36.248 218.236 36.704 219.148 37.64C220.06 38.552 220.516 39.68 220.516 41C220.516 42.32 220.06 43.448 219.148 44.384C218.236 45.296 217.108 45.752 215.788 45.752C214.468 45.752 213.34 45.296 212.428 44.384ZM225.292 30.488C224.836 30.944 224.836 31.664 225.292 32.12C225.748 32.576 226.468 32.576 226.924 32.12C227.38 31.664 227.38 30.944 226.924 30.488C226.468 30.032 225.748 30.032 225.292 30.488ZM225.316 47.96C225.316 50 224.476 50.744 222.58 50.552V52.088C225.34 52.352 226.9 50.84 226.9 47.96V35H225.316V47.96ZM239.847 45.488C241.071 44.264 241.695 42.776 241.695 41C241.695 39.224 241.071 37.736 239.847 36.536C238.623 35.312 237.135 34.712 235.383 34.712C233.631 34.712 232.119 35.312 230.895 36.536C229.671 37.736 229.071 39.224 229.071 41C229.071 42.776 229.671 44.264 230.895 45.488C232.119 46.688 233.631 47.288 235.383 47.288C237.135 47.288 238.623 46.688 239.847 45.488ZM232.023 44.384C231.111 43.448 230.655 42.32 230.655 41C230.655 39.68 231.111 38.552 232.023 37.64C232.935 36.704 234.063 36.248 235.383 36.248C236.703 36.248 237.831 36.704 238.743 37.64C239.655 38.552 240.111 39.68 240.111 41C240.111 42.32 239.655 43.448 238.743 44.384C237.831 45.296 236.703 45.752 235.383 45.752C234.063 45.752 232.935 45.296 232.023 44.384ZM245.449 35H243.865V47H245.449V40.328C245.449 37.568 247.057 36.344 249.241 36.344V34.808C247.441 34.808 246.193 35.528 245.449 36.992V35ZM252.54 32.12C252.996 31.664 252.996 30.944 252.54 30.488C252.084 30.032 251.364 30.032 250.908 30.488C250.452 30.944 250.452 31.664 250.908 32.12C251.364 32.576 252.084 32.576 252.54 32.12ZM252.516 47V35H250.932V47H252.516ZM261.758 35H258.302V31.64L256.718 32.12V35H254.198V36.536H256.718V43.808C256.718 46.592 258.398 47.504 261.758 47V45.608C259.454 45.704 258.302 45.872 258.302 43.808V36.536H261.758V35ZM268.904 45.056L264.392 35H262.712L268.088 47.072L267.776 47.816C267.032 49.64 265.928 50.48 264.488 50.312V51.8C266.6 51.968 268.4 50.48 269.336 48.104L274.472 35H272.792L268.904 45.056ZM287.042 34.712C285.242 34.712 283.898 35.432 283.01 36.872V30.2H281.426V47H283.01V40.712C283.01 37.664 284.594 36.248 286.898 36.248C288.986 36.248 290.162 37.496 290.162 39.632V47H291.746V39.632C291.746 36.632 289.946 34.712 287.042 34.712ZM304.649 37.352C303.545 35.6 301.937 34.712 299.801 34.712C298.097 34.712 296.633 35.312 295.409 36.536C294.209 37.76 293.609 39.248 293.609 41C293.609 42.752 294.209 44.24 295.409 45.464C296.633 46.688 298.097 47.288 299.801 47.288C301.937 47.288 303.545 46.4 304.649 44.648V47H306.233V35H304.649V37.352ZM296.561 44.384C295.649 43.448 295.193 42.32 295.193 41C295.193 39.68 295.649 38.552 296.561 37.64C297.473 36.704 298.601 36.248 299.921 36.248C301.241 36.248 302.369 36.704 303.281 37.64C304.193 38.552 304.649 39.68 304.649 41C304.649 42.32 304.193 43.448 303.281 44.384C302.369 45.296 301.241 45.752 299.921 45.752C298.601 45.752 297.473 45.296 296.561 44.384ZM313.547 45.344L309.347 35H307.667L312.587 47H314.507L319.427 35H317.747L313.547 45.344ZM325.937 34.712C324.089 34.712 322.601 35.312 321.425 36.512C320.249 37.712 319.673 39.2 319.673 41C319.673 42.824 320.273 44.336 321.449 45.512C322.625 46.688 324.161 47.288 326.057 47.288C328.385 47.288 330.281 46.232 331.337 44.528L329.945 43.712C329.273 44.936 327.905 45.752 326.081 45.752C323.513 45.752 321.617 44.216 321.305 41.792H331.841C331.865 41.48 331.889 41.216 331.889 41.048C331.889 39.344 331.337 37.856 330.233 36.608C329.153 35.336 327.713 34.712 325.937 34.712ZM325.937 36.248C327.017 36.248 327.977 36.608 328.793 37.304C329.609 38 330.089 38.984 330.257 40.256H321.305C321.617 37.88 323.441 36.248 325.937 36.248ZM340.696 38.144C340.696 36.92 341.848 36.248 343.216 36.248C344.68 36.248 345.64 36.8 346.096 37.928L347.416 37.16C346.72 35.648 345.16 34.712 343.216 34.712C342.04 34.712 341.056 35.048 340.264 35.696C339.496 36.344 339.112 37.16 339.112 38.144C339.112 40.736 341.632 41.288 343.648 41.792C345.016 42.152 346.12 42.752 346.12 43.832C346.12 45.152 344.92 45.752 343.36 45.752C341.752 45.752 340.528 44.984 340.072 43.736L338.728 44.528C339.376 46.16 341.056 47.288 343.36 47.288C344.632 47.288 345.688 46.976 346.48 46.328C347.296 45.68 347.704 44.864 347.704 43.832C347.704 41.24 345.184 40.688 343.168 40.184C341.8 39.824 340.696 39.224 340.696 38.144ZM358.198 41.288C358.198 44.336 356.614 45.752 354.31 45.752C352.222 45.752 351.046 44.504 351.046 42.368V35H349.462V42.368C349.462 45.368 351.262 47.288 354.166 47.288C355.966 47.288 357.31 46.568 358.198 45.128V47H359.782V35H358.198V41.288ZM375.132 29.672C371.892 29.456 370.092 31.136 370.092 34.28V35H365.196V34.52C365.196 32.216 366.324 31.256 368.652 31.448V29.912C365.412 29.696 363.612 31.376 363.612 34.52V35H361.572V36.536H363.612V47H365.196V36.536H370.092V47H371.676V36.536H375.132V35H371.676V34.28C371.676 31.976 372.804 31.016 375.132 31.208V29.672ZM381.146 34.712C379.298 34.712 377.81 35.312 376.634 36.512C375.458 37.712 374.882 39.2 374.882 41C374.882 42.824 375.482 44.336 376.658 45.512C377.834 46.688 379.37 47.288 381.266 47.288C383.594 47.288 385.49 46.232 386.546 44.528L385.154 43.712C384.482 44.936 383.114 45.752 381.29 45.752C378.722 45.752 376.826 44.216 376.514 41.792H387.05C387.074 41.48 387.098 41.216 387.098 41.048C387.098 39.344 386.546 37.856 385.442 36.608C384.362 35.336 382.922 34.712 381.146 34.712ZM381.146 36.248C382.226 36.248 383.186 36.608 384.002 37.304C384.818 38 385.298 38.984 385.466 40.256H376.514C376.826 37.88 378.65 36.248 381.146 36.248ZM390.722 35H389.138V47H390.722V40.328C390.722 37.568 392.33 36.344 394.514 36.344V34.808C392.714 34.808 391.466 35.528 390.722 36.992V35ZM401.022 34.712C399.174 34.712 397.686 35.312 396.51 36.512C395.334 37.712 394.758 39.2 394.758 41C394.758 42.824 395.358 44.336 396.534 45.512C397.71 46.688 399.246 47.288 401.142 47.288C403.47 47.288 405.366 46.232 406.422 44.528L405.03 43.712C404.358 44.936 402.99 45.752 401.166 45.752C398.598 45.752 396.702 44.216 396.39 41.792H406.926C406.95 41.48 406.974 41.216 406.974 41.048C406.974 39.344 406.422 37.856 405.318 36.608C404.238 35.336 402.798 34.712 401.022 34.712ZM401.022 36.248C402.102 36.248 403.062 36.608 403.878 37.304C404.694 38 405.174 38.984 405.342 40.256H396.39C396.702 37.88 398.526 36.248 401.022 36.248ZM419.334 37.352C418.23 35.6 416.622 34.712 414.486 34.712C412.782 34.712 411.318 35.312 410.094 36.536C408.894 37.76 408.294 39.248 408.294 41C408.294 42.752 408.894 44.24 410.094 45.464C411.318 46.688 412.782 47.288 414.486 47.288C416.622 47.288 418.23 46.4 419.334 44.648V47H420.918V30.2H419.334V37.352ZM411.246 44.384C410.334 43.448 409.878 42.32 409.878 41C409.878 39.68 410.334 38.552 411.246 37.64C412.158 36.704 413.286 36.248 414.606 36.248C415.926 36.248 417.054 36.704 417.966 37.64C418.878 38.552 419.334 39.68 419.334 41C419.334 42.32 418.878 43.448 417.966 44.384C417.054 45.296 415.926 45.752 414.606 45.752C413.286 45.752 412.158 45.296 411.246 44.384ZM439.631 37.352C438.527 35.6 436.919 34.712 434.783 34.712C433.079 34.712 431.615 35.312 430.391 36.536C429.191 37.76 428.591 39.248 428.591 41C428.591 42.752 429.191 44.24 430.391 45.464C431.615 46.688 433.079 47.288 434.783 47.288C436.919 47.288 438.527 46.4 439.631 44.648V47H441.215V35H439.631V37.352ZM431.543 44.384C430.631 43.448 430.175 42.32 430.175 41C430.175 39.68 430.631 38.552 431.543 37.64C432.455 36.704 433.583 36.248 434.903 36.248C436.223 36.248 437.351 36.704 438.263 37.64C439.175 38.552 439.631 39.68 439.631 41C439.631 42.32 439.175 43.448 438.263 44.384C437.351 45.296 436.223 45.752 434.903 45.752C433.583 45.752 432.455 45.296 431.543 44.384ZM445.673 47V29.48H444.089V47H445.673ZM454.915 35H451.459V31.64L449.875 32.12V35H447.355V36.536H449.875V43.808C449.875 46.592 451.555 47.504 454.915 47V45.608C452.611 45.704 451.459 45.872 451.459 43.808V36.536H454.915V35ZM461.892 34.712C460.044 34.712 458.556 35.312 457.38 36.512C456.204 37.712 455.628 39.2 455.628 41C455.628 42.824 456.228 44.336 457.404 45.512C458.58 46.688 460.116 47.288 462.012 47.288C464.34 47.288 466.236 46.232 467.292 44.528L465.9 43.712C465.228 44.936 463.86 45.752 462.036 45.752C459.468 45.752 457.572 44.216 457.26 41.792H467.796C467.82 41.48 467.844 41.216 467.844 41.048C467.844 39.344 467.292 37.856 466.188 36.608C465.108 35.336 463.668 34.712 461.892 34.712ZM461.892 36.248C462.972 36.248 463.932 36.608 464.748 37.304C465.564 38 466.044 38.984 466.212 40.256H457.26C457.572 37.88 459.396 36.248 461.892 36.248ZM471.468 35H469.884V47H471.468V40.328C471.468 37.568 473.076 36.344 475.26 36.344V34.808C473.46 34.808 472.212 35.528 471.468 36.992V35ZM486.544 37.352C485.44 35.6 483.832 34.712 481.696 34.712C479.992 34.712 478.528 35.312 477.304 36.536C476.104 37.76 475.504 39.248 475.504 41C475.504 42.752 476.104 44.24 477.304 45.464C478.528 46.688 479.992 47.288 481.696 47.288C483.832 47.288 485.44 46.4 486.544 44.648V47H488.128V35H486.544V37.352ZM478.456 44.384C477.544 43.448 477.088 42.32 477.088 41C477.088 39.68 477.544 38.552 478.456 37.64C479.368 36.704 480.496 36.248 481.816 36.248C483.136 36.248 484.264 36.704 485.176 37.64C486.088 38.552 486.544 39.68 486.544 41C486.544 42.32 486.088 43.448 485.176 44.384C484.264 45.296 483.136 45.752 481.816 45.752C480.496 45.752 479.368 45.296 478.456 44.384ZM497.362 35H493.906V31.64L492.322 32.12V35H489.802V36.536H492.322V43.808C492.322 46.592 494.002 47.504 497.362 47V45.608C495.058 45.704 493.906 45.872 493.906 43.808V36.536H497.362V35ZM501.13 32.12C501.586 31.664 501.586 30.944 501.13 30.488C500.674 30.032 499.954 30.032 499.498 30.488C499.042 30.944 499.042 31.664 499.498 32.12C499.954 32.576 500.674 32.576 501.13 32.12ZM501.106 47V35H499.522V47H501.106ZM514.043 45.488C515.267 44.264 515.891 42.776 515.891 41C515.891 39.224 515.267 37.736 514.043 36.536C512.819 35.312 511.331 34.712 509.579 34.712C507.827 34.712 506.315 35.312 505.091 36.536C503.867 37.736 503.267 39.224 503.267 41C503.267 42.776 503.867 44.264 505.091 45.488C506.315 46.688 507.827 47.288 509.579 47.288C511.331 47.288 512.819 46.688 514.043 45.488ZM506.219 44.384C505.307 43.448 504.851 42.32 504.851 41C504.851 39.68 505.307 38.552 506.219 37.64C507.131 36.704 508.259 36.248 509.579 36.248C510.899 36.248 512.027 36.704 512.939 37.64C513.851 38.552 514.307 39.68 514.307 41C514.307 42.32 513.851 43.448 512.939 44.384C512.027 45.296 510.899 45.752 509.579 45.752C508.259 45.752 507.131 45.296 506.219 44.384ZM523.678 34.712C521.878 34.712 520.534 35.432 519.646 36.872V35H518.062V47H519.646V40.712C519.646 37.664 521.23 36.248 523.534 36.248C525.622 36.248 526.798 37.496 526.798 39.632V47H528.382V39.632C528.382 36.632 526.582 34.712 523.678 34.712ZM538.093 32.12C538.549 31.664 538.549 30.944 538.093 30.488C537.637 30.032 536.917 30.032 536.461 30.488C536.005 30.944 536.005 31.664 536.461 32.12C536.917 32.576 537.637 32.576 538.093 32.12ZM538.069 47V35H536.485V47H538.069ZM546.566 34.712C544.766 34.712 543.422 35.432 542.534 36.872V35H540.95V47H542.534V40.712C542.534 37.664 544.118 36.248 546.422 36.248C548.51 36.248 549.686 37.496 549.686 39.632V47H551.27V39.632C551.27 36.632 549.47 34.712 546.566 34.712ZM560.621 38.144C560.621 36.92 561.773 36.248 563.141 36.248C564.605 36.248 565.565 36.8 566.021 37.928L567.341 37.16C566.645 35.648 565.085 34.712 563.141 34.712C561.965 34.712 560.981 35.048 560.189 35.696C559.421 36.344 559.037 37.16 559.037 38.144C559.037 40.736 561.557 41.288 563.573 41.792C564.941 42.152 566.045 42.752 566.045 43.832C566.045 45.152 564.845 45.752 563.285 45.752C561.677 45.752 560.453 44.984 559.997 43.736L558.653 44.528C559.301 46.16 560.981 47.288 563.285 47.288C564.557 47.288 565.613 46.976 566.405 46.328C567.221 45.68 567.629 44.864 567.629 43.832C567.629 41.24 565.109 40.688 563.093 40.184C561.725 39.824 560.621 39.224 560.621 38.144ZM579.496 45.488C580.72 44.264 581.344 42.776 581.344 41C581.344 39.224 580.72 37.736 579.496 36.536C578.272 35.312 576.784 34.712 575.032 34.712C573.28 34.712 571.768 35.312 570.544 36.536C569.32 37.736 568.72 39.224 568.72 41C568.72 42.776 569.32 44.264 570.544 45.488C571.768 46.688 573.28 47.288 575.032 47.288C576.784 47.288 578.272 46.688 579.496 45.488ZM571.672 44.384C570.76 43.448 570.304 42.32 570.304 41C570.304 39.68 570.76 38.552 571.672 37.64C572.584 36.704 573.712 36.248 575.032 36.248C576.352 36.248 577.48 36.704 578.392 37.64C579.304 38.552 579.76 39.68 579.76 41C579.76 42.32 579.304 43.448 578.392 44.384C577.48 45.296 576.352 45.752 575.032 45.752C573.712 45.752 572.584 45.296 571.672 44.384ZM596.306 34.712C594.578 34.712 593.282 35.432 592.418 36.896C591.722 35.432 590.498 34.712 588.77 34.712C587.186 34.712 585.962 35.384 585.098 36.752V35H583.514V47H585.098V40.352C585.098 37.568 586.634 36.248 588.554 36.248C590.282 36.248 591.362 37.4 591.362 39.512V47H592.946V40.352C592.946 37.544 594.29 36.248 596.282 36.248C598.034 36.248 599.21 37.424 599.21 39.512V47H600.794V39.512C600.794 36.56 598.994 34.712 596.306 34.712ZM608.922 34.712C607.074 34.712 605.586 35.312 604.41 36.512C603.234 37.712 602.658 39.2 602.658 41C602.658 42.824 603.258 44.336 604.434 45.512C605.61 46.688 607.146 47.288 609.042 47.288C611.37 47.288 613.266 46.232 614.322 44.528L612.93 43.712C612.258 44.936 610.89 45.752 609.066 45.752C606.498 45.752 604.602 44.216 604.29 41.792H614.826C614.85 41.48 614.874 41.216 614.874 41.048C614.874 39.344 614.322 37.856 613.218 36.608C612.138 35.336 610.698 34.712 608.922 34.712ZM608.922 36.248C610.002 36.248 610.962 36.608 611.778 37.304C612.594 38 613.074 38.984 613.242 40.256H604.29C604.602 37.88 606.426 36.248 608.922 36.248ZM628.434 29.912C625.194 29.696 623.394 31.376 623.394 34.52V35H621.354V36.536H623.394V47H624.978V36.536H628.434V35H624.978V34.52C624.978 32.216 626.106 31.256 628.434 31.448V29.912ZM638.97 45.488C640.194 44.264 640.818 42.776 640.818 41C640.818 39.224 640.194 37.736 638.97 36.536C637.746 35.312 636.258 34.712 634.506 34.712C632.754 34.712 631.242 35.312 630.018 36.536C628.794 37.736 628.194 39.224 628.194 41C628.194 42.776 628.794 44.264 630.018 45.488C631.242 46.688 632.754 47.288 634.506 47.288C636.258 47.288 637.746 46.688 638.97 45.488ZM631.146 44.384C630.234 43.448 629.778 42.32 629.778 41C629.778 39.68 630.234 38.552 631.146 37.64C632.058 36.704 633.186 36.248 634.506 36.248C635.826 36.248 636.954 36.704 637.866 37.64C638.778 38.552 639.234 39.68 639.234 41C639.234 42.32 638.778 43.448 637.866 44.384C636.954 45.296 635.826 45.752 634.506 45.752C633.186 45.752 632.058 45.296 631.146 44.384ZM644.573 35H642.989V47H644.573V40.328C644.573 37.568 646.181 36.344 648.365 36.344V34.808C646.565 34.808 645.317 35.528 644.573 36.992V35ZM662.848 34.712C661.12 34.712 659.824 35.432 658.96 36.896C658.264 35.432 657.04 34.712 655.312 34.712C653.728 34.712 652.504 35.384 651.64 36.752V35H650.056V47H651.64V40.352C651.64 37.568 653.176 36.248 655.096 36.248C656.824 36.248 657.904 37.4 657.904 39.512V47H659.488V40.352C659.488 37.544 660.832 36.248 662.824 36.248C664.576 36.248 665.752 37.424 665.752 39.512V47H667.336V39.512C667.336 36.56 665.536 34.712 662.848 34.712Z" fill="#222F24"/>
</svg>
