<svg width="204" height="53" viewBox="0 0 204 53" fill="none" xmlns="http://www.w3.org/2000/svg">
<path d="M25.3612 0.757277C24.6162 1.46988 23.9684 2.21487 23.4178 2.99226C22.8995 3.73725 22.6404 4.66039 22.6404 5.76169V24.5161C22.608 26.6539 22.0736 28.484 21.037 30.0063C20.0329 31.5287 18.7211 32.6786 17.1015 33.456C15.5144 34.201 13.83 34.5735 12.0485 34.5735C10.267 34.5735 8.5827 34.201 6.99554 33.456C5.40838 32.6786 4.11275 31.5449 3.10862 30.0549C2.13689 28.5326 1.65103 26.7187 1.65103 24.6132V5.76169C1.65103 3.23519 1.26234 1.56705 0.484954 0.757277H6.50968C5.7323 1.46988 5.3436 3.13802 5.3436 5.76169V24.5161C5.3436 26.5243 5.6999 28.2248 6.41251 29.6177C7.1575 30.9781 8.12923 31.9984 9.3277 32.6786C10.5586 33.3588 11.8704 33.6989 13.2632 33.6989C14.7208 33.6989 16.1136 33.3426 17.4416 32.63C18.7697 31.885 19.8548 30.8161 20.6969 29.4233C21.5715 28.0305 22.025 26.3947 22.0574 24.5161V5.76169C22.0574 4.78996 21.8306 3.94779 21.3771 3.23519C20.9237 2.49019 20.4864 1.92335 20.0653 1.53466C19.6766 1.11358 19.4337 0.85445 19.3365 0.757277H25.3612ZM31.6771 29.7634C31.6771 32.3547 32.0658 34.0228 32.8432 34.7678H26.8185C27.5958 33.9257 27.9845 32.2575 27.9845 29.7634V5.76169C27.9845 3.23519 27.5958 1.56705 26.8185 0.757277H32.8432C32.0658 1.46988 31.6771 3.13802 31.6771 5.76169V29.7634ZM54.5283 0.757277C58.1885 0.757277 61.298 1.53466 63.8569 3.08943C66.4158 4.6442 68.3269 6.68483 69.5901 9.21133C70.8858 11.7378 71.5336 14.4587 71.5336 17.3739C71.5336 20.3538 70.8696 23.1718 69.5415 25.8279C68.2459 28.484 66.3024 30.638 63.7112 32.2899C61.1523 33.9419 58.0913 34.7678 54.5283 34.7678H46.4144C47.1918 34.0228 47.5804 32.3547 47.5804 29.7634V5.76169C47.5804 3.13802 47.1918 1.46988 46.4144 0.757277H54.5283ZM54.4797 34.3305C57.2977 34.3305 59.7109 33.5532 61.7191 31.9984C63.7274 30.4112 65.2335 28.3544 66.2377 25.8279C67.2742 23.269 67.7924 20.5482 67.7924 17.6654C67.7924 14.815 67.2904 12.1427 66.2862 9.64861C65.2821 7.12211 63.7759 5.09767 61.7677 3.57529C59.7595 2.05292 57.3301 1.30792 54.4797 1.34032L51.273 1.3889V34.3305H54.4797ZM78.7202 22.6212C78.5906 23.3014 78.5259 24.0626 78.5259 24.9048C78.5259 26.7834 78.9146 28.4516 79.6919 29.9092C80.5017 31.3344 81.5706 32.3709 82.8986 33.0187C84.0647 33.5694 85.2956 33.8447 86.5912 33.8447C88.0812 33.8447 89.5388 33.4884 90.964 32.7758C92.4216 32.0632 93.701 31.0105 94.8023 29.6177H97.5718C96.4057 31.14 94.9319 32.3223 93.1504 33.1645C91.4013 34.0066 89.5226 34.4277 87.5144 34.4277C85.8948 34.4277 84.3077 34.1362 82.7529 33.5532C81.4896 33.0673 80.2912 32.3223 79.1575 31.3182C78.0562 30.2817 77.1492 29.0346 76.4366 27.577C75.7564 26.087 75.4163 24.4837 75.4163 22.767C75.4163 21.3094 75.6755 19.8518 76.1937 18.3942C77.1007 15.7705 78.6068 13.7947 80.7123 12.4666C82.8501 11.1386 85.1822 10.4746 87.7087 10.4746C89.5226 10.4746 91.2231 10.7985 92.8103 11.4463C94.6566 12.1589 96.1142 13.4384 97.1831 15.2846C98.2844 17.1309 98.835 19.1878 98.835 21.4551C98.835 21.9734 98.8188 22.3621 98.7864 22.6212H78.7202ZM79.4976 19.9004C79.2385 20.5158 79.0279 21.2284 78.866 22.0382H94.9481C95.3044 20.451 95.4826 19.1068 95.4826 18.0055C95.4826 16.4507 95.2072 15.1551 94.6566 14.1186C94.1059 13.0497 93.3609 12.2885 92.4216 11.835C91.7738 11.5111 91.0126 11.3491 90.138 11.3491C88.8748 11.3491 87.5306 11.7054 86.1054 12.418C84.7125 13.1306 83.4169 14.151 82.2184 15.479C81.02 16.7746 80.113 18.2484 79.4976 19.9004ZM109.015 34.6221C108.335 34.5897 107.59 34.4763 106.78 34.282C105.938 34.1524 105.403 34.0876 105.177 34.0876C104.756 34.0876 104.399 34.1524 104.108 34.282L102.213 26.7511L102.407 26.6539C102.861 27.82 103.703 28.8565 104.934 29.7634C106.197 30.6704 107.622 31.383 109.209 31.9012C110.829 32.3871 112.367 32.63 113.825 32.63C115.38 32.63 116.643 32.3385 117.615 31.7555C118.619 31.1724 119.121 30.2817 119.121 29.0832C119.121 28.3058 118.813 27.6418 118.198 27.0912C117.615 26.5081 116.886 26.0384 116.011 25.6821C115.137 25.3258 113.906 24.8886 112.319 24.3703C110.246 23.7225 108.545 23.1071 107.217 22.524C105.889 21.9086 104.756 21.0664 103.816 19.9975C102.877 18.8962 102.407 17.5196 102.407 15.8677C102.407 13.7623 103.104 12.1751 104.496 11.1062C105.922 10.0049 107.898 9.45426 110.424 9.45426C110.78 9.45426 111.38 9.48665 112.222 9.55143L113.874 9.74578C114.781 9.90773 115.526 9.98871 116.109 9.98871C116.789 9.98871 117.275 9.84295 117.566 9.55143L119.218 16.3535L119.024 16.4507C118.7 15.479 117.971 14.6044 116.837 13.827C115.704 13.0173 114.36 12.3856 112.805 11.9322C111.282 11.4463 109.809 11.2034 108.383 11.2034C106.764 11.2034 105.436 11.5273 104.399 12.1751C103.395 12.7905 102.893 13.7461 102.893 15.0417C102.893 16.2402 103.476 17.1795 104.642 17.8597C105.841 18.5075 107.655 19.1878 110.084 19.9004C112.222 20.5806 113.938 21.2122 115.234 21.7952C116.53 22.3459 117.615 23.1395 118.489 24.176C119.396 25.2125 119.801 26.5243 119.704 28.1115C119.574 30.4112 118.846 32.0956 117.518 33.1645C116.222 34.201 114.117 34.7192 111.201 34.7192C110.78 34.7192 110.052 34.6868 109.015 34.6221ZM125.336 5.22723C124.721 5.22723 124.186 5.01669 123.733 4.59561C123.312 4.14214 123.101 3.60768 123.101 2.99226C123.101 2.37683 123.312 1.85857 123.733 1.43749C124.186 0.984013 124.721 0.757277 125.336 0.757277C125.952 0.757277 126.47 0.984013 126.891 1.43749C127.345 1.85857 127.571 2.37683 127.571 2.99226C127.571 3.60768 127.345 4.14214 126.891 4.59561C126.47 5.01669 125.952 5.22723 125.336 5.22723ZM122.615 34.7678C123.393 33.9257 123.782 32.2575 123.782 29.7634V15.479C123.782 12.8553 123.393 11.1872 122.615 10.4746H127.474V29.7634C127.474 32.3547 127.863 34.0228 128.64 34.7678H122.615ZM156.509 13.244C155.051 12.4342 153.902 12.0293 153.059 12.0293C152.314 12.0293 151.748 12.3209 151.359 12.9039C152.881 14.0376 154.031 15.4142 154.809 17.0338C155.586 18.6209 155.975 20.3214 155.975 22.1353C155.975 24.0464 155.537 25.9089 154.663 27.7228C153.918 29.3099 152.897 30.638 151.602 31.7069C150.339 32.7758 148.913 33.537 147.326 33.9904C146.419 34.4439 145.302 34.7516 143.974 34.9136C142.678 35.0755 141.075 35.1889 139.164 35.2537C138.775 35.2861 138.16 35.3185 137.317 35.3509C136.508 35.4156 135.844 35.4804 135.325 35.5452C134.58 35.6748 134.03 35.9015 133.673 36.2254C133.317 36.5817 133.139 37.0028 133.139 37.4887C133.139 37.9097 133.269 38.3308 133.528 38.7519C133.787 39.2054 134.111 39.5455 134.499 39.7722C135.342 40.2581 136.184 40.501 137.026 40.501C137.933 40.501 138.937 40.2419 140.038 39.7236C141.14 39.2054 142.419 38.4442 143.877 37.4401C146.468 35.6262 148.687 34.7192 150.533 34.7192C151.861 34.7192 152.881 35.1889 153.594 36.1282C154.306 37.0676 154.663 38.2822 154.663 39.7722C154.663 41.6833 154.145 43.6592 153.108 45.6998C152.072 47.7404 150.565 49.4409 148.589 50.8014C146.614 52.1942 144.33 52.8906 141.739 52.8906C139.99 52.8906 138.451 52.4533 137.123 51.5787C135.795 50.7366 134.791 49.5705 134.111 48.0805C133.431 46.6229 133.139 45.0358 133.236 43.319H133.576C133.414 45.7484 134.03 47.5623 135.423 48.7607C136.848 49.9592 138.759 50.5584 141.156 50.5584C143.294 50.5584 145.172 49.9592 146.792 48.7607C148.411 47.5947 149.642 46.1371 150.484 44.3879C151.359 42.6388 151.796 40.9869 151.796 39.4321C151.796 38.3308 151.553 37.4239 151.067 36.7113C150.582 36.0311 149.885 35.691 148.978 35.691C147.618 35.691 145.998 36.3874 144.12 37.7802C143.536 38.2337 143.099 38.5576 142.808 38.7519C140.961 40.1123 139.488 41.1003 138.386 41.7157C137.317 42.3311 136.232 42.6388 135.131 42.6388C134.386 42.6388 133.641 42.4769 132.896 42.153C132.151 41.8615 131.568 41.4242 131.147 40.8411C130.758 40.2905 130.564 39.6913 130.564 39.0434C130.564 38.0717 130.969 37.1971 131.779 36.4198C132.621 35.6748 133.771 35.2213 135.228 35.0593C135.779 34.9946 136.443 34.946 137.22 34.9136C137.998 34.8812 138.548 34.865 138.872 34.865C139.196 34.8326 139.941 34.8002 141.107 34.7678C142.306 34.703 143.358 34.5897 144.265 34.4277C142.678 34.4925 141.059 34.201 139.407 33.5532C138.143 33.0673 136.945 32.3223 135.811 31.3182C134.71 30.2817 133.803 29.0346 133.09 27.577C132.41 26.087 132.07 24.4837 132.07 22.767C132.07 21.3094 132.329 19.8518 132.847 18.3942C133.722 15.8353 135.163 13.8594 137.172 12.4666C139.18 11.0738 141.415 10.3774 143.877 10.3774C146.112 10.3774 148.201 10.9442 150.144 12.0779L151.067 12.661C151.456 11.4949 151.926 10.5556 152.476 9.84295C153.027 9.13035 153.821 8.77405 154.857 8.77405C155.311 8.77405 155.861 8.87122 156.509 9.06557V13.244ZM151.602 26.1194C152.638 23.8521 153.157 21.7304 153.157 19.7546C153.157 18.1027 152.817 16.6613 152.136 15.4304C151.488 14.1671 150.598 13.1954 149.464 12.5152C148.363 11.835 147.148 11.4949 145.82 11.4949C143.941 11.4949 142.127 12.2075 140.378 13.6327C138.629 15.0255 137.22 17.1147 136.151 19.9004C135.374 21.9734 134.985 23.8521 134.985 25.5364C134.985 27.1883 135.293 28.6297 135.908 29.8606C136.556 31.0914 137.415 32.047 138.483 32.7272C139.585 33.375 140.783 33.6989 142.079 33.6989C143.86 33.6989 145.61 33.0673 147.326 31.804C149.043 30.5084 150.468 28.6135 151.602 26.1194ZM177.266 34.7678C178.044 33.9257 178.432 32.2575 178.432 29.7634V18.6857C178.432 16.062 177.882 14.1186 176.78 12.8553C175.679 11.5921 174.27 10.9604 172.553 10.9604C171.063 10.9604 169.557 11.3815 168.035 12.2237C166.512 13.0335 165.265 14.1024 164.294 15.4304V29.7634C164.294 32.3547 164.682 34.0228 165.46 34.7678H159.435C160.212 33.9257 160.601 32.2575 160.601 29.7634V15.479C160.601 12.8553 160.212 11.1872 159.435 10.4746H164.294V14.653C165.395 13.163 166.852 11.9808 168.666 11.1062C170.48 10.2316 172.31 9.79437 174.157 9.79437C176.456 9.79437 178.351 10.5232 179.841 11.9808C181.364 13.406 182.125 15.5438 182.125 18.3942V29.7634C182.125 32.3547 182.513 34.0228 183.291 34.7678H177.266ZM192.998 34.6221C192.317 34.5897 191.572 34.4763 190.763 34.282C189.92 34.1524 189.386 34.0876 189.159 34.0876C188.738 34.0876 188.382 34.1524 188.09 34.282L186.195 26.7511L186.39 26.6539C186.843 27.82 187.685 28.8565 188.916 29.7634C190.18 30.6704 191.605 31.383 193.192 31.9012C194.811 32.3871 196.35 32.63 197.808 32.63C199.362 32.63 200.626 32.3385 201.597 31.7555C202.601 31.1724 203.104 30.2817 203.104 29.0832C203.104 28.3058 202.796 27.6418 202.18 27.0912C201.597 26.5081 200.869 26.0384 199.994 25.6821C199.119 25.3258 197.889 24.8886 196.301 24.3703C194.228 23.7225 192.528 23.1071 191.2 22.524C189.872 21.9086 188.738 21.0664 187.799 19.9975C186.859 18.8962 186.39 17.5196 186.39 15.8677C186.39 13.7623 187.086 12.1751 188.479 11.1062C189.904 10.0049 191.88 9.45426 194.407 9.45426C194.763 9.45426 195.362 9.48665 196.204 9.55143L197.856 9.74578C198.763 9.90773 199.508 9.98871 200.091 9.98871C200.771 9.98871 201.257 9.84295 201.549 9.55143L203.201 16.3535L203.006 16.4507C202.682 15.479 201.954 14.6044 200.82 13.827C199.686 13.0173 198.342 12.3856 196.787 11.9322C195.265 11.4463 193.791 11.2034 192.366 11.2034C190.746 11.2034 189.418 11.5273 188.382 12.1751C187.378 12.7905 186.876 13.7461 186.876 15.0417C186.876 16.2402 187.459 17.1795 188.625 17.8597C189.823 18.5075 191.637 19.1878 194.066 19.9004C196.204 20.5806 197.921 21.2122 199.217 21.7952C200.512 22.3459 201.597 23.1395 202.472 24.176C203.379 25.2125 203.784 26.5243 203.687 28.1115C203.557 30.4112 202.828 32.0956 201.5 33.1645C200.205 34.201 198.099 34.7192 195.184 34.7192C194.763 34.7192 194.034 34.6868 192.998 34.6221Z" fill="#2D1A06"/>
</svg>
