<svg width="437" height="53" viewBox="0 0 437 53" fill="none" xmlns="http://www.w3.org/2000/svg">
<path d="M25.4009 0.403517C24.6559 1.11612 24.0081 1.86111 23.4574 2.6385C22.9392 3.38349 22.68 4.30663 22.68 5.40793V24.1623C22.6476 26.3001 22.1132 28.1302 21.0767 29.6526C20.0725 31.175 18.7607 32.3248 17.1412 33.1022C15.554 33.8472 13.8697 34.2197 12.0882 34.2197C10.3067 34.2197 8.62233 33.8472 7.03517 33.1022C5.44801 32.3248 4.15237 31.1912 3.14825 29.7012C2.17652 28.1788 1.69066 26.3649 1.69066 24.2595V5.40793C1.69066 2.88143 1.30196 1.21329 0.524581 0.403517H6.54931C5.77192 1.11612 5.38323 2.78426 5.38323 5.40793V24.1623C5.38323 26.1706 5.73953 27.8711 6.45213 29.2639C7.19713 30.6243 8.16886 31.6446 9.36732 32.3248C10.5982 33.0051 11.91 33.3452 13.3028 33.3452C14.7604 33.3452 16.1532 32.9889 17.4813 32.2763C18.8093 31.5313 19.8944 30.4624 20.7366 29.0695C21.6111 27.6767 22.0646 26.041 22.097 24.1623V5.40793C22.097 4.4362 21.8702 3.59403 21.4168 2.88143C20.9633 2.13643 20.526 1.56959 20.1049 1.1809C19.7162 0.759819 19.4733 0.50069 19.3761 0.403517H25.4009ZM33.1857 34.2683C32.5055 34.2359 31.7605 34.1225 30.9507 33.9282C30.1086 33.7986 29.5741 33.7339 29.3474 33.7339C28.9263 33.7339 28.57 33.7986 28.2785 33.9282L26.3836 26.3973L26.5779 26.3001C27.0314 27.4662 27.8736 28.5027 29.1044 29.4097C30.3677 30.3166 31.7929 31.0292 33.3801 31.5475C34.9996 32.0333 36.5382 32.2763 37.9958 32.2763C39.5505 32.2763 40.8138 31.9847 41.7855 31.4017C42.7896 30.8187 43.2917 29.9279 43.2917 28.7294C43.2917 27.9521 42.984 27.288 42.3686 26.7374C41.7855 26.1544 41.0567 25.6847 40.1822 25.3284C39.3076 24.9721 38.0767 24.5348 36.4896 24.0166C34.4166 23.3687 32.716 22.7533 31.388 22.1703C30.06 21.5548 28.9263 20.7127 27.987 19.6438C27.0476 18.5425 26.5779 17.1659 26.5779 15.5139C26.5779 13.4085 27.2744 11.8213 28.6672 10.7524C30.0924 9.65115 32.0682 9.1005 34.5947 9.1005C34.951 9.1005 35.5503 9.13289 36.3924 9.19767L38.0444 9.39202C38.9513 9.55397 39.6963 9.63495 40.2793 9.63495C40.9595 9.63495 41.4454 9.48919 41.7369 9.19767L43.3889 15.9998L43.1945 16.097C42.8706 15.1252 42.1418 14.2507 41.0081 13.4733C39.8745 12.6635 38.5302 12.0319 36.9755 11.5784C35.4531 11.0925 33.9793 10.8496 32.5541 10.8496C30.9345 10.8496 29.6065 11.1735 28.57 11.8213C27.5659 12.4368 27.0638 13.3923 27.0638 14.6879C27.0638 15.8864 27.6468 16.8258 28.8129 17.506C30.0114 18.1538 31.8253 18.834 34.2546 19.5466C36.3924 20.2268 38.1091 20.8584 39.4048 21.4415C40.7004 21.9921 41.7855 22.7857 42.6601 23.8222C43.567 24.8587 43.9719 26.1706 43.8747 27.7577C43.7452 30.0575 43.0164 31.7418 41.6883 32.8107C40.3927 33.8472 38.2873 34.3655 35.3721 34.3655C34.951 34.3655 34.2222 34.3331 33.1857 34.2683ZM50.5759 22.2674C50.4463 22.9477 50.3815 23.7088 50.3815 24.551C50.3815 26.4297 50.7702 28.0978 51.5476 29.5554C52.3574 30.9806 53.4263 32.0171 54.7543 32.6649C55.9204 33.2156 57.1513 33.4909 58.4469 33.4909C59.9369 33.4909 61.3945 33.1346 62.8197 32.422C64.2773 31.7094 65.5567 30.6567 66.658 29.2639H69.4274C68.2614 30.7863 66.7876 31.9685 65.0061 32.8107C63.257 33.6529 61.3783 34.074 59.37 34.074C57.7505 34.074 56.1633 33.7824 54.6086 33.1994C53.3453 32.7135 52.1468 31.9685 51.0132 30.9644C49.9119 29.9279 49.0049 28.6809 48.2923 27.2233C47.6121 25.7333 47.272 24.1299 47.272 22.4132C47.272 20.9556 47.5311 19.498 48.0494 18.0404C48.9563 15.4167 50.4625 13.4409 52.5679 12.1129C54.7057 10.7848 57.0379 10.1208 59.5644 10.1208C61.3783 10.1208 63.0788 10.4447 64.666 11.0925C66.5122 11.8051 67.9698 13.0846 69.0387 14.9309C70.14 16.7772 70.6907 18.834 70.6907 21.1014C70.6907 21.6196 70.6745 22.0083 70.6421 22.2674H50.5759ZM51.3533 19.5466C51.0941 20.162 50.8836 20.8746 50.7216 21.6844H66.8038C67.1601 20.0972 67.3382 18.753 67.3382 17.6517C67.3382 16.097 67.0629 14.8013 66.5122 13.7648C65.9616 12.6959 65.2166 11.9347 64.2773 11.4812C63.6294 11.1573 62.8683 10.9954 61.9937 10.9954C60.7305 10.9954 59.3862 11.3517 57.961 12.0643C56.5682 12.7769 55.2726 13.7972 54.0741 15.1252C52.8756 16.4209 51.9687 17.8947 51.3533 19.5466ZM78.9272 17.7489C79.4455 15.5463 80.4334 13.7 81.891 12.21C83.3486 10.6877 85.0005 9.92647 86.8468 9.92647C87.3975 9.92647 87.9157 9.99125 88.4016 10.1208V14.445C87.0736 13.7648 85.8427 13.4247 84.709 13.4247C83.0571 13.4247 81.6967 14.0563 80.6278 15.3196C79.5913 16.5828 79.0244 18.2186 78.9272 20.2268V29.4097C78.9272 32.0009 79.3159 33.6691 80.0933 34.4141H74.0686C74.846 33.5719 75.2347 31.9038 75.2347 29.4097V15.1252C75.2347 12.5016 74.846 10.8334 74.0686 10.1208H78.9272V17.7489ZM107.823 29.4097C107.823 32.0009 108.212 33.6691 108.989 34.4141H102.964C103.742 33.5719 104.13 31.9038 104.13 29.4097V5.40793C104.13 2.88143 103.742 1.21329 102.964 0.403517H108.989C108.212 1.11612 107.823 2.78426 107.823 5.40793V29.4097ZM129.716 34.4141C130.493 33.5719 130.882 31.9038 130.882 29.4097V18.3319C130.882 15.7083 130.331 13.7648 129.23 12.5016C128.129 11.2383 126.72 10.6067 125.003 10.6067C123.513 10.6067 122.007 11.0278 120.484 11.8699C118.962 12.6797 117.715 13.7486 116.743 15.0766V29.4097C116.743 32.0009 117.132 33.6691 117.909 34.4141H111.884C112.662 33.5719 113.051 31.9038 113.051 29.4097V15.1252C113.051 12.5016 112.662 10.8334 111.884 10.1208H116.743V14.2993C117.844 12.8093 119.302 11.627 121.116 10.7524C122.93 9.87788 124.76 9.44061 126.606 9.44061C128.906 9.44061 130.801 10.1694 132.291 11.627C133.813 13.0522 134.574 15.19 134.574 18.0404V29.4097C134.574 32.0009 134.963 33.6691 135.74 34.4141H129.716ZM143.212 27.5634C143.212 29.9927 143.536 31.7256 144.184 32.7621C144.864 33.7986 145.868 34.3169 147.196 34.3169C148.038 34.3169 149.042 34.1387 150.209 33.7824V34.1225C148.427 34.5112 146.969 34.7056 145.836 34.7056C143.828 34.7056 142.273 34.1711 141.171 33.1022C140.103 32.0333 139.552 30.2356 139.52 27.7091V12.9388H137.187V12.3558H139.52V10.0236C139.52 7.39997 139.131 5.73184 138.353 5.01923H143.212V12.3558H147.439V12.9388H143.212V27.5634ZM151.545 22.2674C151.415 22.9477 151.35 23.7088 151.35 24.551C151.35 26.4297 151.739 28.0978 152.516 29.5554C153.326 30.9806 154.395 32.0171 155.723 32.6649C156.889 33.2156 158.12 33.4909 159.416 33.4909C160.906 33.4909 162.363 33.1346 163.788 32.422C165.246 31.7094 166.526 30.6567 167.627 29.2639H170.396C169.23 30.7863 167.756 31.9685 165.975 32.8107C164.226 33.6529 162.347 34.074 160.339 34.074C158.719 34.074 157.132 33.7824 155.577 33.1994C154.314 32.7135 153.116 31.9685 151.982 30.9644C150.881 29.9279 149.974 28.6809 149.261 27.2233C148.581 25.7333 148.241 24.1299 148.241 22.4132C148.241 20.9556 148.5 19.498 149.018 18.0404C149.925 15.4167 151.431 13.4409 153.537 12.1129C155.675 10.7848 158.007 10.1208 160.533 10.1208C162.347 10.1208 164.048 10.4447 165.635 11.0925C167.481 11.8051 168.939 13.0846 170.008 14.9309C171.109 16.7772 171.659 18.834 171.659 21.1014C171.659 21.6196 171.643 22.0083 171.611 22.2674H151.545ZM152.322 19.5466C152.063 20.162 151.852 20.8746 151.69 21.6844H167.773C168.129 20.0972 168.307 18.753 168.307 17.6517C168.307 16.097 168.032 14.8013 167.481 13.7648C166.93 12.6959 166.185 11.9347 165.246 11.4812C164.598 11.1573 163.837 10.9954 162.963 10.9954C161.699 10.9954 160.355 11.3517 158.93 12.0643C157.537 12.7769 156.241 13.7972 155.043 15.1252C153.844 16.4209 152.937 17.8947 152.322 19.5466ZM179.896 17.7489C180.414 15.5463 181.402 13.7 182.86 12.21C184.317 10.6877 185.969 9.92647 187.816 9.92647C188.366 9.92647 188.885 9.99125 189.37 10.1208V14.445C188.042 13.7648 186.812 13.4247 185.678 13.4247C184.026 13.4247 182.665 14.0563 181.597 15.3196C180.56 16.5828 179.993 18.2186 179.896 20.2268V29.4097C179.896 32.0009 180.285 33.6691 181.062 34.4141H175.037C175.815 33.5719 176.203 31.9038 176.203 29.4097V15.1252C176.203 12.5016 175.815 10.8334 175.037 10.1208H179.896V17.7489ZM194.375 10.0722C194.375 7.99921 194.764 6.2339 195.541 4.7763C196.318 3.31871 197.322 2.23361 198.553 1.52101C199.784 0.776013 201.096 0.403517 202.489 0.403517C203.817 0.403517 205.048 0.727427 206.181 1.37525C207.347 1.99068 208.287 2.91382 208.999 4.14468C209.712 5.37553 210.068 6.83313 210.068 8.51746C210.068 8.87376 210.036 9.40821 209.971 10.1208H206.23C206.521 8.79279 206.667 7.62671 206.667 6.62259C206.667 4.7763 206.311 3.3349 205.598 2.29839C204.886 1.26188 204.011 0.743624 202.975 0.743624C202.165 0.743624 201.371 1.09992 200.594 1.81253C199.849 2.49274 199.233 3.54544 198.748 4.97065C198.294 6.36346 198.067 8.08018 198.067 10.1208V15.1252H205.307V15.7083H198.067V29.4097C198.067 32.0009 198.456 33.6691 199.233 34.4141H193.209C193.986 33.5719 194.375 31.9038 194.375 29.4097V15.7083H192.043V15.1252H194.375V10.0722ZM227.276 34.4141V30.8187C226.369 32.2439 225.155 33.329 223.632 34.074C222.11 34.7866 220.474 35.1429 218.725 35.1429C217.073 35.1429 215.502 34.8351 214.012 34.2197C212.555 33.6043 211.372 32.7297 210.465 31.596C209.558 30.4624 209.105 29.1505 209.105 27.6605C209.105 26.1382 209.51 24.8749 210.32 23.8708C211.129 22.8343 212.166 21.9921 213.429 21.3443C214.725 20.6641 216.749 19.7247 219.502 18.5263L227.228 15.2224C227.066 13.3113 226.45 11.8537 225.381 10.8496C224.312 9.84549 223.065 9.34343 221.64 9.34343C220.636 9.34343 219.648 9.60256 218.676 10.1208C217.737 10.6391 216.943 11.4003 216.296 12.4044C215.68 13.3761 215.34 14.526 215.275 15.854H211.194C211.486 13.6514 212.619 11.9347 214.595 10.7039C216.603 9.473 218.871 8.85757 221.397 8.85757C223.989 8.85757 226.207 9.48919 228.054 10.7524C229.932 11.9833 230.904 13.7324 230.969 15.9998V29.4097C230.969 32.0009 231.357 33.6691 232.135 34.4141H227.276ZM212.943 26.9317C212.943 28.4217 213.267 29.7174 213.915 30.8187C214.595 31.8876 215.486 32.7135 216.587 33.2966C217.688 33.8472 218.871 34.1225 220.134 34.1225C221.559 34.1225 222.903 33.75 224.167 33.0051C225.462 32.2601 226.499 31.1588 227.276 29.7012V16.1941V15.7568L219.697 19.0121C217.85 19.8219 216.506 20.4697 215.664 20.9556C214.854 21.4415 214.19 22.1541 213.672 23.0934C213.186 24.0004 212.943 25.2798 212.943 26.9317ZM242.881 33.1994C241.618 32.7135 240.42 31.9685 239.286 30.9644C238.185 29.9279 237.278 28.6809 236.565 27.2233C235.885 25.7333 235.545 24.1299 235.545 22.4132C235.545 20.9556 235.804 19.498 236.322 18.0404C237.229 15.4491 238.751 13.4733 240.889 12.1129C243.027 10.7524 245.359 10.0722 247.886 10.0722C249.7 10.0722 251.384 10.4123 252.939 11.0925C254.655 11.8699 256.048 12.9226 257.117 14.2507C258.186 15.5463 258.785 16.7448 258.915 17.8461L255.271 16.6314C255.336 16.3723 255.368 15.9836 255.368 15.4653C255.368 14.1049 254.882 13.036 253.91 12.2586C252.939 11.4488 251.708 11.044 250.218 11.044C248.177 11.044 246.153 11.7728 244.144 13.2304C242.169 14.6556 240.662 16.761 239.626 19.5466C238.913 21.4577 238.557 23.2392 238.557 24.8911C238.557 26.6402 238.93 28.1626 239.675 29.4582C240.42 30.7539 241.424 31.7418 242.687 32.422C243.95 33.1022 245.311 33.4423 246.768 33.4423C248.226 33.4423 249.667 33.1022 251.092 32.422C252.55 31.7094 253.829 30.6567 254.931 29.2639H257.7C256.534 30.7863 255.06 31.9685 253.279 32.8107C251.53 33.6529 249.651 34.074 247.643 34.074C246.023 34.074 244.436 33.7824 242.881 33.1994ZM265.609 22.2674C265.48 22.9477 265.415 23.7088 265.415 24.551C265.415 26.4297 265.803 28.0978 266.581 29.5554C267.391 30.9806 268.459 32.0171 269.788 32.6649C270.954 33.2156 272.184 33.4909 273.48 33.4909C274.97 33.4909 276.428 33.1346 277.853 32.422C279.31 31.7094 280.59 30.6567 281.691 29.2639H284.461C283.295 30.7863 281.821 31.9685 280.039 32.8107C278.29 33.6529 276.411 34.074 274.403 34.074C272.784 34.074 271.197 33.7824 269.642 33.1994C268.378 32.7135 267.18 31.9685 266.046 30.9644C264.945 29.9279 264.038 28.6809 263.326 27.2233C262.645 25.7333 262.305 24.1299 262.305 22.4132C262.305 20.9556 262.564 19.498 263.083 18.0404C263.99 15.4167 265.496 13.4409 267.601 12.1129C269.739 10.7848 272.071 10.1208 274.598 10.1208C276.411 10.1208 278.112 10.4447 279.699 11.0925C281.545 11.8051 283.003 13.0846 284.072 14.9309C285.173 16.7772 285.724 18.834 285.724 21.1014C285.724 21.6196 285.708 22.0083 285.675 22.2674H265.609ZM266.386 19.5466C266.127 20.162 265.917 20.8746 265.755 21.6844H281.837C282.193 20.0972 282.371 18.753 282.371 17.6517C282.371 16.097 282.096 14.8013 281.545 13.7648C280.995 12.6959 280.25 11.9347 279.31 11.4812C278.663 11.1573 277.901 10.9954 277.027 10.9954C275.764 10.9954 274.419 11.3517 272.994 12.0643C271.601 12.7769 270.306 13.7972 269.107 15.1252C267.909 16.4209 267.002 17.8947 266.386 19.5466ZM307.891 0.403517C311.552 0.403517 314.661 1.1809 317.22 2.73567C319.779 4.29044 321.69 6.33107 322.953 8.85757C324.249 11.3841 324.897 14.1049 324.897 17.0201C324.897 20.0001 324.233 22.8181 322.905 25.4741C321.609 28.1302 319.666 30.2842 317.074 31.9362C314.515 33.5881 311.454 34.4141 307.891 34.4141H299.778C300.555 33.6691 300.944 32.0009 300.944 29.4097V5.40793C300.944 2.78426 300.555 1.11612 299.778 0.403517H307.891ZM307.843 33.9768C310.661 33.9768 313.074 33.1994 315.082 31.6446C317.09 30.0575 318.597 28.0006 319.601 25.4741C320.637 22.9153 321.156 20.1944 321.156 17.3116C321.156 14.4612 320.654 11.789 319.649 9.29485C318.645 6.76835 317.139 4.74391 315.131 3.22153C313.123 1.69916 310.693 0.954165 307.843 0.986556L304.636 1.03514V33.9768H307.843ZM332.083 22.2674C331.954 22.9477 331.889 23.7088 331.889 24.551C331.889 26.4297 332.278 28.0978 333.055 29.5554C333.865 30.9806 334.934 32.0171 336.262 32.6649C337.428 33.2156 338.659 33.4909 339.954 33.4909C341.444 33.4909 342.902 33.1346 344.327 32.422C345.785 31.7094 347.064 30.6567 348.165 29.2639H350.935C349.769 30.7863 348.295 31.9685 346.514 32.8107C344.764 33.6529 342.886 34.074 340.877 34.074C339.258 34.074 337.671 33.7824 336.116 33.1994C334.853 32.7135 333.654 31.9685 332.521 30.9644C331.419 29.9279 330.512 28.6809 329.8 27.2233C329.12 25.7333 328.779 24.1299 328.779 22.4132C328.779 20.9556 329.039 19.498 329.557 18.0404C330.464 15.4167 331.97 13.4409 334.075 12.1129C336.213 10.7848 338.545 10.1208 341.072 10.1208C342.886 10.1208 344.586 10.4447 346.173 11.0925C348.02 11.8051 349.477 13.0846 350.546 14.9309C351.648 16.7772 352.198 18.834 352.198 21.1014C352.198 21.6196 352.182 22.0083 352.15 22.2674H332.083ZM332.861 19.5466C332.602 20.162 332.391 20.8746 332.229 21.6844H348.311C348.668 20.0972 348.846 18.753 348.846 17.6517C348.846 16.097 348.57 14.8013 348.02 13.7648C347.469 12.6959 346.724 11.9347 345.785 11.4812C345.137 11.1573 344.376 10.9954 343.501 10.9954C342.238 10.9954 340.894 11.3517 339.468 12.0643C338.076 12.7769 336.78 13.7972 335.582 15.1252C334.383 16.4209 333.476 17.8947 332.861 19.5466ZM362.378 34.2683C361.698 34.2359 360.953 34.1225 360.143 33.9282C359.301 33.7986 358.767 33.7339 358.54 33.7339C358.119 33.7339 357.762 33.7986 357.471 33.9282L355.576 26.3973L355.77 26.3001C356.224 27.4662 357.066 28.5027 358.297 29.4097C359.56 30.3166 360.985 31.0292 362.573 31.5475C364.192 32.0333 365.731 32.2763 367.188 32.2763C368.743 32.2763 370.006 31.9847 370.978 31.4017C371.982 30.8187 372.484 29.9279 372.484 28.7294C372.484 27.9521 372.176 27.288 371.561 26.7374C370.978 26.1544 370.249 25.6847 369.375 25.3284C368.5 24.9721 367.269 24.5348 365.682 24.0166C363.609 23.3687 361.909 22.7533 360.58 22.1703C359.252 21.5548 358.119 20.7127 357.179 19.6438C356.24 18.5425 355.77 17.1659 355.77 15.5139C355.77 13.4085 356.467 11.8213 357.86 10.7524C359.285 9.65115 361.261 9.1005 363.787 9.1005C364.143 9.1005 364.743 9.13289 365.585 9.19767L367.237 9.39202C368.144 9.55397 368.889 9.63495 369.472 9.63495C370.152 9.63495 370.638 9.48919 370.929 9.19767L372.581 15.9998L372.387 16.097C372.063 15.1252 371.334 14.2507 370.201 13.4733C369.067 12.6635 367.723 12.0319 366.168 11.5784C364.646 11.0925 363.172 10.8496 361.747 10.8496C360.127 10.8496 358.799 11.1735 357.762 11.8213C356.758 12.4368 356.256 13.3923 356.256 14.6879C356.256 15.8864 356.839 16.8258 358.005 17.506C359.204 18.1538 361.018 18.834 363.447 19.5466C365.585 20.2268 367.302 20.8584 368.597 21.4415C369.893 21.9921 370.978 22.7857 371.853 23.8222C372.759 24.8587 373.164 26.1706 373.067 27.7577C372.938 30.0575 372.209 31.7418 370.881 32.8107C369.585 33.8472 367.48 34.3655 364.565 34.3655C364.143 34.3655 363.415 34.3331 362.378 34.2683ZM378.699 4.87347C378.084 4.87347 377.55 4.66293 377.096 4.24185C376.675 3.78838 376.464 3.25392 376.464 2.6385C376.464 2.02307 376.675 1.50481 377.096 1.08373C377.55 0.630254 378.084 0.403517 378.699 0.403517C379.315 0.403517 379.833 0.630254 380.254 1.08373C380.708 1.50481 380.934 2.02307 380.934 2.6385C380.934 3.25392 380.708 3.78838 380.254 4.24185C379.833 4.66293 379.315 4.87347 378.699 4.87347ZM375.979 34.4141C376.756 33.5719 377.145 31.9038 377.145 29.4097V15.1252C377.145 12.5016 376.756 10.8334 375.979 10.1208H380.837V29.4097C380.837 32.0009 381.226 33.6691 382.003 34.4141H375.979ZM409.872 12.8902C408.415 12.0805 407.265 11.6756 406.423 11.6756C405.678 11.6756 405.111 11.9671 404.722 12.5501C406.244 13.6838 407.394 15.0604 408.172 16.68C408.949 18.2672 409.338 19.9677 409.338 21.7816C409.338 23.6926 408.9 25.5551 408.026 27.369C407.281 28.9562 406.261 30.2842 404.965 31.3531C403.702 32.422 402.277 33.1832 400.689 33.6367C399.782 34.0902 398.665 34.3979 397.337 34.5598C396.041 34.7218 394.438 34.8351 392.527 34.8999C392.138 34.9323 391.523 34.9647 390.681 34.9971C389.871 35.0619 389.207 35.1267 388.689 35.1914C387.944 35.321 387.393 35.5477 387.037 35.8717C386.68 36.228 386.502 36.649 386.502 37.1349C386.502 37.556 386.632 37.9771 386.891 38.3982C387.15 38.8516 387.474 39.1917 387.863 39.4185C388.705 39.9043 389.547 40.1473 390.389 40.1473C391.296 40.1473 392.3 39.8881 393.401 39.3699C394.503 38.8516 395.782 38.0904 397.24 37.0863C399.831 35.2724 402.05 34.3655 403.896 34.3655C405.224 34.3655 406.244 34.8351 406.957 35.7745C407.67 36.7138 408.026 37.9285 408.026 39.4185C408.026 41.3295 407.508 43.3054 406.471 45.346C405.435 47.3867 403.928 49.0872 401.953 50.4476C399.977 51.8404 397.693 52.5368 395.102 52.5368C393.353 52.5368 391.814 52.0995 390.486 51.225C389.158 50.3828 388.154 49.2167 387.474 47.7268C386.794 46.2692 386.502 44.682 386.599 42.9653H386.939C386.777 45.3946 387.393 47.2085 388.786 48.407C390.211 49.6054 392.122 50.2047 394.519 50.2047C396.657 50.2047 398.535 49.6054 400.155 48.407C401.774 47.2409 403.005 45.7833 403.847 44.0342C404.722 42.2851 405.159 40.6331 405.159 39.0784C405.159 37.9771 404.916 37.0701 404.431 36.3575C403.945 35.6773 403.248 35.3372 402.341 35.3372C400.981 35.3372 399.361 36.0336 397.483 37.4264C396.9 37.8799 396.462 38.2038 396.171 38.3982C394.325 39.7586 392.851 40.7465 391.749 41.3619C390.681 41.9774 389.595 42.2851 388.494 42.2851C387.749 42.2851 387.004 42.1231 386.259 41.7992C385.514 41.5077 384.931 41.0704 384.51 40.4874C384.121 39.9367 383.927 39.3375 383.927 38.6897C383.927 37.7179 384.332 36.8434 385.142 36.066C385.984 35.321 387.134 34.8675 388.591 34.7056C389.142 34.6408 389.806 34.5922 390.583 34.5598C391.361 34.5274 391.911 34.5112 392.235 34.5112C392.559 34.4788 393.304 34.4465 394.47 34.4141C395.669 34.3493 396.721 34.2359 397.628 34.074C396.041 34.1387 394.422 33.8472 392.77 33.1994C391.507 32.7135 390.308 31.9685 389.174 30.9644C388.073 29.9279 387.166 28.6809 386.454 27.2233C385.773 25.7333 385.433 24.1299 385.433 22.4132C385.433 20.9556 385.692 19.498 386.211 18.0404C387.085 15.4815 388.527 13.5057 390.535 12.1129C392.543 10.72 394.778 10.0236 397.24 10.0236C399.475 10.0236 401.564 10.5905 403.507 11.7242L404.431 12.3072C404.819 11.1411 405.289 10.2018 405.84 9.48919C406.39 8.77659 407.184 8.42029 408.22 8.42029C408.674 8.42029 409.224 8.51746 409.872 8.71181V12.8902ZM404.965 25.7657C406.001 23.4983 406.52 21.3767 406.52 19.4008C406.52 17.7489 406.18 16.3075 405.499 15.0766C404.852 13.8134 403.961 12.8417 402.827 12.1614C401.726 11.4812 400.511 11.1411 399.183 11.1411C397.305 11.1411 395.491 11.8537 393.741 13.2789C391.992 14.6718 390.583 16.761 389.514 19.5466C388.737 21.6196 388.348 23.4983 388.348 25.1826C388.348 26.8346 388.656 28.276 389.272 29.5068C389.919 30.7377 390.778 31.6932 391.847 32.3734C392.948 33.0212 394.146 33.3452 395.442 33.3452C397.224 33.3452 398.973 32.7135 400.689 31.4503C402.406 30.1546 403.831 28.2598 404.965 25.7657ZM430.629 34.4141C431.407 33.5719 431.795 31.9038 431.795 29.4097V18.3319C431.795 15.7083 431.245 13.7648 430.143 12.5016C429.042 11.2383 427.633 10.6067 425.916 10.6067C424.426 10.6067 422.92 11.0278 421.398 11.8699C419.875 12.6797 418.628 13.7486 417.657 15.0766V29.4097C417.657 32.0009 418.045 33.6691 418.823 34.4141H412.798C413.575 33.5719 413.964 31.9038 413.964 29.4097V15.1252C413.964 12.5016 413.575 10.8334 412.798 10.1208H417.657V14.2993C418.758 12.8093 420.216 11.627 422.029 10.7524C423.843 9.87788 425.673 9.44061 427.52 9.44061C429.82 9.44061 431.714 10.1694 433.204 11.627C434.727 13.0522 435.488 15.19 435.488 18.0404V29.4097C435.488 32.0009 435.877 33.6691 436.654 34.4141H430.629Z" fill="#2D1A06"/>
</svg>
