<svg width="265" height="53" viewBox="0 0 265 53" fill="none" xmlns="http://www.w3.org/2000/svg">
<path d="M25.2302 0.300001C24.4852 1.0126 23.8374 1.7576 23.2868 2.53498C22.7685 3.27997 22.5094 4.20312 22.5094 5.30441V24.0588C22.477 26.1966 21.9426 28.0267 20.906 29.5491C19.9019 31.0714 18.5901 32.2213 16.9705 32.9987C15.3834 33.7437 13.699 34.1162 11.9175 34.1162C10.136 34.1162 8.45171 33.7437 6.86455 32.9987C5.27739 32.2213 3.98175 31.0876 2.97763 29.5977C2.0059 28.0753 1.52003 26.2614 1.52003 24.156V5.30441C1.52003 2.77791 1.13134 1.10978 0.353957 0.300001H6.37868C5.6013 1.0126 5.21261 2.68074 5.21261 5.30441V24.0588C5.21261 26.067 5.56891 27.7676 6.28151 29.1604C7.0265 30.5208 7.99823 31.5411 9.1967 32.2213C10.4276 32.9015 11.7394 33.2416 13.1322 33.2416C14.5898 33.2416 15.9826 32.8853 17.3106 32.1727C18.6387 31.4277 19.7238 30.3588 20.5659 28.966C21.4405 27.5732 21.894 25.9375 21.9264 24.0588V5.30441C21.9264 4.33268 21.6996 3.49051 21.2461 2.77791C20.7927 2.03292 20.3554 1.46608 19.9343 1.07739C19.5456 0.656303 19.3027 0.397175 19.2055 0.300001H25.2302ZM33.0151 34.1648C32.3349 34.1324 31.5899 34.019 30.7801 33.8247C29.9379 33.6951 29.4035 33.6303 29.1768 33.6303C28.7557 33.6303 28.3994 33.6951 28.1079 33.8247L26.213 26.2938L26.4073 26.1966C26.8608 27.3627 27.703 28.3992 28.9338 29.3061C30.1971 30.2131 31.6223 30.9257 33.2094 31.4439C34.829 31.9298 36.3676 32.1727 37.8251 32.1727C39.3799 32.1727 40.6432 31.8812 41.6149 31.2982C42.619 30.7151 43.1211 29.8244 43.1211 28.6259C43.1211 27.8485 42.8134 27.1845 42.1979 26.6339C41.6149 26.0508 40.8861 25.5812 40.0115 25.2249C39.137 24.8686 37.9061 24.4313 36.319 23.913C34.2459 23.2652 32.5454 22.6498 31.2174 22.0668C29.8894 21.4513 28.7557 20.6092 27.8163 19.5403C26.877 18.439 26.4073 17.0623 26.4073 15.4104C26.4073 13.305 27.1037 11.7178 28.4965 10.6489C29.9217 9.54763 31.8976 8.99698 34.4241 8.99698C34.7804 8.99698 35.3796 9.02937 36.2218 9.09416L37.8737 9.2885C38.7807 9.45046 39.5257 9.53143 40.1087 9.53143C40.7889 9.53143 41.2748 9.38567 41.5663 9.09416L43.2183 15.8963L43.0239 15.9934C42.7 15.0217 41.9712 14.1472 40.8375 13.3698C39.7038 12.56 38.3596 11.9284 36.8048 11.4749C35.2825 10.989 33.8087 10.7461 32.3835 10.7461C30.7639 10.7461 29.4359 11.07 28.3994 11.7178C27.3952 12.3333 26.8932 13.2888 26.8932 14.5844C26.8932 15.7829 27.4762 16.7222 28.6423 17.4024C29.8408 18.0503 31.6547 18.7305 34.084 19.4431C36.2218 20.1233 37.9385 20.7549 39.2342 21.338C40.5298 21.8886 41.6149 22.6822 42.4895 23.7187C43.3964 24.7552 43.8013 26.067 43.7041 27.6542C43.5746 29.954 42.8458 31.6383 41.5177 32.7072C40.2221 33.7437 38.1167 34.262 35.2015 34.262C34.7804 34.262 34.0516 34.2296 33.0151 34.1648ZM50.4053 22.1639C50.2757 22.8441 50.2109 23.6053 50.2109 24.4475C50.2109 26.3262 50.5996 27.9943 51.377 29.4519C52.1868 30.8771 53.2557 31.9136 54.5837 32.5614C55.7498 33.1121 56.9806 33.3874 58.2763 33.3874C59.7663 33.3874 61.2238 33.0311 62.6491 32.3185C64.1066 31.6059 65.3861 30.5532 66.4874 29.1604H69.2568C68.0907 30.6828 66.6169 31.865 64.8354 32.7072C63.0863 33.5494 61.2077 33.9704 59.1994 33.9704C57.5799 33.9704 55.9927 33.6789 54.4379 33.0959C53.1747 32.61 51.9762 31.865 50.8425 30.8609C49.7412 29.8244 48.8343 28.5773 48.1217 27.1197C47.4415 25.6298 47.1014 24.0264 47.1014 22.3097C47.1014 20.8521 47.3605 19.3945 47.8788 17.9369C48.7857 15.3132 50.2919 13.3374 52.3973 12.0093C54.5351 10.6813 56.8673 10.0173 59.3938 10.0173C61.2077 10.0173 62.9082 10.3412 64.4953 10.989C66.3416 11.7016 67.7992 12.9811 68.8681 14.8274C69.9694 16.6737 70.5201 18.7305 70.5201 20.9978C70.5201 21.5161 70.5039 21.9048 70.4715 22.1639H50.4053ZM51.1826 19.4431C50.9235 20.0585 50.713 20.7711 50.551 21.5809H66.6331C66.9894 19.9937 67.1676 18.6495 67.1676 17.5482C67.1676 15.9934 66.8923 14.6978 66.3416 13.6613C65.791 12.5924 65.046 11.8312 64.1066 11.3777C63.4588 11.0538 62.6976 10.8919 61.8231 10.8919C60.5598 10.8919 59.2156 11.2482 57.7904 11.9608C56.3976 12.6734 55.1019 13.6937 53.9035 15.0217C52.705 16.3173 51.7981 17.7911 51.1826 19.4431ZM78.7566 17.6454C79.2749 15.4428 80.2628 13.5965 81.7204 12.1065C83.178 10.5841 84.8299 9.82296 86.6762 9.82296C87.2269 9.82296 87.7451 9.88774 88.231 10.0173V14.3415C86.9029 13.6613 85.6721 13.3212 84.5384 13.3212C82.8865 13.3212 81.526 13.9528 80.4571 15.2161C79.4206 16.4793 78.8538 18.115 78.7566 20.1233V29.3061C78.7566 31.8974 79.1453 33.5656 79.9227 34.3105H73.898C74.6753 33.4684 75.064 31.8002 75.064 29.3061V15.0217C75.064 12.398 74.6753 10.7299 73.898 10.0173H78.7566V17.6454ZM110.969 0.300001C110.192 1.0126 109.803 2.68074 109.803 5.30441V25.0305C109.803 28.0429 108.994 30.3103 107.374 31.8326C105.755 33.3226 103.762 34.0676 101.398 34.0676C99.5192 34.0676 97.7215 33.6303 96.0048 32.7558C94.2881 31.8488 92.9925 30.6504 92.1179 29.1604L95.519 26.7796C95.8105 27.6866 96.3449 28.6745 97.1223 29.7434C97.8997 30.8123 98.7742 31.7193 99.746 32.4643C100.75 33.1769 101.673 33.5332 102.515 33.5332C103.617 33.5332 104.491 32.853 105.139 31.4925C105.787 30.1321 106.111 27.9619 106.111 24.9819V5.30441C106.111 2.77791 105.722 1.10978 104.945 0.300001H110.969ZM121.719 33.0959C120.456 32.61 119.257 31.865 118.123 30.8609C117.022 29.8244 116.115 28.5773 115.403 27.1197C114.722 25.6298 114.382 24.0264 114.382 22.3097C114.382 20.8521 114.641 19.3945 115.16 17.9369C116.034 15.378 117.476 13.4022 119.484 12.0093C121.492 10.6165 123.727 9.92013 126.189 9.92013C128.424 9.92013 130.513 10.487 132.456 11.6207C134.368 12.7219 135.809 14.1633 136.781 15.9449C137.785 17.694 138.287 19.5888 138.287 21.6295C138.287 23.5729 137.85 25.4516 136.975 27.2655C135.971 29.3709 134.529 31.0229 132.651 32.2213C130.772 33.3874 128.699 33.9704 126.432 33.9704C124.845 33.9704 123.274 33.6789 121.719 33.0959ZM121.816 32.6586C122.529 33.0149 123.371 33.1931 124.343 33.1931C126.124 33.1931 127.889 32.529 129.638 31.201C131.42 29.8406 132.845 27.9943 133.914 25.6622C134.886 23.4596 135.372 21.3218 135.372 19.2487C135.372 17.6292 135.096 16.1878 134.546 14.9245C133.995 13.6613 133.218 12.7058 132.214 12.0579C131.177 11.3453 129.962 10.989 128.57 10.989C126.626 10.989 124.715 11.7178 122.836 13.1754C120.958 14.633 119.5 16.7222 118.464 19.4431C117.783 21.1598 117.443 22.8927 117.443 24.6418C117.443 26.5205 117.848 28.1725 118.658 29.5977C119.468 31.0229 120.52 32.0432 121.816 32.6586ZM160.698 33.6303V29.4519C159.597 30.9419 158.139 32.1242 156.325 32.9987C154.511 33.8733 152.681 34.3105 150.835 34.3105C148.535 34.3105 146.624 33.5979 145.102 32.1727C143.612 30.7151 142.867 28.5611 142.867 25.7107V15.0217C142.867 12.398 142.478 10.7299 141.701 10.0173H146.559V25.4192C146.559 28.0429 147.11 29.9863 148.211 31.2496C149.313 32.5128 150.722 33.1445 152.438 33.1445C153.928 33.1445 155.435 32.7396 156.957 31.9298C158.479 31.0876 159.726 30.0025 160.698 28.6745V15.0217C160.698 12.398 160.309 10.7299 159.532 10.0173H164.391V28.6259C164.391 31.2172 164.779 32.8853 165.557 33.6303H160.698ZM173.32 17.6454C173.838 15.4428 174.826 13.5965 176.284 12.1065C177.741 10.5841 179.393 9.82296 181.24 9.82296C181.79 9.82296 182.308 9.88774 182.794 10.0173V14.3415C181.466 13.6613 180.235 13.3212 179.102 13.3212C177.45 13.3212 176.089 13.9528 175.02 15.2161C173.984 16.4793 173.417 18.115 173.32 20.1233V29.3061C173.32 31.8974 173.709 33.5656 174.486 34.3105H168.461C169.239 33.4684 169.627 31.8002 169.627 29.3061V15.0217C169.627 12.398 169.239 10.7299 168.461 10.0173H173.32V17.6454ZM204.513 34.3105C205.29 33.4684 205.679 31.8002 205.679 29.3061V18.2284C205.679 15.6047 205.128 13.6613 204.027 12.398C202.925 11.1348 201.516 10.5032 199.8 10.5032C198.31 10.5032 196.803 10.9242 195.281 11.7664C193.759 12.5762 192.512 13.6451 191.54 14.9731V29.3061C191.54 31.8974 191.929 33.5656 192.706 34.3105H186.681C187.459 33.4684 187.847 31.8002 187.847 29.3061V15.0217C187.847 12.398 187.459 10.7299 186.681 10.0173H191.54V14.1957C192.641 12.7058 194.099 11.5235 195.913 10.6489C197.727 9.77437 199.557 9.33709 201.403 9.33709C203.703 9.33709 205.598 10.0659 207.088 11.5235C208.61 12.9487 209.371 15.0865 209.371 17.9369V29.3061C209.371 31.8974 209.76 33.5656 210.537 34.3105H204.513ZM217.232 22.1639C217.102 22.8441 217.037 23.6053 217.037 24.4475C217.037 26.3262 217.426 27.9943 218.203 29.4519C219.013 30.8771 220.082 31.9136 221.41 32.5614C222.576 33.1121 223.807 33.3874 225.103 33.3874C226.593 33.3874 228.05 33.0311 229.475 32.3185C230.933 31.6059 232.212 30.5532 233.314 29.1604H236.083C234.917 30.6828 233.443 31.865 231.662 32.7072C229.913 33.5494 228.034 33.9704 226.026 33.9704C224.406 33.9704 222.819 33.6789 221.264 33.0959C220.001 32.61 218.802 31.865 217.669 30.8609C216.568 29.8244 215.661 28.5773 214.948 27.1197C214.268 25.6298 213.928 24.0264 213.928 22.3097C213.928 20.8521 214.187 19.3945 214.705 17.9369C215.612 15.3132 217.118 13.3374 219.224 12.0093C221.361 10.6813 223.694 10.0173 226.22 10.0173C228.034 10.0173 229.734 10.3412 231.322 10.989C233.168 11.7016 234.625 12.9811 235.694 14.8274C236.796 16.6737 237.346 18.7305 237.346 20.9978C237.346 21.5161 237.33 21.9048 237.298 22.1639H217.232ZM218.009 19.4431C217.75 20.0585 217.539 20.7711 217.377 21.5809H233.459C233.816 19.9937 233.994 18.6495 233.994 17.5482C233.994 15.9934 233.719 14.6978 233.168 13.6613C232.617 12.5924 231.872 11.8312 230.933 11.3777C230.285 11.0538 229.524 10.8919 228.649 10.8919C227.386 10.8919 226.042 11.2482 224.617 11.9608C223.224 12.6734 221.928 13.6937 220.73 15.0217C219.531 16.3173 218.624 17.7911 218.009 19.4431ZM264.287 10.0173C263.25 10.7299 262.295 11.4911 261.42 12.3009C260.578 13.0782 259.93 14.0176 259.477 15.1189L251.314 34.3105C251.023 37.1933 250.261 39.9952 249.031 42.716C247.8 45.4692 246.196 47.7204 244.221 49.4695C242.245 51.2186 240.075 52.0932 237.71 52.0932C235.799 52.0932 234.293 51.6235 233.191 50.6842C232.058 49.7449 231.491 48.6112 231.491 47.2831C231.491 46.279 231.831 45.3397 232.511 44.4651C233.191 43.5906 234.179 42.9104 235.475 42.4245C236.609 42.0034 238.228 41.5175 240.334 40.9669C242.439 40.4486 244.091 39.9466 245.289 39.4607C246.52 39.0072 247.33 38.4566 247.719 37.8088H248.01C247.654 38.5538 246.844 39.1692 245.581 39.6551C244.35 40.1733 242.666 40.724 240.528 41.307C240.334 41.3718 239.653 41.5661 238.487 41.89C237.321 42.2139 236.366 42.5703 235.621 42.9589C234.843 43.3476 234.26 43.8011 233.872 44.3194C233.451 44.87 233.24 45.4207 233.24 45.9713C233.24 46.943 233.774 47.7528 234.843 48.4006C235.88 49.0484 237.305 49.3076 239.119 49.178C240.965 49.0484 242.698 48.3035 244.318 46.943C245.97 45.615 247.346 43.8335 248.448 41.5985C249.549 39.3959 250.229 36.9666 250.488 34.3105L240.771 14.2929C240.026 12.9649 239.459 12.0093 239.07 11.4263C238.682 10.8109 238.261 10.3412 237.807 10.0173H244.221C244.091 10.1793 244.026 10.4708 244.026 10.8919C244.026 11.6369 244.302 12.7058 244.852 14.0986L252.48 29.6948L258.845 15.1189C259.104 14.4711 259.234 13.807 259.234 13.1268C259.234 12.2847 259.072 11.5721 258.748 10.989C258.456 10.406 258.294 10.0821 258.262 10.0173H264.287Z" fill="#2D1A06"/>
</svg>
