<svg width="307" height="53" viewBox="0 0 307 53" fill="none" xmlns="http://www.w3.org/2000/svg">
<path d="M42.8023 0.523634C41.863 1.23624 41.0046 1.99742 40.2272 2.8072C39.4822 3.58458 38.9478 4.52392 38.6239 5.62522L30.3642 34.5342H29.5382L21.3757 8.29747L15.7396 34.5342H14.9137V34.437L2.42695 3.19589C1.81152 1.93264 1.11511 1.04189 0.337727 0.523634H7.09125C6.83212 0.847544 6.70256 1.28482 6.70256 1.83547C6.70256 2.51568 6.94549 3.66556 7.43136 5.28511L16.4199 27.6835L20.987 7.03422L20.5011 5.52804V5.47946L19.8695 3.536C19.3512 2.14318 18.6872 1.13906 17.8775 0.523634H24.631C24.3071 0.847544 24.1451 1.41439 24.1451 2.22416C24.1451 3.09872 24.3071 4.11904 24.631 5.28511L31.5788 27.5377L37.9923 5.62522C38.1218 5.20413 38.1866 4.73446 38.1866 4.21621C38.1866 3.536 38.0732 2.93676 37.8465 2.41851C37.6198 1.86786 37.393 1.44678 37.1663 1.15526C36.9719 0.831349 36.8424 0.620808 36.7776 0.523634H42.8023ZM42.2394 22.3876C42.1098 23.0678 42.0451 23.829 42.0451 24.6711C42.0451 26.5498 42.4337 28.2179 43.2111 29.6755C44.0209 31.1007 45.0898 32.1372 46.4178 32.7851C47.5839 33.3357 48.8148 33.611 50.1104 33.611C51.6004 33.611 53.058 33.2547 54.4832 32.5421C55.9408 31.8295 57.2202 30.7768 58.3215 29.384H61.091C59.9249 30.9064 58.4511 32.0887 56.6696 32.9308C54.9205 33.773 53.0418 34.1941 51.0336 34.1941C49.414 34.1941 47.8268 33.9026 46.2721 33.3195C45.0088 32.8337 43.8104 32.0887 42.6767 31.0845C41.5754 30.048 40.6684 28.801 39.9558 27.3434C39.2756 25.8534 38.9355 24.25 38.9355 22.5333C38.9355 21.0757 39.1946 19.6181 39.7129 18.1605C40.6198 15.5369 42.126 13.561 44.2314 12.233C46.3693 10.9049 48.7014 10.2409 51.2279 10.2409C53.0418 10.2409 54.7423 10.5648 56.3295 11.2127C58.1758 11.9253 59.6334 13.2047 60.7023 15.051C61.8036 16.8973 62.3542 18.9541 62.3542 21.2215C62.3542 21.7397 62.338 22.1284 62.3056 22.3876H42.2394ZM43.0168 19.6667C42.7577 20.2821 42.5471 20.9947 42.3852 21.8045H58.4673C58.8236 20.2174 59.0017 18.8731 59.0017 17.7718C59.0017 16.2171 58.7264 14.9214 58.1758 13.8849C57.6251 12.816 56.8801 12.0548 55.9408 11.6014C55.293 11.2774 54.5318 11.1155 53.6572 11.1155C52.394 11.1155 51.0498 11.4718 49.6245 12.1844C48.2317 12.897 46.9361 13.9173 45.7376 15.2453C44.5392 16.541 43.6322 18.0148 43.0168 19.6667ZM70.5908 14.2736C71.3681 13.1399 72.437 12.2816 73.7975 11.6985C75.1903 11.0831 76.6803 10.7754 78.2674 10.7754C80.1785 10.7754 81.9924 11.2127 83.7091 12.0872C85.4258 12.9618 86.8186 14.306 87.8875 16.1199C88.9888 17.9014 89.5395 20.1202 89.5395 22.7762C89.5395 25.3999 88.9888 27.6187 87.8875 29.4326C86.8186 31.2141 85.4258 32.5583 83.7091 33.4653C81.9924 34.3398 80.1785 34.7771 78.2674 34.7771C76.6803 34.7771 75.1903 34.4856 73.7975 33.9026C72.437 33.2871 71.3681 32.4126 70.5908 31.2789V34.5342H65.7321C66.5095 33.7892 66.8982 32.1211 66.8982 29.5298V5.52804C66.8982 2.90437 66.5095 1.23624 65.7321 0.523634H70.5908V14.2736ZM85.7012 22.8248C85.7012 20.1688 85.3125 17.9986 84.5351 16.3142C83.7901 14.6299 82.8022 13.3991 81.5713 12.6217C80.3404 11.8443 79.0124 11.4556 77.5872 11.4556C76.162 11.4556 74.8016 11.7957 73.5059 12.4759C72.2427 13.1237 71.271 13.9983 70.5908 15.0996V30.5501C71.3034 31.6838 72.2427 32.5745 73.4088 33.2223C74.6072 33.8378 75.8705 34.1455 77.1985 34.1455C78.6561 34.1455 80.0327 33.7406 81.3284 32.9308C82.624 32.0887 83.6767 30.8254 84.4865 29.1411C85.2963 27.4244 85.7012 25.3189 85.7012 22.8248ZM99.7218 34.3884C99.0416 34.356 98.2966 34.2427 97.4868 34.0483C96.6446 33.9188 96.1102 33.854 95.8834 33.854C95.4624 33.854 95.1061 33.9188 94.8145 34.0483L92.9197 26.5174L93.114 26.4202C93.5675 27.5863 94.4096 28.6228 95.6405 29.5298C96.9038 30.4367 98.329 31.1493 99.9161 31.6676C101.536 32.1534 103.074 32.3964 104.532 32.3964C106.087 32.3964 107.35 32.1049 108.322 31.5218C109.326 30.9388 109.828 30.048 109.828 28.8496C109.828 28.0722 109.52 27.4082 108.905 26.8575C108.322 26.2745 107.593 25.8048 106.718 25.4485C105.844 25.0922 104.613 24.6549 103.026 24.1367C100.953 23.4889 99.2521 22.8734 97.9241 22.2904C96.596 21.675 95.4624 20.8328 94.523 19.7639C93.5837 18.6626 93.114 17.286 93.114 15.634C93.114 13.5286 93.8104 11.9415 95.2032 10.8726C96.6284 9.77126 98.6043 9.22062 101.131 9.22062C101.487 9.22062 102.086 9.25301 102.928 9.31779L104.58 9.51213C105.487 9.67409 106.232 9.75507 106.815 9.75507C107.496 9.75507 107.981 9.60931 108.273 9.31779L109.925 16.1199L109.731 16.2171C109.407 15.2453 108.678 14.3708 107.544 13.5934C106.411 12.7836 105.066 12.152 103.512 11.6985C101.989 11.2127 100.515 10.9697 99.0901 10.9697C97.4706 10.9697 96.1426 11.2936 95.1061 11.9415C94.1019 12.5569 93.5999 13.5124 93.5999 14.8081C93.5999 16.0065 94.1829 16.9459 95.349 17.6261C96.5475 18.2739 98.3613 18.9541 100.791 19.6667C102.928 20.3469 104.645 20.9785 105.941 21.5616C107.236 22.1122 108.322 22.9058 109.196 23.9423C110.103 24.9788 110.508 26.2907 110.411 27.8778C110.281 30.1776 109.552 31.8619 108.224 32.9308C106.929 33.9673 104.823 34.4856 101.908 34.4856C101.487 34.4856 100.758 34.4532 99.7218 34.3884ZM116.043 4.99359C115.428 4.99359 114.893 4.78305 114.44 4.36197C114.019 3.90849 113.808 3.37404 113.808 2.75861C113.808 2.14318 114.019 1.62493 114.44 1.20384C114.893 0.750371 115.428 0.523634 116.043 0.523634C116.658 0.523634 117.177 0.750371 117.598 1.20384C118.051 1.62493 118.278 2.14318 118.278 2.75861C118.278 3.37404 118.051 3.90849 117.598 4.36197C117.177 4.78305 116.658 4.99359 116.043 4.99359ZM113.322 34.5342C114.1 33.692 114.488 32.0239 114.488 29.5298V15.2453C114.488 12.6217 114.1 10.9535 113.322 10.2409H118.181V29.5298C118.181 32.1211 118.57 33.7892 119.347 34.5342H113.322ZM126.809 27.6835C126.809 30.1128 127.133 31.8457 127.781 32.8822C128.461 33.9188 129.466 34.437 130.794 34.437C131.636 34.437 132.64 34.2589 133.806 33.9026V34.2427C132.024 34.6314 130.567 34.8257 129.433 34.8257C127.425 34.8257 125.87 34.2912 124.769 33.2223C123.7 32.1534 123.149 30.3557 123.117 27.8292V13.0589H120.785V12.4759H123.117V10.1438C123.117 7.52009 122.728 5.85195 121.951 5.13935H126.809V12.4759H131.037V13.0589H126.809V27.6835ZM135.142 22.3876C135.013 23.0678 134.948 23.829 134.948 24.6711C134.948 26.5498 135.336 28.2179 136.114 29.6755C136.924 31.1007 137.992 32.1372 139.321 32.7851C140.487 33.3357 141.717 33.611 143.013 33.611C144.503 33.611 145.961 33.2547 147.386 32.5421C148.843 31.8295 150.123 30.7768 151.224 29.384H153.994C152.828 30.9064 151.354 32.0887 149.572 32.9308C147.823 33.773 145.944 34.1941 143.936 34.1941C142.317 34.1941 140.73 33.9026 139.175 33.3195C137.912 32.8337 136.713 32.0887 135.579 31.0845C134.478 30.048 133.571 28.801 132.859 27.3434C132.178 25.8534 131.838 24.25 131.838 22.5333C131.838 21.0757 132.097 19.6181 132.616 18.1605C133.523 15.5369 135.029 13.561 137.134 12.233C139.272 10.9049 141.604 10.2409 144.131 10.2409C145.944 10.2409 147.645 10.5648 149.232 11.2127C151.078 11.9253 152.536 13.2047 153.605 15.051C154.706 16.8973 155.257 18.9541 155.257 21.2215C155.257 21.7397 155.241 22.1284 155.208 22.3876H135.142ZM135.919 19.6667C135.66 20.2821 135.45 20.9947 135.288 21.8045H151.37C151.726 20.2174 151.904 18.8731 151.904 17.7718C151.904 16.2171 151.629 14.9214 151.078 13.8849C150.528 12.816 149.783 12.0548 148.843 11.6014C148.196 11.2774 147.434 11.1155 146.56 11.1155C145.297 11.1155 143.952 11.4718 142.527 12.1844C141.134 12.897 139.839 13.9173 138.64 15.2453C137.442 16.541 136.535 18.0148 135.919 19.6667ZM177.424 0.523634C181.085 0.523634 184.194 1.30102 186.753 2.85579C189.312 4.41055 191.223 6.45119 192.486 8.97768C193.782 11.5042 194.43 14.225 194.43 17.1402C194.43 20.1202 193.766 22.9382 192.438 25.5943C191.142 28.2503 189.199 30.4043 186.607 32.0563C184.048 33.7082 180.987 34.5342 177.424 34.5342H169.311C170.088 33.7892 170.477 32.1211 170.477 29.5298V5.52804C170.477 2.90437 170.088 1.23624 169.311 0.523634H177.424ZM177.376 34.0969C180.194 34.0969 182.607 33.3195 184.615 31.7647C186.624 30.1776 188.13 28.1208 189.134 25.5943C190.17 23.0354 190.689 20.3145 190.689 17.4317C190.689 14.5813 190.187 11.9091 189.182 9.41496C188.178 6.88847 186.672 4.86403 184.664 3.34165C182.656 1.81928 180.226 1.07428 177.376 1.10667L174.169 1.15526V34.0969H177.376ZM201.616 22.3876C201.487 23.0678 201.422 23.829 201.422 24.6711C201.422 26.5498 201.811 28.2179 202.588 29.6755C203.398 31.1007 204.467 32.1372 205.795 32.7851C206.961 33.3357 208.192 33.611 209.487 33.611C210.977 33.611 212.435 33.2547 213.86 32.5421C215.318 31.8295 216.597 30.7768 217.699 29.384H220.468C219.302 30.9064 217.828 32.0887 216.047 32.9308C214.297 33.773 212.419 34.1941 210.411 34.1941C208.791 34.1941 207.204 33.9026 205.649 33.3195C204.386 32.8337 203.187 32.0887 202.054 31.0845C200.952 30.048 200.045 28.801 199.333 27.3434C198.653 25.8534 198.312 24.25 198.312 22.5333C198.312 21.0757 198.572 19.6181 199.09 18.1605C199.997 15.5369 201.503 13.561 203.608 12.233C205.746 10.9049 208.078 10.2409 210.605 10.2409C212.419 10.2409 214.119 10.5648 215.706 11.2127C217.553 11.9253 219.01 13.2047 220.079 15.051C221.181 16.8973 221.731 18.9541 221.731 21.2215C221.731 21.7397 221.715 22.1284 221.683 22.3876H201.616ZM202.394 19.6667C202.135 20.2821 201.924 20.9947 201.762 21.8045H217.844C218.201 20.2174 218.379 18.8731 218.379 17.7718C218.379 16.2171 218.103 14.9214 217.553 13.8849C217.002 12.816 216.257 12.0548 215.318 11.6014C214.67 11.2774 213.909 11.1155 213.034 11.1155C211.771 11.1155 210.427 11.4718 209.002 12.1844C207.609 12.897 206.313 13.9173 205.115 15.2453C203.916 16.541 203.009 18.0148 202.394 19.6667ZM231.911 34.3884C231.231 34.356 230.486 34.2427 229.676 34.0483C228.834 33.9188 228.3 33.854 228.073 33.854C227.652 33.854 227.295 33.9188 227.004 34.0483L225.109 26.5174L225.303 26.4202C225.757 27.5863 226.599 28.6228 227.83 29.5298C229.093 30.4367 230.518 31.1493 232.106 31.6676C233.725 32.1534 235.264 32.3964 236.721 32.3964C238.276 32.3964 239.539 32.1049 240.511 31.5218C241.515 30.9388 242.017 30.048 242.017 28.8496C242.017 28.0722 241.709 27.4082 241.094 26.8575C240.511 26.2745 239.782 25.8048 238.908 25.4485C238.033 25.0922 236.802 24.6549 235.215 24.1367C233.142 23.4889 231.442 22.8734 230.113 22.2904C228.785 21.675 227.652 20.8328 226.712 19.7639C225.773 18.6626 225.303 17.286 225.303 15.634C225.303 13.5286 226 11.9415 227.393 10.8726C228.818 9.77126 230.794 9.22062 233.32 9.22062C233.677 9.22062 234.276 9.25301 235.118 9.31779L236.77 9.51213C237.677 9.67409 238.422 9.75507 239.005 9.75507C239.685 9.75507 240.171 9.60931 240.462 9.31779L242.114 16.1199L241.92 16.2171C241.596 15.2453 240.867 14.3708 239.734 13.5934C238.6 12.7836 237.256 12.152 235.701 11.6985C234.179 11.2127 232.705 10.9697 231.28 10.9697C229.66 10.9697 228.332 11.2936 227.295 11.9415C226.291 12.5569 225.789 13.5124 225.789 14.8081C225.789 16.0065 226.372 16.9459 227.538 17.6261C228.737 18.2739 230.551 18.9541 232.98 19.6667C235.118 20.3469 236.835 20.9785 238.13 21.5616C239.426 22.1122 240.511 22.9058 241.386 23.9423C242.293 24.9788 242.697 26.2907 242.6 27.8778C242.471 30.1776 241.742 31.8619 240.414 32.9308C239.118 33.9673 237.013 34.4856 234.098 34.4856C233.677 34.4856 232.948 34.4532 231.911 34.3884ZM248.232 4.99359C247.617 4.99359 247.083 4.78305 246.629 4.36197C246.208 3.90849 245.997 3.37404 245.997 2.75861C245.997 2.14318 246.208 1.62493 246.629 1.20384C247.083 0.750371 247.617 0.523634 248.232 0.523634C248.848 0.523634 249.366 0.750371 249.787 1.20384C250.241 1.62493 250.467 2.14318 250.467 2.75861C250.467 3.37404 250.241 3.90849 249.787 4.36197C249.366 4.78305 248.848 4.99359 248.232 4.99359ZM245.512 34.5342C246.289 33.692 246.678 32.0239 246.678 29.5298V15.2453C246.678 12.6217 246.289 10.9535 245.512 10.2409H250.37V29.5298C250.37 32.1211 250.759 33.7892 251.536 34.5342H245.512ZM279.405 13.0104C277.948 12.2006 276.798 11.7957 275.956 11.7957C275.211 11.7957 274.644 12.0872 274.255 12.6703C275.777 13.8039 276.927 15.1806 277.705 16.8001C278.482 18.3873 278.871 20.0878 278.871 21.9017C278.871 23.8128 278.434 25.6752 277.559 27.4891C276.814 29.0763 275.794 30.4043 274.498 31.4732C273.235 32.5421 271.81 33.3033 270.222 33.7568C269.315 34.2103 268.198 34.518 266.87 34.6799C265.574 34.8419 263.971 34.9553 262.06 35.02C261.671 35.0524 261.056 35.0848 260.214 35.1172C259.404 35.182 258.74 35.2468 258.222 35.3116C257.477 35.4411 256.926 35.6679 256.57 35.9918C256.213 36.3481 256.035 36.7692 256.035 37.255C256.035 37.6761 256.165 38.0972 256.424 38.5183C256.683 38.9717 257.007 39.3119 257.396 39.5386C258.238 40.0245 259.08 40.2674 259.922 40.2674C260.829 40.2674 261.833 40.0083 262.934 39.49C264.036 38.9717 265.315 38.2106 266.773 37.2064C269.364 35.3925 271.583 34.4856 273.429 34.4856C274.757 34.4856 275.777 34.9553 276.49 35.8946C277.203 36.8339 277.559 38.0486 277.559 39.5386C277.559 41.4497 277.041 43.4255 276.004 45.4661C274.968 47.5068 273.462 49.2073 271.486 50.5677C269.51 51.9605 267.226 52.6569 264.635 52.6569C262.886 52.6569 261.347 52.2197 260.019 51.3451C258.691 50.5029 257.687 49.3369 257.007 47.8469C256.327 46.3893 256.035 44.8021 256.132 43.0854H256.472C256.31 45.5147 256.926 47.3286 258.319 48.5271C259.744 49.7256 261.655 50.3248 264.052 50.3248C266.19 50.3248 268.068 49.7256 269.688 48.5271C271.308 47.361 272.538 45.9034 273.381 44.1543C274.255 42.4052 274.692 40.7533 274.692 39.1985C274.692 38.0972 274.449 37.1902 273.964 36.4776C273.478 35.7974 272.781 35.4573 271.874 35.4573C270.514 35.4573 268.894 36.1537 267.016 37.5465C266.433 38 265.995 38.3239 265.704 38.5183C263.858 39.8787 262.384 40.8666 261.282 41.482C260.214 42.0975 259.128 42.4052 258.027 42.4052C257.282 42.4052 256.537 42.2432 255.792 41.9193C255.047 41.6278 254.464 41.1905 254.043 40.6075C253.654 40.0568 253.46 39.4576 253.46 38.8098C253.46 37.8381 253.865 36.9635 254.675 36.1861C255.517 35.4411 256.667 34.9877 258.124 34.8257C258.675 34.7609 259.339 34.7123 260.116 34.6799C260.894 34.6475 261.444 34.6314 261.768 34.6314C262.092 34.599 262.837 34.5666 264.003 34.5342C265.202 34.4694 266.255 34.356 267.161 34.1941C265.574 34.2589 263.955 33.9673 262.303 33.3195C261.04 32.8337 259.841 32.0887 258.707 31.0845C257.606 30.048 256.699 28.801 255.987 27.3434C255.306 25.8534 254.966 24.25 254.966 22.5333C254.966 21.0757 255.225 19.6181 255.744 18.1605C256.618 15.6016 258.06 13.6258 260.068 12.233C262.076 10.8402 264.311 10.1438 266.773 10.1438C269.008 10.1438 271.097 10.7106 273.04 11.8443L273.964 12.4273C274.352 11.2612 274.822 10.3219 275.373 9.60931C275.923 8.89671 276.717 8.54041 277.753 8.54041C278.207 8.54041 278.757 8.63758 279.405 8.83192V13.0104ZM274.498 25.8858C275.535 23.6184 276.053 21.4968 276.053 19.521C276.053 17.869 275.713 16.4276 275.032 15.1968C274.385 13.9335 273.494 12.9618 272.36 12.2816C271.259 11.6014 270.044 11.2612 268.716 11.2612C266.838 11.2612 265.024 11.9739 263.275 13.3991C261.525 14.7919 260.116 16.8811 259.048 19.6667C258.27 21.7397 257.881 23.6184 257.881 25.3027C257.881 26.9547 258.189 28.3961 258.805 29.6269C259.452 30.8578 260.311 31.8133 261.38 32.4935C262.481 33.1414 263.679 33.4653 264.975 33.4653C266.757 33.4653 268.506 32.8337 270.222 31.5704C271.939 30.2748 273.364 28.3799 274.498 25.8858ZM300.162 34.5342C300.94 33.692 301.328 32.0239 301.328 29.5298V18.452C301.328 15.8284 300.778 13.8849 299.676 12.6217C298.575 11.3584 297.166 10.7268 295.449 10.7268C293.959 10.7268 292.453 11.1479 290.931 11.99C289.409 12.7998 288.161 13.8687 287.19 15.1968V29.5298C287.19 32.1211 287.578 33.7892 288.356 34.5342H282.331C283.108 33.692 283.497 32.0239 283.497 29.5298V15.2453C283.497 12.6217 283.108 10.9535 282.331 10.2409H287.19V14.4194C288.291 12.9294 289.749 11.7471 291.563 10.8726C293.376 9.998 295.206 9.56072 297.053 9.56072C299.353 9.56072 301.247 10.2895 302.737 11.7471C304.26 13.1723 305.021 15.3101 305.021 18.1605V29.5298C305.021 32.1211 305.41 33.7892 306.187 34.5342H300.162Z" fill="#2D1A06"/>
</svg>
