<svg width="493" height="618" viewBox="0 0 493 618" fill="none" xmlns="http://www.w3.org/2000/svg">
<rect width="492.163" height="617.228" transform="translate(0.583862 0.179199)" fill="white"/>
<rect x="179.987" y="230.645" width="133.801" height="133.801" rx="66.9007" fill="#9B5DE5"/>
<path d="M194.266 290.45C194.266 290.065 194.307 289.692 194.389 289.332C194.479 288.971 194.618 288.652 194.807 288.373C194.995 288.087 195.241 287.861 195.544 287.698C195.847 287.526 196.216 287.44 196.65 287.44C197.084 287.44 197.453 287.526 197.756 287.698C198.059 287.861 198.305 288.087 198.493 288.373C198.682 288.652 198.817 288.971 198.899 289.332C198.989 289.692 199.034 290.065 199.034 290.45C199.034 290.819 198.989 291.179 198.899 291.531C198.817 291.876 198.682 292.187 198.493 292.465C198.305 292.744 198.059 292.969 197.756 293.141C197.453 293.305 197.084 293.387 196.65 293.387C196.216 293.387 195.847 293.305 195.544 293.141C195.241 292.969 194.995 292.744 194.807 292.465C194.618 292.187 194.479 291.876 194.389 291.531C194.307 291.179 194.266 290.819 194.266 290.45ZM192.337 290.45C192.337 291.089 192.435 291.687 192.632 292.244C192.828 292.793 193.111 293.272 193.48 293.682C193.848 294.091 194.299 294.415 194.831 294.653C195.372 294.882 195.978 294.997 196.65 294.997C197.33 294.997 197.936 294.882 198.469 294.653C199.001 294.415 199.452 294.091 199.82 293.682C200.189 293.272 200.472 292.793 200.668 292.244C200.865 291.687 200.963 291.089 200.963 290.45C200.963 289.795 200.865 289.189 200.668 288.632C200.472 288.066 200.189 287.575 199.82 287.157C199.452 286.739 199.001 286.412 198.469 286.174C197.936 285.936 197.33 285.818 196.65 285.818C195.978 285.818 195.372 285.936 194.831 286.174C194.299 286.412 193.848 286.739 193.48 287.157C193.111 287.575 192.828 288.066 192.632 288.632C192.435 289.189 192.337 289.795 192.337 290.45ZM208.057 294.8V288.447H206.312V291.777C206.312 292.424 206.206 292.891 205.993 293.178C205.78 293.457 205.436 293.596 204.961 293.596C204.543 293.596 204.252 293.469 204.088 293.215C203.924 292.953 203.842 292.56 203.842 292.035V288.447H202.097V292.355C202.097 292.748 202.13 293.108 202.196 293.436C202.269 293.756 202.392 294.03 202.564 294.259C202.736 294.481 202.97 294.653 203.265 294.775C203.568 294.898 203.953 294.96 204.42 294.96C204.788 294.96 205.149 294.878 205.501 294.714C205.853 294.55 206.14 294.284 206.361 293.915H206.398V294.8H208.057ZM209.381 288.447V294.8H211.126V291.937C211.126 291.65 211.155 291.384 211.212 291.138C211.27 290.893 211.364 290.68 211.495 290.499C211.634 290.311 211.814 290.163 212.036 290.057C212.257 289.95 212.527 289.897 212.847 289.897C212.953 289.897 213.064 289.905 213.178 289.922C213.293 289.93 213.391 289.942 213.473 289.959V288.337C213.334 288.296 213.207 288.275 213.092 288.275C212.871 288.275 212.658 288.308 212.453 288.373C212.249 288.439 212.056 288.533 211.876 288.656C211.696 288.771 211.536 288.914 211.397 289.086C211.257 289.25 211.147 289.43 211.065 289.627H211.04V288.447H209.381ZM216.271 290.155V287.526H217.77C217.991 287.526 218.204 287.542 218.409 287.575C218.614 287.608 218.794 287.673 218.95 287.771C219.105 287.861 219.228 287.993 219.318 288.165C219.417 288.337 219.466 288.562 219.466 288.84C219.466 289.119 219.417 289.344 219.318 289.516C219.228 289.688 219.105 289.823 218.95 289.922C218.794 290.012 218.614 290.073 218.409 290.106C218.204 290.139 217.991 290.155 217.77 290.155H216.271ZM214.342 286.027V294.8H216.271V291.654H218.298C218.847 291.654 219.314 291.577 219.699 291.421C220.084 291.257 220.395 291.044 220.633 290.782C220.879 290.52 221.055 290.221 221.161 289.885C221.276 289.541 221.333 289.193 221.333 288.84C221.333 288.48 221.276 288.132 221.161 287.796C221.055 287.46 220.879 287.161 220.633 286.899C220.395 286.637 220.084 286.428 219.699 286.272C219.314 286.108 218.847 286.027 218.298 286.027H214.342ZM222.28 290.401C222.304 289.991 222.406 289.651 222.587 289.381C222.767 289.111 222.996 288.894 223.275 288.73C223.553 288.566 223.865 288.451 224.209 288.386C224.561 288.312 224.913 288.275 225.265 288.275C225.585 288.275 225.909 288.3 226.236 288.349C226.564 288.39 226.863 288.476 227.133 288.607C227.404 288.738 227.625 288.922 227.797 289.16C227.969 289.389 228.055 289.696 228.055 290.082V293.387C228.055 293.674 228.071 293.948 228.104 294.21C228.137 294.472 228.194 294.669 228.276 294.8H226.507C226.474 294.702 226.445 294.603 226.421 294.505C226.404 294.399 226.392 294.292 226.384 294.186C226.105 294.472 225.777 294.673 225.401 294.788C225.024 294.902 224.639 294.96 224.246 294.96C223.942 294.96 223.66 294.923 223.398 294.849C223.136 294.775 222.906 294.661 222.71 294.505C222.513 294.349 222.357 294.153 222.243 293.915C222.136 293.678 222.083 293.395 222.083 293.067C222.083 292.707 222.144 292.412 222.267 292.183C222.398 291.945 222.562 291.757 222.759 291.617C222.964 291.478 223.193 291.376 223.447 291.31C223.709 291.237 223.971 291.179 224.233 291.138C224.495 291.097 224.753 291.065 225.007 291.04C225.261 291.015 225.487 290.979 225.683 290.929C225.88 290.88 226.036 290.811 226.15 290.72C226.265 290.622 226.318 290.483 226.31 290.303C226.31 290.114 226.277 289.967 226.212 289.86C226.154 289.746 226.072 289.66 225.966 289.602C225.868 289.537 225.749 289.496 225.61 289.479C225.478 289.455 225.335 289.443 225.179 289.443C224.835 289.443 224.565 289.516 224.368 289.664C224.172 289.811 224.057 290.057 224.024 290.401H222.28ZM226.31 291.691C226.236 291.757 226.142 291.81 226.027 291.851C225.921 291.884 225.802 291.912 225.671 291.937C225.548 291.962 225.417 291.982 225.278 291.998C225.138 292.015 224.999 292.035 224.86 292.06C224.729 292.084 224.598 292.117 224.467 292.158C224.344 292.199 224.233 292.256 224.135 292.33C224.045 292.396 223.971 292.482 223.914 292.588C223.856 292.695 223.828 292.83 223.828 292.994C223.828 293.149 223.856 293.28 223.914 293.387C223.971 293.493 224.049 293.579 224.147 293.645C224.246 293.702 224.36 293.743 224.491 293.768C224.622 293.792 224.758 293.805 224.897 293.805C225.241 293.805 225.507 293.747 225.696 293.633C225.884 293.518 226.023 293.383 226.113 293.227C226.203 293.063 226.257 292.9 226.273 292.736C226.298 292.572 226.31 292.441 226.31 292.342V291.691ZM230.761 292.736H229.102C229.118 293.162 229.213 293.518 229.385 293.805C229.565 294.083 229.79 294.309 230.06 294.481C230.339 294.653 230.654 294.775 231.007 294.849C231.359 294.923 231.719 294.96 232.088 294.96C232.448 294.96 232.801 294.923 233.145 294.849C233.497 294.784 233.808 294.665 234.079 294.493C234.349 294.321 234.566 294.096 234.73 293.817C234.902 293.53 234.988 293.178 234.988 292.76C234.988 292.465 234.931 292.22 234.816 292.023C234.701 291.818 234.55 291.65 234.361 291.519C234.173 291.38 233.956 291.269 233.71 291.187C233.472 291.105 233.227 291.036 232.973 290.979C232.727 290.921 232.485 290.868 232.248 290.819C232.01 290.77 231.797 290.716 231.609 290.659C231.428 290.593 231.281 290.512 231.166 290.413C231.052 290.315 230.994 290.188 230.994 290.032C230.994 289.901 231.027 289.799 231.093 289.725C231.158 289.643 231.236 289.582 231.326 289.541C231.424 289.5 231.531 289.475 231.646 289.467C231.76 289.451 231.867 289.443 231.965 289.443C232.276 289.443 232.547 289.504 232.776 289.627C233.005 289.742 233.132 289.967 233.157 290.303H234.816C234.783 289.909 234.681 289.586 234.509 289.332C234.345 289.07 234.136 288.861 233.882 288.705C233.628 288.55 233.337 288.439 233.01 288.373C232.69 288.308 232.358 288.275 232.014 288.275C231.67 288.275 231.334 288.308 231.007 288.373C230.679 288.431 230.384 288.537 230.122 288.693C229.86 288.84 229.647 289.045 229.483 289.307C229.327 289.57 229.249 289.905 229.249 290.315C229.249 290.593 229.307 290.831 229.421 291.028C229.536 291.216 229.688 291.376 229.876 291.507C230.065 291.63 230.278 291.732 230.515 291.814C230.761 291.888 231.011 291.953 231.265 292.011C231.887 292.142 232.371 292.273 232.715 292.404C233.067 292.535 233.243 292.732 233.243 292.994C233.243 293.149 233.206 293.28 233.132 293.387C233.059 293.485 232.964 293.567 232.85 293.633C232.743 293.69 232.62 293.735 232.481 293.768C232.35 293.792 232.223 293.805 232.1 293.805C231.928 293.805 231.76 293.784 231.596 293.743C231.441 293.702 231.302 293.641 231.179 293.559C231.056 293.469 230.953 293.358 230.871 293.227C230.798 293.088 230.761 292.924 230.761 292.736ZM237.361 292.736H235.702C235.718 293.162 235.813 293.518 235.985 293.805C236.165 294.083 236.39 294.309 236.66 294.481C236.939 294.653 237.254 294.775 237.607 294.849C237.959 294.923 238.319 294.96 238.688 294.96C239.048 294.96 239.401 294.923 239.745 294.849C240.097 294.784 240.408 294.665 240.679 294.493C240.949 294.321 241.166 294.096 241.33 293.817C241.502 293.53 241.588 293.178 241.588 292.76C241.588 292.465 241.53 292.22 241.416 292.023C241.301 291.818 241.15 291.65 240.961 291.519C240.773 291.38 240.556 291.269 240.31 291.187C240.072 291.105 239.827 291.036 239.573 290.979C239.327 290.921 239.085 290.868 238.848 290.819C238.61 290.77 238.397 290.716 238.209 290.659C238.028 290.593 237.881 290.512 237.766 290.413C237.652 290.315 237.594 290.188 237.594 290.032C237.594 289.901 237.627 289.799 237.693 289.725C237.758 289.643 237.836 289.582 237.926 289.541C238.024 289.5 238.131 289.475 238.246 289.467C238.36 289.451 238.467 289.443 238.565 289.443C238.876 289.443 239.147 289.504 239.376 289.627C239.605 289.742 239.732 289.967 239.757 290.303H241.416C241.383 289.909 241.281 289.586 241.109 289.332C240.945 289.07 240.736 288.861 240.482 288.705C240.228 288.55 239.937 288.439 239.609 288.373C239.29 288.308 238.958 288.275 238.614 288.275C238.27 288.275 237.934 288.308 237.607 288.373C237.279 288.431 236.984 288.537 236.722 288.693C236.46 288.84 236.247 289.045 236.083 289.307C235.927 289.57 235.849 289.905 235.849 290.315C235.849 290.593 235.907 290.831 236.021 291.028C236.136 291.216 236.288 291.376 236.476 291.507C236.664 291.63 236.877 291.732 237.115 291.814C237.361 291.888 237.611 291.953 237.865 292.011C238.487 292.142 238.97 292.273 239.315 292.404C239.667 292.535 239.843 292.732 239.843 292.994C239.843 293.149 239.806 293.28 239.732 293.387C239.659 293.485 239.564 293.567 239.45 293.633C239.343 293.69 239.22 293.735 239.081 293.768C238.95 293.792 238.823 293.805 238.7 293.805C238.528 293.805 238.36 293.784 238.196 293.743C238.041 293.702 237.901 293.641 237.779 293.559C237.656 293.469 237.553 293.358 237.471 293.227C237.398 293.088 237.361 292.924 237.361 292.736ZM252.062 288.976H253.93C253.873 288.468 253.734 288.017 253.512 287.624C253.291 287.231 253.009 286.903 252.664 286.641C252.329 286.371 251.944 286.166 251.509 286.027C251.083 285.887 250.629 285.818 250.145 285.818C249.474 285.818 248.868 285.936 248.327 286.174C247.794 286.412 247.344 286.739 246.975 287.157C246.607 287.575 246.324 288.066 246.127 288.632C245.931 289.189 245.832 289.795 245.832 290.45C245.832 291.089 245.931 291.687 246.127 292.244C246.324 292.793 246.607 293.272 246.975 293.682C247.344 294.091 247.794 294.415 248.327 294.653C248.868 294.882 249.474 294.997 250.145 294.997C250.686 294.997 251.182 294.915 251.632 294.751C252.083 294.587 252.476 294.349 252.812 294.038C253.148 293.727 253.418 293.35 253.623 292.908C253.828 292.465 253.955 291.97 254.004 291.421H252.136C252.062 292.011 251.858 292.486 251.522 292.846C251.194 293.207 250.735 293.387 250.145 293.387C249.711 293.387 249.343 293.305 249.04 293.141C248.736 292.969 248.491 292.744 248.302 292.465C248.114 292.187 247.975 291.876 247.884 291.531C247.803 291.179 247.762 290.819 247.762 290.45C247.762 290.065 247.803 289.692 247.884 289.332C247.975 288.971 248.114 288.652 248.302 288.373C248.491 288.087 248.736 287.861 249.04 287.698C249.343 287.526 249.711 287.44 250.145 287.44C250.383 287.44 250.608 287.481 250.821 287.562C251.042 287.636 251.239 287.743 251.411 287.882C251.583 288.021 251.726 288.185 251.841 288.373C251.956 288.554 252.03 288.754 252.062 288.976ZM255.137 286.027V294.8H256.882V291.47C256.882 290.823 256.988 290.36 257.201 290.082C257.414 289.795 257.758 289.651 258.233 289.651C258.651 289.651 258.942 289.782 259.106 290.045C259.27 290.299 259.352 290.688 259.352 291.212V294.8H261.097V290.893C261.097 290.499 261.06 290.143 260.986 289.823C260.92 289.496 260.802 289.221 260.63 289C260.458 288.771 260.22 288.595 259.917 288.472C259.622 288.341 259.241 288.275 258.774 288.275C258.446 288.275 258.111 288.361 257.767 288.533C257.422 288.697 257.14 288.963 256.919 289.332H256.882V286.027H255.137ZM266.697 290.942H263.859C263.867 290.819 263.891 290.68 263.932 290.524C263.981 290.368 264.059 290.221 264.166 290.082C264.28 289.942 264.428 289.828 264.608 289.737C264.796 289.639 265.03 289.59 265.308 289.59C265.734 289.59 266.05 289.705 266.255 289.934C266.468 290.163 266.615 290.499 266.697 290.942ZM263.859 292.048H268.442C268.475 291.556 268.434 291.085 268.319 290.634C268.204 290.184 268.016 289.782 267.754 289.43C267.5 289.078 267.172 288.799 266.771 288.595C266.369 288.382 265.898 288.275 265.358 288.275C264.874 288.275 264.432 288.361 264.031 288.533C263.637 288.705 263.297 288.943 263.011 289.246C262.724 289.541 262.503 289.893 262.347 290.303C262.191 290.712 262.114 291.155 262.114 291.63C262.114 292.121 262.187 292.572 262.335 292.981C262.49 293.391 262.708 293.743 262.986 294.038C263.265 294.333 263.605 294.562 264.006 294.726C264.407 294.882 264.858 294.96 265.358 294.96C266.079 294.96 266.693 294.796 267.201 294.468C267.709 294.141 268.086 293.596 268.331 292.834H266.795C266.738 293.031 266.582 293.219 266.328 293.399C266.074 293.571 265.771 293.657 265.419 293.657C264.928 293.657 264.551 293.53 264.289 293.276C264.026 293.022 263.883 292.613 263.859 292.048ZM273.802 290.684H275.51C275.486 290.274 275.387 289.922 275.215 289.627C275.043 289.324 274.818 289.074 274.539 288.877C274.269 288.672 273.958 288.521 273.606 288.423C273.261 288.324 272.901 288.275 272.524 288.275C272.008 288.275 271.549 288.361 271.148 288.533C270.747 288.705 270.407 288.947 270.128 289.258C269.85 289.561 269.637 289.926 269.489 290.352C269.35 290.77 269.28 291.224 269.28 291.716C269.28 292.191 269.358 292.629 269.514 293.031C269.669 293.424 269.886 293.764 270.165 294.05C270.443 294.337 270.779 294.562 271.173 294.726C271.574 294.882 272.012 294.96 272.487 294.96C273.331 294.96 274.023 294.739 274.564 294.296C275.105 293.854 275.432 293.211 275.547 292.367H273.864C273.806 292.76 273.663 293.076 273.433 293.313C273.212 293.543 272.893 293.657 272.475 293.657C272.205 293.657 271.975 293.596 271.787 293.473C271.598 293.35 271.447 293.194 271.332 293.006C271.226 292.809 271.148 292.592 271.099 292.355C271.05 292.117 271.025 291.884 271.025 291.654C271.025 291.417 271.05 291.179 271.099 290.942C271.148 290.696 271.23 290.475 271.345 290.278C271.467 290.073 271.623 289.909 271.811 289.787C272 289.656 272.233 289.59 272.512 289.59C273.257 289.59 273.687 289.955 273.802 290.684ZM276.692 286.027V294.8H278.437V292.613L279.113 291.962L280.858 294.8H282.972L280.305 290.782L282.701 288.447H280.637L278.437 290.733V286.027H276.692ZM285.137 291.63C285.137 291.376 285.161 291.126 285.211 290.88C285.26 290.634 285.342 290.417 285.456 290.229C285.579 290.041 285.739 289.889 285.936 289.774C286.132 289.651 286.378 289.59 286.673 289.59C286.968 289.59 287.214 289.651 287.41 289.774C287.615 289.889 287.775 290.041 287.889 290.229C288.012 290.417 288.098 290.634 288.147 290.88C288.197 291.126 288.221 291.376 288.221 291.63C288.221 291.884 288.197 292.134 288.147 292.379C288.098 292.617 288.012 292.834 287.889 293.031C287.775 293.219 287.615 293.371 287.41 293.485C287.214 293.6 286.968 293.657 286.673 293.657C286.378 293.657 286.132 293.6 285.936 293.485C285.739 293.371 285.579 293.219 285.456 293.031C285.342 292.834 285.26 292.617 285.211 292.379C285.161 292.134 285.137 291.884 285.137 291.63ZM283.392 291.63C283.392 292.138 283.47 292.596 283.626 293.006C283.781 293.416 284.002 293.768 284.289 294.063C284.576 294.349 284.92 294.571 285.321 294.726C285.723 294.882 286.173 294.96 286.673 294.96C287.173 294.96 287.623 294.882 288.025 294.726C288.434 294.571 288.782 294.349 289.069 294.063C289.356 293.768 289.577 293.416 289.733 293.006C289.888 292.596 289.966 292.138 289.966 291.63C289.966 291.122 289.888 290.663 289.733 290.254C289.577 289.836 289.356 289.483 289.069 289.197C288.782 288.902 288.434 288.677 288.025 288.521C287.623 288.357 287.173 288.275 286.673 288.275C286.173 288.275 285.723 288.357 285.321 288.521C284.92 288.677 284.576 288.902 284.289 289.197C284.002 289.483 283.781 289.836 283.626 290.254C283.47 290.663 283.392 291.122 283.392 291.63ZM297.06 294.8V288.447H295.315V291.777C295.315 292.424 295.209 292.891 294.996 293.178C294.783 293.457 294.439 293.596 293.964 293.596C293.546 293.596 293.255 293.469 293.091 293.215C292.927 292.953 292.845 292.56 292.845 292.035V288.447H291.101V292.355C291.101 292.748 291.133 293.108 291.199 293.436C291.273 293.756 291.395 294.03 291.567 294.259C291.74 294.481 291.973 294.653 292.268 294.775C292.571 294.898 292.956 294.96 293.423 294.96C293.792 294.96 294.152 294.878 294.504 294.714C294.857 294.55 295.143 294.284 295.364 293.915H295.401V294.8H297.06ZM300.596 288.447V286.543H298.851V288.447H297.795V289.615H298.851V293.362C298.851 293.682 298.905 293.94 299.011 294.137C299.118 294.333 299.261 294.485 299.441 294.591C299.63 294.698 299.843 294.767 300.08 294.8C300.326 294.841 300.584 294.861 300.854 294.861C301.026 294.861 301.203 294.857 301.383 294.849C301.563 294.841 301.727 294.825 301.874 294.8V293.448C301.792 293.465 301.706 293.477 301.616 293.485C301.526 293.493 301.432 293.498 301.334 293.498C301.039 293.498 300.842 293.448 300.744 293.35C300.645 293.252 300.596 293.055 300.596 292.76V289.615H301.874V288.447H300.596ZM215.038 301.027V309.8H221.698V308.178H216.967V306.028H221.218V304.529H216.967V302.649H221.599V301.027H215.038ZM224.443 306.458L222.158 309.8H224.111L225.439 307.797L226.766 309.8H228.756L226.409 306.421L228.498 303.447H226.569L225.463 305.106L224.345 303.447H222.354L224.443 306.458ZM232.628 308.657C232.35 308.657 232.112 308.6 231.916 308.485C231.719 308.371 231.559 308.223 231.436 308.043C231.322 307.854 231.236 307.637 231.178 307.392C231.129 307.146 231.105 306.896 231.105 306.642C231.105 306.38 231.129 306.126 231.178 305.88C231.227 305.634 231.309 305.417 231.424 305.229C231.547 305.041 231.703 304.889 231.891 304.774C232.088 304.651 232.329 304.59 232.616 304.59C232.895 304.59 233.128 304.651 233.316 304.774C233.513 304.889 233.673 305.045 233.796 305.241C233.919 305.43 234.005 305.647 234.054 305.893C234.111 306.138 234.14 306.388 234.14 306.642C234.14 306.896 234.115 307.146 234.066 307.392C234.017 307.637 233.931 307.854 233.808 308.043C233.693 308.223 233.538 308.371 233.341 308.485C233.153 308.6 232.915 308.657 232.628 308.657ZM229.421 303.447V312.024H231.166V309.014H231.191C231.404 309.325 231.674 309.562 232.002 309.726C232.337 309.882 232.702 309.96 233.095 309.96C233.562 309.96 233.968 309.87 234.312 309.689C234.664 309.509 234.955 309.268 235.184 308.964C235.422 308.661 235.598 308.313 235.713 307.92C235.827 307.527 235.885 307.117 235.885 306.691C235.885 306.241 235.827 305.811 235.713 305.401C235.598 304.983 235.422 304.619 235.184 304.307C234.947 303.996 234.648 303.746 234.287 303.558C233.927 303.369 233.497 303.275 232.997 303.275C232.604 303.275 232.243 303.353 231.916 303.509C231.588 303.664 231.318 303.914 231.105 304.258H231.08V303.447H229.421ZM241.209 305.942H238.371C238.379 305.819 238.404 305.68 238.445 305.524C238.494 305.368 238.571 305.221 238.678 305.082C238.793 304.942 238.94 304.828 239.12 304.737C239.309 304.639 239.542 304.59 239.821 304.59C240.247 304.59 240.562 304.705 240.767 304.934C240.98 305.163 241.127 305.499 241.209 305.942ZM238.371 307.048H242.954C242.987 306.556 242.946 306.085 242.831 305.634C242.717 305.184 242.528 304.782 242.266 304.43C242.012 304.078 241.684 303.799 241.283 303.595C240.882 303.382 240.411 303.275 239.87 303.275C239.387 303.275 238.944 303.361 238.543 303.533C238.15 303.705 237.81 303.943 237.523 304.246C237.236 304.541 237.015 304.893 236.859 305.303C236.704 305.712 236.626 306.155 236.626 306.63C236.626 307.121 236.7 307.572 236.847 307.981C237.003 308.391 237.22 308.743 237.498 309.038C237.777 309.333 238.117 309.562 238.518 309.726C238.92 309.882 239.37 309.96 239.87 309.96C240.591 309.96 241.205 309.796 241.713 309.468C242.221 309.141 242.598 308.596 242.844 307.834H241.308C241.25 308.031 241.095 308.219 240.841 308.399C240.587 308.571 240.284 308.657 239.931 308.657C239.44 308.657 239.063 308.53 238.801 308.276C238.539 308.022 238.395 307.613 238.371 307.048ZM243.989 303.447V309.8H245.734V306.937C245.734 306.65 245.763 306.384 245.82 306.138C245.877 305.893 245.971 305.68 246.103 305.499C246.242 305.311 246.422 305.163 246.643 305.057C246.864 304.95 247.135 304.897 247.454 304.897C247.561 304.897 247.671 304.905 247.786 304.922C247.901 304.93 247.999 304.942 248.081 304.959V303.337C247.942 303.296 247.815 303.275 247.7 303.275C247.479 303.275 247.266 303.308 247.061 303.373C246.856 303.439 246.664 303.533 246.483 303.656C246.303 303.771 246.144 303.914 246.004 304.086C245.865 304.25 245.754 304.43 245.672 304.627H245.648V303.447H243.989ZM250.559 302.464V301.027H248.814V302.464H250.559ZM248.814 303.447V309.8H250.559V303.447H248.814ZM256.209 305.942H253.371C253.379 305.819 253.403 305.68 253.444 305.524C253.494 305.368 253.571 305.221 253.678 305.082C253.793 304.942 253.94 304.828 254.12 304.737C254.309 304.639 254.542 304.59 254.821 304.59C255.247 304.59 255.562 304.705 255.767 304.934C255.98 305.163 256.127 305.499 256.209 305.942ZM253.371 307.048H257.954C257.987 306.556 257.946 306.085 257.831 305.634C257.716 305.184 257.528 304.782 257.266 304.43C257.012 304.078 256.684 303.799 256.283 303.595C255.881 303.382 255.41 303.275 254.87 303.275C254.386 303.275 253.944 303.361 253.543 303.533C253.149 303.705 252.809 303.943 252.523 304.246C252.236 304.541 252.015 304.893 251.859 305.303C251.704 305.712 251.626 306.155 251.626 306.63C251.626 307.121 251.699 307.572 251.847 307.981C252.003 308.391 252.22 308.743 252.498 309.038C252.777 309.333 253.117 309.562 253.518 309.726C253.919 309.882 254.37 309.96 254.87 309.96C255.591 309.96 256.205 309.796 256.713 309.468C257.221 309.141 257.598 308.596 257.843 307.834H256.307C256.25 308.031 256.094 308.219 255.84 308.399C255.587 308.571 255.283 308.657 254.931 308.657C254.44 308.657 254.063 308.53 253.801 308.276C253.539 308.022 253.395 307.613 253.371 307.048ZM258.989 303.447V309.8H260.734V306.47C260.734 305.823 260.84 305.36 261.053 305.082C261.266 304.795 261.61 304.651 262.085 304.651C262.503 304.651 262.794 304.782 262.958 305.045C263.122 305.299 263.204 305.688 263.204 306.212V309.8H264.948V305.893C264.948 305.499 264.912 305.143 264.838 304.823C264.772 304.496 264.654 304.221 264.482 304C264.31 303.771 264.072 303.595 263.769 303.472C263.474 303.341 263.093 303.275 262.626 303.275C262.257 303.275 261.897 303.361 261.545 303.533C261.193 303.697 260.906 303.963 260.685 304.332H260.648V303.447H258.989ZM270.598 305.684H272.306C272.282 305.274 272.183 304.922 272.011 304.627C271.839 304.324 271.614 304.074 271.335 303.877C271.065 303.672 270.754 303.521 270.402 303.423C270.057 303.324 269.697 303.275 269.32 303.275C268.804 303.275 268.345 303.361 267.944 303.533C267.543 303.705 267.203 303.947 266.924 304.258C266.646 304.561 266.433 304.926 266.285 305.352C266.146 305.77 266.076 306.224 266.076 306.716C266.076 307.191 266.154 307.629 266.31 308.031C266.465 308.424 266.682 308.764 266.961 309.05C267.239 309.337 267.575 309.562 267.969 309.726C268.37 309.882 268.808 309.96 269.283 309.96C270.127 309.96 270.819 309.739 271.36 309.296C271.901 308.854 272.228 308.211 272.343 307.367H270.66C270.602 307.76 270.459 308.076 270.23 308.313C270.008 308.543 269.689 308.657 269.271 308.657C269.001 308.657 268.771 308.596 268.583 308.473C268.395 308.35 268.243 308.194 268.128 308.006C268.022 307.809 267.944 307.592 267.895 307.355C267.846 307.117 267.821 306.884 267.821 306.654C267.821 306.417 267.846 306.179 267.895 305.942C267.944 305.696 268.026 305.475 268.141 305.278C268.263 305.073 268.419 304.909 268.608 304.787C268.796 304.656 269.029 304.59 269.308 304.59C270.053 304.59 270.483 304.955 270.598 305.684ZM277.605 305.942H274.766C274.775 305.819 274.799 305.68 274.84 305.524C274.889 305.368 274.967 305.221 275.074 305.082C275.188 304.942 275.336 304.828 275.516 304.737C275.704 304.639 275.938 304.59 276.216 304.59C276.642 304.59 276.958 304.705 277.163 304.934C277.376 305.163 277.523 305.499 277.605 305.942ZM274.766 307.048H279.35C279.383 306.556 279.342 306.085 279.227 305.634C279.112 305.184 278.924 304.782 278.662 304.43C278.408 304.078 278.08 303.799 277.679 303.595C277.277 303.382 276.806 303.275 276.266 303.275C275.782 303.275 275.34 303.361 274.938 303.533C274.545 303.705 274.205 303.943 273.919 304.246C273.632 304.541 273.411 304.893 273.255 305.303C273.099 305.712 273.022 306.155 273.022 306.63C273.022 307.121 273.095 307.572 273.243 307.981C273.398 308.391 273.615 308.743 273.894 309.038C274.173 309.333 274.512 309.562 274.914 309.726C275.315 309.882 275.766 309.96 276.266 309.96C276.986 309.96 277.601 309.796 278.109 309.468C278.617 309.141 278.993 308.596 279.239 307.834H277.703C277.646 308.031 277.49 308.219 277.236 308.399C276.982 308.571 276.679 308.657 276.327 308.657C275.835 308.657 275.459 308.53 275.196 308.276C274.934 308.022 274.791 307.613 274.766 307.048Z" fill="white"/>
<rect x="21.3367" y="28.5776" width="133.801" height="133.801" fill="#00BBF9"/>
<path d="M54.271 96.9205H52.4032C52.395 97.4612 52.4933 97.9281 52.6981 98.3214C52.9029 98.7146 53.1773 99.0381 53.5214 99.2921C53.8736 99.546 54.275 99.7304 54.7256 99.8451C55.1843 99.9679 55.6554 100.029 56.1387 100.029C56.7367 100.029 57.261 99.9597 57.7116 99.8205C58.1703 99.6812 58.5512 99.4887 58.8543 99.2429C59.1656 98.989 59.3991 98.69 59.5547 98.3459C59.7104 98.0019 59.7882 97.6291 59.7882 97.2277C59.7882 96.7362 59.6817 96.3348 59.4687 96.0235C59.2639 95.704 59.0182 95.4501 58.7315 95.2617C58.4447 95.0733 58.1539 94.9381 57.859 94.8562C57.5723 94.7661 57.347 94.7046 57.1832 94.6719C56.6343 94.5326 56.1879 94.4179 55.8438 94.3278C55.5079 94.2377 55.2417 94.1476 55.0451 94.0575C54.8567 93.9673 54.7297 93.869 54.6642 93.7626C54.5986 93.6561 54.5659 93.5168 54.5659 93.3448C54.5659 93.1563 54.6068 93.0007 54.6887 92.8778C54.7707 92.7549 54.8731 92.6525 54.9959 92.5706C55.127 92.4887 55.2704 92.4314 55.426 92.3986C55.5817 92.3658 55.7373 92.3494 55.893 92.3494C56.1305 92.3494 56.3476 92.3699 56.5442 92.4109C56.749 92.4518 56.9292 92.5215 57.0849 92.6198C57.2405 92.7181 57.3634 92.8532 57.4535 93.0253C57.5518 93.1973 57.6092 93.4144 57.6255 93.6765H59.4933C59.4933 93.1686 59.395 92.7386 59.1984 92.3863C59.01 92.0259 58.7519 91.731 58.4243 91.5016C58.0966 91.2722 57.7197 91.1084 57.2938 91.0101C56.876 90.9036 56.4377 90.8503 55.979 90.8503C55.5858 90.8503 55.1925 90.9036 54.7993 91.0101C54.4061 91.1166 54.0539 91.2804 53.7426 91.5016C53.4313 91.7228 53.1773 92.0013 52.9807 92.3372C52.7923 92.6648 52.6981 93.054 52.6981 93.5045C52.6981 93.9059 52.7718 94.25 52.9193 94.5367C53.0749 94.8152 53.2756 95.0487 53.5214 95.2371C53.7671 95.4255 54.0457 95.5812 54.357 95.704C54.6683 95.8187 54.9877 95.917 55.3154 95.9989C55.6349 96.0891 55.9503 96.171 56.2616 96.2447C56.5729 96.3184 56.8514 96.4044 57.0972 96.5027C57.3429 96.6011 57.5395 96.7239 57.687 96.8714C57.8426 97.0188 57.9205 97.2113 57.9205 97.4489C57.9205 97.6701 57.8631 97.8544 57.7484 98.0019C57.6337 98.1411 57.4904 98.2517 57.3183 98.3336C57.1463 98.4156 56.962 98.4729 56.7654 98.5057C56.5688 98.5302 56.3845 98.5425 56.2124 98.5425C55.9585 98.5425 55.7127 98.5139 55.4752 98.4565C55.2376 98.391 55.0287 98.2968 54.8485 98.1739C54.6765 98.0428 54.5372 97.8749 54.4307 97.6701C54.3242 97.4653 54.271 97.2154 54.271 96.9205ZM65.0279 95.9744H62.1894C62.1976 95.8515 62.2222 95.7122 62.2632 95.5566C62.3123 95.4009 62.3901 95.2535 62.4966 95.1142C62.6113 94.975 62.7588 94.8603 62.939 94.7702C63.1274 94.6719 63.3609 94.6227 63.6394 94.6227C64.0654 94.6227 64.3808 94.7374 64.5856 94.9668C64.7986 95.1961 64.946 95.532 65.0279 95.9744ZM62.1894 97.0803H66.7728C66.8056 96.5888 66.7646 96.1177 66.6499 95.6672C66.5352 95.2166 66.3468 94.8152 66.0847 94.463C65.8307 94.1107 65.5031 93.8322 65.1017 93.6274C64.7003 93.4144 64.2292 93.3079 63.6886 93.3079C63.2052 93.3079 62.7629 93.3939 62.3615 93.5659C61.9683 93.738 61.6283 93.9755 61.3416 94.2786C61.0549 94.5736 60.8337 94.9258 60.678 95.3354C60.5224 95.745 60.4446 96.1874 60.4446 96.6625C60.4446 97.154 60.5183 97.6046 60.6657 98.0142C60.8214 98.4238 61.0385 98.776 61.317 99.0709C61.5955 99.3658 61.9355 99.5952 62.3369 99.759C62.7383 99.9147 63.1888 99.9925 63.6886 99.9925C64.4094 99.9925 65.0238 99.8287 65.5317 99.501C66.0396 99.1733 66.4165 98.6286 66.6622 97.8667H65.1262C65.0689 98.0633 64.9132 98.2517 64.6593 98.4319C64.4053 98.604 64.1022 98.69 63.75 98.69C63.2585 98.69 62.8816 98.563 62.6195 98.3091C62.3574 98.0551 62.214 97.6455 62.1894 97.0803ZM67.8077 93.4799V99.8328H69.5526V96.5027C69.5526 95.8556 69.6591 95.3927 69.872 95.1142C70.085 94.8275 70.4291 94.6841 70.9042 94.6841C71.322 94.6841 71.6128 94.8152 71.7767 95.0774C71.9405 95.3313 72.0224 95.7204 72.0224 96.2447V99.8328H73.7673V95.9252C73.7673 95.532 73.7304 95.1757 73.6567 94.8562C73.5912 94.5285 73.4724 94.2541 73.3004 94.0329C73.1283 93.8035 72.8908 93.6274 72.5877 93.5045C72.2928 93.3734 71.9118 93.3079 71.4449 93.3079C71.0763 93.3079 70.7158 93.3939 70.3636 93.5659C70.0113 93.7298 69.7246 93.996 69.5034 94.3647H69.4665V93.4799H67.8077ZM79.6013 96.6379C79.6013 96.9001 79.5767 97.154 79.5275 97.3998C79.4784 97.6455 79.3965 97.8667 79.2818 98.0633C79.1671 98.2517 79.0114 98.4033 78.8148 98.518C78.6264 98.6326 78.3889 98.69 78.1021 98.69C77.8318 98.69 77.5983 98.6326 77.4017 98.518C77.2133 98.3951 77.0536 98.2394 76.9225 98.051C76.7996 97.8544 76.7095 97.6332 76.6522 97.3875C76.5948 97.1417 76.5662 96.896 76.5662 96.6502C76.5662 96.3881 76.5907 96.1382 76.6399 95.9006C76.6972 95.6549 76.7832 95.4378 76.8979 95.2494C77.0208 95.061 77.1805 94.9094 77.3772 94.7947C77.5738 94.68 77.8154 94.6227 78.1021 94.6227C78.3889 94.6227 78.6264 94.68 78.8148 94.7947C79.0032 94.9094 79.1548 95.061 79.2695 95.2494C79.3924 95.4296 79.4784 95.6426 79.5275 95.8884C79.5767 96.1259 79.6013 96.3758 79.6013 96.6379ZM79.6258 99.0218V99.8328H81.2847V91.0592H79.5398V94.2541H79.5152C79.3186 93.9428 79.0483 93.7093 78.7042 93.5537C78.3684 93.3898 78.012 93.3079 77.6352 93.3079C77.1683 93.3079 76.7587 93.4021 76.4064 93.5905C76.0542 93.7707 75.7592 94.0124 75.5217 94.3155C75.2923 94.6186 75.1162 94.9709 74.9933 95.3723C74.8786 95.7655 74.8213 96.1751 74.8213 96.6011C74.8213 97.0434 74.8786 97.4694 74.9933 97.879C75.1162 98.2886 75.2923 98.6531 75.5217 98.9726C75.7592 99.2839 76.0583 99.5338 76.4187 99.7222C76.7791 99.9024 77.1969 99.9925 77.6721 99.9925C78.0899 99.9925 78.4626 99.9188 78.7903 99.7713C79.1261 99.6157 79.3965 99.3658 79.6013 99.0218H79.6258ZM86.2078 91.0592V99.8328H88.0141V93.6765H88.0387L90.1891 99.8328H91.6759L93.8263 93.6151H93.8509V99.8328H95.6572V91.0592H92.9416L91.0001 97.0926H90.9755L88.9234 91.0592H86.2078ZM98.7197 96.6625C98.7197 96.4085 98.7442 96.1587 98.7934 95.9129C98.8425 95.6672 98.9245 95.4501 99.0391 95.2617C99.162 95.0733 99.3218 94.9217 99.5184 94.807C99.715 94.6841 99.9607 94.6227 100.256 94.6227C100.551 94.6227 100.796 94.6841 100.993 94.807C101.198 94.9217 101.357 95.0733 101.472 95.2617C101.595 95.4501 101.681 95.6672 101.73 95.9129C101.779 96.1587 101.804 96.4085 101.804 96.6625C101.804 96.9164 101.779 97.1663 101.73 97.4121C101.681 97.6496 101.595 97.8667 101.472 98.0633C101.357 98.2517 101.198 98.4033 100.993 98.518C100.796 98.6326 100.551 98.69 100.256 98.69C99.9607 98.69 99.715 98.6326 99.5184 98.518C99.3218 98.4033 99.162 98.2517 99.0391 98.0633C98.9245 97.8667 98.8425 97.6496 98.7934 97.4121C98.7442 97.1663 98.7197 96.9164 98.7197 96.6625ZM96.9748 96.6625C96.9748 97.1704 97.0526 97.6291 97.2083 98.0387C97.3639 98.4483 97.5851 98.8006 97.8718 99.0955C98.1585 99.3822 98.5026 99.6034 98.904 99.759C99.3054 99.9147 99.7559 99.9925 100.256 99.9925C100.755 99.9925 101.206 99.9147 101.607 99.759C102.017 99.6034 102.365 99.3822 102.652 99.0955C102.938 98.8006 103.16 98.4483 103.315 98.0387C103.471 97.6291 103.549 97.1704 103.549 96.6625C103.549 96.1546 103.471 95.6958 103.315 95.2862C103.16 94.8685 102.938 94.5162 102.652 94.2295C102.365 93.9346 102.017 93.7093 101.607 93.5537C101.206 93.3898 100.755 93.3079 100.256 93.3079C99.7559 93.3079 99.3054 93.3898 98.904 93.5537C98.5026 93.7093 98.1585 93.9346 97.8718 94.2295C97.5851 94.5162 97.3639 94.8685 97.2083 95.2862C97.0526 95.6958 96.9748 96.1546 96.9748 96.6625ZM104.683 93.4799V99.8328H106.428V96.5027C106.428 95.8556 106.535 95.3927 106.748 95.1142C106.961 94.8275 107.305 94.6841 107.78 94.6841C108.198 94.6841 108.488 94.8152 108.652 95.0774C108.816 95.3313 108.898 95.7204 108.898 96.2447V99.8328H110.643V95.9252C110.643 95.532 110.606 95.1757 110.532 94.8562C110.467 94.5285 110.348 94.2541 110.176 94.0329C110.004 93.8035 109.766 93.6274 109.463 93.5045C109.168 93.3734 108.787 93.3079 108.321 93.3079C107.952 93.3079 107.591 93.3939 107.239 93.5659C106.887 93.7298 106.6 93.996 106.379 94.3647H106.342V93.4799H104.683ZM116.243 95.9744H113.405C113.413 95.8515 113.438 95.7122 113.479 95.5566C113.528 95.4009 113.606 95.2535 113.712 95.1142C113.827 94.975 113.974 94.8603 114.154 94.7702C114.343 94.6719 114.576 94.6227 114.855 94.6227C115.281 94.6227 115.596 94.7374 115.801 94.9668C116.014 95.1961 116.162 95.532 116.243 95.9744ZM113.405 97.0803H117.988C118.021 96.5888 117.98 96.1177 117.865 95.6672C117.751 95.2166 117.562 94.8152 117.3 94.463C117.046 94.1107 116.719 93.8322 116.317 93.6274C115.916 93.4144 115.445 93.3079 114.904 93.3079C114.421 93.3079 113.978 93.3939 113.577 93.5659C113.184 93.738 112.844 93.9755 112.557 94.2786C112.27 94.5736 112.049 94.9258 111.894 95.3354C111.738 95.745 111.66 96.1874 111.66 96.6625C111.66 97.154 111.734 97.6046 111.881 98.0142C112.037 98.4238 112.254 98.776 112.532 99.0709C112.811 99.3658 113.151 99.5952 113.552 99.759C113.954 99.9147 114.404 99.9925 114.904 99.9925C115.625 99.9925 116.239 99.8287 116.747 99.501C117.255 99.1733 117.632 98.6286 117.878 97.8667H116.342C116.284 98.0633 116.129 98.2517 115.875 98.4319C115.621 98.604 115.318 98.69 114.965 98.69C114.474 98.69 114.097 98.563 113.835 98.3091C113.573 98.0551 113.429 97.6455 113.405 97.0803ZM122.157 100.619L124.811 93.4799H123.004L121.616 97.8298H121.591L120.154 93.4799H118.298L120.522 99.4396C120.571 99.5624 120.596 99.6935 120.596 99.8328C120.596 100.021 120.539 100.193 120.424 100.349C120.317 100.505 120.15 100.595 119.92 100.619C119.748 100.627 119.576 100.623 119.404 100.607C119.232 100.591 119.064 100.574 118.9 100.558V101.995C119.081 102.012 119.257 102.024 119.429 102.032C119.609 102.049 119.789 102.057 119.969 102.057C120.567 102.057 121.034 101.946 121.37 101.725C121.706 101.504 121.968 101.135 122.157 100.619Z" fill="white"/>
<rect x="21.3365" y="432.712" width="133.801" height="133.801" fill="#6558F5"/>
<path d="M33.0301 492.93L34.1729 489.711H34.1975L35.3034 492.93H33.0301ZM33.2145 487.548L29.8967 496.322H31.8382L32.5263 494.368H35.8072L36.4707 496.322H38.4737L35.1928 487.548H33.2145ZM40.84 488.986V487.548H39.0951V488.986H40.84ZM39.0951 489.969V496.322H40.84V489.969H39.0951ZM42.2139 489.969V496.322H43.9588V493.459C43.9588 493.172 43.9874 492.906 44.0448 492.66C44.1021 492.414 44.1963 492.201 44.3274 492.021C44.4667 491.833 44.6469 491.685 44.8681 491.579C45.0893 491.472 45.3596 491.419 45.6791 491.419C45.7856 491.419 45.8962 491.427 46.0108 491.443C46.1255 491.452 46.2238 491.464 46.3058 491.48V489.858C46.1665 489.817 46.0395 489.797 45.9248 489.797C45.7036 489.797 45.4907 489.83 45.2859 489.895C45.0811 489.961 44.8886 490.055 44.7083 490.178C44.5281 490.293 44.3684 490.436 44.2291 490.608C44.0898 490.772 43.9792 490.952 43.8973 491.149H43.8728V489.969H42.2139ZM49.2017 489.969V488.064H47.4568V489.969H46.4V491.136H47.4568V494.884C47.4568 495.204 47.51 495.462 47.6165 495.658C47.723 495.855 47.8664 496.006 48.0466 496.113C48.235 496.219 48.448 496.289 48.6856 496.322C48.9313 496.363 49.1894 496.383 49.4597 496.383C49.6317 496.383 49.8079 496.379 49.9881 496.371C50.1683 496.363 50.3321 496.346 50.4796 496.322V494.97C50.3977 494.986 50.3117 494.999 50.2216 495.007C50.1314 495.015 50.0372 495.019 49.9389 495.019C49.644 495.019 49.4474 494.97 49.3491 494.872C49.2508 494.774 49.2017 494.577 49.2017 494.282V491.136H50.4796V489.969H49.2017ZM53.1038 488.986V487.548H51.359V488.986H53.1038ZM51.359 489.969V496.322H53.1038V489.969H51.359ZM54.5269 489.969V496.322H56.2718V492.635C56.2718 492.324 56.3169 492.074 56.407 491.886C56.4971 491.689 56.6036 491.542 56.7264 491.443C56.8575 491.337 56.9886 491.267 57.1197 491.235C57.2589 491.194 57.3695 491.173 57.4514 491.173C57.73 491.173 57.9389 491.222 58.0781 491.321C58.2256 491.411 58.328 491.534 58.3853 491.689C58.4508 491.845 58.4877 492.017 58.4959 492.205C58.5041 492.386 58.5082 492.57 58.5082 492.758V496.322H60.2531V492.783C60.2531 492.586 60.2654 492.394 60.2899 492.205C60.3227 492.009 60.38 491.837 60.462 491.689C60.5521 491.534 60.6709 491.411 60.8183 491.321C60.974 491.222 61.1747 491.173 61.4204 491.173C61.6662 491.173 61.8587 491.214 61.9979 491.296C62.1454 491.378 62.256 491.489 62.3297 491.628C62.4034 491.767 62.4485 491.931 62.4649 492.119C62.4813 492.308 62.4895 492.508 62.4895 492.721V496.322H64.2343V492.07C64.2343 491.661 64.177 491.312 64.0623 491.026C63.9476 490.731 63.7879 490.493 63.5831 490.313C63.3783 490.133 63.1325 490.002 62.8458 489.92C62.5591 489.838 62.2478 489.797 61.9119 489.797C61.4696 489.797 61.0846 489.903 60.7569 490.116C60.4374 490.329 60.1834 490.575 59.995 490.854C59.823 490.46 59.569 490.186 59.2332 490.03C58.9055 489.875 58.541 489.797 58.1396 489.797C57.7218 489.797 57.349 489.887 57.0214 490.067C56.7019 490.247 56.4274 490.501 56.1981 490.829H56.1735V489.969H54.5269ZM69.8898 492.463H67.0513C67.0595 492.341 67.0841 492.201 67.1251 492.046C67.1742 491.89 67.252 491.742 67.3585 491.603C67.4732 491.464 67.6207 491.349 67.8009 491.259C67.9893 491.161 68.2228 491.112 68.5013 491.112C68.9273 491.112 69.2427 491.226 69.4475 491.456C69.6605 491.685 69.8079 492.021 69.8898 492.463ZM67.0513 493.569H71.6347C71.6675 493.078 71.6265 492.607 71.5118 492.156C71.3972 491.706 71.2087 491.304 70.9466 490.952C70.6926 490.6 70.365 490.321 69.9636 490.116C69.5622 489.903 69.0911 489.797 68.5505 489.797C68.0671 489.797 67.6248 489.883 67.2234 490.055C66.8302 490.227 66.4902 490.465 66.2035 490.768C65.9168 491.063 65.6956 491.415 65.5399 491.824C65.3843 492.234 65.3065 492.676 65.3065 493.152C65.3065 493.643 65.3802 494.094 65.5276 494.503C65.6833 494.913 65.9004 495.265 66.1789 495.56C66.4574 495.855 66.7974 496.084 67.1988 496.248C67.6002 496.404 68.0508 496.482 68.5505 496.482C69.2713 496.482 69.8857 496.318 70.3936 495.99C70.9015 495.662 71.2784 495.118 71.5241 494.356H69.9881C69.9308 494.552 69.7752 494.741 69.5212 494.921C69.2673 495.093 68.9642 495.179 68.6119 495.179C68.1204 495.179 67.7436 495.052 67.4814 494.798C67.2193 494.544 67.0759 494.135 67.0513 493.569ZM76.0158 491.923C76.0404 491.513 76.1428 491.173 76.323 490.903C76.5032 490.632 76.7326 490.415 77.0111 490.252C77.2897 490.088 77.601 489.973 77.945 489.908C78.2973 489.834 78.6495 489.797 79.0018 489.797C79.3213 489.797 79.6448 489.821 79.9725 489.871C80.3002 489.912 80.5992 489.998 80.8695 490.129C81.1399 490.26 81.3611 490.444 81.5331 490.682C81.7051 490.911 81.7911 491.218 81.7911 491.603V494.909C81.7911 495.195 81.8075 495.47 81.8403 495.732C81.873 495.994 81.9304 496.191 82.0123 496.322H80.2429C80.2101 496.223 80.1814 496.125 80.1568 496.027C80.1405 495.92 80.1282 495.814 80.12 495.707C79.8415 495.994 79.5138 496.195 79.1369 496.309C78.7601 496.424 78.3751 496.482 77.9819 496.482C77.6788 496.482 77.3962 496.445 77.134 496.371C76.8719 496.297 76.6425 496.183 76.4459 496.027C76.2493 495.871 76.0936 495.675 75.979 495.437C75.8725 495.199 75.8192 494.917 75.8192 494.589C75.8192 494.229 75.8807 493.934 76.0035 493.704C76.1346 493.467 76.2984 493.278 76.4951 493.139C76.6998 493 76.9292 492.898 77.1832 492.832C77.4453 492.758 77.7075 492.701 77.9696 492.66C78.2317 492.619 78.4898 492.586 78.7437 492.562C78.9977 492.537 79.223 492.5 79.4196 492.451C79.6162 492.402 79.7718 492.332 79.8865 492.242C80.0012 492.144 80.0544 492.005 80.0462 491.824C80.0462 491.636 80.0135 491.489 79.9479 491.382C79.8906 491.267 79.8087 491.181 79.7022 491.124C79.6039 491.058 79.4851 491.018 79.3458 491.001C79.2148 490.977 79.0714 490.964 78.9158 490.964C78.5717 490.964 78.3014 491.038 78.1048 491.185C77.9082 491.333 77.7935 491.579 77.7607 491.923H76.0158ZM80.0462 493.213C79.9725 493.278 79.8783 493.332 79.7636 493.373C79.6571 493.405 79.5383 493.434 79.4073 493.459C79.2844 493.483 79.1533 493.504 79.0141 493.52C78.8748 493.537 78.7355 493.557 78.5963 493.582C78.4652 493.606 78.3341 493.639 78.2031 493.68C78.0802 493.721 77.9696 493.778 77.8713 493.852C77.7812 493.917 77.7075 494.003 77.6501 494.11C77.5928 494.216 77.5641 494.352 77.5641 494.515C77.5641 494.671 77.5928 494.802 77.6501 494.909C77.7075 495.015 77.7853 495.101 77.8836 495.167C77.9819 495.224 78.0966 495.265 78.2276 495.29C78.3587 495.314 78.4939 495.326 78.6331 495.326C78.9772 495.326 79.2434 495.269 79.4319 495.154C79.6203 495.04 79.7595 494.905 79.8496 494.749C79.9398 494.585 79.993 494.421 80.0094 494.257C80.034 494.094 80.0462 493.963 80.0462 493.864V493.213ZM83.1455 489.969V496.322H84.8904V492.992C84.8904 492.345 84.9969 491.882 85.2098 491.603C85.4228 491.317 85.7669 491.173 86.242 491.173C86.6598 491.173 86.9506 491.304 87.1145 491.566C87.2783 491.82 87.3602 492.209 87.3602 492.734V496.322H89.1051V492.414C89.1051 492.021 89.0682 491.665 88.9945 491.345C88.929 491.018 88.8102 490.743 88.6382 490.522C88.4661 490.293 88.2286 490.116 87.9255 489.994C87.6306 489.862 87.2496 489.797 86.7827 489.797C86.4141 489.797 86.0536 489.883 85.7014 490.055C85.3491 490.219 85.0624 490.485 84.8412 490.854H84.8043V489.969H83.1455ZM94.9391 493.127C94.9391 493.389 94.9145 493.643 94.8653 493.889C94.8162 494.135 94.7343 494.356 94.6196 494.552C94.5049 494.741 94.3492 494.892 94.1526 495.007C93.9642 495.122 93.7267 495.179 93.4399 495.179C93.1696 495.179 92.9361 495.122 92.7395 495.007C92.5511 494.884 92.3914 494.728 92.2603 494.54C92.1374 494.343 92.0473 494.122 91.99 493.876C91.9326 493.631 91.904 493.385 91.904 493.139C91.904 492.877 91.9285 492.627 91.9777 492.39C92.035 492.144 92.121 491.927 92.2357 491.738C92.3586 491.55 92.5184 491.398 92.715 491.284C92.9116 491.169 93.1532 491.112 93.4399 491.112C93.7267 491.112 93.9642 491.169 94.1526 491.284C94.3411 491.398 94.4926 491.55 94.6073 491.738C94.7302 491.919 94.8162 492.132 94.8653 492.377C94.9145 492.615 94.9391 492.865 94.9391 493.127ZM94.9636 495.511V496.322H96.6225V487.548H94.8776V490.743H94.853C94.6564 490.432 94.3861 490.198 94.042 490.043C93.7062 489.879 93.3498 489.797 92.973 489.797C92.5061 489.797 92.0965 489.891 91.7442 490.08C91.392 490.26 91.0971 490.501 90.8595 490.805C90.6301 491.108 90.454 491.46 90.3311 491.861C90.2164 492.254 90.1591 492.664 90.1591 493.09C90.1591 493.532 90.2164 493.958 90.3311 494.368C90.454 494.778 90.6301 495.142 90.8595 495.462C91.0971 495.773 91.3961 496.023 91.7565 496.211C92.1169 496.391 92.5347 496.482 93.0099 496.482C93.4277 496.482 93.8004 496.408 94.1281 496.26C94.4639 496.105 94.7343 495.855 94.9391 495.511H94.9636ZM101.546 487.548V496.322H103.475V487.548H101.546ZM104.985 489.969V496.322H106.73V492.992C106.73 492.345 106.837 491.882 107.05 491.603C107.263 491.317 107.607 491.173 108.082 491.173C108.5 491.173 108.79 491.304 108.954 491.566C109.118 491.82 109.2 492.209 109.2 492.734V496.322H110.945V492.414C110.945 492.021 110.908 491.665 110.834 491.345C110.769 491.018 110.65 490.743 110.478 490.522C110.306 490.293 110.068 490.116 109.765 489.994C109.47 489.862 109.089 489.797 108.622 489.797C108.254 489.797 107.893 489.883 107.541 490.055C107.189 490.219 106.902 490.485 106.681 490.854H106.644V489.969H104.985ZM114.481 489.969V488.064H112.736V489.969H111.679V491.136H112.736V494.884C112.736 495.204 112.789 495.462 112.896 495.658C113.002 495.855 113.146 496.006 113.326 496.113C113.514 496.219 113.727 496.289 113.965 496.322C114.211 496.363 114.469 496.383 114.739 496.383C114.911 496.383 115.087 496.379 115.267 496.371C115.448 496.363 115.612 496.346 115.759 496.322V494.97C115.677 494.986 115.591 494.999 115.501 495.007C115.411 495.015 115.317 495.019 115.218 495.019C114.923 495.019 114.727 494.97 114.628 494.872C114.53 494.774 114.481 494.577 114.481 494.282V491.136H115.759V489.969H114.481ZM120.865 492.463H118.027C118.035 492.341 118.06 492.201 118.101 492.046C118.15 491.89 118.228 491.742 118.334 491.603C118.449 491.464 118.596 491.349 118.776 491.259C118.965 491.161 119.198 491.112 119.477 491.112C119.903 491.112 120.218 491.226 120.423 491.456C120.636 491.685 120.783 492.021 120.865 492.463ZM118.027 493.569H122.61C122.643 493.078 122.602 492.607 122.487 492.156C122.373 491.706 122.184 491.304 121.922 490.952C121.668 490.6 121.34 490.321 120.939 490.116C120.538 489.903 120.067 489.797 119.526 489.797C119.043 489.797 118.6 489.883 118.199 490.055C117.806 490.227 117.466 490.465 117.179 490.768C116.892 491.063 116.671 491.415 116.515 491.824C116.36 492.234 116.282 492.676 116.282 493.152C116.282 493.643 116.356 494.094 116.503 494.503C116.659 494.913 116.876 495.265 117.154 495.56C117.433 495.855 117.773 496.084 118.174 496.248C118.576 496.404 119.026 496.482 119.526 496.482C120.247 496.482 120.861 496.318 121.369 495.99C121.877 495.662 122.254 495.118 122.5 494.356H120.964C120.906 494.552 120.751 494.741 120.497 494.921C120.243 495.093 119.94 495.179 119.587 495.179C119.096 495.179 118.719 495.052 118.457 494.798C118.195 494.544 118.051 494.135 118.027 493.569ZM123.645 489.969V496.322H125.39V493.459C125.39 493.172 125.419 492.906 125.476 492.66C125.533 492.414 125.628 492.201 125.759 492.021C125.898 491.833 126.078 491.685 126.299 491.579C126.52 491.472 126.791 491.419 127.11 491.419C127.217 491.419 127.327 491.427 127.442 491.443C127.557 491.452 127.655 491.464 127.737 491.48V489.858C127.598 489.817 127.471 489.797 127.356 489.797C127.135 489.797 126.922 489.83 126.717 489.895C126.512 489.961 126.32 490.055 126.14 490.178C125.959 490.293 125.8 490.436 125.66 490.608C125.521 490.772 125.41 490.952 125.329 491.149H125.304V489.969H123.645ZM128.637 489.969V496.322H130.382V492.992C130.382 492.345 130.488 491.882 130.701 491.603C130.914 491.317 131.258 491.173 131.734 491.173C132.151 491.173 132.442 491.304 132.606 491.566C132.77 491.82 132.852 492.209 132.852 492.734V496.322H134.597V492.414C134.597 492.021 134.56 491.665 134.486 491.345C134.421 491.018 134.302 490.743 134.13 490.522C133.958 490.293 133.72 490.116 133.417 489.994C133.122 489.862 132.741 489.797 132.274 489.797C131.906 489.797 131.545 489.883 131.193 490.055C130.841 490.219 130.554 490.485 130.333 490.854H130.296V489.969H128.637ZM140.197 492.463H137.359C137.367 492.341 137.391 492.201 137.432 492.046C137.482 491.89 137.559 491.742 137.666 491.603C137.781 491.464 137.928 491.349 138.108 491.259C138.297 491.161 138.53 491.112 138.809 491.112C139.235 491.112 139.55 491.226 139.755 491.456C139.968 491.685 140.115 492.021 140.197 492.463ZM137.359 493.569H141.942C141.975 493.078 141.934 492.607 141.819 492.156C141.704 491.706 141.516 491.304 141.254 490.952C141 490.6 140.672 490.321 140.271 490.116C139.869 489.903 139.398 489.797 138.858 489.797C138.374 489.797 137.932 489.883 137.531 490.055C137.137 490.227 136.797 490.465 136.511 490.768C136.224 491.063 136.003 491.415 135.847 491.824C135.692 492.234 135.614 492.676 135.614 493.152C135.614 493.643 135.687 494.094 135.835 494.503C135.991 494.913 136.208 495.265 136.486 495.56C136.765 495.855 137.105 496.084 137.506 496.248C137.908 496.404 138.358 496.482 138.858 496.482C139.579 496.482 140.193 496.318 140.701 495.99C141.209 495.662 141.586 495.118 141.831 494.356H140.295C140.238 494.552 140.082 494.741 139.829 494.921C139.575 495.093 139.271 495.179 138.919 495.179C138.428 495.179 138.051 495.052 137.789 494.798C137.527 494.544 137.383 494.135 137.359 493.569ZM145.189 489.969V488.064H143.444V489.969H142.387V491.136H143.444V494.884C143.444 495.204 143.497 495.462 143.604 495.658C143.71 495.855 143.853 496.006 144.034 496.113C144.222 496.219 144.435 496.289 144.673 496.322C144.918 496.363 145.176 496.383 145.447 496.383C145.619 496.383 145.795 496.379 145.975 496.371C146.155 496.363 146.319 496.346 146.467 496.322V494.97C146.385 494.986 146.299 494.999 146.209 495.007C146.118 495.015 146.024 495.019 145.926 495.019C145.631 495.019 145.434 494.97 145.336 494.872C145.238 494.774 145.189 494.577 145.189 494.282V491.136H146.467V489.969H145.189ZM53.3789 508.41H51.5112C51.503 508.95 51.6013 509.417 51.8061 509.81C52.0109 510.204 52.2853 510.527 52.6294 510.781C52.9816 511.035 53.383 511.219 53.8336 511.334C54.2923 511.457 54.7633 511.518 55.2467 511.518C55.8447 511.518 56.369 511.449 56.8195 511.309C57.2783 511.17 57.6592 510.978 57.9623 510.732C58.2736 510.478 58.5071 510.179 58.6627 509.835C58.8183 509.491 58.8962 509.118 58.8962 508.717C58.8962 508.225 58.7897 507.824 58.5767 507.513C58.3719 507.193 58.1261 506.939 57.8394 506.751C57.5527 506.562 57.2619 506.427 56.967 506.345C56.6803 506.255 56.455 506.194 56.2911 506.161C55.7423 506.022 55.2958 505.907 54.9518 505.817C54.6159 505.727 54.3497 505.637 54.1531 505.546C53.9646 505.456 53.8377 505.358 53.7721 505.252C53.7066 505.145 53.6738 505.006 53.6738 504.834C53.6738 504.645 53.7148 504.49 53.7967 504.367C53.8786 504.244 53.981 504.142 54.1039 504.06C54.235 503.978 54.3783 503.92 54.534 503.888C54.6896 503.855 54.8453 503.838 55.0009 503.838C55.2385 503.838 55.4556 503.859 55.6522 503.9C55.857 503.941 56.0372 504.01 56.1928 504.109C56.3485 504.207 56.4714 504.342 56.5615 504.514C56.6598 504.686 56.7171 504.903 56.7335 505.166H58.6013C58.6013 504.658 58.503 504.228 58.3064 503.875C58.1179 503.515 57.8599 503.22 57.5322 502.991C57.2045 502.761 56.8277 502.597 56.4017 502.499C55.9839 502.393 55.5457 502.339 55.0869 502.339C54.6937 502.339 54.3005 502.393 53.9073 502.499C53.5141 502.606 53.1618 502.769 52.8505 502.991C52.5392 503.212 52.2853 503.49 52.0887 503.826C51.9003 504.154 51.8061 504.543 51.8061 504.994C51.8061 505.395 51.8798 505.739 52.0272 506.026C52.1829 506.304 52.3836 506.538 52.6294 506.726C52.8751 506.915 53.1536 507.07 53.4649 507.193C53.7762 507.308 54.0957 507.406 54.4234 507.488C54.7429 507.578 55.0583 507.66 55.3696 507.734C55.6808 507.807 55.9594 507.893 56.2051 507.992C56.4509 508.09 56.6475 508.213 56.7949 508.36C56.9506 508.508 57.0284 508.7 57.0284 508.938C57.0284 509.159 56.9711 509.343 56.8564 509.491C56.7417 509.63 56.5983 509.741 56.4263 509.823C56.2543 509.905 56.07 509.962 55.8734 509.995C55.6767 510.019 55.4924 510.032 55.3204 510.032C55.0664 510.032 54.8207 510.003 54.5831 509.946C54.3456 509.88 54.1367 509.786 53.9564 509.663C53.7844 509.532 53.6452 509.364 53.5387 509.159C53.4322 508.954 53.3789 508.704 53.3789 508.41ZM65.8193 511.322V504.969H64.0745V508.299C64.0745 508.946 63.968 509.413 63.755 509.7C63.542 509.978 63.1979 510.118 62.7228 510.118C62.305 510.118 62.0142 509.991 61.8504 509.737C61.6865 509.474 61.6046 509.081 61.6046 508.557V504.969H59.8597V508.876C59.8597 509.27 59.8925 509.63 59.958 509.958C60.0317 510.277 60.1546 510.552 60.3267 510.781C60.4987 511.002 60.7322 511.174 61.0271 511.297C61.3302 511.42 61.7152 511.482 62.1821 511.482C62.5508 511.482 62.9112 511.4 63.2635 511.236C63.6157 511.072 63.9024 510.806 64.1236 510.437H64.1605V511.322H65.8193ZM71.8007 508.152C71.8007 508.414 71.7721 508.668 71.7147 508.913C71.6574 509.159 71.5673 509.376 71.4444 509.565C71.3215 509.753 71.1659 509.905 70.9775 510.019C70.7972 510.126 70.5761 510.179 70.3139 510.179C70.06 510.179 69.8388 510.126 69.6504 510.019C69.462 509.905 69.3063 509.753 69.1834 509.565C69.0605 509.376 68.9704 509.159 68.9131 508.913C68.8558 508.668 68.8271 508.414 68.8271 508.152C68.8271 507.881 68.8558 507.623 68.9131 507.377C68.9704 507.132 69.0605 506.915 69.1834 506.726C69.3063 506.538 69.462 506.39 69.6504 506.284C69.8388 506.169 70.06 506.112 70.3139 506.112C70.5761 506.112 70.7972 506.169 70.9775 506.284C71.1659 506.39 71.3215 506.538 71.4444 506.726C71.5673 506.915 71.6574 507.132 71.7147 507.377C71.7721 507.623 71.8007 507.881 71.8007 508.152ZM67.1436 502.548V511.322H68.8025V510.511H68.8271C69.0155 510.863 69.294 511.113 69.6627 511.26C70.0313 511.408 70.4491 511.482 70.916 511.482C71.2355 511.482 71.5509 511.416 71.8622 511.285C72.1735 511.154 72.452 510.953 72.6978 510.683C72.9517 510.412 73.1565 510.068 73.3122 509.651C73.4678 509.225 73.5456 508.721 73.5456 508.139C73.5456 507.558 73.4678 507.058 73.3122 506.64C73.1565 506.214 72.9517 505.866 72.6978 505.596C72.452 505.325 72.1735 505.125 71.8622 504.994C71.5509 504.862 71.2355 504.797 70.916 504.797C70.5228 504.797 70.1419 504.875 69.7732 505.03C69.4128 505.178 69.1261 505.415 68.9131 505.743H68.8885V502.548H67.1436ZM76.0072 509.257H74.3484C74.3648 509.683 74.459 510.04 74.631 510.326C74.8112 510.605 75.0365 510.83 75.3068 511.002C75.5853 511.174 75.9007 511.297 76.253 511.371C76.6052 511.445 76.9657 511.482 77.3343 511.482C77.6948 511.482 78.047 511.445 78.3911 511.371C78.7433 511.305 79.0546 511.187 79.325 511.015C79.5953 510.843 79.8124 510.617 79.9762 510.339C80.1482 510.052 80.2343 509.7 80.2343 509.282C80.2343 508.987 80.1769 508.741 80.0622 508.545C79.9475 508.34 79.796 508.172 79.6076 508.041C79.4192 507.902 79.2021 507.791 78.9563 507.709C78.7188 507.627 78.473 507.558 78.219 507.5C77.9733 507.443 77.7316 507.39 77.4941 507.341C77.2565 507.291 77.0435 507.238 76.8551 507.181C76.6749 507.115 76.5274 507.033 76.4127 506.935C76.298 506.837 76.2407 506.71 76.2407 506.554C76.2407 506.423 76.2735 506.321 76.339 506.247C76.4045 506.165 76.4824 506.104 76.5725 506.063C76.6708 506.022 76.7773 505.997 76.892 505.989C77.0066 505.972 77.1131 505.964 77.2114 505.964C77.5227 505.964 77.7931 506.026 78.0224 506.149C78.2518 506.263 78.3788 506.489 78.4034 506.824H80.0622C80.0295 506.431 79.9271 506.108 79.755 505.854C79.5912 505.592 79.3823 505.383 79.1284 505.227C78.8744 505.071 78.5836 504.961 78.2559 504.895C77.9364 504.83 77.6047 504.797 77.2606 504.797C76.9165 504.797 76.5807 504.83 76.253 504.895C75.9253 504.953 75.6304 505.059 75.3683 505.215C75.1061 505.362 74.8931 505.567 74.7293 505.829C74.5736 506.091 74.4958 506.427 74.4958 506.837C74.4958 507.115 74.5532 507.353 74.6679 507.549C74.7825 507.738 74.9341 507.898 75.1225 508.029C75.3109 508.152 75.5239 508.254 75.7615 508.336C76.0072 508.41 76.2571 508.475 76.511 508.532C77.1336 508.663 77.6169 508.795 77.961 508.926C78.3133 509.057 78.4894 509.253 78.4894 509.515C78.4894 509.671 78.4525 509.802 78.3788 509.909C78.3051 510.007 78.2109 510.089 78.0962 510.154C77.9897 510.212 77.8668 510.257 77.7275 510.29C77.5965 510.314 77.4695 510.326 77.3466 510.326C77.1746 510.326 77.0066 510.306 76.8428 510.265C76.6872 510.224 76.5479 510.163 76.425 510.081C76.3021 509.991 76.1997 509.88 76.1178 509.749C76.0441 509.61 76.0072 509.446 76.0072 509.257ZM85.5808 507.205H87.2889C87.2643 506.796 87.166 506.443 86.9939 506.149C86.8219 505.845 86.5966 505.596 86.3181 505.399C86.0478 505.194 85.7365 505.043 85.3842 504.944C85.0402 504.846 84.6797 504.797 84.3029 504.797C83.7868 504.797 83.3281 504.883 82.9267 505.055C82.5252 505.227 82.1853 505.469 81.9068 505.78C81.6282 506.083 81.4152 506.448 81.2678 506.874C81.1285 507.291 81.0589 507.746 81.0589 508.238C81.0589 508.713 81.1367 509.151 81.2924 509.552C81.448 509.946 81.6651 510.285 81.9436 510.572C82.2221 510.859 82.558 511.084 82.9512 511.248C83.3526 511.404 83.7909 511.482 84.266 511.482C85.1098 511.482 85.802 511.26 86.3427 510.818C86.8834 510.376 87.211 509.733 87.3257 508.889H85.6423C85.5849 509.282 85.4416 509.597 85.2122 509.835C84.991 510.064 84.6715 510.179 84.2537 510.179C83.9834 510.179 83.754 510.118 83.5656 509.995C83.3772 509.872 83.2257 509.716 83.111 509.528C83.0045 509.331 82.9267 509.114 82.8775 508.876C82.8284 508.639 82.8038 508.405 82.8038 508.176C82.8038 507.939 82.8284 507.701 82.8775 507.463C82.9267 507.218 83.0086 506.996 83.1233 506.8C83.2461 506.595 83.4018 506.431 83.5902 506.308C83.7786 506.177 84.0121 506.112 84.2906 506.112C85.0361 506.112 85.4661 506.476 85.5808 507.205ZM88.3114 504.969V511.322H90.0563V508.459C90.0563 508.172 90.085 507.906 90.1423 507.66C90.1997 507.414 90.2939 507.201 90.4249 507.021C90.5642 506.833 90.7444 506.685 90.9656 506.579C91.1868 506.472 91.4571 506.419 91.7766 506.419C91.8831 506.419 91.9937 506.427 92.1084 506.443C92.2231 506.452 92.3214 506.464 92.4033 506.48V504.858C92.264 504.817 92.1371 504.797 92.0224 504.797C91.8012 504.797 91.5882 504.83 91.3834 504.895C91.1786 504.961 90.9861 505.055 90.8059 505.178C90.6257 505.293 90.4659 505.436 90.3266 505.608C90.1874 505.772 90.0768 505.952 89.9949 506.149H89.9703V504.969H88.3114ZM94.8814 503.986V502.548H93.1365V503.986H94.8814ZM93.1365 504.969V511.322H94.8814V504.969H93.1365ZM99.4625 510.179C99.184 510.179 98.9464 510.122 98.7498 510.007C98.5532 509.892 98.3934 509.745 98.2706 509.565C98.1559 509.376 98.0699 509.159 98.0125 508.913C97.9634 508.668 97.9388 508.418 97.9388 508.164C97.9388 507.902 97.9634 507.648 98.0125 507.402C98.0617 507.156 98.1436 506.939 98.2583 506.751C98.3812 506.562 98.5368 506.411 98.7252 506.296C98.9218 506.173 99.1635 506.112 99.4502 506.112C99.7287 506.112 99.9622 506.173 100.151 506.296C100.347 506.411 100.507 506.566 100.63 506.763C100.753 506.951 100.839 507.168 100.888 507.414C100.945 507.66 100.974 507.91 100.974 508.164C100.974 508.418 100.949 508.668 100.9 508.913C100.851 509.159 100.765 509.376 100.642 509.565C100.527 509.745 100.372 509.892 100.175 510.007C99.9868 510.122 99.7492 510.179 99.4625 510.179ZM96.2554 504.969V513.546H98.0002V510.535H98.0248C98.2378 510.847 98.5081 511.084 98.8358 511.248C99.1717 511.404 99.5362 511.482 99.9294 511.482C100.396 511.482 100.802 511.391 101.146 511.211C101.498 511.031 101.789 510.789 102.018 510.486C102.256 510.183 102.432 509.835 102.547 509.442C102.661 509.049 102.719 508.639 102.719 508.213C102.719 507.762 102.661 507.332 102.547 506.923C102.432 506.505 102.256 506.14 102.018 505.829C101.781 505.518 101.482 505.268 101.121 505.08C100.761 504.891 100.331 504.797 99.8311 504.797C99.4379 504.797 99.0775 504.875 98.7498 505.03C98.4221 505.186 98.1518 505.436 97.9388 505.78H97.9142V504.969H96.2554ZM105.979 504.969V503.064H104.234V504.969H103.177V506.136H104.234V509.884C104.234 510.204 104.287 510.462 104.394 510.658C104.5 510.855 104.644 511.006 104.824 511.113C105.012 511.219 105.225 511.289 105.463 511.322C105.709 511.363 105.967 511.383 106.237 511.383C106.409 511.383 106.585 511.379 106.766 511.371C106.946 511.363 107.11 511.346 107.257 511.322V509.97C107.175 509.986 107.089 509.999 106.999 510.007C106.909 510.015 106.815 510.019 106.716 510.019C106.421 510.019 106.225 509.97 106.127 509.872C106.028 509.774 105.979 509.577 105.979 509.282V506.136H107.257V504.969H105.979ZM109.881 503.986V502.548H108.136V503.986H109.881ZM108.136 504.969V511.322H109.881V504.969H108.136ZM112.803 508.152C112.803 507.898 112.828 507.648 112.877 507.402C112.926 507.156 113.008 506.939 113.123 506.751C113.246 506.562 113.406 506.411 113.602 506.296C113.799 506.173 114.045 506.112 114.339 506.112C114.634 506.112 114.88 506.173 115.077 506.296C115.282 506.411 115.441 506.562 115.556 506.751C115.679 506.939 115.765 507.156 115.814 507.402C115.863 507.648 115.888 507.898 115.888 508.152C115.888 508.405 115.863 508.655 115.814 508.901C115.765 509.139 115.679 509.356 115.556 509.552C115.441 509.741 115.282 509.892 115.077 510.007C114.88 510.122 114.634 510.179 114.339 510.179C114.045 510.179 113.799 510.122 113.602 510.007C113.406 509.892 113.246 509.741 113.123 509.552C113.008 509.356 112.926 509.139 112.877 508.901C112.828 508.655 112.803 508.405 112.803 508.152ZM111.059 508.152C111.059 508.659 111.136 509.118 111.292 509.528C111.448 509.937 111.669 510.29 111.956 510.585C112.242 510.871 112.586 511.092 112.988 511.248C113.389 511.404 113.84 511.482 114.339 511.482C114.839 511.482 115.29 511.404 115.691 511.248C116.101 511.092 116.449 510.871 116.736 510.585C117.022 510.29 117.243 509.937 117.399 509.528C117.555 509.118 117.633 508.659 117.633 508.152C117.633 507.644 117.555 507.185 117.399 506.775C117.243 506.357 117.022 506.005 116.736 505.719C116.449 505.424 116.101 505.198 115.691 505.043C115.29 504.879 114.839 504.797 114.339 504.797C113.84 504.797 113.389 504.879 112.988 505.043C112.586 505.198 112.242 505.424 111.956 505.719C111.669 506.005 111.448 506.357 111.292 506.775C111.136 507.185 111.059 507.644 111.059 508.152ZM118.767 504.969V511.322H120.512V507.992C120.512 507.345 120.619 506.882 120.831 506.603C121.044 506.317 121.389 506.173 121.864 506.173C122.281 506.173 122.572 506.304 122.736 506.566C122.9 506.82 122.982 507.209 122.982 507.734V511.322H124.727V507.414C124.727 507.021 124.69 506.665 124.616 506.345C124.551 506.018 124.432 505.743 124.26 505.522C124.088 505.293 123.85 505.116 123.547 504.994C123.252 504.862 122.871 504.797 122.404 504.797C122.036 504.797 121.675 504.883 121.323 505.055C120.971 505.219 120.684 505.485 120.463 505.854H120.426V504.969H118.767Z" fill="white"/>
<rect x="338.364" y="28.5776" width="133.801" height="133.801" fill="#F15BB5"/>
<path d="M363.541 95.0282V92.5583H365.655C366.097 92.5583 366.429 92.6566 366.65 92.8532C366.871 93.0417 366.982 93.3489 366.982 93.7748C366.982 94.2172 366.871 94.5367 366.65 94.7333C366.429 94.9299 366.097 95.0282 365.655 95.0282H363.541ZM361.612 91.0592V99.8328H363.541V96.4044H365.471C365.954 96.4044 366.302 96.5109 366.515 96.7239C366.728 96.9369 366.867 97.2728 366.933 97.7315C366.982 98.0838 367.019 98.4524 367.043 98.8374C367.068 99.2225 367.134 99.5542 367.24 99.8328H369.169C369.079 99.7099 369.01 99.5624 368.96 99.3904C368.919 99.2102 368.887 99.0218 368.862 98.8252C368.846 98.6286 368.833 98.436 368.825 98.2476C368.817 98.0592 368.809 97.8954 368.801 97.7561C368.784 97.5349 368.751 97.3137 368.702 97.0926C368.661 96.8714 368.592 96.6707 368.493 96.4905C368.395 96.302 368.268 96.1423 368.113 96.0112C367.957 95.872 367.76 95.7696 367.523 95.704V95.6795C368.014 95.4829 368.366 95.1961 368.579 94.8193C368.801 94.4425 368.911 93.996 368.911 93.4799C368.911 93.1441 368.85 92.8328 368.727 92.5461C368.612 92.2511 368.44 91.9931 368.211 91.7719C367.99 91.5507 367.719 91.3787 367.4 91.2558C367.089 91.1248 366.736 91.0592 366.343 91.0592H361.612ZM374.572 95.9744H371.734C371.742 95.8515 371.766 95.7122 371.807 95.5566C371.856 95.4009 371.934 95.2535 372.041 95.1142C372.155 94.975 372.303 94.8603 372.483 94.7702C372.671 94.6719 372.905 94.6227 373.183 94.6227C373.609 94.6227 373.925 94.7374 374.13 94.9668C374.343 95.1961 374.49 95.532 374.572 95.9744ZM371.734 97.0803H376.317C376.35 96.5888 376.309 96.1177 376.194 95.6672C376.079 95.2166 375.891 94.8152 375.629 94.463C375.375 94.1107 375.047 93.8322 374.646 93.6274C374.244 93.4144 373.773 93.3079 373.233 93.3079C372.749 93.3079 372.307 93.3939 371.906 93.5659C371.512 93.738 371.172 93.9755 370.886 94.2786C370.599 94.5736 370.378 94.9258 370.222 95.3354C370.066 95.745 369.989 96.1874 369.989 96.6625C369.989 97.154 370.062 97.6046 370.21 98.0142C370.365 98.4238 370.583 98.776 370.861 99.0709C371.14 99.3658 371.48 99.5952 371.881 99.759C372.282 99.9147 372.733 99.9925 373.233 99.9925C373.954 99.9925 374.568 99.8287 375.076 99.501C375.584 99.1733 375.961 98.6286 376.206 97.8667H374.67C374.613 98.0633 374.457 98.2517 374.203 98.4319C373.949 98.604 373.646 98.69 373.294 98.69C372.803 98.69 372.426 98.563 372.164 98.3091C371.901 98.0551 371.758 97.6455 371.734 97.0803ZM381.677 95.7163H383.385C383.361 95.3067 383.262 94.9545 383.09 94.6596C382.918 94.3565 382.693 94.1066 382.414 93.91C382.144 93.7052 381.833 93.5537 381.48 93.4554C381.136 93.3571 380.776 93.3079 380.399 93.3079C379.883 93.3079 379.424 93.3939 379.023 93.5659C378.622 93.738 378.282 93.9796 378.003 94.2909C377.724 94.594 377.512 94.9586 377.364 95.3846C377.225 95.8023 377.155 96.257 377.155 96.7485C377.155 97.2236 377.233 97.6619 377.389 98.0633C377.544 98.4565 377.761 98.7965 378.04 99.0832C378.318 99.3699 378.654 99.5952 379.047 99.759C379.449 99.9147 379.887 99.9925 380.362 99.9925C381.206 99.9925 381.898 99.7713 382.439 99.329C382.98 98.8866 383.307 98.2435 383.422 97.3998H381.739C381.681 97.793 381.538 98.1084 381.308 98.3459C381.087 98.5753 380.768 98.69 380.35 98.69C380.08 98.69 379.85 98.6286 379.662 98.5057C379.473 98.3828 379.322 98.2271 379.207 98.0387C379.101 97.8421 379.023 97.625 378.974 97.3875C378.925 97.1499 378.9 96.9164 378.9 96.6871C378.9 96.4495 378.925 96.2119 378.974 95.9744C379.023 95.7286 379.105 95.5074 379.22 95.3108C379.342 95.106 379.498 94.9422 379.686 94.8193C379.875 94.6882 380.108 94.6227 380.387 94.6227C381.132 94.6227 381.562 94.9872 381.677 95.7163ZM388.684 95.9744H385.845C385.854 95.8515 385.878 95.7122 385.919 95.5566C385.968 95.4009 386.046 95.2535 386.153 95.1142C386.267 94.975 386.415 94.8603 386.595 94.7702C386.783 94.6719 387.017 94.6227 387.295 94.6227C387.721 94.6227 388.037 94.7374 388.242 94.9668C388.455 95.1961 388.602 95.532 388.684 95.9744ZM385.845 97.0803H390.429C390.462 96.5888 390.421 96.1177 390.306 95.6672C390.191 95.2166 390.003 94.8152 389.741 94.463C389.487 94.1107 389.159 93.8322 388.758 93.6274C388.356 93.4144 387.885 93.3079 387.344 93.3079C386.861 93.3079 386.419 93.3939 386.017 93.5659C385.624 93.738 385.284 93.9755 384.998 94.2786C384.711 94.5736 384.49 94.9258 384.334 95.3354C384.178 95.745 384.1 96.1874 384.1 96.6625C384.1 97.154 384.174 97.6046 384.322 98.0142C384.477 98.4238 384.694 98.776 384.973 99.0709C385.251 99.3658 385.591 99.5952 385.993 99.759C386.394 99.9147 386.845 99.9925 387.344 99.9925C388.065 99.9925 388.68 99.8287 389.188 99.501C389.696 99.1733 390.072 98.6286 390.318 97.8667H388.782C388.725 98.0633 388.569 98.2517 388.315 98.4319C388.061 98.604 387.758 98.69 387.406 98.69C386.914 98.69 386.538 98.563 386.275 98.3091C386.013 98.0551 385.87 97.6455 385.845 97.0803ZM393.258 92.4969V91.0592H391.513V92.4969H393.258ZM391.513 93.4799V99.8328H393.258V93.4799H391.513ZM398.146 99.8328L400.296 93.4799H398.564L397.224 97.8176H397.2L395.86 93.4799H394.029L396.204 99.8328H398.146ZM405.292 95.9744H402.453C402.461 95.8515 402.486 95.7122 402.527 95.5566C402.576 95.4009 402.654 95.2535 402.76 95.1142C402.875 94.975 403.023 94.8603 403.203 94.7702C403.391 94.6719 403.625 94.6227 403.903 94.6227C404.329 94.6227 404.645 94.7374 404.849 94.9668C405.062 95.1961 405.21 95.532 405.292 95.9744ZM402.453 97.0803H407.037C407.069 96.5888 407.028 96.1177 406.914 95.6672C406.799 95.2166 406.611 94.8152 406.348 94.463C406.095 94.1107 405.767 93.8322 405.365 93.6274C404.964 93.4144 404.493 93.3079 403.952 93.3079C403.469 93.3079 403.027 93.3939 402.625 93.5659C402.232 93.738 401.892 93.9755 401.605 94.2786C401.319 94.5736 401.097 94.9258 400.942 95.3354C400.786 95.745 400.708 96.1874 400.708 96.6625C400.708 97.154 400.782 97.6046 400.93 98.0142C401.085 98.4238 401.302 98.776 401.581 99.0709C401.859 99.3658 402.199 99.5952 402.601 99.759C403.002 99.9147 403.453 99.9925 403.952 99.9925C404.673 99.9925 405.288 99.8287 405.796 99.501C406.303 99.1733 406.68 98.6286 406.926 97.8667H405.39C405.333 98.0633 405.177 98.2517 404.923 98.4319C404.669 98.604 404.366 98.69 404.014 98.69C403.522 98.69 403.145 98.563 402.883 98.3091C402.621 98.0551 402.478 97.6455 402.453 97.0803ZM411.676 91.0592V99.8328H413.482V93.6765H413.507L415.657 99.8328H417.144L419.294 93.6151H419.319V99.8328H421.125V91.0592H418.41L416.468 97.0926H416.443L414.391 91.0592H411.676ZM424.188 96.6625C424.188 96.4085 424.212 96.1587 424.261 95.9129C424.31 95.6672 424.392 95.4501 424.507 95.2617C424.63 95.0733 424.79 94.9217 424.986 94.807C425.183 94.6841 425.429 94.6227 425.724 94.6227C426.018 94.6227 426.264 94.6841 426.461 94.807C426.666 94.9217 426.825 95.0733 426.94 95.2617C427.063 95.4501 427.149 95.6672 427.198 95.9129C427.247 96.1587 427.272 96.4085 427.272 96.6625C427.272 96.9164 427.247 97.1663 427.198 97.4121C427.149 97.6496 427.063 97.8667 426.94 98.0633C426.825 98.2517 426.666 98.4033 426.461 98.518C426.264 98.6326 426.018 98.69 425.724 98.69C425.429 98.69 425.183 98.6326 424.986 98.518C424.79 98.4033 424.63 98.2517 424.507 98.0633C424.392 97.8667 424.31 97.6496 424.261 97.4121C424.212 97.1663 424.188 96.9164 424.188 96.6625ZM422.443 96.6625C422.443 97.1704 422.521 97.6291 422.676 98.0387C422.832 98.4483 423.053 98.8006 423.34 99.0955C423.626 99.3822 423.971 99.6034 424.372 99.759C424.773 99.9147 425.224 99.9925 425.724 99.9925C426.223 99.9925 426.674 99.9147 427.075 99.759C427.485 99.6034 427.833 99.3822 428.12 99.0955C428.406 98.8006 428.628 98.4483 428.783 98.0387C428.939 97.6291 429.017 97.1704 429.017 96.6625C429.017 96.1546 428.939 95.6958 428.783 95.2862C428.628 94.8685 428.406 94.5162 428.12 94.2295C427.833 93.9346 427.485 93.7093 427.075 93.5537C426.674 93.3898 426.223 93.3079 425.724 93.3079C425.224 93.3079 424.773 93.3898 424.372 93.5537C423.971 93.7093 423.626 93.9346 423.34 94.2295C423.053 94.5162 422.832 94.8685 422.676 95.2862C422.521 95.6958 422.443 96.1546 422.443 96.6625ZM430.151 93.4799V99.8328H431.896V96.5027C431.896 95.8556 432.003 95.3927 432.216 95.1142C432.429 94.8275 432.773 94.6841 433.248 94.6841C433.666 94.6841 433.956 94.8152 434.12 95.0774C434.284 95.3313 434.366 95.7204 434.366 96.2447V99.8328H436.111V95.9252C436.111 95.532 436.074 95.1757 436 94.8562C435.935 94.5285 435.816 94.2541 435.644 94.0329C435.472 93.8035 435.234 93.6274 434.931 93.5045C434.636 93.3734 434.255 93.3079 433.788 93.3079C433.42 93.3079 433.059 93.3939 432.707 93.5659C432.355 93.7298 432.068 93.996 431.847 94.3647H431.81V93.4799H430.151ZM441.711 95.9744H438.873C438.881 95.8515 438.906 95.7122 438.947 95.5566C438.996 95.4009 439.074 95.2535 439.18 95.1142C439.295 94.975 439.442 94.8603 439.622 94.7702C439.811 94.6719 440.044 94.6227 440.323 94.6227C440.749 94.6227 441.064 94.7374 441.269 94.9668C441.482 95.1961 441.629 95.532 441.711 95.9744ZM438.873 97.0803H443.456C443.489 96.5888 443.448 96.1177 443.333 95.6672C443.219 95.2166 443.03 94.8152 442.768 94.463C442.514 94.1107 442.186 93.8322 441.785 93.6274C441.384 93.4144 440.913 93.3079 440.372 93.3079C439.889 93.3079 439.446 93.3939 439.045 93.5659C438.652 93.738 438.312 93.9755 438.025 94.2786C437.738 94.5736 437.517 94.9258 437.361 95.3354C437.206 95.745 437.128 96.1874 437.128 96.6625C437.128 97.154 437.202 97.6046 437.349 98.0142C437.505 98.4238 437.722 98.776 438 99.0709C438.279 99.3658 438.619 99.5952 439.02 99.759C439.422 99.9147 439.872 99.9925 440.372 99.9925C441.093 99.9925 441.707 99.8287 442.215 99.501C442.723 99.1733 443.1 98.6286 443.346 97.8667H441.81C441.752 98.0633 441.597 98.2517 441.343 98.4319C441.089 98.604 440.786 98.69 440.433 98.69C439.942 98.69 439.565 98.563 439.303 98.3091C439.041 98.0551 438.897 97.6455 438.873 97.0803ZM447.625 100.619L450.279 93.4799H448.472L447.084 97.8298H447.059L445.622 93.4799H443.766L445.99 99.4396C446.039 99.5624 446.064 99.6935 446.064 99.8328C446.064 100.021 446.007 100.193 445.892 100.349C445.785 100.505 445.617 100.595 445.388 100.619C445.216 100.627 445.044 100.623 444.872 100.607C444.7 100.591 444.532 100.574 444.368 100.558V101.995C444.548 102.012 444.725 102.024 444.897 102.032C445.077 102.049 445.257 102.057 445.437 102.057C446.035 102.057 446.502 101.946 446.838 101.725C447.174 101.504 447.436 101.135 447.625 100.619Z" fill="white"/>
<rect x="338.364" y="432.712" width="133.801" height="133.801" fill="#1AAE9F"/>
<path d="M367.754 491.099V489.047H369.561C369.733 489.047 369.897 489.064 370.052 489.097C370.216 489.121 370.359 489.17 370.482 489.244C370.605 489.318 370.704 489.42 370.777 489.551C370.851 489.682 370.888 489.85 370.888 490.055C370.888 490.424 370.777 490.69 370.556 490.854C370.335 491.018 370.052 491.099 369.708 491.099H367.754ZM365.825 487.548V496.322H370.077C370.47 496.322 370.851 496.273 371.22 496.174C371.596 496.076 371.928 495.924 372.215 495.72C372.51 495.515 372.743 495.253 372.915 494.933C373.087 494.606 373.173 494.221 373.173 493.778C373.173 493.229 373.038 492.762 372.768 492.377C372.506 491.984 372.104 491.71 371.564 491.554C371.957 491.366 372.252 491.124 372.448 490.829C372.653 490.534 372.756 490.166 372.756 489.723C372.756 489.314 372.686 488.97 372.547 488.691C372.416 488.412 372.227 488.191 371.981 488.027C371.736 487.855 371.441 487.733 371.097 487.659C370.753 487.585 370.372 487.548 369.954 487.548H365.825ZM367.754 494.823V492.414H369.856C370.273 492.414 370.609 492.513 370.863 492.709C371.117 492.898 371.244 493.217 371.244 493.668C371.244 493.897 371.203 494.085 371.121 494.233C371.048 494.38 370.945 494.499 370.814 494.589C370.683 494.671 370.531 494.733 370.359 494.774C370.187 494.806 370.007 494.823 369.819 494.823H367.754ZM376.087 488.986V487.548H374.342V488.986H376.087ZM374.342 489.969V496.322H376.087V489.969H374.342ZM377.51 487.548V496.322H379.255V487.548H377.51ZM380.678 487.548V496.322H382.423V487.548H380.678ZM387.143 491.923C387.168 491.513 387.27 491.173 387.45 490.903C387.63 490.632 387.86 490.415 388.138 490.252C388.417 490.088 388.728 489.973 389.072 489.908C389.424 489.834 389.777 489.797 390.129 489.797C390.448 489.797 390.772 489.821 391.1 489.871C391.427 489.912 391.726 489.998 391.997 490.129C392.267 490.26 392.488 490.444 392.66 490.682C392.832 490.911 392.918 491.218 392.918 491.603V494.909C392.918 495.195 392.935 495.47 392.967 495.732C393 495.994 393.058 496.191 393.139 496.322H391.37C391.337 496.223 391.309 496.125 391.284 496.027C391.268 495.92 391.255 495.814 391.247 495.707C390.969 495.994 390.641 496.195 390.264 496.309C389.887 496.424 389.502 496.482 389.109 496.482C388.806 496.482 388.523 496.445 388.261 496.371C387.999 496.297 387.77 496.183 387.573 496.027C387.376 495.871 387.221 495.675 387.106 495.437C387 495.199 386.946 494.917 386.946 494.589C386.946 494.229 387.008 493.934 387.131 493.704C387.262 493.467 387.426 493.278 387.622 493.139C387.827 493 388.056 492.898 388.31 492.832C388.572 492.758 388.835 492.701 389.097 492.66C389.359 492.619 389.617 492.586 389.871 492.562C390.125 492.537 390.35 492.5 390.547 492.451C390.743 492.402 390.899 492.332 391.014 492.242C391.128 492.144 391.182 492.005 391.173 491.824C391.173 491.636 391.141 491.489 391.075 491.382C391.018 491.267 390.936 491.181 390.829 491.124C390.731 491.058 390.612 491.018 390.473 491.001C390.342 490.977 390.199 490.964 390.043 490.964C389.699 490.964 389.429 491.038 389.232 491.185C389.035 491.333 388.921 491.579 388.888 491.923H387.143ZM391.173 493.213C391.1 493.278 391.005 493.332 390.891 493.373C390.784 493.405 390.665 493.434 390.534 493.459C390.412 493.483 390.28 493.504 390.141 493.52C390.002 493.537 389.863 493.557 389.723 493.582C389.592 493.606 389.461 493.639 389.33 493.68C389.207 493.721 389.097 493.778 388.998 493.852C388.908 493.917 388.835 494.003 388.777 494.11C388.72 494.216 388.691 494.352 388.691 494.515C388.691 494.671 388.72 494.802 388.777 494.909C388.835 495.015 388.912 495.101 389.011 495.167C389.109 495.224 389.224 495.265 389.355 495.29C389.486 495.314 389.621 495.326 389.76 495.326C390.104 495.326 390.371 495.269 390.559 495.154C390.747 495.04 390.887 494.905 390.977 494.749C391.067 494.585 391.12 494.421 391.137 494.257C391.161 494.094 391.173 493.963 391.173 493.864V493.213ZM394.273 489.969V496.322H396.017V492.992C396.017 492.345 396.124 491.882 396.337 491.603C396.55 491.317 396.894 491.173 397.369 491.173C397.787 491.173 398.078 491.304 398.242 491.566C398.405 491.82 398.487 492.209 398.487 492.734V496.322H400.232V492.414C400.232 492.021 400.195 491.665 400.122 491.345C400.056 491.018 399.937 490.743 399.765 490.522C399.593 490.293 399.356 490.116 399.053 489.994C398.758 489.862 398.377 489.797 397.91 489.797C397.541 489.797 397.181 489.883 396.828 490.055C396.476 490.219 396.19 490.485 395.968 490.854H395.931V489.969H394.273ZM406.066 493.127C406.066 493.389 406.042 493.643 405.992 493.889C405.943 494.135 405.861 494.356 405.747 494.552C405.632 494.741 405.476 494.892 405.28 495.007C405.091 495.122 404.854 495.179 404.567 495.179C404.297 495.179 404.063 495.122 403.867 495.007C403.678 494.884 403.519 494.728 403.387 494.54C403.265 494.343 403.174 494.122 403.117 493.876C403.06 493.631 403.031 493.385 403.031 493.139C403.031 492.877 403.056 492.627 403.105 492.39C403.162 492.144 403.248 491.927 403.363 491.738C403.486 491.55 403.645 491.398 403.842 491.284C404.039 491.169 404.28 491.112 404.567 491.112C404.854 491.112 405.091 491.169 405.28 491.284C405.468 491.398 405.62 491.55 405.734 491.738C405.857 491.919 405.943 492.132 405.992 492.377C406.042 492.615 406.066 492.865 406.066 493.127ZM406.091 495.511V496.322H407.75V487.548H406.005V490.743H405.98C405.784 490.432 405.513 490.198 405.169 490.043C404.833 489.879 404.477 489.797 404.1 489.797C403.633 489.797 403.224 489.891 402.871 490.08C402.519 490.26 402.224 490.501 401.987 490.805C401.757 491.108 401.581 491.46 401.458 491.861C401.344 492.254 401.286 492.664 401.286 493.09C401.286 493.532 401.344 493.958 401.458 494.368C401.581 494.778 401.757 495.142 401.987 495.462C402.224 495.773 402.523 496.023 402.884 496.211C403.244 496.391 403.662 496.482 404.137 496.482C404.555 496.482 404.928 496.408 405.255 496.26C405.591 496.105 405.861 495.855 406.066 495.511H406.091ZM418.522 490.497H420.39C420.332 489.989 420.193 489.539 419.972 489.146C419.751 488.752 419.468 488.425 419.124 488.163C418.788 487.892 418.403 487.687 417.969 487.548C417.543 487.409 417.088 487.339 416.605 487.339C415.933 487.339 415.327 487.458 414.786 487.696C414.254 487.933 413.803 488.261 413.435 488.679C413.066 489.097 412.783 489.588 412.587 490.153C412.39 490.71 412.292 491.317 412.292 491.972C412.292 492.611 412.39 493.209 412.587 493.766C412.783 494.315 413.066 494.794 413.435 495.204C413.803 495.613 414.254 495.937 414.786 496.174C415.327 496.404 415.933 496.518 416.605 496.518C417.146 496.518 417.641 496.436 418.092 496.273C418.542 496.109 418.935 495.871 419.271 495.56C419.607 495.249 419.878 494.872 420.082 494.429C420.287 493.987 420.414 493.491 420.463 492.943H418.596C418.522 493.532 418.317 494.008 417.981 494.368C417.653 494.728 417.195 494.909 416.605 494.909C416.171 494.909 415.802 494.827 415.499 494.663C415.196 494.491 414.95 494.266 414.762 493.987C414.573 493.709 414.434 493.397 414.344 493.053C414.262 492.701 414.221 492.341 414.221 491.972C414.221 491.587 414.262 491.214 414.344 490.854C414.434 490.493 414.573 490.174 414.762 489.895C414.95 489.608 415.196 489.383 415.499 489.219C415.802 489.047 416.171 488.961 416.605 488.961C416.842 488.961 417.068 489.002 417.281 489.084C417.502 489.158 417.698 489.264 417.871 489.404C418.043 489.543 418.186 489.707 418.301 489.895C418.415 490.075 418.489 490.276 418.522 490.497ZM421.523 491.923C421.547 491.513 421.65 491.173 421.83 490.903C422.01 490.632 422.239 490.415 422.518 490.252C422.796 490.088 423.108 489.973 423.452 489.908C423.804 489.834 424.156 489.797 424.509 489.797C424.828 489.797 425.152 489.821 425.479 489.871C425.807 489.912 426.106 489.998 426.376 490.129C426.647 490.26 426.868 490.444 427.04 490.682C427.212 490.911 427.298 491.218 427.298 491.603V494.909C427.298 495.195 427.314 495.47 427.347 495.732C427.38 495.994 427.437 496.191 427.519 496.322H425.75C425.717 496.223 425.688 496.125 425.664 496.027C425.647 495.92 425.635 495.814 425.627 495.707C425.348 495.994 425.021 496.195 424.644 496.309C424.267 496.424 423.882 496.482 423.489 496.482C423.186 496.482 422.903 496.445 422.641 496.371C422.379 496.297 422.149 496.183 421.953 496.027C421.756 495.871 421.6 495.675 421.486 495.437C421.379 495.199 421.326 494.917 421.326 494.589C421.326 494.229 421.387 493.934 421.51 493.704C421.641 493.467 421.805 493.278 422.002 493.139C422.207 493 422.436 492.898 422.69 492.832C422.952 492.758 423.214 492.701 423.476 492.66C423.739 492.619 423.997 492.586 424.251 492.562C424.504 492.537 424.73 492.5 424.926 492.451C425.123 492.402 425.279 492.332 425.393 492.242C425.508 492.144 425.561 492.005 425.553 491.824C425.553 491.636 425.52 491.489 425.455 491.382C425.397 491.267 425.315 491.181 425.209 491.124C425.111 491.058 424.992 491.018 424.853 491.001C424.722 490.977 424.578 490.964 424.423 490.964C424.078 490.964 423.808 491.038 423.612 491.185C423.415 491.333 423.3 491.579 423.267 491.923H421.523ZM425.553 493.213C425.479 493.278 425.385 493.332 425.27 493.373C425.164 493.405 425.045 493.434 424.914 493.459C424.791 493.483 424.66 493.504 424.521 493.52C424.382 493.537 424.242 493.557 424.103 493.582C423.972 493.606 423.841 493.639 423.71 493.68C423.587 493.721 423.476 493.778 423.378 493.852C423.288 493.917 423.214 494.003 423.157 494.11C423.1 494.216 423.071 494.352 423.071 494.515C423.071 494.671 423.1 494.802 423.157 494.909C423.214 495.015 423.292 495.101 423.39 495.167C423.489 495.224 423.603 495.265 423.734 495.29C423.866 495.314 424.001 495.326 424.14 495.326C424.484 495.326 424.75 495.269 424.939 495.154C425.127 495.04 425.266 494.905 425.356 494.749C425.447 494.585 425.5 494.421 425.516 494.257C425.541 494.094 425.553 493.963 425.553 493.864V493.213ZM433.309 493.152C433.309 493.414 433.281 493.668 433.223 493.913C433.166 494.159 433.076 494.376 432.953 494.565C432.83 494.753 432.675 494.905 432.486 495.019C432.306 495.126 432.085 495.179 431.823 495.179C431.569 495.179 431.347 495.126 431.159 495.019C430.971 494.905 430.815 494.753 430.692 494.565C430.569 494.376 430.479 494.159 430.422 493.913C430.364 493.668 430.336 493.414 430.336 493.152C430.336 492.881 430.364 492.623 430.422 492.377C430.479 492.132 430.569 491.915 430.692 491.726C430.815 491.538 430.971 491.39 431.159 491.284C431.347 491.169 431.569 491.112 431.823 491.112C432.085 491.112 432.306 491.169 432.486 491.284C432.675 491.39 432.83 491.538 432.953 491.726C433.076 491.915 433.166 492.132 433.223 492.377C433.281 492.623 433.309 492.881 433.309 493.152ZM428.652 487.548V496.322H430.311V495.511H430.336C430.524 495.863 430.803 496.113 431.171 496.26C431.54 496.408 431.958 496.482 432.425 496.482C432.744 496.482 433.06 496.416 433.371 496.285C433.682 496.154 433.961 495.953 434.206 495.683C434.46 495.412 434.665 495.068 434.821 494.651C434.976 494.225 435.054 493.721 435.054 493.139C435.054 492.558 434.976 492.058 434.821 491.64C434.665 491.214 434.46 490.866 434.206 490.596C433.961 490.325 433.682 490.125 433.371 489.994C433.06 489.862 432.744 489.797 432.425 489.797C432.031 489.797 431.651 489.875 431.282 490.03C430.921 490.178 430.635 490.415 430.422 490.743H430.397V487.548H428.652ZM436.213 487.548V496.322H437.958V487.548H436.213ZM443.608 492.463H440.77C440.778 492.341 440.803 492.201 440.844 492.046C440.893 491.89 440.971 491.742 441.077 491.603C441.192 491.464 441.339 491.349 441.519 491.259C441.708 491.161 441.941 491.112 442.22 491.112C442.646 491.112 442.961 491.226 443.166 491.456C443.379 491.685 443.526 492.021 443.608 492.463ZM440.77 493.569H445.353C445.386 493.078 445.345 492.607 445.23 492.156C445.116 491.706 444.927 491.304 444.665 490.952C444.411 490.6 444.083 490.321 443.682 490.116C443.281 489.903 442.81 489.797 442.269 489.797C441.786 489.797 441.343 489.883 440.942 490.055C440.549 490.227 440.209 490.465 439.922 490.768C439.635 491.063 439.414 491.415 439.258 491.824C439.103 492.234 439.025 492.676 439.025 493.152C439.025 493.643 439.099 494.094 439.246 494.503C439.402 494.913 439.619 495.265 439.897 495.56C440.176 495.855 440.516 496.084 440.917 496.248C441.319 496.404 441.769 496.482 442.269 496.482C442.99 496.482 443.604 496.318 444.112 495.99C444.62 495.662 444.997 495.118 445.243 494.356H443.707C443.649 494.552 443.494 494.741 443.24 494.921C442.986 495.093 442.683 495.179 442.33 495.179C441.839 495.179 441.462 495.052 441.2 494.798C440.938 494.544 440.794 494.135 440.77 493.569ZM370.428 508.41H368.56C368.552 508.95 368.65 509.417 368.855 509.81C369.06 510.204 369.334 510.527 369.678 510.781C370.031 511.035 370.432 511.219 370.883 511.334C371.341 511.457 371.812 511.518 372.296 511.518C372.894 511.518 373.418 511.449 373.869 511.309C374.327 511.17 374.708 510.978 375.011 510.732C375.323 510.478 375.556 510.179 375.712 509.835C375.867 509.491 375.945 509.118 375.945 508.717C375.945 508.225 375.839 507.824 375.626 507.513C375.421 507.193 375.175 506.939 374.888 506.751C374.602 506.562 374.311 506.427 374.016 506.345C373.729 506.255 373.504 506.194 373.34 506.161C372.791 506.022 372.345 505.907 372.001 505.817C371.665 505.727 371.399 505.637 371.202 505.546C371.014 505.456 370.887 505.358 370.821 505.252C370.756 505.145 370.723 505.006 370.723 504.834C370.723 504.645 370.764 504.49 370.846 504.367C370.928 504.244 371.03 504.142 371.153 504.06C371.284 503.978 371.427 503.92 371.583 503.888C371.739 503.855 371.894 503.838 372.05 503.838C372.288 503.838 372.505 503.859 372.701 503.9C372.906 503.941 373.086 504.01 373.242 504.109C373.398 504.207 373.52 504.342 373.611 504.514C373.709 504.686 373.766 504.903 373.783 505.166H375.65C375.65 504.658 375.552 504.228 375.355 503.875C375.167 503.515 374.909 503.22 374.581 502.991C374.254 502.761 373.877 502.597 373.451 502.499C373.033 502.393 372.595 502.339 372.136 502.339C371.743 502.339 371.35 502.393 370.956 502.499C370.563 502.606 370.211 502.769 369.9 502.991C369.588 503.212 369.334 503.49 369.138 503.826C368.949 504.154 368.855 504.543 368.855 504.994C368.855 505.395 368.929 505.739 369.076 506.026C369.232 506.304 369.433 506.538 369.678 506.726C369.924 506.915 370.203 507.07 370.514 507.193C370.825 507.308 371.145 507.406 371.472 507.488C371.792 507.578 372.107 507.66 372.419 507.734C372.73 507.807 373.008 507.893 373.254 507.992C373.5 508.09 373.697 508.213 373.844 508.36C374 508.508 374.077 508.7 374.077 508.938C374.077 509.159 374.02 509.343 373.905 509.491C373.791 509.63 373.647 509.741 373.475 509.823C373.303 509.905 373.119 509.962 372.922 509.995C372.726 510.019 372.542 510.032 372.369 510.032C372.116 510.032 371.87 510.003 371.632 509.946C371.395 509.88 371.186 509.786 371.006 509.663C370.833 509.532 370.694 509.364 370.588 509.159C370.481 508.954 370.428 508.704 370.428 508.41ZM382.868 511.322V504.969H381.124V508.299C381.124 508.946 381.017 509.413 380.804 509.7C380.591 509.978 380.247 510.118 379.772 510.118C379.354 510.118 379.063 509.991 378.899 509.737C378.736 509.474 378.654 509.081 378.654 508.557V504.969H376.909V508.876C376.909 509.27 376.942 509.63 377.007 509.958C377.081 510.277 377.204 510.552 377.376 510.781C377.548 511.002 377.781 511.174 378.076 511.297C378.379 511.42 378.764 511.482 379.231 511.482C379.6 511.482 379.96 511.4 380.313 511.236C380.665 511.072 380.951 510.806 381.173 510.437H381.21V511.322H382.868ZM388.85 508.152C388.85 508.414 388.821 508.668 388.764 508.913C388.706 509.159 388.616 509.376 388.493 509.565C388.371 509.753 388.215 509.905 388.027 510.019C387.846 510.126 387.625 510.179 387.363 510.179C387.109 510.179 386.888 510.126 386.699 510.019C386.511 509.905 386.355 509.753 386.233 509.565C386.11 509.376 386.02 509.159 385.962 508.913C385.905 508.668 385.876 508.414 385.876 508.152C385.876 507.881 385.905 507.623 385.962 507.377C386.02 507.132 386.11 506.915 386.233 506.726C386.355 506.538 386.511 506.39 386.699 506.284C386.888 506.169 387.109 506.112 387.363 506.112C387.625 506.112 387.846 506.169 388.027 506.284C388.215 506.39 388.371 506.538 388.493 506.726C388.616 506.915 388.706 507.132 388.764 507.377C388.821 507.623 388.85 507.881 388.85 508.152ZM384.193 502.548V511.322H385.852V510.511H385.876C386.065 510.863 386.343 511.113 386.712 511.26C387.08 511.408 387.498 511.482 387.965 511.482C388.285 511.482 388.6 511.416 388.911 511.285C389.223 511.154 389.501 510.953 389.747 510.683C390.001 510.412 390.206 510.068 390.361 509.651C390.517 509.225 390.595 508.721 390.595 508.139C390.595 507.558 390.517 507.058 390.361 506.64C390.206 506.214 390.001 505.866 389.747 505.596C389.501 505.325 389.223 505.125 388.911 504.994C388.6 504.862 388.285 504.797 387.965 504.797C387.572 504.797 387.191 504.875 386.822 505.03C386.462 505.178 386.175 505.415 385.962 505.743H385.938V502.548H384.193ZM393.056 509.257H391.397C391.414 509.683 391.508 510.04 391.68 510.326C391.86 510.605 392.086 510.83 392.356 511.002C392.634 511.174 392.95 511.297 393.302 511.371C393.654 511.445 394.015 511.482 394.383 511.482C394.744 511.482 395.096 511.445 395.44 511.371C395.792 511.305 396.104 511.187 396.374 511.015C396.644 510.843 396.861 510.617 397.025 510.339C397.197 510.052 397.283 509.7 397.283 509.282C397.283 508.987 397.226 508.741 397.111 508.545C396.997 508.34 396.845 508.172 396.657 508.041C396.468 507.902 396.251 507.791 396.005 507.709C395.768 507.627 395.522 507.558 395.268 507.5C395.022 507.443 394.781 507.39 394.543 507.341C394.306 507.291 394.093 507.238 393.904 507.181C393.724 507.115 393.576 507.033 393.462 506.935C393.347 506.837 393.29 506.71 393.29 506.554C393.29 506.423 393.323 506.321 393.388 506.247C393.454 506.165 393.531 506.104 393.622 506.063C393.72 506.022 393.826 505.997 393.941 505.989C394.056 505.972 394.162 505.964 394.261 505.964C394.572 505.964 394.842 506.026 395.072 506.149C395.301 506.263 395.428 506.489 395.452 506.824H397.111C397.079 506.431 396.976 506.108 396.804 505.854C396.64 505.592 396.431 505.383 396.177 505.227C395.923 505.071 395.633 504.961 395.305 504.895C394.986 504.83 394.654 504.797 394.31 504.797C393.966 504.797 393.63 504.83 393.302 504.895C392.974 504.953 392.679 505.059 392.417 505.215C392.155 505.362 391.942 505.567 391.778 505.829C391.623 506.091 391.545 506.427 391.545 506.837C391.545 507.115 391.602 507.353 391.717 507.549C391.832 507.738 391.983 507.898 392.172 508.029C392.36 508.152 392.573 508.254 392.811 508.336C393.056 508.41 393.306 508.475 393.56 508.532C394.183 508.663 394.666 508.795 395.01 508.926C395.362 509.057 395.538 509.253 395.538 509.515C395.538 509.671 395.502 509.802 395.428 509.909C395.354 510.007 395.26 510.089 395.145 510.154C395.039 510.212 394.916 510.257 394.777 510.29C394.646 510.314 394.519 510.326 394.396 510.326C394.224 510.326 394.056 510.306 393.892 510.265C393.736 510.224 393.597 510.163 393.474 510.081C393.351 509.991 393.249 509.88 393.167 509.749C393.093 509.61 393.056 509.446 393.056 509.257ZM402.63 507.205H404.338C404.313 506.796 404.215 506.443 404.043 506.149C403.871 505.845 403.646 505.596 403.367 505.399C403.097 505.194 402.786 505.043 402.433 504.944C402.089 504.846 401.729 504.797 401.352 504.797C400.836 504.797 400.377 504.883 399.976 505.055C399.574 505.227 399.234 505.469 398.956 505.78C398.677 506.083 398.464 506.448 398.317 506.874C398.178 507.291 398.108 507.746 398.108 508.238C398.108 508.713 398.186 509.151 398.341 509.552C398.497 509.946 398.714 510.285 398.993 510.572C399.271 510.859 399.607 511.084 400 511.248C400.402 511.404 400.84 511.482 401.315 511.482C402.159 511.482 402.851 511.26 403.392 510.818C403.932 510.376 404.26 509.733 404.375 508.889H402.691C402.634 509.282 402.491 509.597 402.261 509.835C402.04 510.064 401.721 510.179 401.303 510.179C401.032 510.179 400.803 510.118 400.615 509.995C400.426 509.872 400.275 509.716 400.16 509.528C400.054 509.331 399.976 509.114 399.927 508.876C399.877 508.639 399.853 508.405 399.853 508.176C399.853 507.939 399.877 507.701 399.927 507.463C399.976 507.218 400.058 506.996 400.172 506.8C400.295 506.595 400.451 506.431 400.639 506.308C400.828 506.177 401.061 506.112 401.34 506.112C402.085 506.112 402.515 506.476 402.63 507.205ZM405.361 504.969V511.322H407.105V508.459C407.105 508.172 407.134 507.906 407.191 507.66C407.249 507.414 407.343 507.201 407.474 507.021C407.613 506.833 407.794 506.685 408.015 506.579C408.236 506.472 408.506 506.419 408.826 506.419C408.932 506.419 409.043 506.427 409.157 506.443C409.272 506.452 409.37 506.464 409.452 506.48V504.858C409.313 504.817 409.186 504.797 409.071 504.797C408.85 504.797 408.637 504.83 408.432 504.895C408.228 504.961 408.035 505.055 407.855 505.178C407.675 505.293 407.515 505.436 407.376 505.608C407.236 505.772 407.126 505.952 407.044 506.149H407.019V504.969H405.361ZM411.93 503.986V502.548H410.186V503.986H411.93ZM410.186 504.969V511.322H411.93V504.969H410.186ZM416.512 510.179C416.233 510.179 415.995 510.122 415.799 510.007C415.602 509.892 415.443 509.745 415.32 509.565C415.205 509.376 415.119 509.159 415.062 508.913C415.012 508.668 414.988 508.418 414.988 508.164C414.988 507.902 415.012 507.648 415.062 507.402C415.111 507.156 415.193 506.939 415.307 506.751C415.43 506.562 415.586 506.411 415.774 506.296C415.971 506.173 416.213 506.112 416.499 506.112C416.778 506.112 417.011 506.173 417.2 506.296C417.396 506.411 417.556 506.566 417.679 506.763C417.802 506.951 417.888 507.168 417.937 507.414C417.994 507.66 418.023 507.91 418.023 508.164C418.023 508.418 417.998 508.668 417.949 508.913C417.9 509.159 417.814 509.376 417.691 509.565C417.577 509.745 417.421 509.892 417.224 510.007C417.036 510.122 416.798 510.179 416.512 510.179ZM413.304 504.969V513.546H415.049V510.535H415.074C415.287 510.847 415.557 511.084 415.885 511.248C416.221 511.404 416.585 511.482 416.979 511.482C417.445 511.482 417.851 511.391 418.195 511.211C418.547 511.031 418.838 510.789 419.067 510.486C419.305 510.183 419.481 509.835 419.596 509.442C419.711 509.049 419.768 508.639 419.768 508.213C419.768 507.762 419.711 507.332 419.596 506.923C419.481 506.505 419.305 506.14 419.067 505.829C418.83 505.518 418.531 505.268 418.17 505.08C417.81 504.891 417.38 504.797 416.88 504.797C416.487 504.797 416.127 504.875 415.799 505.03C415.471 505.186 415.201 505.436 414.988 505.78H414.963V504.969H413.304ZM423.028 504.969V503.064H421.283V504.969H420.227V506.136H421.283V509.884C421.283 510.204 421.337 510.462 421.443 510.658C421.55 510.855 421.693 511.006 421.873 511.113C422.062 511.219 422.275 511.289 422.512 511.322C422.758 511.363 423.016 511.383 423.286 511.383C423.458 511.383 423.634 511.379 423.815 511.371C423.995 511.363 424.159 511.346 424.306 511.322V509.97C424.224 509.986 424.138 509.999 424.048 510.007C423.958 510.015 423.864 510.019 423.765 510.019C423.471 510.019 423.274 509.97 423.176 509.872C423.077 509.774 423.028 509.577 423.028 509.282V506.136H424.306V504.969H423.028ZM426.93 503.986V502.548H425.185V503.986H426.93ZM425.185 504.969V511.322H426.93V504.969H425.185ZM429.853 508.152C429.853 507.898 429.877 507.648 429.926 507.402C429.975 507.156 430.057 506.939 430.172 506.751C430.295 506.562 430.455 506.411 430.651 506.296C430.848 506.173 431.094 506.112 431.389 506.112C431.683 506.112 431.929 506.173 432.126 506.296C432.331 506.411 432.49 506.562 432.605 506.751C432.728 506.939 432.814 507.156 432.863 507.402C432.912 507.648 432.937 507.898 432.937 508.152C432.937 508.405 432.912 508.655 432.863 508.901C432.814 509.139 432.728 509.356 432.605 509.552C432.49 509.741 432.331 509.892 432.126 510.007C431.929 510.122 431.683 510.179 431.389 510.179C431.094 510.179 430.848 510.122 430.651 510.007C430.455 509.892 430.295 509.741 430.172 509.552C430.057 509.356 429.975 509.139 429.926 508.901C429.877 508.655 429.853 508.405 429.853 508.152ZM428.108 508.152C428.108 508.659 428.185 509.118 428.341 509.528C428.497 509.937 428.718 510.29 429.005 510.585C429.291 510.871 429.635 511.092 430.037 511.248C430.438 511.404 430.889 511.482 431.389 511.482C431.888 511.482 432.339 511.404 432.74 511.248C433.15 511.092 433.498 510.871 433.785 510.585C434.071 510.29 434.293 509.937 434.448 509.528C434.604 509.118 434.682 508.659 434.682 508.152C434.682 507.644 434.604 507.185 434.448 506.775C434.293 506.357 434.071 506.005 433.785 505.719C433.498 505.424 433.15 505.198 432.74 505.043C432.339 504.879 431.888 504.797 431.389 504.797C430.889 504.797 430.438 504.879 430.037 505.043C429.635 505.198 429.291 505.424 429.005 505.719C428.718 506.005 428.497 506.357 428.341 506.775C428.185 507.185 428.108 507.644 428.108 508.152ZM435.816 504.969V511.322H437.561V507.992C437.561 507.345 437.668 506.882 437.881 506.603C438.094 506.317 438.438 506.173 438.913 506.173C439.331 506.173 439.621 506.304 439.785 506.566C439.949 506.82 440.031 507.209 440.031 507.734V511.322H441.776V507.414C441.776 507.021 441.739 506.665 441.665 506.345C441.6 506.018 441.481 505.743 441.309 505.522C441.137 505.293 440.899 505.116 440.596 504.994C440.301 504.862 439.92 504.797 439.453 504.797C439.085 504.797 438.724 504.883 438.372 505.055C438.02 505.219 437.733 505.485 437.512 505.854H437.475V504.969H435.816Z" fill="white"/>
</svg>
