<svg width="492" height="618" viewBox="0 0 492 618" fill="none" xmlns="http://www.w3.org/2000/svg">
<rect width="491.263" height="617.228" transform="translate(0.434082 0.179199)" fill="white"/>
<rect x="284.892" y="230.144" width="133.51" height="133.51" rx="66.7551" fill="#F15BB5"/>
<path d="M316.677 300.27L314.776 297.033C315.769 296.579 316.431 295.598 316.431 294.532C316.431 293.747 316.149 293.072 315.598 292.521C315.046 291.969 314.372 291.687 313.575 291.687H310.141V300.27H311.834V297.29H313.121L314.85 300.27H316.677ZM313.575 293.269C314.212 293.269 314.739 293.833 314.739 294.532C314.739 295.23 314.212 295.807 313.575 295.807H311.834V293.269H313.575ZM323.247 297.854C323.284 297.621 323.308 297.413 323.308 297.204C323.308 296.285 323.014 295.525 322.426 294.899C321.849 294.274 321.101 293.968 320.206 293.968C319.262 293.968 318.477 294.274 317.877 294.899C317.276 295.512 316.969 296.285 316.969 297.204C316.969 298.136 317.276 298.909 317.889 299.522C318.502 300.135 319.311 300.441 320.329 300.441C321.506 300.441 322.401 300 323.002 299.129L321.727 298.394C321.42 298.798 320.954 299.007 320.353 299.007C319.409 299.007 318.833 298.627 318.625 297.854H323.247ZM318.6 296.628C318.784 295.843 319.36 295.39 320.206 295.39C320.93 295.39 321.543 295.794 321.727 296.628H318.6ZM327.283 300.441C328.472 300.441 329.514 299.816 330.054 298.847L328.681 298.063C328.435 298.565 327.908 298.872 327.27 298.872C326.792 298.872 326.4 298.713 326.093 298.406C325.787 298.087 325.628 297.683 325.628 297.204C325.628 296.224 326.326 295.525 327.27 295.525C327.896 295.525 328.423 295.843 328.668 296.346L330.029 295.549C329.527 294.581 328.472 293.968 327.283 293.968C326.363 293.968 325.591 294.274 324.965 294.899C324.352 295.525 324.046 296.285 324.046 297.204C324.046 298.124 324.352 298.884 324.965 299.51C325.591 300.135 326.363 300.441 327.283 300.441ZM336.753 297.854C336.79 297.621 336.815 297.413 336.815 297.204C336.815 296.285 336.52 295.525 335.932 294.899C335.356 294.274 334.608 293.968 333.713 293.968C332.769 293.968 331.984 294.274 331.383 294.899C330.782 295.512 330.476 296.285 330.476 297.204C330.476 298.136 330.782 298.909 331.395 299.522C332.008 300.135 332.818 300.441 333.835 300.441C335.012 300.441 335.907 300 336.508 299.129L335.233 298.394C334.927 298.798 334.461 299.007 333.86 299.007C332.916 299.007 332.339 298.627 332.131 297.854H336.753ZM332.106 296.628C332.29 295.843 332.867 295.39 333.713 295.39C334.436 295.39 335.049 295.794 335.233 296.628H332.106ZM338.704 293.404C339.243 293.404 339.685 292.962 339.685 292.435C339.685 291.908 339.243 291.454 338.704 291.454C338.176 291.454 337.735 291.908 337.735 292.435C337.735 292.962 338.176 293.404 338.704 293.404ZM339.501 300.27V294.139H337.919V300.27H339.501ZM343.486 298.431L342.003 294.139H340.262L342.591 300.27H344.394L346.723 294.139H344.982L343.486 298.431ZM353.205 297.854C353.242 297.621 353.267 297.413 353.267 297.204C353.267 296.285 352.972 295.525 352.384 294.899C351.808 294.274 351.06 293.968 350.165 293.968C349.221 293.968 348.436 294.274 347.835 294.899C347.234 295.512 346.928 296.285 346.928 297.204C346.928 298.136 347.234 298.909 347.847 299.522C348.46 300.135 349.27 300.441 350.287 300.441C351.464 300.441 352.359 300 352.96 299.129L351.685 298.394C351.379 298.798 350.913 299.007 350.312 299.007C349.368 299.007 348.791 298.627 348.583 297.854H353.205ZM348.558 296.628C348.742 295.843 349.319 295.39 350.165 295.39C350.888 295.39 351.501 295.794 351.685 296.628H348.558ZM364.168 291.687L361.715 295.745L359.251 291.687H357.51V300.27H359.202V294.715L361.617 298.688H361.813L364.229 294.703V300.27H365.909V291.687H364.168ZM372.658 299.51C373.283 298.884 373.602 298.112 373.602 297.204C373.602 296.297 373.283 295.537 372.658 294.912C372.032 294.286 371.26 293.968 370.352 293.968C369.445 293.968 368.673 294.286 368.047 294.912C367.422 295.537 367.116 296.297 367.116 297.204C367.116 298.112 367.422 298.884 368.047 299.51C368.673 300.135 369.445 300.441 370.352 300.441C371.26 300.441 372.032 300.135 372.658 299.51ZM369.163 298.418C368.857 298.1 368.697 297.695 368.697 297.204C368.697 296.714 368.857 296.309 369.163 295.991C369.482 295.672 369.874 295.512 370.352 295.512C370.831 295.512 371.223 295.672 371.542 295.991C371.861 296.309 372.02 296.714 372.02 297.204C372.02 297.695 371.861 298.1 371.542 298.418C371.223 298.737 370.831 298.897 370.352 298.897C369.874 298.897 369.482 298.737 369.163 298.418ZM378.123 293.968C377.289 293.968 376.676 294.25 376.296 294.826V294.139H374.714V300.27H376.296V296.959C376.296 295.942 376.823 295.439 377.645 295.439C378.38 295.439 378.859 295.88 378.859 296.702V300.27H380.44V296.506C380.44 295.709 380.22 295.096 379.778 294.642C379.349 294.188 378.797 293.968 378.123 293.968ZM387.75 297.854C387.787 297.621 387.811 297.413 387.811 297.204C387.811 296.285 387.517 295.525 386.928 294.899C386.352 294.274 385.604 293.968 384.709 293.968C383.765 293.968 382.98 294.274 382.379 294.899C381.779 295.512 381.472 296.285 381.472 297.204C381.472 298.136 381.779 298.909 382.392 299.522C383.005 300.135 383.814 300.441 384.832 300.441C386.009 300.441 386.904 300 387.505 299.129L386.229 298.394C385.923 298.798 385.457 299.007 384.856 299.007C383.912 299.007 383.336 298.627 383.127 297.854H387.75ZM383.103 296.628C383.287 295.843 383.863 295.39 384.709 295.39C385.432 295.39 386.045 295.794 386.229 296.628H383.103ZM391.312 298.259L389.718 294.139H387.989L390.503 300.074C390.208 300.907 389.742 301.263 388.896 301.251V302.722C390.466 302.808 391.496 302.035 392.133 300.27L394.365 294.139H392.673L391.312 298.259Z" fill="white"/>
<rect x="112.691" y="230.144" width="133.51" height="133.51" rx="66.7551" fill="#00BBF9"/>
<path d="M148.328 300.441C149.248 300.441 149.996 300.208 150.572 299.743C151.148 299.277 151.442 298.651 151.442 297.854C151.442 297.364 151.307 296.935 151.124 296.64C150.964 296.346 150.572 296.04 150.314 295.88C150.192 295.794 150.008 295.709 149.775 295.623C149.542 295.525 149.358 295.451 149.223 295.414L148.635 295.218C147.997 295.022 147.568 294.838 147.335 294.679C147.114 294.507 147.004 294.286 147.004 294.017C147.004 293.514 147.433 293.158 148.132 293.158C148.88 293.158 149.432 293.526 149.775 294.262L151.197 293.44C150.609 292.226 149.517 291.515 148.132 291.515C147.359 291.515 146.685 291.748 146.133 292.214C145.582 292.668 145.312 293.293 145.312 294.066C145.312 294.85 145.594 295.439 146.121 295.831C146.661 296.211 147.126 296.395 147.899 296.628C148.598 296.824 149.076 297.008 149.346 297.18C149.615 297.339 149.75 297.572 149.75 297.879C149.75 298.406 149.321 298.786 148.377 298.786C147.396 298.786 146.734 298.345 146.403 297.474L144.956 298.32C145.434 299.632 146.624 300.441 148.328 300.441ZM158.599 297.854C158.636 297.621 158.66 297.413 158.66 297.204C158.66 296.285 158.366 295.525 157.777 294.899C157.201 294.274 156.453 293.968 155.558 293.968C154.614 293.968 153.829 294.274 153.229 294.899C152.628 295.512 152.321 296.285 152.321 297.204C152.321 298.136 152.628 298.909 153.241 299.522C153.854 300.135 154.663 300.441 155.681 300.441C156.858 300.441 157.753 300 158.354 299.129L157.079 298.394C156.772 298.798 156.306 299.007 155.705 299.007C154.761 299.007 154.185 298.627 153.976 297.854H158.599ZM153.952 296.628C154.136 295.843 154.712 295.39 155.558 295.39C156.282 295.39 156.895 295.794 157.079 296.628H153.952ZM163.173 293.968C162.339 293.968 161.726 294.25 161.346 294.826V294.139H159.764V300.27H161.346V296.959C161.346 295.942 161.873 295.439 162.695 295.439C163.431 295.439 163.909 295.88 163.909 296.702V300.27H165.49V296.506C165.49 295.709 165.27 295.096 164.828 294.642C164.399 294.188 163.847 293.968 163.173 293.968ZM171.488 294.863C171.022 294.262 170.36 293.968 169.502 293.968C168.68 293.968 167.969 294.286 167.38 294.912C166.804 295.537 166.51 296.297 166.51 297.204C166.51 298.112 166.804 298.884 167.38 299.51C167.969 300.135 168.68 300.441 169.502 300.441C170.36 300.441 171.022 300.147 171.488 299.546V300.27H173.07V291.687H171.488V294.863ZM168.57 298.455C168.251 298.124 168.092 297.707 168.092 297.204C168.092 296.702 168.251 296.285 168.57 295.966C168.901 295.635 169.305 295.476 169.796 295.476C170.286 295.476 170.691 295.635 171.01 295.966C171.329 296.285 171.488 296.702 171.488 297.204C171.488 297.707 171.329 298.124 171.01 298.455C170.691 298.774 170.286 298.933 169.796 298.933C169.305 298.933 168.901 298.774 168.57 298.455ZM184.313 291.687L181.861 295.745L179.396 291.687H177.655V300.27H179.347V294.715L181.762 298.688H181.959L184.374 294.703V300.27H186.054V291.687H184.313ZM192.803 299.51C193.428 298.884 193.747 298.112 193.747 297.204C193.747 296.297 193.428 295.537 192.803 294.912C192.177 294.286 191.405 293.968 190.498 293.968C189.59 293.968 188.818 294.286 188.193 294.912C187.567 295.537 187.261 296.297 187.261 297.204C187.261 298.112 187.567 298.884 188.193 299.51C188.818 300.135 189.59 300.441 190.498 300.441C191.405 300.441 192.177 300.135 192.803 299.51ZM189.308 298.418C189.002 298.1 188.842 297.695 188.842 297.204C188.842 296.714 189.002 296.309 189.308 295.991C189.627 295.672 190.019 295.512 190.498 295.512C190.976 295.512 191.368 295.672 191.687 295.991C192.006 296.309 192.165 296.714 192.165 297.204C192.165 297.695 192.006 298.1 191.687 298.418C191.368 298.737 190.976 298.897 190.498 298.897C190.019 298.897 189.627 298.737 189.308 298.418ZM198.268 293.968C197.434 293.968 196.821 294.25 196.441 294.826V294.139H194.86V300.27H196.441V296.959C196.441 295.942 196.968 295.439 197.79 295.439C198.526 295.439 199.004 295.88 199.004 296.702V300.27H200.586V296.506C200.586 295.709 200.365 295.096 199.923 294.642C199.494 294.188 198.943 293.968 198.268 293.968ZM207.895 297.854C207.932 297.621 207.956 297.413 207.956 297.204C207.956 296.285 207.662 295.525 207.074 294.899C206.497 294.274 205.749 293.968 204.854 293.968C203.91 293.968 203.125 294.274 202.525 294.899C201.924 295.512 201.617 296.285 201.617 297.204C201.617 298.136 201.924 298.909 202.537 299.522C203.15 300.135 203.959 300.441 204.977 300.441C206.154 300.441 207.049 300 207.65 299.129L206.375 298.394C206.068 298.798 205.602 299.007 205.001 299.007C204.057 299.007 203.481 298.627 203.273 297.854H207.895ZM203.248 296.628C203.432 295.843 204.008 295.39 204.854 295.39C205.578 295.39 206.191 295.794 206.375 296.628H203.248ZM211.457 298.259L209.863 294.139H208.134L210.648 300.074C210.354 300.907 209.888 301.263 209.042 301.251V302.722C210.611 302.808 211.641 302.035 212.279 300.27L214.51 294.139H212.818L211.457 298.259Z" fill="white"/>
<rect x="21.1411" y="431.771" width="133.51" height="133.51" fill="#6558F5"/>
<path d="M39.0548 494.268L36.0386 485.686H33.9419L30.9379 494.268H32.7649L33.2798 492.723H36.7007L37.2157 494.268H39.0548ZM34.9964 487.635L36.1735 491.142H33.8193L34.9964 487.635ZM40.5993 487.402C41.1388 487.402 41.5802 486.961 41.5802 486.433C41.5802 485.906 41.1388 485.453 40.5993 485.453C40.0721 485.453 39.6307 485.906 39.6307 486.433C39.6307 486.961 40.0721 487.402 40.5993 487.402ZM41.3963 494.268V488.138H39.8146V494.268H41.3963ZM44.4257 488.138H42.844V494.268H44.4257V491.338C44.4257 490.749 44.6096 490.332 44.9897 490.075C45.3698 489.818 45.8112 489.719 46.2894 489.781V488.015C45.4556 488.015 44.72 488.407 44.4257 489.192V488.138ZM50.8888 488.138H49.5032V486.421L47.9216 486.899V488.138H46.8548V489.658H47.9216V492.208C47.9216 493.888 48.7185 494.514 50.8888 494.268V492.834C49.9814 492.883 49.5032 492.871 49.5032 492.208V489.658H50.8888V488.138ZM52.7887 487.402C53.3281 487.402 53.7695 486.961 53.7695 486.433C53.7695 485.906 53.3281 485.453 52.7887 485.453C52.2614 485.453 51.82 485.906 51.82 486.433C51.82 486.961 52.2614 487.402 52.7887 487.402ZM53.5856 494.268V488.138H52.0039V494.268H53.5856ZM61.8137 487.966C61.0045 487.966 60.3914 488.26 59.9868 488.849C59.6312 488.26 59.0672 487.966 58.3193 487.966C57.5468 487.966 56.9828 488.236 56.615 488.788V488.138H55.0333V494.268H56.615V490.823C56.615 489.928 57.0687 489.437 57.7675 489.437C58.4174 489.437 58.7975 489.867 58.7975 490.602V494.268H60.3792V490.823C60.3792 489.928 60.796 489.437 61.5195 489.437C62.1693 489.437 62.5494 489.867 62.5494 490.602V494.268H64.1311V490.492C64.1311 488.959 63.2238 487.966 61.8137 487.966ZM71.4334 491.853C71.4701 491.62 71.4947 491.411 71.4947 491.203C71.4947 490.283 71.2004 489.523 70.6119 488.898C70.0356 488.273 69.2877 487.966 68.3926 487.966C67.4485 487.966 66.6638 488.273 66.063 488.898C65.4622 489.511 65.1557 490.283 65.1557 491.203C65.1557 492.135 65.4622 492.907 66.0752 493.52C66.6883 494.133 67.4975 494.44 68.5152 494.44C69.6923 494.44 70.5873 493.999 71.1881 493.128L69.913 492.392C69.6065 492.797 69.1405 493.005 68.5397 493.005C67.5956 493.005 67.0194 492.625 66.8109 491.853H71.4334ZM66.7864 490.627C66.9703 489.842 67.5466 489.388 68.3926 489.388C69.116 489.388 69.7291 489.793 69.913 490.627H66.7864ZM80.3234 488.861C79.8452 488.26 79.1831 487.966 78.3248 487.966C77.5033 487.966 76.8044 488.285 76.2159 488.91C75.6396 489.536 75.3453 490.296 75.3453 491.203C75.3453 492.11 75.6396 492.883 76.2159 493.508C76.8044 494.133 77.5033 494.44 78.3248 494.44C79.1831 494.44 79.8452 494.146 80.3234 493.545V494.268H81.9051V488.138H80.3234V488.861ZM77.4052 492.454C77.0864 492.123 76.927 491.706 76.927 491.203C76.927 490.7 77.0864 490.283 77.4052 489.965C77.724 489.634 78.1286 489.474 78.6191 489.474C79.1095 489.474 79.5141 489.634 79.8329 489.965C80.164 490.283 80.3234 490.7 80.3234 491.203C80.3234 491.706 80.164 492.123 79.8329 492.454C79.5141 492.772 79.1095 492.932 78.6191 492.932C78.1286 492.932 77.724 492.772 77.4052 492.454ZM86.7479 487.966C85.9142 487.966 85.3011 488.248 84.921 488.824V488.138H83.3393V494.268H84.921V490.958C84.921 489.94 85.4482 489.437 86.2697 489.437C87.0054 489.437 87.4836 489.879 87.4836 490.7V494.268H89.0653V490.504C89.0653 489.707 88.8446 489.094 88.4032 488.64C87.974 488.187 87.4223 487.966 86.7479 487.966ZM95.0628 488.861C94.5969 488.26 93.9348 487.966 93.0765 487.966C92.255 487.966 91.5439 488.285 90.9553 488.91C90.379 489.536 90.0848 490.296 90.0848 491.203C90.0848 492.11 90.379 492.883 90.9553 493.508C91.5439 494.133 92.255 494.44 93.0765 494.44C93.9348 494.44 94.5969 494.146 95.0628 493.545V494.268H96.6445V485.686H95.0628V488.861ZM92.1447 492.454C91.8259 492.123 91.6665 491.706 91.6665 491.203C91.6665 490.7 91.8259 490.283 92.1447 489.965C92.4757 489.634 92.8803 489.474 93.3708 489.474C93.8612 489.474 94.2658 489.634 94.5846 489.965C94.9034 490.283 95.0628 490.7 95.0628 491.203C95.0628 491.706 94.9034 492.123 94.5846 492.454C94.2658 492.772 93.8612 492.932 93.3708 492.932C92.8803 492.932 92.4757 492.772 92.1447 492.454ZM101.23 494.268H102.922V485.686H101.23V494.268ZM107.846 487.966C107.012 487.966 106.399 488.248 106.019 488.824V488.138H104.437V494.268H106.019V490.958C106.019 489.94 106.546 489.437 107.368 489.437C108.103 489.437 108.581 489.879 108.581 490.7V494.268H110.163V490.504C110.163 489.707 109.942 489.094 109.501 488.64C109.072 488.187 108.52 487.966 107.846 487.966ZM115.02 488.138H113.635V486.421L112.053 486.899V488.138H110.986V489.658H112.053V492.208C112.053 493.888 112.85 494.514 115.02 494.268V492.834C114.113 492.883 113.635 492.871 113.635 492.208V489.658H115.02V488.138ZM121.903 491.853C121.94 491.62 121.964 491.411 121.964 491.203C121.964 490.283 121.67 489.523 121.081 488.898C120.505 488.273 119.757 487.966 118.862 487.966C117.918 487.966 117.133 488.273 116.532 488.898C115.932 489.511 115.625 490.283 115.625 491.203C115.625 492.135 115.932 492.907 116.545 493.52C117.158 494.133 117.967 494.44 118.985 494.44C120.162 494.44 121.057 493.999 121.658 493.128L120.382 492.392C120.076 492.797 119.61 493.005 119.009 493.005C118.065 493.005 117.489 492.625 117.28 491.853H121.903ZM117.256 490.627C117.44 489.842 118.016 489.388 118.862 489.388C119.585 489.388 120.199 489.793 120.382 490.627H117.256ZM124.65 488.138H123.068V494.268H124.65V491.338C124.65 490.749 124.834 490.332 125.214 490.075C125.594 489.818 126.036 489.719 126.514 489.781V488.015C125.68 488.015 124.944 488.407 124.65 489.192V488.138ZM130.847 487.966C130.014 487.966 129.401 488.248 129.02 488.824V488.138H127.439V494.268H129.02V490.958C129.02 489.94 129.548 489.437 130.369 489.437C131.105 489.437 131.583 489.879 131.583 490.7V494.268H133.165V490.504C133.165 489.707 132.944 489.094 132.503 488.64C132.073 488.187 131.522 487.966 130.847 487.966ZM140.474 491.853C140.511 491.62 140.535 491.411 140.535 491.203C140.535 490.283 140.241 489.523 139.653 488.898C139.076 488.273 138.328 487.966 137.433 487.966C136.489 487.966 135.705 488.273 135.104 488.898C134.503 489.511 134.196 490.283 134.196 491.203C134.196 492.135 134.503 492.907 135.116 493.52C135.729 494.133 136.538 494.44 137.556 494.44C138.733 494.44 139.628 493.999 140.229 493.128L138.954 492.392C138.647 492.797 138.181 493.005 137.581 493.005C136.636 493.005 136.06 492.625 135.852 491.853H140.474ZM135.827 490.627C136.011 489.842 136.587 489.388 137.433 489.388C138.157 489.388 138.77 489.793 138.954 490.627H135.827ZM144.967 488.138H143.581V486.421L142 486.899V488.138H140.933V489.658H142V492.208C142 493.888 142.797 494.514 144.967 494.268V492.834C144.059 492.883 143.581 492.871 143.581 492.208V489.658H144.967V488.138ZM56.4807 509.44C57.4003 509.44 58.1482 509.207 58.7245 508.741C59.3008 508.275 59.595 507.65 59.595 506.853C59.595 506.362 59.4602 505.933 59.2762 505.639C59.1168 505.345 58.7245 505.038 58.467 504.879C58.3444 504.793 58.1605 504.707 57.9275 504.621C57.6946 504.523 57.5106 504.45 57.3758 504.413L56.7872 504.217C56.1496 504.021 55.7205 503.837 55.4875 503.677C55.2668 503.506 55.1565 503.285 55.1565 503.015C55.1565 502.512 55.5856 502.157 56.2845 502.157C57.0324 502.157 57.5842 502.525 57.9275 503.26L59.3498 502.439C58.7613 501.225 57.67 500.514 56.2845 500.514C55.5121 500.514 54.8377 500.747 54.286 501.213C53.7342 501.666 53.4645 502.292 53.4645 503.064C53.4645 503.849 53.7465 504.437 54.2737 504.83C54.8132 505.21 55.2791 505.394 56.0516 505.627C56.7504 505.823 57.2286 506.007 57.4984 506.179C57.7681 506.338 57.903 506.571 57.903 506.877C57.903 507.405 57.4739 507.785 56.5297 507.785C55.5488 507.785 54.8867 507.343 54.5557 506.473L53.1089 507.319C53.5871 508.631 54.7764 509.44 56.4807 509.44ZM64.6712 506.448C64.6712 507.466 64.144 507.969 63.3225 507.969C62.5868 507.969 62.1087 507.527 62.1087 506.706V503.138H60.527V506.902C60.527 507.699 60.7477 508.312 61.1768 508.766C61.6182 509.219 62.17 509.44 62.8443 509.44C63.6781 509.44 64.2911 509.158 64.6712 508.582V509.268H66.2529V503.138H64.6712V506.448ZM71.2696 502.966C70.4113 502.966 69.7492 503.26 69.2833 503.861V500.686H67.7016V509.268H69.2833V508.545C69.7492 509.146 70.4113 509.44 71.2696 509.44C72.0911 509.44 72.8022 509.133 73.3785 508.508C73.967 507.883 74.2613 507.11 74.2613 506.203C74.2613 505.296 73.967 504.536 73.3785 503.91C72.8022 503.285 72.0911 502.966 71.2696 502.966ZM69.7614 507.454C69.4426 507.123 69.2833 506.706 69.2833 506.203C69.2833 505.7 69.4426 505.283 69.7614 504.965C70.0802 504.634 70.4848 504.474 70.9753 504.474C71.4657 504.474 71.8704 504.634 72.1891 504.965C72.5202 505.283 72.6796 505.7 72.6796 506.203C72.6796 506.706 72.5202 507.123 72.1891 507.454C71.8704 507.772 71.4657 507.932 70.9753 507.932C70.4848 507.932 70.0802 507.772 69.7614 507.454ZM76.7041 504.879C76.7041 504.572 77.0107 504.376 77.4153 504.376C77.8689 504.376 78.2 504.585 78.3962 505.001L79.7449 504.266C79.2667 503.432 78.4084 502.966 77.4153 502.966C76.7532 502.966 76.2014 503.138 75.7478 503.493C75.3064 503.837 75.0856 504.315 75.0856 504.916C75.0856 506.191 76.2259 506.571 77.1333 506.804C77.7586 506.963 78.249 507.147 78.249 507.478C78.249 507.834 77.967 508.005 77.403 508.005C76.7777 508.005 76.3853 507.736 76.2014 507.208L74.8282 507.981C75.2818 508.95 76.1401 509.44 77.403 509.44C78.1019 509.44 78.6904 509.268 79.1564 508.937C79.6345 508.594 79.8675 508.104 79.8675 507.478C79.8798 506.166 78.715 505.737 77.8199 505.553C77.1946 505.394 76.7041 505.21 76.7041 504.879ZM83.719 509.44C84.9084 509.44 85.9506 508.815 86.4901 507.846L85.1168 507.061C84.8716 507.564 84.3444 507.871 83.7068 507.871C83.2286 507.871 82.8362 507.711 82.5297 507.405C82.2232 507.086 82.0638 506.681 82.0638 506.203C82.0638 505.222 82.7627 504.523 83.7068 504.523C84.3321 504.523 84.8593 504.842 85.1045 505.345L86.4655 504.548C85.9628 503.579 84.9084 502.966 83.719 502.966C82.7994 502.966 82.027 503.273 81.4017 503.898C80.7886 504.523 80.4821 505.283 80.4821 506.203C80.4821 507.123 80.7886 507.883 81.4017 508.508C82.027 509.133 82.7994 509.44 83.719 509.44ZM88.9562 503.138H87.3745V509.268H88.9562V506.338C88.9562 505.749 89.1401 505.332 89.5202 505.075C89.9003 504.818 90.3417 504.719 90.8199 504.781V503.015C89.9861 503.015 89.2504 503.407 88.9562 504.192V503.138ZM92.5296 502.402C93.0691 502.402 93.5105 501.961 93.5105 501.433C93.5105 500.906 93.0691 500.453 92.5296 500.453C92.0024 500.453 91.561 500.906 91.561 501.433C91.561 501.961 92.0024 502.402 92.5296 502.402ZM93.3266 509.268V503.138H91.7449V509.268H93.3266ZM98.3423 502.966C97.484 502.966 96.8219 503.26 96.356 503.861V503.138H94.7743V511.721H96.356V508.545C96.8219 509.146 97.484 509.44 98.3423 509.44C99.1638 509.44 99.8749 509.133 100.451 508.508C101.04 507.883 101.334 507.11 101.334 506.203C101.334 505.296 101.04 504.536 100.451 503.91C99.8749 503.285 99.1638 502.966 98.3423 502.966ZM96.8342 507.454C96.5154 507.123 96.356 506.706 96.356 506.203C96.356 505.7 96.5154 505.283 96.8342 504.965C97.1529 504.634 97.5576 504.474 98.048 504.474C98.5385 504.474 98.9431 504.634 99.2619 504.965C99.5929 505.283 99.7523 505.7 99.7523 506.203C99.7523 506.706 99.5929 507.123 99.2619 507.454C98.9431 507.772 98.5385 507.932 98.048 507.932C97.5576 507.932 97.1529 507.772 96.8342 507.454ZM105.824 503.138H104.439V501.421L102.857 501.899V503.138H101.791V504.658H102.857V507.208C102.857 508.888 103.654 509.514 105.824 509.268V507.834C104.917 507.883 104.439 507.871 104.439 507.208V504.658H105.824V503.138ZM107.724 502.402C108.264 502.402 108.705 501.961 108.705 501.433C108.705 500.906 108.264 500.453 107.724 500.453C107.197 500.453 106.756 500.906 106.756 501.433C106.756 501.961 107.197 502.402 107.724 502.402ZM108.521 509.268V503.138H106.94V509.268H108.521ZM115.192 508.508C115.818 507.883 116.136 507.11 116.136 506.203C116.136 505.296 115.818 504.536 115.192 503.91C114.567 503.285 113.794 502.966 112.887 502.966C111.98 502.966 111.207 503.285 110.582 503.91C109.957 504.536 109.65 505.296 109.65 506.203C109.65 507.11 109.957 507.883 110.582 508.508C111.207 509.133 111.98 509.44 112.887 509.44C113.794 509.44 114.567 509.133 115.192 508.508ZM111.698 507.417C111.391 507.098 111.232 506.693 111.232 506.203C111.232 505.713 111.391 505.308 111.698 504.989C112.017 504.67 112.409 504.511 112.887 504.511C113.365 504.511 113.758 504.67 114.076 504.989C114.395 505.308 114.555 505.713 114.555 506.203C114.555 506.693 114.395 507.098 114.076 507.417C113.758 507.736 113.365 507.895 112.887 507.895C112.409 507.895 112.017 507.736 111.698 507.417ZM120.658 502.966C119.824 502.966 119.211 503.248 118.831 503.824V503.138H117.249V509.268H118.831V505.958C118.831 504.94 119.358 504.437 120.179 504.437C120.915 504.437 121.393 504.879 121.393 505.7V509.268H122.975V505.504C122.975 504.707 122.754 504.094 122.313 503.64C121.884 503.187 121.332 502.966 120.658 502.966Z" fill="white"/>
<rect x="179.447" y="28.5159" width="133.51" height="133.51" fill="#9B5DE5"/>
<path d="M201.934 90.4419C202.805 89.5713 203.234 88.5169 203.234 87.2662C203.234 86.0156 202.805 84.9611 201.934 84.1028C201.064 83.2323 200.009 82.8032 198.771 82.8032C197.532 82.8032 196.478 83.2323 195.607 84.1028C194.749 84.9611 194.32 86.0156 194.32 87.2662C194.32 88.5169 194.749 89.5713 195.607 90.4419C196.478 91.3001 197.532 91.7293 198.771 91.7293C200.009 91.7293 201.064 91.3001 201.934 90.4419ZM196.797 89.2893C196.269 88.7621 196 88.0877 196 87.2662C196 86.4447 196.269 85.7704 196.797 85.2431C197.324 84.7159 197.986 84.4461 198.771 84.4461C199.555 84.4461 200.218 84.7159 200.745 85.2431C201.272 85.7704 201.542 86.4447 201.542 87.2662C201.542 88.0877 201.272 88.7621 200.745 89.2893C200.218 89.8165 199.555 90.074 198.771 90.074C197.986 90.074 197.324 89.8165 196.797 89.2893ZM208.455 88.7376C208.455 89.7552 207.928 90.2579 207.107 90.2579C206.371 90.2579 205.893 89.8165 205.893 88.995V85.427H204.311V89.1912C204.311 89.9882 204.532 90.6012 204.961 91.0549C205.402 91.5086 205.954 91.7293 206.629 91.7293C207.462 91.7293 208.075 91.4473 208.455 90.871V91.5576H210.037V85.427H208.455V88.7376ZM213.068 85.427H211.486V91.5576H213.068V88.6272C213.068 88.0387 213.251 87.6218 213.632 87.3643C214.012 87.1068 214.453 87.0087 214.931 87.07V85.3044C214.097 85.3044 213.362 85.6968 213.068 86.4815V85.427ZM215.93 82.9748V91.5576H217.622V88.7376H219.13C219.951 88.7376 220.65 88.4555 221.214 87.9038C221.778 87.352 222.06 86.6654 222.06 85.8562C222.06 85.0469 221.778 84.3603 221.214 83.8086C220.65 83.2568 219.951 82.9748 219.13 82.9748H215.93ZM217.622 87.1559V84.5565H219.13C219.853 84.5565 220.381 85.1083 220.381 85.8562C220.381 86.5919 219.853 87.1559 219.13 87.1559H217.622ZM227.341 86.1504C226.862 85.5497 226.2 85.2554 225.342 85.2554C224.52 85.2554 223.822 85.5742 223.233 86.1995C222.657 86.8248 222.363 87.585 222.363 88.4923C222.363 89.3997 222.657 90.1721 223.233 90.7974C223.822 91.4227 224.52 91.7293 225.342 91.7293C226.2 91.7293 226.862 91.435 227.341 90.8342V91.5576H228.922V85.427H227.341V86.1504ZM224.422 89.743C224.104 89.4119 223.944 88.995 223.944 88.4923C223.944 87.9896 224.104 87.5727 224.422 87.254C224.741 86.9229 225.146 86.7635 225.636 86.7635C226.127 86.7635 226.531 86.9229 226.85 87.254C227.181 87.5727 227.341 87.9896 227.341 88.4923C227.341 88.995 227.181 89.4119 226.85 89.743C226.531 90.0618 226.127 90.2212 225.636 90.2212C225.146 90.2212 224.741 90.0618 224.422 89.743ZM231.768 87.1681C231.768 86.8616 232.074 86.6654 232.479 86.6654C232.932 86.6654 233.264 86.8739 233.46 87.2907L234.808 86.5551C234.33 85.7213 233.472 85.2554 232.479 85.2554C231.817 85.2554 231.265 85.427 230.811 85.7826C230.37 86.1259 230.149 86.6041 230.149 87.2049C230.149 88.4801 231.289 88.8602 232.197 89.0931C232.822 89.2525 233.313 89.4364 233.313 89.7675C233.313 90.1231 233.031 90.2947 232.467 90.2947C231.841 90.2947 231.449 90.025 231.265 89.4977L229.892 90.2702C230.345 91.2388 231.204 91.7293 232.467 91.7293C233.165 91.7293 233.754 91.5576 234.22 91.2266C234.698 90.8833 234.931 90.3928 234.931 89.7675C234.943 88.4555 233.778 88.0264 232.883 87.8425C232.258 87.6831 231.768 87.4992 231.768 87.1681ZM237.084 87.1681C237.084 86.8616 237.391 86.6654 237.795 86.6654C238.249 86.6654 238.58 86.8739 238.776 87.2907L240.125 86.5551C239.647 85.7213 238.788 85.2554 237.795 85.2554C237.133 85.2554 236.581 85.427 236.128 85.7826C235.686 86.1259 235.466 86.6041 235.466 87.2049C235.466 88.4801 236.606 88.8602 237.513 89.0931C238.138 89.2525 238.629 89.4364 238.629 89.7675C238.629 90.1231 238.347 90.2947 237.783 90.2947C237.158 90.2947 236.765 90.025 236.581 89.4977L235.208 90.2702C235.662 91.2388 236.52 91.7293 237.783 91.7293C238.482 91.7293 239.07 91.5576 239.536 91.2266C240.014 90.8833 240.247 90.3928 240.247 89.7675C240.26 88.4555 239.095 88.0264 238.2 87.8425C237.574 87.6831 237.084 87.4992 237.084 87.1681ZM248.534 91.7293C250.103 91.7293 251.489 90.9446 252.225 89.7062L250.766 88.8602C250.361 89.6081 249.515 90.074 248.534 90.074C247.7 90.074 247.026 89.8165 246.511 89.2893C246.008 88.7621 245.751 88.0877 245.751 87.2662C245.751 86.4325 246.008 85.7581 246.511 85.2309C247.026 84.7036 247.7 84.4461 248.534 84.4461C249.515 84.4461 250.336 84.8998 250.766 85.6723L252.225 84.8262C251.489 83.5879 250.091 82.8032 248.534 82.8032C247.247 82.8032 246.18 83.2323 245.334 84.0906C244.488 84.9366 244.071 86.0033 244.071 87.2662C244.071 88.5291 244.488 89.5836 245.334 90.4419C246.18 91.3001 247.247 91.7293 248.534 91.7293ZM256.695 85.2554C255.861 85.2554 255.248 85.5374 254.868 86.1137V82.9748H253.286V91.5576H254.868V88.2471C254.868 87.2294 255.395 86.7267 256.217 86.7267C256.952 86.7267 257.431 87.1681 257.431 87.9896V91.5576H259.012V87.7934C259.012 86.9965 258.792 86.3834 258.35 85.9297C257.921 85.4761 257.369 85.2554 256.695 85.2554ZM266.322 89.1422C266.358 88.9092 266.383 88.7008 266.383 88.4923C266.383 87.5727 266.089 86.8126 265.5 86.1872C264.924 85.5619 264.176 85.2554 263.281 85.2554C262.337 85.2554 261.552 85.5619 260.951 86.1872C260.351 86.8003 260.044 87.5727 260.044 88.4923C260.044 89.4242 260.351 90.1966 260.964 90.8097C261.577 91.4227 262.386 91.7293 263.404 91.7293C264.581 91.7293 265.476 91.2879 266.076 90.4173L264.801 89.6817C264.495 90.0863 264.029 90.2947 263.428 90.2947C262.484 90.2947 261.908 89.9146 261.699 89.1422H266.322ZM261.675 87.9161C261.859 87.1313 262.435 86.6777 263.281 86.6777C264.004 86.6777 264.617 87.0823 264.801 87.9161H261.675ZM270.357 91.7293C271.547 91.7293 272.589 91.104 273.128 90.1353L271.755 89.3506C271.51 89.8533 270.983 90.1598 270.345 90.1598C269.867 90.1598 269.475 90.0005 269.168 89.6939C268.862 89.3751 268.702 88.9705 268.702 88.4923C268.702 87.5114 269.401 86.8126 270.345 86.8126C270.971 86.8126 271.498 87.1313 271.743 87.634L273.104 86.8371C272.601 85.8684 271.547 85.2554 270.357 85.2554C269.438 85.2554 268.665 85.5619 268.04 86.1872C267.427 86.8126 267.12 87.5727 267.12 88.4923C267.12 89.4119 267.427 90.1721 268.04 90.7974C268.665 91.4227 269.438 91.7293 270.357 91.7293ZM277.079 88.4555L279.544 85.427H277.656L275.547 88.1245V82.9748H273.965V91.5576H275.547V88.7743L277.778 91.5576H279.617L277.079 88.4555ZM285.187 90.7974C285.812 90.1721 286.131 89.3997 286.131 88.4923C286.131 87.585 285.812 86.8248 285.187 86.1995C284.562 85.5742 283.789 85.2554 282.882 85.2554C281.975 85.2554 281.202 85.5742 280.577 86.1995C279.952 86.8248 279.645 87.585 279.645 88.4923C279.645 89.3997 279.952 90.1721 280.577 90.7974C281.202 91.4227 281.975 91.7293 282.882 91.7293C283.789 91.7293 284.562 91.4227 285.187 90.7974ZM281.693 89.7062C281.386 89.3874 281.227 88.9828 281.227 88.4923C281.227 88.0019 281.386 87.5973 281.693 87.2785C282.011 86.9597 282.404 86.8003 282.882 86.8003C283.36 86.8003 283.753 86.9597 284.071 87.2785C284.39 87.5973 284.55 88.0019 284.55 88.4923C284.55 88.9828 284.39 89.3874 284.071 89.7062C283.753 90.025 283.36 90.1844 282.882 90.1844C282.404 90.1844 282.011 90.025 281.693 89.7062ZM291.29 88.7376C291.29 89.7552 290.763 90.2579 289.941 90.2579C289.206 90.2579 288.728 89.8165 288.728 88.995V85.427H287.146V89.1912C287.146 89.9882 287.367 90.6012 287.796 91.0549C288.237 91.5086 288.789 91.7293 289.463 91.7293C290.297 91.7293 290.91 91.4473 291.29 90.871V91.5576H292.872V85.427H291.29V88.7376ZM297.827 85.427H296.442V83.7105L294.86 84.1887V85.427H293.793V86.9474H294.86V89.4977C294.86 91.1775 295.657 91.8028 297.827 91.5576V90.1231C296.92 90.1721 296.442 90.1598 296.442 89.4977V86.9474H297.827V85.427ZM217.155 103.014H220.404V101.42H217.155V99.5933H220.711V97.9748H215.463V106.558H220.772V104.939H217.155V103.014ZM225.3 103.419L227.445 100.427H225.631L224.392 102.156L223.154 100.427H221.327L223.473 103.431L221.229 106.558H223.056L224.392 104.694L225.717 106.558H227.543L225.3 103.419ZM231.901 100.255C231.043 100.255 230.381 100.55 229.915 101.15V100.427H228.333V109.01H229.915V105.834C230.381 106.435 231.043 106.729 231.901 106.729C232.722 106.729 233.434 106.423 234.01 105.797C234.598 105.172 234.893 104.4 234.893 103.492C234.893 102.585 234.598 101.825 234.01 101.199C233.434 100.574 232.722 100.255 231.901 100.255ZM230.393 104.743C230.074 104.412 229.915 103.995 229.915 103.492C229.915 102.99 230.074 102.573 230.393 102.254C230.712 101.923 231.116 101.764 231.607 101.764C232.097 101.764 232.502 101.923 232.821 102.254C233.152 102.573 233.311 102.99 233.311 103.492C233.311 103.995 233.152 104.412 232.821 104.743C232.502 105.062 232.097 105.221 231.607 105.221C231.116 105.221 230.712 105.062 230.393 104.743ZM241.967 104.142C242.004 103.909 242.028 103.701 242.028 103.492C242.028 102.573 241.734 101.813 241.146 101.187C240.569 100.562 239.821 100.255 238.926 100.255C237.982 100.255 237.197 100.562 236.597 101.187C235.996 101.8 235.689 102.573 235.689 103.492C235.689 104.424 235.996 105.197 236.609 105.81C237.222 106.423 238.031 106.729 239.049 106.729C240.226 106.729 241.121 106.288 241.722 105.417L240.447 104.682C240.14 105.086 239.674 105.295 239.073 105.295C238.129 105.295 237.553 104.915 237.345 104.142H241.967ZM237.32 102.916C237.504 102.131 238.08 101.678 238.926 101.678C239.65 101.678 240.263 102.082 240.447 102.916H237.32ZM244.714 100.427H243.133V106.558H244.714V103.627C244.714 103.039 244.898 102.622 245.278 102.364C245.658 102.107 246.1 102.009 246.578 102.07V100.304C245.744 100.304 245.008 100.697 244.714 101.482V100.427ZM248.288 99.6914C248.827 99.6914 249.269 99.25 249.269 98.7227C249.269 98.1955 248.827 97.7418 248.288 97.7418C247.76 97.7418 247.319 98.1955 247.319 98.7227C247.319 99.25 247.76 99.6914 248.288 99.6914ZM249.085 106.558V100.427H247.503V106.558H249.085ZM256.491 104.142C256.528 103.909 256.553 103.701 256.553 103.492C256.553 102.573 256.258 101.813 255.67 101.187C255.093 100.562 254.346 100.255 253.45 100.255C252.506 100.255 251.722 100.562 251.121 101.187C250.52 101.8 250.214 102.573 250.214 103.492C250.214 104.424 250.52 105.197 251.133 105.81C251.746 106.423 252.555 106.729 253.573 106.729C254.75 106.729 255.645 106.288 256.246 105.417L254.971 104.682C254.664 105.086 254.198 105.295 253.598 105.295C252.653 105.295 252.077 104.915 251.869 104.142H256.491ZM251.844 102.916C252.028 102.131 252.604 101.678 253.45 101.678C254.174 101.678 254.787 102.082 254.971 102.916H251.844ZM261.065 100.255C260.232 100.255 259.618 100.537 259.238 101.114V100.427H257.657V106.558H259.238V103.247C259.238 102.229 259.766 101.727 260.587 101.727C261.323 101.727 261.801 102.168 261.801 102.99V106.558H263.383V102.793C263.383 101.996 263.162 101.383 262.721 100.93C262.291 100.476 261.74 100.255 261.065 100.255ZM267.651 106.729C268.841 106.729 269.883 106.104 270.422 105.135L269.049 104.351C268.804 104.853 268.277 105.16 267.639 105.16C267.161 105.16 266.769 105 266.462 104.694C266.156 104.375 265.996 103.971 265.996 103.492C265.996 102.511 266.695 101.813 267.639 101.813C268.264 101.813 268.792 102.131 269.037 102.634L270.398 101.837C269.895 100.868 268.841 100.255 267.651 100.255C266.732 100.255 265.959 100.562 265.334 101.187C264.721 101.813 264.414 102.573 264.414 103.492C264.414 104.412 264.721 105.172 265.334 105.797C265.959 106.423 266.732 106.729 267.651 106.729ZM277.122 104.142C277.159 103.909 277.183 103.701 277.183 103.492C277.183 102.573 276.889 101.813 276.301 101.187C275.724 100.562 274.976 100.255 274.081 100.255C273.137 100.255 272.352 100.562 271.752 101.187C271.151 101.8 270.844 102.573 270.844 103.492C270.844 104.424 271.151 105.197 271.764 105.81C272.377 106.423 273.186 106.729 274.204 106.729C275.381 106.729 276.276 106.288 276.877 105.417L275.602 104.682C275.295 105.086 274.829 105.295 274.228 105.295C273.284 105.295 272.708 104.915 272.5 104.142H277.122ZM272.475 102.916C272.659 102.131 273.235 101.678 274.081 101.678C274.805 101.678 275.418 102.082 275.602 102.916H272.475Z" fill="white"/>
<rect x="337.479" y="431.771" width="133.51" height="133.51" fill="#1AAE9F"/>
<path d="M370.732 489.818C371.271 489.388 371.541 488.812 371.541 488.101C371.541 487.402 371.284 486.826 370.781 486.372C370.278 485.918 369.665 485.686 368.93 485.686H365.546V494.268H369.187C369.935 494.268 370.573 494.035 371.088 493.569C371.603 493.104 371.86 492.503 371.86 491.779C371.86 490.909 371.48 490.247 370.732 489.818ZM368.93 487.267C369.469 487.267 369.849 487.672 369.849 488.211C369.849 488.751 369.457 489.155 368.93 489.155H367.238V487.267H368.93ZM367.238 492.687V490.664H369.187C369.763 490.664 370.18 491.093 370.18 491.669C370.18 492.257 369.763 492.687 369.187 492.687H367.238ZM373.68 487.402C374.22 487.402 374.661 486.961 374.661 486.433C374.661 485.906 374.22 485.453 373.68 485.453C373.153 485.453 372.712 485.906 372.712 486.433C372.712 486.961 373.153 487.402 373.68 487.402ZM374.477 494.268V488.138H372.896V494.268H374.477ZM377.507 494.268V485.318H375.925V494.268H377.507ZM380.536 494.268V485.318H378.954V494.268H380.536ZM389.708 488.861C389.23 488.26 388.568 487.966 387.71 487.966C386.888 487.966 386.189 488.285 385.601 488.91C385.025 489.536 384.73 490.296 384.73 491.203C384.73 492.11 385.025 492.883 385.601 493.508C386.189 494.133 386.888 494.44 387.71 494.44C388.568 494.44 389.23 494.146 389.708 493.545V494.268H391.29V488.138H389.708V488.861ZM386.79 492.454C386.471 492.123 386.312 491.706 386.312 491.203C386.312 490.7 386.471 490.283 386.79 489.965C387.109 489.634 387.514 489.474 388.004 489.474C388.494 489.474 388.899 489.634 389.218 489.965C389.549 490.283 389.708 490.7 389.708 491.203C389.708 491.706 389.549 492.123 389.218 492.454C388.899 492.772 388.494 492.932 388.004 492.932C387.514 492.932 387.109 492.772 386.79 492.454ZM396.133 487.966C395.299 487.966 394.686 488.248 394.306 488.824V488.138H392.724V494.268H394.306V490.958C394.306 489.94 394.833 489.437 395.655 489.437C396.39 489.437 396.869 489.879 396.869 490.7V494.268H398.45V490.504C398.45 489.707 398.23 489.094 397.788 488.64C397.359 488.187 396.807 487.966 396.133 487.966ZM404.448 488.861C403.982 488.26 403.32 487.966 402.461 487.966C401.64 487.966 400.929 488.285 400.34 488.91C399.764 489.536 399.47 490.296 399.47 491.203C399.47 492.11 399.764 492.883 400.34 493.508C400.929 494.133 401.64 494.44 402.461 494.44C403.32 494.44 403.982 494.146 404.448 493.545V494.268H406.029V485.686H404.448V488.861ZM401.53 492.454C401.211 492.123 401.051 491.706 401.051 491.203C401.051 490.7 401.211 490.283 401.53 489.965C401.861 489.634 402.265 489.474 402.756 489.474C403.246 489.474 403.651 489.634 403.97 489.965C404.288 490.283 404.448 490.7 404.448 491.203C404.448 491.706 404.288 492.123 403.97 492.454C403.651 492.772 403.246 492.932 402.756 492.932C402.265 492.932 401.861 492.772 401.53 492.454ZM414.686 494.44C416.255 494.44 417.64 493.655 418.376 492.417L416.917 491.571C416.512 492.319 415.666 492.785 414.686 492.785C413.852 492.785 413.177 492.527 412.662 492C412.16 491.473 411.902 490.798 411.902 489.977C411.902 489.143 412.16 488.469 412.662 487.942C413.177 487.414 413.852 487.157 414.686 487.157C415.666 487.157 416.488 487.611 416.917 488.383L418.376 487.537C417.64 486.299 416.243 485.514 414.686 485.514C413.398 485.514 412.331 485.943 411.485 486.801C410.639 487.647 410.222 488.714 410.222 489.977C410.222 491.24 410.639 492.294 411.485 493.153C412.331 494.011 413.398 494.44 414.686 494.44ZM424.037 488.861C423.559 488.26 422.897 487.966 422.039 487.966C421.217 487.966 420.518 488.285 419.93 488.91C419.353 489.536 419.059 490.296 419.059 491.203C419.059 492.11 419.353 492.883 419.93 493.508C420.518 494.133 421.217 494.44 422.039 494.44C422.897 494.44 423.559 494.146 424.037 493.545V494.268H425.619V488.138H424.037V488.861ZM421.119 492.454C420.8 492.123 420.641 491.706 420.641 491.203C420.641 490.7 420.8 490.283 421.119 489.965C421.438 489.634 421.842 489.474 422.333 489.474C422.823 489.474 423.228 489.634 423.547 489.965C423.878 490.283 424.037 490.7 424.037 491.203C424.037 491.706 423.878 492.123 423.547 492.454C423.228 492.772 422.823 492.932 422.333 492.932C421.842 492.932 421.438 492.772 421.119 492.454ZM430.621 487.966C429.763 487.966 429.101 488.26 428.635 488.861V485.686H427.053V494.268H428.635V493.545C429.101 494.146 429.763 494.44 430.621 494.44C431.443 494.44 432.154 494.133 432.73 493.508C433.319 492.883 433.613 492.11 433.613 491.203C433.613 490.296 433.319 489.536 432.73 488.91C432.154 488.285 431.443 487.966 430.621 487.966ZM429.113 492.454C428.794 492.123 428.635 491.706 428.635 491.203C428.635 490.7 428.794 490.283 429.113 489.965C429.432 489.634 429.836 489.474 430.327 489.474C430.817 489.474 431.222 489.634 431.541 489.965C431.872 490.283 432.031 490.7 432.031 491.203C432.031 491.706 431.872 492.123 431.541 492.454C431.222 492.772 430.817 492.932 430.327 492.932C429.836 492.932 429.432 492.772 429.113 492.454ZM436.31 494.268V485.318H434.728V494.268H436.31ZM443.717 491.853C443.753 491.62 443.778 491.411 443.778 491.203C443.778 490.283 443.484 489.523 442.895 488.898C442.319 488.273 441.571 487.966 440.676 487.966C439.732 487.966 438.947 488.273 438.346 488.898C437.745 489.511 437.439 490.283 437.439 491.203C437.439 492.135 437.745 492.907 438.358 493.52C438.972 494.133 439.781 494.44 440.798 494.44C441.976 494.44 442.871 493.999 443.471 493.128L442.196 492.392C441.89 492.797 441.424 493.005 440.823 493.005C439.879 493.005 439.303 492.625 439.094 491.853H443.717ZM439.07 490.627C439.254 489.842 439.83 489.388 440.676 489.388C441.399 489.388 442.012 489.793 442.196 490.627H439.07ZM372.757 509.44C373.676 509.44 374.424 509.207 375 508.741C375.577 508.275 375.871 507.65 375.871 506.853C375.871 506.362 375.736 505.933 375.552 505.639C375.393 505.345 375 505.038 374.743 504.879C374.62 504.793 374.436 504.707 374.203 504.621C373.97 504.523 373.787 504.45 373.652 504.413L373.063 504.217C372.426 504.021 371.996 503.837 371.763 503.677C371.543 503.506 371.432 503.285 371.432 503.015C371.432 502.512 371.862 502.157 372.56 502.157C373.308 502.157 373.86 502.525 374.203 503.26L375.626 502.439C375.037 501.225 373.946 500.514 372.56 500.514C371.788 500.514 371.114 500.747 370.562 501.213C370.01 501.666 369.74 502.292 369.74 503.064C369.74 503.849 370.022 504.437 370.55 504.83C371.089 505.21 371.555 505.394 372.327 505.627C373.026 505.823 373.505 506.007 373.774 506.179C374.044 506.338 374.179 506.571 374.179 506.877C374.179 507.405 373.75 507.785 372.806 507.785C371.825 507.785 371.163 507.343 370.832 506.473L369.385 507.319C369.863 508.631 371.052 509.44 372.757 509.44ZM380.947 506.448C380.947 507.466 380.42 507.969 379.598 507.969C378.863 507.969 378.385 507.527 378.385 506.706V503.138H376.803V506.902C376.803 507.699 377.024 508.312 377.453 508.766C377.894 509.219 378.446 509.44 379.12 509.44C379.954 509.44 380.567 509.158 380.947 508.582V509.268H382.529V503.138H380.947V506.448ZM387.545 502.966C386.687 502.966 386.025 503.26 385.559 503.861V500.686H383.977V509.268H385.559V508.545C386.025 509.146 386.687 509.44 387.545 509.44C388.367 509.44 389.078 509.133 389.654 508.508C390.243 507.883 390.537 507.11 390.537 506.203C390.537 505.296 390.243 504.536 389.654 503.91C389.078 503.285 388.367 502.966 387.545 502.966ZM386.037 507.454C385.719 507.123 385.559 506.706 385.559 506.203C385.559 505.7 385.719 505.283 386.037 504.965C386.356 504.634 386.761 504.474 387.251 504.474C387.742 504.474 388.146 504.634 388.465 504.965C388.796 505.283 388.955 505.7 388.955 506.203C388.955 506.706 388.796 507.123 388.465 507.454C388.146 507.772 387.742 507.932 387.251 507.932C386.761 507.932 386.356 507.772 386.037 507.454ZM392.98 504.879C392.98 504.572 393.287 504.376 393.691 504.376C394.145 504.376 394.476 504.585 394.672 505.001L396.021 504.266C395.543 503.432 394.684 502.966 393.691 502.966C393.029 502.966 392.477 503.138 392.024 503.493C391.582 503.837 391.362 504.315 391.362 504.916C391.362 506.191 392.502 506.571 393.409 506.804C394.034 506.963 394.525 507.147 394.525 507.478C394.525 507.834 394.243 508.005 393.679 508.005C393.054 508.005 392.661 507.736 392.477 507.208L391.104 507.981C391.558 508.95 392.416 509.44 393.679 509.44C394.378 509.44 394.966 509.268 395.432 508.937C395.91 508.594 396.143 508.104 396.143 507.478C396.156 506.166 394.991 505.737 394.096 505.553C393.47 505.394 392.98 505.21 392.98 504.879ZM399.995 509.44C401.184 509.44 402.226 508.815 402.766 507.846L401.393 507.061C401.147 507.564 400.62 507.871 399.983 507.871C399.504 507.871 399.112 507.711 398.806 507.405C398.499 507.086 398.34 506.681 398.34 506.203C398.34 505.222 399.039 504.523 399.983 504.523C400.608 504.523 401.135 504.842 401.38 505.345L402.741 504.548C402.239 503.579 401.184 502.966 399.995 502.966C399.075 502.966 398.303 503.273 397.678 503.898C397.064 504.523 396.758 505.283 396.758 506.203C396.758 507.123 397.064 507.883 397.678 508.508C398.303 509.133 399.075 509.44 399.995 509.44ZM405.232 503.138H403.65V509.268H405.232V506.338C405.232 505.749 405.416 505.332 405.796 505.075C406.176 504.818 406.618 504.719 407.096 504.781V503.015C406.262 503.015 405.526 503.407 405.232 504.192V503.138ZM408.806 502.402C409.345 502.402 409.786 501.961 409.786 501.433C409.786 500.906 409.345 500.453 408.806 500.453C408.278 500.453 407.837 500.906 407.837 501.433C407.837 501.961 408.278 502.402 408.806 502.402ZM409.602 509.268V503.138H408.021V509.268H409.602ZM414.618 502.966C413.76 502.966 413.098 503.26 412.632 503.861V503.138H411.05V511.721H412.632V508.545C413.098 509.146 413.76 509.44 414.618 509.44C415.44 509.44 416.151 509.133 416.727 508.508C417.316 507.883 417.61 507.11 417.61 506.203C417.61 505.296 417.316 504.536 416.727 503.91C416.151 503.285 415.44 502.966 414.618 502.966ZM413.11 507.454C412.791 507.123 412.632 506.706 412.632 506.203C412.632 505.7 412.791 505.283 413.11 504.965C413.429 504.634 413.833 504.474 414.324 504.474C414.814 504.474 415.219 504.634 415.538 504.965C415.869 505.283 416.028 505.7 416.028 506.203C416.028 506.706 415.869 507.123 415.538 507.454C415.219 507.772 414.814 507.932 414.324 507.932C413.833 507.932 413.429 507.772 413.11 507.454ZM422.1 503.138H420.715V501.421L419.133 501.899V503.138H418.066V504.658H419.133V507.208C419.133 508.888 419.93 509.514 422.1 509.268V507.834C421.193 507.883 420.715 507.871 420.715 507.208V504.658H422.1V503.138ZM424 502.402C424.54 502.402 424.981 501.961 424.981 501.433C424.981 500.906 424.54 500.453 424 500.453C423.473 500.453 423.032 500.906 423.032 501.433C423.032 501.961 423.473 502.402 424 502.402ZM424.797 509.268V503.138H423.216V509.268H424.797ZM431.468 508.508C432.093 507.883 432.412 507.11 432.412 506.203C432.412 505.296 432.093 504.536 431.468 503.91C430.843 503.285 430.07 502.966 429.163 502.966C428.256 502.966 427.483 503.285 426.858 503.91C426.233 504.536 425.926 505.296 425.926 506.203C425.926 507.11 426.233 507.883 426.858 508.508C427.483 509.133 428.256 509.44 429.163 509.44C430.07 509.44 430.843 509.133 431.468 508.508ZM427.974 507.417C427.667 507.098 427.508 506.693 427.508 506.203C427.508 505.713 427.667 505.308 427.974 504.989C428.293 504.67 428.685 504.511 429.163 504.511C429.641 504.511 430.034 504.67 430.352 504.989C430.671 505.308 430.831 505.713 430.831 506.203C430.831 506.693 430.671 507.098 430.352 507.417C430.034 507.736 429.641 507.895 429.163 507.895C428.685 507.895 428.293 507.736 427.974 507.417ZM436.934 502.966C436.1 502.966 435.487 503.248 435.107 503.824V503.138H433.525V509.268H435.107V505.958C435.107 504.94 435.634 504.437 436.455 504.437C437.191 504.437 437.669 504.879 437.669 505.7V509.268H439.251V505.504C439.251 504.707 439.03 504.094 438.589 503.64C438.16 503.187 437.608 502.966 436.934 502.966Z" fill="white"/>
</svg>
