<svg width="249" height="35" viewBox="0 0 249 35" fill="none" xmlns="http://www.w3.org/2000/svg">
<path d="M43.0904 0.0939464C42.1511 0.806549 41.2927 1.56774 40.5153 2.37751C39.7703 3.1549 39.2359 4.09424 38.912 5.19553L30.6522 34.1045H29.8263L21.6637 7.86779L16.0277 34.1045H15.2017V34.0073L2.71502 2.7662C2.09959 1.50296 1.40318 0.612203 0.625798 0.0939464H7.37932C7.12019 0.417856 6.99063 0.855135 6.99063 1.40578C6.99063 2.08599 7.23356 3.23587 7.71943 4.85542L16.7079 27.2538L21.2751 6.60454L20.7892 5.09836V5.04977L20.1576 3.10631C19.6393 1.7135 18.9753 0.709375 18.1655 0.0939464H24.919C24.5951 0.417856 24.4332 0.984699 24.4332 1.79447C24.4332 2.66903 24.5951 3.68935 24.919 4.85542L31.8669 27.108L38.2803 5.19553C38.4099 4.77445 38.4747 4.30478 38.4747 3.78652C38.4747 3.10631 38.3613 2.50708 38.1346 1.98882C37.9078 1.43817 37.6811 1.01709 37.4544 0.725571C37.26 0.401662 37.1304 0.19112 37.0657 0.0939464H43.0904ZM48.2436 4.5639C47.6282 4.5639 47.0937 4.35336 46.6402 3.93228C46.2192 3.47881 46.0086 2.94435 46.0086 2.32893C46.0086 1.7135 46.2192 1.19524 46.6402 0.774157C47.0937 0.320683 47.6282 0.0939464 48.2436 0.0939464C48.859 0.0939464 49.3773 0.320683 49.7984 0.774157C50.2518 1.19524 50.4786 1.7135 50.4786 2.32893C50.4786 2.94435 50.2518 3.47881 49.7984 3.93228C49.3773 4.35336 48.859 4.5639 48.2436 4.5639ZM45.5228 34.1045C46.3001 33.2623 46.6888 31.5942 46.6888 29.1001V14.8157C46.6888 12.192 46.3001 10.5238 45.5228 9.81125H50.3814V29.1001C50.3814 31.6914 50.7701 33.3595 51.5475 34.1045H45.5228ZM59.3016 17.4393C59.8198 15.2367 60.8078 13.3905 62.2654 11.9005C63.723 10.3781 65.3749 9.6169 67.2212 9.6169C67.7718 9.6169 68.2901 9.68168 68.7759 9.81125V14.1354C67.4479 13.4552 66.2171 13.1151 65.0834 13.1151C63.4314 13.1151 62.071 13.7468 61.0021 15.01C59.9656 16.2732 59.3988 17.909 59.3016 19.9172V29.1001C59.3016 31.6914 59.6903 33.3595 60.4677 34.1045H54.4429C55.2203 33.2623 55.609 31.5942 55.609 29.1001V14.8157C55.609 12.192 55.2203 10.5238 54.4429 9.81125H59.3016V17.4393ZM74.0328 21.9579C73.9032 22.6381 73.8384 23.3993 73.8384 24.2414C73.8384 26.1201 74.2271 27.7882 75.0045 29.2458C75.8143 30.671 76.8832 31.7076 78.2112 32.3554C79.3773 32.906 80.6081 33.1813 81.9038 33.1813C83.3938 33.1813 84.8514 32.825 86.2766 32.1124C87.7342 31.3998 89.0136 30.3471 90.1149 28.9543H92.8843C91.7183 30.4767 90.2445 31.659 88.463 32.5011C86.7138 33.3433 84.8352 33.7644 82.8269 33.7644C81.2074 33.7644 79.6202 33.4729 78.0655 32.8898C76.8022 32.404 75.6037 31.659 74.4701 30.6549C73.3688 29.6183 72.4618 28.3713 71.7492 26.9137C71.069 25.4237 70.7289 23.8204 70.7289 22.1036C70.7289 20.646 70.988 19.1884 71.5063 17.7308C72.4132 15.1072 73.9194 13.1313 76.0248 11.8033C78.1626 10.4753 80.4948 9.81125 83.0213 9.81125C84.8352 9.81125 86.5357 10.1352 88.1229 10.783C89.9691 11.4956 91.4267 12.775 92.4956 14.6213C93.5969 16.4676 94.1476 18.5244 94.1476 20.7918C94.1476 21.31 94.1314 21.6987 94.099 21.9579H74.0328ZM74.8102 19.237C74.551 19.8525 74.3405 20.5651 74.1785 21.3748H90.2607C90.617 19.7877 90.7951 18.4434 90.7951 17.3422C90.7951 15.7874 90.5198 14.4917 89.9691 13.4552C89.4185 12.3863 88.6735 11.6251 87.7342 11.1717C87.0863 10.8478 86.3252 10.6858 85.4506 10.6858C84.1873 10.6858 82.8431 11.0421 81.4179 11.7547C80.0251 12.4673 78.7295 13.4876 77.531 14.8157C76.3325 16.1113 75.4256 17.5851 74.8102 19.237ZM98.643 9.76266C98.643 7.68964 99.0317 5.92433 99.809 4.46673C100.586 3.00914 101.591 1.92404 102.821 1.21144C104.052 0.466443 105.364 0.0939464 106.757 0.0939464C108.085 0.0939464 109.316 0.417857 110.449 1.06568C111.616 1.68111 112.555 2.60425 113.268 3.83511C113.98 5.06596 114.336 6.52356 114.336 8.20789C114.336 8.56419 114.304 9.09864 114.239 9.81125H110.498C110.79 8.48322 110.935 7.31714 110.935 6.31302C110.935 4.46673 110.579 3.02533 109.866 1.98882C109.154 0.952309 108.279 0.434053 107.243 0.434053C106.433 0.434053 105.639 0.790354 104.862 1.50296C104.117 2.18317 103.502 3.23587 103.016 4.66108C102.562 6.05389 102.336 7.77061 102.336 9.81125V14.8157H109.575V15.3987H102.336V29.1001C102.336 31.6914 102.724 33.3595 103.502 34.1045H97.4769C98.2543 33.2623 98.643 31.5942 98.643 29.1001V15.3987H96.3108V14.8157H98.643V9.76266ZM122.122 17.4393C122.641 15.2367 123.629 13.3905 125.086 11.9005C126.544 10.3781 128.196 9.6169 130.042 9.6169C130.593 9.6169 131.111 9.68168 131.597 9.81125V14.1354C130.269 13.4552 129.038 13.1151 127.904 13.1151C126.252 13.1151 124.892 13.7468 123.823 15.01C122.786 16.2732 122.22 17.909 122.122 19.9172V29.1001C122.122 31.6914 122.511 33.3595 123.288 34.1045H117.264C118.041 33.2623 118.43 31.5942 118.43 29.1001V14.8157C118.43 12.192 118.041 10.5238 117.264 9.81125H122.122V17.4393ZM151.235 34.1045V30.5091C150.328 31.9343 149.114 33.0194 147.591 33.7644C146.069 34.477 144.433 34.8333 142.684 34.8333C141.032 34.8333 139.461 34.5256 137.971 33.9101C136.513 33.2947 135.331 32.4202 134.424 31.2865C133.517 30.1528 133.064 28.841 133.064 27.351C133.064 25.8286 133.469 24.5653 134.279 23.5612C135.088 22.5247 136.125 21.6825 137.388 21.0347C138.684 20.3545 140.708 19.4152 143.461 18.2167L151.187 14.9128C151.025 13.0018 150.409 11.5442 149.34 10.54C148.271 9.53592 147.024 9.03386 145.599 9.03386C144.595 9.03386 143.607 9.29299 142.635 9.81125C141.696 10.3295 140.902 11.0907 140.255 12.0948C139.639 13.0665 139.299 14.2164 139.234 15.5445H135.153C135.445 13.3419 136.578 11.6251 138.554 10.3943C140.562 9.16343 142.83 8.548 145.356 8.548C147.948 8.548 150.166 9.17962 152.013 10.4429C153.891 11.6737 154.863 13.4228 154.928 15.6902V29.1001C154.928 31.6914 155.316 33.3595 156.094 34.1045H151.235ZM136.902 26.6222C136.902 28.1122 137.226 29.4078 137.874 30.5091C138.554 31.578 139.445 32.404 140.546 32.987C141.647 33.5376 142.83 33.813 144.093 33.813C145.518 33.813 146.862 33.4405 148.126 32.6955C149.421 31.9505 150.458 30.8492 151.235 29.3916V15.8846V15.4473L143.656 18.7026C141.809 19.5123 140.465 20.1602 139.623 20.646C138.813 21.1319 138.149 21.8445 137.631 22.7838C137.145 23.6908 136.902 24.9702 136.902 26.6222ZM194.34 34.1045C195.118 33.2623 195.506 31.5942 195.506 29.1001V18.0224C195.506 15.3663 194.956 13.4066 193.854 12.1434C192.753 10.8801 191.328 10.2485 189.579 10.2485C188.121 10.2485 186.631 10.6696 185.109 11.5118C183.586 12.3539 182.339 13.439 181.368 14.7671C181.594 15.7712 181.708 16.7591 181.708 17.7308V29.1001C181.708 31.6914 182.096 33.3595 182.874 34.1045H176.849C177.626 33.2623 178.015 31.5942 178.015 29.1001V18.0224C178.015 15.3987 177.464 13.4552 176.363 12.192C175.262 10.9287 173.853 10.2971 172.136 10.2971C170.646 10.2971 169.14 10.7182 167.618 11.5604C166.095 12.3701 164.848 13.439 163.876 14.7671V29.1001C163.876 31.6914 164.265 33.3595 165.042 34.1045H159.018C159.795 33.2623 160.184 31.5942 160.184 29.1001V14.8157C160.184 12.192 159.795 10.5238 159.018 9.81125H163.876V13.9897C164.978 12.4997 166.435 11.3174 168.249 10.4429C170.063 9.56831 171.877 9.13104 173.691 9.13104C175.44 9.13104 176.979 9.56831 178.307 10.4429C179.667 11.285 180.623 12.5483 181.173 14.2326C182.274 12.6778 183.748 11.447 185.595 10.54C187.441 9.60071 189.32 9.13104 191.231 9.13104C193.53 9.13104 195.425 9.85983 196.915 11.3174C198.438 12.7426 199.199 14.8804 199.199 17.7308V29.1001C199.199 31.6914 199.587 33.3595 200.365 34.1045H194.34ZM207.076 21.9579C206.947 22.6381 206.882 23.3993 206.882 24.2414C206.882 26.1201 207.271 27.7882 208.048 29.2458C208.858 30.671 209.927 31.7076 211.255 32.3554C212.421 32.906 213.652 33.1813 214.947 33.1813C216.437 33.1813 217.895 32.825 219.32 32.1124C220.778 31.3998 222.057 30.3471 223.158 28.9543H225.928C224.762 30.4767 223.288 31.659 221.506 32.5011C219.757 33.3433 217.879 33.7644 215.87 33.7644C214.251 33.7644 212.664 33.4729 211.109 32.8898C209.846 32.404 208.647 31.659 207.514 30.6549C206.412 29.6183 205.505 28.3713 204.793 26.9137C204.112 25.4237 203.772 23.8204 203.772 22.1036C203.772 20.646 204.031 19.1884 204.55 17.7308C205.457 15.1072 206.963 13.1313 209.068 11.8033C211.206 10.4753 213.538 9.81125 216.065 9.81125C217.879 9.81125 219.579 10.1352 221.166 10.783C223.013 11.4956 224.47 12.775 225.539 14.6213C226.64 16.4676 227.191 18.5244 227.191 20.7918C227.191 21.31 227.175 21.6987 227.142 21.9579H207.076ZM207.854 19.237C207.595 19.8525 207.384 20.5651 207.222 21.3748H223.304C223.66 19.7877 223.839 18.4434 223.839 17.3422C223.839 15.7874 223.563 14.4917 223.013 13.4552C222.462 12.3863 221.717 11.6251 220.778 11.1717C220.13 10.8478 219.369 10.6858 218.494 10.6858C217.231 10.6858 215.887 11.0421 214.461 11.7547C213.069 12.4673 211.773 13.4876 210.574 14.8157C209.376 16.1113 208.469 17.5851 207.854 19.237ZM237.371 33.9587C236.691 33.9263 235.946 33.813 235.136 33.6186C234.294 33.4891 233.759 33.4243 233.533 33.4243C233.112 33.4243 232.755 33.4891 232.464 33.6186L230.569 26.0877L230.763 25.9905C231.217 27.1566 232.059 28.1931 233.29 29.1001C234.553 30.007 235.978 30.7196 237.565 31.2379C239.185 31.7238 240.724 31.9667 242.181 31.9667C243.736 31.9667 244.999 31.6752 245.971 31.0921C246.975 30.5091 247.477 29.6183 247.477 28.4199C247.477 27.6425 247.169 26.9785 246.554 26.4278C245.971 25.8448 245.242 25.3751 244.368 25.0188C243.493 24.6625 242.262 24.2252 240.675 23.707C238.602 23.0592 236.901 22.4437 235.573 21.8607C234.245 21.2453 233.112 20.4031 232.172 19.3342C231.233 18.2329 230.763 16.8563 230.763 15.2043C230.763 13.0989 231.46 11.5118 232.853 10.4429C234.278 9.34158 236.254 8.79093 238.78 8.79093C239.136 8.79093 239.736 8.82332 240.578 8.8881L242.23 9.08245C243.137 9.2444 243.882 9.32538 244.465 9.32538C245.145 9.32538 245.631 9.17962 245.922 8.8881L247.574 15.6902L247.38 15.7874C247.056 14.8157 246.327 13.9411 245.193 13.1637C244.06 12.3539 242.716 11.7223 241.161 11.2688C239.638 10.783 238.165 10.54 236.739 10.54C235.12 10.54 233.792 10.864 232.755 11.5118C231.751 12.1272 231.249 13.0827 231.249 14.3784C231.249 15.5768 231.832 16.5162 232.998 17.1964C234.197 17.8442 236.011 18.5244 238.44 19.237C240.578 19.9172 242.294 20.5489 243.59 21.1319C244.886 21.6825 245.971 22.4761 246.845 23.5126C247.752 24.5491 248.157 25.861 248.06 27.4481C247.931 29.7479 247.202 31.4322 245.874 32.5011C244.578 33.5376 242.473 34.0559 239.557 34.0559C239.136 34.0559 238.408 34.0235 237.371 33.9587Z" fill="#2D1A06"/>
</svg>
